<?xml version="1.0" standalone="no"?>
<!DOCTYPE svg PUBLIC "-//W3C//DTD SVG 1.1//EN" "http://www.w3.org/Graphics/SVG/1.1/DTD/svg11.dtd" >
<svg xmlns="http://www.w3.org/2000/svg" xmlns:xlink="http://www.w3.org/1999/xlink" version="1.1">
<metadata>
Created by Christoph Koeberlin (http://christoph.koe.berlin)
Copyright (c) 2015 by Volkswagen AG. All rights reserved.
</metadata>
<defs>
<font id="Font" horiz-adv-x="550" >
  <font-face 
    font-family="Font"
    font-weight="700"
    font-style="italic"
    font-stretch="normal"
    units-per-em="1000"
    panose-1="2 11 8 4 4 2 0 0 0 3"
    ascent="800"
    descent="-200"
    x-height="482"
    cap-height="680"
    bbox="-259 -220 1088 942"
    underline-thickness="90"
    underline-position="-20"
    slope="-12"
    unicode-range="U+0020-FB02"
  />
<missing-glyph horiz-adv-x="618" 
d="M115 680h413v-680h-413v680zM470 58v564h-297v-564h297z" />
    <glyph glyph-name=".notdef" horiz-adv-x="618" 
d="M115 680h413v-680h-413v680zM470 58v564h-297v-564h297z" />
    <glyph glyph-name="glyph1" horiz-adv-x="0" 
 />
    <glyph glyph-name="glyph2" horiz-adv-x="219" 
 />
    <glyph glyph-name="space" unicode=" " horiz-adv-x="225" 
 />
    <glyph glyph-name="exclam" unicode="!" horiz-adv-x="270" 
d="M164 235h-76l32 291l33 154h133l-32 -154zM10 49q0 42 27.5 71.5t69.5 29.5q30 0 46 -18t16 -47q0 -42 -28 -71t-70 -29q-29 0 -45 17.5t-16 46.5z" />
    <glyph glyph-name="quotedbl" unicode="&#x22;" horiz-adv-x="416" 
d="M358 405h-75l12 180l20 95h127l-20 -95zM184 405h-75l12 180l20 95h127l-20 -95z" />
    <glyph glyph-name="numbersign" unicode="#" horiz-adv-x="667" 
d="M38 0l2 10l64 154h-82l13 85h104l74 178h-77l13 85h99l69 168h100l-2 -10l-66 -158h129l70 168h100l-2 -10l-66 -158h88l-13 -85h-109l-74 -178h82l-13 -85h-104l-68 -164h-99l2 10l63 154h-130l-67 -164h-100zM240 249h130l73 178h-129z" />
    <glyph glyph-name="dollar" unicode="$" 
d="M68 147q24 -21 58.5 -36.5t75.5 -19.5l44 209l-29 16q-51 28 -79.5 69.5t-28.5 92.5q0 90 57.5 147t162.5 68l17 77h80l-17 -78q34 -5 65 -16t57 -27l-50 -97q-22 13 -46.5 21.5t-47.5 12.5l-44 -203l7 -3q53 -29 89 -72.5t36 -101.5q0 -44 -15.5 -81t-44 -65.5
t-68.5 -47t-88 -24.5l-24 -116h-80l24 115q-52 5 -91 22.5t-70 41.5zM241 490q0 -20 7 -36t24 -30l33 157q-32 -12 -48 -36.5t-16 -54.5zM343 192q0 35 -27 62l-32 -151q27 12 43 35t16 54z" />
    <glyph glyph-name="percent" unicode="%" horiz-adv-x="800" 
d="M64 0l2 10l590 670h108l-3 -10l-589 -670h-108zM169 462q0 -34 11 -49.5t29 -15.5q24 0 40.5 12.5t27 32.5t15.5 46.5t5 55.5q0 65 -43 65q-17 0 -32 -10.5t-27 -29.5t-19 -46.5t-7 -60.5zM386 549q0 -42 -12 -83.5t-35.5 -73.5t-58.5 -52t-82 -20q-31 0 -53 11
t-36.5 29.5t-21 43t-6.5 52.5q0 42 11.5 83.5t34.5 74t57.5 52.5t80.5 20q32 0 55 -11t37.5 -30t21.5 -43.5t7 -52.5zM527 134q0 -34 11 -49.5t29 -15.5q24 0 40.5 12.5t27 32.5t15.5 46.5t5 55.5q0 65 -43 65q-17 0 -32 -10.5t-27 -29.5t-19 -46.5t-7 -60.5zM744 221
q0 -42 -12 -83.5t-35.5 -73.5t-58.5 -52t-82 -20q-31 0 -53 11t-36.5 29.5t-21 43t-6.5 52.5q0 42 11.5 83.5t34.5 74t57.5 52.5t80.5 20q32 0 55 -11t37.5 -30t21.5 -43.5t7 -52.5z" />
    <glyph glyph-name="ampersand" unicode="&#x26;" horiz-adv-x="675" 
d="M641 308q-46 -57 -82.5 -96.5t-60.5 -61.5l98 -140l-2 -10h-138l-44 67q-54 -42 -105 -62t-108 -20q-40 0 -72.5 11.5t-55 32t-34.5 48.5t-12 61q0 48 18 84.5t45 63.5t58.5 46t59.5 33l10 5l-3 5q-13 22 -27.5 53.5t-14.5 72.5q0 38 15.5 73t43.5 62t66.5 43t84.5 16
q34 0 62.5 -12t48.5 -32.5t31.5 -47.5t11.5 -56q0 -36 -11.5 -63.5t-31 -50t-45 -40.5t-53.5 -35l-28 -17l74 -106q19 17 48 49.5t75 90.5zM258 286q-14 -9 -32 -21t-34 -27.5t-26.5 -35.5t-10.5 -45q0 -29 17.5 -49.5t49.5 -20.5q37 0 69 17.5t65 46.5l-90 140zM346 436
q35 21 55.5 43.5t20.5 58.5q0 26 -13.5 40.5t-37.5 14.5q-38 0 -60.5 -28.5t-22.5 -66.5q0 -15 5 -32t16 -36l7 -12z" />
    <glyph glyph-name="quotesingle" unicode="'" horiz-adv-x="242" 
d="M184 405h-75l12 180l20 95h127l-20 -95z" />
    <glyph glyph-name="parenleft" unicode="(" horiz-adv-x="290" 
d="M28 83q0 102 20 193t53.5 170.5t77 147t89.5 122.5l63 -40q-32 -49 -67 -106.5t-64.5 -132t-48.5 -169t-19 -216.5q0 -62 6.5 -127.5t15.5 -117.5l-82 -21q-8 26 -16 60t-14 72.5t-10 80.5t-4 84z" />
    <glyph glyph-name="parenright" unicode=")" horiz-adv-x="290" 
d="M249 419q0 -102 -20 -193t-53.5 -170.5t-77 -147t-89.5 -122.5l-63 40q32 49 67 106.5t64.5 132t48.5 169t19 216.5q0 62 -6.5 127.5t-15.5 117.5l82 21q8 -26 16 -60t14 -72.5t10 -80.5t4 -84z" />
    <glyph glyph-name="asterisk" unicode="*" horiz-adv-x="443" 
d="M221 462l-102 -67l-30 88l112 45v2l-92 45l64 80l74 -67l2 1l12 111h97l-37 -111l2 -1l102 67l30 -88l-112 -44v-2l92 -46l-64 -80l-75 68l-2 -1l-11 -113h-97l37 112z" />
    <glyph glyph-name="plus" unicode="+" 
d="M335 323h179l-22 -103h-179l-41 -194h-107l42 194h-178l22 103h177l41 193h107z" />
    <glyph glyph-name="comma" unicode="," horiz-adv-x="259" 
d="M-70 -151l121 286h122l-2 -10l-151 -286h-92z" />
    <glyph glyph-name="hyphen" unicode="-" horiz-adv-x="407" 
d="M52 220l22 103h277l-22 -103h-277z" />
    <glyph glyph-name="period" unicode="." horiz-adv-x="261" 
d="M4 50q0 21 7.5 39t21 31.5t31.5 21.5t38 8q31 0 48 -18.5t17 -47.5q0 -42 -29 -70.5t-71 -28.5q-30 0 -46.5 18t-16.5 47z" />
    <glyph glyph-name="slash" unicode="/" horiz-adv-x="412" 
d="M-34 0l2 10l394 670h108l-2 -10l-393 -670h-109z" />
    <glyph glyph-name="zero" unicode="0" 
d="M152 227q0 -66 19 -101t64 -35q33 0 66.5 17.5t60.5 59.5t44 111.5t17 173.5q0 66 -19.5 101t-62.5 35q-33 0 -66.5 -18t-61 -60t-44.5 -111.5t-17 -172.5zM550 455q0 -122 -28.5 -211t-75 -146.5t-105 -85t-119.5 -27.5q-51 0 -88.5 17.5t-62 49t-36 75.5t-11.5 98
q0 119 27.5 207.5t73.5 147t105.5 87t122.5 28.5q51 0 88 -17.5t61.5 -49t36 -75.5t11.5 -98z" />
    <glyph glyph-name="one" unicode="1" 
d="M153 511l24 113l162 56h89l-123 -577h135l-22 -103h-388l22 103h129l95 445h-2l-109 -37h-12z" />
    <glyph glyph-name="two" unicode="2" 
d="M189 103h257l-22 -103h-420l20 94l274 248q43 38 70 73t27 83q0 39 -19.5 65t-54.5 26q-43 0 -76 -22t-66 -50l-60 81q16 15 39 32t51 31.5t61 24t69 9.5q87 0 137 -49t50 -134q0 -43 -15.5 -79.5t-37 -66t-46 -52.5t-42.5 -39l-196 -170v-2z" />
    <glyph glyph-name="three" unicode="3" 
d="M163 397h103q33 0 56 10.5t37 27t20 37.5t6 42q0 32 -18.5 53.5t-59.5 21.5q-32 0 -71 -9.5t-79 -27.5l-28 98q21 10 45.5 18.5t49.5 14.5t49.5 9t45.5 3q49 0 86.5 -11.5t62.5 -32.5t37.5 -50.5t12.5 -64.5q0 -39 -13 -71t-32.5 -56t-42.5 -41t-44 -26v-2
q34 -16 56.5 -47.5t22.5 -82.5q0 -50 -19.5 -91.5t-55.5 -71t-87 -46t-115 -16.5q-57 0 -103.5 14t-79.5 37l43 97q29 -19 65 -30.5t87 -11.5q28 0 53 9t44.5 25t31 39t11.5 52q0 36 -23 56t-74 20h-102z" />
    <glyph glyph-name="four" unicode="4" 
d="M490 459l-45 -209h68l-22 -103h-68l-31 -147h-125l31 147h-295l18 87l266 446h127l-250 -430h156l45 209h125z" />
    <glyph glyph-name="five" unicode="5" 
d="M102 327l107 353h331l-22 -103h-221l-45 -154q14 1 21 1h14q41 0 75 -10t58.5 -30.5t38 -52t13.5 -74.5q0 -65 -21.5 -116t-60.5 -85.5t-93.5 -52.5t-120.5 -18q-16 0 -37 2.5t-44 7.5t-46.5 12t-44.5 16l40 103q38 -18 78.5 -26.5t69.5 -8.5q76 0 112.5 40.5t36.5 104.5
q0 81 -91 81q-33 0 -69 -2.5t-65 -5.5z" />
    <glyph glyph-name="six" unicode="6" 
d="M477 670l-201 -240l1 -1q13 7 30.5 13.5t43.5 6.5q35 0 63 -13.5t48 -37.5t30.5 -57.5t10.5 -72.5q0 -57 -19 -108t-55 -90t-87 -62t-115 -23q-50 0 -87.5 15t-62 41.5t-37 61t-12.5 73.5q0 37 7 68t20.5 59.5t32 55.5t42.5 57l210 264h139zM375 252q0 44 -22 67.5
t-60 23.5q-61 0 -98 -43t-37 -113q0 -44 21 -70t60 -26q28 0 52.5 12t43 34t29.5 51t11 64z" />
    <glyph glyph-name="seven" unicode="7" 
d="M62 10l345 565v2h-277l21 103h416l-20 -93l-353 -587h-134z" />
    <glyph glyph-name="eight" unicode="8" 
d="M233 91q33 0 58 10.5t41.5 28.5t25 41t8.5 49q0 35 -21 58t-68 23q-34 0 -58.5 -10.5t-40.5 -28.5t-23.5 -41.5t-7.5 -49.5q0 -35 20 -57.5t66 -22.5zM351 695q48 0 82.5 -12t57.5 -32.5t34 -48.5t11 -60q0 -39 -11 -70t-28 -54t-39 -38.5t-43 -25.5v-2q35 -16 56 -52
t21 -85q0 -50 -18 -92t-52.5 -72.5t-85 -48t-116.5 -17.5q-51 0 -90 12.5t-65 34t-39 51.5t-13 66q0 40 12.5 73.5t33 60.5t48 47t57.5 32v2q-22 14 -39.5 41t-17.5 72q0 44 14 83.5t44 69.5t76 47.5t110 17.5zM300 406q28 0 48 9.5t33 25.5t19 37t6 44q0 30 -16 48.5
t-51 18.5q-29 0 -48.5 -9.5t-32.5 -26t-18.5 -37.5t-5.5 -44q0 -30 15.5 -48t50.5 -18z" />
    <glyph glyph-name="nine" unicode="9" 
d="M96 10l200 241l-1 1q-13 -7 -30 -14t-43 -7q-35 0 -63 13.5t-48 37.5t-30.5 57.5t-10.5 72.5q0 57 19 108t55 90t87 62t115 23q50 0 87.5 -15t62 -41.5t37 -61t12.5 -73.5q0 -41 -7.5 -72t-21 -58t-32.5 -52.5t-42 -55.5l-209 -266h-139zM198 428q0 -44 22 -67.5
t60 -23.5q61 0 98 43t37 113q0 44 -21 70t-60 26q-28 0 -52.5 -12t-43 -34t-29.5 -51.5t-11 -63.5z" />
    <glyph glyph-name="colon" unicode=":" horiz-adv-x="286" 
d="M89 397q0 21 7.5 39t21 31.5t31.5 21.5t38 8q31 0 48 -18.5t17 -47.5q0 -42 -29 -70.5t-71 -28.5q-30 0 -46.5 18t-16.5 47zM16 50q0 21 7.5 39t21 31.5t31.5 21.5t38 8q31 0 48 -18.5t17 -47.5q0 -42 -29 -70.5t-71 -28.5q-30 0 -46.5 18t-16.5 47z" />
    <glyph glyph-name="semicolon" unicode=";" horiz-adv-x="288" 
d="M-64 -151l121 286h122l-2 -10l-151 -286h-92zM97 397q0 21 7.5 39t21 31.5t31.5 21.5t38 8q31 0 48 -18.5t17 -47.5q0 -42 -29 -70.5t-71 -28.5q-30 0 -46.5 18t-16.5 47z" />
    <glyph glyph-name="less" unicode="&#x3c;" 
d="M422 -4l-406 225l21 99l502 225h8l-23 -113l-391 -164v-3l321 -164l-23 -105h-9z" />
    <glyph glyph-name="equal" unicode="=" 
d="M54 333l22 103h463l-22 -103h-463zM491 210l-22 -103h-463l22 103h463z" />
    <glyph glyph-name="greater" unicode="&#x3e;" 
d="M-3 -4l23 113l391 164v3l-320 164l23 105h9l405 -225l-21 -99l-501 -225h-9z" />
    <glyph glyph-name="question" unicode="?" horiz-adv-x="469" 
d="M160 235l22 130q70 25 114.5 61t44.5 93q0 26 -15 47t-48 21q-38 0 -68.5 -17.5t-63.5 -42.5l-51 87q16 14 38.5 28.5t49.5 26t56 19t59 7.5q86 0 134 -43t48 -114q0 -52 -20 -91t-50 -67.5t-63.5 -48.5t-60.5 -33l-26 -63h-100zM95 49q0 21 7.5 39.5t20 32t30 21.5
t38.5 8q30 0 46 -18t16 -47q0 -21 -7.5 -39.5t-20.5 -32t-30.5 -21t-38.5 -7.5q-29 0 -45 17.5t-16 46.5z" />
    <glyph glyph-name="at" unicode="@" horiz-adv-x="921" 
d="M569 -107q-35 -13 -83.5 -23t-105.5 -10q-81 0 -144.5 22t-107.5 63.5t-67.5 102t-23.5 137.5q0 104 39.5 200t110 169.5t167.5 117t212 43.5q79 0 138.5 -24.5t99.5 -66t60.5 -97t20.5 -117.5q0 -85 -25 -152.5t-64 -114t-87.5 -71t-94.5 -24.5q-51 0 -77.5 17.5
t-36.5 46.5h-2q-30 -20 -62 -36t-74 -16q-61 0 -96 40t-35 100q0 49 19.5 103t54 99t81.5 74.5t102 29.5q42 0 68.5 -15.5t41.5 -31.5h1l30 35h78l-104 -266q-17 -45 -13 -71.5t39 -26.5q27 0 56.5 18.5t54.5 54t41 86.5t16 117q0 46 -13.5 88t-42 73t-74 49.5t-109.5 18.5
q-93 0 -172 -36.5t-136 -97t-89 -140t-32 -166.5q0 -119 64.5 -187.5t193.5 -68.5q48 0 90 9t73 17zM562 390q-12 11 -29 16.5t-37 5.5q-32 0 -60 -18.5t-48.5 -47t-32 -63t-11.5 -67.5q0 -27 13 -44t42 -17q20 0 45 9t43 23z" />
    <glyph glyph-name="A" unicode="A" horiz-adv-x="607" 
d="M537 0h-130l-8 149h-238l-73 -149h-137l363 680h147zM367 570l-83 -183l-69 -139h170l-11 139l-4 183h-3z" />
    <glyph glyph-name="B" unicode="B" horiz-adv-x="604" 
d="M171 103h113q37 0 62 9.5t40 26t21 39.5t6 51q0 35 -22 53t-73 18h-105zM379 680q97 0 149 -36t52 -108q0 -38 -11 -69t-28.5 -54t-39.5 -39t-43 -25v-2q37 -15 59 -46t22 -79q0 -49 -13 -90t-43 -70t-79 -45.5t-121 -16.5h-259l145 680h210zM233 396h91q37 0 60.5 7
t37.5 21t19.5 36t5.5 52q0 35 -20.5 50t-66.5 15h-88z" />
    <glyph glyph-name="C" unicode="C" horiz-adv-x="561" 
d="M57 252q0 92 26 173t74 141t116.5 94.5t154.5 34.5q42 0 83.5 -11t78.5 -33l-43 -95q-35 21 -67 27t-64 6q-47 0 -88.5 -26t-72.5 -70t-49 -102t-18 -123q0 -78 31.5 -127.5t90.5 -49.5q32 0 66.5 6t78.5 27l23 -95q-46 -22 -92.5 -33t-88.5 -11q-59 0 -104 20t-75 55
t-45.5 84t-15.5 108z" />
    <glyph glyph-name="D" unicode="D" horiz-adv-x="643" 
d="M169 680h179q68 0 117 -16.5t80.5 -47.5t46.5 -75.5t15 -101.5q0 -128 -30.5 -212.5t-83 -135t-122.5 -71t-148 -20.5h-199zM223 103q58 0 105 17.5t80.5 56t51.5 101t18 152.5q0 73 -34.5 110t-119.5 37h-52l-101 -474h52z" />
    <glyph glyph-name="E" unicode="E" horiz-adv-x="545" 
d="M572 680l-22 -103h-278l-39 -181h249l-22 -103h-249l-40 -190h281l-21 -103h-407l145 680h403z" />
    <glyph glyph-name="F" unicode="F" horiz-adv-x="531" 
d="M572 680l-22 -103h-278l-44 -203h250l-22 -103h-249l-58 -271h-125l145 680h403z" />
    <glyph glyph-name="G" unicode="G" horiz-adv-x="631" 
d="M587 358l-66 -318q-48 -24 -108 -39.5t-124 -15.5q-59 0 -102.5 20.5t-72.5 56.5t-43.5 85t-14.5 106q0 84 24.5 163.5t72.5 141.5t119.5 99.5t165.5 37.5q61 0 111 -16.5t82 -34.5l-45 -96q-31 17 -71.5 29t-88.5 12q-63 0 -109 -29t-75.5 -76.5t-43.5 -107.5t-14 -121
q0 -72 29 -118t94 -46q28 0 54 5t49 16l30 143l-102 18l18 85h231z" />
    <glyph glyph-name="H" unicode="H" horiz-adv-x="667" 
d="M460 293h-249l-62 -293h-125l145 680h125l-61 -284h249l60 284h125l-144 -680h-125z" />
    <glyph glyph-name="I" unicode="I" horiz-adv-x="293" 
d="M149 0h-125l145 680h125z" />
    <glyph glyph-name="J" unicode="J" horiz-adv-x="449" 
d="M42 143q16 -20 35 -36t55 -16q41 0 63.5 31.5t33.5 85.5l100 472h125l-104 -490q-23 -105 -81.5 -155t-151.5 -50q-52 0 -90.5 22t-59.5 49z" />
    <glyph glyph-name="K" unicode="K" horiz-adv-x="589" 
d="M214 306l-65 -306h-125l145 680h125l-71 -330h2l278 330h147l-2 -10l-307 -349l178 -311l-2 -10h-138l-163 306h-2z" />
    <glyph glyph-name="L" unicode="L" horiz-adv-x="491" 
d="M294 680l-122 -572h257l-23 -108h-382l145 680h125z" />
    <glyph glyph-name="M" unicode="M" horiz-adv-x="793" 
d="M391 276l82 134l194 270h126l-144 -680h-125l71 337l46 150h-1l-213 -316h-110l-78 316h-1l-17 -149l-72 -338h-125l145 680h116l78 -270l26 -134h2z" />
    <glyph glyph-name="N" unicode="N" horiz-adv-x="681" 
d="M465 167l10 132l81 381h125l-144 -680h-128l-166 512h-3l-10 -132l-81 -380h-125l145 680h128l165 -513h3z" />
    <glyph glyph-name="O" unicode="O" horiz-adv-x="696" 
d="M186 257q0 -35 7 -65.5t21.5 -53t37.5 -35t55 -12.5q62 0 105 32.5t70 82t39 107.5t12 110q0 35 -6.5 65t-21 52.5t-37 35.5t-55.5 13q-61 0 -104 -32t-70.5 -80.5t-40 -107t-12.5 -112.5zM663 430q0 -84 -23 -164t-69 -142.5t-115 -100.5t-161 -38q-62 0 -107 20.5
t-74 56.5t-43 84.5t-14 103.5q0 84 23 164t69 142.5t115 100.5t162 38q61 0 106 -20.5t74 -56.5t43 -84.5t14 -103.5z" />
    <glyph glyph-name="P" unicode="P" horiz-adv-x="555" 
d="M24 0l145 680h211q45 0 79 -13.5t56.5 -36.5t33.5 -55t11 -69q0 -56 -17 -105.5t-49 -86t-80 -57.5t-109 -21h-106l-50 -236h-125zM221 339h86q27 0 49 12.5t38.5 33t25.5 47.5t9 57q0 38 -18 63t-53 25h-86z" />
    <glyph glyph-name="Q" unicode="Q" horiz-adv-x="696" 
d="M663 430q0 -59 -11.5 -117t-34.5 -109.5t-57 -95t-79 -73.5l137 -83l-70 -99l-211 134q-11 -1 -21 -1.5t-21 -0.5q-62 0 -107 20.5t-74 56.5t-43 84.5t-14 103.5q0 84 23 164t69 142.5t115 100.5t162 38q61 0 106 -20.5t74 -56.5t43 -84.5t14 -103.5zM186 257
q0 -35 7 -65.5t21.5 -53t37.5 -35t55 -12.5q62 0 105 32.5t70 82t39 107.5t12 110q0 35 -6.5 65t-21 52.5t-37 35.5t-55.5 13q-61 0 -104 -32t-70.5 -80.5t-40 -107t-12.5 -112.5z" />
    <glyph glyph-name="R" unicode="R" horiz-adv-x="611" 
d="M24 0l145 680h244q89 0 135.5 -42t46.5 -114q0 -89 -43 -153.5t-135 -87.5l106 -267l-4 -16h-126l-99 274h-87l-58 -274h-125zM352 377q27 0 48 10.5t35.5 27.5t21.5 40t7 49q0 32 -17 52.5t-52 20.5h-123l-43 -200h123z" />
    <glyph glyph-name="S" unicode="S" horiz-adv-x="518" 
d="M54 147q27 -23 67 -39.5t87 -16.5q54 0 87.5 27.5t33.5 73.5q0 25 -15 48t-51 43l-60 33q-51 28 -79.5 69.5t-28.5 92.5q0 49 18 89t51.5 68.5t82 44t110.5 15.5q43 0 85 -13t75 -33l-50 -97q-29 17 -62 27t-60 10q-59 0 -88.5 -28.5t-29.5 -70.5q0 -23 10 -42t36 -33
l63 -35q53 -29 89 -72.5t36 -101.5q0 -48 -19.5 -89t-54.5 -70t-83 -45.5t-106 -16.5q-65 0 -112 19.5t-82 46.5z" />
    <glyph glyph-name="T" unicode="T" horiz-adv-x="516" 
d="M574 680l-22 -103h-169l-123 -577h-125l123 577h-169l22 103h463z" />
    <glyph glyph-name="U" unicode="U" horiz-adv-x="655" 
d="M287 680l-87 -410q-8 -39 -8.5 -72t9 -56.5t30.5 -37t56 -13.5q34 0 60 13.5t46 37t33.5 56.5t21.5 72l87 410h126l-89 -422q-14 -65 -37 -115.5t-58.5 -85.5t-85.5 -53.5t-117 -18.5q-130 0 -179 75t-18 221l85 399h125z" />
    <glyph glyph-name="V" unicode="V" horiz-adv-x="602" 
d="M671 670l-354 -670h-153l-68 670l2 10h128l27 -388l5 -184h3l84 185l188 387h140z" />
    <glyph glyph-name="W" unicode="W" horiz-adv-x="907" 
d="M967 670l-304 -670h-149l-6 400l8 166h-2l-64 -166l-176 -400h-150l-19 670l2 10h130l-8 -395l-6 -169h2l64 169l172 395h147l3 -395l-7 -169h2l65 169l160 395h138z" />
    <glyph glyph-name="X" unicode="X" horiz-adv-x="568" 
d="M240 680l67 -267h2l180 267h137l-2 -10l-240 -329l100 -331l-2 -10h-128l-66 267h-2l-181 -267h-138l2 10l240 331l-100 329l3 10h128z" />
    <glyph glyph-name="Y" unicode="Y" horiz-adv-x="547" 
d="M218 680l72 -292h2l196 292h139l-2 -10l-290 -394l-58 -276h-125l58 276l-123 394l2 10h129z" />
    <glyph glyph-name="Z" unicode="Z" horiz-adv-x="535" 
d="M571 680l-20 -95l-398 -480v-2h296l-22 -103h-446l20 95l397 480v2h-276l22 103h427z" />
    <glyph glyph-name="bracketleft" unicode="[" horiz-adv-x="310" 
d="M364 700l-14 -63l-106 -23l-155 -726l97 -23l-13 -63h-205l191 898h205z" />
    <glyph glyph-name="backslash" unicode="\" horiz-adv-x="399" 
d="M216 0l-109 670l2 10h100l108 -670l-2 -10h-99z" />
    <glyph glyph-name="bracketright" unicode="]" horiz-adv-x="312" 
d="M331 700l-191 -898h-206l14 65l107 23l154 722l-98 23l14 65h206z" />
    <glyph glyph-name="asciicircum" unicode="^" horiz-adv-x="459" 
d="M523 372h-117l-52 209h-3l-142 -209h-127l2 10l230 318h116l96 -318z" />
    <glyph glyph-name="underscore" unicode="_" horiz-adv-x="460" 
d="M-22 -107l18 85h340l-18 -85h-340z" />
    <glyph glyph-name="grave" unicode="`" horiz-adv-x="519" 
d="M314 713h124l41 -136l-2 -10h-102l-63 137z" />
    <glyph glyph-name="a" unicode="a" horiz-adv-x="554" 
d="M458 -5q-17 -3 -33 -5t-38 -2q-39 0 -56.5 14t-19.5 41h-2q-29 -24 -59 -41t-73 -17q-38 0 -65.5 15t-45.5 41.5t-26.5 61t-8.5 73.5q0 61 16 118.5t46 102.5t73.5 72.5t98.5 27.5q47 0 77 -19.5t50 -38.5h2l25 43h93l-81 -377q-2 -11 -0.5 -14.5t12.5 -3.5h35zM366 368
q-28 28 -72 28q-34 0 -59.5 -18.5t-42 -47.5t-25 -65.5t-8.5 -73.5q0 -45 15.5 -75t53.5 -30q23 0 44 11t41 25z" />
    <glyph glyph-name="b" unicode="b" horiz-adv-x="548" 
d="M156 114q14 -14 33.5 -21t42.5 -7q34 0 60 18t43.5 47.5t26.5 66t9 73.5q0 45 -17.5 75t-56.5 30q-22 0 -45.5 -11t-43.5 -25zM281 700l-55 -253h2q22 21 49 35.5t71 14.5q38 0 66.5 -15.5t47.5 -41.5t28.5 -61t9.5 -74q0 -61 -17 -118.5t-48.5 -102.5t-76 -72t-99.5 -27
q-47 0 -80 19.5t-51 38.5h-2l-26 -43h-91l149 700h123z" />
    <glyph glyph-name="c" unicode="c" horiz-adv-x="448" 
d="M31 185q0 66 20 123t57 99t89 66t117 24q43 0 74 -9.5t51 -20.5l-35 -92q-17 7 -39.5 14t-48.5 7q-31 0 -59.5 -13.5t-50 -39t-34.5 -62t-13 -82.5q0 -55 24.5 -84t66.5 -29q26 0 51.5 7t45.5 14l14 -92q-22 -10 -59.5 -20t-76.5 -10q-47 0 -83.5 15t-61 41.5t-37 63
t-12.5 80.5z" />
    <glyph glyph-name="d" unicode="d" horiz-adv-x="549" 
d="M569 700l-149 -700h-91l-8 43h-2q-24 -21 -56.5 -39.5t-80.5 -18.5q-38 0 -66.5 15.5t-47 41.5t-28 61t-9.5 74q0 61 17 118.5t48.5 102.5t75.5 72t99 27q44 0 74 -16.5t46 -33.5h1l54 253h123zM376 368q-14 14 -34 21t-43 7q-34 0 -60 -18.5t-44 -47.5t-27 -65.5
t-9 -73.5q0 -45 18 -75t56 -30q23 0 46.5 11t43.5 25z" />
    <glyph glyph-name="e" unicode="e" horiz-adv-x="507" 
d="M151 206q-8 -54 14 -88.5t69 -34.5q38 0 72 10.5t68 25.5l21 -91q-36 -17 -85 -30t-97 -13q-47 0 -81 16t-57 43.5t-34 63.5t-11 77q0 60 19 116t54 99.5t84 70t109 26.5q45 0 77 -13.5t53 -36t31 -52.5t10 -63q0 -34 -9.5 -69t-20.5 -57h-286zM348 286q2 4 5 16.5
t3 30.5q0 31 -15 53t-53 22q-22 0 -40.5 -10.5t-33.5 -27.5t-26 -39t-17 -45h177z" />
    <glyph glyph-name="f" unicode="f" horiz-adv-x="355" 
d="M39 0l82 386h-74l14 68l80 28l17 77q17 78 60 112t111 34q18 0 42.5 -2.5t38.5 -6.5l-20 -92q-11 3 -26 5.5t-29 2.5q-23 0 -35.5 -15t-20.5 -49l-14 -66h105l-21 -96h-105l-82 -386h-123z" />
    <glyph glyph-name="g" unicode="g" horiz-adv-x="548" 
d="M374 368q-14 14 -34 21t-42 7q-35 0 -61 -18t-43 -47t-25.5 -65t-8.5 -72q0 -45 17.5 -73t55.5 -28q23 0 46.5 10t43.5 24zM421 11q-23 -106 -88 -165t-171 -59q-54 0 -92.5 13.5t-66.5 31.5l45 87q23 -15 52.5 -27t70.5 -12q53 0 82.5 31.5t42.5 91.5l8 37h-2
q-21 -19 -49 -33.5t-70 -14.5q-38 0 -66.5 14.5t-47.5 40t-28.5 59.5t-9.5 73q0 60 16.5 117.5t47.5 102t75.5 71.5t99.5 27q47 0 79.5 -19.5t52.5 -39.5h2l25 44h92z" />
    <glyph glyph-name="h" unicode="h" horiz-adv-x="542" 
d="M294 0l63 295q11 48 -2 74.5t-51 26.5q-33 0 -56.5 -15.5t-40.5 -32.5l-75 -348h-123l149 700h123l-55 -257h2q22 18 53.5 36t73.5 18q81 0 114 -50.5t13 -144.5l-65 -302h-123z" />
    <glyph glyph-name="i" unicode="i" horiz-adv-x="262" 
d="M10 0l102 482h123l-102 -482h-123zM135 625q0 35 24.5 59t62.5 24q29 0 44 -15t15 -40q0 -35 -25 -59t-63 -24q-28 0 -43 15t-15 40z" />
    <glyph glyph-name="j" unicode="j" horiz-adv-x="263" 
d="M236 482l-113 -531q-18 -86 -65.5 -125t-116.5 -39q-14 0 -34.5 2t-34.5 5l20 93q11 -3 22 -5t22 -2q26 0 40.5 17.5t22.5 52.5l113 532h124zM135 625q0 35 24.5 59t62.5 24q28 0 43.5 -15t15.5 -40q0 -36 -25 -59.5t-63 -23.5q-27 0 -42.5 15t-15.5 40z" />
    <glyph glyph-name="k" unicode="k" horiz-adv-x="496" 
d="M180 224l-48 -224h-123l149 700h123l-93 -435h2l185 217h141l-2 -9l-210 -237l119 -226l-2 -10h-132l-107 224h-2z" />
    <glyph glyph-name="l" unicode="l" horiz-adv-x="261" 
d="M9 0l149 700h123l-149 -700h-123z" />
    <glyph glyph-name="m" unicode="m" horiz-adv-x="833" 
d="M212 482l6 -46h2q11 9 24 19.5t30 20t37.5 15.5t46.5 6q48 0 78.5 -19t43.5 -53h2q10 10 25 22.5t34.5 23.5t45.5 18.5t59 7.5q82 0 114 -50.5t12 -144.5l-64 -302h-123l63 295q11 49 0 75t-53 26q-34 0 -60 -17t-43 -34q0 -14 -6 -42l-65 -303h-124l63 295q11 49 0 75
t-53 26q-31 0 -56.5 -14t-43.5 -34l-74 -348h-123l102 482h100z" />
    <glyph glyph-name="n" unicode="n" horiz-adv-x="543" 
d="M212 482l6 -46h2q11 10 24.5 20.5t30.5 19.5t37.5 15t44.5 6q79 0 112 -50.5t13 -146.5l-64 -300h-123l63 295q11 49 -2 75t-51 26q-32 0 -57 -15.5t-41 -32.5l-74 -348h-123l102 482h100z" />
    <glyph glyph-name="o" unicode="o" horiz-adv-x="547" 
d="M158 191q0 -49 18.5 -77t54.5 -28q32 0 58 16.5t44 44t28 65t10 79.5q0 49 -18.5 77t-55.5 28q-32 0 -57.5 -16.5t-43.5 -44t-28 -65t-10 -79.5zM499 297q0 -62 -19 -118.5t-55 -99.5t-87.5 -68.5t-117.5 -25.5q-47 0 -82 15.5t-59 43t-36 64t-12 78.5q0 63 19.5 119.5
t56 99t88 67.5t114.5 25q48 0 83.5 -15.5t59 -42.5t35.5 -63.5t12 -78.5z" />
    <glyph glyph-name="p" unicode="p" horiz-adv-x="548" 
d="M202 482l9 -43h2q23 23 56 40.5t80 17.5q38 0 66.5 -15.5t47 -41.5t28 -61t9.5 -74q0 -61 -17.5 -118.5t-49 -102.5t-75.5 -72t-98 -27q-45 0 -73.5 16.5t-44.5 33.5h-2l-50 -233h-123l145 680h90zM156 114q14 -14 33.5 -21t42.5 -7q34 0 60 18t43.5 47.5t26.5 66t9 73.5
q0 45 -17.5 75t-56.5 30q-22 0 -45.5 -11t-43.5 -25z" />
    <glyph glyph-name="q" unicode="q" horiz-adv-x="548" 
d="M376 -198h-123l50 233h-2q-22 -21 -48.5 -35.5t-71.5 -14.5q-38 0 -66.5 15.5t-47.5 41.5t-28 60.5t-9 73.5q0 61 17 118.5t48 102.5t75 72.5t99 27.5q47 0 79.5 -19.5t52.5 -38.5h2l26 43h92zM375 368q-14 14 -34 21t-43 7q-34 0 -60 -18.5t-44 -47.5t-27 -65.5
t-9 -73.5q0 -45 18 -75t56 -30q23 0 46.5 11t43.5 25z" />
    <glyph glyph-name="r" unicode="r" horiz-adv-x="352" 
d="M213 482l5 -57h2q9 12 19.5 25t24 23.5t30 17t37.5 6.5q12 0 22.5 -2t18.5 -4l-22 -103q-11 2 -22.5 3t-19.5 1q-36 0 -62 -18t-40 -36l-73 -338h-123l102 482h101z" />
    <glyph glyph-name="s" unicode="s" horiz-adv-x="438" 
d="M40 121q28 -18 61 -29t68 -11q41 0 59.5 15t18.5 41q0 18 -12.5 30.5t-34.5 21.5l-53 23q-17 7 -33 18t-28.5 26t-20.5 34t-8 43q0 79 52 121.5t153 42.5q38 0 78 -9t74 -26l-41 -89q-26 13 -56 20.5t-62 7.5q-75 0 -75 -53q0 -32 43 -50l53 -23q38 -17 66 -47t28 -75
q0 -85 -54.5 -126.5t-152.5 -41.5q-48 0 -91.5 12t-76.5 34z" />
    <glyph glyph-name="t" unicode="t" horiz-adv-x="373" 
d="M289 594l-24 -112h119l-21 -96h-118l-52 -245q-12 -55 39 -55q14 0 35.5 4t38.5 10l-21 -99q-17 -5 -41 -10.5t-56 -5.5q-73 0 -105 34.5t-15 111.5l54 255h-77l14 68l83 28l24 112h123z" />
    <glyph glyph-name="u" unicode="u" horiz-adv-x="537" 
d="M230 482l-63 -295q-11 -49 0.5 -75t48.5 -26q31 0 55 15.5t41 30.5l75 350h123l-102 -482h-101l-7 46h-1q-10 -9 -23 -19.5t-29.5 -19.5t-36.5 -15.5t-44 -6.5q-81 0 -112 50.5t-11 146.5l64 300h123z" />
    <glyph glyph-name="v" unicode="v" horiz-adv-x="498" 
d="M517 472l-262 -472h-135l-62 472l2 10h116l24 -279l3 -101h2l46 101l142 279h126z" />
    <glyph glyph-name="w" unicode="w" horiz-adv-x="762" 
d="M776 472l-226 -472h-135l-17 285l4 99h-2l-39 -99l-138 -285h-134l-25 472l2 10h113l4 -284l-7 -97h2l40 97l132 284h134l12 -284l-1 -97h2l34 97l123 284h124z" />
    <glyph glyph-name="x" unicode="x" horiz-adv-x="495" 
d="M230 176l-128 -176h-136l2 10l186 231l-88 231l2 10h125l53 -177h2l128 177h136l-3 -10l-185 -231l87 -231l-2 -10h-122l-55 176h-2z" />
    <glyph glyph-name="y" unicode="y" horiz-adv-x="489" 
d="M510 472l-310 -554q-36 -65 -80 -98t-101 -33q-24 0 -48.5 4t-38.5 8l19 90q14 -3 30.5 -6t30.5 -3q29 0 47.5 16.5t38.5 52.5l31 56l-72 467l2 10h120l22 -266l2 -100h3l44 100l131 266h131z" />
    <glyph glyph-name="z" unicode="z" horiz-adv-x="436" 
d="M434 482l-15 -68l-270 -319v-2h202l-20 -93h-352l14 68l270 319v2h-188l20 93h339z" />
    <glyph glyph-name="braceleft" unicode="{" horiz-adv-x="346" 
d="M34 297q35 0 61 19.5t34 58.5l33 157q8 37 20.5 68t34 53.5t55 34.5t82.5 12h43l-15 -70q-51 0 -79 -27.5t-39 -78.5l-31 -150q-12 -57 -35 -87.5t-68 -39.5v-2q40 -9 50.5 -39.5t-1.5 -87.5l-31 -140q-11 -51 5.5 -78.5t67.5 -27.5l-15 -70h-23q-49 0 -80 12.5
t-46.5 37.5t-16.5 62t9 85l27 128q8 39 -9.5 58.5t-52.5 19.5z" />
    <glyph glyph-name="bar" unicode="|" horiz-adv-x="220" 
d="M48 -198h-80l191 898h80z" />
    <glyph glyph-name="braceright" unicode="}" horiz-adv-x="346" 
d="M299 205q-35 0 -61 -19.5t-34 -58.5l-33 -157q-8 -38 -20.5 -68.5t-34.5 -53t-55 -34.5t-82 -12h-43l15 70q51 0 79 27.5t39 78.5l31 150q12 57 35 87.5t68 39.5v2q-40 9 -50.5 39.5t1.5 87.5l31 140q11 51 -5.5 78.5t-67.5 27.5l15 70h23q49 0 80 -12.5t46.5 -37.5
t16.5 -62t-9 -85l-27 -128q-8 -39 9.5 -58.5t52.5 -19.5z" />
    <glyph glyph-name="asciitilde" unicode="~" horiz-adv-x="523" 
d="M48 289q24 28 58.5 50t71.5 22q29 0 52.5 -11.5t45.5 -26t45 -26t50 -11.5q32 0 68 40l31 -71q-34 -38 -64.5 -52.5t-59.5 -14.5q-26 0 -50 11.5t-46.5 26t-44.5 26t-44 11.5q-18 0 -41.5 -12.5t-40.5 -32.5z" />
    <glyph glyph-name="uni00A0" unicode="&#xa0;" horiz-adv-x="225" 
 />
    <glyph glyph-name="exclamdown" unicode="&#xa1;" horiz-adv-x="262" 
d="M85 247h76l-33 -291l-33 -154h-133l33 154zM239 433q0 -21 -7.5 -39.5t-20.5 -32t-30.5 -21.5t-38.5 -8q-30 0 -46.5 18t-16.5 47q0 42 28 71t70 29q29 0 45.5 -17.5t16.5 -46.5z" />
    <glyph glyph-name="cent" unicode="&#xa2;" 
d="M80 185q0 62 17.5 116t50.5 95t79.5 67t104.5 32l18 83h79l-18 -85q25 -4 44 -11t33 -15l-35 -92q-13 5 -29 10.5t-34 8.5l-65 -306q20 3 38 8.5t33 10.5l14 -92q-18 -8 -46.5 -16t-60.5 -12l-17 -83h-79l18 86q-72 14 -108.5 67t-36.5 128zM208 199q0 -35 10.5 -60
t29.5 -38l60 282q-43 -20 -71.5 -67t-28.5 -117z" />
    <glyph glyph-name="sterling" unicode="&#xa3;" 
d="M264 286q-3 -50 -22.5 -96t-56.5 -85v-2h265l-22 -103h-409l19 90q28 15 45.5 36.5t27.5 47t14.5 54t7.5 58.5h-73l20 95h63q5 58 18.5 114.5t42.5 101t77 71.5t122 27q44 0 88 -12t77 -32l-43 -97q-30 16 -64 25.5t-66 9.5q-35 0 -57.5 -14.5t-36.5 -41.5t-21 -65.5
t-10 -86.5h151l-20 -95h-137z" />
    <glyph glyph-name="currency" unicode="&#xa4;" 
d="M441 308q0 -26 -8 -61t-34 -72l62 -92l-74 -65l-65 89q-20 -10 -42 -16t-45 -6t-41 6t-33 15l-99 -89l-56 75l100 90q-2 9 -4 22t-2 25q0 38 11.5 73.5t32.5 67.5l-61 91l76 64l62 -88q39 18 83 18q24 0 42.5 -6.5t32.5 -16.5l104 92l55 -74l-103 -94q3 -10 4.5 -23
t1.5 -25zM204 243q0 -32 12.5 -49t33.5 -17q37 0 62.5 33.5t25.5 87.5q0 31 -12.5 48t-35.5 17q-17 0 -32.5 -8.5t-27.5 -24.5t-19 -38t-7 -49z" />
    <glyph glyph-name="yen" unicode="&#xa5;" 
d="M500 295h-160l-17 -77h161l-20 -95h-161l-26 -123h-125l26 123h-165l20 95h165l17 77h-165l20 95h116l-80 280l2 10h130l58 -272h2l171 272h138l-3 -10l-197 -280h114z" />
    <glyph glyph-name="brokenbar" unicode="&#xa6;" horiz-adv-x="233" 
d="M125 134l-71 -332h-80l71 332h80zM94 368l71 332h80l-70 -332h-81z" />
    <glyph glyph-name="section" unicode="&#xa7;" horiz-adv-x="533" 
d="M221 342q-17 -11 -28.5 -32.5t-11.5 -44.5q0 -17 9 -31t32 -25l87 -41q20 14 29.5 35t9.5 39q0 41 -38 59zM372 123q27 -17 40 -46t13 -59q0 -46 -18.5 -83t-52 -62.5t-79 -39t-99.5 -13.5q-66 0 -116 16t-86 36l53 108q29 -18 70 -36.5t89 -18.5q50 0 78.5 21.5
t28.5 53.5q0 17 -11 35.5t-43 32.5l-95 42q-44 20 -68.5 49.5t-24.5 73.5q0 51 28.5 87.5t77.5 61.5v2q-23 19 -37.5 47.5t-14.5 63.5q0 43 16.5 79.5t48 63.5t77.5 42t106 15q44 0 88 -7.5t85 -29.5l-48 -103q-32 17 -68 26t-70 9q-27 0 -46 -7t-32 -18.5t-19 -25.5t-6 -28
q0 -17 10 -35t37 -29l79 -33q61 -26 88.5 -58.5t27.5 -76.5q0 -47 -31.5 -85t-75.5 -68v-3z" />
    <glyph glyph-name="dieresis" unicode="&#xa8;" horiz-adv-x="519" 
d="M420 626q0 35 24.5 59t62.5 24q28 0 43.5 -15t15.5 -40q0 -35 -25 -59t-63 -24q-28 0 -43 15t-15 40zM225 626q0 35 25 59t62 24q29 0 44 -15t15 -40q0 -35 -25 -59t-63 -24q-27 0 -42.5 15t-15.5 40z" />
    <glyph glyph-name="copyright" unicode="&#xa9;" horiz-adv-x="806" 
d="M59 279q0 87 35 162.5t93.5 132t134.5 89t159 32.5q66 0 119.5 -22.5t91.5 -62.5t59 -93.5t21 -115.5q0 -87 -35 -162.5t-93.5 -132t-135 -89t-158.5 -32.5q-66 0 -119.5 22.5t-91.5 62.5t-59 93.5t-21 115.5zM131 288q0 -51 16.5 -94t46.5 -74.5t72.5 -49t94.5 -17.5
q69 0 130.5 27.5t108 74t73.5 108.5t27 132q0 50 -15.5 92.5t-45 73.5t-71 48.5t-92.5 17.5q-69 0 -131.5 -27t-110 -73t-75.5 -108t-28 -131zM226 300q0 51 15.5 94t44.5 74.5t71 49t96 17.5q26 0 54 -6t52 -18l-29 -72q-23 12 -41.5 16t-41.5 4q-25 0 -47.5 -11.5t-40 -31
t-27.5 -47t-10 -58.5q0 -41 20 -65.5t54 -24.5q23 0 43 4t49 16l18 -72q-29 -12 -59.5 -18t-56.5 -6q-40 0 -70.5 11.5t-51.5 32t-31.5 49t-10.5 62.5z" />
    <glyph glyph-name="ordfeminine" unicode="&#xaa;" horiz-adv-x="355" 
d="M218 480q-23 0 -37 -11.5t-14 -31.5q0 -24 23 -24q14 0 31 6t27 13l10 48h-40zM254 350l-9 27h-1q-14 -12 -36.5 -24t-48.5 -12q-42 0 -62.5 23.5t-20.5 54.5q0 61 37.5 89t107.5 28h50l2 11q4 19 -3 31t-33 12q-23 0 -47.5 -5.5t-49.5 -14.5l-9 69q25 9 57 16.5t64 7.5
q63 0 90.5 -34.5t14.5 -94.5l-39 -184h-64zM37 201l16 77h250l-16 -77h-250z" />
    <glyph glyph-name="guillemotleft" unicode="&#xab;" horiz-adv-x="525" 
d="M37 276l191 219l71 -54l-126 -177l52 -176l-88 -43l-103 219zM250 276l191 219l71 -54l-126 -177l52 -176l-88 -43l-103 219z" />
    <glyph glyph-name="logicalnot" unicode="&#xac;" 
d="M406 220h-380l22 103h463l-48 -224h-82z" />
    <glyph glyph-name="uni00AD" unicode="&#xad;" horiz-adv-x="407" 
d="M52 220l22 103h277l-22 -103h-277z" />
    <glyph glyph-name="registered" unicode="&#xae;" horiz-adv-x="540" 
d="M100 525q0 56 22.5 104.5t60.5 84t86.5 56t101.5 20.5q42 0 76.5 -15t59 -41t38 -61t13.5 -75q0 -56 -22.5 -104.5t-60.5 -84t-87 -56t-102 -20.5q-42 0 -76.5 15t-59 41t-37.5 61t-13 75zM155 529q0 -31 10 -57t28.5 -45.5t44.5 -30.5t58 -11q42 0 79.5 17t65.5 45.5
t44.5 67t16.5 80.5q0 30 -9.5 56t-27 45t-43 30t-56.5 11q-42 0 -80 -17t-67.5 -45.5t-46.5 -66t-17 -79.5zM218 455l46 218h97q35 0 51.5 -16t16.5 -41q0 -29 -17 -49t-47 -28l41 -79l-1 -5h-56l-37 80h-23l-17 -80h-54zM339 579q17 0 25.5 9t8.5 20q0 9 -5 14t-19 5h-40
l-11 -48h41z" />
    <glyph glyph-name="macron" unicode="&#xaf;" horiz-adv-x="520" 
d="M255 579l22 103h257l-22 -103h-257z" />
    <glyph glyph-name="degree" unicode="&#xb0;" horiz-adv-x="428" 
d="M188 512q0 -30 17 -47.5t44 -17.5q19 0 36.5 7.5t30.5 21t20.5 31.5t7.5 40q0 28 -16.5 46.5t-43.5 18.5q-18 0 -35.5 -7.5t-31 -21t-21.5 -32t-8 -39.5zM93 501q0 45 17 81t45.5 61t65 38.5t75.5 13.5q31 0 57.5 -10t45 -28t29 -43.5t10.5 -56.5q0 -45 -17.5 -81.5
t-46 -61.5t-64.5 -38.5t-74 -13.5q-64 0 -103.5 38t-39.5 101z" />
    <glyph glyph-name="plusminus" unicode="&#xb1;" 
d="M355 433h184l-22 -103h-184l-30 -144h-97l31 144h-183l22 103h183l41 193h96zM469 103l-22 -103h-463l22 103h463z" />
    <glyph glyph-name="uni00B2" unicode="&#xb2;" horiz-adv-x="313" 
d="M214 522h119l-16 -74h-250l14 67l164 122q32 23 32 56q0 14 -8.5 25t-25.5 11q-23 0 -41 -12.5t-37 -28.5l-46 58q9 9 22.5 19.5t30.5 19.5t37.5 15t44.5 6q48 0 80.5 -26t32.5 -71q0 -23 -5.5 -41.5t-15.5 -33.5t-25 -28.5t-33 -26.5l-74 -55v-2z" />
    <glyph glyph-name="uni00B3" unicode="&#xb3;" horiz-adv-x="307" 
d="M155 660h63q29 0 39.5 12t10.5 30q0 11 -8.5 19t-30.5 8q-20 0 -43.5 -4.5t-42.5 -12.5l-19 71q23 9 52 16t61 7q59 0 91 -23.5t32 -63.5q0 -22 -6.5 -38t-17 -27.5t-23 -18.5t-24.5 -10v-1q20 -8 32.5 -24.5t12.5 -43.5q0 -51 -37.5 -83.5t-121.5 -32.5q-33 0 -59.5 7.5
t-46.5 19.5l27 73q15 -9 38.5 -15.5t47.5 -6.5q35 0 50 11t15 34t-43 23h-64z" />
    <glyph glyph-name="acute" unicode="&#xb4;" horiz-adv-x="519" 
d="M510 704l-121 -137h-110l2 10l99 136h132z" />
    <glyph glyph-name="mu" unicode="&#xb5;" horiz-adv-x="542" 
d="M-33 -198l145 680h122l-63 -305q-18 -91 50 -91q30 0 54 15t42 30l75 351h123l-102 -482h-101l-7 46h-1q-22 -21 -55.5 -41t-81.5 -20q-9 0 -22 2.5t-21 5.5l-7 -64l-27 -127h-123z" />
    <glyph glyph-name="paragraph" unicode="&#xb6;" horiz-adv-x="544" 
d="M207 328q-59 0 -96.5 38t-37.5 104q0 49 17.5 88t47 66t67 41.5t77.5 14.5h315l-16 -75h-84l-171 -803h-78l171 803h-74l-171 -803h-79z" />
    <glyph glyph-name="periodcentered" unicode="&#xb7;" horiz-adv-x="268" 
d="M53 270q0 21 7.5 39t21 31.5t31.5 21.5t38 8q31 0 48 -18.5t17 -47.5q0 -42 -29 -70.5t-71 -28.5q-30 0 -46.5 18t-16.5 47z" />
    <glyph glyph-name="cedilla" unicode="&#xb8;" horiz-adv-x="520" 
d="M182 -88l53 95h72l-32 -52q23 -5 35 -21t12 -39q0 -45 -30.5 -76.5t-90.5 -31.5q-20 0 -36 3.5t-27 8.5l20 63q19 -8 36 -8q36 0 36 30q0 16 -15.5 19t-30.5 3z" />
    <glyph glyph-name="uni00B9" unicode="&#xb9;" horiz-adv-x="242" 
d="M99 664l17 81l132 54h64l-75 -351h-85l55 256h-1l-100 -40h-7z" />
    <glyph glyph-name="ordmasculine" unicode="&#xba;" horiz-adv-x="362" 
d="M161 477q0 -32 13.5 -45.5t32.5 -13.5q32 0 56.5 26.5t24.5 83.5q0 31 -12.5 44.5t-32.5 13.5q-30 0 -56 -27t-26 -82zM379 532q0 -38 -13 -72.5t-36.5 -61t-57 -42t-74.5 -15.5q-31 0 -54.5 10.5t-39.5 28.5t-24.5 42t-8.5 51q0 38 13 72.5t37 60.5t57 41.5t74 15.5
q31 0 55 -10.5t40 -28.5t24 -42t8 -50zM35 201l16 77h251l-16 -77h-251z" />
    <glyph glyph-name="guillemotright" unicode="&#xbb;" horiz-adv-x="526" 
d="M271 264l-191 -219l-71 54l126 177l-52 176l88 43l103 -219zM484 264l-191 -219l-71 54l126 177l-52 176l88 43l103 -219z" />
    <glyph glyph-name="onequarter" unicode="&#xbc;" horiz-adv-x="712" 
d="M19 0l2 10l590 670h108l-3 -10l-589 -670h-108zM91 544l17 81l132 54h64l-75 -351h-85l55 256h-1l-100 -40h-7zM629 238l-19 -89h37l-16 -75h-37l-16 -74h-84l16 74h-158l14 68l124 209h89l-115 -201l-1 -1h63l18 89h85z" />
    <glyph glyph-name="onehalf" unicode="&#xbd;" horiz-adv-x="739" 
d="M20 0l2 10l590 670h108l-3 -10l-589 -670h-108zM91 542l17 81l132 54h64l-75 -351h-85l55 256h-1l-100 -40h-7zM531 74h119l-16 -74h-250l14 67l164 122q32 23 32 56q0 14 -8.5 25t-25.5 11q-23 0 -41 -12.5t-37 -28.5l-46 58q9 9 22.5 19.5t30.5 19.5t37.5 15t44.5 6
q48 0 80.5 -26t32.5 -71q0 -23 -5.5 -41.5t-15.5 -33.5t-25 -28.5t-33 -26.5l-74 -55v-2z" />
    <glyph glyph-name="threequarters" unicode="&#xbe;" horiz-adv-x="771" 
d="M60 0l2 10l590 670h108l-3 -10l-589 -670h-108zM690 238l-19 -89h37l-16 -75h-37l-16 -74h-84l16 74h-158l14 68l124 209h89l-115 -201l-1 -1h63l18 89h85zM145 537h63q29 0 39.5 12t10.5 30q0 11 -8.5 19t-30.5 8q-20 0 -43.5 -4.5t-42.5 -12.5l-19 71q23 9 52 16t61 7
q59 0 91 -23.5t32 -63.5q0 -22 -6.5 -38t-17 -27.5t-23 -18.5t-24.5 -10v-1q20 -8 32.5 -24.5t12.5 -43.5q0 -51 -37.5 -83.5t-121.5 -32.5q-33 0 -59.5 7.5t-46.5 19.5l27 73q15 -9 38.5 -15.5t47.5 -6.5q35 0 50 11t15 34t-43 23h-64z" />
    <glyph glyph-name="questiondown" unicode="&#xbf;" horiz-adv-x="465" 
d="M288 247l-22 -130q-70 -25 -114.5 -61t-44.5 -93q0 -26 15 -47t48 -21q38 0 68.5 17.5t63.5 42.5l51 -87q-16 -14 -38.5 -28.5t-49.5 -26t-56 -19t-59 -7.5q-86 0 -134 43t-48 114q0 52 20 91t50 67.5t63.5 48t60.5 33.5l26 63h100zM353 433q0 -21 -7.5 -39.5t-20 -32
t-30 -21.5t-38.5 -8q-30 0 -46 18t-16 47q0 21 7.5 39t20.5 31.5t30.5 21.5t38.5 8q29 0 45 -17.5t16 -46.5z" />
    <glyph glyph-name="Agrave" unicode="&#xc0;" horiz-adv-x="607" 
d="M537 0h-130l-8 149h-238l-73 -149h-137l363 680h147zM367 570l-83 -183l-69 -139h170l-11 139l-4 183h-3zM307 896h132l33 -136l-2 -10h-111l-54 137z" />
    <glyph glyph-name="Aacute" unicode="&#xc1;" horiz-adv-x="607" 
d="M537 0h-130l-8 149h-238l-73 -149h-137l363 680h147zM367 570l-83 -183l-69 -139h170l-11 139l-4 183h-3zM567 887l-112 -137h-119l2 10l91 136h140z" />
    <glyph glyph-name="Acircumflex" unicode="&#xc2;" horiz-adv-x="607" 
d="M537 0h-130l-8 149h-238l-73 -149h-137l363 680h147zM367 570l-83 -183l-69 -139h170l-11 139l-4 183h-3zM563 760l-2 -10h-97l-39 79l-71 -79h-105l2 10l130 136h110z" />
    <glyph glyph-name="Atilde" unicode="&#xc3;" horiz-adv-x="607" 
d="M537 0h-130l-8 149h-238l-73 -149h-137l363 680h147zM367 570l-83 -183l-69 -139h170l-11 139l-4 183h-3zM263 831q20 28 46.5 47t57.5 19q20 0 35 -7t28.5 -15.5t27.5 -15.5t32 -7q15 0 36 9.5t35 24.5l14 -68q-23 -32 -49.5 -49.5t-52.5 -17.5q-20 0 -36 7t-31 15.5
t-29 15.5t-30 7q-18 0 -36.5 -9t-33.5 -26z" />
    <glyph glyph-name="Adieresis" unicode="&#xc4;" horiz-adv-x="607" 
d="M537 0h-130l-8 149h-238l-73 -149h-137l363 680h147zM367 570l-83 -183l-69 -139h170l-11 139l-4 183h-3zM230 804q0 35 24.5 59t62.5 24q29 0 44 -15t15 -40q0 -35 -25 -59t-63 -24q-28 0 -43 15t-15 40zM461 804q0 35 25 59t62 24q29 0 44 -15t15 -40q0 -35 -25 -59
t-63 -24q-27 0 -42.5 15t-15.5 40z" />
    <glyph glyph-name="Aring" unicode="&#xc5;" horiz-adv-x="604" 
d="M286 723q0 30 10 54t27 41t41 26.5t53 9.5q41 0 67 -22.5t26 -65.5q0 -38 -14.5 -65t-35.5 -42l76 -659h-130l-8 149h-238l-73 -149h-137l357 663q-21 23 -21 60zM366 570l-83 -183l-69 -139h170l-11 139l-4 183h-3zM360 736q0 -31 30 -31q20 0 33 14t13 36
q0 14 -7.5 22.5t-21.5 8.5q-20 0 -33.5 -14.5t-13.5 -35.5z" />
    <glyph glyph-name="AE" unicode="&#xc6;" horiz-adv-x="856" 
d="M-71 10l498 670h456l-21 -103h-279l-39 -181h250l-22 -103h-249l-41 -190h282l-22 -103h-407l32 149h-199l-107 -149h-134zM460 565l-99 -150l-117 -167h144l35 167l40 150h-3z" />
    <glyph glyph-name="Ccedilla" unicode="&#xc7;" horiz-adv-x="561" 
d="M189 -88l44 80q-88 20 -132 89.5t-44 170.5q0 92 26 173t74 141t116.5 94.5t154.5 34.5q42 0 83.5 -11t78.5 -33l-43 -95q-35 21 -67 27t-64 6q-47 0 -88.5 -26t-72.5 -70t-49 -102t-18 -123q0 -78 31.5 -127.5t90.5 -49.5q32 0 66.5 6t78.5 27l23 -95q-45 -22 -91 -33
t-87 -11l-18 -30q23 -5 35 -21t12 -39q0 -45 -30.5 -76.5t-90.5 -31.5q-20 0 -36 3.5t-27 8.5l20 63q19 -8 36 -8q36 0 36 30q0 16 -15.5 19t-30.5 3z" />
    <glyph glyph-name="Egrave" unicode="&#xc8;" horiz-adv-x="545" 
d="M572 680l-22 -103h-278l-39 -181h249l-22 -103h-249l-40 -190h281l-21 -103h-407l145 680h403zM284 896h132l33 -136l-2 -10h-111l-54 137z" />
    <glyph glyph-name="Eacute" unicode="&#xc9;" horiz-adv-x="545" 
d="M572 680l-22 -103h-278l-39 -181h249l-22 -103h-249l-40 -190h281l-21 -103h-407l145 680h403zM556 887l-112 -137h-119l2 10l91 136h140z" />
    <glyph glyph-name="Ecircumflex" unicode="&#xca;" horiz-adv-x="545" 
d="M572 680l-22 -103h-278l-39 -181h249l-22 -103h-249l-40 -190h281l-21 -103h-407l145 680h403zM541 760l-2 -10h-97l-39 79l-71 -79h-105l2 10l130 136h110z" />
    <glyph glyph-name="Edieresis" unicode="&#xcb;" horiz-adv-x="545" 
d="M572 680l-22 -103h-278l-39 -181h249l-22 -103h-249l-40 -190h281l-21 -103h-407l145 680h403zM207 804q0 35 24.5 59t62.5 24q29 0 44 -15t15 -40q0 -35 -25 -59t-63 -24q-28 0 -43 15t-15 40zM438 804q0 35 25 59t62 24q29 0 44 -15t15 -40q0 -35 -25 -59t-63 -24
q-27 0 -42.5 15t-15.5 40z" />
    <glyph glyph-name="Igrave" unicode="&#xcc;" horiz-adv-x="293" 
d="M149 0h-125l145 680h125zM140 896h132l33 -136l-2 -10h-111l-54 137z" />
    <glyph glyph-name="Iacute" unicode="&#xcd;" horiz-adv-x="293" 
d="M149 0h-125l145 680h125zM415 887l-112 -137h-119l2 10l91 136h140z" />
    <glyph glyph-name="Icircumflex" unicode="&#xce;" horiz-adv-x="293" 
d="M149 0h-125l145 680h125zM400 760l-2 -10h-97l-39 79l-71 -79h-105l2 10l130 136h110z" />
    <glyph glyph-name="Idieresis" unicode="&#xcf;" horiz-adv-x="293" 
d="M149 0h-125l145 680h125zM68 804q0 35 24.5 59t62.5 24q29 0 44 -15t15 -40q0 -35 -25 -59t-63 -24q-28 0 -43 15t-15 40zM299 804q0 35 25 59t62 24q29 0 44 -15t15 -40q0 -35 -25 -59t-63 -24q-27 0 -42.5 15t-15.5 40z" />
    <glyph glyph-name="Eth" unicode="&#xd0;" horiz-adv-x="644" 
d="M85 284h-47l22 103h47l63 293h179q68 0 117 -16.5t80.5 -47.5t46.5 -75.5t15 -101.5q0 -128 -30.5 -212.5t-83 -135t-122.5 -71t-148 -20.5h-199zM224 103q58 0 105 17.5t80.5 56t51.5 101t18 152.5q0 73 -34.5 110t-119.5 37h-52l-41 -190h97l-22 -103h-97l-38 -181h52z
" />
    <glyph glyph-name="Ntilde" unicode="&#xd1;" horiz-adv-x="681" 
d="M465 167l10 132l81 381h125l-144 -680h-128l-166 512h-3l-10 -132l-81 -380h-125l145 680h128l165 -513h3zM290 831q20 28 46.5 47t57.5 19q20 0 35 -7t28.5 -15.5t27.5 -15.5t32 -7q15 0 36 9.5t35 24.5l14 -68q-23 -32 -49.5 -49.5t-52.5 -17.5q-20 0 -36 7t-31 15.5
t-29 15.5t-30 7q-18 0 -36.5 -9t-33.5 -26z" />
    <glyph glyph-name="Ograve" unicode="&#xd2;" horiz-adv-x="696" 
d="M186 257q0 -35 7 -65.5t21.5 -53t37.5 -35t55 -12.5q62 0 105 32.5t70 82t39 107.5t12 110q0 35 -6.5 65t-21 52.5t-37 35.5t-55.5 13q-61 0 -104 -32t-70.5 -80.5t-40 -107t-12.5 -112.5zM663 430q0 -84 -23 -164t-69 -142.5t-115 -100.5t-161 -38q-62 0 -107 20.5
t-74 56.5t-43 84.5t-14 103.5q0 84 23 164t69 142.5t115 100.5t162 38q61 0 106 -20.5t74 -56.5t43 -84.5t14 -103.5zM359 896h132l33 -136l-2 -10h-111l-54 137z" />
    <glyph glyph-name="Oacute" unicode="&#xd3;" horiz-adv-x="696" 
d="M186 257q0 -35 7 -65.5t21.5 -53t37.5 -35t55 -12.5q62 0 105 32.5t70 82t39 107.5t12 110q0 35 -6.5 65t-21 52.5t-37 35.5t-55.5 13q-61 0 -104 -32t-70.5 -80.5t-40 -107t-12.5 -112.5zM663 430q0 -84 -23 -164t-69 -142.5t-115 -100.5t-161 -38q-62 0 -107 20.5
t-74 56.5t-43 84.5t-14 103.5q0 84 23 164t69 142.5t115 100.5t162 38q61 0 106 -20.5t74 -56.5t43 -84.5t14 -103.5zM618 887l-112 -137h-119l2 10l91 136h140z" />
    <glyph glyph-name="Ocircumflex" unicode="&#xd4;" horiz-adv-x="696" 
d="M186 257q0 -35 7 -65.5t21.5 -53t37.5 -35t55 -12.5q62 0 105 32.5t70 82t39 107.5t12 110q0 35 -6.5 65t-21 52.5t-37 35.5t-55.5 13q-61 0 -104 -32t-70.5 -80.5t-40 -107t-12.5 -112.5zM663 430q0 -84 -23 -164t-69 -142.5t-115 -100.5t-161 -38q-62 0 -107 20.5
t-74 56.5t-43 84.5t-14 103.5q0 84 23 164t69 142.5t115 100.5t162 38q61 0 106 -20.5t74 -56.5t43 -84.5t14 -103.5zM613 760l-2 -10h-97l-39 79l-71 -79h-105l2 10l130 136h110z" />
    <glyph glyph-name="Otilde" unicode="&#xd5;" horiz-adv-x="696" 
d="M186 257q0 -35 7 -65.5t21.5 -53t37.5 -35t55 -12.5q62 0 105 32.5t70 82t39 107.5t12 110q0 35 -6.5 65t-21 52.5t-37 35.5t-55.5 13q-61 0 -104 -32t-70.5 -80.5t-40 -107t-12.5 -112.5zM663 430q0 -84 -23 -164t-69 -142.5t-115 -100.5t-161 -38q-62 0 -107 20.5
t-74 56.5t-43 84.5t-14 103.5q0 84 23 164t69 142.5t115 100.5t162 38q61 0 106 -20.5t74 -56.5t43 -84.5t14 -103.5zM309 831q20 28 46.5 47t57.5 19q20 0 35 -7t28.5 -15.5t27.5 -15.5t32 -7q15 0 36 9.5t35 24.5l14 -68q-23 -32 -49.5 -49.5t-52.5 -17.5q-20 0 -36 7
t-31 15.5t-29 15.5t-30 7q-18 0 -36.5 -9t-33.5 -26z" />
    <glyph glyph-name="Odieresis" unicode="&#xd6;" horiz-adv-x="696" 
d="M186 257q0 -35 7 -65.5t21.5 -53t37.5 -35t55 -12.5q62 0 105 32.5t70 82t39 107.5t12 110q0 35 -6.5 65t-21 52.5t-37 35.5t-55.5 13q-61 0 -104 -32t-70.5 -80.5t-40 -107t-12.5 -112.5zM663 430q0 -84 -23 -164t-69 -142.5t-115 -100.5t-161 -38q-62 0 -107 20.5
t-74 56.5t-43 84.5t-14 103.5q0 84 23 164t69 142.5t115 100.5t162 38q61 0 106 -20.5t74 -56.5t43 -84.5t14 -103.5zM276 804q0 35 24.5 59t62.5 24q29 0 44 -15t15 -40q0 -35 -25 -59t-63 -24q-28 0 -43 15t-15 40zM507 804q0 35 25 59t62 24q29 0 44 -15t15 -40
q0 -35 -25 -59t-63 -24q-27 0 -42.5 15t-15.5 40z" />
    <glyph glyph-name="multiply" unicode="&#xd7;" 
d="M207 274l-111 156l76 66l111 -156l180 158l54 -72l-181 -159l111 -154l-77 -66l-110 154l-181 -158l-53 72z" />
    <glyph glyph-name="Oslash" unicode="&#xd8;" horiz-adv-x="696" 
d="M39 19l57 70q-20 33 -29.5 74t-9.5 87q0 84 23 164t69 142.5t115 100.5t162 38q42 0 75 -9.5t59 -26.5l51 62l67 -51l-58 -71q22 -35 32.5 -78t10.5 -91q0 -84 -23 -164t-69 -142.5t-115 -100.5t-161 -38q-88 0 -144 42l-49 -60zM533 423q0 33 -6 62l-299 -364
q30 -30 79 -30q62 0 105 32.5t70 82t39 107.5t12 110zM186 257q0 -30 4 -53l294 361q-14 11 -31 17.5t-40 6.5q-61 0 -104 -32t-70.5 -80.5t-40 -107t-12.5 -112.5z" />
    <glyph glyph-name="Ugrave" unicode="&#xd9;" horiz-adv-x="655" 
d="M287 680l-87 -410q-8 -39 -8.5 -72t9 -56.5t30.5 -37t56 -13.5q34 0 60 13.5t46 37t33.5 56.5t21.5 72l87 410h126l-89 -422q-14 -65 -37 -115.5t-58.5 -85.5t-85.5 -53.5t-117 -18.5q-130 0 -179 75t-18 221l85 399h125zM324 896h132l33 -136l-2 -10h-111l-54 137z" />
    <glyph glyph-name="Uacute" unicode="&#xda;" horiz-adv-x="655" 
d="M287 680l-87 -410q-8 -39 -8.5 -72t9 -56.5t30.5 -37t56 -13.5q34 0 60 13.5t46 37t33.5 56.5t21.5 72l87 410h126l-89 -422q-14 -65 -37 -115.5t-58.5 -85.5t-85.5 -53.5t-117 -18.5q-130 0 -179 75t-18 221l85 399h125zM594 887l-112 -137h-119l2 10l91 136h140z" />
    <glyph glyph-name="Ucircumflex" unicode="&#xdb;" horiz-adv-x="655" 
d="M287 680l-87 -410q-8 -39 -8.5 -72t9 -56.5t30.5 -37t56 -13.5q34 0 60 13.5t46 37t33.5 56.5t21.5 72l87 410h126l-89 -422q-14 -65 -37 -115.5t-58.5 -85.5t-85.5 -53.5t-117 -18.5q-130 0 -179 75t-18 221l85 399h125zM579 760l-2 -10h-97l-39 79l-71 -79h-105l2 10
l130 136h110z" />
    <glyph glyph-name="Udieresis" unicode="&#xdc;" horiz-adv-x="655" 
d="M287 680l-87 -410q-8 -39 -8.5 -72t9 -56.5t30.5 -37t56 -13.5q34 0 60 13.5t46 37t33.5 56.5t21.5 72l87 410h126l-89 -422q-14 -65 -37 -115.5t-58.5 -85.5t-85.5 -53.5t-117 -18.5q-130 0 -179 75t-18 221l85 399h125zM247 804q0 35 24.5 59t62.5 24q29 0 44 -15
t15 -40q0 -35 -25 -59t-63 -24q-28 0 -43 15t-15 40zM478 804q0 35 25 59t62 24q29 0 44 -15t15 -40q0 -35 -25 -59t-63 -24q-27 0 -42.5 15t-15.5 40z" />
    <glyph glyph-name="Yacute" unicode="&#xdd;" horiz-adv-x="547" 
d="M218 680l72 -292h2l196 292h139l-2 -10l-290 -394l-58 -276h-125l58 276l-123 394l2 10h129zM543 887l-112 -137h-119l2 10l91 136h140z" />
    <glyph glyph-name="Thorn" unicode="&#xde;" horiz-adv-x="563" 
d="M24 0l145 680h124l-23 -112h95q45 0 77.5 -12.5t53.5 -35t31 -53t10 -65.5q0 -54 -13 -104t-42.5 -89t-76.5 -62t-115 -23h-115l-26 -124h-125zM197 227h95q29 0 50.5 14t35.5 36.5t21 50t7 55.5q0 35 -15 58.5t-48 23.5h-95z" />
    <glyph glyph-name="germandbls" unicode="&#xdf;" horiz-adv-x="588" 
d="M112 482q23 112 88.5 167.5t161.5 55.5q44 0 79 -12.5t59 -34t36.5 -51t12.5 -62.5q0 -67 -30.5 -112t-72.5 -64v-2q32 -15 56.5 -51.5t24.5 -87.5q0 -118 -68 -180.5t-206 -62.5q-15 0 -30.5 2t-26.5 5l22 104q23 -5 48 -5q37 0 63 10.5t42 28.5t23 43.5t7 55.5
q0 38 -24 59t-73 21h-24l24 110h22q42 0 69 31.5t27 88.5q0 30 -16 49.5t-55 19.5q-48 0 -75 -30.5t-41 -99.5l-102 -478h-123z" />
    <glyph glyph-name="agrave" unicode="&#xe0;" horiz-adv-x="554" 
d="M458 -5q-17 -3 -33 -5t-38 -2q-39 0 -56.5 14t-19.5 41h-2q-29 -24 -59 -41t-73 -17q-38 0 -65.5 15t-45.5 41.5t-26.5 61t-8.5 73.5q0 61 16 118.5t46 102.5t73.5 72.5t98.5 27.5q47 0 77 -19.5t50 -38.5h2l25 43h93l-81 -377q-2 -11 -0.5 -14.5t12.5 -3.5h35zM366 368
q-28 28 -72 28q-34 0 -59.5 -18.5t-42 -47.5t-25 -65.5t-8.5 -73.5q0 -45 15.5 -75t53.5 -30q23 0 44 11t41 25zM218 713h124l41 -136l-2 -10h-102l-63 137z" />
    <glyph glyph-name="aacute" unicode="&#xe1;" horiz-adv-x="554" 
d="M458 -5q-17 -3 -33 -5t-38 -2q-39 0 -56.5 14t-19.5 41h-2q-29 -24 -59 -41t-73 -17q-38 0 -65.5 15t-45.5 41.5t-26.5 61t-8.5 73.5q0 61 16 118.5t46 102.5t73.5 72.5t98.5 27.5q47 0 77 -19.5t50 -38.5h2l25 43h93l-81 -377q-2 -11 -0.5 -14.5t12.5 -3.5h35zM366 368
q-28 28 -72 28q-34 0 -59.5 -18.5t-42 -47.5t-25 -65.5t-8.5 -73.5q0 -45 15.5 -75t53.5 -30q23 0 44 11t41 25zM498 704l-121 -137h-110l2 10l99 136h132z" />
    <glyph glyph-name="acircumflex" unicode="&#xe2;" horiz-adv-x="554" 
d="M458 -5q-17 -3 -33 -5t-38 -2q-39 0 -56.5 14t-19.5 41h-2q-29 -24 -59 -41t-73 -17q-38 0 -65.5 15t-45.5 41.5t-26.5 61t-8.5 73.5q0 61 16 118.5t46 102.5t73.5 72.5t98.5 27.5q47 0 77 -19.5t50 -38.5h2l25 43h93l-81 -377q-2 -11 -0.5 -14.5t12.5 -3.5h35zM366 368
q-28 28 -72 28q-34 0 -59.5 -18.5t-42 -47.5t-25 -65.5t-8.5 -73.5q0 -45 15.5 -75t53.5 -30q23 0 44 11t41 25zM481 577l-2 -10h-97l-29 79l-62 -79h-105l2 10l109 136h133z" />
    <glyph glyph-name="atilde" unicode="&#xe3;" horiz-adv-x="554" 
d="M458 -5q-17 -3 -33 -5t-38 -2q-39 0 -56.5 14t-19.5 41h-2q-29 -24 -59 -41t-73 -17q-38 0 -65.5 15t-45.5 41.5t-26.5 61t-8.5 73.5q0 61 16 118.5t46 102.5t73.5 72.5t98.5 27.5q47 0 77 -19.5t50 -38.5h2l25 43h93l-81 -377q-2 -11 -0.5 -14.5t12.5 -3.5h35zM366 368
q-28 28 -72 28q-34 0 -59.5 -18.5t-42 -47.5t-25 -65.5t-8.5 -73.5q0 -45 15.5 -75t53.5 -30q23 0 44 11t41 25zM195 647q20 28 46.5 47t57.5 19q20 0 35 -7t28.5 -15.5t27.5 -15.5t32 -7q15 0 36 9.5t35 24.5l14 -68q-23 -32 -49.5 -49.5t-52.5 -17.5q-20 0 -36 7t-31 15.5
t-29 15.5t-30 7q-18 0 -36.5 -9t-33.5 -26z" />
    <glyph glyph-name="adieresis" unicode="&#xe4;" horiz-adv-x="554" 
d="M458 -5q-17 -3 -33 -5t-38 -2q-39 0 -56.5 14t-19.5 41h-2q-29 -24 -59 -41t-73 -17q-38 0 -65.5 15t-45.5 41.5t-26.5 61t-8.5 73.5q0 61 16 118.5t46 102.5t73.5 72.5t98.5 27.5q47 0 77 -19.5t50 -38.5h2l25 43h93l-81 -377q-2 -11 -0.5 -14.5t12.5 -3.5h35zM366 368
q-28 28 -72 28q-34 0 -59.5 -18.5t-42 -47.5t-25 -65.5t-8.5 -73.5q0 -45 15.5 -75t53.5 -30q23 0 44 11t41 25zM375 626q0 35 24.5 59t62.5 24q28 0 43.5 -15t15.5 -40q0 -35 -25 -59t-63 -24q-28 0 -43 15t-15 40zM180 626q0 35 25 59t62 24q29 0 44 -15t15 -40
q0 -35 -25 -59t-63 -24q-27 0 -42.5 15t-15.5 40z" />
    <glyph glyph-name="aring" unicode="&#xe5;" horiz-adv-x="554" 
d="M458 -5q-17 -3 -33 -5t-38 -2q-39 0 -56.5 14t-19.5 41h-2q-29 -24 -59 -41t-73 -17q-38 0 -65.5 15t-45.5 41.5t-26.5 61t-8.5 73.5q0 61 16 118.5t46 102.5t73.5 72.5t98.5 27.5q47 0 77 -19.5t50 -38.5h2l25 43h93l-81 -377q-2 -11 -0.5 -14.5t12.5 -3.5h35zM366 368
q-28 28 -72 28q-34 0 -59.5 -18.5t-42 -47.5t-25 -65.5t-8.5 -73.5q0 -45 15.5 -75t53.5 -30q23 0 44 11t41 25zM314 634q0 -31 30 -31q20 0 33 14t13 36q0 14 -7.5 22.5t-21.5 8.5q-20 0 -33.5 -14.5t-13.5 -35.5zM240 621q0 30 10 54t27 41t41 26.5t53 9.5q41 0 67 -22.5
t26 -65.5q0 -60 -36 -95.5t-94 -35.5q-41 0 -67.5 22.5t-26.5 65.5z" />
    <glyph glyph-name="ae" unicode="&#xe6;" horiz-adv-x="782" 
d="M236 211q-51 0 -80 -21.5t-29 -63.5q0 -23 12.5 -34t34.5 -11q20 0 41.5 9t40 26t33 41t20.5 54h-73zM344 73q-17 -17 -37 -32.5t-44 -28t-53.5 -20t-65.5 -7.5q-63 0 -100.5 33t-37.5 90q0 97 63.5 140t172.5 43h85l5 22q6 26 0 42.5t-17.5 25.5t-25.5 12t-24 3
q-40 0 -79.5 -12t-75.5 -26l-22 94q42 17 93 31t102 14q48 0 83 -17.5t51 -49.5q32 32 69.5 49.5t88.5 17.5q44 0 75.5 -13.5t52 -36t30 -52t9.5 -62.5q0 -18 -3 -36t-7.5 -35t-9.5 -31.5t-10 -24.5h-277q-8 -54 11 -88.5t67 -34.5q38 0 71 9t66 23l19 -87
q-35 -17 -80.5 -30t-96.5 -13q-60 0 -93.5 24t-54.5 64zM623 286q3 10 5.5 23.5t2.5 26.5q0 29 -13.5 50.5t-50.5 21.5q-21 0 -39.5 -10.5t-32.5 -27.5t-24.5 -39t-16.5 -45h169z" />
    <glyph glyph-name="ccedilla" unicode="&#xe7;" horiz-adv-x="448" 
d="M118 -88l45 81q-65 17 -98.5 68.5t-33.5 123.5q0 66 20 123t57 99t89 66t117 24q43 0 74 -9.5t51 -20.5l-35 -92q-17 7 -39.5 14t-48.5 7q-31 0 -59.5 -13.5t-50 -39t-34.5 -62t-13 -82.5q0 -55 24.5 -84t66.5 -29q26 0 51.5 7t45.5 14l14 -92q-21 -10 -57.5 -19.5
t-74.5 -10.5l-18 -30q23 -5 35 -21t12 -39q0 -45 -30.5 -76.5t-90.5 -31.5q-20 0 -36 3.5t-27 8.5l20 63q19 -8 36 -8q36 0 36 30q0 16 -15.5 19t-30.5 3z" />
    <glyph glyph-name="egrave" unicode="&#xe8;" horiz-adv-x="507" 
d="M151 206q-8 -54 14 -88.5t69 -34.5q38 0 72 10.5t68 25.5l21 -91q-36 -17 -85 -30t-97 -13q-47 0 -81 16t-57 43.5t-34 63.5t-11 77q0 60 19 116t54 99.5t84 70t109 26.5q45 0 77 -13.5t53 -36t31 -52.5t10 -63q0 -34 -9.5 -69t-20.5 -57h-286zM348 286q2 4 5 16.5
t3 30.5q0 31 -15 53t-53 22q-22 0 -40.5 -10.5t-33.5 -27.5t-26 -39t-17 -45h177zM231 713h124l41 -136l-2 -10h-102l-63 137z" />
    <glyph glyph-name="eacute" unicode="&#xe9;" horiz-adv-x="507" 
d="M151 206q-8 -54 14 -88.5t69 -34.5q38 0 72 10.5t68 25.5l21 -91q-36 -17 -85 -30t-97 -13q-47 0 -81 16t-57 43.5t-34 63.5t-11 77q0 60 19 116t54 99.5t84 70t109 26.5q45 0 77 -13.5t53 -36t31 -52.5t10 -63q0 -34 -9.5 -69t-20.5 -57h-286zM348 286q2 4 5 16.5
t3 30.5q0 31 -15 53t-53 22q-22 0 -40.5 -10.5t-33.5 -27.5t-26 -39t-17 -45h177zM501 704l-121 -137h-110l2 10l99 136h132z" />
    <glyph glyph-name="ecircumflex" unicode="&#xea;" horiz-adv-x="507" 
d="M151 206q-8 -54 14 -88.5t69 -34.5q38 0 72 10.5t68 25.5l21 -91q-36 -17 -85 -30t-97 -13q-47 0 -81 16t-57 43.5t-34 63.5t-11 77q0 60 19 116t54 99.5t84 70t109 26.5q45 0 77 -13.5t53 -36t31 -52.5t10 -63q0 -34 -9.5 -69t-20.5 -57h-286zM348 286q2 4 5 16.5
t3 30.5q0 31 -15 53t-53 22q-22 0 -40.5 -10.5t-33.5 -27.5t-26 -39t-17 -45h177zM476 577l-2 -10h-97l-29 79l-62 -79h-105l2 10l109 136h133z" />
    <glyph glyph-name="edieresis" unicode="&#xeb;" horiz-adv-x="507" 
d="M151 206q-8 -54 14 -88.5t69 -34.5q38 0 72 10.5t68 25.5l21 -91q-36 -17 -85 -30t-97 -13q-47 0 -81 16t-57 43.5t-34 63.5t-11 77q0 60 19 116t54 99.5t84 70t109 26.5q45 0 77 -13.5t53 -36t31 -52.5t10 -63q0 -34 -9.5 -69t-20.5 -57h-286zM348 286q2 4 5 16.5
t3 30.5q0 31 -15 53t-53 22q-22 0 -40.5 -10.5t-33.5 -27.5t-26 -39t-17 -45h177zM367 626q0 35 24.5 59t62.5 24q28 0 43.5 -15t15.5 -40q0 -35 -25 -59t-63 -24q-28 0 -43 15t-15 40zM172 626q0 35 25 59t62 24q29 0 44 -15t15 -40q0 -35 -25 -59t-63 -24q-27 0 -42.5 15
t-15.5 40z" />
    <glyph glyph-name="igrave" unicode="&#xec;" horiz-adv-x="261" 
d="M83 713h124l41 -136l-2 -10h-102l-63 137zM10 0l102 482h123l-102 -482h-123z" />
    <glyph glyph-name="iacute" unicode="&#xed;" horiz-adv-x="262" 
d="M364 704l-121 -137h-110l2 10l99 136h132zM10 0l102 482h123l-102 -482h-123z" />
    <glyph glyph-name="icircumflex" unicode="&#xee;" horiz-adv-x="261" 
d="M10 0l102 482h123l-102 -482h-123zM337 577l-2 -10h-97l-29 79l-62 -79h-105l2 10l109 136h133z" />
    <glyph glyph-name="idieresis" unicode="&#xef;" horiz-adv-x="261" 
d="M231 626q0 35 24.5 59t62.5 24q28 0 43.5 -15t15.5 -40q0 -35 -25 -59t-63 -24q-28 0 -43 15t-15 40zM36 626q0 35 25 59t62 24q29 0 44 -15t15 -40q0 -35 -25 -59t-63 -24q-27 0 -42.5 15t-15.5 40zM10 0l102 482h123l-102 -482h-123z" />
    <glyph glyph-name="eth" unicode="&#xf0;" horiz-adv-x="560" 
d="M441 588q12 -27 24.5 -62.5t22.5 -74t16.5 -77.5t6.5 -73q0 -64 -18 -121.5t-53.5 -100.5t-87 -68.5t-117.5 -25.5q-50 0 -88.5 16.5t-64 44.5t-38.5 65.5t-13 78.5q0 63 19 116.5t51.5 92t75.5 60.5t92 22q42 0 74.5 -12t43.5 -24l2 2q-6 23 -18.5 53t-25.5 54l-108 -29
l-15 69l92 23q-11 17 -24 37.5t-24 35.5l2 10h115l15 -25t14 -25l89 23l14 -68zM157 189q0 -47 19.5 -74t61.5 -27q39 0 66.5 17t45 44.5t25 63t7.5 71.5q0 46 -20.5 70.5t-63.5 24.5q-38 0 -64.5 -15t-43.5 -41t-25 -60.5t-8 -73.5z" />
    <glyph glyph-name="ntilde" unicode="&#xf1;" horiz-adv-x="543" 
d="M212 482l6 -46h2q11 10 24.5 20.5t30.5 19.5t37.5 15t44.5 6q79 0 112 -50.5t13 -146.5l-64 -300h-123l63 295q11 49 -2 75t-51 26q-32 0 -57 -15.5t-41 -32.5l-74 -348h-123l102 482h100zM189 647q20 28 46.5 47t57.5 19q20 0 35 -7t28.5 -15.5t27.5 -15.5t32 -7
q15 0 36 9.5t35 24.5l14 -68q-23 -32 -49.5 -49.5t-52.5 -17.5q-20 0 -36 7t-31 15.5t-29 15.5t-30 7q-18 0 -36.5 -9t-33.5 -26z" />
    <glyph glyph-name="ograve" unicode="&#xf2;" horiz-adv-x="547" 
d="M158 191q0 -49 18.5 -77t54.5 -28q32 0 58 16.5t44 44t28 65t10 79.5q0 49 -18.5 77t-55.5 28q-32 0 -57.5 -16.5t-43.5 -44t-28 -65t-10 -79.5zM499 297q0 -62 -19 -118.5t-55 -99.5t-87.5 -68.5t-117.5 -25.5q-47 0 -82 15.5t-59 43t-36 64t-12 78.5q0 63 19.5 119.5
t56 99t88 67.5t114.5 25q48 0 83.5 -15.5t59 -42.5t35.5 -63.5t12 -78.5zM225 713h124l41 -136l-2 -10h-102l-63 137z" />
    <glyph glyph-name="oacute" unicode="&#xf3;" horiz-adv-x="547" 
d="M158 191q0 -49 18.5 -77t54.5 -28q32 0 58 16.5t44 44t28 65t10 79.5q0 49 -18.5 77t-55.5 28q-32 0 -57.5 -16.5t-43.5 -44t-28 -65t-10 -79.5zM499 297q0 -62 -19 -118.5t-55 -99.5t-87.5 -68.5t-117.5 -25.5q-47 0 -82 15.5t-59 43t-36 64t-12 78.5q0 63 19.5 119.5
t56 99t88 67.5t114.5 25q48 0 83.5 -15.5t59 -42.5t35.5 -63.5t12 -78.5zM509 704l-121 -137h-110l2 10l99 136h132z" />
    <glyph glyph-name="ocircumflex" unicode="&#xf4;" horiz-adv-x="547" 
d="M158 191q0 -49 18.5 -77t54.5 -28q32 0 58 16.5t44 44t28 65t10 79.5q0 49 -18.5 77t-55.5 28q-32 0 -57.5 -16.5t-43.5 -44t-28 -65t-10 -79.5zM499 297q0 -62 -19 -118.5t-55 -99.5t-87.5 -68.5t-117.5 -25.5q-47 0 -82 15.5t-59 43t-36 64t-12 78.5q0 63 19.5 119.5
t56 99t88 67.5t114.5 25q48 0 83.5 -15.5t59 -42.5t35.5 -63.5t12 -78.5zM482 577l-2 -10h-97l-29 79l-62 -79h-105l2 10l109 136h133z" />
    <glyph glyph-name="otilde" unicode="&#xf5;" horiz-adv-x="547" 
d="M158 191q0 -49 18.5 -77t54.5 -28q32 0 58 16.5t44 44t28 65t10 79.5q0 49 -18.5 77t-55.5 28q-32 0 -57.5 -16.5t-43.5 -44t-28 -65t-10 -79.5zM499 297q0 -62 -19 -118.5t-55 -99.5t-87.5 -68.5t-117.5 -25.5q-47 0 -82 15.5t-59 43t-36 64t-12 78.5q0 63 19.5 119.5
t56 99t88 67.5t114.5 25q48 0 83.5 -15.5t59 -42.5t35.5 -63.5t12 -78.5zM191 647q20 28 46.5 47t57.5 19q20 0 35 -7t28.5 -15.5t27.5 -15.5t32 -7q15 0 36 9.5t35 24.5l14 -68q-23 -32 -49.5 -49.5t-52.5 -17.5q-20 0 -36 7t-31 15.5t-29 15.5t-30 7q-18 0 -36.5 -9
t-33.5 -26z" />
    <glyph glyph-name="odieresis" unicode="&#xf6;" horiz-adv-x="547" 
d="M158 191q0 -49 18.5 -77t54.5 -28q32 0 58 16.5t44 44t28 65t10 79.5q0 49 -18.5 77t-55.5 28q-32 0 -57.5 -16.5t-43.5 -44t-28 -65t-10 -79.5zM499 297q0 -62 -19 -118.5t-55 -99.5t-87.5 -68.5t-117.5 -25.5q-47 0 -82 15.5t-59 43t-36 64t-12 78.5q0 63 19.5 119.5
t56 99t88 67.5t114.5 25q48 0 83.5 -15.5t59 -42.5t35.5 -63.5t12 -78.5zM374 626q0 35 24.5 59t62.5 24q28 0 43.5 -15t15.5 -40q0 -35 -25 -59t-63 -24q-28 0 -43 15t-15 40zM179 626q0 35 25 59t62 24q29 0 44 -15t15 -40q0 -35 -25 -59t-63 -24q-27 0 -42.5 15t-15.5 40
z" />
    <glyph glyph-name="divide" unicode="&#xf7;" 
d="M520 323l-22 -103h-463l22 103h463zM147 50q0 21 7.5 39t21 31.5t31.5 21.5t38 8q31 0 48 -18.5t17 -47.5q0 -42 -29 -70.5t-71 -28.5q-30 0 -46.5 18t-16.5 47zM234 460q0 21 7.5 39t21 31.5t31.5 21.5t38 8q31 0 48 -18.5t17 -47.5q0 -42 -29 -70.5t-71 -28.5
q-30 0 -46.5 18t-16.5 47z" />
    <glyph glyph-name="oslash" unicode="&#xf8;" horiz-adv-x="547" 
d="M3 19l53 57q-25 47 -25 110t19.5 119.5t56 99t88 67.5t114.5 25q33 0 60.5 -7.5t48.5 -21.5l47 50l57 -55l-50 -54q27 -48 27 -112q0 -62 -19 -118.5t-55 -99.5t-87.5 -68.5t-117.5 -25.5q-35 0 -63 8.5t-50 24.5l-51 -55zM371 301l-185 -199q16 -16 45 -16q32 0 58 16.5
t44 44t28 65t10 79.5v10zM158 186l181 196q-17 14 -42 14q-32 0 -57.5 -16.5t-43.5 -44t-28 -65t-10 -79.5v-5z" />
    <glyph glyph-name="ugrave" unicode="&#xf9;" horiz-adv-x="537" 
d="M230 482l-63 -295q-11 -49 0.5 -75t48.5 -26q31 0 55 15.5t41 30.5l75 350h123l-102 -482h-101l-7 46h-1q-10 -9 -23 -19.5t-29.5 -19.5t-36.5 -15.5t-44 -6.5q-81 0 -112 50.5t-11 146.5l64 300h123zM217 713h124l41 -136l-2 -10h-102l-63 137z" />
    <glyph glyph-name="uacute" unicode="&#xfa;" horiz-adv-x="537" 
d="M230 482l-63 -295q-11 -49 0.5 -75t48.5 -26q31 0 55 15.5t41 30.5l75 350h123l-102 -482h-101l-7 46h-1q-10 -9 -23 -19.5t-29.5 -19.5t-36.5 -15.5t-44 -6.5q-81 0 -112 50.5t-11 146.5l64 300h123zM502 704l-121 -137h-110l2 10l99 136h132z" />
    <glyph glyph-name="ucircumflex" unicode="&#xfb;" horiz-adv-x="537" 
d="M230 482l-63 -295q-11 -49 0.5 -75t48.5 -26q31 0 55 15.5t41 30.5l75 350h123l-102 -482h-101l-7 46h-1q-10 -9 -23 -19.5t-29.5 -19.5t-36.5 -15.5t-44 -6.5q-81 0 -112 50.5t-11 146.5l64 300h123zM471 577l-2 -10h-97l-29 79l-62 -79h-105l2 10l109 136h133z" />
    <glyph glyph-name="udieresis" unicode="&#xfc;" horiz-adv-x="537" 
d="M230 482l-63 -295q-11 -49 0.5 -75t48.5 -26q31 0 55 15.5t41 30.5l75 350h123l-102 -482h-101l-7 46h-1q-10 -9 -23 -19.5t-29.5 -19.5t-36.5 -15.5t-44 -6.5q-81 0 -112 50.5t-11 146.5l64 300h123zM368 626q0 35 24.5 59t62.5 24q28 0 43.5 -15t15.5 -40
q0 -35 -25 -59t-63 -24q-28 0 -43 15t-15 40zM173 626q0 35 25 59t62 24q29 0 44 -15t15 -40q0 -35 -25 -59t-63 -24q-27 0 -42.5 15t-15.5 40z" />
    <glyph glyph-name="yacute" unicode="&#xfd;" horiz-adv-x="489" 
d="M510 472l-310 -554q-36 -65 -80 -98t-101 -33q-24 0 -48.5 4t-38.5 8l19 90q14 -3 30.5 -6t30.5 -3q29 0 47.5 16.5t38.5 52.5l31 56l-72 467l2 10h120l22 -266l2 -100h3l44 100l131 266h131zM480 704l-121 -137h-110l2 10l99 136h132z" />
    <glyph glyph-name="thorn" unicode="&#xfe;" horiz-adv-x="548" 
d="M158 700h123l-54 -253h2q22 19 49 34.5t71 15.5q38 0 66.5 -15t47 -41t28 -60.5t9.5 -73.5q0 -61 -17 -119t-48 -103t-75.5 -72.5t-99.5 -27.5q-44 0 -72.5 17t-45.5 33h-2l-50 -233h-123zM156 114q14 -14 33.5 -21t42.5 -7q34 0 60 18t43.5 47.5t26.5 66t9 73.5
q0 45 -17.5 75t-56.5 30q-22 0 -45.5 -11t-43.5 -25z" />
    <glyph glyph-name="ydieresis" unicode="&#xff;" horiz-adv-x="489" 
d="M510 472l-310 -554q-36 -65 -80 -98t-101 -33q-24 0 -48.5 4t-38.5 8l19 90q14 -3 30.5 -6t30.5 -3q29 0 47.5 16.5t38.5 52.5l31 56l-72 467l2 10h120l22 -266l2 -100h3l44 100l131 266h131zM347 626q0 35 24.5 59t62.5 24q28 0 43.5 -15t15.5 -40q0 -35 -25 -59
t-63 -24q-28 0 -43 15t-15 40zM152 626q0 35 25 59t62 24q29 0 44 -15t15 -40q0 -35 -25 -59t-63 -24q-27 0 -42.5 15t-15.5 40z" />
    <glyph glyph-name="Amacron" unicode="&#x100;" horiz-adv-x="607" 
d="M537 0h-130l-8 149h-238l-73 -149h-137l363 680h147zM367 570l-83 -183l-69 -139h170l-11 139l-4 183h-3zM278 759l22 103h257l-22 -103h-257z" />
    <glyph glyph-name="amacron" unicode="&#x101;" horiz-adv-x="554" 
d="M458 -5q-17 -3 -33 -5t-38 -2q-39 0 -56.5 14t-19.5 41h-2q-29 -24 -59 -41t-73 -17q-38 0 -65.5 15t-45.5 41.5t-26.5 61t-8.5 73.5q0 61 16 118.5t46 102.5t73.5 72.5t98.5 27.5q47 0 77 -19.5t50 -38.5h2l25 43h93l-81 -377q-2 -11 -0.5 -14.5t12.5 -3.5h35zM366 368
q-28 28 -72 28q-34 0 -59.5 -18.5t-42 -47.5t-25 -65.5t-8.5 -73.5q0 -45 15.5 -75t53.5 -30q23 0 44 11t41 25zM210 579l22 103h257l-22 -103h-257z" />
    <glyph glyph-name="Abreve" unicode="&#x102;" horiz-adv-x="607" 
d="M537 0h-130l-8 149h-238l-73 -149h-137l363 680h147zM367 570l-83 -183l-69 -139h170l-11 139l-4 183h-3zM423 857q38 0 68 9.5t58 24.5l17 -78q-28 -23 -69.5 -43t-92.5 -20q-24 0 -44 6.5t-36 17t-28.5 22.5t-21.5 24l40 71q21 -15 47.5 -24.5t61.5 -9.5z" />
    <glyph glyph-name="abreve" unicode="&#x103;" horiz-adv-x="554" 
d="M458 -5q-17 -3 -33 -5t-38 -2q-39 0 -56.5 14t-19.5 41h-2q-29 -24 -59 -41t-73 -17q-38 0 -65.5 15t-45.5 41.5t-26.5 61t-8.5 73.5q0 61 16 118.5t46 102.5t73.5 72.5t98.5 27.5q47 0 77 -19.5t50 -38.5h2l25 43h93l-81 -377q-2 -11 -0.5 -14.5t12.5 -3.5h35zM366 368
q-28 28 -72 28q-34 0 -59.5 -18.5t-42 -47.5t-25 -65.5t-8.5 -73.5q0 -45 15.5 -75t53.5 -30q23 0 44 11t41 25zM353 674q38 0 68.5 9.5t57.5 24.5l17 -78q-28 -23 -69.5 -43t-91.5 -20q-24 0 -44.5 6.5t-36.5 17t-28.5 22.5t-21.5 24l41 71q20 -15 46.5 -24.5t61.5 -9.5z
" />
    <glyph glyph-name="Aogonek" unicode="&#x104;" horiz-adv-x="607" 
d="M406 -213q-22 0 -39 7.5t-29 20t-18 28.5t-6 34q0 23 8 41t21 33t29.5 27t34.5 23l-8 148h-238l-73 -149h-137l363 680h147l76 -680q-33 -7 -56 -18.5t-37.5 -25t-21 -28t-6.5 -27.5q0 -15 7.5 -21t21.5 -6t28 5.5t24 12.5l-2 -80q-16 -10 -42.5 -17.5t-46.5 -7.5z
M367 570l-83 -183l-69 -139h170l-11 139l-4 183h-3z" />
    <glyph glyph-name="aogonek" unicode="&#x105;" horiz-adv-x="554" 
d="M367 -213q-48 0 -71 25.5t-23 60.5q0 45 25 72.5t59 45.5q-44 9 -46 52h-2q-29 -24 -59 -41t-73 -17q-38 0 -65.5 15t-45.5 41.5t-26.5 61t-8.5 73.5q0 61 16 118.5t46 102.5t73.5 72.5t98.5 27.5q47 0 77 -19.5t50 -38.5h2l25 43h93l-81 -377q-2 -11 -0.5 -14.5
t12.5 -3.5h35l-20 -92q-12 -5 -26.5 -13t-26.5 -19t-20.5 -25t-8.5 -32t8 -25t22 -7t28 5.5t24 12.5l-3 -80q-16 -10 -42 -17.5t-46 -7.5zM366 368q-28 28 -72 28q-34 0 -59.5 -18.5t-42 -47.5t-25 -65.5t-8.5 -73.5q0 -45 15.5 -75t53.5 -30q23 0 44 11t41 25z" />
    <glyph glyph-name="Cacute" unicode="&#x106;" horiz-adv-x="561" 
d="M57 252q0 92 26 173t74 141t116.5 94.5t154.5 34.5q42 0 83.5 -11t78.5 -33l-43 -95q-35 21 -67 27t-64 6q-47 0 -88.5 -26t-72.5 -70t-49 -102t-18 -123q0 -78 31.5 -127.5t90.5 -49.5q32 0 66.5 6t78.5 27l23 -95q-46 -22 -92.5 -33t-88.5 -11q-59 0 -104 20t-75 55
t-45.5 84t-15.5 108zM608 887l-112 -137h-119l2 10l91 136h140z" />
    <glyph glyph-name="cacute" unicode="&#x107;" horiz-adv-x="448" 
d="M31 185q0 66 20 123t57 99t89 66t117 24q43 0 74 -9.5t51 -20.5l-35 -92q-17 7 -39.5 14t-48.5 7q-31 0 -59.5 -13.5t-50 -39t-34.5 -62t-13 -82.5q0 -55 24.5 -84t66.5 -29q26 0 51.5 7t45.5 14l14 -92q-22 -10 -59.5 -20t-76.5 -10q-47 0 -83.5 15t-61 41.5t-37 63
t-12.5 80.5zM508 704l-121 -137h-110l2 10l99 136h132z" />
    <glyph glyph-name="Ccircumflex" unicode="&#x108;" horiz-adv-x="561" 
d="M57 252q0 92 26 173t74 141t116.5 94.5t154.5 34.5q42 0 83.5 -11t78.5 -33l-43 -95q-35 21 -67 27t-64 6q-47 0 -88.5 -26t-72.5 -70t-49 -102t-18 -123q0 -78 31.5 -127.5t90.5 -49.5q32 0 66.5 6t78.5 27l23 -95q-46 -22 -92.5 -33t-88.5 -11q-59 0 -104 20t-75 55
t-45.5 84t-15.5 108zM601 760l-2 -10h-97l-39 79l-71 -79h-105l2 10l130 136h110z" />
    <glyph glyph-name="ccircumflex" unicode="&#x109;" horiz-adv-x="448" 
d="M31 185q0 66 20 123t57 99t89 66t117 24q43 0 74 -9.5t51 -20.5l-35 -92q-17 7 -39.5 14t-48.5 7q-31 0 -59.5 -13.5t-50 -39t-34.5 -62t-13 -82.5q0 -55 24.5 -84t66.5 -29q26 0 51.5 7t45.5 14l14 -92q-22 -10 -59.5 -20t-76.5 -10q-47 0 -83.5 15t-61 41.5t-37 63
t-12.5 80.5zM472 577l-2 -10h-97l-29 79l-62 -79h-105l2 10l109 136h133z" />
    <glyph glyph-name="Cdotaccent" unicode="&#x10a;" horiz-adv-x="561" 
d="M57 252q0 92 26 173t74 141t116.5 94.5t154.5 34.5q42 0 83.5 -11t78.5 -33l-43 -95q-35 21 -67 27t-64 6q-47 0 -88.5 -26t-72.5 -70t-49 -102t-18 -123q0 -78 31.5 -127.5t90.5 -49.5q32 0 66.5 6t78.5 27l23 -95q-46 -22 -92.5 -33t-88.5 -11q-59 0 -104 20t-75 55
t-45.5 84t-15.5 108zM390 804q0 35 24.5 59t62.5 24q29 0 44 -15t15 -40q0 -35 -25 -59t-63 -24q-28 0 -43 15t-15 40z" />
    <glyph glyph-name="cdotaccent" unicode="&#x10b;" horiz-adv-x="448" 
d="M31 185q0 66 20 123t57 99t89 66t117 24q43 0 74 -9.5t51 -20.5l-35 -92q-17 7 -39.5 14t-48.5 7q-31 0 -59.5 -13.5t-50 -39t-34.5 -62t-13 -82.5q0 -55 24.5 -84t66.5 -29q26 0 51.5 7t45.5 14l14 -92q-22 -10 -59.5 -20t-76.5 -10q-47 0 -83.5 15t-61 41.5t-37 63
t-12.5 80.5zM265 625q0 35 24.5 59t62.5 24q29 0 44 -15t15 -40q0 -35 -25 -59t-63 -24q-28 0 -43 15t-15 40z" />
    <glyph glyph-name="Ccaron" unicode="&#x10c;" horiz-adv-x="561" 
d="M57 252q0 92 26 173t74 141t116.5 94.5t154.5 34.5q42 0 83.5 -11t78.5 -33l-43 -95q-35 21 -67 27t-64 6q-47 0 -88.5 -26t-72.5 -70t-49 -102t-18 -123q0 -78 31.5 -127.5t90.5 -49.5q32 0 66.5 6t78.5 27l23 -95q-46 -22 -92.5 -33t-88.5 -11q-59 0 -104 20t-75 55
t-45.5 84t-15.5 108zM317 886l2 10h97l39 -79l71 79h105l-2 -10l-130 -136h-110z" />
    <glyph glyph-name="ccaron" unicode="&#x10d;" horiz-adv-x="448" 
d="M31 185q0 66 20 123t57 99t89 66t117 24q43 0 74 -9.5t51 -20.5l-35 -92q-17 7 -39.5 14t-48.5 7q-31 0 -59.5 -13.5t-50 -39t-34.5 -62t-13 -82.5q0 -55 24.5 -84t66.5 -29q26 0 51.5 7t45.5 14l14 -92q-22 -10 -59.5 -20t-76.5 -10q-47 0 -83.5 15t-61 41.5t-37 63
t-12.5 80.5zM206 703l2 10h97l29 -79l63 79h104l-2 -10l-109 -136h-133z" />
    <glyph glyph-name="Dcaron" unicode="&#x10e;" horiz-adv-x="643" 
d="M169 680h179q68 0 117 -16.5t80.5 -47.5t46.5 -75.5t15 -101.5q0 -128 -30.5 -212.5t-83 -135t-122.5 -71t-148 -20.5h-199zM223 103q58 0 105 17.5t80.5 56t51.5 101t18 152.5q0 73 -34.5 110t-119.5 37h-52l-101 -474h52zM271 886l2 10h97l39 -79l71 79h105l-2 -10
l-130 -136h-110z" />
    <glyph glyph-name="dcaron" unicode="&#x10f;" horiz-adv-x="549" 
d="M569 700l-149 -700h-91l-8 43h-2q-24 -21 -56.5 -39.5t-80.5 -18.5q-38 0 -66.5 15.5t-47 41.5t-28 61t-9.5 74q0 61 17 118.5t48.5 102.5t75.5 72t99 27q44 0 74 -16.5t46 -33.5h1l54 253h123zM376 368q-14 14 -34 21t-43 7q-34 0 -60 -18.5t-44 -47.5t-27 -65.5
t-9 -73.5q0 -45 18 -75t56 -30q23 0 46.5 11t43.5 25zM571 524l55 156h126l-2 -10l-86 -156h-95z" />
    <glyph glyph-name="Dcroat" unicode="&#x110;" horiz-adv-x="644" 
d="M85 284h-47l22 103h47l63 293h179q68 0 117 -16.5t80.5 -47.5t46.5 -75.5t15 -101.5q0 -128 -30.5 -212.5t-83 -135t-122.5 -71t-148 -20.5h-199zM224 103q58 0 105 17.5t80.5 56t51.5 101t18 152.5q0 73 -34.5 110t-119.5 37h-52l-41 -190h97l-22 -103h-97l-38 -181h52z
" />
    <glyph glyph-name="dcroat" unicode="&#x111;" horiz-adv-x="549" 
d="M569 700l-13 -61h41l-20 -93h-41l-116 -546h-91l-8 43h-2q-24 -21 -56.5 -39.5t-80.5 -18.5q-38 0 -66.5 15.5t-47 41.5t-28 61t-9.5 74q0 61 17 118.5t48.5 102.5t75.5 72t99 27q44 0 74 -16.5t46 -33.5h1l21 99h-92l19 93h93l13 61h123zM376 368q-14 14 -34 21t-43 7
q-34 0 -60 -18.5t-44 -47.5t-27 -65.5t-9 -73.5q0 -45 18 -75t56 -30q23 0 46.5 11t43.5 25z" />
    <glyph glyph-name="Emacron" unicode="&#x112;" horiz-adv-x="545" 
d="M572 680l-22 -103h-278l-39 -181h249l-22 -103h-249l-40 -190h281l-21 -103h-407l145 680h403zM258 759l22 103h257l-22 -103h-257z" />
    <glyph glyph-name="emacron" unicode="&#x113;" horiz-adv-x="507" 
d="M151 206q-8 -54 14 -88.5t69 -34.5q38 0 72 10.5t68 25.5l21 -91q-36 -17 -85 -30t-97 -13q-47 0 -81 16t-57 43.5t-34 63.5t-11 77q0 60 19 116t54 99.5t84 70t109 26.5q45 0 77 -13.5t53 -36t31 -52.5t10 -63q0 -34 -9.5 -69t-20.5 -57h-286zM348 286q2 4 5 16.5
t3 30.5q0 31 -15 53t-53 22q-22 0 -40.5 -10.5t-33.5 -27.5t-26 -39t-17 -45h177zM202 579l22 103h257l-22 -103h-257z" />
    <glyph glyph-name="Ebreve" unicode="&#x114;" horiz-adv-x="545" 
d="M572 680l-22 -103h-278l-39 -181h249l-22 -103h-249l-40 -190h281l-21 -103h-407l145 680h403zM408 857q38 0 68 9.5t58 24.5l17 -78q-28 -23 -69.5 -43t-92.5 -20q-24 0 -44 6.5t-36 17t-28.5 22.5t-21.5 24l40 71q21 -15 47.5 -24.5t61.5 -9.5z" />
    <glyph glyph-name="ebreve" unicode="&#x115;" horiz-adv-x="507" 
d="M151 206q-8 -54 14 -88.5t69 -34.5q38 0 72 10.5t68 25.5l21 -91q-36 -17 -85 -30t-97 -13q-47 0 -81 16t-57 43.5t-34 63.5t-11 77q0 60 19 116t54 99.5t84 70t109 26.5q45 0 77 -13.5t53 -36t31 -52.5t10 -63q0 -34 -9.5 -69t-20.5 -57h-286zM348 286q2 4 5 16.5
t3 30.5q0 31 -15 53t-53 22q-22 0 -40.5 -10.5t-33.5 -27.5t-26 -39t-17 -45h177zM349 674q38 0 68.5 9.5t57.5 24.5l17 -78q-28 -23 -69.5 -43t-91.5 -20q-24 0 -44.5 6.5t-36.5 17t-28.5 22.5t-21.5 24l41 71q20 -15 46.5 -24.5t61.5 -9.5z" />
    <glyph glyph-name="Edotaccent" unicode="&#x116;" horiz-adv-x="545" 
d="M572 680l-22 -103h-278l-39 -181h249l-22 -103h-249l-40 -190h281l-21 -103h-407l145 680h403zM331 804q0 35 24.5 59t62.5 24q29 0 44 -15t15 -40q0 -35 -25 -59t-63 -24q-28 0 -43 15t-15 40z" />
    <glyph glyph-name="edotaccent" unicode="&#x117;" horiz-adv-x="507" 
d="M151 206q-8 -54 14 -88.5t69 -34.5q38 0 72 10.5t68 25.5l21 -91q-36 -17 -85 -30t-97 -13q-47 0 -81 16t-57 43.5t-34 63.5t-11 77q0 60 19 116t54 99.5t84 70t109 26.5q45 0 77 -13.5t53 -36t31 -52.5t10 -63q0 -34 -9.5 -69t-20.5 -57h-286zM348 286q2 4 5 16.5
t3 30.5q0 31 -15 53t-53 22q-22 0 -40.5 -10.5t-33.5 -27.5t-26 -39t-17 -45h177zM270 625q0 35 24.5 59t62.5 24q29 0 44 -15t15 -40q0 -35 -25 -59t-63 -24q-28 0 -43 15t-15 40z" />
    <glyph glyph-name="Eogonek" unicode="&#x118;" horiz-adv-x="545" 
d="M322 -213q-43 0 -66.5 24.5t-23.5 62.5q0 23 9 42t23 34t31 27.5t33 22.5h-304l145 680h403l-22 -103h-278l-39 -181h249l-22 -103h-249l-40 -190h281l-21 -103q-18 -6 -35.5 -17.5t-31.5 -25t-22.5 -28t-8.5 -28.5q0 -15 8 -21t22 -6t28 5.5t23 12.5l-3 -80
q-17 -10 -43 -17.5t-46 -7.5z" />
    <glyph glyph-name="eogonek" unicode="&#x119;" horiz-adv-x="507" 
d="M226 -15h-13q-47 0 -81 16t-57 43.5t-34 63.5t-11 77q0 60 19 116t54 99.5t84 70t109 26.5q45 0 77 -13.5t53 -36t31 -52.5t10 -63q0 -34 -9.5 -69t-20.5 -57h-286q-8 -54 14 -88.5t69 -34.5q38 0 72 10.5t68 25.5l21 -91q-9 -5 -19 -9t-21 -10q-13 -8 -28 -19t-28 -24.5
t-21.5 -28.5t-8.5 -31q0 -18 8 -25t22 -7t28 5.5t24 12.5l-3 -80q-16 -10 -42 -17.5t-46 -7.5q-48 0 -71 25.5t-23 60.5q0 34 17 61.5t43 48.5v2zM348 286q2 4 5 16.5t3 30.5q0 31 -15 53t-53 22q-22 0 -40.5 -10.5t-33.5 -27.5t-26 -39t-17 -45h177z" />
    <glyph glyph-name="Ecaron" unicode="&#x11a;" horiz-adv-x="545" 
d="M572 680l-22 -103h-278l-39 -181h249l-22 -103h-249l-40 -190h281l-21 -103h-407l145 680h403zM265 886l2 10h97l39 -79l71 79h105l-2 -10l-130 -136h-110z" />
    <glyph glyph-name="ecaron" unicode="&#x11b;" horiz-adv-x="507" 
d="M151 206q-8 -54 14 -88.5t69 -34.5q38 0 72 10.5t68 25.5l21 -91q-36 -17 -85 -30t-97 -13q-47 0 -81 16t-57 43.5t-34 63.5t-11 77q0 60 19 116t54 99.5t84 70t109 26.5q45 0 77 -13.5t53 -36t31 -52.5t10 -63q0 -34 -9.5 -69t-20.5 -57h-286zM348 286q2 4 5 16.5
t3 30.5q0 31 -15 53t-53 22q-22 0 -40.5 -10.5t-33.5 -27.5t-26 -39t-17 -45h177zM210 703l2 10h97l29 -79l63 79h104l-2 -10l-109 -136h-133z" />
    <glyph glyph-name="Gcircumflex" unicode="&#x11c;" horiz-adv-x="631" 
d="M587 358l-66 -318q-48 -24 -108 -39.5t-124 -15.5q-59 0 -102.5 20.5t-72.5 56.5t-43.5 85t-14.5 106q0 84 24.5 163.5t72.5 141.5t119.5 99.5t165.5 37.5q61 0 111 -16.5t82 -34.5l-45 -96q-31 17 -71.5 29t-88.5 12q-63 0 -109 -29t-75.5 -76.5t-43.5 -107.5t-14 -121
q0 -72 29 -118t94 -46q28 0 54 5t49 16l30 143l-102 18l18 85h231zM598 760l-2 -10h-97l-39 79l-71 -79h-105l2 10l130 136h110z" />
    <glyph glyph-name="gcircumflex" unicode="&#x11d;" horiz-adv-x="548" 
d="M374 368q-14 14 -34 21t-42 7q-35 0 -61 -18t-43 -47t-25.5 -65t-8.5 -72q0 -45 17.5 -73t55.5 -28q23 0 46.5 10t43.5 24zM421 11q-23 -106 -88 -165t-171 -59q-54 0 -92.5 13.5t-66.5 31.5l45 87q23 -15 52.5 -27t70.5 -12q53 0 82.5 31.5t42.5 91.5l8 37h-2
q-21 -19 -49 -33.5t-70 -14.5q-38 0 -66.5 14.5t-47.5 40t-28.5 59.5t-9.5 73q0 60 16.5 117.5t47.5 102t75.5 71.5t99.5 27q47 0 79.5 -19.5t52.5 -39.5h2l25 44h92zM494 577l-2 -10h-97l-29 79l-62 -79h-105l2 10l109 136h133z" />
    <glyph glyph-name="Gbreve" unicode="&#x11e;" horiz-adv-x="631" 
d="M587 358l-66 -318q-48 -24 -108 -39.5t-124 -15.5q-59 0 -102.5 20.5t-72.5 56.5t-43.5 85t-14.5 106q0 84 24.5 163.5t72.5 141.5t119.5 99.5t165.5 37.5q61 0 111 -16.5t82 -34.5l-45 -96q-31 17 -71.5 29t-88.5 12q-63 0 -109 -29t-75.5 -76.5t-43.5 -107.5t-14 -121
q0 -72 29 -118t94 -46q28 0 54 5t49 16l30 143l-102 18l18 85h231zM461 857q38 0 68 9.5t58 24.5l17 -78q-28 -23 -69.5 -43t-92.5 -20q-24 0 -44 6.5t-36 17t-28.5 22.5t-21.5 24l40 71q21 -15 47.5 -24.5t61.5 -9.5z" />
    <glyph glyph-name="gbreve" unicode="&#x11f;" horiz-adv-x="548" 
d="M374 368q-14 14 -34 21t-42 7q-35 0 -61 -18t-43 -47t-25.5 -65t-8.5 -72q0 -45 17.5 -73t55.5 -28q23 0 46.5 10t43.5 24zM421 11q-23 -106 -88 -165t-171 -59q-54 0 -92.5 13.5t-66.5 31.5l45 87q23 -15 52.5 -27t70.5 -12q53 0 82.5 31.5t42.5 91.5l8 37h-2
q-21 -19 -49 -33.5t-70 -14.5q-38 0 -66.5 14.5t-47.5 40t-28.5 59.5t-9.5 73q0 60 16.5 117.5t47.5 102t75.5 71.5t99.5 27q47 0 79.5 -19.5t52.5 -39.5h2l25 44h92zM363 674q38 0 68.5 9.5t57.5 24.5l17 -78q-28 -23 -69.5 -43t-91.5 -20q-24 0 -44.5 6.5t-36.5 17
t-28.5 22.5t-21.5 24l41 71q20 -15 46.5 -24.5t61.5 -9.5z" />
    <glyph glyph-name="Gdotaccent" unicode="&#x120;" horiz-adv-x="631" 
d="M587 358l-66 -318q-48 -24 -108 -39.5t-124 -15.5q-59 0 -102.5 20.5t-72.5 56.5t-43.5 85t-14.5 106q0 84 24.5 163.5t72.5 141.5t119.5 99.5t165.5 37.5q61 0 111 -16.5t82 -34.5l-45 -96q-31 17 -71.5 29t-88.5 12q-63 0 -109 -29t-75.5 -76.5t-43.5 -107.5t-14 -121
q0 -72 29 -118t94 -46q28 0 54 5t49 16l30 143l-102 18l18 85h231zM384 804q0 35 24.5 59t62.5 24q29 0 44 -15t15 -40q0 -35 -25 -59t-63 -24q-28 0 -43 15t-15 40z" />
    <glyph glyph-name="gdotaccent" unicode="&#x121;" horiz-adv-x="548" 
d="M374 368q-14 14 -34 21t-42 7q-35 0 -61 -18t-43 -47t-25.5 -65t-8.5 -72q0 -45 17.5 -73t55.5 -28q23 0 46.5 10t43.5 24zM421 11q-23 -106 -88 -165t-171 -59q-54 0 -92.5 13.5t-66.5 31.5l45 87q23 -15 52.5 -27t70.5 -12q53 0 82.5 31.5t42.5 91.5l8 37h-2
q-21 -19 -49 -33.5t-70 -14.5q-38 0 -66.5 14.5t-47.5 40t-28.5 59.5t-9.5 73q0 60 16.5 117.5t47.5 102t75.5 71.5t99.5 27q47 0 79.5 -19.5t52.5 -39.5h2l25 44h92zM287 625q0 35 24.5 59t62.5 24q29 0 44 -15t15 -40q0 -35 -25 -59t-63 -24q-28 0 -43 15t-15 40z" />
    <glyph glyph-name="uni0122" unicode="&#x122;" horiz-adv-x="631" 
d="M587 358l-66 -318q-48 -24 -108 -39.5t-124 -15.5q-59 0 -102.5 20.5t-72.5 56.5t-43.5 85t-14.5 106q0 84 24.5 163.5t72.5 141.5t119.5 99.5t165.5 37.5q61 0 111 -16.5t82 -34.5l-45 -96q-31 17 -71.5 29t-88.5 12q-63 0 -109 -29t-75.5 -76.5t-43.5 -107.5t-14 -121
q0 -72 29 -118t94 -46q28 0 54 5t49 16l30 143l-102 18l18 85h231zM157 -208l55 156h122l-2 -10l-86 -156h-91z" />
    <glyph glyph-name="uni0123" unicode="&#x123;" horiz-adv-x="548" 
d="M374 368q-14 14 -34 21t-42 7q-35 0 -61 -18t-43 -47t-25.5 -65t-8.5 -72q0 -45 17.5 -73t55.5 -28q23 0 46.5 10t43.5 24zM421 11q-23 -106 -88 -165t-171 -59q-54 0 -92.5 13.5t-66.5 31.5l45 87q23 -15 52.5 -27t70.5 -12q53 0 82.5 31.5t42.5 91.5l8 37h-2
q-21 -19 -49 -33.5t-70 -14.5q-38 0 -66.5 14.5t-47.5 40t-28.5 59.5t-9.5 73q0 60 16.5 117.5t47.5 102t75.5 71.5t99.5 27q47 0 79.5 -19.5t52.5 -39.5h2l25 44h92zM458 713l-56 -156h-121l2 10l86 156h91z" />
    <glyph glyph-name="Hcircumflex" unicode="&#x124;" horiz-adv-x="667" 
d="M460 293h-249l-62 -293h-125l145 680h125l-61 -284h249l60 284h125l-144 -680h-125zM586 760l-2 -10h-97l-39 79l-71 -79h-105l2 10l130 136h110z" />
    <glyph glyph-name="hcircumflex" unicode="&#x125;" horiz-adv-x="542" 
d="M294 0l63 295q11 48 -2 74.5t-51 26.5q-33 0 -56.5 -15.5t-40.5 -32.5l-75 -348h-123l149 700h123l-55 -257h2q22 18 53.5 36t73.5 18q81 0 114 -50.5t13 -144.5l-65 -302h-123zM529 760l-2 -10h-97l-39 79l-71 -79h-105l2 10l130 136h110z" />
    <glyph glyph-name="Hbar" unicode="&#x126;" horiz-adv-x="669" 
d="M630 495l-105 -495h-125l62 293h-249l-62 -293h-125l105 495h-46l22 103h46l18 82h125l-18 -82h249l17 82h125l-17 -82h47l-22 -103h-47zM484 396l21 99h-249l-21 -99h249z" />
    <glyph glyph-name="hbar" unicode="&#x127;" horiz-adv-x="542" 
d="M294 0l63 295q11 48 -2 74.5t-51 26.5q-33 0 -56.5 -15.5t-40.5 -32.5l-75 -348h-123l116 545h-42l19 93h43l13 62h123l-13 -62h91l-20 -93h-91l-22 -102h2q22 18 53.5 36t73.5 18q81 0 114 -50.5t13 -144.5l-65 -302h-123z" />
    <glyph glyph-name="Itilde" unicode="&#x128;" horiz-adv-x="293" 
d="M149 0h-125l145 680h125zM103 831q20 28 46.5 47t57.5 19q20 0 35 -7t28.5 -15.5t27.5 -15.5t32 -7q15 0 36 9.5t35 24.5l14 -68q-23 -32 -49.5 -49.5t-52.5 -17.5q-20 0 -36 7t-31 15.5t-29 15.5t-30 7q-18 0 -36.5 -9t-33.5 -26z" />
    <glyph glyph-name="itilde" unicode="&#x129;" horiz-adv-x="261" 
d="M49 647q20 28 46.5 47t57.5 19q20 0 35 -7t28.5 -15.5t27.5 -15.5t32 -7q15 0 36 9.5t35 24.5l14 -68q-23 -32 -49.5 -49.5t-52.5 -17.5q-20 0 -36 7t-31 15.5t-29 15.5t-30 7q-18 0 -36.5 -9t-33.5 -26zM10 0l102 482h123l-102 -482h-123z" />
    <glyph glyph-name="Imacron" unicode="&#x12a;" horiz-adv-x="293" 
d="M149 0h-125l145 680h125zM116 759l22 103h257l-22 -103h-257z" />
    <glyph glyph-name="imacron" unicode="&#x12b;" horiz-adv-x="261" 
d="M65 579l22 103h257l-22 -103h-257zM10 0l102 482h123l-102 -482h-123z" />
    <glyph glyph-name="Ibreve" unicode="&#x12c;" horiz-adv-x="293" 
d="M149 0h-125l145 680h125zM263 857q38 0 68 9.5t58 24.5l17 -78q-28 -23 -69.5 -43t-92.5 -20q-24 0 -44 6.5t-36 17t-28.5 22.5t-21.5 24l40 71q21 -15 47.5 -24.5t61.5 -9.5z" />
    <glyph glyph-name="ibreve" unicode="&#x12d;" horiz-adv-x="261" 
d="M209 674q38 0 68.5 9.5t57.5 24.5l17 -78q-28 -23 -69.5 -43t-91.5 -20q-24 0 -44.5 6.5t-36.5 17t-28.5 22.5t-21.5 24l41 71q20 -15 46.5 -24.5t61.5 -9.5zM10 0l102 482h123l-102 -482h-123z" />
    <glyph glyph-name="Iogonek" unicode="&#x12e;" horiz-adv-x="293" 
d="M29 -213q-44 0 -68 24.5t-24 62.5q0 23 7 41.5t19 33.5t27.5 27.5t33.5 23.5l145 680h125l-145 -680q-28 -7 -48.5 -18.5t-34 -25t-20.5 -28t-7 -27.5q0 -15 7.5 -21t21.5 -6t28 5.5t23 12.5l-2 -80q-16 -10 -42 -17.5t-46 -7.5z" />
    <glyph glyph-name="iogonek" unicode="&#x12f;" horiz-adv-x="262" 
d="M13 -213q-44 0 -68 24.5t-24 62.5q0 23 7.5 41.5t19.5 33.5t28 28t33 24l103 481h123l-103 -482q-27 -7 -47.5 -18.5t-34 -25t-20.5 -28t-7 -27.5q0 -15 7.5 -21t21.5 -6t28 5.5t23 12.5l-2 -80q-16 -10 -42 -17.5t-46 -7.5zM134 625q0 35 25 59t63 24q28 0 43.5 -15
t15.5 -40q0 -35 -25.5 -59t-63.5 -24q-27 0 -42.5 15t-15.5 40z" />
    <glyph glyph-name="Idotaccent" unicode="&#x130;" horiz-adv-x="293" 
d="M149 0h-125l145 680h125zM186 804q0 35 24.5 59t62.5 24q29 0 44 -15t15 -40q0 -35 -25 -59t-63 -24q-28 0 -43 15t-15 40z" />
    <glyph glyph-name="dotlessi" unicode="&#x131;" horiz-adv-x="262" 
d="M10 0l102 482h123l-102 -482h-123z" />
    <glyph glyph-name="IJ" unicode="&#x132;" horiz-adv-x="742" 
d="M149 0h-125l145 680h125zM335 143q16 -20 35 -36t55 -16q41 0 63.5 31.5t33.5 85.5l100 472h125l-104 -490q-23 -105 -81.5 -155t-151.5 -50q-52 0 -90.5 22t-59.5 49z" />
    <glyph glyph-name="ij" unicode="&#x133;" horiz-adv-x="525" 
d="M10 0l102 482h123l-102 -482h-123zM135 625q0 35 24.5 59t62.5 24q29 0 44 -15t15 -40q0 -35 -25 -59t-63 -24q-28 0 -43 15t-15 40zM498 482l-113 -531q-18 -86 -65.5 -125t-116.5 -39q-14 0 -34.5 2t-34.5 5l20 93q11 -3 22 -5t22 -2q26 0 40.5 17.5t22.5 52.5l113 532
h124zM397 625q0 35 24.5 59t62.5 24q28 0 43.5 -15t15.5 -40q0 -36 -25 -59.5t-63 -23.5q-27 0 -42.5 15t-15.5 40z" />
    <glyph glyph-name="Jcircumflex" unicode="&#x134;" horiz-adv-x="449" 
d="M42 143q16 -20 35 -36t55 -16q41 0 63.5 31.5t33.5 85.5l100 472h125l-104 -490q-23 -105 -81.5 -155t-151.5 -50q-52 0 -90.5 22t-59.5 49zM569 760l-2 -10h-97l-39 79l-71 -79h-105l2 10l130 136h110z" />
    <glyph glyph-name="jcircumflex" unicode="&#x135;" horiz-adv-x="261" 
d="M236 482l-113 -531q-18 -86 -65.5 -125t-116.5 -39q-14 0 -34.5 2t-34.5 5l20 93q11 -3 22 -5t22 -2q26 0 40.5 17.5t22.5 52.5l113 532h124zM339 577l-2 -10h-97l-29 79l-62 -79h-105l2 10l109 136h133z" />
    <glyph glyph-name="uni0136" unicode="&#x136;" horiz-adv-x="589" 
d="M214 306l-65 -306h-125l145 680h125l-71 -330h2l278 330h147l-2 -10l-307 -349l178 -311l-2 -10h-138l-163 306h-2zM110 -208l55 156h122l-2 -10l-86 -156h-91z" />
    <glyph glyph-name="uni0137" unicode="&#x137;" horiz-adv-x="496" 
d="M180 224l-48 -224h-123l149 700h123l-93 -435h2l185 217h141l-2 -9l-210 -237l119 -226l-2 -10h-132l-107 224h-2zM69 -208l55 156h122l-2 -10l-86 -156h-91z" />
    <glyph glyph-name="kgreenlandic" unicode="&#x138;" horiz-adv-x="497" 
d="M180 221l-47 -221h-123l102 482h123l-46 -220h2l184 220h142l-2 -9l-214 -239l123 -224l-2 -10h-133l-107 221h-2z" />
    <glyph glyph-name="Lacute" unicode="&#x139;" horiz-adv-x="491" 
d="M294 680l-122 -572h257l-23 -108h-382l145 680h125zM415 887l-112 -137h-119l2 10l91 136h140z" />
    <glyph glyph-name="lacute" unicode="&#x13a;" horiz-adv-x="261" 
d="M9 0l149 700h123l-149 -700h-123zM396 887l-112 -137h-119l2 10l91 136h140z" />
    <glyph glyph-name="uni013B" unicode="&#x13b;" horiz-adv-x="491" 
d="M294 680l-122 -572h257l-23 -108h-382l145 680h125zM91 -208l55 156h122l-2 -10l-86 -156h-91z" />
    <glyph glyph-name="uni013C" unicode="&#x13c;" horiz-adv-x="261" 
d="M9 0l149 700h123l-149 -700h-123zM-61 -208l55 156h122l-2 -10l-86 -156h-91z" />
    <glyph glyph-name="Lcaron" unicode="&#x13d;" horiz-adv-x="491" 
d="M294 680l-122 -572h257l-23 -108h-382l145 680h125zM329 524l55 156h126l-2 -10l-86 -156h-95z" />
    <glyph glyph-name="lcaron" unicode="&#x13e;" horiz-adv-x="261" 
d="M9 0l149 700h123l-149 -700h-123zM280 524l55 156h126l-2 -10l-86 -156h-95z" />
    <glyph glyph-name="Ldot" unicode="&#x13f;" horiz-adv-x="493" 
d="M294 680l-122 -572h257l-23 -108h-382l145 680h125zM309 340q0 21 7.5 39t21 31.5t31.5 21.5t38 8q31 0 48 -18.5t17 -47.5q0 -42 -29 -70.5t-71 -28.5q-30 0 -46.5 18t-16.5 47z" />
    <glyph glyph-name="ldot" unicode="&#x140;" horiz-adv-x="359" 
d="M9 0l149 700h123l-149 -700h-123zM244 340q0 21 7.5 39t21 31.5t31.5 21.5t38 8q31 0 48 -18.5t17 -47.5q0 -42 -29 -70.5t-71 -28.5q-30 0 -46.5 18t-16.5 47z" />
    <glyph glyph-name="Lslash" unicode="&#x141;" horiz-adv-x="504" 
d="M308 680l-54 -251l107 54h8l-23 -109l-116 -59l-44 -207h258l-23 -108h-383l53 246l-69 -35h-9l23 109l79 40l68 320h125z" />
    <glyph glyph-name="lslash" unicode="&#x142;" horiz-adv-x="322" 
d="M32 0l51 238l-59 -29h-9l23 109l69 34l74 348h123l-59 -279l78 40h9l-23 -109l-88 -45l-66 -307h-123z" />
    <glyph glyph-name="Nacute" unicode="&#x143;" horiz-adv-x="681" 
d="M465 167l10 132l81 381h125l-144 -680h-128l-166 512h-3l-10 -132l-81 -380h-125l145 680h128l165 -513h3zM603 887l-112 -137h-119l2 10l91 136h140z" />
    <glyph glyph-name="nacute" unicode="&#x144;" horiz-adv-x="543" 
d="M212 482l6 -46h2q11 10 24.5 20.5t30.5 19.5t37.5 15t44.5 6q79 0 112 -50.5t13 -146.5l-64 -300h-123l63 295q11 49 -2 75t-51 26q-32 0 -57 -15.5t-41 -32.5l-74 -348h-123l102 482h100zM511 704l-121 -137h-110l2 10l99 136h132z" />
    <glyph glyph-name="uni0145" unicode="&#x145;" horiz-adv-x="681" 
d="M465 167l10 132l81 381h125l-144 -680h-128l-166 512h-3l-10 -132l-81 -380h-125l145 680h128l165 -513h3zM148 -208l55 156h122l-2 -10l-86 -156h-91z" />
    <glyph glyph-name="uni0146" unicode="&#x146;" horiz-adv-x="543" 
d="M212 482l6 -46h2q11 10 24.5 20.5t30.5 19.5t37.5 15t44.5 6q79 0 112 -50.5t13 -146.5l-64 -300h-123l63 295q11 49 -2 75t-51 26q-32 0 -57 -15.5t-41 -32.5l-74 -348h-123l102 482h100zM84 -208l55 156h122l-2 -10l-86 -156h-91z" />
    <glyph glyph-name="Ncaron" unicode="&#x147;" horiz-adv-x="681" 
d="M465 167l10 132l81 381h125l-144 -680h-128l-166 512h-3l-10 -132l-81 -380h-125l145 680h128l165 -513h3zM312 886l2 10h97l39 -79l71 79h105l-2 -10l-130 -136h-110z" />
    <glyph glyph-name="ncaron" unicode="&#x148;" horiz-adv-x="543" 
d="M212 482l6 -46h2q11 10 24.5 20.5t30.5 19.5t37.5 15t44.5 6q79 0 112 -50.5t13 -146.5l-64 -300h-123l63 295q11 49 -2 75t-51 26q-32 0 -57 -15.5t-41 -32.5l-74 -348h-123l102 482h100zM220 703l2 10h97l29 -79l63 79h104l-2 -10l-109 -136h-133z" />
    <glyph glyph-name="napostrophe" unicode="&#x149;" horiz-adv-x="542" 
d="M212 482l6 -46h2q11 10 24.5 20.5t30.5 19.5t37.5 15t44.5 6q79 0 112 -50.5t13 -146.5l-64 -300h-123l63 295q11 49 -2 75t-51 26q-32 0 -57 -15.5t-41 -32.5l-74 -348h-123l102 482h100zM21 524l55 156h126l-2 -10l-86 -156h-95z" />
    <glyph glyph-name="Eng" unicode="&#x14a;" horiz-adv-x="681" 
d="M528 -43q-20 -91 -66 -130.5t-115 -39.5q-14 0 -35.5 2t-35.5 5l20 93q11 -4 25 -5.5t25 -1.5q41 0 56 70l11 53l-167 513h-3l-13 -136l-81 -380h-125l145 680h132l159 -514h3l12 133l81 381h126z" />
    <glyph glyph-name="eng" unicode="&#x14b;" horiz-adv-x="543" 
d="M212 482l6 -46h2q11 9 24.5 19.5t30 20t37 15.5t45.5 6q78 0 112 -50t14 -144l-74 -346q-20 -91 -66 -130.5t-115 -39.5q-14 0 -35.5 2t-35.5 5l20 93q11 -4 26 -5.5t26 -1.5q41 0 56 70l73 345q11 49 -2 75t-51 26q-29 0 -54.5 -14.5t-42.5 -31.5l-75 -350h-123l102 482
h100z" />
    <glyph glyph-name="Omacron" unicode="&#x14c;" horiz-adv-x="696" 
d="M186 257q0 -35 7 -65.5t21.5 -53t37.5 -35t55 -12.5q62 0 105 32.5t70 82t39 107.5t12 110q0 35 -6.5 65t-21 52.5t-37 35.5t-55.5 13q-61 0 -104 -32t-70.5 -80.5t-40 -107t-12.5 -112.5zM663 430q0 -84 -23 -164t-69 -142.5t-115 -100.5t-161 -38q-62 0 -107 20.5
t-74 56.5t-43 84.5t-14 103.5q0 84 23 164t69 142.5t115 100.5t162 38q61 0 106 -20.5t74 -56.5t43 -84.5t14 -103.5zM322 759l22 103h257l-22 -103h-257z" />
    <glyph glyph-name="omacron" unicode="&#x14d;" horiz-adv-x="547" 
d="M158 191q0 -49 18.5 -77t54.5 -28q32 0 58 16.5t44 44t28 65t10 79.5q0 49 -18.5 77t-55.5 28q-32 0 -57.5 -16.5t-43.5 -44t-28 -65t-10 -79.5zM499 297q0 -62 -19 -118.5t-55 -99.5t-87.5 -68.5t-117.5 -25.5q-47 0 -82 15.5t-59 43t-36 64t-12 78.5q0 63 19.5 119.5
t56 99t88 67.5t114.5 25q48 0 83.5 -15.5t59 -42.5t35.5 -63.5t12 -78.5zM207 579l22 103h257l-22 -103h-257z" />
    <glyph glyph-name="Obreve" unicode="&#x14e;" horiz-adv-x="696" 
d="M186 257q0 -35 7 -65.5t21.5 -53t37.5 -35t55 -12.5q62 0 105 32.5t70 82t39 107.5t12 110q0 35 -6.5 65t-21 52.5t-37 35.5t-55.5 13q-61 0 -104 -32t-70.5 -80.5t-40 -107t-12.5 -112.5zM663 430q0 -84 -23 -164t-69 -142.5t-115 -100.5t-161 -38q-62 0 -107 20.5
t-74 56.5t-43 84.5t-14 103.5q0 84 23 164t69 142.5t115 100.5t162 38q61 0 106 -20.5t74 -56.5t43 -84.5t14 -103.5zM468 857q38 0 68 9.5t58 24.5l17 -78q-28 -23 -69.5 -43t-92.5 -20q-24 0 -44 6.5t-36 17t-28.5 22.5t-21.5 24l40 71q21 -15 47.5 -24.5t61.5 -9.5z" />
    <glyph glyph-name="obreve" unicode="&#x14f;" horiz-adv-x="547" 
d="M158 191q0 -49 18.5 -77t54.5 -28q32 0 58 16.5t44 44t28 65t10 79.5q0 49 -18.5 77t-55.5 28q-32 0 -57.5 -16.5t-43.5 -44t-28 -65t-10 -79.5zM499 297q0 -62 -19 -118.5t-55 -99.5t-87.5 -68.5t-117.5 -25.5q-47 0 -82 15.5t-59 43t-36 64t-12 78.5q0 63 19.5 119.5
t56 99t88 67.5t114.5 25q48 0 83.5 -15.5t59 -42.5t35.5 -63.5t12 -78.5zM350 674q38 0 68.5 9.5t57.5 24.5l17 -78q-28 -23 -69.5 -43t-91.5 -20q-24 0 -44.5 6.5t-36.5 17t-28.5 22.5t-21.5 24l41 71q20 -15 46.5 -24.5t61.5 -9.5z" />
    <glyph glyph-name="Ohungarumlaut" unicode="&#x150;" horiz-adv-x="696" 
d="M186 257q0 -35 7 -65.5t21.5 -53t37.5 -35t55 -12.5q62 0 105 32.5t70 82t39 107.5t12 110q0 35 -6.5 65t-21 52.5t-37 35.5t-55.5 13q-61 0 -104 -32t-70.5 -80.5t-40 -107t-12.5 -112.5zM663 430q0 -84 -23 -164t-69 -142.5t-115 -100.5t-161 -38q-62 0 -107 20.5
t-74 56.5t-43 84.5t-14 103.5q0 84 23 164t69 142.5t115 100.5t162 38q61 0 106 -20.5t74 -56.5t43 -84.5t14 -103.5zM537 886l-120 -136h-110l2 10l99 136h131zM724 886l-120 -136h-110l2 10l100 136h130z" />
    <glyph glyph-name="ohungarumlaut" unicode="&#x151;" horiz-adv-x="547" 
d="M158 191q0 -49 18.5 -77t54.5 -28q32 0 58 16.5t44 44t28 65t10 79.5q0 49 -18.5 77t-55.5 28q-32 0 -57.5 -16.5t-43.5 -44t-28 -65t-10 -79.5zM499 297q0 -62 -19 -118.5t-55 -99.5t-87.5 -68.5t-117.5 -25.5q-47 0 -82 15.5t-59 43t-36 64t-12 78.5q0 63 19.5 119.5
t56 99t88 67.5t114.5 25q48 0 83.5 -15.5t59 -42.5t35.5 -63.5t12 -78.5zM412 704l-120 -137h-110l2 10l99 136h131zM599 704l-120 -137h-110l2 10l100 136h130z" />
    <glyph glyph-name="OE" unicode="&#x152;" horiz-adv-x="904" 
d="M426 695q27 0 56 -3.5t50 -11.5h399l-22 -103h-277l-39 -181h249l-21 -103h-250l-40 -190h281l-22 -103h-404q-24 -7 -47 -11t-44 -4q-62 0 -107 20.5t-74 56.5t-43 84.5t-14 104.5q0 84 23 163.5t69 142t115 100.5t162 38zM307 91q61 0 101 23l96 452q-32 23 -91 23
q-61 0 -104 -32t-70.5 -81t-40 -107t-12.5 -110q0 -35 6.5 -65.5t21 -53.5t37.5 -36t56 -13z" />
    <glyph glyph-name="oe" unicode="&#x153;" horiz-adv-x="838" 
d="M482 206q-8 -54 14 -88.5t69 -34.5q38 0 72 10.5t68 25.5l21 -91q-36 -17 -85 -30t-97 -13q-53 0 -87 20t-54 54q-33 -35 -79 -54.5t-104 -19.5q-47 0 -82 15.5t-59 43t-36 64t-12 78.5q0 63 19.5 119.5t56 99t88 67.5t114.5 25q55 0 91.5 -20t57.5 -55q32 35 74 55
t95 20q45 0 77 -13.5t53 -36t31 -52.5t10 -63q0 -34 -9.5 -69t-20.5 -57h-286zM158 191q0 -49 18.5 -77t54.5 -28q32 0 58 16.5t44 44t28 65t10 79.5q0 49 -18.5 77t-55.5 28q-32 0 -57.5 -16.5t-43.5 -44t-28 -65t-10 -79.5zM679 286q2 4 5 16.5t3 30.5q0 31 -15 53t-53 22
q-22 0 -41 -10.5t-34.5 -27.5t-27 -39t-17.5 -45h180z" />
    <glyph glyph-name="Racute" unicode="&#x154;" horiz-adv-x="611" 
d="M24 0l145 680h244q89 0 135.5 -42t46.5 -114q0 -89 -43 -153.5t-135 -87.5l106 -267l-4 -16h-126l-99 274h-87l-58 -274h-125zM352 377q27 0 48 10.5t35.5 27.5t21.5 40t7 49q0 32 -17 52.5t-52 20.5h-123l-43 -200h123zM554 887l-112 -137h-119l2 10l91 136h140z" />
    <glyph glyph-name="racute" unicode="&#x155;" horiz-adv-x="352" 
d="M213 482l5 -57h2q9 12 19.5 25t24 23.5t30 17t37.5 6.5q12 0 22.5 -2t18.5 -4l-22 -103q-11 2 -22.5 3t-19.5 1q-36 0 -62 -18t-40 -36l-73 -338h-123l102 482h101zM416 704l-121 -137h-110l2 10l99 136h132z" />
    <glyph glyph-name="uni0156" unicode="&#x156;" horiz-adv-x="611" 
d="M24 0l145 680h244q89 0 135.5 -42t46.5 -114q0 -89 -43 -153.5t-135 -87.5l106 -267l-4 -16h-126l-99 274h-87l-58 -274h-125zM352 377q27 0 48 10.5t35.5 27.5t21.5 40t7 49q0 32 -17 52.5t-52 20.5h-123l-43 -200h123zM114 -208l55 156h122l-2 -10l-86 -156h-91z" />
    <glyph glyph-name="uni0157" unicode="&#x157;" horiz-adv-x="352" 
d="M213 482l5 -57h2q9 12 19.5 25t24 23.5t30 17t37.5 6.5q12 0 22.5 -2t18.5 -4l-22 -103q-11 2 -22.5 3t-19.5 1q-36 0 -62 -18t-40 -36l-73 -338h-123l102 482h101zM-57 -208l55 156h122l-2 -10l-86 -156h-91z" />
    <glyph glyph-name="Rcaron" unicode="&#x158;" horiz-adv-x="611" 
d="M24 0l145 680h244q89 0 135.5 -42t46.5 -114q0 -89 -43 -153.5t-135 -87.5l106 -267l-4 -16h-126l-99 274h-87l-58 -274h-125zM352 377q27 0 48 10.5t35.5 27.5t21.5 40t7 49q0 32 -17 52.5t-52 20.5h-123l-43 -200h123zM264 886l2 10h97l39 -79l71 79h105l-2 -10
l-130 -136h-110z" />
    <glyph glyph-name="rcaron" unicode="&#x159;" horiz-adv-x="352" 
d="M213 482l5 -57h2q9 12 19.5 25t24 23.5t30 17t37.5 6.5q12 0 22.5 -2t18.5 -4l-22 -103q-11 2 -22.5 3t-19.5 1q-36 0 -62 -18t-40 -36l-73 -338h-123l102 482h101zM139 703l2 10h97l29 -79l63 79h104l-2 -10l-109 -136h-133z" />
    <glyph glyph-name="Sacute" unicode="&#x15a;" horiz-adv-x="518" 
d="M54 147q27 -23 67 -39.5t87 -16.5q54 0 87.5 27.5t33.5 73.5q0 25 -15 48t-51 43l-60 33q-51 28 -79.5 69.5t-28.5 92.5q0 49 18 89t51.5 68.5t82 44t110.5 15.5q43 0 85 -13t75 -33l-50 -97q-29 17 -62 27t-60 10q-59 0 -88.5 -28.5t-29.5 -70.5q0 -23 10 -42t36 -33
l63 -35q53 -29 89 -72.5t36 -101.5q0 -48 -19.5 -89t-54.5 -70t-83 -45.5t-106 -16.5q-65 0 -112 19.5t-82 46.5zM533 887l-112 -137h-119l2 10l91 136h140z" />
    <glyph glyph-name="sacute" unicode="&#x15b;" horiz-adv-x="438" 
d="M40 121q28 -18 61 -29t68 -11q41 0 59.5 15t18.5 41q0 18 -12.5 30.5t-34.5 21.5l-53 23q-17 7 -33 18t-28.5 26t-20.5 34t-8 43q0 79 52 121.5t153 42.5q38 0 78 -9t74 -26l-41 -89q-26 13 -56 20.5t-62 7.5q-75 0 -75 -53q0 -32 43 -50l53 -23q38 -17 66 -47t28 -75
q0 -85 -54.5 -126.5t-152.5 -41.5q-48 0 -91.5 12t-76.5 34zM447 704l-121 -137h-110l2 10l99 136h132z" />
    <glyph glyph-name="Scircumflex" unicode="&#x15c;" horiz-adv-x="518" 
d="M54 147q27 -23 67 -39.5t87 -16.5q54 0 87.5 27.5t33.5 73.5q0 25 -15 48t-51 43l-60 33q-51 28 -79.5 69.5t-28.5 92.5q0 49 18 89t51.5 68.5t82 44t110.5 15.5q43 0 85 -13t75 -33l-50 -97q-29 17 -62 27t-60 10q-59 0 -88.5 -28.5t-29.5 -70.5q0 -23 10 -42t36 -33
l63 -35q53 -29 89 -72.5t36 -101.5q0 -48 -19.5 -89t-54.5 -70t-83 -45.5t-106 -16.5q-65 0 -112 19.5t-82 46.5zM516 760l-2 -10h-97l-39 79l-71 -79h-105l2 10l130 136h110z" />
    <glyph glyph-name="scircumflex" unicode="&#x15d;" horiz-adv-x="438" 
d="M40 121q28 -18 61 -29t68 -11q41 0 59.5 15t18.5 41q0 18 -12.5 30.5t-34.5 21.5l-53 23q-17 7 -33 18t-28.5 26t-20.5 34t-8 43q0 79 52 121.5t153 42.5q38 0 78 -9t74 -26l-41 -89q-26 13 -56 20.5t-62 7.5q-75 0 -75 -53q0 -32 43 -50l53 -23q38 -17 66 -47t28 -75
q0 -85 -54.5 -126.5t-152.5 -41.5q-48 0 -91.5 12t-76.5 34zM428 577l-2 -10h-97l-29 79l-62 -79h-105l2 10l109 136h133z" />
    <glyph glyph-name="Scedilla" unicode="&#x15e;" horiz-adv-x="518" 
d="M112 -88l42 76q-48 6 -84.5 23t-65.5 40l50 96q27 -23 67 -39.5t87 -16.5q54 0 87.5 27.5t33.5 73.5q0 25 -15 48t-51 43l-60 33q-51 28 -79.5 69.5t-28.5 92.5q0 49 18 89t51.5 68.5t82 44t110.5 15.5q43 0 85 -13t75 -33l-50 -97q-29 17 -62 27t-60 10
q-59 0 -88.5 -28.5t-29.5 -70.5q0 -23 10 -42t36 -33l63 -35q53 -29 89 -72.5t36 -101.5q0 -46 -17.5 -84.5t-48.5 -67.5t-75 -46.5t-96 -21.5l-19 -31q23 -5 35 -21t12 -39q0 -45 -30.5 -76.5t-90.5 -31.5q-20 0 -36 3.5t-27 8.5l20 63q19 -8 36 -8q36 0 36 30
q0 16 -15.5 19t-30.5 3z" />
    <glyph glyph-name="scedilla" unicode="&#x15f;" horiz-adv-x="438" 
d="M78 -88l42 76q-36 5 -67.5 15.5t-57.5 27.5l45 90q28 -18 61 -29t68 -11q41 0 59.5 15t18.5 41q0 18 -12.5 30.5t-34.5 21.5l-53 23q-17 7 -33 18t-28.5 26t-20.5 34t-8 43q0 79 52 121.5t153 42.5q38 0 78 -9t74 -26l-41 -89q-26 13 -56 20.5t-62 7.5q-75 0 -75 -53
q0 -32 43 -50l53 -23q38 -17 66 -47t28 -75q0 -79 -47.5 -120t-132.5 -47l-19 -31q23 -5 35 -21t12 -39q0 -45 -30.5 -76.5t-90.5 -31.5q-20 0 -36 3.5t-27 8.5l20 63q19 -8 36 -8q36 0 36 30q0 16 -15.5 19t-30.5 3z" />
    <glyph glyph-name="Scaron" unicode="&#x160;" horiz-adv-x="518" 
d="M54 147q27 -23 67 -39.5t87 -16.5q54 0 87.5 27.5t33.5 73.5q0 25 -15 48t-51 43l-60 33q-51 28 -79.5 69.5t-28.5 92.5q0 49 18 89t51.5 68.5t82 44t110.5 15.5q43 0 85 -13t75 -33l-50 -97q-29 17 -62 27t-60 10q-59 0 -88.5 -28.5t-29.5 -70.5q0 -23 10 -42t36 -33
l63 -35q53 -29 89 -72.5t36 -101.5q0 -48 -19.5 -89t-54.5 -70t-83 -45.5t-106 -16.5q-65 0 -112 19.5t-82 46.5zM235 886l2 10h97l39 -79l71 79h105l-2 -10l-130 -136h-110z" />
    <glyph glyph-name="scaron" unicode="&#x161;" horiz-adv-x="438" 
d="M40 121q28 -18 61 -29t68 -11q41 0 59.5 15t18.5 41q0 18 -12.5 30.5t-34.5 21.5l-53 23q-17 7 -33 18t-28.5 26t-20.5 34t-8 43q0 79 52 121.5t153 42.5q38 0 78 -9t74 -26l-41 -89q-26 13 -56 20.5t-62 7.5q-75 0 -75 -53q0 -32 43 -50l53 -23q38 -17 66 -47t28 -75
q0 -85 -54.5 -126.5t-152.5 -41.5q-48 0 -91.5 12t-76.5 34zM165 703l2 10h97l29 -79l63 79h104l-2 -10l-109 -136h-133z" />
    <glyph glyph-name="uni0162" unicode="&#x162;" horiz-adv-x="516" 
d="M111 -88l49 88h-25l123 577h-169l22 103h463l-22 -103h-169l-123 -577h-29l-27 -45q23 -5 35 -21t12 -39q0 -45 -30.5 -76.5t-90.5 -31.5q-20 0 -36 3.5t-27 8.5l20 63q19 -8 36 -8q36 0 36 30q0 16 -15.5 19t-30.5 3z" />
    <glyph glyph-name="uni0163" unicode="&#x163;" horiz-adv-x="373" 
d="M70 -88l47 85q-35 14 -48 46.5t-1 87.5l54 255h-77l14 68l83 28l24 112h123l-24 -112h123l-21 -96h-122l-52 -245q-12 -55 39 -55q14 0 34.5 4t36.5 9l-21 -99q-15 -4 -38.5 -9.5t-55.5 -5.5h-7l-18 -30q23 -5 35 -21t12 -39q0 -45 -30.5 -76.5t-90.5 -31.5
q-20 0 -36 3.5t-27 8.5l20 63q19 -8 36 -8q36 0 36 30q0 16 -15.5 19t-30.5 3z" />
    <glyph glyph-name="Tcaron" unicode="&#x164;" horiz-adv-x="516" 
d="M574 680l-22 -103h-169l-123 -577h-125l123 577h-169l22 103h463zM232 886l2 10h97l39 -79l71 79h105l-2 -10l-130 -136h-110z" />
    <glyph glyph-name="tcaron" unicode="&#x165;" horiz-adv-x="373" 
d="M289 594l-24 -112h119l-21 -96h-118l-52 -245q-12 -55 39 -55q14 0 35.5 4t38.5 10l-21 -99q-17 -5 -41 -10.5t-56 -5.5q-73 0 -105 34.5t-15 111.5l54 255h-77l14 68l83 28l24 112h123zM338 524l55 156h126l-2 -10l-86 -156h-95z" />
    <glyph glyph-name="Tbar" unicode="&#x166;" horiz-adv-x="516" 
d="M574 680l-22 -103h-169l-35 -163h101l-20 -96h-101l-68 -318h-125l68 318h-101l20 96h101l35 163h-169l22 103h463z" />
    <glyph glyph-name="tbar" unicode="&#x167;" horiz-adv-x="373" 
d="M289 594l-24 -112h123l-21 -96h-122l-17 -79h77l-20 -93h-77l-15 -73q-12 -55 39 -55q14 0 34.5 4t36.5 9l-21 -99q-15 -4 -38.5 -9.5t-55.5 -5.5q-73 0 -105 34.5t-15 111.5l17 83h-57l20 93h57l17 79h-77l14 68l83 28l24 112h123z" />
    <glyph glyph-name="Utilde" unicode="&#x168;" horiz-adv-x="655" 
d="M287 680l-87 -410q-8 -39 -8.5 -72t9 -56.5t30.5 -37t56 -13.5q34 0 60 13.5t46 37t33.5 56.5t21.5 72l87 410h126l-89 -422q-14 -65 -37 -115.5t-58.5 -85.5t-85.5 -53.5t-117 -18.5q-130 0 -179 75t-18 221l85 399h125zM280 831q20 28 46.5 47t57.5 19q20 0 35 -7
t28.5 -15.5t27.5 -15.5t32 -7q15 0 36 9.5t35 24.5l14 -68q-23 -32 -49.5 -49.5t-52.5 -17.5q-20 0 -36 7t-31 15.5t-29 15.5t-30 7q-18 0 -36.5 -9t-33.5 -26z" />
    <glyph glyph-name="utilde" unicode="&#x169;" horiz-adv-x="537" 
d="M230 482l-63 -295q-11 -49 0.5 -75t48.5 -26q31 0 55 15.5t41 30.5l75 350h123l-102 -482h-101l-7 46h-1q-10 -9 -23 -19.5t-29.5 -19.5t-36.5 -15.5t-44 -6.5q-81 0 -112 50.5t-11 146.5l64 300h123zM184 647q20 28 46.5 47t57.5 19q20 0 35 -7t28.5 -15.5t27.5 -15.5
t32 -7q15 0 36 9.5t35 24.5l14 -68q-23 -32 -49.5 -49.5t-52.5 -17.5q-20 0 -36 7t-31 15.5t-29 15.5t-30 7q-18 0 -36.5 -9t-33.5 -26z" />
    <glyph glyph-name="Umacron" unicode="&#x16a;" horiz-adv-x="655" 
d="M287 680l-87 -410q-8 -39 -8.5 -72t9 -56.5t30.5 -37t56 -13.5q34 0 60 13.5t46 37t33.5 56.5t21.5 72l87 410h126l-89 -422q-14 -65 -37 -115.5t-58.5 -85.5t-85.5 -53.5t-117 -18.5q-130 0 -179 75t-18 221l85 399h125zM296 759l22 103h257l-22 -103h-257z" />
    <glyph glyph-name="umacron" unicode="&#x16b;" horiz-adv-x="537" 
d="M230 482l-63 -295q-11 -49 0.5 -75t48.5 -26q31 0 55 15.5t41 30.5l75 350h123l-102 -482h-101l-7 46h-1q-10 -9 -23 -19.5t-29.5 -19.5t-36.5 -15.5t-44 -6.5q-81 0 -112 50.5t-11 146.5l64 300h123zM202 579l22 103h257l-22 -103h-257z" />
    <glyph glyph-name="Ubreve" unicode="&#x16c;" horiz-adv-x="655" 
d="M287 680l-87 -410q-8 -39 -8.5 -72t9 -56.5t30.5 -37t56 -13.5q34 0 60 13.5t46 37t33.5 56.5t21.5 72l87 410h126l-89 -422q-14 -65 -37 -115.5t-58.5 -85.5t-85.5 -53.5t-117 -18.5q-130 0 -179 75t-18 221l85 399h125zM439 857q38 0 68 9.5t58 24.5l17 -78
q-28 -23 -69.5 -43t-92.5 -20q-24 0 -44 6.5t-36 17t-28.5 22.5t-21.5 24l40 71q21 -15 47.5 -24.5t61.5 -9.5z" />
    <glyph glyph-name="ubreve" unicode="&#x16d;" horiz-adv-x="537" 
d="M230 482l-63 -295q-11 -49 0.5 -75t48.5 -26q31 0 55 15.5t41 30.5l75 350h123l-102 -482h-101l-7 46h-1q-10 -9 -23 -19.5t-29.5 -19.5t-36.5 -15.5t-44 -6.5q-81 0 -112 50.5t-11 146.5l64 300h123zM345 674q38 0 68.5 9.5t57.5 24.5l17 -78q-28 -23 -69.5 -43
t-91.5 -20q-24 0 -44.5 6.5t-36.5 17t-28.5 22.5t-21.5 24l41 71q20 -15 46.5 -24.5t61.5 -9.5z" />
    <glyph glyph-name="Uring" unicode="&#x16e;" horiz-adv-x="655" 
d="M287 680l-87 -410q-8 -39 -8.5 -72t9 -56.5t30.5 -37t56 -13.5q34 0 60 13.5t46 37t33.5 56.5t21.5 72l87 410h126l-89 -422q-14 -65 -37 -115.5t-58.5 -85.5t-85.5 -53.5t-117 -18.5q-130 0 -179 75t-18 221l85 399h125zM403 824q0 -31 30 -31q20 0 33 14t13 36
q0 14 -7.5 22.5t-21.5 8.5q-20 0 -33.5 -14.5t-13.5 -35.5zM329 811q0 30 10 54t27 41t41 26.5t53 9.5q41 0 67 -22.5t26 -65.5q0 -60 -36 -95.5t-94 -35.5q-41 0 -67.5 22.5t-26.5 65.5z" />
    <glyph glyph-name="uring" unicode="&#x16f;" horiz-adv-x="537" 
d="M230 482l-63 -295q-11 -49 0.5 -75t48.5 -26q31 0 55 15.5t41 30.5l75 350h123l-102 -482h-101l-7 46h-1q-10 -9 -23 -19.5t-29.5 -19.5t-36.5 -15.5t-44 -6.5q-81 0 -112 50.5t-11 146.5l64 300h123zM301 634q0 -31 30 -31q20 0 33 14t13 36q0 14 -7.5 22.5t-21.5 8.5
q-20 0 -33.5 -14.5t-13.5 -35.5zM227 621q0 30 10 54t27 41t41 26.5t53 9.5q41 0 67 -22.5t26 -65.5q0 -60 -36 -95.5t-94 -35.5q-41 0 -67.5 22.5t-26.5 65.5z" />
    <glyph glyph-name="Uhungarumlaut" unicode="&#x170;" horiz-adv-x="655" 
d="M287 680l-87 -410q-8 -39 -8.5 -72t9 -56.5t30.5 -37t56 -13.5q34 0 60 13.5t46 37t33.5 56.5t21.5 72l87 410h126l-89 -422q-14 -65 -37 -115.5t-58.5 -85.5t-85.5 -53.5t-117 -18.5q-130 0 -179 75t-18 221l85 399h125zM501 886l-120 -136h-110l2 10l99 136h131z
M688 886l-120 -136h-110l2 10l100 136h130z" />
    <glyph glyph-name="uhungarumlaut" unicode="&#x171;" horiz-adv-x="537" 
d="M230 482l-63 -295q-11 -49 0.5 -75t48.5 -26q31 0 55 15.5t41 30.5l75 350h123l-102 -482h-101l-7 46h-1q-10 -9 -23 -19.5t-29.5 -19.5t-36.5 -15.5t-44 -6.5q-81 0 -112 50.5t-11 146.5l64 300h123zM405 704l-120 -137h-110l2 10l99 136h131zM592 704l-120 -137h-110
l2 10l100 136h130z" />
    <glyph glyph-name="Uogonek" unicode="&#x172;" horiz-adv-x="655" 
d="M246 -213q-48 0 -71 25.5t-23 60.5q0 40 19.5 68t48.5 48q-100 15 -135.5 88.5t-7.5 203.5l85 399h125l-87 -410q-8 -39 -8.5 -72t9 -56.5t30.5 -37t56 -13.5q34 0 60 13.5t46 37t33.5 56.5t21.5 72l87 410h126l-89 -422q-13 -61 -34.5 -109.5t-54 -83.5t-77 -55
t-103.5 -24q-13 -3 -22 -11t-15 -18.5t-8.5 -22t-2.5 -21.5q0 -23 8 -31t22 -8t28 5.5t24 12.5l-3 -80q-16 -10 -42 -17.5t-46 -7.5z" />
    <glyph glyph-name="uogonek" unicode="&#x173;" horiz-adv-x="537" 
d="M230 482l-63 -295q-11 -49 0.5 -75t48.5 -26q31 0 55 15.5t41 30.5l75 350h123l-102 -482q-17 -6 -34.5 -17t-31 -24.5t-22 -28.5t-8.5 -29q0 -15 7.5 -21t21.5 -6t28 5.5t24 12.5l-2 -80q-17 -10 -43 -17.5t-46 -7.5q-44 0 -68 24.5t-24 62.5q0 24 9 43t23 34.5t31 27.5
t33 23l-6 44h-1q-10 -9 -23 -19.5t-29.5 -19.5t-36.5 -15.5t-44 -6.5q-81 0 -112 50.5t-11 146.5l64 300h123z" />
    <glyph glyph-name="Wcircumflex" unicode="&#x174;" horiz-adv-x="907" 
d="M967 670l-304 -670h-149l-6 400l8 166h-2l-64 -166l-176 -400h-150l-19 670l2 10h130l-8 -395l-6 -169h2l64 169l172 395h147l3 -395l-7 -169h2l65 169l160 395h138zM711 760l-2 -10h-97l-39 79l-71 -79h-105l2 10l130 136h110z" />
    <glyph glyph-name="wcircumflex" unicode="&#x175;" horiz-adv-x="762" 
d="M776 472l-226 -472h-135l-17 285l4 99h-2l-39 -99l-138 -285h-134l-25 472l2 10h113l4 -284l-7 -97h2l40 97l132 284h134l12 -284l-1 -97h2l34 97l123 284h124zM584 577l-2 -10h-97l-29 79l-62 -79h-105l2 10l109 136h133z" />
    <glyph glyph-name="Ycircumflex" unicode="&#x176;" horiz-adv-x="547" 
d="M218 680l72 -292h2l196 292h139l-2 -10l-290 -394l-58 -276h-125l58 276l-123 394l2 10h129zM533 760l-2 -10h-97l-39 79l-71 -79h-105l2 10l130 136h110z" />
    <glyph glyph-name="ycircumflex" unicode="&#x177;" horiz-adv-x="489" 
d="M510 472l-310 -554q-36 -65 -80 -98t-101 -33q-24 0 -48.5 4t-38.5 8l19 90q14 -3 30.5 -6t30.5 -3q29 0 47.5 16.5t38.5 52.5l31 56l-72 467l2 10h120l22 -266l2 -100h3l44 100l131 266h131zM452 577l-2 -10h-97l-29 79l-62 -79h-105l2 10l109 136h133z" />
    <glyph glyph-name="Ydieresis" unicode="&#x178;" horiz-adv-x="547" 
d="M218 680l72 -292h2l196 292h139l-2 -10l-290 -394l-58 -276h-125l58 276l-123 394l2 10h129zM202 804q0 35 24.5 59t62.5 24q29 0 44 -15t15 -40q0 -35 -25 -59t-63 -24q-28 0 -43 15t-15 40zM433 804q0 35 25 59t62 24q29 0 44 -15t15 -40q0 -35 -25 -59t-63 -24
q-27 0 -42.5 15t-15.5 40z" />
    <glyph glyph-name="Zacute" unicode="&#x179;" horiz-adv-x="535" 
d="M571 680l-20 -95l-398 -480v-2h296l-22 -103h-446l20 95l397 480v2h-276l22 103h427zM538 887l-112 -137h-119l2 10l91 136h140z" />
    <glyph glyph-name="zacute" unicode="&#x17a;" horiz-adv-x="436" 
d="M434 482l-15 -68l-270 -319v-2h202l-20 -93h-352l14 68l270 319v2h-188l20 93h339zM442 704l-121 -137h-110l2 10l99 136h132z" />
    <glyph glyph-name="Zdotaccent" unicode="&#x17b;" horiz-adv-x="535" 
d="M571 680l-20 -95l-398 -480v-2h296l-22 -103h-446l20 95l397 480v2h-276l22 103h427zM323 804q0 35 24.5 59t62.5 24q29 0 44 -15t15 -40q0 -35 -25 -59t-63 -24q-28 0 -43 15t-15 40z" />
    <glyph glyph-name="zdotaccent" unicode="&#x17c;" horiz-adv-x="436" 
d="M434 482l-15 -68l-270 -319v-2h202l-20 -93h-352l14 68l270 319v2h-188l20 93h339zM227 625q0 35 24.5 59t62.5 24q29 0 44 -15t15 -40q0 -35 -25 -59t-63 -24q-28 0 -43 15t-15 40z" />
    <glyph glyph-name="Zcaron" unicode="&#x17d;" horiz-adv-x="535" 
d="M571 680l-20 -95l-398 -480v-2h296l-22 -103h-446l20 95l397 480v2h-276l22 103h427zM250 886l2 10h97l39 -79l71 79h105l-2 -10l-130 -136h-110z" />
    <glyph glyph-name="zcaron" unicode="&#x17e;" horiz-adv-x="436" 
d="M434 482l-15 -68l-270 -319v-2h202l-20 -93h-352l14 68l270 319v2h-188l20 93h339zM168 703l2 10h97l29 -79l63 79h104l-2 -10l-109 -136h-133z" />
    <glyph glyph-name="florin" unicode="&#x192;" 
d="M140 288l35 96h78l56 152q31 85 76 122t111 37q19 0 42 -2t37 -5l-23 -93q-11 3 -27.5 5t-28.5 2q-23 0 -38 -19.5t-27 -52.5l-53 -146h97l-37 -96h-96l-127 -342q-32 -84 -75 -121.5t-108 -37.5q-18 0 -41 2t-37 5l23 93q11 -3 26.5 -5t26.5 -2q23 0 37.5 19.5
t26.5 52.5l124 336h-78z" />
    <glyph glyph-name="Aringacute" unicode="&#x1fa;" horiz-adv-x="604" 
d="M286 723q0 30 10 54t27 41t41 26.5t53 9.5q41 0 67 -22.5t26 -65.5q0 -38 -14.5 -65t-35.5 -42l76 -659h-130l-8 149h-238l-73 -149h-137l357 663q-21 23 -21 60zM366 570l-83 -183l-69 -139h170l-11 139l-4 183h-3zM360 736q0 -31 30 -31q20 0 33 14t13 36
q0 14 -7.5 22.5t-21.5 8.5q-20 0 -33.5 -14.5t-13.5 -35.5zM593.492 909.75l-106.695 -102.75h-113.363l1.90527 7.5l86.6904 102h133.369z" />
    <glyph glyph-name="aringacute" unicode="&#x1fb;" horiz-adv-x="554" 
d="M458 -5q-17 -3 -33 -5t-38 -2q-39 0 -56.5 14t-19.5 41h-2q-29 -24 -59 -41t-73 -17q-38 0 -65.5 15t-45.5 41.5t-26.5 61t-8.5 73.5q0 61 16 118.5t46 102.5t73.5 72.5t98.5 27.5q47 0 77 -19.5t50 -38.5h2l25 43h93l-81 -377q-2 -11 -0.5 -14.5t12.5 -3.5h35zM366 368
q-28 28 -72 28q-34 0 -59.5 -18.5t-42 -47.5t-25 -65.5t-8.5 -73.5q0 -45 15.5 -75t53.5 -30q23 0 44 11t41 25zM312.313 626.356q0 -30.4336 29.4629 -30.4336q19.6426 0 32.4102 13.7441t12.7676 35.3428q0 13.7451 -7.36621 22.0898q-7.36523 8.34473 -21.1152 8.34473
q-19.6426 0 -32.9014 -14.2354q-13.2578 -14.2354 -13.2578 -34.8525zM239.637 613.594q0 29.4531 9.82129 53.0146q9.82129 23.5625 26.5166 40.252q16.6963 16.6895 40.2666 26.0166q23.5713 9.32617 52.0527 9.32617q40.2666 0 65.8018 -22.0889
q25.5352 -22.0898 25.5352 -64.3047q0 -58.9053 -35.3564 -93.7578q-35.3564 -34.8516 -92.3193 -34.8516q-40.2666 0 -66.293 22.0889q-26.0254 22.0898 -26.0254 64.3047zM532.705 784.658l-111.133 -102.282h-101.031l1.83789 7.46582l90.9268 101.535h121.236z" />
    <glyph glyph-name="AEacute" unicode="&#x1fc;" horiz-adv-x="856" 
d="M-71 10l498 670h456l-21 -103h-279l-39 -181h250l-22 -103h-249l-41 -190h282l-22 -103h-407l32 149h-199l-107 -149h-134zM460 565l-99 -150l-117 -167h144l35 167l40 150h-3zM830 887l-112 -137h-119l2 10l91 136h140z" />
    <glyph glyph-name="aeacute" unicode="&#x1fd;" horiz-adv-x="782" 
d="M236 211q-51 0 -80 -21.5t-29 -63.5q0 -23 12.5 -34t34.5 -11q20 0 41.5 9t40 26t33 41t20.5 54h-73zM344 73q-17 -17 -37 -32.5t-44 -28t-53.5 -20t-65.5 -7.5q-63 0 -100.5 33t-37.5 90q0 97 63.5 140t172.5 43h85l5 22q6 26 0 42.5t-17.5 25.5t-25.5 12t-24 3
q-40 0 -79.5 -12t-75.5 -26l-22 94q42 17 93 31t102 14q48 0 83 -17.5t51 -49.5q32 32 69.5 49.5t88.5 17.5q44 0 75.5 -13.5t52 -36t30 -52t9.5 -62.5q0 -18 -3 -36t-7.5 -35t-9.5 -31.5t-10 -24.5h-277q-8 -54 11 -88.5t67 -34.5q38 0 71 9t66 23l19 -87
q-35 -17 -80.5 -30t-96.5 -13q-60 0 -93.5 24t-54.5 64zM623 286q3 10 5.5 23.5t2.5 26.5q0 29 -13.5 50.5t-50.5 21.5q-21 0 -39.5 -10.5t-32.5 -27.5t-24.5 -39t-16.5 -45h169zM642 704l-121 -137h-110l2 10l99 136h132z" />
    <glyph glyph-name="Oslashacute" unicode="&#x1fe;" horiz-adv-x="696" 
d="M39 19l57 70q-20 33 -29.5 74t-9.5 87q0 84 23 164t69 142.5t115 100.5t162 38q42 0 75 -9.5t59 -26.5l51 62l67 -51l-58 -71q22 -35 32.5 -78t10.5 -91q0 -84 -23 -164t-69 -142.5t-115 -100.5t-161 -38q-88 0 -144 42l-49 -60zM533 423q0 33 -6 62l-299 -364
q30 -30 79 -30q62 0 105 32.5t70 82t39 107.5t12 110zM186 257q0 -30 4 -53l294 361q-14 11 -31 17.5t-40 6.5q-61 0 -104 -32t-70.5 -80.5t-40 -107t-12.5 -112.5zM627 887l-112 -137h-119l2 10l91 136h140z" />
    <glyph glyph-name="oslashacute" unicode="&#x1ff;" horiz-adv-x="547" 
d="M509 704l-121 -137h-110l2 10l99 136h132zM3 19l53 57q-25 47 -25 110t19.5 119.5t56 99t88 67.5t114.5 25q33 0 60.5 -7.5t48.5 -21.5l47 50l57 -55l-50 -54q27 -48 27 -112q0 -62 -19 -118.5t-55 -99.5t-87.5 -68.5t-117.5 -25.5q-35 0 -63 8.5t-50 24.5l-51 -55z
M371 301l-185 -199q16 -16 45 -16q32 0 58 16.5t44 44t28 65t10 79.5v10zM158 186l181 196q-17 14 -42 14q-32 0 -57.5 -16.5t-43.5 -44t-28 -65t-10 -79.5v-5z" />
    <glyph glyph-name="uni0218" unicode="&#x218;" horiz-adv-x="518" 
d="M54 147q27 -23 67 -39.5t87 -16.5q54 0 87.5 27.5t33.5 73.5q0 25 -15 48t-51 43l-60 33q-51 28 -79.5 69.5t-28.5 92.5q0 49 18 89t51.5 68.5t82 44t110.5 15.5q43 0 85 -13t75 -33l-50 -97q-29 17 -62 27t-60 10q-59 0 -88.5 -28.5t-29.5 -70.5q0 -23 10 -42t36 -33
l63 -35q53 -29 89 -72.5t36 -101.5q0 -48 -19.5 -89t-54.5 -70t-83 -45.5t-106 -16.5q-65 0 -112 19.5t-82 46.5zM78 -208l55 156h122l-2 -10l-86 -156h-91z" />
    <glyph glyph-name="uni0219" unicode="&#x219;" horiz-adv-x="438" 
d="M40 121q28 -18 61 -29t68 -11q41 0 59.5 15t18.5 41q0 18 -12.5 30.5t-34.5 21.5l-53 23q-17 7 -33 18t-28.5 26t-20.5 34t-8 43q0 79 52 121.5t153 42.5q38 0 78 -9t74 -26l-41 -89q-26 13 -56 20.5t-62 7.5q-75 0 -75 -53q0 -32 43 -50l53 -23q38 -17 66 -47t28 -75
q0 -85 -54.5 -126.5t-152.5 -41.5q-48 0 -91.5 12t-76.5 34zM46 -208l55 156h122l-2 -10l-86 -156h-91z" />
    <glyph glyph-name="uni021A" unicode="&#x21a;" horiz-adv-x="516" 
d="M574 680l-22 -103h-169l-123 -577h-125l123 577h-169l22 103h463zM72 -208l55 156h122l-2 -10l-86 -156h-91z" />
    <glyph glyph-name="uni021B" unicode="&#x21b;" horiz-adv-x="373" 
d="M289 594l-24 -112h119l-21 -96h-118l-52 -245q-12 -55 39 -55q14 0 35.5 4t38.5 10l-21 -99q-17 -5 -41 -10.5t-56 -5.5q-73 0 -105 34.5t-15 111.5l54 255h-77l14 68l83 28l24 112h123zM22 -208l55 156h122l-2 -10l-86 -156h-91z" />
    <glyph glyph-name="uni0237" unicode="&#x237;" horiz-adv-x="263" 
d="M236 482l-113 -531q-18 -86 -65.5 -125t-116.5 -39q-14 0 -34.5 2t-34.5 5l20 93q11 -3 22 -5t22 -2q26 0 40.5 17.5t22.5 52.5l113 532h124z" />
    <glyph glyph-name="circumflex" unicode="&#x2c6;" horiz-adv-x="520" 
d="M529 577l-2 -10h-97l-29 79l-62 -79h-105l2 10l109 136h133z" />
    <glyph glyph-name="caron" unicode="&#x2c7;" horiz-adv-x="520" 
d="M263 703l2 10h97l29 -79l63 79h104l-2 -10l-109 -136h-133z" />
    <glyph glyph-name="uni02C9" unicode="&#x2c9;" horiz-adv-x="520" 
d="M255 589l22 103h257l-22 -103h-257z" />
    <glyph glyph-name="breve" unicode="&#x2d8;" horiz-adv-x="520" 
d="M398 674q38 0 68.5 9.5t57.5 24.5l17 -78q-28 -23 -69.5 -43t-91.5 -20q-24 0 -44.5 6.5t-36.5 17t-28.5 22.5t-21.5 24l41 71q20 -15 46.5 -24.5t61.5 -9.5z" />
    <glyph glyph-name="dotaccent" unicode="&#x2d9;" horiz-adv-x="520" 
d="M323 625q0 35 24.5 59t62.5 24q29 0 44 -15t15 -40q0 -35 -25 -59t-63 -24q-28 0 -43 15t-15 40z" />
    <glyph glyph-name="ring" unicode="&#x2da;" horiz-adv-x="521" 
d="M359 634q0 -31 30 -31q20 0 33 14t13 36q0 14 -7.5 22.5t-21.5 8.5q-20 0 -33.5 -14.5t-13.5 -35.5zM285 621q0 30 10 54t27 41t41 26.5t53 9.5q41 0 67 -22.5t26 -65.5q0 -60 -36 -95.5t-94 -35.5q-41 0 -67.5 22.5t-26.5 65.5z" />
    <glyph glyph-name="ogonek" unicode="&#x2db;" horiz-adv-x="520" 
d="M234 -213q-48 0 -71 25.5t-23 60.5q0 33 14 57.5t35 43.5t47 32.5t50 23.5l38 -24q-12 -5 -26 -15t-26.5 -23t-20.5 -28.5t-8 -33.5t8 -25t22 -7t28 5.5t24 12.5l-3 -80q-16 -10 -42 -17.5t-46 -7.5z" />
    <glyph glyph-name="tilde" unicode="&#x2dc;" horiz-adv-x="520" 
d="M238 647q20 28 46.5 47t57.5 19q20 0 35 -7t28.5 -15.5t27.5 -15.5t32 -7q15 0 36 9.5t35 24.5l14 -68q-23 -32 -49.5 -49.5t-52.5 -17.5q-20 0 -36 7t-31 15.5t-29 15.5t-30 7q-18 0 -36.5 -9t-33.5 -26z" />
    <glyph glyph-name="hungarumlaut" unicode="&#x2dd;" horiz-adv-x="519" 
d="M416 704l-120 -137h-110l2 10l99 136h131zM603 704l-120 -137h-110l2 10l100 136h130z" />
    <glyph glyph-name="tonos" unicode="&#x384;" horiz-adv-x="578" 
d="M547 716l-89 -157h-100l2 10l65 156h124z" />
    <glyph glyph-name="dieresistonos" unicode="&#x385;" horiz-adv-x="579" 
d="M181 592q0 37 27 62.5t68 25.5q31 0 48 -17t17 -43q0 -37 -27 -62.5t-69 -25.5q-30 0 -47 17t-17 43zM551 701l-92 -167h-100l2 10l68 166h124zM542 592q0 37 27 62.5t68 25.5q31 0 48 -17t17 -43q0 -37 -27 -62.5t-69 -25.5q-30 0 -47 17t-17 43z" />
    <glyph glyph-name="Alphatonos" unicode="&#x386;" horiz-adv-x="658" 
d="M588 0h-130l-8 149h-238l-73 -149h-137l363 680h147zM418 570l-83 -183l-69 -139h170l-11 139l-4 183h-3zM269 671l-86 -157h-103l2 10l62 156h127z" />
    <glyph glyph-name="anoteleia" unicode="&#x387;" horiz-adv-x="268" 
d="M53 270q0 21 7.5 39t21 31.5t31.5 21.5t38 8q31 0 48 -18.5t17 -47.5q0 -42 -29 -70.5t-71 -28.5q-30 0 -46.5 18t-16.5 47z" />
    <glyph glyph-name="Epsilontonos" unicode="&#x388;" horiz-adv-x="691" 
d="M718 680l-22 -103h-278l-39 -181h249l-22 -103h-249l-40 -190h281l-21 -103h-407l145 680h403zM254 671l-86 -157h-103l2 10l62 156h127z" />
    <glyph glyph-name="Etatonos" unicode="&#x389;" horiz-adv-x="813" 
d="M606 293h-249l-62 -293h-125l145 680h125l-61 -284h249l60 284h125l-144 -680h-125zM254 671l-86 -157h-103l2 10l62 156h127z" />
    <glyph glyph-name="Iotatonos" unicode="&#x38a;" horiz-adv-x="439" 
d="M295 0h-125l145 680h125zM254 671l-86 -157h-103l2 10l62 156h127z" />
    <glyph glyph-name="Omicrontonos" unicode="&#x38c;" horiz-adv-x="807" 
d="M297 257q0 -35 7 -65.5t21.5 -53t37.5 -35t55 -12.5q62 0 105 32.5t70 82t39 107.5t12 110q0 35 -6.5 65t-21 52.5t-37 35.5t-55.5 13q-61 0 -104 -32t-70.5 -80.5t-40 -107t-12.5 -112.5zM774 430q0 -84 -23 -164t-69 -142.5t-115 -100.5t-161 -38q-62 0 -107 20.5
t-74 56.5t-43 84.5t-14 103.5q0 84 23 164t69 142.5t115 100.5t162 38q61 0 106 -20.5t74 -56.5t43 -84.5t14 -103.5zM254 671l-86 -157h-103l2 10l62 156h127z" />
    <glyph glyph-name="Upsilontonos" unicode="&#x38e;" horiz-adv-x="772" 
d="M443 680l72 -292h2l196 292h139l-2 -10l-290 -394l-58 -276h-125l58 276l-123 394l2 10h129zM261 671l-86 -157h-103l2 10l62 156h127z" />
    <glyph glyph-name="Omegatonos" unicode="&#x38f;" horiz-adv-x="815" 
d="M130 103h132q-17 12 -31.5 32.5t-25 47.5t-17 59t-6.5 65q0 68 22.5 137t67.5 125t112 91t156 35q63 0 108.5 -21t75 -57t43.5 -82.5t14 -97.5q0 -61 -16.5 -114t-43.5 -96t-60.5 -74.5t-67.5 -49.5h125l-22 -103h-256l20 93q53 30 88.5 64.5t57.5 75t31 88t9 102.5
q0 34 -6.5 64.5t-20.5 53t-36.5 35.5t-54.5 13q-64 0 -107 -34t-68.5 -83t-36.5 -104.5t-11 -97.5q0 -118 79 -177l-20 -93h-256zM257 671l-86 -157h-103l2 10l62 156h127z" />
    <glyph glyph-name="iotadieresistonos" unicode="&#x390;" horiz-adv-x="288" 
d="M235 482l-74 -349q-11 -47 27 -47q16 0 40 7l-15 -99q-13 -3 -32.5 -6t-42.5 -3q-59 0 -87 37t-10 121l72 339h122zM-32 592q0 37 27 62.5t68 25.5q31 0 48 -17t17 -43q0 -37 -27 -62.5t-69 -25.5q-30 0 -47 17t-17 43zM338 701l-92 -167h-100l2 10l68 166h124zM329 592
q0 37 27 62.5t68 25.5q31 0 48 -17t17 -43q0 -37 -27 -62.5t-69 -25.5q-30 0 -47 17t-17 43z" />
    <glyph glyph-name="Alpha" unicode="&#x391;" horiz-adv-x="607" 
d="M537 0h-130l-8 149h-238l-73 -149h-137l363 680h147zM367 570l-83 -183l-69 -139h170l-11 139l-4 183h-3z" />
    <glyph glyph-name="Beta" unicode="&#x392;" horiz-adv-x="604" 
d="M171 103h113q37 0 62 9.5t40 26t21 39.5t6 51q0 35 -22 53t-73 18h-105zM379 680q97 0 149 -36t52 -108q0 -38 -11 -69t-28.5 -54t-39.5 -39t-43 -25v-2q37 -15 59 -46t22 -79q0 -49 -13 -90t-43 -70t-79 -45.5t-121 -16.5h-259l145 680h210zM233 396h91q37 0 60.5 7
t37.5 21t19.5 36t5.5 52q0 35 -20.5 50t-66.5 15h-88z" />
    <glyph glyph-name="Gamma" unicode="&#x393;" horiz-adv-x="494" 
d="M24 0l145 680h382l-23 -108h-257l-122 -572h-125z" />
    <glyph glyph-name="uni0394" unicode="&#x394;" horiz-adv-x="605" 
d="M535 0h-582l1 5l361 675h147l74 -675zM367 570l-83 -180l-143 -291h258l-24 291l-5 180h-3z" />
    <glyph glyph-name="Epsilon" unicode="&#x395;" horiz-adv-x="545" 
d="M572 680l-22 -103h-278l-39 -181h249l-22 -103h-249l-40 -190h281l-21 -103h-407l145 680h403z" />
    <glyph glyph-name="Zeta" unicode="&#x396;" horiz-adv-x="535" 
d="M571 680l-20 -95l-398 -480v-2h296l-22 -103h-446l20 95l397 480v2h-276l22 103h427z" />
    <glyph glyph-name="Eta" unicode="&#x397;" horiz-adv-x="667" 
d="M460 293h-249l-62 -293h-125l145 680h125l-61 -284h249l60 284h125l-144 -680h-125z" />
    <glyph glyph-name="Theta" unicode="&#x398;" horiz-adv-x="696" 
d="M241 285l25 116h211l-25 -116h-211zM186 257q0 -35 7 -65.5t21.5 -53t37.5 -35t55 -12.5q62 0 105 32.5t70 82t39 107.5t12 110q0 35 -6.5 65t-21 52.5t-37 35.5t-55.5 13q-61 0 -104 -32t-70.5 -80.5t-40 -107t-12.5 -112.5zM663 430q0 -84 -23 -164t-69 -142.5
t-115 -100.5t-161 -38q-62 0 -107 20.5t-74 56.5t-43 84.5t-14 103.5q0 84 23 164t69 142.5t115 100.5t162 38q61 0 106 -20.5t74 -56.5t43 -84.5t14 -103.5z" />
    <glyph glyph-name="Iota" unicode="&#x399;" horiz-adv-x="293" 
d="M149 0h-125l145 680h125z" />
    <glyph glyph-name="Kappa" unicode="&#x39a;" horiz-adv-x="589" 
d="M214 306l-65 -306h-125l145 680h125l-71 -330h2l278 330h147l-2 -10l-307 -349l178 -311l-2 -10h-138l-163 306h-2z" />
    <glyph glyph-name="Lambda" unicode="&#x39b;" horiz-adv-x="607" 
d="M88 0h-137l363 680h147l76 -680h-130l-33 387l-6 173h-3l-81 -173z" />
    <glyph glyph-name="Mu" unicode="&#x39c;" horiz-adv-x="793" 
d="M391 276l82 134l194 270h126l-144 -680h-125l71 337l46 150h-1l-213 -316h-110l-78 316h-1l-17 -149l-72 -338h-125l145 680h116l78 -270l26 -134h2z" />
    <glyph glyph-name="Nu" unicode="&#x39d;" horiz-adv-x="681" 
d="M465 167l10 132l81 381h125l-144 -680h-128l-166 512h-3l-10 -132l-81 -380h-125l145 680h128l165 -513h3z" />
    <glyph glyph-name="Xi" unicode="&#x39e;" horiz-adv-x="538" 
d="M445 109l-24 -109h-423l23 109h424zM88 288l24 109h362l-23 -109h-363zM119 571l24 109h420l-23 -109h-421z" />
    <glyph glyph-name="Omicron" unicode="&#x39f;" horiz-adv-x="696" 
d="M186 257q0 -35 7 -65.5t21.5 -53t37.5 -35t55 -12.5q62 0 105 32.5t70 82t39 107.5t12 110q0 35 -6.5 65t-21 52.5t-37 35.5t-55.5 13q-61 0 -104 -32t-70.5 -80.5t-40 -107t-12.5 -112.5zM663 430q0 -84 -23 -164t-69 -142.5t-115 -100.5t-161 -38q-62 0 -107 20.5
t-74 56.5t-43 84.5t-14 103.5q0 84 23 164t69 142.5t115 100.5t162 38q61 0 106 -20.5t74 -56.5t43 -84.5t14 -103.5z" />
    <glyph glyph-name="Pi" unicode="&#x3a0;" horiz-adv-x="668" 
d="M522 577h-250l-123 -577h-125l145 680h499l-144 -680h-125z" />
    <glyph glyph-name="Rho" unicode="&#x3a1;" horiz-adv-x="555" 
d="M24 0l145 680h211q45 0 79 -13.5t56.5 -36.5t33.5 -55t11 -69q0 -56 -17 -105.5t-49 -86t-80 -57.5t-109 -21h-106l-50 -236h-125zM221 339h86q27 0 49 12.5t38.5 33t25.5 47.5t9 57q0 38 -18 63t-53 25h-86z" />
    <glyph glyph-name="Sigma" unicode="&#x3a3;" horiz-adv-x="544" 
d="M6 93l206 253l-88 240l20 94h438l-22 -103h-307l95 -240l-191 -234h302l-21 -103h-452z" />
    <glyph glyph-name="Tau" unicode="&#x3a4;" horiz-adv-x="516" 
d="M574 680l-22 -103h-169l-123 -577h-125l123 577h-169l22 103h463z" />
    <glyph glyph-name="Upsilon" unicode="&#x3a5;" horiz-adv-x="547" 
d="M218 680l72 -292h2l196 292h139l-2 -10l-290 -394l-58 -276h-125l58 276l-123 394l2 10h129z" />
    <glyph glyph-name="Phi" unicode="&#x3a6;" horiz-adv-x="757" 
d="M514 620q59 -6 101 -25.5t68.5 -49.5t38.5 -68.5t12 -81.5q0 -62 -17.5 -119t-57.5 -102.5t-105 -75.5t-159 -38l-12 -60h-125l12 59q-60 6 -102.5 25.5t-69 49.5t-39 68.5t-12.5 81.5q0 62 17.5 119.5t57.5 103t105.5 75.5t161.5 38l13 60h125zM180 289q0 -25 5.5 -47.5
t18.5 -40.5t34 -30.5t52 -16.5l79 372q-88 -12 -138.5 -71.5t-50.5 -165.5zM601 390q0 25 -5.5 47.5t-18 40.5t-33 30t-50.5 17l-79 -371q64 11 101 39.5t56 63.5t24 71t5 62z" />
    <glyph glyph-name="Chi" unicode="&#x3a7;" horiz-adv-x="568" 
d="M240 680l67 -267h2l180 267h137l-2 -10l-240 -329l100 -331l-2 -10h-128l-66 267h-2l-181 -267h-138l2 10l240 331l-100 329l3 10h128z" />
    <glyph glyph-name="Psi" unicode="&#x3a8;" horiz-adv-x="700" 
d="M408 263q59 5 91 44.5t50 124.5l53 248h126l-55 -258q-27 -127 -94.5 -195t-193.5 -71l-33 -156h-125l33 156q-123 6 -162 77t-9 211l50 236h125l-53 -248q-18 -85 -3 -125t75 -44l88 417h125z" />
    <glyph glyph-name="uni03A9" unicode="&#x3a9;" horiz-adv-x="707" 
d="M23 103h132q-17 12 -31.5 32.5t-25 47.5t-17 59t-6.5 65q0 68 22.5 137t67.5 125t112 91t156 35q63 0 108.5 -21t75 -57t43.5 -82.5t14 -97.5q0 -61 -16.5 -114t-43.5 -96t-60.5 -74.5t-67.5 -49.5h125l-22 -103h-256l20 93q53 30 88.5 64.5t57.5 75t31 88t9 102.5
q0 34 -6.5 64.5t-20.5 53t-36.5 35.5t-54.5 13q-64 0 -107 -34t-68.5 -83t-36.5 -104.5t-11 -97.5q0 -118 79 -177l-20 -93h-256z" />
    <glyph glyph-name="Iotadieresis" unicode="&#x3aa;" horiz-adv-x="293" 
d="M149 0h-125l145 680h125zM74 804q0 35 24.5 59t62.5 24q29 0 44 -15t15 -40q0 -35 -25 -59t-63 -24q-28 0 -43 15t-15 40zM305 804q0 35 25 59t62 24q29 0 44 -15t15 -40q0 -35 -25 -59t-63 -24q-27 0 -42.5 15t-15.5 40z" />
    <glyph glyph-name="Upsilondieresis" unicode="&#x3ab;" horiz-adv-x="547" 
d="M218 680l72 -292h2l196 292h139l-2 -10l-290 -394l-58 -276h-125l58 276l-123 394l2 10h129zM192 804q0 35 24.5 59t62.5 24q29 0 44 -15t15 -40q0 -35 -25 -59t-63 -24q-28 0 -43 15t-15 40zM423 804q0 35 25 59t62 24q29 0 44 -15t15 -40q0 -35 -25 -59t-63 -24
q-27 0 -42.5 15t-15.5 40z" />
    <glyph glyph-name="alphatonos" unicode="&#x3ac;" horiz-adv-x="572" 
d="M470 0h-117l6 83h-2q-11 -17 -25.5 -34.5t-33.5 -31.5t-44 -23t-56 -9q-39 0 -70 14.5t-52.5 40.5t-33.5 62t-12 80q0 67 20 124.5t54.5 100t81.5 66.5t101 24q31 0 53.5 -9t38 -23t24.5 -31.5t13 -34.5h2l30 83h125l-111 -240zM354 241q-1 32 -5.5 60.5t-13 49.5
t-21.5 33t-30 12q-25 0 -48 -16t-41 -44t-28.5 -65.5t-10.5 -80.5q0 -48 16.5 -76t45.5 -28q17 0 35 12t35.5 33t34 49.5t31.5 60.5zM503 716l-89 -157h-100l2 10l65 156h124z" />
    <glyph glyph-name="epsilontonos" unicode="&#x3ad;" horiz-adv-x="460" 
d="M464 716l-89 -157h-100l2 10l65 156h124zM334 194h-119q-43 0 -59.5 -16.5t-16.5 -45.5q0 -23 17 -36t57 -13q37 0 78.5 7.5t73.5 21.5l19 -91q-35 -16 -82 -26t-100 -10q-102 0 -147 33.5t-45 92.5q0 52 28.5 89.5t78.5 55.5v2q-20 11 -32 30.5t-12 52.5q0 32 12.5 60.5
t39 49.5t68 33.5t100.5 12.5q38 0 79 -9.5t70 -23.5l-32 -90q-13 5 -29.5 9.5t-33.5 8t-34 5.5t-31 2q-30 0 -47.5 -7.5t-26.5 -18t-11 -23t-2 -22.5q0 -17 10.5 -27.5t36.5 -10.5h112z" />
    <glyph glyph-name="etatonos" unicode="&#x3ae;" horiz-adv-x="543" 
d="M212 482l6 -46h2q11 10 24.5 20.5t30.5 19.5t37.5 15t44.5 6q79 0 112 -50.5t13 -146.5l-106 -498h-123l105 493q11 49 -2 75t-51 26q-32 0 -57 -15.5t-41 -32.5l-74 -348h-123l102 482h100zM473 716l-89 -157h-100l2 10l65 156h124z" />
    <glyph glyph-name="iotatonos" unicode="&#x3af;" horiz-adv-x="289" 
d="M235 482l-74 -349q-11 -47 27 -47q16 0 40 7l-15 -99q-13 -3 -32.5 -6t-42.5 -3q-59 0 -87 37t-10 121l72 339h122zM336 716l-89 -157h-100l2 10l65 156h124z" />
    <glyph glyph-name="upsilondieresistonos" unicode="&#x3b0;" horiz-adv-x="533" 
d="M463 716l-89 -157h-100l2 10l65 156h124zM169 203q-13 -60 1 -88.5t58 -28.5q26 0 50 17.5t42.5 53.5t29.5 91.5t11 132.5v23.5t-0.5 28t-1 27.5t-0.5 22h124q1 -17 1.5 -47t0.5 -53q0 -104 -18 -179t-52.5 -123.5t-84 -71.5t-113.5 -23q-103 0 -147.5 58t-21.5 166
l58 273h122z" />
    <glyph glyph-name="alpha" unicode="&#x3b1;" horiz-adv-x="572" 
d="M470 0h-117l6 83h-2q-11 -17 -25.5 -34.5t-33.5 -31.5t-44 -23t-56 -9q-39 0 -70 14.5t-52.5 40.5t-33.5 62t-12 80q0 67 20 124.5t54.5 100t81.5 66.5t101 24q31 0 53.5 -9t38 -23t24.5 -31.5t13 -34.5h2l30 83h125l-111 -240zM354 241q-1 32 -5.5 60.5t-13 49.5
t-21.5 33t-30 12q-25 0 -48 -16t-41 -44t-28.5 -65.5t-10.5 -80.5q0 -48 16.5 -76t45.5 -28q17 0 35 12t35.5 33t34 49.5t31.5 60.5z" />
    <glyph glyph-name="beta" unicode="&#x3b2;" horiz-adv-x="548" 
d="M135 23l-47 -221h-121l143 671q26 121 83.5 176.5t157.5 55.5q37 0 66.5 -12t50 -32.5t31.5 -49t11 -61.5q0 -38 -10.5 -68t-27 -53t-37 -39t-39.5 -24v-2q17 -6 33.5 -18t29 -29.5t20.5 -41t8 -52.5q0 -59 -19.5 -103.5t-52 -74.5t-75.5 -45t-90 -15q-35 0 -65.5 12
t-47.5 26h-2zM155 117q11 -14 31.5 -22.5t52.5 -8.5q30 0 53.5 11.5t39.5 31t24 45.5t8 55q0 38 -23.5 62t-72.5 24h-26l20 93h24q45 0 70.5 35.5t25.5 87.5q0 29 -12 51t-40 22q-33 0 -58.5 -29.5t-40.5 -98.5z" />
    <glyph glyph-name="gamma" unicode="&#x3b3;" horiz-adv-x="490" 
d="M75 -198l43 201l-59 469l2 10h119l19 -264v-101h2q7 10 14.5 23.5t14.5 27t13.5 26.5t12.5 23q39 63 69.5 125.5t59.5 139.5h125l-2 -10q-45 -112 -113 -230t-157 -244l-42 -196h-121z" />
    <glyph glyph-name="delta" unicode="&#x3b4;" horiz-adv-x="539" 
d="M465 595q-11 3 -31 6t-35 3q-41 0 -60.5 -17t-19.5 -44q0 -16 12.5 -32.5t31 -35t40 -41t40 -50t31 -61t12.5 -74.5q0 -47 -19 -94.5t-54.5 -85t-86 -61t-114.5 -23.5q-47 0 -82 16.5t-58.5 43.5t-35 62t-11.5 71q0 50 16 92.5t43 78t64 64t79 49.5q-10 17 -20.5 37
t-10.5 53q0 37 16.5 66t43.5 48t62 29t73 10q19 0 44 -2.5t41 -6.5zM360 243q0 50 -22 87.5t-50 66.5q-29 -18 -54 -41t-44 -50t-29.5 -57.5t-10.5 -63.5q0 -48 19.5 -73.5t53.5 -25.5q29 0 54 12t43.5 33t29 49.5t10.5 62.5z" />
    <glyph glyph-name="epsilon" unicode="&#x3b5;" horiz-adv-x="460" 
d="M334 194h-119q-43 0 -59.5 -16.5t-16.5 -45.5q0 -23 17 -36t57 -13q37 0 78.5 7.5t73.5 21.5l19 -91q-35 -16 -82 -26t-100 -10q-102 0 -147 33.5t-45 92.5q0 52 28.5 89.5t78.5 55.5v2q-20 11 -32 30.5t-12 52.5q0 32 12.5 60.5t39 49.5t68 33.5t100.5 12.5
q38 0 79 -9.5t70 -23.5l-32 -90q-13 5 -29.5 9.5t-33.5 8t-34 5.5t-31 2q-30 0 -47.5 -7.5t-26.5 -18t-11 -23t-2 -22.5q0 -17 10.5 -27.5t36.5 -10.5h112z" />
    <glyph glyph-name="zeta" unicode="&#x3b6;" horiz-adv-x="437" 
d="M505 700l-18 -87q-98 -99 -163 -164t-103.5 -110t-54 -76.5t-15.5 -62.5q0 -24 12.5 -40.5t32 -31t41.5 -28t41.5 -31t32 -40.5t12.5 -55q0 -26 -9.5 -48.5t-25.5 -42t-36 -37t-42 -32.5l-70 69q19 15 35.5 33.5t16.5 37.5q0 18 -12.5 32.5t-31.5 28t-41.5 28t-41.5 34
t-31.5 45t-12.5 61.5q0 51 20 93.5t59 89t97 103t135 133.5v2h-203l20 96h356z" />
    <glyph glyph-name="eta" unicode="&#x3b7;" horiz-adv-x="543" 
d="M212 482l6 -46h2q11 10 24.5 20.5t30.5 19.5t37.5 15t44.5 6q79 0 112 -50.5t13 -146.5l-106 -498h-123l105 493q11 49 -2 75t-51 26q-32 0 -57 -15.5t-41 -32.5l-74 -348h-123l102 482h100z" />
    <glyph glyph-name="theta" unicode="&#x3b8;" horiz-adv-x="547" 
d="M353 705q91 0 131.5 -53.5t40.5 -146.5q0 -69 -20 -163q-18 -82 -42.5 -148t-59 -112.5t-80 -71.5t-103.5 -25q-92 0 -132.5 53.5t-40.5 145.5q0 70 20 164q17 82 42 148t59.5 112.5t80 71.5t104.5 25zM342 604q-50 0 -85.5 -55.5t-61.5 -158.5h201q6 33 8.5 61.5
t2.5 51.5q-1 50 -16 75.5t-49 25.5zM231 86q50 0 84 53.5t60 156.5h-200q-11 -61 -11 -102q0 -53 16 -80.5t51 -27.5z" />
    <glyph glyph-name="iota" unicode="&#x3b9;" horiz-adv-x="289" 
d="M235 482l-74 -349q-11 -47 27 -47q16 0 40 7l-15 -99q-13 -3 -32.5 -6t-42.5 -3q-59 0 -87 37t-10 121l72 339h122z" />
    <glyph glyph-name="kappa" unicode="&#x3ba;" horiz-adv-x="495" 
d="M173 211l-45 -211h-118l102 482h118l-49 -230h2l193 230h137l-1 -7l-219 -247l127 -221l-1 -7h-127l-117 211h-2z" />
    <glyph glyph-name="lambda" unicode="&#x3bb;" horiz-adv-x="488" 
d="M409 0h-122l-19 227l-3 121h-3l-56 -119l-118 -229h-130l2 10l271 467l-8 71q-3 24 -11 40t-29 16q-16 0 -38 -5l11 97q10 3 22.5 6t38.5 3q43 0 75 -25.5t40 -85.5l79 -584z" />
    <glyph glyph-name="uni03BC" unicode="&#x3bc;" horiz-adv-x="542" 
d="M-33 -198l145 680h122l-63 -305q-18 -91 50 -91q30 0 54 15t42 30l75 351h123l-102 -482h-101l-7 46h-1q-22 -21 -55.5 -41t-81.5 -20q-9 0 -22 2.5t-21 5.5l-7 -64l-27 -127h-123z" />
    <glyph glyph-name="nu" unicode="&#x3bd;" horiz-adv-x="492" 
d="M509 472q-45 -115 -109.5 -229.5t-153.5 -242.5h-133l-53 472l2 10h119l19 -264v-101h2q7 10 14.5 23.5t15 27.5t14.5 27.5t13 23.5q37 62 67.5 124.5t59.5 138.5h125z" />
    <glyph glyph-name="xi" unicode="&#x3be;" horiz-adv-x="444" 
d="M193 607h-91l20 93h387l-19 -93h-120q-35 0 -61 -11t-43 -29.5t-26 -42.5t-9 -49q0 -35 22.5 -57.5t72.5 -22.5h65l-20 -96h-65q-43 0 -72.5 -8.5t-47.5 -23.5t-26 -35t-8 -43t15 -38.5t37 -28.5t48 -25.5t48 -28.5t37 -38t15 -55q0 -26 -10 -48.5t-26 -42.5t-37.5 -37.5
t-43.5 -32.5l-68 70q19 16 36.5 34.5t17.5 37.5q0 18 -14.5 31.5t-36.5 26t-48 26t-48 31t-36.5 41.5t-14.5 58q0 75 42 121.5t111 67.5v2q-28 12 -49 39.5t-21 72.5q0 41 24.5 78t62.5 54v2z" />
    <glyph glyph-name="omicron" unicode="&#x3bf;" horiz-adv-x="547" 
d="M158 191q0 -49 18.5 -77t54.5 -28q32 0 58 16.5t44 44t28 65t10 79.5q0 49 -18.5 77t-55.5 28q-32 0 -57.5 -16.5t-43.5 -44t-28 -65t-10 -79.5zM499 297q0 -62 -19 -118.5t-55 -99.5t-87.5 -68.5t-117.5 -25.5q-47 0 -82 15.5t-59 43t-36 64t-12 78.5q0 63 19.5 119.5
t56 99t88 67.5t114.5 25q48 0 83.5 -15.5t59 -42.5t35.5 -63.5t12 -78.5z" />
    <glyph glyph-name="pi" unicode="&#x3c0;" horiz-adv-x="602" 
d="M603 482l-20 -96h-85l-54 -253q-11 -47 28 -47q18 0 40 7l-21 -100q-15 -3 -31 -5.5t-38 -2.5q-60 0 -87 36.5t-10 118.5l52 246h-121l-82 -386h-122l82 386h-86l20 96h535z" />
    <glyph glyph-name="rho" unicode="&#x3c1;" horiz-adv-x="542" 
d="M149 120q11 -14 32.5 -24t44.5 -10q40 0 67.5 20.5t44 51.5t24 67.5t7.5 67.5q0 22 -4.5 40.5t-13.5 32.5t-23.5 22t-35.5 8q-38 0 -68.5 -36t-42.5 -93zM-39 -198l98 462q13 60 37 104t56 72.5t70.5 42.5t80.5 14q49 0 85.5 -16t59.5 -43t34.5 -63t11.5 -76
q0 -60 -18 -116.5t-51 -100.5t-79.5 -70.5t-103.5 -26.5q-38 0 -67 14.5t-43 30.5h-2l-48 -228h-121z" />
    <glyph glyph-name="sigma1" unicode="&#x3c2;" horiz-adv-x="430" 
d="M405 375q-17 7 -42 14t-54 7t-55 -12.5t-46 -35.5t-32 -55t-12 -72q0 -27 12 -46.5t30 -35t39.5 -30t39.5 -31.5t30 -39t12 -53q0 -27 -9.5 -52t-25.5 -46.5t-36.5 -40t-42.5 -33.5l-69 75q20 17 35.5 33.5t15.5 35.5q0 17 -12 31t-30 28t-38.5 29.5t-38.5 37.5t-30 51
t-12 70q0 61 18.5 114.5t54 93t87.5 62t119 22.5q38 0 72.5 -10t53.5 -19z" />
    <glyph glyph-name="sigma" unicode="&#x3c3;" horiz-adv-x="555" 
d="M455 377q16 -21 25 -52.5t9 -65.5q0 -51 -19 -100.5t-54 -88t-85 -62t-112 -23.5q-48 0 -83.5 15.5t-59 42.5t-35.5 63t-12 77q0 59 19.5 113t55.5 95.5t87 66t114 24.5h255l-22 -103h-83v-2zM155 193q0 -48 21 -72.5t57 -24.5q59 0 97.5 47.5t38.5 132.5q0 48 -21 71.5
t-57 23.5q-58 0 -97 -46.5t-39 -131.5z" />
    <glyph glyph-name="tau" unicode="&#x3c4;" horiz-adv-x="446" 
d="M452 482l-20 -96h-143l-52 -245q-5 -26 -0.5 -40.5t30.5 -14.5q14 0 34.5 4.5t37.5 9.5l-15 -100q-14 -4 -41.5 -9.5t-59.5 -5.5q-72 0 -98.5 36.5t-9.5 116.5l53 248h-123l20 96h387z" />
    <glyph glyph-name="upsilon" unicode="&#x3c5;" horiz-adv-x="533" 
d="M169 203q-13 -60 1 -88.5t58 -28.5q26 0 50 17.5t42.5 53.5t29.5 91.5t11 132.5v23.5t-0.5 28t-1 27.5t-0.5 22h124q1 -17 1.5 -47t0.5 -53q0 -104 -18 -179t-52.5 -123.5t-84 -71.5t-113.5 -23q-103 0 -147.5 58t-21.5 166l58 273h122z" />
    <glyph glyph-name="phi" unicode="&#x3c6;" horiz-adv-x="669" 
d="M264 482q-48 -81 -78.5 -152.5t-30.5 -133.5q0 -43 17.5 -72t57.5 -37l44 204q21 101 69 153.5t131 52.5q41 0 69.5 -16.5t46.5 -43t26 -59t8 -64.5q0 -57 -15.5 -111.5t-50 -98t-90.5 -73.5t-137 -38l-41 -191h-121l40 189q-47 6 -80.5 23.5t-54.5 44t-31 60t-10 70.5
t7.5 71.5t21.5 70t33.5 72.5t43.5 79h125zM351 88q44 9 73 31.5t46 53.5t23.5 67.5t6.5 73.5q0 32 -8.5 57t-31.5 25q-22 0 -37.5 -22t-28.5 -80z" />
    <glyph glyph-name="chi" unicode="&#x3c7;" horiz-adv-x="483" 
d="M175 482l35 -172l10 -94h1l53 96l107 170h130l-2 -10l-222 -329l82 -331l-2 -10h-122l-34 170l-11 97h-1l-52 -97l-106 -170h-132l2 10l222 331l-82 329l3 10h121z" />
    <glyph glyph-name="psi" unicode="&#x3c8;" horiz-adv-x="686" 
d="M362 83q25 0 52.5 15t50 48.5t37 86t14.5 127.5q0 26 -1.5 61.5t-3.5 60.5h125q2 -23 3 -55.5t1 -61.5q0 -100 -21 -172t-60 -118t-94 -67.5t-123 -19.5l-39 -186h-122l39 186q-109 5 -151.5 60t-19.5 164l57 270h122l-59 -279q-14 -66 4.5 -93t66.5 -27l132 617h122z
" />
    <glyph glyph-name="omega" unicode="&#x3c9;" horiz-adv-x="758" 
d="M677 482q11 -38 19.5 -83.5t8.5 -92.5q0 -152 -63.5 -236.5t-178.5 -84.5q-29 0 -50 8t-36 22t-24 31.5t-13 37.5h-2q-25 -39 -66.5 -69t-102.5 -30t-101 44.5t-40 134.5q0 47 10 88t27.5 79t40.5 75t49 76h132l-2 -10q-29 -38 -53 -74.5t-42 -73.5t-28 -75.5t-10 -80.5
q0 -36 13 -59t36 -23q32 0 58.5 28.5t39.5 88.5l33 156h121l-34 -162q-12 -57 3 -84t46 -27q23 0 43.5 17t36 45.5t24.5 67t9 81.5q0 42 -8 87.5t-22 87.5l2 10h124z" />
    <glyph glyph-name="iotadieresis" unicode="&#x3ca;" horiz-adv-x="288" 
d="M235 482l-74 -349q-11 -47 27 -47q16 0 40 7l-15 -99q-13 -3 -32.5 -6t-42.5 -3q-59 0 -87 37t-10 121l72 339h122zM233 626q0 35 24.5 59t62.5 24q28 0 43.5 -15t15.5 -40q0 -35 -25 -59t-63 -24q-28 0 -43 15t-15 40zM38 626q0 35 25 59t62 24q29 0 44 -15t15 -40
q0 -35 -25 -59t-63 -24q-27 0 -42.5 15t-15.5 40z" />
    <glyph glyph-name="upsilondieresis" unicode="&#x3cb;" horiz-adv-x="533" 
d="M169 203q-13 -60 1 -88.5t58 -28.5q26 0 50 17.5t42.5 53.5t29.5 91.5t11 132.5v23.5t-0.5 28t-1 27.5t-0.5 22h124q1 -17 1.5 -47t0.5 -53q0 -104 -18 -179t-52.5 -123.5t-84 -71.5t-113.5 -23q-103 0 -147.5 58t-21.5 166l58 273h122zM358 626q0 35 24.5 59t62.5 24
q28 0 43.5 -15t15.5 -40q0 -35 -25 -59t-63 -24q-28 0 -43 15t-15 40zM163 626q0 35 25 59t62 24q29 0 44 -15t15 -40q0 -35 -25 -59t-63 -24q-27 0 -42.5 15t-15.5 40z" />
    <glyph glyph-name="omicrontonos" unicode="&#x3cc;" horiz-adv-x="547" 
d="M158 191q0 -49 18.5 -77t54.5 -28q32 0 58 16.5t44 44t28 65t10 79.5q0 49 -18.5 77t-55.5 28q-32 0 -57.5 -16.5t-43.5 -44t-28 -65t-10 -79.5zM499 297q0 -62 -19 -118.5t-55 -99.5t-87.5 -68.5t-117.5 -25.5q-47 0 -82 15.5t-59 43t-36 64t-12 78.5q0 63 19.5 119.5
t56 99t88 67.5t114.5 25q48 0 83.5 -15.5t59 -42.5t35.5 -63.5t12 -78.5zM473 716l-89 -157h-100l2 10l65 156h124z" />
    <glyph glyph-name="upsilontonos" unicode="&#x3cd;" horiz-adv-x="533" 
d="M469 716l-89 -157h-100l2 10l65 156h124zM169 203q-13 -60 1 -88.5t58 -28.5q26 0 50 17.5t42.5 53.5t29.5 91.5t11 132.5v23.5t-0.5 28t-1 27.5t-0.5 22h124q1 -17 1.5 -47t0.5 -53q0 -104 -18 -179t-52.5 -123.5t-84 -71.5t-113.5 -23q-103 0 -147.5 58t-21.5 166
l58 273h122z" />
    <glyph glyph-name="omegatonos" unicode="&#x3ce;" horiz-adv-x="758" 
d="M677 482q11 -38 19.5 -83.5t8.5 -92.5q0 -152 -63.5 -236.5t-178.5 -84.5q-29 0 -50 8t-36 22t-24 31.5t-13 37.5h-2q-25 -39 -66.5 -69t-102.5 -30t-101 44.5t-40 134.5q0 47 10 88t27.5 79t40.5 75t49 76h132l-2 -10q-29 -38 -53 -74.5t-42 -73.5t-28 -75.5t-10 -80.5
q0 -36 13 -59t36 -23q32 0 58.5 28.5t39.5 88.5l33 156h121l-34 -162q-12 -57 3 -84t46 -27q23 0 43.5 17t36 45.5t24.5 67t9 81.5q0 42 -8 87.5t-22 87.5l2 10h124zM580 716l-89 -157h-100l2 10l65 156h124z" />
    <glyph glyph-name="uni0400" unicode="&#x400;" horiz-adv-x="545" 
d="M572 680l-22 -103h-278l-39 -181h249l-22 -103h-249l-40 -190h281l-21 -103h-407l145 680h403zM299 896h132l33 -136l-2 -10h-111l-54 137z" />
    <glyph glyph-name="uni0401" unicode="&#x401;" horiz-adv-x="545" 
d="M572 680l-22 -103h-278l-39 -181h249l-22 -103h-249l-40 -190h281l-21 -103h-407l145 680h403zM214 804q0 35 24.5 59t62.5 24q29 0 44 -15t15 -40q0 -35 -25 -59t-63 -24q-28 0 -43 15t-15 40zM445 804q0 35 25 59t62 24q29 0 44 -15t15 -40q0 -35 -25 -59t-63 -24
q-27 0 -42.5 15t-15.5 40z" />
    <glyph glyph-name="uni0402" unicode="&#x402;" horiz-adv-x="644" 
d="M286 -53q27 28 58 60.5t56.5 68t42.5 73.5t17 78q0 35 -16.5 60.5t-58.5 25.5q-29 0 -57 -5.5t-55 -13.5l-63 -294h-125l123 577h-120l22 103h416l-22 -103h-171l-39 -180q23 7 54.5 13t65.5 6q48 0 82 -13.5t56 -37.5t32 -57t10 -71q0 -62 -24 -117t-59 -103t-74 -87.5
t-68 -69.5z" />
    <glyph glyph-name="uni0403" unicode="&#x403;" horiz-adv-x="513" 
d="M571 680l-22 -103h-277l-123 -577h-125l145 680h402zM566 887l-112 -137h-119l2 10l91 136h140z" />
    <glyph glyph-name="uni0404" unicode="&#x404;" horiz-adv-x="558" 
d="M57 252q0 92 26 173t74 141t116.5 94.5t154.5 34.5q42 0 83.5 -11t78.5 -33l-43 -95q-35 21 -67 27t-64 6q-35 0 -67.5 -15t-59.5 -41t-48.5 -62t-34.5 -79h242l-22 -104h-238v-20q0 -78 31.5 -127.5t90.5 -49.5q32 0 66.5 6t78.5 27l23 -95q-46 -22 -92.5 -33t-88.5 -11
q-59 0 -104 20t-75 55t-45.5 84t-15.5 108z" />
    <glyph glyph-name="uni0405" unicode="&#x405;" horiz-adv-x="518" 
d="M54 147q27 -23 67 -39.5t87 -16.5q54 0 87.5 27.5t33.5 73.5q0 25 -15 48t-51 43l-60 33q-51 28 -79.5 69.5t-28.5 92.5q0 49 18 89t51.5 68.5t82 44t110.5 15.5q43 0 85 -13t75 -33l-50 -97q-29 17 -62 27t-60 10q-59 0 -88.5 -28.5t-29.5 -70.5q0 -23 10 -42t36 -33
l63 -35q53 -29 89 -72.5t36 -101.5q0 -48 -19.5 -89t-54.5 -70t-83 -45.5t-106 -16.5q-65 0 -112 19.5t-82 46.5z" />
    <glyph glyph-name="uni0406" unicode="&#x406;" horiz-adv-x="293" 
d="M149 0h-125l145 680h125z" />
    <glyph glyph-name="uni0407" unicode="&#x407;" horiz-adv-x="293" 
d="M149 0h-125l145 680h125zM68 804q0 35 24.5 59t62.5 24q29 0 44 -15t15 -40q0 -35 -25 -59t-63 -24q-28 0 -43 15t-15 40zM299 804q0 35 25 59t62 24q29 0 44 -15t15 -40q0 -35 -25 -59t-63 -24q-27 0 -42.5 15t-15.5 40z" />
    <glyph glyph-name="uni0408" unicode="&#x408;" horiz-adv-x="449" 
d="M42 143q16 -20 35 -36t55 -16q41 0 63.5 31.5t33.5 85.5l100 472h125l-104 -490q-23 -105 -81.5 -155t-151.5 -50q-52 0 -90.5 22t-59.5 49z" />
    <glyph glyph-name="uni0409" unicode="&#x409;" horiz-adv-x="908" 
d="M618 680l-55 -257h113q91 0 137 -42t46 -119q0 -122 -62.5 -192t-189.5 -70h-259l123 577h-154l-58 -221q-32 -120 -63.5 -192t-68 -111t-79.5 -51t-96 -12l23 107q24 0 44.5 9t41 37t40.5 80.5t42 140.5l80 316h395zM495 103h115q30 0 52 12.5t35.5 32t20 44.5t6.5 51
q0 34 -15.5 55.5t-52.5 21.5h-115z" />
    <glyph glyph-name="uni040A" unicode="&#x40a;" horiz-adv-x="934" 
d="M644 680l-55 -256h113q90 0 136.5 -42.5t46.5 -120.5q0 -123 -63 -192t-191 -69h-258l68 321h-224l-68 -321h-125l145 680h125l-55 -256h224l54 256h127zM521 103h113q31 0 53 12.5t36 32t20.5 44.5t6.5 51q0 33 -15.5 55.5t-53.5 22.5h-114z" />
    <glyph glyph-name="uni040B" unicode="&#x40b;" horiz-adv-x="651" 
d="M418 0l54 255q10 46 -5 74t-64 28q-38 0 -70 -9t-52 -17l-70 -331h-125l123 577h-121l22 103h417l-22 -103h-171l-31 -145q29 11 66.5 20t80.5 9q87 0 128 -51.5t20 -148.5l-55 -261h-125z" />
    <glyph glyph-name="uni040C" unicode="&#x40c;" horiz-adv-x="589" 
d="M214 306l-65 -306h-125l145 680h125l-71 -330h2l278 330h147l-2 -10l-307 -349l178 -311l-2 -10h-138l-163 306h-2zM573 887l-112 -137h-119l2 10l91 136h140z" />
    <glyph glyph-name="uni040D" unicode="&#x40d;" horiz-adv-x="671" 
d="M172 175l365 505h135l-145 -680h-125l81 380l43 124h-3l-364 -504h-135l145 680h125l-81 -381l-44 -124h3zM334 896h132l33 -136l-2 -10h-111l-54 137z" />
    <glyph glyph-name="uni040E" unicode="&#x40e;" horiz-adv-x="517" 
d="M587 670l-293 -505q-30 -50 -55 -82t-51.5 -50.5t-58 -25.5t-73.5 -7h-47l22 103h27q41 0 67 16.5t49 58.5l14 25l-92 467l2 10h135l28 -215l9 -131h2l65 131l116 215h136zM384 857q38 0 68 9.5t58 24.5l17 -78q-28 -23 -69.5 -43t-92.5 -20q-24 0 -44 6.5t-36 17
t-28.5 22.5t-21.5 24l40 71q21 -15 47.5 -24.5t61.5 -9.5z" />
    <glyph glyph-name="uni040F" unicode="&#x40f;" horiz-adv-x="659" 
d="M194 -141l20 141h-190l145 680h125l-123 -577h241l123 577h125l-145 -680h-190l-40 -141h-91z" />
    <glyph glyph-name="uni0410" unicode="&#x410;" horiz-adv-x="607" 
d="M537 0h-130l-8 149h-238l-73 -149h-137l363 680h147zM367 570l-83 -183l-69 -139h170l-11 139l-4 183h-3z" />
    <glyph glyph-name="uni0411" unicode="&#x411;" horiz-adv-x="590" 
d="M581 680l-22 -103h-287l-33 -153h114q90 0 136 -42t46 -120q0 -122 -63 -192t-190 -70h-258l145 680h412zM171 103h115q31 0 52.5 12.5t35.5 32t20.5 44.5t6.5 51q0 33 -15.5 55.5t-53.5 22.5h-115z" />
    <glyph glyph-name="uni0412" unicode="&#x412;" horiz-adv-x="604" 
d="M171 103h113q37 0 62 9.5t40 26t21 39.5t6 51q0 35 -22 53t-73 18h-105zM379 680q97 0 149 -36t52 -108q0 -38 -11 -69t-28.5 -54t-39.5 -39t-43 -25v-2q37 -15 59 -46t22 -79q0 -49 -13 -90t-43 -70t-79 -45.5t-121 -16.5h-259l145 680h210zM233 396h91q37 0 60.5 7
t37.5 21t19.5 36t5.5 52q0 35 -20.5 50t-66.5 15h-88z" />
    <glyph glyph-name="uni0413" unicode="&#x413;" horiz-adv-x="513" 
d="M571 680l-22 -103h-277l-123 -577h-125l145 680h402z" />
    <glyph glyph-name="uni0414" unicode="&#x414;" horiz-adv-x="659" 
d="M-63 -141l34 244h55q45 49 76.5 124.5t58.5 181.5l69 271h405l-123 -577h69l-69 -244h-91l21 141h-376l-38 -141h-91zM387 103l101 474h-165l-45 -169q-28 -106 -55 -184.5t-59 -120.5h223z" />
    <glyph glyph-name="uni0415" unicode="&#x415;" horiz-adv-x="545" 
d="M572 680l-22 -103h-278l-39 -181h249l-22 -103h-249l-40 -190h281l-21 -103h-407l145 680h403z" />
    <glyph glyph-name="uni0416" unicode="&#x416;" horiz-adv-x="890" 
d="M386 304l-279 -304h-153l2 10l311 334l-159 326l2 10h133l153 -329h1l70 329h126l-70 -329h2l278 329h147l-2 -10l-302 -346l173 -314l-2 -10h-138l-164 304h-2l-65 -304h-126l65 304h-1z" />
    <glyph glyph-name="uni0417" unicode="&#x417;" horiz-adv-x="513" 
d="M152 397h103q33 0 56 10.5t37 27t20 37.5t6 42q0 32 -18.5 53.5t-59.5 21.5q-32 0 -71 -9.5t-79 -27.5l-28 98q21 10 45.5 18.5t49.5 14.5t49.5 9t45.5 3q49 0 86.5 -11.5t62.5 -32.5t37.5 -50.5t12.5 -64.5q0 -39 -13 -71t-32.5 -56t-42.5 -41t-44 -26v-2
q34 -16 56.5 -47.5t22.5 -82.5q0 -50 -19.5 -91.5t-55.5 -71t-87 -46t-115 -16.5q-57 0 -103.5 14t-79.5 37l43 97q29 -19 65 -30.5t87 -11.5q28 0 53 9t44.5 25t31 39t11.5 52q0 36 -23 56t-74 20h-102z" />
    <glyph glyph-name="uni0418" unicode="&#x418;" horiz-adv-x="671" 
d="M172 175l365 505h135l-145 -680h-125l81 380l43 124h-3l-364 -504h-135l145 680h125l-81 -381l-44 -124h3z" />
    <glyph glyph-name="uni0419" unicode="&#x419;" horiz-adv-x="671" 
d="M172 175l365 505h135l-145 -680h-125l81 380l43 124h-3l-364 -504h-135l145 680h125l-81 -381l-44 -124h3zM467 857q38 0 68 9.5t58 24.5l17 -78q-28 -23 -69.5 -43t-92.5 -20q-24 0 -44 6.5t-36 17t-28.5 22.5t-21.5 24l40 71q21 -15 47.5 -24.5t61.5 -9.5z" />
    <glyph glyph-name="uni041A" unicode="&#x41a;" horiz-adv-x="589" 
d="M214 306l-65 -306h-125l145 680h125l-71 -330h2l278 330h147l-2 -10l-307 -349l178 -311l-2 -10h-138l-163 306h-2z" />
    <glyph glyph-name="uni041B" unicode="&#x41b;" horiz-adv-x="651" 
d="M505 577h-189l-58 -221q-30 -114 -60.5 -185t-66 -111.5t-79.5 -55t-101 -14.5l23 106q24 0 44.5 9t41 37.5t40.5 81t42 140.5l80 316h430l-145 -680h-125z" />
    <glyph glyph-name="uni041C" unicode="&#x41c;" horiz-adv-x="793" 
d="M391 276l82 134l194 270h126l-144 -680h-125l71 337l46 150h-1l-213 -316h-110l-78 316h-1l-17 -149l-72 -338h-125l145 680h116l78 -270l26 -134h2z" />
    <glyph glyph-name="uni041D" unicode="&#x41d;" horiz-adv-x="667" 
d="M460 293h-249l-62 -293h-125l145 680h125l-61 -284h249l60 284h125l-144 -680h-125z" />
    <glyph glyph-name="uni041E" unicode="&#x41e;" horiz-adv-x="696" 
d="M186 257q0 -35 7 -65.5t21.5 -53t37.5 -35t55 -12.5q62 0 105 32.5t70 82t39 107.5t12 110q0 35 -6.5 65t-21 52.5t-37 35.5t-55.5 13q-61 0 -104 -32t-70.5 -80.5t-40 -107t-12.5 -112.5zM663 430q0 -84 -23 -164t-69 -142.5t-115 -100.5t-161 -38q-62 0 -107 20.5
t-74 56.5t-43 84.5t-14 103.5q0 84 23 164t69 142.5t115 100.5t162 38q61 0 106 -20.5t74 -56.5t43 -84.5t14 -103.5z" />
    <glyph glyph-name="uni041F" unicode="&#x41f;" horiz-adv-x="668" 
d="M522 577h-250l-123 -577h-125l145 680h499l-144 -680h-125z" />
    <glyph glyph-name="uni0420" unicode="&#x420;" horiz-adv-x="555" 
d="M24 0l145 680h211q45 0 79 -13.5t56.5 -36.5t33.5 -55t11 -69q0 -56 -17 -105.5t-49 -86t-80 -57.5t-109 -21h-106l-50 -236h-125zM221 339h86q27 0 49 12.5t38.5 33t25.5 47.5t9 57q0 38 -18 63t-53 25h-86z" />
    <glyph glyph-name="uni0421" unicode="&#x421;" horiz-adv-x="561" 
d="M57 252q0 92 26 173t74 141t116.5 94.5t154.5 34.5q42 0 83.5 -11t78.5 -33l-43 -95q-35 21 -67 27t-64 6q-47 0 -88.5 -26t-72.5 -70t-49 -102t-18 -123q0 -78 31.5 -127.5t90.5 -49.5q32 0 66.5 6t78.5 27l23 -95q-46 -22 -92.5 -33t-88.5 -11q-59 0 -104 20t-75 55
t-45.5 84t-15.5 108z" />
    <glyph glyph-name="uni0422" unicode="&#x422;" horiz-adv-x="516" 
d="M574 680l-22 -103h-169l-123 -577h-125l123 577h-169l22 103h463z" />
    <glyph glyph-name="uni0423" unicode="&#x423;" horiz-adv-x="517" 
d="M587 670l-293 -505q-30 -50 -55 -82t-51.5 -50.5t-58 -25.5t-73.5 -7h-47l22 103h27q41 0 67 16.5t49 58.5l14 25l-92 467l2 10h135l28 -215l9 -131h2l65 131l116 215h136z" />
    <glyph glyph-name="uni0424" unicode="&#x424;" horiz-adv-x="757" 
d="M514 620q59 -6 101 -25.5t68.5 -49.5t38.5 -68.5t12 -81.5q0 -62 -17.5 -119t-57.5 -102.5t-105 -75.5t-159 -38l-12 -60h-125l12 59q-60 6 -102.5 25.5t-69 49.5t-39 68.5t-12.5 81.5q0 62 17.5 119.5t57.5 103t105.5 75.5t161.5 38l13 60h125zM180 289q0 -25 5.5 -47.5
t18.5 -40.5t34 -30.5t52 -16.5l79 372q-88 -12 -138.5 -71.5t-50.5 -165.5zM601 390q0 25 -5.5 47.5t-18 40.5t-33 30t-50.5 17l-79 -371q64 11 101 39.5t56 63.5t24 71t5 62z" />
    <glyph glyph-name="uni0425" unicode="&#x425;" horiz-adv-x="568" 
d="M240 680l67 -267h2l180 267h137l-2 -10l-240 -329l100 -331l-2 -10h-128l-66 267h-2l-181 -267h-138l2 10l240 331l-100 329l3 10h128z" />
    <glyph glyph-name="uni0426" unicode="&#x426;" horiz-adv-x="685" 
d="M446 -141l21 141h-443l145 680h125l-123 -577h241l123 577h125l-123 -577h70l-70 -244h-91z" />
    <glyph glyph-name="uni0427" unicode="&#x427;" horiz-adv-x="600" 
d="M268 680l-62 -291q-10 -46 6 -70.5t65 -24.5q37 0 70 8t52 18l77 360h125l-145 -680h-125l46 218q-14 -6 -32.5 -11t-38.5 -9t-40 -6.5t-37 -2.5q-86 0 -127.5 51t-21.5 144l63 296h125z" />
    <glyph glyph-name="uni0428" unicode="&#x428;" horiz-adv-x="936" 
d="M24 0l145 680h125l-123 -577h197l123 577h125l-123 -577h196l122 577h125l-144 -680h-768z" />
    <glyph glyph-name="uni0429" unicode="&#x429;" horiz-adv-x="961" 
d="M723 -141l21 141h-720l145 680h125l-123 -577h197l123 577h125l-123 -577h196l122 577h125l-122 -577h69l-70 -244h-90z" />
    <glyph glyph-name="uni042A" unicode="&#x42a;" horiz-adv-x="638" 
d="M108 680h240l-55 -256h114q90 0 136 -42t46 -120q0 -123 -62.5 -192.5t-190.5 -69.5h-258l123 577h-114zM225 103h114q30 0 52 12.5t36 32t20.5 44.5t6.5 51q0 34 -15.5 56t-52.5 22h-115z" />
    <glyph glyph-name="uni042B" unicode="&#x42b;" horiz-adv-x="823" 
d="M679 0h-125l145 680h125zM169 680h125l-55 -256h114q91 0 136.5 -42t45.5 -120q0 -123 -62.5 -192.5t-190.5 -69.5h-258zM171 103h114q30 0 52 12.5t36 32t20.5 44.5t6.5 51q0 34 -15.5 56t-52.5 22h-115z" />
    <glyph glyph-name="uni042C" unicode="&#x42c;" horiz-adv-x="584" 
d="M169 680h125l-55 -256h114q91 0 136.5 -42t45.5 -120q0 -123 -62.5 -192.5t-190.5 -69.5h-258zM171 103h114q30 0 52 12.5t36 32t20.5 44.5t6.5 51q0 34 -15.5 56t-52.5 22h-115z" />
    <glyph glyph-name="uni042D" unicode="&#x42d;" horiz-adv-x="561" 
d="M396 392q1 10 1.5 19.5t0.5 18.5q-1 73 -33.5 116t-90.5 43q-32 0 -66 -7t-78 -28l-24 97q93 44 181 44q57 0 101.5 -19t75.5 -54.5t47 -86t16 -113.5q0 -88 -25 -167.5t-73 -139.5t-117 -95t-156 -35q-42 0 -83.5 11t-78.5 33l43 95q28 -17 63.5 -25t67.5 -8q33 0 65 14
t59.5 39.5t49.5 62t34 81.5h-241l22 104h239z" />
    <glyph glyph-name="uni042E" unicode="&#x42e;" horiz-adv-x="973" 
d="M940 430q0 -84 -23 -164t-69 -142.5t-115 -100.5t-161 -38q-62 0 -107 20.5t-74 56.5t-43 84.5t-14 103.5v20t1 21h-124l-62 -291h-125l145 680h125l-61 -286h118q16 62 45.5 117t73.5 96t102.5 64.5t130.5 23.5q61 0 106 -20.5t74 -56.5t43 -84.5t14 -103.5zM463 257
q0 -35 7 -65.5t21.5 -53t37.5 -35t55 -12.5q62 0 105 32.5t70 82t39 107.5t12 110q0 35 -6.5 65t-21 52.5t-37 35.5t-55.5 13q-61 0 -104 -32t-70.5 -80.5t-40 -107t-12.5 -112.5z" />
    <glyph glyph-name="uni042F" unicode="&#x42f;" horiz-adv-x="615" 
d="M346 0l57 266h-78l-213 -266h-136l3 16l220 269q-18 9 -35.5 22.5t-31 31.5t-22 41.5t-8.5 52.5q0 54 14.5 99.5t45.5 78t78 51t112 18.5h264l-145 -680h-125zM425 369l44 208h-123q-27 0 -48 -11t-35 -29t-21.5 -41.5t-7.5 -48.5q0 -34 16.5 -56t51.5 -22h123z" />
    <glyph glyph-name="uni0430" unicode="&#x430;" horiz-adv-x="554" 
d="M458 -5q-17 -3 -33 -5t-38 -2q-39 0 -56.5 14t-19.5 41h-2q-29 -24 -59 -41t-73 -17q-38 0 -65.5 15t-45.5 41.5t-26.5 61t-8.5 73.5q0 61 16 118.5t46 102.5t73.5 72.5t98.5 27.5q47 0 77 -19.5t50 -38.5h2l25 43h93l-81 -377q-2 -11 -0.5 -14.5t12.5 -3.5h35zM366 368
q-28 28 -72 28q-34 0 -59.5 -18.5t-42 -47.5t-25 -65.5t-8.5 -73.5q0 -45 15.5 -75t53.5 -30q23 0 44 11t41 25z" />
    <glyph glyph-name="uni0431" unicode="&#x431;" horiz-adv-x="561" 
d="M188 378q12 15 28 28t36 23t43 16t48 6q38 0 68.5 -13t52.5 -36t33.5 -55t11.5 -71q0 -56 -18 -108.5t-53 -93t-85.5 -65t-115.5 -24.5q-186 0 -186 230q0 117 25.5 200.5t66.5 139.5t93 87t105 43q26 6 59.5 9.5t67.5 6.5t65 5.5t51 7.5l-24 -112q-14 -4 -40 -6t-56 -4
t-59 -4.5t-50 -7.5q-70 -17 -110 -67t-60 -135h3zM382 253q0 43 -20 70t-57 27q-28 0 -52.5 -13t-42.5 -35t-28 -51.5t-10 -63.5q0 -44 19.5 -72.5t57.5 -28.5q27 0 51.5 14t42.5 37t28.5 53t10.5 63z" />
    <glyph glyph-name="uni0432" unicode="&#x432;" horiz-adv-x="501" 
d="M146 86h85q24 0 39 8.5t23.5 20.5t11.5 25.5t3 22.5q0 17 -11 30t-41 13h-84zM313 482q65 0 103 -27t38 -83q0 -27 -7.5 -47.5t-19.5 -36.5t-27.5 -27t-31.5 -19v-1q25 -10 41.5 -32.5t16.5 -54.5q0 -154 -187 -154h-229l102 482h201zM188 285h65q41 0 58.5 18t17.5 50
q0 16 -10 29.5t-42 13.5h-65z" />
    <glyph glyph-name="uni0433" unicode="&#x433;" horiz-adv-x="417" 
d="M434 482l-21 -96h-203l-82 -386h-118l102 482h322z" />
    <glyph glyph-name="uni0434" unicode="&#x434;" horiz-adv-x="556" 
d="M-51 -120l28 218h49q15 15 28.5 38.5t24.5 51.5t20.5 57.5t16.5 57.5l45 179h347l-81 -384h48l-63 -218h-82l14 120h-278l-35 -120h-82zM309 98l61 288h-119l-22 -81q-8 -29 -16.5 -59.5t-17.5 -58.5t-18.5 -51t-19.5 -38h152z" />
    <glyph glyph-name="uni0435" unicode="&#x435;" horiz-adv-x="507" 
d="M151 206q-8 -54 14 -88.5t69 -34.5q38 0 72 10.5t68 25.5l21 -91q-36 -17 -85 -30t-97 -13q-47 0 -81 16t-57 43.5t-34 63.5t-11 77q0 60 19 116t54 99.5t84 70t109 26.5q45 0 77 -13.5t53 -36t31 -52.5t10 -63q0 -34 -9.5 -69t-20.5 -57h-286zM348 286q2 4 5 16.5
t3 30.5q0 31 -15 53t-53 22q-22 0 -40.5 -10.5t-33.5 -27.5t-26 -39t-17 -45h177z" />
    <glyph glyph-name="uni0436" unicode="&#x436;" horiz-adv-x="733" 
d="M289 209q-50 -52 -96 -104.5t-95 -104.5h-141l1 7l228 238l-120 230l1 7h124l107 -230h2l49 230h121l-49 -230h2l192 230h137l-2 -7l-219 -244l128 -224l-2 -7h-126l-117 211h-2l-44 -211h-121l44 209h-2z" />
    <glyph glyph-name="uni0437" unicode="&#x437;" horiz-adv-x="453" 
d="M106 290h109q41 0 54.5 19.5t13.5 45.5q0 20 -13 33t-47 13q-14 0 -31 -2t-35.5 -5t-36.5 -7.5t-33 -10.5l-14 88q35 14 78.5 23.5t81.5 9.5q93 0 135.5 -33t42.5 -85q0 -99 -87 -133v-2q25 -12 39 -36t14 -55q0 -36 -12 -67t-39 -53.5t-71 -35t-109 -12.5
q-52 0 -91.5 10.5t-68.5 26.5l30 92q26 -14 64.5 -22.5t76.5 -8.5q30 0 48.5 6t29.5 16.5t15 24t4 27.5q0 18 -12 27.5t-40 9.5h-117z" />
    <glyph glyph-name="uni0438" unicode="&#x438;" horiz-adv-x="549" 
d="M160 164l47 73l182 245h133l-102 -482h-118l48 224l24 94h-3l-61 -94l-167 -224h-133l102 482h118l-53 -246l-20 -72h3z" />
    <glyph glyph-name="uni0439" unicode="&#x439;" horiz-adv-x="549" 
d="M365 674q38 0 68.5 9.5t57.5 24.5l17 -78q-28 -23 -69.5 -43t-91.5 -20q-24 0 -44.5 6.5t-36.5 17t-28.5 22.5t-21.5 24l41 71q20 -15 46.5 -24.5t61.5 -9.5zM160 164l47 73l182 245h133l-102 -482h-118l48 224l24 94h-3l-61 -94l-167 -224h-133l102 482h118l-53 -246
l-20 -72h3z" />
    <glyph glyph-name="uni043A" unicode="&#x43a;" horiz-adv-x="492" 
d="M173 211l-45 -211h-118l102 482h118l-49 -230h2l193 230h137l-1 -7l-216 -244l124 -224l-1 -7h-127l-117 211h-2z" />
    <glyph glyph-name="uni043B" unicode="&#x43b;" horiz-adv-x="537" 
d="M372 386h-129l-40 -141q-22 -78 -45.5 -127t-52 -76.5t-64 -38t-81.5 -10.5l14 99q18 0 34 7t31.5 25.5t29.5 50t27 81.5l59 226h355l-103 -482h-117z" />
    <glyph glyph-name="uni043C" unicode="&#x43c;" horiz-adv-x="633" 
d="M300 221l40 62l147 199h119l-102 -482h-118l44 208l24 88h-1l-53 -82l-71 -99h-96l-27 99l-18 82h-2l-14 -88l-44 -208h-118l102 482h109l63 -199l14 -62h2z" />
    <glyph glyph-name="uni043D" unicode="&#x43d;" horiz-adv-x="543" 
d="M338 192h-169l-41 -192h-118l102 482h118l-40 -192h168l41 192h117l-102 -482h-117z" />
    <glyph glyph-name="uni043E" unicode="&#x43e;" horiz-adv-x="547" 
d="M158 191q0 -49 18.5 -77t54.5 -28q32 0 58 16.5t44 44t28 65t10 79.5q0 49 -18.5 77t-55.5 28q-32 0 -57.5 -16.5t-43.5 -44t-28 -65t-10 -79.5zM499 297q0 -62 -19 -118.5t-55 -99.5t-87.5 -68.5t-117.5 -25.5q-47 0 -82 15.5t-59 43t-36 64t-12 78.5q0 63 19.5 119.5
t56 99t88 67.5t114.5 25q48 0 83.5 -15.5t59 -42.5t35.5 -63.5t12 -78.5z" />
    <glyph glyph-name="uni043F" unicode="&#x43f;" horiz-adv-x="543" 
d="M379 386h-169l-82 -386h-118l102 482h404l-102 -482h-117z" />
    <glyph glyph-name="uni0440" unicode="&#x440;" horiz-adv-x="548" 
d="M202 482l9 -43h2q23 23 56 40.5t80 17.5q38 0 66.5 -15.5t47 -41.5t28 -61t9.5 -74q0 -61 -17.5 -118.5t-49 -102.5t-75.5 -72t-98 -27q-45 0 -73.5 16.5t-44.5 33.5h-2l-50 -233h-123l145 680h90zM156 114q14 -14 33.5 -21t42.5 -7q34 0 60 18t43.5 47.5t26.5 66t9 73.5
q0 45 -17.5 75t-56.5 30q-22 0 -45.5 -11t-43.5 -25z" />
    <glyph glyph-name="uni0441" unicode="&#x441;" horiz-adv-x="448" 
d="M31 185q0 66 20 123t57 99t89 66t117 24q43 0 74 -9.5t51 -20.5l-35 -92q-17 7 -39.5 14t-48.5 7q-31 0 -59.5 -13.5t-50 -39t-34.5 -62t-13 -82.5q0 -55 24.5 -84t66.5 -29q26 0 51.5 7t45.5 14l14 -92q-22 -10 -59.5 -20t-76.5 -10q-47 0 -83.5 15t-61 41.5t-37 63
t-12.5 80.5z" />
    <glyph glyph-name="uni0442" unicode="&#x442;" horiz-adv-x="422" 
d="M439 482l-20 -96h-127l-82 -386h-118l82 386h-126l20 96h371z" />
    <glyph glyph-name="uni0443" unicode="&#x443;" horiz-adv-x="489" 
d="M510 472l-310 -554q-36 -65 -80 -98t-101 -33q-24 0 -48.5 4t-38.5 8l19 90q14 -3 30.5 -6t30.5 -3q29 0 47.5 16.5t38.5 52.5l31 56l-72 467l2 10h120l22 -266l2 -100h3l44 100l131 266h131z" />
    <glyph glyph-name="uni0444" unicode="&#x444;" horiz-adv-x="794" 
d="M420 102q15 -9 31 -12.5t36 -3.5q31 0 53 13.5t36.5 35t23.5 47t13.5 49t5.5 42t1 26.5q0 42 -15 69.5t-52 27.5q-20 0 -38 -5.5t-37 -16.5zM356 380q-14 10 -31 13t-36 3q-26 0 -50 -13t-42 -39.5t-29 -67t-11 -94.5q0 -41 14.5 -68.5t51.5 -27.5q38 0 75 22zM499 465
q23 15 48.5 23.5t55.5 8.5q37 0 64 -14.5t44.5 -39t26 -58t8.5 -70.5q0 -59 -14.5 -117.5t-43.5 -106t-72.5 -77t-101.5 -29.5q-42 0 -67 11.5t-42 24.5h-2l-47 -219h-122l47 219h-2q-23 -14 -47.5 -25t-57.5 -11q-37 0 -64 14.5t-44.5 39t-26 57.5t-8.5 71q0 58 14.5 117
t43.5 106.5t72.5 77t101.5 29.5q37 0 65 -10t45 -22h2l50 235h122l-50 -235h2z" />
    <glyph glyph-name="uni0445" unicode="&#x445;" horiz-adv-x="495" 
d="M230 176l-128 -176h-136l2 10l186 231l-88 231l2 10h125l53 -177h2l128 177h136l-3 -10l-185 -231l87 -231l-2 -10h-122l-55 176h-2z" />
    <glyph glyph-name="uni0446" unicode="&#x446;" horiz-adv-x="563" 
d="M344 -120l15 120h-349l102 482h118l-82 -387h161l82 387h119l-82 -387h62l-64 -215h-82z" />
    <glyph glyph-name="uni0447" unicode="&#x447;" horiz-adv-x="484" 
d="M206 482l-42 -198q-5 -25 4.5 -40t41.5 -15q29 0 46 4.5t33 12.5l50 236h118l-103 -482h-118l33 152q-50 -22 -100 -22q-73 0 -105 44t-18 110l42 198h118z" />
    <glyph glyph-name="uni0448" unicode="&#x448;" horiz-adv-x="749" 
d="M10 0l102 482h118l-82 -387h128l82 387h118l-82 -387h126l83 387h119l-103 -482h-609z" />
    <glyph glyph-name="uni0449" unicode="&#x449;" horiz-adv-x="775" 
d="M555 -120l15 120h-560l102 482h118l-82 -387h128l82 387h118l-82 -387h126l83 387h119l-83 -387h62l-64 -215h-82z" />
    <glyph glyph-name="uni044A" unicode="&#x44a;" horiz-adv-x="517" 
d="M67 482h201l-36 -167h78q75 0 112.5 -32t37.5 -91q0 -93 -45.5 -142.5t-151.5 -49.5h-215l82 386h-83zM185 92h81q22 0 35.5 10.5t20.5 24t9 27t2 20.5q0 16 -8 31.5t-32 15.5h-80z" />
    <glyph glyph-name="uni044B" unicode="&#x44b;" horiz-adv-x="696" 
d="M230 482l-35 -168h77q75 0 112.5 -31.5t37.5 -90.5q0 -94 -46 -143t-151 -49h-215l102 482h118zM147 92h81q22 0 35.5 10t20.5 23.5t9 27.5t2 21q0 16 -8 31.5t-32 15.5h-80zM444 0l102 482h123l-102 -482h-123z" />
    <glyph glyph-name="uni044C" unicode="&#x44c;" horiz-adv-x="479" 
d="M230 482l-35 -168h77q75 0 112.5 -31.5t37.5 -90.5q0 -94 -46 -143t-151 -49h-215l102 482h118zM147 92h81q22 0 35.5 10t20.5 23.5t9 27.5t2 21q0 16 -8 31.5t-32 15.5h-80z" />
    <glyph glyph-name="uni044D" unicode="&#x44d;" horiz-adv-x="455" 
d="M407 295q0 -65 -19.5 -120.5t-56.5 -97t-90 -65t-119 -23.5q-33 0 -67 7.5t-63 24.5l41 93q26 -13 48.5 -19.5t51.5 -6.5q40 0 77.5 26t53.5 78h-169l20 96h165q2 48 -20 77.5t-62 29.5q-29 0 -52 -7t-55 -20l-25 94q35 16 72.5 23.5t70.5 7.5q48 0 85 -15t62 -41
t38 -62.5t13 -79.5z" />
    <glyph glyph-name="uni044E" unicode="&#x44e;" horiz-adv-x="778" 
d="M730 297q0 -62 -19 -118.5t-55 -99.5t-87.5 -68.5t-117.5 -25.5q-47 0 -82 15.5t-59 43t-36 64t-12 78.5v8h-93l-41 -194h-118l102 482h118l-40 -192h86q13 45 37 82.5t58 65.5t76.5 43.5t92.5 15.5q48 0 83.5 -15.5t59 -42.5t35.5 -63.5t12 -78.5zM389 191
q0 -49 18.5 -77t54.5 -28q32 0 58 16.5t44 44t28 65t10 79.5q0 49 -18.5 77t-55.5 28q-32 0 -57.5 -16.5t-43.5 -44t-28 -65t-10 -79.5z" />
    <glyph glyph-name="uni044F" unicode="&#x44f;" horiz-adv-x="511" 
d="M263 0l34 159h-41l-155 -159h-128l2 11l162 164q-35 14 -56.5 44t-21.5 73q0 37 10.5 71.5t34 61t62 42t94.5 15.5h224l-103 -482h-118zM345 386h-90q-35 0 -52 -26t-17 -57q0 -20 9.5 -34t31.5 -14h91z" />
    <glyph glyph-name="uni0450" unicode="&#x450;" horiz-adv-x="507" 
d="M151 206q-8 -54 14 -88.5t69 -34.5q38 0 72 10.5t68 25.5l21 -91q-36 -17 -85 -30t-97 -13q-47 0 -81 16t-57 43.5t-34 63.5t-11 77q0 60 19 116t54 99.5t84 70t109 26.5q45 0 77 -13.5t53 -36t31 -52.5t10 -63q0 -34 -9.5 -69t-20.5 -57h-286zM348 286q2 4 5 16.5
t3 30.5q0 31 -15 53t-53 22q-22 0 -40.5 -10.5t-33.5 -27.5t-26 -39t-17 -45h177zM237 713h124l41 -136l-2 -10h-102l-63 137z" />
    <glyph glyph-name="uni0451" unicode="&#x451;" horiz-adv-x="507" 
d="M151 206q-8 -54 14 -88.5t69 -34.5q38 0 72 10.5t68 25.5l21 -91q-36 -17 -85 -30t-97 -13q-47 0 -81 16t-57 43.5t-34 63.5t-11 77q0 60 19 116t54 99.5t84 70t109 26.5q45 0 77 -13.5t53 -36t31 -52.5t10 -63q0 -34 -9.5 -69t-20.5 -57h-286zM348 286q2 4 5 16.5
t3 30.5q0 31 -15 53t-53 22q-22 0 -40.5 -10.5t-33.5 -27.5t-26 -39t-17 -45h177zM372 626q0 35 24.5 59t62.5 24q28 0 43.5 -15t15.5 -40q0 -35 -25 -59t-63 -24q-28 0 -43 15t-15 40zM177 626q0 35 25 59t62 24q29 0 44 -15t15 -40q0 -35 -25 -59t-63 -24q-27 0 -42.5 15
t-15.5 40z" />
    <glyph glyph-name="uni0452" unicode="&#x452;" horiz-adv-x="537" 
d="M9 0l116 545h-44l20 93h44l13 62h121l-13 -62h92l-20 -93h-92l-22 -103h2q21 18 53.5 36.5t74.5 18.5q63 0 97 -45t34 -125q0 -55 -14.5 -113.5t-40 -119.5t-59.5 -124t-73 -127l-95 56q33 57 61.5 116t49 114t32.5 102.5t12 81.5q0 83 -54 83q-32 0 -57.5 -16.5
t-42.5 -33.5l-74 -346h-121z" />
    <glyph glyph-name="uni0453" unicode="&#x453;" horiz-adv-x="417" 
d="M471 704l-121 -137h-110l2 10l99 136h132zM434 482l-21 -96h-203l-82 -386h-118l102 482h322z" />
    <glyph glyph-name="uni0454" unicode="&#x454;" horiz-adv-x="453" 
d="M31 187q0 64 19.5 120t56.5 97.5t90 65t119 23.5q33 0 67 -7.5t63 -24.5l-41 -93q-26 13 -48.5 19.5t-51.5 6.5q-40 0 -77.5 -27t-53.5 -79h169l-20 -96h-165q-2 -48 20 -76.5t62 -28.5q29 0 52 7t55 20l25 -94q-35 -16 -72.5 -23.5t-70.5 -7.5q-48 0 -85 15t-62 41
t-38 62.5t-13 79.5z" />
    <glyph glyph-name="uni0455" unicode="&#x455;" horiz-adv-x="438" 
d="M40 121q28 -18 61 -29t68 -11q41 0 59.5 15t18.5 41q0 18 -12.5 30.5t-34.5 21.5l-53 23q-17 7 -33 18t-28.5 26t-20.5 34t-8 43q0 79 52 121.5t153 42.5q38 0 78 -9t74 -26l-41 -89q-26 13 -56 20.5t-62 7.5q-75 0 -75 -53q0 -32 43 -50l53 -23q38 -17 66 -47t28 -75
q0 -85 -54.5 -126.5t-152.5 -41.5q-48 0 -91.5 12t-76.5 34z" />
    <glyph glyph-name="uni0456" unicode="&#x456;" horiz-adv-x="262" 
d="M10 0l102 482h123l-102 -482h-123zM135 625q0 35 24.5 59t62.5 24q29 0 44 -15t15 -40q0 -35 -25 -59t-63 -24q-28 0 -43 15t-15 40z" />
    <glyph glyph-name="uni0457" unicode="&#x457;" horiz-adv-x="261" 
d="M231 626q0 35 24.5 59t62.5 24q28 0 43.5 -15t15.5 -40q0 -35 -25 -59t-63 -24q-28 0 -43 15t-15 40zM36 626q0 35 25 59t62 24q29 0 44 -15t15 -40q0 -35 -25 -59t-63 -24q-27 0 -42.5 15t-15.5 40zM10 0l102 482h123l-102 -482h-123z" />
    <glyph glyph-name="uni0458" unicode="&#x458;" horiz-adv-x="263" 
d="M236 482l-113 -531q-18 -86 -65.5 -125t-116.5 -39q-14 0 -34.5 2t-34.5 5l20 93q11 -3 22 -5t22 -2q26 0 40.5 17.5t22.5 52.5l113 532h124zM135 625q0 35 24.5 59t62.5 24q28 0 43.5 -15t15.5 -40q0 -36 -25 -59.5t-63 -23.5q-27 0 -42.5 15t-15.5 40z" />
    <glyph glyph-name="uni0459" unicode="&#x459;" horiz-adv-x="726" 
d="M477 482l-35 -168h77q75 0 112.5 -31.5t37.5 -90.5q0 -94 -46 -143t-151 -49h-215l82 386h-97l-39 -141q-23 -78 -47 -127t-53 -76.5t-64 -38t-80 -10.5l14 99q18 0 34 7t31.5 25.5t29.5 50t27 81.5l60 226h322zM395 95h81q32 0 49 23t17 55q0 16 -8 30.5t-32 14.5h-81z
" />
    <glyph glyph-name="uni045A" unicode="&#x45a;" horiz-adv-x="751" 
d="M502 482l-36 -168h78q75 0 112.5 -31.5t37.5 -90.5q0 -94 -46 -143t-151 -49h-215l46 218h-154l-46 -218h-118l102 482h118l-35 -168h153l36 168h118zM420 95h80q33 0 50 23t17 55q0 16 -8.5 30.5t-32.5 14.5h-80z" />
    <glyph glyph-name="uni045B" unicode="&#x45b;" horiz-adv-x="542" 
d="M294 0l63 295q11 48 -2 74.5t-51 26.5q-33 0 -56.5 -15.5t-40.5 -32.5l-75 -348h-123l116 545h-42l19 93h43l13 62h123l-13 -62h91l-20 -93h-91l-22 -102h2q22 18 53.5 36t73.5 18q81 0 114 -50.5t13 -144.5l-65 -302h-123z" />
    <glyph glyph-name="uni045C" unicode="&#x45c;" horiz-adv-x="492" 
d="M494 704l-121 -137h-110l2 10l99 136h132zM173 211l-45 -211h-118l102 482h118l-49 -230h2l193 230h137l-1 -7l-216 -244l124 -224l-1 -7h-127l-117 211h-2z" />
    <glyph glyph-name="uni045D" unicode="&#x45d;" horiz-adv-x="549" 
d="M245 713h124l41 -136l-2 -10h-102l-63 137zM160 164l47 73l182 245h133l-102 -482h-118l48 224l24 94h-3l-61 -94l-167 -224h-133l102 482h118l-53 -246l-20 -72h3z" />
    <glyph glyph-name="uni045E" unicode="&#x45e;" horiz-adv-x="489" 
d="M510 472l-310 -554q-36 -65 -80 -98t-101 -33q-24 0 -48.5 4t-38.5 8l19 90q14 -3 30.5 -6t30.5 -3q29 0 47.5 16.5t38.5 52.5l31 56l-72 467l2 10h120l22 -266l2 -100h3l44 100l131 266h131zM317 674q38 0 68.5 9.5t57.5 24.5l17 -78q-28 -23 -69.5 -43t-91.5 -20
q-24 0 -44.5 6.5t-36.5 17t-28.5 22.5t-21.5 24l41 71q20 -15 46.5 -24.5t61.5 -9.5z" />
    <glyph glyph-name="uni045F" unicode="&#x45f;" horiz-adv-x="537" 
d="M144 -120l12 120h-146l102 482h118l-82 -387h161l82 387h119l-102 -482h-145l-38 -120h-81z" />
    <glyph glyph-name="uni0462" unicode="&#x462;" horiz-adv-x="654" 
d="M366 680l-13 -61h169l-22 -103h-169l-20 -92h114q90 0 136 -42t46 -120q0 -123 -62 -192.5t-190 -69.5h-259l110 516h-122l22 103h122l13 61h125zM243 103h115q30 0 52 12.5t35.5 32t20 44.5t6.5 51q0 34 -15.5 56t-52.5 22h-115z" />
    <glyph glyph-name="uni0463" unicode="&#x463;" horiz-adv-x="519" 
d="M318 701l-47 -219h140l-21 -96h-139l-16 -72h78q75 0 112.5 -31.5t37.5 -90.5q0 -94 -46 -143t-151 -49h-215l82 386h-84l20 96h84l47 219h118zM189 95h80q24 0 37.5 11t20 24.5t8 26t1.5 16.5q0 16 -8.5 30.5t-32.5 14.5h-80z" />
    <glyph glyph-name="uni0472" unicode="&#x472;" horiz-adv-x="696" 
d="M663 430q0 -84 -23 -164t-69 -142.5t-115 -100.5t-161 -38q-62 0 -107 20.5t-74 56.5t-43 84.5t-14 103.5q0 84 23 164t69 142.5t115 100.5t162 38q61 0 106 -20.5t74 -56.5t43 -84.5t14 -103.5zM186 257q0 -35 7 -65.5t21.5 -53t37.5 -35t55 -12.5q44 0 78.5 17t60 45.5
t43 65t27.5 76.5h-329q-1 -10 -1 -19.5v-18.5zM413 589q-43 0 -76.5 -16t-59.5 -43.5t-44 -63t-29 -74.5h328q0 8 0.5 15.5t0.5 15.5q0 35 -6.5 65t-21 52.5t-37 35.5t-55.5 13z" />
    <glyph glyph-name="uni0473" unicode="&#x473;" horiz-adv-x="547" 
d="M499 297q0 -62 -19 -118.5t-55 -99.5t-87.5 -68.5t-117.5 -25.5q-47 0 -82 15.5t-59 43t-36 64t-12 78.5q0 63 19.5 119.5t56 99t88 67.5t114.5 25q48 0 83.5 -15.5t59 -42.5t35.5 -63.5t12 -78.5zM158 191q0 -49 18.5 -77t54.5 -28q45 0 77 30.5t48 79.5h-198v-5z
M297 396q-45 0 -76.5 -30.5t-48.5 -79.5h199v5q0 49 -18.5 77t-55.5 28z" />
    <glyph glyph-name="uni0474" unicode="&#x474;" horiz-adv-x="614" 
d="M318 0h-154l-68 670l2 10h126l27 -388l5 -184h3l84 185l128 265q34 71 82 104t126 33l-20 -106q-26 0 -44.5 -20.5t-35.5 -53.5z" />
    <glyph glyph-name="uni0475" unicode="&#x475;" horiz-adv-x="502" 
d="M342 385q26 52 66 80t111 28l-20 -98q-19 0 -32 -16.5t-21 -31.5l-191 -347h-135l-62 472l2 10h116l24 -279l3 -101h2l46 101z" />
    <glyph glyph-name="uni0490" unicode="&#x490;" horiz-adv-x="511" 
d="M586 821l-37 -244h-277l-123 -577h-125l145 680h275l45 141h97z" />
    <glyph glyph-name="uni0491" unicode="&#x491;" horiz-adv-x="415" 
d="M448 588l-35 -202h-203l-82 -386h-118l102 482h215l37 106h84z" />
    <glyph glyph-name="uni04AE" unicode="&#x4ae;" horiz-adv-x="547" 
d="M218 680l72 -292h2l196 292h139l-2 -10l-290 -394l-58 -276h-125l58 276l-123 394l2 10h129z" />
    <glyph glyph-name="uni04AF" unicode="&#x4af;" horiz-adv-x="498" 
d="M84 -198l42 201l-68 469l2 10h116l26 -267l3 -101h2l46 101l140 267h126l-2 -10l-268 -470l-42 -200h-123z" />
    <glyph glyph-name="uni04E8" unicode="&#x4e8;" horiz-adv-x="696" 
d="M663 430q0 -84 -23 -164t-69 -142.5t-115 -100.5t-161 -38q-62 0 -107 20.5t-74 56.5t-43 84.5t-14 103.5q0 84 23 164t69 142.5t115 100.5t162 38q61 0 106 -20.5t74 -56.5t43 -84.5t14 -103.5zM186 257q0 -35 7 -65.5t21.5 -53t37.5 -35t55 -12.5q44 0 78.5 17t60 45.5
t43 65t27.5 76.5h-329q-1 -10 -1 -19.5v-18.5zM413 589q-43 0 -76.5 -16t-59.5 -43.5t-44 -63t-29 -74.5h328q0 8 0.5 15.5t0.5 15.5q0 35 -6.5 65t-21 52.5t-37 35.5t-55.5 13z" />
    <glyph glyph-name="uni04E9" unicode="&#x4e9;" horiz-adv-x="547" 
d="M499 297q0 -62 -19 -118.5t-55 -99.5t-87.5 -68.5t-117.5 -25.5q-47 0 -82 15.5t-59 43t-36 64t-12 78.5q0 63 19.5 119.5t56 99t88 67.5t114.5 25q48 0 83.5 -15.5t59 -42.5t35.5 -63.5t12 -78.5zM158 191q0 -49 18.5 -77t54.5 -28q45 0 77 30.5t48 79.5h-198v-5z
M297 396q-45 0 -76.5 -30.5t-48.5 -79.5h199v5q0 49 -18.5 77t-55.5 28z" />
    <glyph glyph-name="uni0E3F" unicode="&#xe3f;" 
d="M394 678q68 -5 104 -43t36 -103q0 -36 -9 -65.5t-24 -53t-34 -40t-39 -26.5v-2q31 -16 47.5 -44.5t16.5 -71.5q0 -47 -11 -87.5t-38 -70.5t-74 -49t-119 -22l-23 -108h-72l23 108h-171l145 680h170l19 90h72zM361 236q0 27 -11 43.5t-37 17.5l-41 -190q24 0 40.5 12
t27.5 30.5t16 41.5t5 45zM157 106h43l41 193h-43zM219 399h43l38 175h-44zM408 512q0 26 -9 42t-28 18l-36 -171q35 1 54 33.5t19 77.5z" />
    <glyph glyph-name="Wgrave" unicode="&#x1e80;" horiz-adv-x="907" 
d="M967 670l-304 -670h-149l-6 400l8 166h-2l-64 -166l-176 -400h-150l-19 670l2 10h130l-8 -395l-6 -169h2l64 169l172 395h147l3 -395l-7 -169h2l65 169l160 395h138zM447 896h132l33 -136l-2 -10h-111l-54 137z" />
    <glyph glyph-name="wgrave" unicode="&#x1e81;" horiz-adv-x="762" 
d="M776 472l-226 -472h-135l-17 285l4 99h-2l-39 -99l-138 -285h-134l-25 472l2 10h113l4 -284l-7 -97h2l40 97l132 284h134l12 -284l-1 -97h2l34 97l123 284h124zM326 713h124l41 -136l-2 -10h-102l-63 137z" />
    <glyph glyph-name="Wacute" unicode="&#x1e82;" horiz-adv-x="907" 
d="M967 670l-304 -670h-149l-6 400l8 166h-2l-64 -166l-176 -400h-150l-19 670l2 10h130l-8 -395l-6 -169h2l64 169l172 395h147l3 -395l-7 -169h2l65 169l160 395h138zM728 887l-112 -137h-119l2 10l91 136h140z" />
    <glyph glyph-name="wacute" unicode="&#x1e83;" horiz-adv-x="762" 
d="M776 472l-226 -472h-135l-17 285l4 99h-2l-39 -99l-138 -285h-134l-25 472l2 10h113l4 -284l-7 -97h2l40 97l132 284h134l12 -284l-1 -97h2l34 97l123 284h124zM621 704l-121 -137h-110l2 10l99 136h132z" />
    <glyph glyph-name="Wdieresis" unicode="&#x1e84;" horiz-adv-x="907" 
d="M967 670l-304 -670h-149l-6 400l8 166h-2l-64 -166l-176 -400h-150l-19 670l2 10h130l-8 -395l-6 -169h2l64 169l172 395h147l3 -395l-7 -169h2l65 169l160 395h138zM380 804q0 35 24.5 59t62.5 24q29 0 44 -15t15 -40q0 -35 -25 -59t-63 -24q-28 0 -43 15t-15 40z
M611 804q0 35 25 59t62 24q29 0 44 -15t15 -40q0 -35 -25 -59t-63 -24q-27 0 -42.5 15t-15.5 40z" />
    <glyph glyph-name="wdieresis" unicode="&#x1e85;" horiz-adv-x="762" 
d="M776 472l-226 -472h-135l-17 285l4 99h-2l-39 -99l-138 -285h-134l-25 472l2 10h113l4 -284l-7 -97h2l40 97l132 284h134l12 -284l-1 -97h2l34 97l123 284h124zM480 626q0 35 24.5 59t62.5 24q28 0 43.5 -15t15.5 -40q0 -35 -25 -59t-63 -24q-28 0 -43 15t-15 40z
M285 626q0 35 25 59t62 24q29 0 44 -15t15 -40q0 -35 -25 -59t-63 -24q-27 0 -42.5 15t-15.5 40z" />
    <glyph glyph-name="uni1E9E" unicode="&#x1e9e;" horiz-adv-x="645" 
d="M112 441q12 58 35 105t58.5 80t85.5 51t117 18q59 0 114 -21t93 -50l-18 -83l-131 -155v-2q57 -11 89.5 -48t32.5 -99q0 -56 -18.5 -102.5t-51.5 -79.5t-79 -51.5t-101 -18.5q-35 0 -64.5 3.5t-49.5 8.5l23 105q16 -5 36 -8.5t43 -3.5q32 0 56 11.5t39.5 30t23.5 43
t8 50.5q0 30 -16 50.5t-55 20.5h-65l19 88l143 181q-32 21 -90 21q-121 0 -151 -143l-94 -443h-126z" />
    <glyph glyph-name="Ygrave" unicode="&#x1ef2;" horiz-adv-x="547" 
d="M218 680l72 -292h2l196 292h139l-2 -10l-290 -394l-58 -276h-125l58 276l-123 394l2 10h129zM266 896h132l33 -136l-2 -10h-111l-54 137z" />
    <glyph glyph-name="ygrave" unicode="&#x1ef3;" horiz-adv-x="489" 
d="M510 472l-310 -554q-36 -65 -80 -98t-101 -33q-24 0 -48.5 4t-38.5 8l19 90q14 -3 30.5 -6t30.5 -3q29 0 47.5 16.5t38.5 52.5l31 56l-72 467l2 10h120l22 -266l2 -100h3l44 100l131 266h131zM193 713h124l41 -136l-2 -10h-102l-63 137z" />
    <glyph glyph-name="endash" unicode="&#x2013;" horiz-adv-x="538" 
d="M52 220l22 103h408l-22 -103h-408z" />
    <glyph glyph-name="emdash" unicode="&#x2014;" horiz-adv-x="828" 
d="M52 220l22 103h698l-22 -103h-698z" />
    <glyph glyph-name="quoteleft" unicode="&#x2018;" horiz-adv-x="269" 
d="M308 670l-121 -286h-122l2 10l152 286h91z" />
    <glyph glyph-name="quoteright" unicode="&#x2019;" horiz-adv-x="267" 
d="M72 394l121 286h122l-2 -10l-151 -286h-92z" />
    <glyph glyph-name="quotesinglbase" unicode="&#x201a;" horiz-adv-x="259" 
d="M-70 -151l121 286h122l-2 -10l-151 -286h-92z" />
    <glyph glyph-name="quotedblleft" unicode="&#x201c;" horiz-adv-x="476" 
d="M515 670l-121 -286h-122l2 10l152 286h91zM308 670l-121 -286h-122l2 10l152 286h91z" />
    <glyph glyph-name="quotedblright" unicode="&#x201d;" horiz-adv-x="475" 
d="M72 394l121 286h122l-2 -10l-151 -286h-92zM280 394l121 286h122l-2 -10l-151 -286h-92z" />
    <glyph glyph-name="quotedblbase" unicode="&#x201e;" horiz-adv-x="467" 
d="M-70 -151l121 286h122l-2 -10l-151 -286h-92zM138 -151l121 286h122l-2 -10l-151 -286h-92z" />
    <glyph glyph-name="dagger" unicode="&#x2020;" horiz-adv-x="427" 
d="M217 482l46 218h79l-46 -218h146l-17 -81h-146l-127 -599h-80l128 599h-147l17 81h147z" />
    <glyph glyph-name="daggerdbl" unicode="&#x2021;" horiz-adv-x="479" 
d="M245 482l46 218h79l-46 -218h145l-17 -81h-145l-64 -300h145l-17 -81h-145l-46 -218h-80l47 218h-147l17 81h147l64 300h-147l17 81h147z" />
    <glyph glyph-name="bullet" unicode="&#x2022;" horiz-adv-x="377" 
d="M74 267q0 29 10.5 54.5t29.5 44t44.5 29t55.5 10.5q44 0 67.5 -25t23.5 -65q0 -29 -10.5 -54.5t-29.5 -44t-44.5 -29t-55.5 -10.5q-44 0 -67.5 25t-23.5 65z" />
    <glyph glyph-name="ellipsis" unicode="&#x2026;" horiz-adv-x="737" 
d="M4 50q0 21 7.5 39t21 31.5t31.5 21.5t38 8q31 0 48 -18.5t17 -47.5q0 -42 -29 -70.5t-71 -28.5q-30 0 -46.5 18t-16.5 47zM243 50q0 21 7.5 39t21 31.5t31.5 21.5t38 8q31 0 48 -18.5t17 -47.5q0 -42 -29 -70.5t-71 -28.5q-30 0 -46.5 18t-16.5 47zM480 50q0 21 7.5 39
t21 31.5t31.5 21.5t38 8q31 0 48 -18.5t17 -47.5q0 -42 -29 -70.5t-71 -28.5q-30 0 -46.5 18t-16.5 47z" />
    <glyph glyph-name="perthousand" unicode="&#x2030;" horiz-adv-x="1139" 
d="M64 0l2 10l590 670h108l-3 -10l-589 -670h-108zM871 134q0 -34 11 -49.5t29 -15.5q24 0 40.5 12.5t27 32.5t15.5 46.5t5 55.5q0 65 -43 65q-17 0 -32 -10.5t-27 -29.5t-19 -46.5t-7 -60.5zM1088 221q0 -42 -12 -83.5t-35.5 -73.5t-58.5 -52t-82 -20q-31 0 -53 11
t-36.5 29.5t-21 43t-6.5 52.5q0 42 11.5 83.5t34.5 74t57.5 52.5t80.5 20q32 0 55 -11t37.5 -30t21.5 -43.5t7 -52.5zM169 462q0 -34 11 -49.5t29 -15.5q24 0 40.5 12.5t27 32.5t15.5 46.5t5 55.5q0 65 -43 65q-17 0 -32 -10.5t-27 -29.5t-19 -46.5t-7 -60.5zM386 549
q0 -42 -12 -83.5t-35.5 -73.5t-58.5 -52t-82 -20q-31 0 -53 11t-36.5 29.5t-21 43t-6.5 52.5q0 42 11.5 83.5t34.5 74t57.5 52.5t80.5 20q32 0 55 -11t37.5 -30t21.5 -43.5t7 -52.5zM527 134q0 -34 11 -49.5t29 -15.5q24 0 40.5 12.5t27 32.5t15.5 46.5t5 55.5q0 65 -43 65
q-17 0 -32 -10.5t-27 -29.5t-19 -46.5t-7 -60.5zM744 221q0 -42 -12 -83.5t-35.5 -73.5t-58.5 -52t-82 -20q-31 0 -53 11t-36.5 29.5t-21 43t-6.5 52.5q0 42 11.5 83.5t34.5 74t57.5 52.5t80.5 20q32 0 55 -11t37.5 -30t21.5 -43.5t7 -52.5z" />
    <glyph glyph-name="guilsinglleft" unicode="&#x2039;" horiz-adv-x="312" 
d="M37 276l191 219l71 -54l-126 -177l52 -176l-88 -43l-103 219z" />
    <glyph glyph-name="guilsinglright" unicode="&#x203a;" horiz-adv-x="313" 
d="M271 264l-191 -219l-71 54l126 177l-52 176l88 43l103 -219z" />
    <glyph glyph-name="fraction" unicode="&#x2044;" horiz-adv-x="157" 
d="M-259 0l2 10l590 670h108l-3 -10l-589 -670h-108z" />
    <glyph glyph-name="uni2070" unicode="&#x2070;" horiz-adv-x="354" 
d="M185 582q0 -34 11 -49.5t29 -15.5q24 0 40.5 12.5t27 32.5t15.5 46.5t5 55.5q0 65 -43 65q-17 0 -32 -10.5t-27 -29.5t-19 -46.5t-7 -60.5zM402 669q0 -42 -12 -83.5t-35.5 -73.5t-58.5 -52t-82 -20q-31 0 -53 11t-36.5 29.5t-21 43t-6.5 52.5q0 42 11.5 83.5t34.5 74
t57.5 52.5t80.5 20q32 0 55 -11t37.5 -30t21.5 -43.5t7 -52.5z" />
    <glyph glyph-name="uni2074" unicode="&#x2074;" horiz-adv-x="320" 
d="M350 686l-19 -89h37l-16 -75h-37l-16 -74h-84l16 74h-158l14 68l124 209h89l-115 -201l-1 -1h63l18 89h85z" />
    <glyph glyph-name="uni2075" unicode="&#x2075;" horiz-adv-x="295" 
d="M110 603l57 196h196l-16 -76h-122l-13 -47h5q51 0 81 -22t30 -69q0 -68 -41 -106.5t-122 -38.5q-23 0 -51 4.5t-51 15.5l26 76q19 -10 41 -14t44 -4t34.5 5t19 12t8 15.5t1.5 15.5q0 17 -10.5 25.5t-34.5 8.5q-20 0 -38.5 -1.5t-35.5 -3.5z" />
    <glyph glyph-name="uni2076" unicode="&#x2076;" horiz-adv-x="314" 
d="M347 793l-109 -117v-1q5 2 14 4t20 2q35 0 60 -24.5t25 -67.5q0 -33 -11.5 -60.5t-32 -47t-48.5 -30.5t-62 -11q-31 0 -53.5 9t-37 24t-21.5 34.5t-7 39.5q0 32 11.5 58t39.5 60l112 134h101zM268 579q0 35 -38 35q-28 0 -43.5 -16t-15.5 -45q0 -37 38 -37
q32 0 45.5 17.5t13.5 45.5z" />
    <glyph glyph-name="uni2077" unicode="&#x2077;" horiz-adv-x="286" 
d="M75 453l193 269v1h-153l16 76h248l-15 -70l-197 -281h-93z" />
    <glyph glyph-name="uni2078" unicode="&#x2078;" horiz-adv-x="326" 
d="M211 509q35 0 47.5 15.5t12.5 34.5q0 14 -9.5 24t-32.5 10q-19 0 -31 -5t-19 -12.5t-9.5 -17t-2.5 -17.5q0 -14 9.5 -23t34.5 -9zM264 806q55 0 83 -25.5t28 -61.5q0 -20 -6 -35t-16 -26t-21.5 -18t-23.5 -12v-1q21 -8 34 -25.5t13 -44.5q0 -55 -42 -86t-107 -31
q-60 0 -92 25.5t-32 65.5q0 42 24 68t59 38v1q-13 7 -23.5 20.5t-10.5 37.5q0 48 36.5 79t96.5 31zM243 662q29 0 40.5 14.5t11.5 32.5q0 12 -8 21t-27 9q-27 0 -39 -15t-12 -32q0 -14 7.5 -22t26.5 -8z" />
    <glyph glyph-name="uni2079" unicode="&#x2079;" horiz-adv-x="314" 
d="M112 454l109 117v1q-5 -2 -14 -4t-20 -2q-35 0 -60 24.5t-25 67.5q0 33 11.5 60.5t32 47t48.5 30.5t62 11q31 0 53.5 -9t37 -24t21.5 -34.5t7 -39.5q0 -32 -11.5 -58t-39.5 -60l-112 -134h-101zM191 668q0 -35 38 -35q28 0 43.5 16t15.5 45q0 37 -38 37
q-32 0 -45.5 -17.5t-13.5 -45.5z" />
    <glyph glyph-name="uni207A" unicode="&#x207a;" horiz-adv-x="240" 
d="M234 661h59l-14 -68h-60l-15 -71h-69l16 71h-58l14 68h58l15 72h69z" />
    <glyph glyph-name="uni207B" unicode="&#x207b;" horiz-adv-x="267" 
d="M107 593l14 68h186l-14 -68h-186z" />
    <glyph glyph-name="uni207D" unicode="&#x207d;" horiz-adv-x="179" 
d="M92 548q0 57 13.5 105.5t34.5 89.5t45.5 74.5t45.5 59.5l44 -38q-24 -35 -44.5 -68.5t-34.5 -69.5t-22 -76.5t-8 -88.5q0 -36 4 -77t10 -70l-52 -19q-12 29 -24 76t-12 102z" />
    <glyph glyph-name="uni207E" unicode="&#x207e;" horiz-adv-x="180" 
d="M233 699q0 -57 -13.5 -105.5t-34.5 -89.5t-45.5 -74.5t-45.5 -59.5l-44 38q24 35 44.5 68.5t34.5 69.5t22 76.5t8 88.5q0 36 -4 77t-10 70l52 19q12 -29 24 -76t12 -102z" />
    <glyph glyph-name="uni2080" unicode="&#x2080;" horiz-adv-x="354" 
d="M65 15q0 -34 11 -49.5t29 -15.5q24 0 40.5 12.5t27 32.5t15.5 46.5t5 55.5q0 65 -43 65q-17 0 -32 -10.5t-27 -29.5t-19 -46.5t-7 -60.5zM282 102q0 -42 -12 -83.5t-35.5 -73.5t-58.5 -52t-82 -20q-31 0 -53 11t-36.5 29.5t-21 43t-6.5 52.5q0 42 11.5 83.5t34.5 74
t57.5 52.5t80.5 20q32 0 55 -11t37.5 -30t21.5 -43.5t7 -52.5z" />
    <glyph glyph-name="uni2081" unicode="&#x2081;" horiz-adv-x="242" 
d="M-21 97l17 81l132 54h64l-75 -351h-85l55 256h-1l-100 -40h-7z" />
    <glyph glyph-name="uni2082" unicode="&#x2082;" horiz-adv-x="313" 
d="M94 -45h119l-16 -74h-250l14 67l164 122q32 23 32 56q0 14 -8.5 25t-25.5 11q-23 0 -41 -12.5t-37 -28.5l-46 58q9 9 22.5 19.5t30.5 19.5t37.5 15t44.5 6q48 0 80.5 -26t32.5 -71q0 -23 -5.5 -41.5t-15.5 -33.5t-25 -28.5t-33 -26.5l-74 -55v-2z" />
    <glyph glyph-name="uni2083" unicode="&#x2083;" horiz-adv-x="307" 
d="M35 93h63q29 0 39.5 12t10.5 30q0 11 -8.5 19t-30.5 8q-20 0 -43.5 -4.5t-42.5 -12.5l-19 71q23 9 52 16t61 7q59 0 91 -23.5t32 -63.5q0 -22 -6.5 -38t-17 -27.5t-23 -18.5t-24.5 -10v-1q20 -8 32.5 -24.5t12.5 -43.5q0 -51 -37.5 -83.5t-121.5 -32.5q-33 0 -59.5 7.5
t-46.5 19.5l27 73q15 -9 38.5 -15.5t47.5 -6.5q35 0 50 11t15 34t-43 23h-64z" />
    <glyph glyph-name="uni2084" unicode="&#x2084;" horiz-adv-x="320" 
d="M230 119l-19 -89h37l-16 -75h-37l-16 -74h-84l16 74h-158l14 68l124 209h89l-115 -201l-1 -1h63l18 89h85z" />
    <glyph glyph-name="uni2085" unicode="&#x2085;" horiz-adv-x="295" 
d="M-10 36l57 196h196l-16 -76h-122l-13 -47h5q51 0 81 -22t30 -69q0 -68 -41 -106.5t-122 -38.5q-23 0 -51 4.5t-51 15.5l26 76q19 -10 41 -14t44 -4t34.5 5t19 12t8 15.5t1.5 15.5q0 17 -10.5 25.5t-34.5 8.5q-20 0 -38.5 -1.5t-35.5 -3.5z" />
    <glyph glyph-name="uni2086" unicode="&#x2086;" horiz-adv-x="314" 
d="M227 226l-109 -117v-1q5 2 14 4t20 2q35 0 60 -24.5t25 -67.5q0 -33 -11.5 -60.5t-32 -47t-48.5 -30.5t-62 -11q-31 0 -53.5 9t-37 24t-21.5 34.5t-7 39.5q0 32 11.5 58t39.5 60l112 134h101zM148 12q0 35 -38 35q-28 0 -43.5 -16t-15.5 -45q0 -37 38 -37q32 0 45.5 17.5
t13.5 45.5z" />
    <glyph glyph-name="uni2087" unicode="&#x2087;" horiz-adv-x="286" 
d="M-45 -114l193 269v1h-153l16 76h248l-15 -70l-197 -281h-93z" />
    <glyph glyph-name="uni2088" unicode="&#x2088;" horiz-adv-x="327" 
d="M92 -58q35 0 47.5 15.5t12.5 34.5q0 14 -9.5 24t-32.5 10q-19 0 -31 -5t-19 -12.5t-9.5 -17t-2.5 -17.5q0 -14 9.5 -23t34.5 -9zM145 239q55 0 83 -25.5t28 -61.5q0 -20 -6 -35t-16 -26t-21.5 -18t-23.5 -12v-1q21 -8 34 -25.5t13 -44.5q0 -55 -42 -86t-107 -31
q-60 0 -92 25.5t-32 65.5q0 42 24 68t59 38v1q-13 7 -23.5 20.5t-10.5 37.5q0 48 36.5 79t96.5 31zM124 95q29 0 40.5 14.5t11.5 32.5q0 12 -8 21t-27 9q-27 0 -39 -15t-12 -32q0 -14 7.5 -22t26.5 -8z" />
    <glyph glyph-name="uni2089" unicode="&#x2089;" horiz-adv-x="314" 
d="M-8 -113l109 117v1q-5 -2 -14 -4t-20 -2q-35 0 -60 24.5t-25 67.5q0 33 11.5 60.5t32 47t48.5 30.5t62 11q31 0 53.5 -9t37 -24t21.5 -34.5t7 -39.5q0 -32 -11.5 -58t-39.5 -60l-112 -134h-101zM71 101q0 -35 38 -35q28 0 43.5 16t15.5 45q0 37 -38 37q-32 0 -45.5 -17.5
t-13.5 -45.5z" />
    <glyph glyph-name="uni208D" unicode="&#x208d;" horiz-adv-x="179" 
d="M-28 -19q0 57 13.5 105.5t34.5 89.5t45.5 74.5t45.5 59.5l44 -38q-24 -35 -44.5 -68.5t-34.5 -69.5t-22 -76.5t-8 -88.5q0 -36 4 -77t10 -70l-52 -19q-12 29 -24 76t-12 102z" />
    <glyph glyph-name="uni208E" unicode="&#x208e;" horiz-adv-x="179" 
d="M113 132q0 -57 -13.5 -105.5t-34.5 -89.5t-45.5 -74.5t-45.5 -59.5l-44 38q24 35 44.5 68.5t34.5 69.5t22 76.5t8 88.5q0 36 -4 77t-10 70l52 19q12 -29 24 -76t12 -102z" />
    <glyph glyph-name="colonmonetary" unicode="&#x20a1;" 
d="M539 675q25 -11 51 -24l-55 -100q-11 5 -20 9.5t-20 8.5l-178 -475q31 2 60.5 10t67.5 25l23 -100q-46 -22 -98.5 -33t-94.5 -11h-2l-36 -93h-63l38 99q-11 2 -20 5t-20 6l-42 -110h-63l53 142q-39 33 -61 89t-22 127q0 84 23 159t66.5 134t106 98t141.5 50l31 79h63
l-30 -75q12 -1 22 -2t21 -3l31 80h63zM219 119q8 -6 17 -11.5t20 -8.5l182 484q-8 2 -17.5 3t-17.5 1h-9zM164 267q0 -34 3.5 -60.5t8.5 -43.5l150 416q-33 -17 -62 -48t-51.5 -72t-35.5 -90t-13 -102z" />
    <glyph glyph-name="lira" unicode="&#x20a4;" 
d="M255 206q-10 -27 -28 -55.5t-38 -45.5l-1 -2h267l-22 -103h-417l18 86q42 23 60.5 51t25.5 60l2 9h-71l20 95h61q1 15 4 37.5t5 39.5h-53l20 95h47q1 4 1.5 7t1.5 7q22 109 81.5 158.5t168.5 49.5q44 0 88.5 -12.5t79.5 -32.5l-46 -104q-31 16 -64.5 26t-71.5 10
q-41 0 -66 -22t-35 -73q-1 -4 -1 -7t-2 -7h170l-20 -95h-161l-9 -77h154l-21 -95h-148z" />
    <glyph glyph-name="uni20A6" unicode="&#x20a6;" 
d="M509 221l-47 -221h-182l-30 221h-119l-47 -221h-118l47 221h-44l18 83h44l16 75h-45l18 83h44l47 218h183l24 -218h124l46 218h118l-46 -218h45l-18 -83h-45l-16 -75h45l-18 -83h-44zM341 304h70l14 75h-94zM160 379l-13 -75h91l-9 75h-69zM374 97l23 124h-43l17 -124h3z
M194 589l-20 -127h41l-18 127h-3z" />
    <glyph glyph-name="uni20A8" unicode="&#x20a8;" 
d="M412 410q-24 -69 -73 -110.5t-131 -49.5l144 -228l-4 -16h-137l-152 261l18 86h96q85 0 110 57h-207l49 100h179q0 29 -22 44.5t-62 15.5h-110l52 116h431l-47 -95h-163v-2q26 -14 34.5 -37t10.5 -42h128l-48 -100h-96z" />
    <glyph glyph-name="uni20AA" unicode="&#x20aa;" horiz-adv-x="667" 
d="M339 194l48 227q9 42 10 71.5t-8 47.5t-28.5 26t-50.5 8h-85l-122 -574h-129l145 680h203q67 0 108 -15.5t60.5 -47.5t19.5 -81.5t-15 -117.5l-48 -224h-108zM722 681l-89 -419q-14 -68 -35 -117.5t-53.5 -81.5t-80 -47.5t-115.5 -15.5h-204l103 486h111l-81 -380h84
q32 0 54.5 8t39 26t27.5 47.5t20 71.5l90 422h129z" />
    <glyph glyph-name="dong" unicode="&#x20ab;" 
d="M525 575l-94 -445h-101l-6 27h-2q-23 -17 -51 -28t-73 -11q-38 0 -66.5 13.5t-48 36t-29 52.5t-9.5 63q0 49 15.5 94.5t44.5 80.5t70 56t92 21q42 0 71 -10t44 -21h2l15 71h-87l18 81h87l9 44h126l-9 -44h39l-17 -81h-40zM366 423q-14 7 -32 10t-38 3q-29 0 -51 -11
t-37.5 -30t-23.5 -44t-8 -53q0 -36 18 -59t55 -23q20 0 40.5 6.5t37.5 14.5zM13 0l17 81h389l-17 -81h-389z" />
    <glyph glyph-name="Euro" unicode="&#x20ac;" 
d="M213 206q3 -54 30 -81t72 -27q34 0 64.5 7.5t72.5 27.5l22 -106q-44 -22 -88 -32t-85 -10q-105 0 -161 59t-61 162h-71l48 95h29q3 19 7 38t10 39h-57l47 95h44q48 102 119.5 162t176.5 60q41 0 81.5 -11t72.5 -33l-46 -104q-32 19 -59.5 27t-62.5 8q-44 0 -82.5 -27.5
t-64.5 -81.5h231l-47 -95h-226q-7 -19 -11 -38t-6 -39h214l-47 -95h-166z" />
    <glyph glyph-name="uni20AD" unicode="&#x20ad;" 
d="M368 287l105 -277l-2 -10h-149l-90 287h-25l-61 -287h-130l61 287h-47l20 95h47l64 298h130l-64 -298h25l209 298h145l-2 -10l-219 -288h134l-20 -95h-131z" />
    <glyph glyph-name="uni20AE" unicode="&#x20ae;" 
d="M417 240l-95 -34l-44 -206h-130l34 159l-94 -33l18 83l94 33l14 67l-94 -33l18 83l93 33l39 182h-173l23 106h477l-23 -106h-174l-28 -135l95 34l-18 -83l-95 -34l-14 -67l95 34z" />
    <glyph glyph-name="uni20B1" unicode="&#x20b1;" 
d="M472 308q-37 -73 -95.5 -116t-142.5 -43h-52l-32 -149h-129l65 308h-43l17 80h43l12 55h-43l17 80h43l34 157h161q85 0 133.5 -42.5t55.5 -114.5h60l-17 -80h-47q-4 -32 -11 -55h46l-17 -80h-58zM228 388h144q5 14 7.5 27t4.5 28h-144zM242 253q33 0 58.5 18t34.5 39
h-123l-12 -57h42zM257 521h125q-1 20 -20 37.5t-51 17.5h-43z" />
    <glyph glyph-name="uni20B2" unicode="&#x20b2;" 
d="M410 695q49 -2 89.5 -17t65.5 -32l-49 -98q-22 15 -55 26t-75 12l-104 -492q14 0 35 5.5t34 12.5l30 143l-34 11l21 99h152l-68 -325q-38 -23 -90 -37t-103 -17l-20 -94h-77l21 98q-71 14 -106.5 81t-35.5 165q0 75 19.5 150t56.5 137.5t91 107.5t124 62l17 77h76z
M172 242q0 -48 9 -87t27 -51l99 468q-28 -17 -52.5 -51t-43 -78.5t-29 -96.5t-10.5 -104z" />
    <glyph glyph-name="uni20B4" unicode="&#x20b4;" 
d="M184 206q-2 -5 -5 -17t-3 -26q0 -32 17 -51.5t55 -19.5q18 0 41.5 5t47.5 13.5t45.5 18.5t36.5 20l27 -99q-20 -12 -46.5 -23.5t-55 -21t-57 -15t-52.5 -5.5q-89 0 -137.5 43t-48.5 114q0 21 4.5 39.5t6.5 24.5h-32l20 95h97q13 11 32 24.5t30 21.5l43 31h-185l20 95h300
q4 7 7 18.5t3 27.5q0 29 -16.5 49t-52.5 20q-12 0 -29.5 -3.5t-37 -9t-39.5 -13.5t-38 -17l-25 101q24 12 49.5 21t49.5 15t45.5 9.5t37.5 3.5q45 0 79.5 -12t57.5 -32.5t35 -48t12 -58.5q0 -21 -4.5 -39t-10.5 -32h33l-20 -95h-97q-14 -10 -30.5 -23t-30.5 -21l-52 -33h193
l-20 -95h-300z" />
    <glyph glyph-name="uni20B5" unicode="&#x20b5;" 
d="M440 695q39 -2 70.5 -13t65.5 -31l-40 -100q-32 17 -59.5 25t-59.5 10l-104 -492q33 2 64 10t70 25l32 -100q-43 -20 -93 -31t-97 -13l-19 -93h-81l21 99q-43 9 -75.5 32t-54 58t-32.5 81t-11 100q0 78 22 151t63 131t101 98t136 52l17 76h80zM168 270q0 -66 17 -110
t49 -58l101 474q-32 -12 -62.5 -41t-53.5 -69.5t-37 -90.5t-14 -105z" />
    <glyph glyph-name="uni2113" unicode="&#x2113;" horiz-adv-x="385" 
d="M302 26q-29 -21 -61 -31t-64 -10q-26 0 -47 8t-34.5 25t-17.5 43.5t4 63.5l21 92l-12 -9t-17.5 -12.5t-19.5 -13.5t-17 -12l-25 77q14 9 31 21t33 24t29.5 23t20.5 18l46 215q19 88 58 127.5t96 39.5q42 0 69.5 -27.5t27.5 -73.5q0 -84 -57 -166t-163 -167l-31 -144
q-6 -29 2.5 -43t28.5 -14q18 0 38 8t40 22zM328 587q0 19 -7 26.5t-16 7.5q-14 0 -24.5 -11.5t-17.5 -43.5l-35 -167q22 20 40.5 45t32 50.5t20.5 50t7 42.5z" />
    <glyph glyph-name="uni2116" unicode="&#x2116;" horiz-adv-x="993" 
d="M456 167l10 132l81 381h125l-144 -680h-128l-166 512h-3l-10 -132l-81 -380h-125l145 680h128l165 -513h3zM780 477q0 -32 13.5 -45.5t32.5 -13.5q32 0 56.5 26.5t24.5 83.5q0 31 -12.5 44.5t-32.5 13.5q-30 0 -56 -27t-26 -82zM998 532q0 -38 -13 -72.5t-36.5 -61
t-57 -42t-74.5 -15.5q-31 0 -54.5 10.5t-39.5 28.5t-24.5 42t-8.5 51q0 38 13 72.5t37 60.5t57 41.5t74 15.5q31 0 55 -10.5t40 -28.5t24 -42t8 -50zM654 201l16 77h251l-16 -77h-251z" />
    <glyph glyph-name="uni2117" unicode="&#x2117;" horiz-adv-x="806" 
d="M257 153l79 374h142q31 0 53 -8.5t35.5 -22.5t20 -32.5t6.5 -39.5q0 -30 -8.5 -57.5t-26.5 -49.5t-47.5 -35t-71.5 -13h-67l-25 -116h-90zM388 343h48q22 0 34.5 7.5t18.5 19t7 24t1 22.5q0 37 -38 37h-48zM59 279q0 87 35 162.5t93.5 132t134.5 89t159 32.5
q66 0 119.5 -22.5t91.5 -62.5t59 -93.5t21 -115.5q0 -87 -35 -162.5t-93.5 -132t-135 -89t-158.5 -32.5q-66 0 -119.5 22.5t-91.5 62.5t-59 93.5t-21 115.5zM131 288q0 -51 16.5 -94t46.5 -74.5t72.5 -49t94.5 -17.5q69 0 130.5 27.5t108 74t73.5 108.5t27 132
q0 50 -15.5 92.5t-45 73.5t-71 48.5t-92.5 17.5q-69 0 -131.5 -27t-110 -73t-75.5 -108t-28 -131z" />
    <glyph glyph-name="trademark" unicode="&#x2122;" horiz-adv-x="734" 
d="M389 700l-13 -64h-80l-46 -216h-80l46 216h-81l14 64h240zM557 546q11 15 20.5 31.5t20.5 32.5l64 90h90l-60 -280h-80l20 97l30 91h-1l-81 -131h-66l-26 131h-1l-9 -91l-21 -97h-78l59 280h83l23 -88z" />
    <glyph glyph-name="Omega" unicode="&#x2126;" horiz-adv-x="712" 
d="M24 103h132q-17 12 -31.5 32.5t-25 47.5t-17 59t-6.5 65q0 68 22.5 137t67.5 125t112 91t156 35q63 0 108.5 -21t75 -57t43.5 -82.5t14 -97.5q0 -61 -16.5 -114t-43.5 -96t-60.5 -74.5t-67.5 -49.5h125l-22 -103h-256l20 93q53 30 88.5 64.5t57.5 75t31 88t9 102.5
q0 34 -6.5 64.5t-20.5 53t-36.5 35.5t-54.5 13q-64 0 -107 -34t-68.5 -83t-36.5 -104.5t-11 -97.5q0 -118 79 -177l-20 -93h-256z" />
    <glyph glyph-name="estimated" unicode="&#x212e;" horiz-adv-x="672" 
d="M588 106q-47 -65 -104.5 -93t-137.5 -28q-65 0 -117 24t-89.5 65.5t-57.5 97t-20 118.5q0 64 20 119t57.5 95.5t89.5 64t117 23.5q63 0 115 -21.5t89.5 -60t59 -92.5t23.5 -118l-7 -10h-445v-201q32 -31 74.5 -46.5t90.5 -15.5q63 0 115 24t90 82zM512 491
q-35 33 -77.5 48t-88.5 15q-48 0 -90.5 -15t-74.5 -48v-161h331v161z" />
    <glyph glyph-name="onethird" unicode="&#x2153;" horiz-adv-x="752" 
d="M20 0l2 10l590 670h108l-3 -10l-589 -670h-108zM92 544l17 81l132 54h64l-75 -351h-85l55 256h-1l-100 -40h-7zM493 212h63q29 0 39.5 12t10.5 30q0 11 -8.5 19t-30.5 8q-20 0 -43.5 -4.5t-42.5 -12.5l-19 71q23 9 52 16t61 7q59 0 91 -23.5t32 -63.5q0 -22 -6.5 -38
t-17 -27.5t-23 -18.5t-24.5 -10v-1q20 -8 32.5 -24.5t12.5 -43.5q0 -51 -37.5 -83.5t-121.5 -32.5q-33 0 -59.5 7.5t-46.5 19.5l27 73q15 -9 38.5 -15.5t47.5 -6.5q35 0 50 11t15 34t-43 23h-64z" />
    <glyph glyph-name="twothirds" unicode="&#x2154;" horiz-adv-x="807" 
d="M75 0l2 10l590 670h108l-3 -10l-589 -670h-108zM206 400h119l-16 -74h-250l14 67l164 122q32 23 32 56q0 14 -8.5 25t-25.5 11q-23 0 -41 -12.5t-37 -28.5l-46 58q9 9 22.5 19.5t30.5 19.5t37.5 15t44.5 6q48 0 80.5 -26t32.5 -71q0 -23 -5.5 -41.5t-15.5 -33.5
t-25 -28.5t-33 -26.5l-74 -55v-2zM549 212h63q29 0 39.5 12t10.5 30q0 11 -8.5 19t-30.5 8q-20 0 -43.5 -4.5t-42.5 -12.5l-19 71q23 9 52 16t61 7q59 0 91 -23.5t32 -63.5q0 -22 -6.5 -38t-17 -27.5t-23 -18.5t-24.5 -10v-1q20 -8 32.5 -24.5t12.5 -43.5q0 -51 -37.5 -83.5
t-121.5 -32.5q-33 0 -59.5 7.5t-46.5 19.5l27 73q15 -9 38.5 -15.5t47.5 -6.5q35 0 50 11t15 34t-43 23h-64z" />
    <glyph glyph-name="oneeighth" unicode="&#x215b;" horiz-adv-x="751" 
d="M20 0l2 10l590 670h108l-3 -10l-589 -670h-108zM92 544l17 81l132 54h64l-75 -351h-85l55 256h-1l-100 -40h-7zM530 61q35 0 47.5 15.5t12.5 34.5q0 14 -9.5 24t-32.5 10q-19 0 -31 -5t-19 -12.5t-9.5 -17t-2.5 -17.5q0 -14 9.5 -23t34.5 -9zM583 358q55 0 83 -25.5
t28 -61.5q0 -20 -6 -35t-16 -26t-21.5 -18t-23.5 -12v-1q21 -8 34 -25.5t13 -44.5q0 -55 -42 -86t-107 -31q-60 0 -92 25.5t-32 65.5q0 42 24 68t59 38v1q-13 7 -23.5 20.5t-10.5 37.5q0 48 36.5 79t96.5 31zM562 214q29 0 40.5 14.5t11.5 32.5q0 12 -8 21t-27 9
q-27 0 -39 -15t-12 -32q0 -14 7.5 -22t26.5 -8z" />
    <glyph glyph-name="threeeighths" unicode="&#x215c;" horiz-adv-x="790" 
d="M59 0l2 10l590 670h108l-3 -10l-589 -670h-108zM569 61q35 0 47.5 15.5t12.5 34.5q0 14 -9.5 24t-32.5 10q-19 0 -31 -5t-19 -12.5t-9.5 -17t-2.5 -17.5q0 -14 9.5 -23t34.5 -9zM622 358q55 0 83 -25.5t28 -61.5q0 -20 -6 -35t-16 -26t-21.5 -18t-23.5 -12v-1
q21 -8 34 -25.5t13 -44.5q0 -55 -42 -86t-107 -31q-60 0 -92 25.5t-32 65.5q0 42 24 68t59 38v1q-13 7 -23.5 20.5t-10.5 37.5q0 48 36.5 79t96.5 31zM601 214q29 0 40.5 14.5t11.5 32.5q0 12 -8 21t-27 9q-27 0 -39 -15t-12 -32q0 -14 7.5 -22t26.5 -8zM145 537h63
q29 0 39.5 12t10.5 30q0 11 -8.5 19t-30.5 8q-20 0 -43.5 -4.5t-42.5 -12.5l-19 71q23 9 52 16t61 7q59 0 91 -23.5t32 -63.5q0 -22 -6.5 -38t-17 -27.5t-23 -18.5t-24.5 -10v-1q20 -8 32.5 -24.5t12.5 -43.5q0 -51 -37.5 -83.5t-121.5 -32.5q-33 0 -59.5 7.5t-46.5 19.5
l27 73q15 -9 38.5 -15.5t47.5 -6.5q35 0 50 11t15 34t-43 23h-64z" />
    <glyph glyph-name="fiveeighths" unicode="&#x215d;" horiz-adv-x="771" 
d="M40 0l2 10l590 670h108l-3 -10l-589 -670h-108zM101 483l57 196h196l-16 -76h-122l-13 -47h5q51 0 81 -22t30 -69q0 -68 -41 -106.5t-122 -38.5q-23 0 -51 4.5t-51 15.5l26 76q19 -10 41 -14t44 -4t34.5 5t19 12t8 15.5t1.5 15.5q0 17 -10.5 25.5t-34.5 8.5
q-20 0 -38.5 -1.5t-35.5 -3.5zM550 61q35 0 47.5 15.5t12.5 34.5q0 14 -9.5 24t-32.5 10q-19 0 -31 -5t-19 -12.5t-9.5 -17t-2.5 -17.5q0 -14 9.5 -23t34.5 -9zM603 358q55 0 83 -25.5t28 -61.5q0 -20 -6 -35t-16 -26t-21.5 -18t-23.5 -12v-1q21 -8 34 -25.5t13 -44.5
q0 -55 -42 -86t-107 -31q-60 0 -92 25.5t-32 65.5q0 42 24 68t59 38v1q-13 7 -23.5 20.5t-10.5 37.5q0 48 36.5 79t96.5 31zM582 214q29 0 40.5 14.5t11.5 32.5q0 12 -8 21t-27 9q-27 0 -39 -15t-12 -32q0 -14 7.5 -22t26.5 -8z" />
    <glyph glyph-name="seveneighths" unicode="&#x215e;" horiz-adv-x="737" 
d="M6 0l2 10l590 670h108l-3 -10l-589 -670h-108zM516 61q35 0 47.5 15.5t12.5 34.5q0 14 -9.5 24t-32.5 10q-19 0 -31 -5t-19 -12.5t-9.5 -17t-2.5 -17.5q0 -14 9.5 -23t34.5 -9zM569 358q55 0 83 -25.5t28 -61.5q0 -20 -6 -35t-16 -26t-21.5 -18t-23.5 -12v-1
q21 -8 34 -25.5t13 -44.5q0 -55 -42 -86t-107 -31q-60 0 -92 25.5t-32 65.5q0 42 24 68t59 38v1q-13 7 -23.5 20.5t-10.5 37.5q0 48 36.5 79t96.5 31zM548 214q29 0 40.5 14.5t11.5 32.5q0 12 -8 21t-27 9q-27 0 -39 -15t-12 -32q0 -14 7.5 -22t26.5 -8zM74 333l193 269v1
h-153l16 76h248l-15 -70l-197 -281h-93z" />
    <glyph glyph-name="arrowleft" unicode="&#x2190;" horiz-adv-x="892" 
d="M420 719l89 -89l-248 -232h631v-118h-631l248 -232l-89 -89l-380 380z" />
    <glyph glyph-name="arrowup" unicode="&#x2191;" horiz-adv-x="892" 
d="M845 383l-89 -89l-232 249l-1 -631h-118l1 631l-232 -249l-89 89l380 380z" />
    <glyph glyph-name="arrowright" unicode="&#x2192;" horiz-adv-x="892" 
d="M512 -41l-89 89l248 232h-631v118h631l-248 232l89 89l380 -380z" />
    <glyph glyph-name="arrowdown" unicode="&#x2193;" horiz-adv-x="892" 
d="M85 292l89 89l232 -249l1 631h118l-1 -631l232 249l89 -89l-380 -380z" />
    <glyph glyph-name="uni2196" unicode="&#x2196;" horiz-adv-x="888" 
d="M697 662v-126l-339 11l446 -445l-85 -85l-446 447l12 -340h-126v538h538z" />
    <glyph glyph-name="uni2197" unicode="&#x2197;" horiz-adv-x="888" 
d="M804 124h-126l11 339l-445 -446l-85 85l447 446l-340 -11v125h538v-538z" />
    <glyph glyph-name="uni2198" unicode="&#x2198;" horiz-adv-x="888" 
d="M266 18v126l339 -11l-446 445l85 85l446 -447l-12 340h126v-538h-538z" />
    <glyph glyph-name="uni2199" unicode="&#x2199;" horiz-adv-x="888" 
d="M159 556h126l-11 -339l445 446l85 -85l-447 -446l340 12v-126h-538v538z" />
    <glyph glyph-name="partialdiff" unicode="&#x2202;" horiz-adv-x="569" 
d="M251 700q68 0 120.5 -20.5t88 -58t54 -89.5t18.5 -114q0 -87 -23.5 -165.5t-66.5 -138t-103 -94.5t-133 -35q-45 0 -78.5 15.5t-56 42.5t-34 62.5t-11.5 75.5q0 71 21 126.5t55 94t77 59t87 20.5q31 0 54.5 -7t41.5 -17.5t30.5 -23.5t21.5 -26h2q6 83 -42 134t-150 53z
M394 299q-6 12 -15 25.5t-21.5 25t-29 18.5t-37.5 7q-29 0 -54 -14t-43.5 -39t-29 -59t-10.5 -73q0 -48 20 -73.5t55 -25.5q26 0 52.5 14t49 41t39.5 65.5t24 87.5z" />
    <glyph glyph-name="Delta" unicode="&#x2206;" horiz-adv-x="636" 
d="M551 0h-582l1 5l361 675h147l74 -675zM383 570l-83 -180l-143 -291h258l-24 291l-5 180h-3z" />
    <glyph glyph-name="product" unicode="&#x220f;" horiz-adv-x="650" 
d="M513 577h-250l-165 -775h-125l187 878h499l-186 -878h-125z" />
    <glyph glyph-name="summation" unicode="&#x2211;" horiz-adv-x="557" 
d="M-41 -95l316 353l-160 319l23 103h450l-22 -103h-327l171 -325l-310 -347h337l-22 -103h-478z" />
    <glyph glyph-name="minus" unicode="&#x2212;" 
d="M515 323l-22 -103h-463l22 103h463z" />
    <glyph glyph-name="uni2215" unicode="&#x2215;" horiz-adv-x="573" 
d="M-51 0l2 10l590 670h108l-3 -10l-589 -670h-108z" />
    <glyph glyph-name="uni2219" unicode="&#x2219;" horiz-adv-x="268" 
d="M53 270q0 21 7.5 39t21 31.5t31.5 21.5t38 8q31 0 48 -18.5t17 -47.5q0 -42 -29 -70.5t-71 -28.5q-30 0 -46.5 18t-16.5 47z" />
    <glyph glyph-name="radical" unicode="&#x221a;" horiz-adv-x="591" 
d="M3 222h110l32 -192l8 -118h2l54 121l337 647h115l-461 -878h-127l-72 410z" />
    <glyph glyph-name="infinity" unicode="&#x221e;" horiz-adv-x="681" 
d="M330 201q-28 -26 -49 -42t-39 -25t-35.5 -12.5t-37.5 -3.5q-25 0 -47 8.5t-38.5 24.5t-26.5 39t-10 53q0 39 13 72t35.5 57t52.5 37.5t63 13.5q44 0 74.5 -19.5t62.5 -64.5q29 27 50 43.5t38 25.5t33 12t36 3q25 0 47.5 -8.5t39.5 -24t27 -39t10 -53.5q0 -38 -13.5 -71
t-36 -57t-51.5 -38t-59 -14q-49 0 -80 19.5t-59 63.5zM462 211q27 0 47 21.5t20 49.5q0 20 -11 34t-31 14q-17 0 -35.5 -13.5t-50.5 -46.5q20 -32 32 -45.5t29 -13.5zM190 211q15 0 34.5 14t50.5 46q-19 32 -31 45.5t-29 13.5q-29 0 -48.5 -22t-19.5 -51q0 -20 11 -33
t32 -13z" />
    <glyph glyph-name="integral" unicode="&#x222b;" horiz-adv-x="473" 
d="M515 595q-11 3 -27.5 5t-28.5 2q-23 0 -37 -19.5t-26 -52.5l-215 -584q-31 -85 -75.5 -122t-110.5 -37q-18 0 -41 2t-37 5l23 93q11 -3 26.5 -5t26.5 -2q23 0 38 19.5t27 52.5l215 584q31 85 75.5 122t110.5 37q19 0 42 -2t37 -5l-23 -93v0z" />
    <glyph glyph-name="approxequal" unicode="&#x2248;" 
d="M72 398q55 65 129 65q28 0 56.5 -8.5t56 -19t54 -19t52.5 -8.5q21 0 35 5t31 19l34 -63q-54 -64 -127 -64q-26 0 -54.5 8.5t-57 19t-56.5 19t-53 8.5q-23 0 -37.5 -6t-28.5 -19zM24 173q55 65 129 65q28 0 56.5 -8.5t56 -19t54 -19t52.5 -8.5q21 0 35 5t31 19l34 -63
q-54 -64 -127 -64q-26 0 -54.5 8.5t-57 19t-56 19t-52.5 8.5q-23 0 -38 -6t-29 -19z" />
    <glyph glyph-name="notequal" unicode="&#x2260;" 
d="M184 210l72 123h-202l22 103h241l61 105h102l-2 -10l-56 -95h117l-22 -103h-155l-72 -123h201l-22 -103h-240l-62 -107h-102l2 10l56 97h-117l22 103h156z" />
    <glyph glyph-name="lessequal" unicode="&#x2264;" 
d="M460 136l-412 195l21 99l495 195h8l-23 -113l-373 -134v-3l316 -134l-24 -105h-8zM461 103l-21 -103h-462l22 103h461z" />
    <glyph glyph-name="greaterequal" unicode="&#x2265;" 
d="M19 136l23 113l374 134v3l-316 134l23 105h9l411 -195l-21 -99l-494 -195h-9zM473 103l-21 -103h-462l22 103h461z" />
    <glyph glyph-name="lozenge" unicode="&#x25ca;" horiz-adv-x="523" 
d="M40 347l246 333h94l127 -353l-246 -327h-94zM388 340l-71 213l-158 -221l73 -206z" />
    <glyph glyph-name="circle" unicode="&#x25cb;" horiz-adv-x="800" 
d="M60 340q0 72 26 134.5t71.5 108t108 71.5t134.5 26t134.5 -26t108 -71.5t71.5 -108t26 -134.5t-26 -134.5t-71.5 -108t-108 -71.5t-134.5 -26t-134.5 26t-108 71.5t-71.5 108t-26 134.5zM125 340q0 -59 21 -109t57.5 -87.5t87 -58.5t109.5 -21q58 0 108.5 21t87 58.5
t57.5 87.5t21 109q0 58 -21 108.5t-57.5 88t-87 58.5t-108.5 21q-59 0 -109.5 -21t-87 -58.5t-57.5 -88t-21 -108.5z" />
    <glyph glyph-name="H18533" unicode="&#x25cf;" horiz-adv-x="800" 
d="M60 341q0 72 26 134t71.5 107.5t107.5 71.5t134 26t134.5 -26t108.5 -71.5t72 -107.5t26 -134t-26 -134.5t-72 -108.5t-108.5 -72t-134.5 -26t-134 26t-107.5 72t-71.5 108.5t-26 134.5z" />
    <glyph glyph-name="uni25DC" unicode="&#x25dc;" horiz-adv-x="340" 
d="M340 616q-59 0 -109.5 -21t-87 -58.5t-57.5 -88t-21 -108.5h-65q0 72 26 134.5t71.5 108t108 71.5t134.5 26v-64z" />
    <glyph glyph-name="uni25DD" unicode="&#x25dd;" horiz-adv-x="340" 
d="M0 680q72 0 134.5 -26t108 -71.5t71.5 -108t26 -134.5h-66q0 58 -21 108.5t-57.5 88t-87 58.5t-108.5 21v64z" />
    <glyph glyph-name="uni25DE" unicode="&#x25de;" horiz-adv-x="340" 
d="M0 64q58 0 108.5 21t87 58.5t57.5 87.5t21 109h66q0 -72 -26 -134.5t-71.5 -108t-108 -71.5t-134.5 -26v64z" />
    <glyph glyph-name="uni25DF" unicode="&#x25df;" horiz-adv-x="340" 
d="M340 0q-72 0 -134.5 26t-108 71.5t-71.5 108t-26 134.5h65q0 -59 21 -109t57.5 -87.5t87 -58.5t109.5 -21v-64z" />
    <glyph glyph-name="uniF6C3" unicode="&#xf6c3;" horiz-adv-x="520" 
d="M144 -208l55 156h122l-2 -10l-86 -156h-91z" />
    <glyph glyph-name="uniF6E1" unicode="&#xf6e1;" horiz-adv-x="184" 
d="M-86 -212l81 215h98l-2 -8l-105 -215h-74z" />
    <glyph glyph-name="uniF6E2" unicode="&#xf6e2;" horiz-adv-x="183" 
d="M33 354l81 215h98l-2 -8l-105 -215h-74z" />
    <glyph glyph-name="uniF6E5" unicode="&#xf6e5;" horiz-adv-x="250" 
d="M-13 26l14 68h170l-15 -68h-169z" />
    <glyph glyph-name="uniF6E6" unicode="&#xf6e6;" horiz-adv-x="250" 
d="M107 593l14 68h170l-15 -68h-169z" />
    <glyph glyph-name="uniF6E7" unicode="&#xf6e7;" horiz-adv-x="184" 
d="M-43 -76q0 35 22.5 56t54.5 21q23 0 36.5 -13.5t13.5 -36.5q0 -35 -22.5 -55.5t-54.5 -20.5q-23 0 -36.5 13t-13.5 36z" />
    <glyph glyph-name="uniF6E8" unicode="&#xf6e8;" horiz-adv-x="184" 
d="M77 491q0 35 22.5 56t54.5 21q23 0 36.5 -13.5t13.5 -36.5q0 -35 -22.5 -55.5t-54.5 -20.5q-23 0 -36.5 13t-13.5 36z" />
    <glyph glyph-name="uniF8FF" unicode="&#xf8ff;" horiz-adv-x="618" 
d="M115 680h413v-680h-413v680zM470 58v564h-297v-564h297z" />
    <glyph glyph-name="uniFB01" unicode="&#xfb01;" horiz-adv-x="592" 
d="M463 614q0 38 25 64t63 26q27 0 42 -16.5t15 -42.5q0 -37 -25.5 -63t-63.5 -26q-27 0 -41.5 16t-14.5 42zM565 482l-103 -482h-122l83 386h-179l-82 -386h-123l82 386h-74l14 68l80 28l17 77q17 78 60 112t111 34q18 0 42.5 -2.5t38.5 -6.5l-20 -92q-11 3 -26 5.5
t-29 2.5q-23 0 -35.5 -15t-20.5 -49l-14 -66h300z" />
    <glyph glyph-name="uniFB02" unicode="&#xfb02;" horiz-adv-x="596" 
d="M39 0l82 386h-74l14 68l80 28l17 77q17 78 60 112t111 34q18 0 42.5 -2.5t38.5 -6.5l-20 -92q-11 3 -26 5.5t-29 2.5q-23 0 -35.5 -15t-20.5 -49l-14 -66h105l-21 -96h-105l-82 -386h-123zM344 0l149 700h123l-149 -700h-123z" />
    <glyph glyph-name="zero.pnum" horiz-adv-x="622" 
d="M188 227q0 -66 19 -101t64 -35q33 0 66.5 17.5t60.5 59.5t44 111.5t17 173.5q0 66 -19.5 101t-62.5 35q-33 0 -66.5 -18t-61 -60t-44.5 -111.5t-17 -172.5zM586 455q0 -122 -28.5 -211t-75 -146.5t-105 -85t-119.5 -27.5q-51 0 -88.5 17.5t-62 49t-36 75.5t-11.5 98
q0 119 27.5 207.5t73.5 147t105.5 87t122.5 28.5q51 0 88 -17.5t61.5 -49t36 -75.5t11.5 -98z" />
    <glyph glyph-name="one.pnum" horiz-adv-x="377" 
d="M80 502l23 113l195 65h90l-145 -680h-125l118 551h-2l-142 -49h-12z" />
    <glyph glyph-name="two.pnum" horiz-adv-x="525" 
d="M178 103h257l-22 -103h-420l20 94l274 248q43 38 70 73t27 83q0 39 -19.5 65t-54.5 26q-43 0 -76 -22t-66 -50l-60 81q16 15 39 32t51 31.5t61 24t69 9.5q87 0 137 -49t50 -134q0 -43 -15.5 -79.5t-37 -66t-46 -52.5t-42.5 -39l-196 -170v-2z" />
    <glyph glyph-name="three.pnum" horiz-adv-x="529" 
d="M154 397h103q33 0 56 10.5t37 27t20 37.5t6 42q0 32 -18.5 53.5t-59.5 21.5q-32 0 -71 -9.5t-79 -27.5l-28 98q21 10 45.5 18.5t49.5 14.5t49.5 9t45.5 3q49 0 86.5 -11.5t62.5 -32.5t37.5 -50.5t12.5 -64.5q0 -39 -13 -71t-32.5 -56t-42.5 -41t-44 -26v-2
q34 -16 56.5 -47.5t22.5 -82.5q0 -50 -19.5 -91.5t-55.5 -71t-87 -46t-115 -16.5q-57 0 -103.5 14t-79.5 37l43 97q29 -19 65 -30.5t87 -11.5q28 0 53 9t44.5 25t31 39t11.5 52q0 36 -23 56t-74 20h-102z" />
    <glyph glyph-name="four.pnum" horiz-adv-x="582" 
d="M509 459l-45 -209h77l-22 -103h-77l-31 -147h-125l31 147h-308l18 87l270 446h127l-254 -430h169l45 209h125z" />
    <glyph glyph-name="five.pnum" horiz-adv-x="515" 
d="M86 327l107 353h331l-22 -103h-221l-45 -154q14 1 21 1h14q41 0 75 -10t58.5 -30.5t38 -52t13.5 -74.5q0 -65 -21.5 -116t-60.5 -85.5t-93.5 -52.5t-120.5 -18q-16 0 -37 2.5t-44 7.5t-46.5 12t-44.5 16l40 103q38 -18 78.5 -26.5t69.5 -8.5q76 0 112.5 40.5t36.5 104.5
q0 81 -91 81q-33 0 -69 -2.5t-65 -5.5z" />
    <glyph glyph-name="six.pnum" horiz-adv-x="551" 
d="M478 670l-201 -240l1 -1q13 7 30.5 13.5t43.5 6.5q35 0 63 -13.5t48 -37.5t30.5 -57.5t10.5 -72.5q0 -57 -19 -108t-55 -90t-87 -62t-115 -23q-50 0 -87.5 15t-62 41.5t-37 61t-12.5 73.5q0 37 7 68t20.5 59.5t32 55.5t42.5 57l210 264h139zM376 252q0 44 -22 67.5
t-60 23.5q-61 0 -98 -43t-37 -113q0 -44 21 -70t60 -26q28 0 52.5 12t43 34t29.5 51t11 64z" />
    <glyph glyph-name="seven.pnum" horiz-adv-x="481" 
d="M29 10l345 565v2h-277l21 103h416l-20 -93l-353 -587h-134z" />
    <glyph glyph-name="eight.pnum" horiz-adv-x="580" 
d="M249 91q33 0 58 10.5t41.5 28.5t25 41t8.5 49q0 35 -21 58t-68 23q-34 0 -58.5 -10.5t-40.5 -28.5t-23.5 -41.5t-7.5 -49.5q0 -35 20 -57.5t66 -22.5zM367 695q48 0 82.5 -12t57.5 -32.5t34 -48.5t11 -60q0 -39 -11 -70t-28 -54t-39 -38.5t-43 -25.5v-2q35 -16 56 -52
t21 -85q0 -50 -18 -92t-52.5 -72.5t-85 -48t-116.5 -17.5q-51 0 -90 12.5t-65 34t-39 51.5t-13 66q0 40 12.5 73.5t33 60.5t48 47t57.5 32v2q-22 14 -39.5 41t-17.5 72q0 44 14 83.5t44 69.5t76 47.5t110 17.5zM316 406q28 0 48 9.5t33 25.5t19 37t6 44q0 30 -16 48.5
t-51 18.5q-29 0 -48.5 -9.5t-32.5 -26t-18.5 -37.5t-5.5 -44q0 -30 15.5 -48t50.5 -18z" />
    <glyph glyph-name="nine.pnum" horiz-adv-x="551" 
d="M97 10l200 241l-1 1q-13 -7 -30 -14t-43 -7q-35 0 -63 13.5t-48 37.5t-30.5 57.5t-10.5 72.5q0 57 19 108t55 90t87 62t115 23q50 0 87.5 -15t62 -41.5t37 -61t12.5 -73.5q0 -41 -7.5 -72t-21 -58t-32.5 -52.5t-42 -55.5l-209 -266h-139zM199 428q0 -44 22 -67.5
t60 -23.5q61 0 98 43t37 113q0 44 -21 70t-60 26q-28 0 -52.5 -12t-43 -34t-29.5 -51.5t-11 -63.5z" />
    <glyph glyph-name="uni0444.aalt" horiz-adv-x="665" 
d="M31 190q0 52 16 103.5t50 93t88 69.5t130 35l45 209h122l-45 -211q48 -8 82.5 -26t56 -44t31.5 -59t10 -69q0 -51 -15 -101t-49 -91.5t-88.5 -69.5t-133.5 -36l-40 -191h-122l40 189q-48 7 -81.5 25t-55 44.5t-31.5 59.5t-10 70zM156 199q0 -42 17.5 -68t58.5 -34l61 287
q-42 -7 -68.5 -26t-41.5 -44.5t-21 -55.5t-6 -59zM491 282q0 40 -18 66t-59 35l-60 -285q43 9 69.5 28t41.5 44t20.5 54t5.5 58z" />
    <glyph glyph-name="Euro.aalt" 
d="M215 206q2 -54 29 -81t72 -27q35 0 65 7.5t72 27.5l22 -104q-88 -44 -173 -44q-104 0 -160 59t-61 162h-61l20 95h47q3 19 7 38.5t9 38.5h-46l20 95h61q47 102 119 162t176 60q42 0 82 -11t72 -33l-46 -104q-32 19 -59.5 27t-62.5 8q-44 0 -82 -27.5t-64 -81.5h169
l-20 -95h-195q-5 -20 -9 -38.5t-7 -38.5h195l-20 -95h-171z" />
    <glyph glyph-name="uni20A8.aalt" 
d="M440 407q-23 -69 -73.5 -112t-135.5 -51l167 -228l-3 -16h-145l-181 263l17 84h99q93 0 122 60h-211l19 95h213q-2 29 -25.5 48.5t-69.5 19.5h-102l22 110h413l-20 -95h-139v-2q20 -14 31.5 -35t13.5 -46h76l-20 -95h-68z" />
    </font>
</defs>
</svg>
