<?xml version="1.0" standalone="no"?>
<!DOCTYPE svg PUBLIC "-//W3C//DTD SVG 1.1//EN" "http://www.w3.org/Graphics/SVG/1.1/DTD/svg11.dtd" >
<svg xmlns="http://www.w3.org/2000/svg" xmlns:xlink="http://www.w3.org/1999/xlink" version="1.1">
<metadata>
Created by Christoph Koeberlin (http://christoph.koe.berlin)
Copyright (c) 2015 by Volkswagen AG. All rights reserved.
</metadata>
<defs>
<font id="Font" horiz-adv-x="550" >
  <font-face 
    font-family="Font"
    font-weight="300"
    font-stretch="normal"
    units-per-em="1000"
    panose-1="2 11 3 4 4 2 0 0 0 3"
    ascent="800"
    descent="-200"
    x-height="482"
    cap-height="680"
    bbox="-166 -220 979 905.889"
    underline-thickness="50"
    underline-position="-60"
    unicode-range="U+0020-FB02"
  />
<missing-glyph horiz-adv-x="583" 
d="M85 680h413v-680h-413v680zM440 58v564h-297v-564h297z" />
    <glyph glyph-name=".notdef" horiz-adv-x="583" 
d="M85 680h413v-680h-413v680zM440 58v564h-297v-564h297z" />
    <glyph glyph-name="glyph1" horiz-adv-x="0" 
 />
    <glyph glyph-name="glyph2" horiz-adv-x="261" 
 />
    <glyph glyph-name="space" unicode=" " horiz-adv-x="255" 
 />
    <glyph glyph-name="exclam" unicode="!" horiz-adv-x="240" 
d="M136 193h-34l-11 298v189h56v-189zM71 36q0 22 13.5 36.5t36.5 14.5t36.5 -14.5t13.5 -36.5t-13.5 -36.5t-36.5 -14.5t-36.5 14.5t-13.5 36.5z" />
    <glyph glyph-name="quotedbl" unicode="&#x22;" horiz-adv-x="352" 
d="M264 402h-33l-11 172v106h55v-106zM121 402h-33l-11 172v106h55v-106z" />
    <glyph glyph-name="numbersign" unicode="#" horiz-adv-x="619" 
d="M90 0v5l48 187h-89l-1 47h103l55 216h-97l-1 47h111l47 178h55v-5l-45 -173h142l47 178h55v-5l-45 -173h95l1 -47h-109l-55 -216h104l1 -47h-118l-50 -192h-55v5l50 187h-144l-50 -192h-55zM208 239h142l57 216h-144z" />
    <glyph glyph-name="dollar" unicode="$" 
d="M104 106q32 -29 67 -46.5t86 -19.5v288l-31 14q-31 13 -56.5 29t-43.5 36t-28 46t-10 59q0 35 11.5 66t33 55t53 40t71.5 20v77h51v-76q50 -3 85.5 -19t64.5 -37l-27 -45q-28 19 -58 31t-65 15v-270l9 -3q35 -14 63.5 -32t48.5 -41t31 -53t11 -69q0 -35 -12 -65.5
t-33.5 -55t-51.5 -40.5t-66 -22v-96h-51v93q-59 2 -102.5 22.5t-80.5 55.5zM147 514q0 -21 4.5 -37.5t16.5 -30.5t32 -27t52 -26l5 -2v247q-53 -8 -81.5 -42t-28.5 -82zM412 169q0 25 -6 45t-18.5 36t-32.5 29.5t-47 26.5v-262q47 10 75.5 42.5t28.5 82.5z" />
    <glyph glyph-name="percent" unicode="%" horiz-adv-x="730" 
d="M151 0v6l380 674h52v-6l-381 -674h-51zM103 513q0 -65 18.5 -95.5t58.5 -30.5t58.5 30.5t18.5 95.5t-18.5 95t-58.5 30t-58.5 -30t-18.5 -95zM52 513q0 82 33.5 126.5t94.5 44.5t94.5 -44.5t33.5 -126.5t-33.5 -127t-94.5 -45t-94.5 45t-33.5 127zM473 163
q0 -65 18.5 -95.5t58.5 -30.5t58.5 30.5t18.5 95.5t-18.5 95t-58.5 30t-58.5 -30t-18.5 -95zM422 163q0 82 33.5 126.5t94.5 44.5t94.5 -44.5t33.5 -126.5t-33.5 -127t-94.5 -45t-94.5 45t-33.5 127z" />
    <glyph glyph-name="ampersand" unicode="&#x26;" horiz-adv-x="631" 
d="M566 290q-19 -40 -39.5 -79t-44.5 -75l116 -130v-6h-69l-80 93q-39 -48 -89.5 -78t-119.5 -30q-43 0 -76 13t-55 35.5t-33.5 52.5t-11.5 64q0 33 10 60.5t27 50.5t39 42t47 36l29 21l-14 16q-40 46 -58.5 84t-18.5 78q0 30 10.5 58.5t31 50t50 35t67.5 13.5
q36 0 65.5 -11.5t50 -32.5t32 -50t11.5 -64q0 -26 -8.5 -48.5t-22.5 -41.5t-31.5 -35t-35.5 -28l-48 -35l148 -172q20 32 37.5 67t34.5 71zM241 39q55 0 96 26.5t75 68.5l-159 186l-35 -25q-51 -36 -73 -69.5t-22 -75.5q0 -48 31.5 -79.5t86.5 -31.5zM184 538
q0 -32 14.5 -62t46.5 -69l16 -20l52 37q71 50 71 112q0 52 -27.5 78.5t-72.5 26.5q-47 0 -73.5 -28.5t-26.5 -74.5z" />
    <glyph glyph-name="quotesingle" unicode="'" horiz-adv-x="209" 
d="M121 402h-33l-11 172v106h55v-106z" />
    <glyph glyph-name="parenleft" unicode="(" horiz-adv-x="271" 
d="M219 694q-45 -100 -69 -213t-24 -232t24 -232t69 -213l-42 -22q-23 49 -43 100.5t-35 108t-23.5 120.5t-8.5 138t8.5 138t23.5 120.5t35 108t43 100.5z" />
    <glyph glyph-name="parenright" unicode=")" horiz-adv-x="271" 
d="M94 716q23 -49 43 -100.5t35 -108t23.5 -120.5t8.5 -138t-8.5 -138t-23.5 -120.5t-35 -108t-43 -100.5l-42 22q45 100 69 213t24 232t-24 232t-69 213z" />
    <glyph glyph-name="asterisk" unicode="*" horiz-adv-x="386" 
d="M215 700l-3 -106l1 -1l86 56l20 -39l-87 -50v-2l87 -47l-23 -40l-83 57l-1 -1l3 -105h-44l3 105l-1 1l-83 -57l-23 40l87 47v2l-87 50l20 39l86 -56l1 1l-3 106h44z" />
    <glyph glyph-name="plus" unicode="+" 
d="M300 293h185v-48h-185v-206h-51v206h-185v48h185v205h51v-205z" />
    <glyph glyph-name="comma" unicode="," horiz-adv-x="219" 
d="M52 -154l31 222h64v-6l-49 -223h-46v7z" />
    <glyph glyph-name="hyphen" unicode="-" horiz-adv-x="397" 
d="M80 247v48h237v-48h-237z" />
    <glyph glyph-name="period" unicode="." horiz-adv-x="236" 
d="M68 36q0 22 13.5 36.5t36.5 14.5t36.5 -14.5t13.5 -36.5t-13.5 -36.5t-36.5 -14.5t-36.5 14.5t-13.5 36.5z" />
    <glyph glyph-name="slash" unicode="/" horiz-adv-x="349" 
d="M38 0v10l222 670h51v-10l-221 -670h-52z" />
    <glyph glyph-name="zero" unicode="0" 
d="M100 340q0 -71 10 -126.5t31 -94t54 -59t80 -20.5t80 20.5t54 59t31 94t10 126.5t-10 126.5t-31 94t-54 59t-80 20.5t-80 -20.5t-54 -59t-31 -94t-10 -126.5zM41 340q0 83 14.5 149t43.5 111.5t73 70t103 24.5t103 -24.5t73 -70t43.5 -111.5t14.5 -149t-14.5 -149
t-43.5 -111.5t-73 -70t-103 -24.5t-103 24.5t-73 70t-43.5 111.5t-14.5 149z" />
    <glyph glyph-name="one" unicode="1" 
d="M118 568v52l153 60h53v-627h134v-53h-342v53h152v570h-2l-142 -55h-6z" />
    <glyph glyph-name="two" unicode="2" 
d="M155 53h299v-53h-374v49l231 261q23 27 40 49.5t28 44t16 44.5t5 51q0 30 -10 56t-28.5 44.5t-45 29.5t-58.5 11q-48 0 -84 -20.5t-61 -46.5l-32 41q12 12 29 26.5t39.5 26.5t49.5 20t59 8q46 0 83 -14.5t63.5 -41t40.5 -62.5t14 -78q0 -65 -27.5 -116.5t-73.5 -102.5
l-203 -225v-2z" />
    <glyph glyph-name="three" unicode="3" 
d="M154 377h110q62 0 95.5 36t33.5 93q0 28 -8.5 52.5t-25 42.5t-42 28.5t-58.5 10.5q-44 0 -83.5 -12t-72.5 -30l-19 48q33 20 80.5 34.5t94.5 14.5q49 0 85 -14.5t60 -39.5t36 -59.5t12 -74.5q0 -57 -26 -96.5t-68 -57.5v-2q47 -15 77.5 -58t30.5 -112q0 -45 -16.5 -81.5
t-45 -62t-67 -39t-83.5 -13.5q-60 0 -108.5 16.5t-81.5 39.5l24 47q34 -22 74.5 -35t91.5 -13q32 0 60 9t48.5 27t32.5 44.5t12 61.5q0 26 -6.5 51.5t-23 45.5t-45.5 32.5t-73 12.5h-105v53z" />
    <glyph glyph-name="four" unicode="4" 
d="M363 490h56v-291h86v-53h-86v-146h-56v146h-317v42l202 492h58l-195 -479v-2h252v291z" />
    <glyph glyph-name="five" unicode="5" 
d="M115 345l39 335h292v-53h-244l-28 -230q14 2 34 4t38 2q110 0 166 -51t56 -154q0 -54 -18.5 -94t-50 -66.5t-73.5 -39.5t-90 -13q-57 0 -100.5 13.5t-67.5 27.5l18 50q29 -14 65 -25t85 -11q37 0 69 9t55 28t36 49t13 72q0 76 -40 113t-125 37q-32 0 -64.5 -3.5
t-58.5 -8.5z" />
    <glyph glyph-name="six" unicode="6" 
d="M346 674l-172 -280l1 -1q17 17 45.5 29.5t63.5 12.5q47 0 85.5 -16t66 -45.5t42.5 -71t15 -92.5q0 -50 -15 -91.5t-42.5 -71t-67.5 -46t-90 -16.5t-90 16.5t-67.5 46t-42.5 71t-15 91.5q0 67 19 116.5t48 97.5l151 256h65v-6zM122 210q0 -76 41.5 -123t114.5 -47
t114.5 47t41.5 123t-41.5 123t-114.5 47t-114.5 -47t-41.5 -123z" />
    <glyph glyph-name="seven" unicode="7" 
d="M179 7l226 618v2h-322v53h383v-46l-229 -634h-58v7z" />
    <glyph glyph-name="eight" unicode="8" 
d="M275 39q85 0 124 41t39 105q0 65 -39 106t-124 41t-123.5 -41t-38.5 -106q0 -64 39 -105t123 -41zM275 695q51 0 88.5 -14.5t61.5 -39t36 -57.5t12 -70q0 -32 -8 -57t-21 -43.5t-29 -32t-32 -20.5v-2q51 -20 82.5 -66.5t31.5 -108.5q0 -42 -13 -78t-40.5 -63t-69.5 -42.5
t-99 -15.5t-98.5 15.5t-69 42.5t-40.5 63t-13 78q0 62 31.5 108.5t82.5 66.5v2q-16 7 -32 20.5t-29 32t-21 43.5t-8 57q0 37 12 70t36 57.5t61 39t88 14.5zM275 385q69 0 104 33.5t35 94.5q0 62 -35 95t-104 33q-70 0 -104 -33t-34 -95q0 -61 34.5 -94.5t103.5 -33.5z" />
    <glyph glyph-name="nine" unicode="9" 
d="M203.987 6l171.989 279.982l-0.999023 1q-16.999 -16.999 -45.498 -29.498q-28.498 -12.499 -63.4961 -12.499q-46.9971 0 -85.4941 15.999q-38.498 15.999 -65.9961 45.4971t-42.4971 70.9951q-15 41.498 -15 92.4951q0 49.9971 15 91.4941
q14.999 41.4971 42.4971 70.9951q27.498 29.499 67.4961 45.998q39.9971 16.499 89.9941 16.499t89.9941 -16.499q39.998 -16.499 67.4961 -45.998q27.498 -29.498 42.4971 -70.9951q15 -41.4971 15 -91.4941q0 -66.9961 -18.999 -116.493t-47.9971 -97.4941
l-150.991 -255.984h-64.9961v6zM427.974 469.972q0 75.9951 -41.4971 122.992q-41.498 46.9971 -114.493 46.9971t-114.493 -46.9971q-41.4971 -46.9971 -41.4971 -122.992q0 -75.9961 41.4971 -122.993q41.498 -46.9971 114.493 -46.9971t114.493 46.9971
q41.4971 46.9971 41.4971 122.993z" />
    <glyph glyph-name="colon" unicode=":" horiz-adv-x="262" 
d="M81 446q0 22 13.5 36.5t36.5 14.5t36.5 -14.5t13.5 -36.5t-13.5 -36.5t-36.5 -14.5t-36.5 14.5t-13.5 36.5zM81 36q0 22 13.5 36.5t36.5 14.5t36.5 -14.5t13.5 -36.5t-13.5 -36.5t-36.5 -14.5t-36.5 14.5t-13.5 36.5z" />
    <glyph glyph-name="semicolon" unicode=";" horiz-adv-x="267" 
d="M77 -154l31 222h64v-6l-49 -223h-46v7zM88 446q0 22 13.5 36.5t36.5 14.5t36.5 -14.5t13.5 -36.5t-13.5 -36.5t-36.5 -14.5t-36.5 14.5t-13.5 36.5z" />
    <glyph glyph-name="less" unicode="&#x3c;" 
d="M468 45l-415 204v42l415 203h5v-53l-357 -170v-3l357 -170v-53h-5z" />
    <glyph glyph-name="equal" unicode="=" 
d="M65 356v48h420v-48h-420zM65 139v48h420v-48h-420z" />
    <glyph glyph-name="greater" unicode="&#x3e;" 
d="M77 45v53l357 170v3l-357 170v53h5l415 -203v-42l-415 -204h-5z" />
    <glyph glyph-name="question" unicode="?" horiz-adv-x="425" 
d="M39 638q28 22 66 39.5t90 17.5q42 0 75.5 -15t56 -40.5t34.5 -59.5t12 -73q0 -47 -15 -81t-38.5 -58t-51.5 -39.5t-54 -25.5l-7 -106h-48l-2 141q32 11 60.5 25t50 33.5t34 46t12.5 63.5q0 58 -29.5 96t-89.5 38q-39 0 -71 -12.5t-59 -32.5zM137 32q0 23 12 35.5t34 12.5
q21 0 33 -12.5t12 -35.5q0 -22 -12 -34.5t-33 -12.5q-22 0 -34 12.5t-12 34.5z" />
    <glyph glyph-name="at" unicode="@" horiz-adv-x="917" 
d="M618 -93q-16 -9 -37.5 -17t-47 -15t-54 -11t-57.5 -4q-78 0 -144 30t-114 82.5t-75 124.5t-27 155q0 94 27.5 178t80.5 147.5t131.5 100.5t180.5 37q89 0 157.5 -29t115 -78.5t70 -115.5t23.5 -140q0 -78 -20 -135.5t-51.5 -95t-69.5 -55.5t-75 -18t-57 16.5t-28 41.5h-2
q-26 -17 -62 -32.5t-83 -15.5q-28 0 -53 10t-44.5 31.5t-31 55t-11.5 80.5q0 52 13 101t38 86.5t61 60t82 22.5q42 0 75.5 -14.5t60.5 -34.5l14 38h44l-52 -302q-7 -40 1 -67t39 -27q24 0 51 14t50 45t38.5 79t15.5 116q0 61 -19 117.5t-57.5 100t-96 69.5t-135.5 26
q-89 0 -156.5 -32.5t-114 -88.5t-70 -131t-23.5 -161q0 -73 23.5 -135.5t64.5 -108.5t96 -72t119 -26q66 0 108 14.5t68 28.5zM575 414q-19 15 -46.5 28t-59.5 13q-38 0 -66 -18.5t-47.5 -49.5t-29 -72.5t-9.5 -87.5q0 -57 28.5 -88t73.5 -31q39 0 66 12.5t48 25.5z" />
    <glyph glyph-name="A" unicode="A" horiz-adv-x="577" 
d="M553 0h-58l-63 180h-287l-63 -180h-58l236 680h57zM287 613l-49 -161l-76 -220h253l-76 220l-49 161h-3z" />
    <glyph glyph-name="B" unicode="B" horiz-adv-x="579" 
d="M319 53q62 0 101 32.5t39 100.5t-39 100t-101 32h-161v-265h161zM285 680q100 0 154.5 -43.5t54.5 -134.5q0 -60 -26.5 -98t-61.5 -52v-2q52 -16 82 -57.5t30 -107.5q0 -44 -14.5 -78.5t-41 -58t-62.5 -36t-78 -12.5h-220v680h183zM281 371q72 0 113 28t41 100t-41 100
t-113 28h-123v-256h123z" />
    <glyph glyph-name="C" unicode="C" horiz-adv-x="561" 
d="M69 340q0 82 18 148t53.5 112t87.5 70.5t120 24.5q37 0 77.5 -10t79.5 -33l-20 -47q-64 35 -137 35q-56 0 -97 -20.5t-68.5 -59.5t-41 -94.5t-13.5 -125.5t13.5 -125.5t41 -94.5t68.5 -59.5t97 -20.5q73 0 137 35l20 -47q-39 -23 -79.5 -33t-77.5 -10q-68 0 -120 24.5
t-87.5 70.5t-53.5 111.5t-18 148.5z" />
    <glyph glyph-name="D" unicode="D" horiz-adv-x="651" 
d="M102 680h156q87 0 148.5 -23t100.5 -66.5t57 -106.5t18 -144t-18 -144.5t-57 -107t-100.5 -66t-148.5 -22.5h-156v680zM247 53q79 0 132.5 18.5t85 55t45 90t13.5 123.5t-13.5 123.5t-45 90t-85 55t-132.5 18.5h-89v-574h89z" />
    <glyph glyph-name="E" unicode="E" horiz-adv-x="554" 
d="M484 680v-53h-326v-252h297v-53h-297v-269h329v-53h-385v680h382z" />
    <glyph glyph-name="F" unicode="F" horiz-adv-x="527" 
d="M482 680v-53h-324v-259h295v-53h-295v-315h-56v680h380z" />
    <glyph glyph-name="G" unicode="G" horiz-adv-x="618" 
d="M542 325v-280q-38 -26 -93 -43t-115 -17q-65 0 -114.5 25.5t-83 72t-50.5 112t-17 145.5q0 79 17.5 144t51.5 112t84.5 73t117.5 26q57 0 105.5 -16.5t89.5 -44.5l-25 -46q-42 26 -87.5 39t-82.5 13q-51 0 -90.5 -21t-66.5 -60t-41 -94.5t-14 -124.5q0 -67 13 -122.5
t38.5 -95t64.5 -61t90 -21.5q45 0 81.5 8.5t70.5 28.5v195l-132 11v42h188z" />
    <glyph glyph-name="H" unicode="H" horiz-adv-x="668" 
d="M510 320h-352v-320h-56v680h56v-307h352v307h56v-680h-56v320z" />
    <glyph glyph-name="I" unicode="I" horiz-adv-x="260" 
d="M158 0h-56v680h56v-680z" />
    <glyph glyph-name="J" unicode="J" horiz-adv-x="447" 
d="M57 95q18 -19 47 -37t73 -18q54 0 85 32t31 109v499h56v-504q0 -94 -47 -142.5t-125 -48.5q-27 0 -50 6.5t-41.5 17t-33.5 22t-25 22.5z" />
    <glyph glyph-name="K" unicode="K" horiz-adv-x="541" 
d="M158 320v-320h-56v680h56v-334h2l277 334h67v-6l-284 -337l296 -331v-6h-73l-283 320h-2z" />
    <glyph glyph-name="L" unicode="L" horiz-adv-x="489" 
d="M158 680v-627h298v-53h-354v680h56z" />
    <glyph glyph-name="M" unicode="M" horiz-adv-x="796" 
d="M457 355l183 325h54v-680h-56v474l7 106h-2l-221 -409h-48l-221 409h-2l7 -106v-474h-56v680h54l183 -325l58 -123h2z" />
    <glyph glyph-name="N" unicode="N" horiz-adv-x="667" 
d="M509 217v463h56v-680h-54l-358 581h-2l7 -118v-463h-56v680h54l356 -581h2z" />
    <glyph glyph-name="O" unicode="O" horiz-adv-x="666" 
d="M129 340q0 -64 9.5 -118.5t33 -95t62.5 -63.5t99 -23t99 23t62.5 63.5t33 95t9.5 118.5t-9.5 118.5t-33 95t-62.5 63.5t-99 23t-99 -23t-62.5 -63.5t-33 -95t-9.5 -118.5zM70 340q0 75 14 140t45 112.5t81 75t123 27.5t123 -27.5t81 -75t45 -112.5t14 -140t-14 -140
t-45 -112.5t-81 -75t-123 -27.5t-123 27.5t-81 75t-45 112.5t-14 140z" />
    <glyph glyph-name="P" unicode="P" horiz-adv-x="555" 
d="M102 0v680h198q99 0 152 -51t53 -150t-53.5 -149.5t-151.5 -50.5h-142v-279h-56zM158 332h138q82 0 116 40.5t34 106.5q0 33 -8 60.5t-26 47t-46.5 30t-69.5 10.5h-138v-295z" />
    <glyph glyph-name="Q" unicode="Q" horiz-adv-x="666" 
d="M70 340q0 75 14 140t45 112.5t81 75t123 27.5t123 -27.5t81 -75t45 -112.5t14 -140q0 -60 -9 -114.5t-28.5 -98.5t-50.5 -76.5t-76 -49.5l161 -94l-31 -50l-208 129q-6 -1 -11 -1h-10q-73 0 -123 27.5t-81 75t-45 112.5t-14 140zM129 340q0 -64 9.5 -118.5t33 -95
t62.5 -63.5t99 -23t99 23t62.5 63.5t33 95t9.5 118.5t-9.5 118.5t-33 95t-62.5 63.5t-99 23t-99 -23t-62.5 -63.5t-33 -95t-9.5 -118.5z" />
    <glyph glyph-name="R" unicode="R" horiz-adv-x="591" 
d="M102 0v680h215q45 0 82 -11t64 -34.5t42 -58.5t15 -83q0 -81 -44.5 -127t-122.5 -55l205 -304v-7h-64l-203 307h-133v-307h-56zM158 360h156q72 0 109.5 32.5t37.5 101.5q0 68 -37.5 100.5t-109.5 32.5h-156v-267z" />
    <glyph glyph-name="S" unicode="S" horiz-adv-x="511" 
d="M84 106q34 -32 72.5 -49t95.5 -17q61 0 100.5 35t39.5 94q0 53 -26.5 84t-86.5 57l-73 32q-31 13 -56.5 29t-43.5 36t-28 46t-10 59q0 38 13.5 71.5t39 58t62 39t82.5 14.5q60 0 100.5 -17t72.5 -40l-27 -45q-32 22 -68 34.5t-78 12.5q-32 0 -57.5 -9.5t-43.5 -26.5
t-27.5 -40t-9.5 -50q0 -21 4.5 -37.5t16.5 -30.5t32 -27t52 -26l65 -27q35 -14 63.5 -32t48.5 -41t31 -53t11 -69t-15 -72.5t-41 -59t-63 -40t-80 -14.5q-64 0 -111.5 20t-86.5 58z" />
    <glyph glyph-name="T" unicode="T" horiz-adv-x="502" 
d="M468 680v-53h-189v-627h-56v627h-189v53h434z" />
    <glyph glyph-name="U" unicode="U" horiz-adv-x="654" 
d="M327 -15q-119 0 -174.5 66t-55.5 179v450h56v-445q0 -95 41.5 -145t132.5 -50t132.5 50t41.5 145v445h56v-450q0 -57 -13.5 -102t-42 -77t-72 -49t-102.5 -17z" />
    <glyph glyph-name="V" unicode="V" horiz-adv-x="571" 
d="M256 0l-230 674v6h58l154 -453l46 -161h3l46 161l154 453h58v-6l-230 -674h-59z" />
    <glyph glyph-name="W" unicode="W" horiz-adv-x="897" 
d="M447 613l-37 -157l-131 -456h-58l-189 674v6h57l122 -439l38 -166h2l40 166l128 439h59l128 -439l40 -166h2l38 166l122 439h57v-6l-189 -674h-58l-131 456l-37 157h-3z" />
    <glyph glyph-name="X" unicode="X" horiz-adv-x="544" 
d="M271 296l-173 -296h-61v6l199 335l-199 333v6h62l172 -296h2l172 296h62v-6l-199 -333l199 -335v-6h-61l-173 296h-2z" />
    <glyph glyph-name="Y" unicode="Y" horiz-adv-x="520" 
d="M84 680l175 -331h2l175 331h61v-6l-209 -386v-288h-56v288l-209 386v6h61z" />
    <glyph glyph-name="Z" unicode="Z" horiz-adv-x="498" 
d="M444 680v-50l-327 -575v-2h327v-53h-396v50l326 575v2h-313v53h383z" />
    <glyph glyph-name="bracketleft" unicode="[" horiz-adv-x="301" 
d="M256 700v-41l-114 -11v-796l114 -11v-39h-170v898h170z" />
    <glyph glyph-name="backslash" unicode="\" horiz-adv-x="350" 
d="M260 0l-222 670v10h51l223 -670v-10h-52z" />
    <glyph glyph-name="bracketright" unicode="]" horiz-adv-x="301" 
d="M215 700v-898h-170v39l114 11v796l-114 11v41h170z" />
    <glyph glyph-name="asciicircum" unicode="^" horiz-adv-x="475" 
d="M429 372h-53l-122 260h-2l-122 -260h-53v6l154 322h44l154 -322v-6z" />
    <glyph glyph-name="underscore" unicode="_" horiz-adv-x="444" 
d="M70 -68v48h304v-48h-304z" />
    <glyph glyph-name="grave" unicode="`" 
d="M219 698h61l49 -111v-6h-49l-61 111v6z" />
    <glyph glyph-name="a" unicode="a" horiz-adv-x="480" 
d="M249 233q-68 0 -103.5 -23.5t-35.5 -78.5q0 -94 95 -94q37 0 72 10.5t65 36.5v149h-93zM354 0l-6 39h-2q-29 -23 -67 -37.5t-83 -14.5q-65 0 -104 37.5t-39 104.5q0 42 15 70.5t40.5 46.5t60 26t74.5 8h99v38q0 68 -31 98.5t-88 30.5q-36 0 -67.5 -12.5t-54.5 -32.5
l-25 41q24 21 63 37.5t84 16.5q85 0 129.5 -46t44.5 -134v-317h-43z" />
    <glyph glyph-name="b" unicode="b" horiz-adv-x="537" 
d="M142 94q28 -26 64 -42.5t78 -16.5q36 0 61.5 16t41.5 44t23.5 65.5t7.5 80.5t-7.5 80.5t-23.5 65.5t-41.5 44t-61.5 16q-42 0 -78 -16.5t-64 -42.5v-294zM139 42l-9 -42h-43v700h55v-259h2q26 23 59.5 39.5t86.5 16.5q46 0 81 -19t58 -53.5t34.5 -81.5t11.5 -102
q0 -56 -11.5 -102.5t-34.5 -81t-58 -53.5t-81 -19q-52 0 -87.5 18.5t-61.5 38.5h-2z" />
    <glyph glyph-name="c" unicode="c" horiz-adv-x="458" 
d="M61 241q0 54 12 100.5t37 81t63.5 54.5t92.5 20q38 0 74 -9t67 -27l-18 -43q-21 12 -54 20.5t-68 8.5q-42 0 -71 -19t-46 -49t-24.5 -66.5t-7.5 -71.5t7.5 -71.5t24.5 -66.5t46 -49t71 -19q35 0 68 8.5t54 20.5l18 -43q-31 -18 -67 -27t-74 -9q-54 0 -92.5 20t-63.5 54.5
t-37 81t-12 100.5z" />
    <glyph glyph-name="d" unicode="d" horiz-adv-x="537" 
d="M395 388q-28 26 -64 42.5t-78 16.5q-36 0 -61.5 -16t-41.5 -44t-23.5 -65.5t-7.5 -80.5t7.5 -80.5t23.5 -65.5t41.5 -44t61.5 -16q42 0 78 16.5t64 42.5v294zM396 42q-26 -20 -61.5 -38.5t-87.5 -18.5q-47 0 -81.5 19t-57.5 53.5t-34.5 81t-11.5 102.5q0 55 11.5 102
t34.5 81.5t57.5 53.5t81.5 19q53 0 86.5 -16.5t59.5 -39.5h2v259h55v-700h-43l-9 42h-2z" />
    <glyph glyph-name="e" unicode="e" horiz-adv-x="512" 
d="M116 231q2 -87 41.5 -141.5t119.5 -54.5q43 0 77.5 14.5t58.5 32.5l23 -42q-26 -20 -67.5 -37.5t-93.5 -17.5q-56 0 -96.5 19.5t-66.5 54t-38.5 82t-12.5 102.5t13 102t39 80.5t65 52.5t91 19q51 0 86.5 -18t57 -46.5t31.5 -65t10 -73.5q0 -16 -1.5 -34t-3.5 -29h-333z
M269 447q-65 0 -104.5 -43t-47.5 -126h279q1 5 1 11.5v10.5q0 29 -7 55.5t-22 47t-39.5 32.5t-59.5 12z" />
    <glyph glyph-name="f" unicode="f" horiz-adv-x="324" 
d="M113 0v434h-79v37l79 11v80q0 143 125 143q20 0 35.5 -3t26.5 -5v-50q-9 2 -26 5t-33 3q-38 0 -56 -20t-18 -71v-82h129v-48h-129v-434h-54z" />
    <glyph glyph-name="g" unicode="g" horiz-adv-x="536" 
d="M394 387q-27 29 -63.5 44.5t-78.5 15.5q-38 0 -63 -17t-41 -45.5t-22.5 -65.5t-6.5 -78t6.5 -78t22.5 -65t41 -45t63 -17q42 0 78.5 15.5t63.5 44.5v291zM449 -13q0 -95 -48.5 -147.5t-133.5 -52.5q-54 0 -93.5 12.5t-65.5 28.5l18 47q26 -14 60 -26t81 -12q57 0 92 35.5
t35 112.5v57h-2q-24 -22 -59.5 -39t-86.5 -17q-50 0 -85 20.5t-57 55.5t-32 81.5t-10 97.5t10 97.5t32 82t57 56t85 20.5q56 0 93 -19t58 -38h2l6 42h44v-495z" />
    <glyph glyph-name="h" unicode="h" horiz-adv-x="541" 
d="M403 0v302q0 75 -27 110t-87 35q-21 0 -42.5 -5t-40.5 -13t-35.5 -18t-28.5 -20v-391h-55v700h55v-257h2q10 7 24.5 16.5t34 17.5t43 14t50.5 6q76 0 119 -43.5t43 -142.5v-311h-55z" />
    <glyph glyph-name="i" unicode="i" horiz-adv-x="228" 
d="M87 0v482h54v-482h-54zM72 628q0 21 12 32.5t30 11.5t30 -11.5t12 -32.5t-12 -32.5t-30 -11.5t-30 11.5t-12 32.5z" />
    <glyph glyph-name="j" unicode="j" horiz-adv-x="229" 
d="M142 482v-551q0 -75 -30 -109.5t-84 -34.5q-15 0 -28 2t-24 5v48q10 -2 23.5 -3.5t25.5 -1.5q31 0 46.5 19t15.5 72v554h55zM72 628q0 21 12 32.5t30 11.5t30 -11.5t12 -32.5t-12 -32.5t-30 -11.5t-30 11.5t-12 32.5z" />
    <glyph glyph-name="k" unicode="k" horiz-adv-x="454" 
d="M142 224v-224h-55v700h55v-448h2l207 230h67v-5l-218 -238l226 -233v-6h-71l-211 224h-2z" />
    <glyph glyph-name="l" unicode="l" horiz-adv-x="237" 
d="M91 0v700h55v-700h-55z" />
    <glyph glyph-name="m" unicode="m" horiz-adv-x="831" 
d="M130 482l6 -42h3q10 9 24.5 19t33 18.5t41.5 14t52 5.5q46 0 78.5 -18t49.5 -47h2q30 24 72 44.5t94 20.5q82 0 122 -44.5t40 -141.5v-311h-55v302q0 75 -25 110t-88 35q-35 0 -75 -16t-69 -42q5 -16 7 -38t2 -40v-311h-55v302q0 75 -24.5 110t-82.5 35q-47 0 -83 -18
t-58 -38v-391h-55v482h43z" />
    <glyph glyph-name="n" unicode="n" horiz-adv-x="541" 
d="M131 482l6 -42h2q23 19 64 38t93 19q76 0 119 -43.5t43 -142.5v-311h-55v302q0 75 -27 110t-87 35q-42 0 -82 -17t-65 -39v-391h-55v482h44z" />
    <glyph glyph-name="o" unicode="o" horiz-adv-x="544" 
d="M119 241q0 -39 6.5 -76t23.5 -66t46.5 -46.5t76.5 -17.5t76.5 17.5t46.5 46.5t23.5 66t6.5 76t-6.5 76t-23.5 66t-46.5 46.5t-76.5 17.5t-76.5 -17.5t-46.5 -46.5t-23.5 -66t-6.5 -76zM482 241q0 -51 -10.5 -97t-35 -81.5t-64.5 -56.5t-100 -21t-100.5 21t-64.5 56.5
t-34.5 81.5t-10.5 97t10.5 97t34.5 81.5t64.5 56.5t100.5 21t100 -21t64.5 -56.5t35 -81.5t10.5 -97z" />
    <glyph glyph-name="p" unicode="p" horiz-adv-x="537" 
d="M142 94q28 -26 64 -42.5t78 -16.5q36 0 61.5 16t41.5 44t23.5 65.5t7.5 80.5t-7.5 80.5t-23.5 65.5t-41.5 44t-61.5 16q-42 0 -78 -16.5t-64 -42.5v-294zM141 440q26 20 61.5 38.5t87.5 18.5q46 0 81 -19t58 -53.5t34.5 -81.5t11.5 -102q0 -56 -11.5 -102.5t-34.5 -81
t-58 -53.5t-81 -19q-53 0 -86.5 16.5t-59.5 39.5h-2v-239h-55v680h43l9 -42h2z" />
    <glyph glyph-name="q" unicode="q" horiz-adv-x="537" 
d="M395 388q-29 26 -64.5 42.5t-78.5 16.5q-36 0 -61 -16t-41 -44t-23.5 -65.5t-7.5 -80.5t7.5 -80.5t23.5 -65.5t41 -44t61 -16q43 0 78.5 16.5t64.5 42.5v294zM398 440l8 42h44v-680h-55v239h-2q-26 -23 -60 -39.5t-87 -16.5q-47 0 -81.5 19t-57 53.5t-34 81t-11.5 102.5
q0 55 11.5 102t34 81.5t57 53.5t81.5 19q53 0 88.5 -18.5t61.5 -38.5h2z" />
    <glyph glyph-name="r" unicode="r" horiz-adv-x="330" 
d="M129 482l8 -47h2q20 29 47.5 45.5t68.5 16.5q14 0 25.5 -1.5t22.5 -4.5l-9 -50q-11 3 -21.5 4.5t-23.5 1.5q-35 0 -62.5 -20t-44.5 -55v-372h-55v482h42z" />
    <glyph glyph-name="s" unicode="s" horiz-adv-x="426" 
d="M76 75q27 -19 59 -29.5t70 -10.5q52 0 80.5 23.5t28.5 65.5q0 16 -4 28.5t-14 23t-27 19.5t-43 17l-49 16q-24 8 -45 19t-36.5 26.5t-24 36t-8.5 48.5q0 32 12 58t34 44t52 27.5t65 9.5q42 0 73 -10t62 -24l-20 -47q-32 17 -60 24t-55 7q-51 0 -78.5 -23t-27.5 -64
q0 -32 17.5 -51t58.5 -31l49 -15q60 -18 93 -47.5t33 -89.5q0 -32 -12.5 -57.5t-34.5 -44.5t-52.5 -29t-66.5 -10q-54 0 -89 13t-64 33z" />
    <glyph glyph-name="t" unicode="t" horiz-adv-x="324" 
d="M171 594v-112h119v-48h-119v-322q0 -46 15 -61.5t42 -15.5q17 0 32.5 4t29.5 9v-50q-14 -5 -30.5 -9t-37.5 -4q-53 0 -79.5 28.5t-26.5 97.5v323h-85v37l85 11v112h55z" />
    <glyph glyph-name="u" unicode="u" horiz-adv-x="533" 
d="M403 0l-7 42h-2q-23 -19 -62.5 -38t-91.5 -19q-76 0 -116.5 43.5t-40.5 142.5v311h55v-302q0 -75 24.5 -110t84.5 -35q42 0 81 17t63 39v391h55v-482h-43z" />
    <glyph glyph-name="v" unicode="v" horiz-adv-x="463" 
d="M429 476l-170 -476h-55l-170 476v6h56l117 -334l23 -90h3l23 90l117 334h56v-6z" />
    <glyph glyph-name="w" unicode="w" horiz-adv-x="766" 
d="M382 424l-24 -91l-110 -333h-55l-158 476v6h56l104 -323l25 -97h2l27 97l106 323h56l106 -323l27 -97h2l25 97l104 323h56v-6l-158 -476h-55l-110 333l-24 91h-2z" />
    <glyph glyph-name="x" unicode="x" horiz-adv-x="447" 
d="M222 202l-124 -202h-59v6l151 235l-151 235v6h59l124 -204h3l124 204h59v-6l-151 -235l151 -235v-6h-59l-124 202h-3z" />
    <glyph glyph-name="y" unicode="y" horiz-adv-x="467" 
d="M239 60l23 85l115 337h55v-6l-192 -559q-23 -68 -60 -99t-85 -31q-18 0 -31.5 2.5t-26.5 6.5v49q26 -8 56 -8q29 0 52 19.5t38 63.5l28 82l-179 474v6h55l125 -336l24 -86h3z" />
    <glyph glyph-name="z" unicode="z" horiz-adv-x="411" 
d="M359 482v-36l-245 -396v-2h245v-48h-312v36l244 396v2h-233v48h301z" />
    <glyph glyph-name="braceleft" unicode="{" horiz-adv-x="308" 
d="M51 276q38 0 52 19.5t14 55.5v214q0 34 5.5 59.5t20.5 42t41.5 25t68.5 8.5h8v-41q-52 0 -70 -21.5t-18 -72.5v-205q0 -46 -14 -71t-42 -37v-2q28 -12 42 -37t14 -71v-205q0 -51 18 -72.5t70 -21.5v-41h-8q-42 0 -68.5 8.5t-41.5 25t-20.5 42t-5.5 59.5v214
q0 36 -14 55.5t-52 19.5v50z" />
    <glyph glyph-name="bar" unicode="|" horiz-adv-x="223" 
d="M137 -198h-51v898h51v-898z" />
    <glyph glyph-name="braceright" unicode="}" horiz-adv-x="308" 
d="M257 226q-38 0 -52 -19.5t-14 -55.5v-214q0 -34 -5.5 -59.5t-20.5 -42t-41.5 -25t-68.5 -8.5h-8v41q52 0 70 21.5t18 72.5v205q0 46 14 71t41 37v2q-27 12 -41 37t-14 71v205q0 51 -18 72.5t-70 21.5v41h8q42 0 68.5 -8.5t41.5 -25t20.5 -42t5.5 -59.5v-214
q0 -36 14 -55.5t52 -19.5v-50z" />
    <glyph glyph-name="asciitilde" unicode="~" horiz-adv-x="495" 
d="M323 227q-20 0 -39.5 7.5t-39 17t-39 17t-38.5 7.5q-13 0 -32 -8t-37 -29l-27 32q14 20 39 37.5t62 17.5q23 0 43.5 -7.5t39.5 -17t37 -17t36 -7.5q13 0 32 8t37 29l27 -32q-14 -20 -39 -37.5t-62 -17.5z" />
    <glyph glyph-name="uni00A0" unicode="&#xa0;" horiz-adv-x="255" 
 />
    <glyph glyph-name="exclamdown" unicode="&#xa1;" horiz-adv-x="230" 
d="M98.9941 288.982h33.998l10.999 -297.981v-188.989h-55.9971v188.989zM163.99 445.973q0 -21.998 -13.499 -36.498q-13.5 -14.499 -36.498 -14.499q-22.999 0 -36.498 14.499q-13.499 14.5 -13.499 36.498q0 21.999 13.499 36.498t36.498 14.499q22.998 0 36.498 -14.499
q13.499 -14.499 13.499 -36.498z" />
    <glyph glyph-name="cent" unicode="&#xa2;" 
d="M107 241q0 50 10.5 94t32 78t55 55.5t80.5 26.5v83h51v-82q31 -3 61 -11.5t56 -23.5l-18 -43q-18 10 -44 17.5t-55 10.5v-410q29 2 55 9.5t44 18.5l18 -43q-26 -15 -56 -23.5t-61 -11.5v-82h-51v83q-47 5 -80.5 26.5t-55 55t-32 78t-10.5 94.5zM164 241q0 -32 6 -65.5
t20.5 -62t37.5 -49.5t57 -27v407q-34 -6 -57 -27t-37.5 -49.5t-20.5 -61.5t-6 -65z" />
    <glyph glyph-name="sterling" unicode="&#xa3;" 
d="M159 356q-7 45 -12 86t-5 74q0 46 13.5 80t37 56t54.5 32.5t67 10.5q39 0 75.5 -12.5t68.5 -33.5l-23 -48q-34 22 -62.5 30.5t-58.5 8.5q-22 0 -42.5 -6.5t-36 -21t-25 -38.5t-9.5 -58t5 -75t12 -85h183v-48h-175q5 -35 8.5 -67t3.5 -60q0 -27 -5.5 -48t-14.5 -36.5
t-19 -25.5t-19 -15v-2h284v-54h-369v46q84 43 84 134q0 28 -3.5 60.5t-8.5 67.5h-82v48h74z" />
    <glyph glyph-name="currency" unicode="&#xa4;" 
d="M436 270q0 -29 -6 -57.5t-20 -52.5l81 -87l-35 -36l-79 85q-40 -37 -107 -37q-62 0 -100 32l-74 -80l-35 37l74 80q-15 24 -22.5 54t-7.5 62t7.5 62t22.5 54l-75 81l35 36l74 -81q41 33 101 33q35 0 61 -10t46 -28l80 86l34 -37l-81 -87q14 -24 20 -52t6 -57zM159 270
q0 -25 6 -49t19 -43t34 -31t52 -12q32 0 53.5 12t34.5 31t18.5 43t5.5 49t-5.5 49t-18.5 43t-34.5 31t-53.5 12q-31 0 -52 -12t-34 -31t-19 -43t-6 -49z" />
    <glyph glyph-name="yen" unicode="&#xa5;" 
d="M304 157v-157h-57v157h-164v48h164v115h-164v48h135l-167 305v7h62l161 -304h2l162 304h62v-7l-167 -305h135v-48h-164v-115h164v-48h-164z" />
    <glyph glyph-name="brokenbar" unicode="&#xa6;" horiz-adv-x="235" 
d="M143 134v-332h-51v332h51zM92 368v332h51v-332h-51z" />
    <glyph glyph-name="section" unicode="&#xa7;" horiz-adv-x="509" 
d="M406 603q-66 42 -145 42q-63 0 -95.5 -30t-32.5 -78q0 -34 20 -58t74 -45l66 -26q36 -14 63 -28.5t46 -32.5t28.5 -41.5t9.5 -54.5q0 -44 -21 -78.5t-55 -57.5v-3q40 -26 58 -56t18 -74q0 -36 -13.5 -65.5t-38.5 -50.5t-59.5 -33t-76.5 -12q-66 0 -110.5 20t-78.5 44
l25 44q30 -24 69 -41t95 -17t93.5 27.5t37.5 82.5q0 42 -26 67.5t-86 48.5l-67 26q-68 26 -98 60t-30 85q0 40 19 77t55 62v3q-36 23 -55 53.5t-19 71.5q0 34 12.5 63t36 50.5t58 34t78.5 12.5q53 0 94 -13t73 -34zM195 387q-26 -17 -44 -45t-18 -67q0 -42 26 -65t83 -44
l79 -30q26 17 44 45t18 67q0 42 -26 65t-83 44z" />
    <glyph glyph-name="dieresis" unicode="&#xa8;" 
d="M146 628q0 21 12 32.5t30 11.5t30 -11.5t12 -32.5t-12 -32.5t-30 -11.5t-30 11.5t-12 32.5zM316 628q0 21 12 32.5t30 11.5t30 -11.5t12 -32.5t-12 -32.5t-30 -11.5t-30 11.5t-12 32.5z" />
    <glyph glyph-name="copyright" unicode="&#xa9;" horiz-adv-x="834" 
d="M111 340q0 -67 22.5 -124.5t63 -99.5t96.5 -66t124 -24q67 0 123.5 24t97 66t63 99.5t22.5 124.5t-22.5 124t-63 99t-97 66t-123.5 24q-68 0 -124 -24t-96.5 -66t-63 -99t-22.5 -124zM67 340q0 75 25.5 140t72 113t111 75t141.5 27t141.5 -27t111 -75t72 -113t25.5 -140
t-25.5 -140t-72 -113t-111 -75.5t-141.5 -27.5t-141.5 27.5t-111 75.5t-72 113t-25.5 140zM245 340q0 88 45 141.5t134 53.5q51 0 104 -24l-15 -43q-24 10 -45 13.5t-44 3.5q-65 0 -94.5 -39t-29.5 -106t29.5 -106t94.5 -39q23 0 44 3.5t45 13.5l15 -43q-53 -24 -104 -24
q-89 0 -134 53.5t-45 141.5z" />
    <glyph glyph-name="ordfeminine" unicode="&#xaa;" horiz-adv-x="363" 
d="M211 489q-30 0 -50 -4t-31 -10.5t-15.5 -16.5t-4.5 -22q0 -24 14 -37.5t44 -13.5q20 0 42.5 8t40.5 20v76h-40zM261 350l-5 27h-1q-43 -34 -93 -34q-46 0 -72.5 24.5t-26.5 68.5q0 28 10.5 46t29.5 28.5t44 14.5t55 4h49v18q0 74 -69 74q-20 0 -42 -6t-40 -20l-22 33
q19 15 46.5 25t58.5 10q57 0 85.5 -29.5t28.5 -86.5v-197h-36zM64 227v40h236v-40h-236z" />
    <glyph glyph-name="guillemotleft" unicode="&#xab;" horiz-adv-x="458" 
d="M50 272l140 205l37 -27l-120 -180l119 -180l-36 -27l-140 205v4zM223 272l140 205l37 -27l-120 -180l119 -180l-36 -27l-140 205v4z" />
    <glyph glyph-name="logicalnot" unicode="&#xac;" 
d="M427 245h-359v48h410v-180h-51v132z" />
    <glyph glyph-name="uni00AD" unicode="&#xad;" horiz-adv-x="397" 
d="M80 247v48h237v-48h-237z" />
    <glyph glyph-name="registered" unicode="&#xae;" horiz-adv-x="570" 
d="M101 561q0 -41 13.5 -76t37.5 -61t58 -40.5t75 -14.5t75 14.5t58 40.5t37.5 61t13.5 76t-13.5 76t-37.5 61t-58 40.5t-75 14.5t-75 -14.5t-58 -40.5t-37.5 -61t-13.5 -76zM203 455v218h88q74 0 74 -62q0 -29 -15 -44t-35 -19l67 -88v-5h-43l-65 88h-31v-88h-40zM60 561
q0 49 16.5 91t46.5 73t71.5 48t90.5 17t90.5 -17t71.5 -48t46.5 -73t16.5 -91q0 -50 -16.5 -91.5t-46.5 -72.5t-71.5 -48t-90.5 -17t-90.5 17t-71.5 48t-46.5 72.5t-16.5 91.5zM324 609q0 29 -35 29h-46v-58h46q35 0 35 29z" />
    <glyph glyph-name="macron" unicode="&#xaf;" 
d="M159 595v48h228v-48h-228z" />
    <glyph glyph-name="degree" unicode="&#xb0;" horiz-adv-x="397" 
d="M112 552q0 -45 24 -71t62 -26q39 0 63 26t24 71q0 44 -24 70t-63 26q-38 0 -62 -26t-24 -70zM60 552q0 31 10 57.5t28.5 45.5t44 29.5t55.5 10.5q31 0 56.5 -10.5t44 -29.5t28.5 -45.5t10 -57.5q0 -64 -38.5 -104t-100.5 -40q-61 0 -99.5 40t-38.5 104z" />
    <glyph glyph-name="plusminus" unicode="&#xb1;" 
d="M300 421h185v-48h-185v-206h-51v206h-185v48h185v205h51v-205zM485 49v-48h-420v48h420z" />
    <glyph glyph-name="uni00B2" unicode="&#xb2;" horiz-adv-x="288" 
d="M107 516h140v-43h-210v35l112 111q19 18 31.5 37t12.5 44q0 30 -16 45.5t-44 15.5q-23 0 -40.5 -11.5t-31.5 -24.5l-25 36q14 14 38.5 30t59.5 16q50 0 80 -28.5t30 -75.5q0 -35 -15 -60t-36 -45l-86 -81v-1z" />
    <glyph glyph-name="uni00B3" unicode="&#xb3;" horiz-adv-x="295" 
d="M77 660h50q37 0 52.5 14.5t15.5 35.5q0 27 -16 39t-46 12q-18 0 -39 -4.5t-38 -14.5l-15 42q20 11 45.5 17t48.5 6q51 0 82 -23.5t31 -66.5q0 -29 -15.5 -48t-34.5 -27v-1q23 -9 39 -28t16 -52q0 -45 -33.5 -70.5t-88.5 -25.5q-32 0 -56 7t-42 17l14 43q17 -9 39 -15
t44 -6q29 0 50.5 10.5t21.5 43.5q0 52 -75 52h-50v43z" />
    <glyph glyph-name="acute" unicode="&#xb4;" 
d="M326 692l-61 -111h-48v6l48 111h61v-6z" />
    <glyph glyph-name="mu" unicode="&#xb5;" horiz-adv-x="532" 
d="M405 0l-7 42h-2q-23 -19 -62.5 -38t-91.5 -19q-38 0 -62.5 10.5t-44.5 33.5l5 -78v-149h-55v680h55v-302q0 -75 24.5 -110t84.5 -35q42 0 81 17t63 39v391h55v-482h-43z" />
    <glyph glyph-name="paragraph" unicode="&#xb6;" horiz-adv-x="487" 
d="M153 457q-46 0 -79.5 28t-33.5 82q0 57 33.5 85t79.5 28h297v-48h-91v-830h-51v830h-104v-830h-51v655z" />
    <glyph glyph-name="periodcentered" unicode="&#xb7;" horiz-adv-x="252" 
d="M76 292q0 22 13.5 36.5t36.5 14.5t36.5 -14.5t13.5 -36.5t-13.5 -36.5t-36.5 -14.5t-36.5 14.5t-13.5 36.5z" />
    <glyph glyph-name="cedilla" unicode="&#xb8;" 
d="M243 -79l23 86h47l-17 -57q28 -3 48 -20.5t20 -52.5q0 -47 -28.5 -68.5t-69.5 -21.5q-27 0 -45.5 7t-27.5 12l13 42q11 -7 26 -11.5t32 -4.5q22 0 34.5 10.5t12.5 34.5q0 23 -17 30.5t-46 7.5z" />
    <glyph glyph-name="uni00B9" unicode="&#xb9;" horiz-adv-x="224" 
d="M28 701v45l105 54h35v-327h-46v271h-1l-87 -43h-6z" />
    <glyph glyph-name="ordmasculine" unicode="&#xba;" horiz-adv-x="376" 
d="M188 383q51 0 73 32.5t22 86.5q0 51 -22 85t-73 34t-73 -34t-22 -85q0 -54 22 -86.5t73 -32.5zM188 663q38 0 65 -13t44 -34.5t25 -51t8 -62.5t-8 -62.5t-25 -51t-44 -34.5t-65 -13t-65 13t-44 34.5t-25 51t-8 62.5t8 62.5t25 51t44 34.5t65 13zM70 227v40h236v-40h-236z
" />
    <glyph glyph-name="guillemotright" unicode="&#xbb;" horiz-adv-x="459" 
d="M236 268l-140 -205l-36 27l118 180l-120 180l38 27l140 -205v-4zM409 268l-140 -205l-36 27l118 180l-120 180l38 27l140 -205v-4z" />
    <glyph glyph-name="onequarter" unicode="&#xbc;" horiz-adv-x="649" 
d="M99 0v6l380 674h52v-6l-381 -674h-51zM44 581v45l105 54h35v-327h-46v271h-1l-87 -43h-6zM519 239h46v-126h38v-43h-38v-70h-46v70h-166v40l95 217h51l-93 -213v-1h113v126z" />
    <glyph glyph-name="onehalf" unicode="&#xbd;" horiz-adv-x="663" 
d="M99 0v6l380 674h52v-6l-381 -674h-51zM46 579v45l105 54h35v-327h-46v271h-1l-87 -43h-6zM467 43h140v-43h-210v35l112 111q19 18 31.5 37t12.5 44q0 30 -16 45.5t-44 15.5q-23 0 -40.5 -11.5t-31.5 -24.5l-25 36q14 14 38.5 30t59.5 16q50 0 80 -28.5t30 -75.5
q0 -35 -15 -60t-36 -45l-86 -81v-1z" />
    <glyph glyph-name="threequarters" unicode="&#xbe;" horiz-adv-x="689" 
d="M153 0v6l380 674h52v-6l-381 -674h-51zM558 239h46v-126h38v-43h-38v-70h-46v70h-166v40l95 217h51l-93 -213v-1h113v126zM96 537h50q37 0 52.5 14.5t15.5 35.5q0 27 -16 39t-46 12q-18 0 -39 -4.5t-38 -14.5l-15 42q20 11 45.5 17t48.5 6q51 0 82 -23.5t31 -66.5
q0 -29 -15.5 -48t-34.5 -27v-1q23 -9 39 -28t16 -52q0 -45 -33.5 -70.5t-88.5 -25.5q-32 0 -56 7t-42 17l14 43q17 -9 39 -15t44 -6q29 0 50.5 10.5t21.5 43.5q0 52 -75 52h-50v43z" />
    <glyph glyph-name="questiondown" unicode="&#xbf;" horiz-adv-x="419" 
d="M382.977 -155.99q-27.998 -21.999 -65.9961 -39.498q-37.9971 -17.499 -89.9941 -17.499q-41.998 0 -75.4951 14.999q-33.498 14.999 -55.9971 40.498q-22.499 25.498 -34.498 59.4961t-11.999 72.9961q0 46.9971 14.999 80.9941q14.999 33.998 38.498 57.9971
q23.498 23.998 51.4961 39.4971q27.999 15.499 53.9971 25.499l7 105.993h47.9971l1.99902 -140.991q-31.998 -10.999 -60.4961 -24.998q-28.498 -14 -49.9971 -33.498q-21.498 -19.499 -33.998 -45.9971q-12.499 -26.499 -12.499 -63.4961q0 -57.9971 29.498 -95.9941
q29.499 -37.998 89.4951 -37.998q38.9971 0 70.9951 12.499t58.9971 32.498zM284.982 449.973q0 -22.999 -11.999 -35.498t-33.998 -12.499q-20.999 0 -32.998 12.499t-11.999 35.498q0 21.998 11.999 34.498q11.999 12.499 32.998 12.499q21.999 0 33.998 -12.499
q11.999 -12.5 11.999 -34.498z" />
    <glyph glyph-name="Agrave" unicode="&#xc0;" horiz-adv-x="577" 
d="M553 0h-58l-63 180h-287l-63 -180h-58l236 680h57zM287 613l-49 -161l-76 -220h253l-76 220l-49 161h-3zM203 863h63l46 -112v-6h-50l-59 112v6z" />
    <glyph glyph-name="Aacute" unicode="&#xc1;" horiz-adv-x="577" 
d="M553 0h-58l-63 180h-287l-63 -180h-58l236 680h57zM287 613l-49 -161l-76 -220h253l-76 220l-49 161h-3zM373 857l-59 -112h-50v6l46 112h63v-6z" />
    <glyph glyph-name="Acircumflex" unicode="&#xc2;" horiz-adv-x="577" 
d="M553 0h-58l-63 180h-287l-63 -180h-58l236 680h57zM287 613l-49 -161l-76 -220h253l-76 220l-49 161h-3zM406 751v-6h-56l-62 73l-61 -73h-56v6l93 112h49z" />
    <glyph glyph-name="Atilde" unicode="&#xc3;" horiz-adv-x="577" 
d="M553 0h-58l-63 180h-287l-63 -180h-58l236 680h57zM287 613l-49 -161l-76 -220h253l-76 220l-49 161h-3zM164 798q14 22 32 36t44 14q13 0 27 -6t27 -13.5t24.5 -13.5t21.5 -6q16 0 27.5 8t24.5 27l22 -33q-14 -23 -32.5 -36.5t-42.5 -13.5q-14 0 -27.5 6t-26.5 13.5
t-25 13.5t-22 6q-15 0 -27 -8t-24 -27z" />
    <glyph glyph-name="Adieresis" unicode="&#xc4;" horiz-adv-x="577" 
d="M553 0h-58l-63 180h-287l-63 -180h-58l236 680h57zM287 613l-49 -161l-76 -220h253l-76 220l-49 161h-3zM161 804q0 21 12 32.5t30 11.5t30 -11.5t12 -32.5t-12 -32.5t-30 -11.5t-30 11.5t-12 32.5zM331 804q0 21 12 32.5t30 11.5t30 -11.5t12 -32.5t-12 -32.5t-30 -11.5
t-30 11.5t-12 32.5z" />
    <glyph glyph-name="Aring" unicode="&#xc5;" horiz-adv-x="577" 
d="M207 724q0 38 23 59.5t58 21.5q36 0 58.5 -21.5t22.5 -59.5t-23 -60q-8 -8 -19 -13l226 -651h-58l-63 180h-287l-63 -180h-58l226 650q-11 6 -20 14q-23 22 -23 60zM287 613l-49 -161l-76 -220h253l-76 220l-49 161h-3zM246 724q0 -21 11 -32t31 -11t31.5 11t11.5 32
t-11.5 32t-31.5 11t-31 -11t-11 -32z" />
    <glyph glyph-name="AE" unicode="&#xc6;" horiz-adv-x="848" 
d="M781 0h-388v194h-215l-107 -194h-61v6l373 674h395v-53h-329v-251h301v-53h-301v-270h332v-53zM397 611l-65 -138l-126 -228h187v222l6 144h-2z" />
    <glyph glyph-name="Ccedilla" unicode="&#xc7;" horiz-adv-x="561" 
d="M69 340q0 82 18 148t53.5 112t87.5 70.5t120 24.5q37 0 77.5 -10t79.5 -33l-20 -47q-64 35 -137 35q-56 0 -97 -20.5t-68.5 -59.5t-41 -94.5t-13.5 -125.5t13.5 -125.5t41 -94.5t68.5 -59.5t97 -20.5q73 0 137 35l20 -47q-39 -23 -79.5 -33t-77.5 -10q-68 0 -120 24.5
t-87.5 70.5t-53.5 111.5t-18 148.5zM279 -79l23 86h47l-17 -57q28 -3 48 -20.5t20 -52.5q0 -47 -28.5 -68.5t-69.5 -21.5q-27 0 -45.5 7t-27.5 12l13 42q11 -7 26 -11.5t32 -4.5q22 0 34.5 10.5t12.5 34.5q0 23 -17 30.5t-46 7.5z" />
    <glyph glyph-name="Egrave" unicode="&#xc8;" horiz-adv-x="554" 
d="M484 680v-53h-326v-252h297v-53h-297v-269h329v-53h-385v680h382zM211 863h63l46 -112v-6h-50l-59 112v6z" />
    <glyph glyph-name="Eacute" unicode="&#xc9;" horiz-adv-x="554" 
d="M484 680v-53h-326v-252h297v-53h-297v-269h329v-53h-385v680h382zM376 857l-59 -112h-50v6l46 112h63v-6z" />
    <glyph glyph-name="Ecircumflex" unicode="&#xca;" horiz-adv-x="554" 
d="M484 680v-53h-326v-252h297v-53h-297v-269h329v-53h-385v680h382zM414 751v-6h-56l-62 73l-61 -73h-56v6l93 112h49z" />
    <glyph glyph-name="Edieresis" unicode="&#xcb;" horiz-adv-x="554" 
d="M484 680v-53h-326v-252h297v-53h-297v-269h329v-53h-385v680h382zM165 804q0 21 12 32.5t30 11.5t30 -11.5t12 -32.5t-12 -32.5t-30 -11.5t-30 11.5t-12 32.5zM335 804q0 21 12 32.5t30 11.5t30 -11.5t12 -32.5t-12 -32.5t-30 -11.5t-30 11.5t-12 32.5z" />
    <glyph glyph-name="Igrave" unicode="&#xcc;" horiz-adv-x="260" 
d="M158 0h-56v680h56v-680zM42 863h63l46 -112v-6h-50l-59 112v6z" />
    <glyph glyph-name="Iacute" unicode="&#xcd;" horiz-adv-x="260" 
d="M158 0h-56v680h56v-680zM217 857l-59 -112h-50v6l46 112h63v-6z" />
    <glyph glyph-name="Icircumflex" unicode="&#xce;" horiz-adv-x="260" 
d="M158 0h-56v680h56v-680zM247 751v-6h-56l-62 73l-61 -73h-56v6l93 112h49z" />
    <glyph glyph-name="Idieresis" unicode="&#xcf;" horiz-adv-x="260" 
d="M158 0h-56v680h56v-680zM0 804q0 21 12 32.5t30 11.5t30 -11.5t12 -32.5t-12 -32.5t-30 -11.5t-30 11.5t-12 32.5zM170 804q0 21 12 32.5t30 11.5t30 -11.5t12 -32.5t-12 -32.5t-30 -11.5t-30 11.5t-12 32.5z" />
    <glyph glyph-name="Eth" unicode="&#xd0;" horiz-adv-x="651" 
d="M102 309h-48v53h48v318h156q87 0 148.5 -23t100.5 -66.5t57 -106.5t18 -144t-18 -144.5t-57 -107t-100.5 -66t-148.5 -22.5h-156v309zM247 53q79 0 132.5 18.5t85 55t45 90t13.5 123.5t-13.5 123.5t-45 90t-85 55t-132.5 18.5h-89v-265h153v-53h-153v-256h89z" />
    <glyph glyph-name="Ntilde" unicode="&#xd1;" horiz-adv-x="667" 
d="M509 217v463h56v-680h-54l-358 581h-2l7 -118v-463h-56v680h54l356 -581h2zM212 798q14 22 32 36t44 14q13 0 27 -6t27 -13.5t24.5 -13.5t21.5 -6q16 0 27.5 8t24.5 27l22 -33q-14 -23 -32.5 -36.5t-42.5 -13.5q-14 0 -27.5 6t-26.5 13.5t-25 13.5t-22 6q-15 0 -27 -8
t-24 -27z" />
    <glyph glyph-name="Ograve" unicode="&#xd2;" horiz-adv-x="666" 
d="M129 340q0 -64 9.5 -118.5t33 -95t62.5 -63.5t99 -23t99 23t62.5 63.5t33 95t9.5 118.5t-9.5 118.5t-33 95t-62.5 63.5t-99 23t-99 -23t-62.5 -63.5t-33 -95t-9.5 -118.5zM70 340q0 75 14 140t45 112.5t81 75t123 27.5t123 -27.5t81 -75t45 -112.5t14 -140t-14 -140
t-45 -112.5t-81 -75t-123 -27.5t-123 27.5t-81 75t-45 112.5t-14 140zM249 863h63l46 -112v-6h-50l-59 112v6z" />
    <glyph glyph-name="Oacute" unicode="&#xd3;" horiz-adv-x="666" 
d="M129 340q0 -64 9.5 -118.5t33 -95t62.5 -63.5t99 -23t99 23t62.5 63.5t33 95t9.5 118.5t-9.5 118.5t-33 95t-62.5 63.5t-99 23t-99 -23t-62.5 -63.5t-33 -95t-9.5 -118.5zM70 340q0 75 14 140t45 112.5t81 75t123 27.5t123 -27.5t81 -75t45 -112.5t14 -140t-14 -140
t-45 -112.5t-81 -75t-123 -27.5t-123 27.5t-81 75t-45 112.5t-14 140zM416 857l-59 -112h-50v6l46 112h63v-6z" />
    <glyph glyph-name="Ocircumflex" unicode="&#xd4;" horiz-adv-x="666" 
d="M129 340q0 -64 9.5 -118.5t33 -95t62.5 -63.5t99 -23t99 23t62.5 63.5t33 95t9.5 118.5t-9.5 118.5t-33 95t-62.5 63.5t-99 23t-99 -23t-62.5 -63.5t-33 -95t-9.5 -118.5zM70 340q0 75 14 140t45 112.5t81 75t123 27.5t123 -27.5t81 -75t45 -112.5t14 -140t-14 -140
t-45 -112.5t-81 -75t-123 -27.5t-123 27.5t-81 75t-45 112.5t-14 140zM450 751v-6h-56l-62 73l-61 -73h-56v6l93 112h49z" />
    <glyph glyph-name="Otilde" unicode="&#xd5;" horiz-adv-x="666" 
d="M129 340q0 -64 9.5 -118.5t33 -95t62.5 -63.5t99 -23t99 23t62.5 63.5t33 95t9.5 118.5t-9.5 118.5t-33 95t-62.5 63.5t-99 23t-99 -23t-62.5 -63.5t-33 -95t-9.5 -118.5zM70 340q0 75 14 140t45 112.5t81 75t123 27.5t123 -27.5t81 -75t45 -112.5t14 -140t-14 -140
t-45 -112.5t-81 -75t-123 -27.5t-123 27.5t-81 75t-45 112.5t-14 140zM206 798q14 22 32 36t44 14q13 0 27 -6t27 -13.5t24.5 -13.5t21.5 -6q16 0 27.5 8t24.5 27l22 -33q-14 -23 -32.5 -36.5t-42.5 -13.5q-14 0 -27.5 6t-26.5 13.5t-25 13.5t-22 6q-15 0 -27 -8t-24 -27z
" />
    <glyph glyph-name="Odieresis" unicode="&#xd6;" horiz-adv-x="666" 
d="M129 340q0 -64 9.5 -118.5t33 -95t62.5 -63.5t99 -23t99 23t62.5 63.5t33 95t9.5 118.5t-9.5 118.5t-33 95t-62.5 63.5t-99 23t-99 -23t-62.5 -63.5t-33 -95t-9.5 -118.5zM70 340q0 75 14 140t45 112.5t81 75t123 27.5t123 -27.5t81 -75t45 -112.5t14 -140t-14 -140
t-45 -112.5t-81 -75t-123 -27.5t-123 27.5t-81 75t-45 112.5t-14 140zM204 804q0 21 12 32.5t30 11.5t30 -11.5t12 -32.5t-12 -32.5t-30 -11.5t-30 11.5t-12 32.5zM374 804q0 21 12 32.5t30 11.5t30 -11.5t12 -32.5t-12 -32.5t-30 -11.5t-30 11.5t-12 32.5z" />
    <glyph glyph-name="multiply" unicode="&#xd7;" 
d="M274 301l155 156l32 -32l-154 -156l154 -155l-34 -32l-153 154l-152 -154l-34 32l154 155l-154 156l32 32z" />
    <glyph glyph-name="Oslash" unicode="&#xd8;" horiz-adv-x="667" 
d="M70 340q0 75 14 140t45 112.5t81 75t123 27.5q52 0 91.5 -14t69.5 -40l40 64l42 -25l-47 -76q35 -49 51 -116.5t16 -147.5q0 -75 -14 -140t-45 -112.5t-81 -75t-123 -27.5q-95 0 -155 48l-33 -53l-42 27l38 62q-38 49 -54.5 118.5t-16.5 152.5zM129 340q0 -66 10 -121.5
t35 -96.5l290 470q-23 23 -55 35.5t-76 12.5q-60 0 -99 -23t-62.5 -63.5t-33 -95t-9.5 -118.5zM537 340q0 63 -9 116.5t-32 93.5l-289 -469q23 -20 54 -30.5t72 -10.5q60 0 99 23t62.5 63.5t33 95t9.5 118.5z" />
    <glyph glyph-name="Ugrave" unicode="&#xd9;" horiz-adv-x="654" 
d="M327 -15q-119 0 -174.5 66t-55.5 179v450h56v-445q0 -95 41.5 -145t132.5 -50t132.5 50t41.5 145v445h56v-450q0 -57 -13.5 -102t-42 -77t-72 -49t-102.5 -17zM244 863h63l46 -112v-6h-50l-59 112v6z" />
    <glyph glyph-name="Uacute" unicode="&#xda;" horiz-adv-x="654" 
d="M327 -15q-119 0 -174.5 66t-55.5 179v450h56v-445q0 -95 41.5 -145t132.5 -50t132.5 50t41.5 145v445h56v-450q0 -57 -13.5 -102t-42 -77t-72 -49t-102.5 -17zM405 857l-59 -112h-50v6l46 112h63v-6z" />
    <glyph glyph-name="Ucircumflex" unicode="&#xdb;" horiz-adv-x="654" 
d="M327 -15q-119 0 -174.5 66t-55.5 179v450h56v-445q0 -95 41.5 -145t132.5 -50t132.5 50t41.5 145v445h56v-450q0 -57 -13.5 -102t-42 -77t-72 -49t-102.5 -17zM444 751v-6h-56l-62 73l-61 -73h-56v6l93 112h49z" />
    <glyph glyph-name="Udieresis" unicode="&#xdc;" horiz-adv-x="654" 
d="M327 -15q-119 0 -174.5 66t-55.5 179v450h56v-445q0 -95 41.5 -145t132.5 -50t132.5 50t41.5 145v445h56v-450q0 -57 -13.5 -102t-42 -77t-72 -49t-102.5 -17zM197 804q0 21 12 32.5t30 11.5t30 -11.5t12 -32.5t-12 -32.5t-30 -11.5t-30 11.5t-12 32.5zM367 804
q0 21 12 32.5t30 11.5t30 -11.5t12 -32.5t-12 -32.5t-30 -11.5t-30 11.5t-12 32.5z" />
    <glyph glyph-name="Yacute" unicode="&#xdd;" horiz-adv-x="520" 
d="M84 680l175 -331h2l175 331h61v-6l-209 -386v-288h-56v288l-209 386v6h61zM347 857l-59 -112h-50v6l46 112h63v-6z" />
    <glyph glyph-name="Thorn" unicode="&#xde;" horiz-adv-x="563" 
d="M102 0v680h56v-128h148q99 0 149 -51.5t50 -149.5t-50.5 -149t-148.5 -51h-148v-151h-56zM158 204h142q146 0 146 147q0 148 -146 148h-142v-295z" />
    <glyph glyph-name="germandbls" unicode="&#xdf;" horiz-adv-x="563" 
d="M87 496q0 102 50 155.5t138 53.5q41 0 73 -13.5t54 -37.5t33.5 -56.5t11.5 -70.5q0 -58 -21 -92t-53 -51v-2q27 -7 51 -21t41.5 -37.5t28 -56t10.5 -75.5q0 -51 -14.5 -90t-41.5 -65t-65 -39t-84 -13q-11 0 -24.5 1.5t-21.5 3.5v49q10 -2 22.5 -3t23.5 -1q69 0 108.5 38
t39.5 119q0 33 -8.5 62.5t-26.5 51t-46.5 34.5t-69.5 13h-24v47h25q45 0 69 33t24 93q0 54 -28 91.5t-85 37.5q-69 0 -102 -41t-33 -119v-495h-55v496v0z" />
    <glyph glyph-name="agrave" unicode="&#xe0;" horiz-adv-x="480" 
d="M249 233q-68 0 -103.5 -23.5t-35.5 -78.5q0 -94 95 -94q37 0 72 10.5t65 36.5v149h-93zM354 0l-6 39h-2q-29 -23 -67 -37.5t-83 -14.5q-65 0 -104 37.5t-39 104.5q0 42 15 70.5t40.5 46.5t60 26t74.5 8h99v38q0 68 -31 98.5t-88 30.5q-36 0 -67.5 -12.5t-54.5 -32.5
l-25 41q24 21 63 37.5t84 16.5q85 0 129.5 -46t44.5 -134v-317h-43zM152 698h61l49 -111v-6h-49l-61 111v6z" />
    <glyph glyph-name="aacute" unicode="&#xe1;" horiz-adv-x="480" 
d="M249 233q-68 0 -103.5 -23.5t-35.5 -78.5q0 -94 95 -94q37 0 72 10.5t65 36.5v149h-93zM354 0l-6 39h-2q-29 -23 -67 -37.5t-83 -14.5q-65 0 -104 37.5t-39 104.5q0 42 15 70.5t40.5 46.5t60 26t74.5 8h99v38q0 68 -31 98.5t-88 30.5q-36 0 -67.5 -12.5t-54.5 -32.5
l-25 41q24 21 63 37.5t84 16.5q85 0 129.5 -46t44.5 -134v-317h-43zM316 692l-61 -111h-48v6l48 111h61v-6z" />
    <glyph glyph-name="acircumflex" unicode="&#xe2;" horiz-adv-x="480" 
d="M249 233q-68 0 -103.5 -23.5t-35.5 -78.5q0 -94 95 -94q37 0 72 10.5t65 36.5v149h-93zM354 0l-6 39h-2q-29 -23 -67 -37.5t-83 -14.5q-65 0 -104 37.5t-39 104.5q0 42 15 70.5t40.5 46.5t60 26t74.5 8h99v38q0 68 -31 98.5t-88 30.5q-36 0 -67.5 -12.5t-54.5 -32.5
l-25 41q24 21 63 37.5t84 16.5q85 0 129.5 -46t44.5 -134v-317h-43zM352 586v-5h-55l-63 73l-62 -73h-55v5l93 112h49z" />
    <glyph glyph-name="atilde" unicode="&#xe3;" horiz-adv-x="480" 
d="M249 233q-68 0 -103.5 -23.5t-35.5 -78.5q0 -94 95 -94q37 0 72 10.5t65 36.5v149h-93zM354 0l-6 39h-2q-29 -23 -67 -37.5t-83 -14.5q-65 0 -104 37.5t-39 104.5q0 42 15 70.5t40.5 46.5t60 26t74.5 8h99v38q0 68 -31 98.5t-88 30.5q-36 0 -67.5 -12.5t-54.5 -32.5
l-25 41q24 21 63 37.5t84 16.5q85 0 129.5 -46t44.5 -134v-317h-43zM111 616q14 23 32 36.5t44 13.5q13 0 27 -6t26.5 -13.5t24.5 -13.5t22 -6q16 0 27.5 8.5t24.5 26.5l22 -32q-14 -23 -32.5 -36t-42.5 -13q-14 0 -27.5 6t-26.5 13.5t-25 13.5t-22 6q-15 0 -27 -9t-24 -27z
" />
    <glyph glyph-name="adieresis" unicode="&#xe4;" horiz-adv-x="480" 
d="M249 233q-68 0 -103.5 -23.5t-35.5 -78.5q0 -94 95 -94q37 0 72 10.5t65 36.5v149h-93zM354 0l-6 39h-2q-29 -23 -67 -37.5t-83 -14.5q-65 0 -104 37.5t-39 104.5q0 42 15 70.5t40.5 46.5t60 26t74.5 8h99v38q0 68 -31 98.5t-88 30.5q-36 0 -67.5 -12.5t-54.5 -32.5
l-25 41q24 21 63 37.5t84 16.5q85 0 129.5 -46t44.5 -134v-317h-43zM108 628q0 21 12 32.5t30 11.5t30 -11.5t12 -32.5t-12 -32.5t-30 -11.5t-30 11.5t-12 32.5zM278 628q0 21 12 32.5t30 11.5t30 -11.5t12 -32.5t-12 -32.5t-30 -11.5t-30 11.5t-12 32.5z" />
    <glyph glyph-name="aring" unicode="&#xe5;" horiz-adv-x="480" 
d="M249 233q-68 0 -103.5 -23.5t-35.5 -78.5q0 -94 95 -94q37 0 72 10.5t65 36.5v149h-93zM354 0l-6 39h-2q-29 -23 -67 -37.5t-83 -14.5q-65 0 -104 37.5t-39 104.5q0 42 15 70.5t40.5 46.5t60 26t74.5 8h99v38q0 68 -31 98.5t-88 30.5q-36 0 -67.5 -12.5t-54.5 -32.5
l-25 41q24 21 63 37.5t84 16.5q85 0 129.5 -46t44.5 -134v-317h-43zM192 625q0 -21 11 -32.5t31 -11.5t31.5 11.5t11.5 32.5q0 20 -11.5 31.5t-31.5 11.5t-31 -11.5t-11 -31.5zM153 625q0 37 23 59t58 22q36 0 58.5 -22t22.5 -59q0 -38 -22.5 -60t-58.5 -22q-35 0 -58 22
t-23 60z" />
    <glyph glyph-name="ae" unicode="&#xe6;" horiz-adv-x="794" 
d="M736 294q0 -16 -1.5 -33.5t-3.5 -28.5h-333q1 -44 11.5 -80t30 -62t49.5 -40.5t70 -14.5q43 0 77.5 14.5t58.5 32.5l23 -42q-26 -20 -67.5 -37.5t-93.5 -17.5q-73 0 -118 32.5t-68 88.5q-20 -60 -64.5 -90.5t-110.5 -30.5q-65 0 -104 38.5t-39 105.5q0 42 15 70.5
t40.5 46t60 25.5t74.5 8h99v39q0 68 -31 98.5t-88 30.5q-36 0 -67.5 -12.5t-54.5 -32.5l-25 41q24 21 63 37.5t84 16.5q123 0 157 -99q24 47 66 73t105 26q51 0 86.5 -18t57 -46.5t31.5 -65t10 -73.5zM678 279q1 5 1 11v10q0 29 -7 55.5t-22 47t-39.5 32.5t-59.5 12
q-65 0 -104.5 -42.5t-47.5 -125.5h279zM205 35q63 0 100 45t37 152h-93q-68 0 -103.5 -23t-35.5 -78q0 -46 23.5 -71t71.5 -25z" />
    <glyph glyph-name="ccedilla" unicode="&#xe7;" horiz-adv-x="458" 
d="M61 241q0 54 12 100.5t37 81t63.5 54.5t92.5 20q38 0 74 -9t67 -27l-18 -43q-21 12 -54 20.5t-68 8.5q-42 0 -71 -19t-46 -49t-24.5 -66.5t-7.5 -71.5t7.5 -71.5t24.5 -66.5t46 -49t71 -19q35 0 68 8.5t54 20.5l18 -43q-31 -18 -67 -27t-74 -9q-54 0 -92.5 20t-63.5 54.5
t-37 81t-12 100.5zM216 -79l23 86h47l-17 -57q28 -3 48 -20.5t20 -52.5q0 -47 -28.5 -68.5t-69.5 -21.5q-27 0 -45.5 7t-27.5 12l13 42q11 -7 26 -11.5t32 -4.5q22 0 34.5 10.5t12.5 34.5q0 23 -17 30.5t-46 7.5z" />
    <glyph glyph-name="egrave" unicode="&#xe8;" horiz-adv-x="512" 
d="M116 231q2 -87 41.5 -141.5t119.5 -54.5q43 0 77.5 14.5t58.5 32.5l23 -42q-26 -20 -67.5 -37.5t-93.5 -17.5q-56 0 -96.5 19.5t-66.5 54t-38.5 82t-12.5 102.5t13 102t39 80.5t65 52.5t91 19q51 0 86.5 -18t57 -46.5t31.5 -65t10 -73.5q0 -16 -1.5 -34t-3.5 -29h-333z
M269 447q-65 0 -104.5 -43t-47.5 -126h279q1 5 1 11.5v10.5q0 29 -7 55.5t-22 47t-39.5 32.5t-59.5 12zM193 698h61l49 -111v-6h-49l-61 111v6z" />
    <glyph glyph-name="eacute" unicode="&#xe9;" horiz-adv-x="512" 
d="M116 231q2 -87 41.5 -141.5t119.5 -54.5q43 0 77.5 14.5t58.5 32.5l23 -42q-26 -20 -67.5 -37.5t-93.5 -17.5q-56 0 -96.5 19.5t-66.5 54t-38.5 82t-12.5 102.5t13 102t39 80.5t65 52.5t91 19q51 0 86.5 -18t57 -46.5t31.5 -65t10 -73.5q0 -16 -1.5 -34t-3.5 -29h-333z
M269 447q-65 0 -104.5 -43t-47.5 -126h279q1 5 1 11.5v10.5q0 29 -7 55.5t-22 47t-39.5 32.5t-59.5 12zM361 692l-61 -111h-48v6l48 111h61v-6z" />
    <glyph glyph-name="ecircumflex" unicode="&#xea;" horiz-adv-x="512" 
d="M116 231q2 -87 41.5 -141.5t119.5 -54.5q43 0 77.5 14.5t58.5 32.5l23 -42q-26 -20 -67.5 -37.5t-93.5 -17.5q-56 0 -96.5 19.5t-66.5 54t-38.5 82t-12.5 102.5t13 102t39 80.5t65 52.5t91 19q51 0 86.5 -18t57 -46.5t31.5 -65t10 -73.5q0 -16 -1.5 -34t-3.5 -29h-333z
M269 447q-65 0 -104.5 -43t-47.5 -126h279q1 5 1 11.5v10.5q0 29 -7 55.5t-22 47t-39.5 32.5t-59.5 12zM393 586v-5h-55l-63 73l-62 -73h-55v5l93 112h49z" />
    <glyph glyph-name="edieresis" unicode="&#xeb;" horiz-adv-x="512" 
d="M116 231q2 -87 41.5 -141.5t119.5 -54.5q43 0 77.5 14.5t58.5 32.5l23 -42q-26 -20 -67.5 -37.5t-93.5 -17.5q-56 0 -96.5 19.5t-66.5 54t-38.5 82t-12.5 102.5t13 102t39 80.5t65 52.5t91 19q51 0 86.5 -18t57 -46.5t31.5 -65t10 -73.5q0 -16 -1.5 -34t-3.5 -29h-333z
M269 447q-65 0 -104.5 -43t-47.5 -126h279q1 5 1 11.5v10.5q0 29 -7 55.5t-22 47t-39.5 32.5t-59.5 12zM149 628q0 21 12 32.5t30 11.5t30 -11.5t12 -32.5t-12 -32.5t-30 -11.5t-30 11.5t-12 32.5zM319 628q0 21 12 32.5t30 11.5t30 -11.5t12 -32.5t-12 -32.5t-30 -11.5
t-30 11.5t-12 32.5z" />
    <glyph glyph-name="igrave" unicode="&#xec;" horiz-adv-x="229" 
d="M31 698h61l49 -111v-6h-49l-61 111v6zM88 0v482h54v-482h-54z" />
    <glyph glyph-name="iacute" unicode="&#xed;" horiz-adv-x="229" 
d="M202 692l-61 -111h-48v6l48 111h61v-6zM87 0v482h54v-482h-54z" />
    <glyph glyph-name="icircumflex" unicode="&#xee;" horiz-adv-x="230" 
d="M88 0v482h54v-482h-54zM234 586v-5h-55l-63 73l-62 -73h-55v5l93 112h49z" />
    <glyph glyph-name="idieresis" unicode="&#xef;" horiz-adv-x="230" 
d="M-11 628q0 21 12 32.5t30 11.5t30 -11.5t12 -32.5t-12 -32.5t-30 -11.5t-30 11.5t-12 32.5zM159 628q0 21 12 32.5t30 11.5t30 -11.5t12 -32.5t-12 -32.5t-30 -11.5t-30 11.5t-12 32.5zM88 0v482h54v-482h-54z" />
    <glyph glyph-name="eth" unicode="&#xf0;" horiz-adv-x="553" 
d="M348 585q30 -39 56.5 -80.5t46 -85.5t30.5 -90t11 -94q0 -57 -15 -103t-42.5 -78.5t-67.5 -50.5t-90 -18t-90 18t-68 50.5t-43 76.5t-15 97q0 55 14.5 100t41 76.5t64 49t83.5 17.5q24 0 43.5 -5t34.5 -12.5t26 -15t18 -13.5l4 2q-12 33 -37 70.5t-56 74.5l-90 -25
l-14 42l72 20q-23 25 -44.5 47t-40.5 40v5h66l36 -38t35 -39l88 26l12 -44zM118 227q0 -48 12 -84t33.5 -60t50.5 -36t63 -12t63 12t50 36t33 60t12 84t-12 84t-33 60t-50 36.5t-63 12.5t-63 -12.5t-50.5 -36.5t-33.5 -60t-12 -84z" />
    <glyph glyph-name="ntilde" unicode="&#xf1;" horiz-adv-x="541" 
d="M131 482l6 -42h2q23 19 64 38t93 19q76 0 119 -43.5t43 -142.5v-311h-55v302q0 75 -27 110t-87 35q-42 0 -82 -17t-65 -39v-391h-55v482h44zM150 616q14 23 32 36.5t44 13.5q13 0 27 -6t26.5 -13.5t24.5 -13.5t22 -6q16 0 27.5 8.5t24.5 26.5l22 -32q-14 -23 -32.5 -36
t-42.5 -13q-14 0 -27.5 6t-26.5 13.5t-25 13.5t-22 6q-15 0 -27 -9t-24 -27z" />
    <glyph glyph-name="ograve" unicode="&#xf2;" horiz-adv-x="544" 
d="M119 241q0 -39 6.5 -76t23.5 -66t46.5 -46.5t76.5 -17.5t76.5 17.5t46.5 46.5t23.5 66t6.5 76t-6.5 76t-23.5 66t-46.5 46.5t-76.5 17.5t-76.5 -17.5t-46.5 -46.5t-23.5 -66t-6.5 -76zM482 241q0 -51 -10.5 -97t-35 -81.5t-64.5 -56.5t-100 -21t-100.5 21t-64.5 56.5
t-34.5 81.5t-10.5 97t10.5 97t34.5 81.5t64.5 56.5t100.5 21t100 -21t64.5 -56.5t35 -81.5t10.5 -97zM190 698h61l49 -111v-6h-49l-61 111v6z" />
    <glyph glyph-name="oacute" unicode="&#xf3;" horiz-adv-x="544" 
d="M119 241q0 -39 6.5 -76t23.5 -66t46.5 -46.5t76.5 -17.5t76.5 17.5t46.5 46.5t23.5 66t6.5 76t-6.5 76t-23.5 66t-46.5 46.5t-76.5 17.5t-76.5 -17.5t-46.5 -46.5t-23.5 -66t-6.5 -76zM482 241q0 -51 -10.5 -97t-35 -81.5t-64.5 -56.5t-100 -21t-100.5 21t-64.5 56.5
t-34.5 81.5t-10.5 97t10.5 97t34.5 81.5t64.5 56.5t100.5 21t100 -21t64.5 -56.5t35 -81.5t10.5 -97zM352 692l-61 -111h-48v6l48 111h61v-6z" />
    <glyph glyph-name="ocircumflex" unicode="&#xf4;" horiz-adv-x="544" 
d="M119 241q0 -39 6.5 -76t23.5 -66t46.5 -46.5t76.5 -17.5t76.5 17.5t46.5 46.5t23.5 66t6.5 76t-6.5 76t-23.5 66t-46.5 46.5t-76.5 17.5t-76.5 -17.5t-46.5 -46.5t-23.5 -66t-6.5 -76zM482 241q0 -51 -10.5 -97t-35 -81.5t-64.5 -56.5t-100 -21t-100.5 21t-64.5 56.5
t-34.5 81.5t-10.5 97t10.5 97t34.5 81.5t64.5 56.5t100.5 21t100 -21t64.5 -56.5t35 -81.5t10.5 -97zM392 586v-5h-55l-63 73l-62 -73h-55v5l93 112h49z" />
    <glyph glyph-name="otilde" unicode="&#xf5;" horiz-adv-x="544" 
d="M119 241q0 -39 6.5 -76t23.5 -66t46.5 -46.5t76.5 -17.5t76.5 17.5t46.5 46.5t23.5 66t6.5 76t-6.5 76t-23.5 66t-46.5 46.5t-76.5 17.5t-76.5 -17.5t-46.5 -46.5t-23.5 -66t-6.5 -76zM482 241q0 -51 -10.5 -97t-35 -81.5t-64.5 -56.5t-100 -21t-100.5 21t-64.5 56.5
t-34.5 81.5t-10.5 97t10.5 97t34.5 81.5t64.5 56.5t100.5 21t100 -21t64.5 -56.5t35 -81.5t10.5 -97zM149 616q14 23 32 36.5t44 13.5q13 0 27 -6t26.5 -13.5t24.5 -13.5t22 -6q16 0 27.5 8.5t24.5 26.5l22 -32q-14 -23 -32.5 -36t-42.5 -13q-14 0 -27.5 6t-26.5 13.5
t-25 13.5t-22 6q-15 0 -27 -9t-24 -27z" />
    <glyph glyph-name="odieresis" unicode="&#xf6;" horiz-adv-x="544" 
d="M119 241q0 -39 6.5 -76t23.5 -66t46.5 -46.5t76.5 -17.5t76.5 17.5t46.5 46.5t23.5 66t6.5 76t-6.5 76t-23.5 66t-46.5 46.5t-76.5 17.5t-76.5 -17.5t-46.5 -46.5t-23.5 -66t-6.5 -76zM482 241q0 -51 -10.5 -97t-35 -81.5t-64.5 -56.5t-100 -21t-100.5 21t-64.5 56.5
t-34.5 81.5t-10.5 97t10.5 97t34.5 81.5t64.5 56.5t100.5 21t100 -21t64.5 -56.5t35 -81.5t10.5 -97zM146 628q0 21 12 32.5t30 11.5t30 -11.5t12 -32.5t-12 -32.5t-30 -11.5t-30 11.5t-12 32.5zM316 628q0 21 12 32.5t30 11.5t30 -11.5t12 -32.5t-12 -32.5t-30 -11.5
t-30 11.5t-12 32.5z" />
    <glyph glyph-name="divide" unicode="&#xf7;" 
d="M485 294v-48h-420v48h420zM225 122q0 22 13.5 36.5t36.5 14.5t36.5 -14.5t13.5 -36.5t-13.5 -36.5t-36.5 -14.5t-36.5 14.5t-13.5 36.5zM225 414q0 22 13.5 36.5t36.5 14.5t36.5 -14.5t13.5 -36.5t-13.5 -36.5t-36.5 -14.5t-36.5 14.5t-13.5 36.5z" />
    <glyph glyph-name="oslash" unicode="&#xf8;" horiz-adv-x="544" 
d="M85 3l32 46q-30 36 -42.5 86t-12.5 106q0 51 10.5 97t34.5 81.5t64.5 56.5t100.5 21q40 0 71.5 -10t54.5 -27l30 44l39 -29l-35 -50q27 -36 38.5 -83.5t11.5 -100.5q0 -51 -10.5 -97t-35 -81.5t-64.5 -56.5t-100 -21q-38 0 -68.5 8.5t-53.5 24.5l-30 -43zM119 241
q0 -40 6.5 -77.5t23.5 -66.5l218 319q-17 14 -40 22.5t-55 8.5q-47 0 -76.5 -17.5t-46.5 -46.5t-23.5 -66t-6.5 -76zM425 241q0 37 -6 71.5t-21 63.5l-217 -314q17 -13 39 -20t52 -7q47 0 76.5 17.5t46.5 46.5t23.5 66t6.5 76z" />
    <glyph glyph-name="ugrave" unicode="&#xf9;" horiz-adv-x="533" 
d="M403 0l-7 42h-2q-23 -19 -62.5 -38t-91.5 -19q-76 0 -116.5 43.5t-40.5 142.5v311h55v-302q0 -75 24.5 -110t84.5 -35q42 0 81 17t63 39v391h55v-482h-43zM181 698h61l49 -111v-6h-49l-61 111v6z" />
    <glyph glyph-name="uacute" unicode="&#xfa;" horiz-adv-x="533" 
d="M403 0l-7 42h-2q-23 -19 -62.5 -38t-91.5 -19q-76 0 -116.5 43.5t-40.5 142.5v311h55v-302q0 -75 24.5 -110t84.5 -35q42 0 81 17t63 39v391h55v-482h-43zM349 692l-61 -111h-48v6l48 111h61v-6z" />
    <glyph glyph-name="ucircumflex" unicode="&#xfb;" horiz-adv-x="533" 
d="M403 0l-7 42h-2q-23 -19 -62.5 -38t-91.5 -19q-76 0 -116.5 43.5t-40.5 142.5v311h55v-302q0 -75 24.5 -110t84.5 -35q42 0 81 17t63 39v391h55v-482h-43zM384 586v-5h-55l-63 73l-62 -73h-55v5l93 112h49z" />
    <glyph glyph-name="udieresis" unicode="&#xfc;" horiz-adv-x="533" 
d="M403 0l-7 42h-2q-23 -19 -62.5 -38t-91.5 -19q-76 0 -116.5 43.5t-40.5 142.5v311h55v-302q0 -75 24.5 -110t84.5 -35q42 0 81 17t63 39v391h55v-482h-43zM138 628q0 21 12 32.5t30 11.5t30 -11.5t12 -32.5t-12 -32.5t-30 -11.5t-30 11.5t-12 32.5zM308 628q0 21 12 32.5
t30 11.5t30 -11.5t12 -32.5t-12 -32.5t-30 -11.5t-30 11.5t-12 32.5z" />
    <glyph glyph-name="yacute" unicode="&#xfd;" horiz-adv-x="467" 
d="M239 60l23 85l115 337h55v-6l-192 -559q-23 -68 -60 -99t-85 -31q-18 0 -31.5 2.5t-26.5 6.5v49q26 -8 56 -8q29 0 52 19.5t38 63.5l28 82l-179 474v6h55l125 -336l24 -86h3zM323 692l-61 -111h-48v6l48 111h61v-6z" />
    <glyph glyph-name="thorn" unicode="&#xfe;" horiz-adv-x="537" 
d="M418 241q0 43 -7.5 80.5t-23.5 65.5t-41.5 44t-61.5 16q-42 0 -78 -16.5t-64 -42.5v-294q28 -26 64 -42.5t78 -16.5q36 0 61.5 16t41.5 44t23.5 65.5t7.5 80.5zM142 700v-259h2q26 23 59.5 39.5t86.5 16.5q46 0 81 -19t58 -53.5t34.5 -81.5t11.5 -102q0 -56 -11.5 -102.5
t-34.5 -81t-58 -53.5t-81 -19q-53 0 -86.5 16.5t-59.5 39.5h-2v-239h-55v898h55z" />
    <glyph glyph-name="ydieresis" unicode="&#xff;" horiz-adv-x="467" 
d="M239 60l23 85l115 337h55v-6l-192 -559q-23 -68 -60 -99t-85 -31q-18 0 -31.5 2.5t-26.5 6.5v49q26 -8 56 -8q29 0 52 19.5t38 63.5l28 82l-179 474v6h55l125 -336l24 -86h3zM112 628q0 21 12 32.5t30 11.5t30 -11.5t12 -32.5t-12 -32.5t-30 -11.5t-30 11.5t-12 32.5z
M282 628q0 21 12 32.5t30 11.5t30 -11.5t12 -32.5t-12 -32.5t-30 -11.5t-30 11.5t-12 32.5z" />
    <glyph glyph-name="Amacron" unicode="&#x100;" horiz-adv-x="577" 
d="M553 0h-58l-63 180h-287l-63 -180h-58l236 680h57zM287 613l-49 -161l-76 -220h253l-76 220l-49 161h-3zM175 784v49h228v-49h-228z" />
    <glyph glyph-name="amacron" unicode="&#x101;" horiz-adv-x="480" 
d="M249 233q-68 0 -103.5 -23.5t-35.5 -78.5q0 -94 95 -94q37 0 72 10.5t65 36.5v149h-93zM354 0l-6 39h-2q-29 -23 -67 -37.5t-83 -14.5q-65 0 -104 37.5t-39 104.5q0 42 15 70.5t40.5 46.5t60 26t74.5 8h99v38q0 68 -31 98.5t-88 30.5q-36 0 -67.5 -12.5t-54.5 -32.5
l-25 41q24 21 63 37.5t84 16.5q85 0 129.5 -46t44.5 -134v-317h-43zM121 595v48h228v-48h-228z" />
    <glyph glyph-name="Abreve" unicode="&#x102;" horiz-adv-x="577" 
d="M553 0h-58l-63 180h-287l-63 -180h-58l236 680h57zM287 613l-49 -161l-76 -220h253l-76 220l-49 161h-3zM289 813q39 0 60.5 14t36.5 33l26 -25q-18 -31 -46.5 -51t-76.5 -20q-46 0 -75.5 20t-46.5 51l26 25q15 -19 36.5 -33t59.5 -14z" />
    <glyph glyph-name="abreve" unicode="&#x103;" horiz-adv-x="480" 
d="M249 233q-68 0 -103.5 -23.5t-35.5 -78.5q0 -94 95 -94q37 0 72 10.5t65 36.5v149h-93zM354 0l-6 39h-2q-29 -23 -67 -37.5t-83 -14.5q-65 0 -104 37.5t-39 104.5q0 42 15 70.5t40.5 46.5t60 26t74.5 8h99v38q0 68 -31 98.5t-88 30.5q-36 0 -67.5 -12.5t-54.5 -32.5
l-25 41q24 21 63 37.5t84 16.5q85 0 129.5 -46t44.5 -134v-317h-43zM236 620q39 0 60.5 14t36.5 33l26 -24q-18 -31 -46.5 -51t-76.5 -20q-46 0 -75.5 20t-46.5 51l26 24q15 -19 36.5 -33t59.5 -14z" />
    <glyph glyph-name="Aogonek" unicode="&#x104;" horiz-adv-x="577" 
d="M553 0h-58l-63 180h-287l-63 -180h-58l236 680h57zM287 613l-49 -161l-76 -220h253l-76 220l-49 161h-3zM484 -213q-38 0 -61.5 23t-23.5 61q0 26 10.5 47.5t28.5 40.5t41 36.5t48 35.5l26 -31q-53 -39 -79 -64t-26 -56q0 -18 10.5 -32.5t33.5 -14.5q19 0 33.5 7t28.5 16
l7 -42q-13 -10 -33 -18.5t-44 -8.5z" />
    <glyph glyph-name="aogonek" unicode="&#x105;" horiz-adv-x="480" 
d="M249 233q-68 0 -103.5 -23.5t-35.5 -78.5q0 -94 95 -94q37 0 72 10.5t65 36.5v149h-93zM354 0l-6 39h-2q-29 -23 -67 -37.5t-83 -14.5q-65 0 -104 37.5t-39 104.5q0 42 15 70.5t40.5 46.5t60 26t74.5 8h99v38q0 68 -31 98.5t-88 30.5q-36 0 -67.5 -12.5t-54.5 -32.5
l-25 41q24 21 63 37.5t84 16.5q85 0 129.5 -46t44.5 -134v-317h-43zM328 -213q-38 0 -61.5 23t-23.5 61q0 26 10.5 47.5t28.5 40.5t41 36.5t48 35.5l26 -31q-53 -39 -79 -64t-26 -56q0 -18 10.5 -32.5t33.5 -14.5q19 0 33.5 7t28.5 16l7 -42q-13 -10 -33 -18.5t-44 -8.5z
" />
    <glyph glyph-name="Cacute" unicode="&#x106;" horiz-adv-x="561" 
d="M69 340q0 82 18 148t53.5 112t87.5 70.5t120 24.5q37 0 77.5 -10t79.5 -33l-20 -47q-64 35 -137 35q-56 0 -97 -20.5t-68.5 -59.5t-41 -94.5t-13.5 -125.5t13.5 -125.5t41 -94.5t68.5 -59.5t97 -20.5q73 0 137 35l20 -47q-39 -23 -79.5 -33t-77.5 -10q-68 0 -120 24.5
t-87.5 70.5t-53.5 111.5t-18 148.5zM420 857l-59 -112h-50v6l46 112h63v-6z" />
    <glyph glyph-name="cacute" unicode="&#x107;" horiz-adv-x="458" 
d="M61 241q0 54 12 100.5t37 81t63.5 54.5t92.5 20q38 0 74 -9t67 -27l-18 -43q-21 12 -54 20.5t-68 8.5q-42 0 -71 -19t-46 -49t-24.5 -66.5t-7.5 -71.5t7.5 -71.5t24.5 -66.5t46 -49t71 -19q35 0 68 8.5t54 20.5l18 -43q-31 -18 -67 -27t-74 -9q-54 0 -92.5 20t-63.5 54.5
t-37 81t-12 100.5zM355 692l-61 -111h-48v6l48 111h61v-6z" />
    <glyph glyph-name="Ccircumflex" unicode="&#x108;" horiz-adv-x="561" 
d="M69 340q0 82 18 148t53.5 112t87.5 70.5t120 24.5q37 0 77.5 -10t79.5 -33l-20 -47q-64 35 -137 35q-56 0 -97 -20.5t-68.5 -59.5t-41 -94.5t-13.5 -125.5t13.5 -125.5t41 -94.5t68.5 -59.5t97 -20.5q73 0 137 35l20 -47q-39 -23 -79.5 -33t-77.5 -10q-68 0 -120 24.5
t-87.5 70.5t-53.5 111.5t-18 148.5zM454 751v-6h-56l-62 73l-61 -73h-56v6l93 112h49z" />
    <glyph glyph-name="ccircumflex" unicode="&#x109;" horiz-adv-x="458" 
d="M61 241q0 54 12 100.5t37 81t63.5 54.5t92.5 20q38 0 74 -9t67 -27l-18 -43q-21 12 -54 20.5t-68 8.5q-42 0 -71 -19t-46 -49t-24.5 -66.5t-7.5 -71.5t7.5 -71.5t24.5 -66.5t46 -49t71 -19q35 0 68 8.5t54 20.5l18 -43q-31 -18 -67 -27t-74 -9q-54 0 -92.5 20t-63.5 54.5
t-37 81t-12 100.5zM387 586v-5h-55l-63 73l-62 -73h-55v5l93 112h49z" />
    <glyph glyph-name="Cdotaccent" unicode="&#x10a;" horiz-adv-x="561" 
d="M69 340q0 82 18 148t53.5 112t87.5 70.5t120 24.5q37 0 77.5 -10t79.5 -33l-20 -47q-64 35 -137 35q-56 0 -97 -20.5t-68.5 -59.5t-41 -94.5t-13.5 -125.5t13.5 -125.5t41 -94.5t68.5 -59.5t97 -20.5q73 0 137 35l20 -47q-39 -23 -79.5 -33t-77.5 -10q-68 0 -120 24.5
t-87.5 70.5t-53.5 111.5t-18 148.5zM294 804q0 21 12 32.5t30 11.5t30 -11.5t12 -32.5t-12 -32.5t-30 -11.5t-30 11.5t-12 32.5z" />
    <glyph glyph-name="cdotaccent" unicode="&#x10b;" horiz-adv-x="458" 
d="M61 241q0 54 12 100.5t37 81t63.5 54.5t92.5 20q38 0 74 -9t67 -27l-18 -43q-21 12 -54 20.5t-68 8.5q-42 0 -71 -19t-46 -49t-24.5 -66.5t-7.5 -71.5t7.5 -71.5t24.5 -66.5t46 -49t71 -19q35 0 68 8.5t54 20.5l18 -43q-31 -18 -67 -27t-74 -9q-54 0 -92.5 20t-63.5 54.5
t-37 81t-12 100.5zM227 628q0 21 12 32.5t30 11.5t30 -11.5t12 -32.5t-12 -32.5t-30 -11.5t-30 11.5t-12 32.5z" />
    <glyph glyph-name="Ccaron" unicode="&#x10c;" horiz-adv-x="561" 
d="M69 340q0 82 18 148t53.5 112t87.5 70.5t120 24.5q37 0 77.5 -10t79.5 -33l-20 -47q-64 35 -137 35q-56 0 -97 -20.5t-68.5 -59.5t-41 -94.5t-13.5 -125.5t13.5 -125.5t41 -94.5t68.5 -59.5t97 -20.5q73 0 137 35l20 -47q-39 -23 -79.5 -33t-77.5 -10q-68 0 -120 24.5
t-87.5 70.5t-53.5 111.5t-18 148.5zM217 857v6h56l61 -73l62 73h56v-6l-93 -112h-49z" />
    <glyph glyph-name="ccaron" unicode="&#x10d;" horiz-adv-x="458" 
d="M61 241q0 54 12 100.5t37 81t63.5 54.5t92.5 20q38 0 74 -9t67 -27l-18 -43q-21 12 -54 20.5t-68 8.5q-42 0 -71 -19t-46 -49t-24.5 -66.5t-7.5 -71.5t7.5 -71.5t24.5 -66.5t46 -49t71 -19q35 0 68 8.5t54 20.5l18 -43q-31 -18 -67 -27t-74 -9q-54 0 -92.5 20t-63.5 54.5
t-37 81t-12 100.5zM155 693v5h55l63 -73l62 73h55v-5l-93 -112h-49z" />
    <glyph glyph-name="Dcaron" unicode="&#x10e;" horiz-adv-x="651" 
d="M102 680h156q87 0 148.5 -23t100.5 -66.5t57 -106.5t18 -144t-18 -144.5t-57 -107t-100.5 -66t-148.5 -22.5h-156v680zM247 53q79 0 132.5 18.5t85 55t45 90t13.5 123.5t-13.5 123.5t-45 90t-85 55t-132.5 18.5h-89v-574h89zM189 857v6h56l61 -73l62 73h56v-6l-93 -112
h-49z" />
    <glyph glyph-name="dcaron" unicode="&#x10f;" horiz-adv-x="538" 
d="M395 388q-28 26 -64 42.5t-78 16.5q-36 0 -61.5 -16t-41.5 -44t-23.5 -65.5t-7.5 -80.5t7.5 -80.5t23.5 -65.5t41.5 -44t61.5 -16q42 0 78 16.5t64 42.5v294zM396 42q-26 -20 -61.5 -38.5t-87.5 -18.5q-47 0 -81.5 19t-57.5 53.5t-34.5 81t-11.5 102.5q0 55 11.5 102
t34.5 81.5t57.5 53.5t81.5 19q53 0 86.5 -16.5t59.5 -39.5h2v259h55v-700h-43l-9 42h-2zM507 545l16 135h60v-7l-32 -135h-44v7z" />
    <glyph glyph-name="Dcroat" unicode="&#x110;" horiz-adv-x="651" 
d="M102 309h-48v53h48v318h156q87 0 148.5 -23t100.5 -66.5t57 -106.5t18 -144t-18 -144.5t-57 -107t-100.5 -66t-148.5 -22.5h-156v309zM247 53q79 0 132.5 18.5t85 55t45 90t13.5 123.5t-13.5 123.5t-45 90t-85 55t-132.5 18.5h-89v-265h153v-53h-153v-256h89z" />
    <glyph glyph-name="dcroat" unicode="&#x111;" horiz-adv-x="538" 
d="M396 42q-26 -20 -61.5 -38.5t-87.5 -18.5q-47 0 -81.5 19t-57.5 53.5t-34.5 81t-11.5 102.5q0 55 11.5 102t34.5 81.5t57.5 53.5t81.5 19q53 0 86.5 -16.5t59.5 -39.5h2v128h-106v48h106v83h55v-83h69v-48h-69v-569h-43l-9 42h-2zM395 388q-28 26 -64 42.5t-78 16.5
q-36 0 -61.5 -16t-41.5 -44t-23.5 -65.5t-7.5 -80.5t7.5 -80.5t23.5 -65.5t41.5 -44t61.5 -16q42 0 78 16.5t64 42.5v294z" />
    <glyph glyph-name="Emacron" unicode="&#x112;" horiz-adv-x="554" 
d="M484 680v-53h-326v-252h297v-53h-297v-269h329v-53h-385v680h382zM184 784v49h228v-49h-228z" />
    <glyph glyph-name="emacron" unicode="&#x113;" horiz-adv-x="512" 
d="M116 231q2 -87 41.5 -141.5t119.5 -54.5q43 0 77.5 14.5t58.5 32.5l23 -42q-26 -20 -67.5 -37.5t-93.5 -17.5q-56 0 -96.5 19.5t-66.5 54t-38.5 82t-12.5 102.5t13 102t39 80.5t65 52.5t91 19q51 0 86.5 -18t57 -46.5t31.5 -65t10 -73.5q0 -16 -1.5 -34t-3.5 -29h-333z
M269 447q-65 0 -104.5 -43t-47.5 -126h279q1 5 1 11.5v10.5q0 29 -7 55.5t-22 47t-39.5 32.5t-59.5 12zM161 595v48h228v-48h-228z" />
    <glyph glyph-name="Ebreve" unicode="&#x114;" horiz-adv-x="554" 
d="M484 680v-53h-326v-252h297v-53h-297v-269h329v-53h-385v680h382zM291 813q39 0 60.5 14t36.5 33l26 -25q-18 -31 -46.5 -51t-76.5 -20q-46 0 -75.5 20t-46.5 51l26 25q15 -19 36.5 -33t59.5 -14z" />
    <glyph glyph-name="ebreve" unicode="&#x115;" horiz-adv-x="512" 
d="M116 231q2 -87 41.5 -141.5t119.5 -54.5q43 0 77.5 14.5t58.5 32.5l23 -42q-26 -20 -67.5 -37.5t-93.5 -17.5q-56 0 -96.5 19.5t-66.5 54t-38.5 82t-12.5 102.5t13 102t39 80.5t65 52.5t91 19q51 0 86.5 -18t57 -46.5t31.5 -65t10 -73.5q0 -16 -1.5 -34t-3.5 -29h-333z
M269 447q-65 0 -104.5 -43t-47.5 -126h279q1 5 1 11.5v10.5q0 29 -7 55.5t-22 47t-39.5 32.5t-59.5 12zM273 620q39 0 60.5 14t36.5 33l26 -24q-18 -31 -46.5 -51t-76.5 -20q-46 0 -75.5 20t-46.5 51l26 24q15 -19 36.5 -33t59.5 -14z" />
    <glyph glyph-name="Edotaccent" unicode="&#x116;" horiz-adv-x="554" 
d="M484 680v-53h-326v-252h297v-53h-297v-269h329v-53h-385v680h382zM252 804q0 21 12 32.5t30 11.5t30 -11.5t12 -32.5t-12 -32.5t-30 -11.5t-30 11.5t-12 32.5z" />
    <glyph glyph-name="edotaccent" unicode="&#x117;" horiz-adv-x="512" 
d="M116 231q2 -87 41.5 -141.5t119.5 -54.5q43 0 77.5 14.5t58.5 32.5l23 -42q-26 -20 -67.5 -37.5t-93.5 -17.5q-56 0 -96.5 19.5t-66.5 54t-38.5 82t-12.5 102.5t13 102t39 80.5t65 52.5t91 19q51 0 86.5 -18t57 -46.5t31.5 -65t10 -73.5q0 -16 -1.5 -34t-3.5 -29h-333z
M269 447q-65 0 -104.5 -43t-47.5 -126h279q1 5 1 11.5v10.5q0 29 -7 55.5t-22 47t-39.5 32.5t-59.5 12zM234 628q0 21 12 32.5t30 11.5t30 -11.5t12 -32.5t-12 -32.5t-30 -11.5t-30 11.5t-12 32.5z" />
    <glyph glyph-name="Eogonek" unicode="&#x118;" horiz-adv-x="554" 
d="M484 680v-53h-326v-252h297v-53h-297v-269h329v-53h-385v680h382zM418 -213q-38 0 -61.5 23t-23.5 61q0 26 10.5 47.5t28.5 40.5t41 36.5t48 35.5l26 -31q-53 -39 -79 -64t-26 -56q0 -18 10.5 -32.5t33.5 -14.5q19 0 33.5 7t28.5 16l7 -42q-13 -10 -33 -18.5t-44 -8.5z
" />
    <glyph glyph-name="eogonek" unicode="&#x119;" horiz-adv-x="512" 
d="M323 -9q-11 -5 -23.5 -5.5t-24.5 -0.5q-56 0 -96.5 19.5t-66.5 54t-38.5 82t-12.5 102.5t13 102t39 80.5t65 52.5t91 19q51 0 86.5 -18t57 -46.5t31.5 -65t10 -73.5q0 -16 -1.5 -34t-3.5 -29h-333q2 -87 41.5 -141.5t119.5 -54.5q43 0 77.5 14.5t58.5 32.5l23 -42
l-14 -10q-24 -19 -43.5 -39t-33 -40t-21 -38t-7.5 -33q0 -18 10.5 -32.5t33.5 -14.5q19 0 33.5 7t28.5 16l7 -42q-13 -10 -33 -18.5t-44 -8.5q-38 0 -61.5 23t-23.5 61q0 29 13.5 60.5t42.5 58.5zM269 447q-65 0 -104.5 -43t-47.5 -126h279q1 5 1 11.5v10.5q0 29 -7 55.5
t-22 47t-39.5 32.5t-59.5 12z" />
    <glyph glyph-name="Ecaron" unicode="&#x11a;" horiz-adv-x="554" 
d="M484 680v-53h-326v-252h297v-53h-297v-269h329v-53h-385v680h382zM175 857v6h56l61 -73l62 73h56v-6l-93 -112h-49z" />
    <glyph glyph-name="ecaron" unicode="&#x11b;" horiz-adv-x="512" 
d="M116 231q2 -87 41.5 -141.5t119.5 -54.5q43 0 77.5 14.5t58.5 32.5l23 -42q-26 -20 -67.5 -37.5t-93.5 -17.5q-56 0 -96.5 19.5t-66.5 54t-38.5 82t-12.5 102.5t13 102t39 80.5t65 52.5t91 19q51 0 86.5 -18t57 -46.5t31.5 -65t10 -73.5q0 -16 -1.5 -34t-3.5 -29h-333z
M269 447q-65 0 -104.5 -43t-47.5 -126h279q1 5 1 11.5v10.5q0 29 -7 55.5t-22 47t-39.5 32.5t-59.5 12zM158 693v5h55l63 -73l62 73h55v-5l-93 -112h-49z" />
    <glyph glyph-name="Gcircumflex" unicode="&#x11c;" horiz-adv-x="618" 
d="M542 325v-280q-38 -26 -93 -43t-115 -17q-65 0 -114.5 25.5t-83 72t-50.5 112t-17 145.5q0 79 17.5 144t51.5 112t84.5 73t117.5 26q57 0 105.5 -16.5t89.5 -44.5l-25 -46q-42 26 -87.5 39t-82.5 13q-51 0 -90.5 -21t-66.5 -60t-41 -94.5t-14 -124.5q0 -67 13 -122.5
t38.5 -95t64.5 -61t90 -21.5q45 0 81.5 8.5t70.5 28.5v195l-132 11v42h188zM452 751v-6h-56l-62 73l-61 -73h-56v6l93 112h49z" />
    <glyph glyph-name="gcircumflex" unicode="&#x11d;" horiz-adv-x="536" 
d="M394 387q-27 29 -63.5 44.5t-78.5 15.5q-38 0 -63 -17t-41 -45.5t-22.5 -65.5t-6.5 -78t6.5 -78t22.5 -65t41 -45t63 -17q42 0 78.5 15.5t63.5 44.5v291zM449 -13q0 -95 -48.5 -147.5t-133.5 -52.5q-54 0 -93.5 12.5t-65.5 28.5l18 47q26 -14 60 -26t81 -12q57 0 92 35.5
t35 112.5v57h-2q-24 -22 -59.5 -39t-86.5 -17q-50 0 -85 20.5t-57 55.5t-32 81.5t-10 97.5t10 97.5t32 82t57 56t85 20.5q56 0 93 -19t58 -38h2l6 42h44v-495zM391 586v-5h-55l-63 73l-62 -73h-55v5l93 112h49z" />
    <glyph glyph-name="Gbreve" unicode="&#x11e;" horiz-adv-x="618" 
d="M542 325v-280q-38 -26 -93 -43t-115 -17q-65 0 -114.5 25.5t-83 72t-50.5 112t-17 145.5q0 79 17.5 144t51.5 112t84.5 73t117.5 26q57 0 105.5 -16.5t89.5 -44.5l-25 -46q-42 26 -87.5 39t-82.5 13q-51 0 -90.5 -21t-66.5 -60t-41 -94.5t-14 -124.5q0 -67 13 -122.5
t38.5 -95t64.5 -61t90 -21.5q45 0 81.5 8.5t70.5 28.5v195l-132 11v42h188zM336 813q39 0 60.5 14t36.5 33l26 -25q-18 -31 -46.5 -51t-76.5 -20q-46 0 -75.5 20t-46.5 51l26 25q15 -19 36.5 -33t59.5 -14z" />
    <glyph glyph-name="gbreve" unicode="&#x11f;" horiz-adv-x="536" 
d="M394 387q-27 29 -63.5 44.5t-78.5 15.5q-38 0 -63 -17t-41 -45.5t-22.5 -65.5t-6.5 -78t6.5 -78t22.5 -65t41 -45t63 -17q42 0 78.5 15.5t63.5 44.5v291zM449 -13q0 -95 -48.5 -147.5t-133.5 -52.5q-54 0 -93.5 12.5t-65.5 28.5l18 47q26 -14 60 -26t81 -12q57 0 92 35.5
t35 112.5v57h-2q-24 -22 -59.5 -39t-86.5 -17q-50 0 -85 20.5t-57 55.5t-32 81.5t-10 97.5t10 97.5t32 82t57 56t85 20.5q56 0 93 -19t58 -38h2l6 42h44v-495zM273 620q39 0 60.5 14t36.5 33l26 -24q-18 -31 -46.5 -51t-76.5 -20q-46 0 -75.5 20t-46.5 51l26 24
q15 -19 36.5 -33t59.5 -14z" />
    <glyph glyph-name="Gdotaccent" unicode="&#x120;" horiz-adv-x="618" 
d="M542 325v-280q-38 -26 -93 -43t-115 -17q-65 0 -114.5 25.5t-83 72t-50.5 112t-17 145.5q0 79 17.5 144t51.5 112t84.5 73t117.5 26q57 0 105.5 -16.5t89.5 -44.5l-25 -46q-42 26 -87.5 39t-82.5 13q-51 0 -90.5 -21t-66.5 -60t-41 -94.5t-14 -124.5q0 -67 13 -122.5
t38.5 -95t64.5 -61t90 -21.5q45 0 81.5 8.5t70.5 28.5v195l-132 11v42h188zM296 804q0 21 12 32.5t30 11.5t30 -11.5t12 -32.5t-12 -32.5t-30 -11.5t-30 11.5t-12 32.5z" />
    <glyph glyph-name="gdotaccent" unicode="&#x121;" horiz-adv-x="536" 
d="M394 387q-27 29 -63.5 44.5t-78.5 15.5q-38 0 -63 -17t-41 -45.5t-22.5 -65.5t-6.5 -78t6.5 -78t22.5 -65t41 -45t63 -17q42 0 78.5 15.5t63.5 44.5v291zM449 -13q0 -95 -48.5 -147.5t-133.5 -52.5q-54 0 -93.5 12.5t-65.5 28.5l18 47q26 -14 60 -26t81 -12q57 0 92 35.5
t35 112.5v57h-2q-24 -22 -59.5 -39t-86.5 -17q-50 0 -85 20.5t-57 55.5t-32 81.5t-10 97.5t10 97.5t32 82t57 56t85 20.5q56 0 93 -19t58 -38h2l6 42h44v-495zM230 628q0 21 12 32.5t30 11.5t30 -11.5t12 -32.5t-12 -32.5t-30 -11.5t-30 11.5t-12 32.5z" />
    <glyph glyph-name="uni0122" unicode="&#x122;" horiz-adv-x="618" 
d="M542 325v-280q-38 -26 -93 -43t-115 -17q-65 0 -114.5 25.5t-83 72t-50.5 112t-17 145.5q0 79 17.5 144t51.5 112t84.5 73t117.5 26q57 0 105.5 -16.5t89.5 -44.5l-25 -46q-42 26 -87.5 39t-82.5 13q-51 0 -90.5 -21t-66.5 -60t-41 -94.5t-14 -124.5q0 -67 13 -122.5
t38.5 -95t64.5 -61t90 -21.5q45 0 81.5 8.5t70.5 28.5v195l-132 11v42h188zM289 -211l16 135h60v-7l-32 -135h-44v7z" />
    <glyph glyph-name="uni0123" unicode="&#x123;" horiz-adv-x="536" 
d="M394 387q-27 29 -63.5 44.5t-78.5 15.5q-38 0 -63 -17t-41 -45.5t-22.5 -65.5t-6.5 -78t6.5 -78t22.5 -65t41 -45t63 -17q42 0 78.5 15.5t63.5 44.5v291zM449 -13q0 -95 -48.5 -147.5t-133.5 -52.5q-54 0 -93.5 12.5t-65.5 28.5l18 47q26 -14 60 -26t81 -12q57 0 92 35.5
t35 112.5v57h-2q-24 -22 -59.5 -39t-86.5 -17q-50 0 -85 20.5t-57 55.5t-32 81.5t-10 97.5t10 97.5t32 82t57 56t85 20.5q56 0 93 -19t58 -38h2l6 42h44v-495zM319 710l-16 -135h-59v7l32 135h43v-7z" />
    <glyph glyph-name="Hcircumflex" unicode="&#x124;" horiz-adv-x="668" 
d="M510 320h-352v-320h-56v680h56v-307h352v307h56v-680h-56v320zM452 751v-6h-56l-62 73l-61 -73h-56v6l93 112h49z" />
    <glyph glyph-name="hcircumflex" unicode="&#x125;" horiz-adv-x="541" 
d="M403 0v302q0 75 -27 110t-87 35q-21 0 -42.5 -5t-40.5 -13t-35.5 -18t-28.5 -20v-391h-55v700h55v-257h2q10 7 24.5 16.5t34 17.5t43 14t50.5 6q76 0 119 -43.5t43 -142.5v-311h-55zM396 761v-6h-56l-62 73l-61 -73h-56v6l93 112h49z" />
    <glyph glyph-name="Hbar" unicode="&#x126;" horiz-adv-x="668" 
d="M510 320h-352v-320h-56v517h-39v53h39v110h56v-110h352v110h56v-110h39v-53h-39v-517h-56v320zM510 373v144h-352v-144h352z" />
    <glyph glyph-name="hbar" unicode="&#x127;" horiz-adv-x="542" 
d="M404 0v302q0 75 -27 110t-87 35q-21 0 -42.5 -5t-40.5 -13t-35.5 -18t-28.5 -20v-391h-55v569h-69v48h69v83h55v-83h106v-48h-106v-126h2q10 7 24.5 16.5t34 17.5t43 14t50.5 6q76 0 119 -43.5t43 -142.5v-311h-55z" />
    <glyph glyph-name="Itilde" unicode="&#x128;" horiz-adv-x="260" 
d="M158 0h-56v680h56v-680zM5 798q14 22 32 36t44 14q13 0 27 -6t27 -13.5t24.5 -13.5t21.5 -6q16 0 27.5 8t24.5 27l22 -33q-14 -23 -32.5 -36.5t-42.5 -13.5q-14 0 -27.5 6t-26.5 13.5t-25 13.5t-22 6q-15 0 -27 -8t-24 -27z" />
    <glyph glyph-name="itilde" unicode="&#x129;" horiz-adv-x="230" 
d="M-10 616q14 23 32 36.5t44 13.5q13 0 27 -6t26.5 -13.5t24.5 -13.5t22 -6q16 0 27.5 8.5t24.5 26.5l22 -32q-14 -23 -32.5 -36t-42.5 -13q-14 0 -27.5 6t-26.5 13.5t-25 13.5t-22 6q-15 0 -27 -9t-24 -27zM88 0v482h54v-482h-54z" />
    <glyph glyph-name="Imacron" unicode="&#x12a;" horiz-adv-x="260" 
d="M158 0h-56v680h56v-680zM16 784v49h228v-49h-228z" />
    <glyph glyph-name="imacron" unicode="&#x12b;" horiz-adv-x="230" 
d="M2 595v48h228v-48h-228zM88 0v482h54v-482h-54z" />
    <glyph glyph-name="Ibreve" unicode="&#x12c;" horiz-adv-x="260" 
d="M158 0h-56v680h56v-680zM129 813q39 0 60.5 14t36.5 33l26 -25q-18 -31 -46.5 -51t-76.5 -20q-46 0 -75.5 20t-46.5 51l26 25q15 -19 36.5 -33t59.5 -14z" />
    <glyph glyph-name="ibreve" unicode="&#x12d;" horiz-adv-x="230" 
d="M115 620q39 0 60.5 14t36.5 33l26 -24q-18 -31 -46.5 -51t-76.5 -20q-46 0 -75.5 20t-46.5 51l26 24q15 -19 36.5 -33t59.5 -14zM88 0v482h54v-482h-54z" />
    <glyph glyph-name="Iogonek" unicode="&#x12e;" horiz-adv-x="260" 
d="M158 0h-56v680h56v-680zM112 -213q-37 0 -60.5 23t-23.5 58q0 26 9 47.5t23.5 41t33.5 37.5t39 37l26 -31q-40 -39 -61 -65.5t-21 -57.5q0 -17 10.5 -30.5t32.5 -13.5q17 0 30 6.5t27 14.5l7 -42q-13 -10 -30.5 -17.5t-41.5 -7.5z" />
    <glyph glyph-name="iogonek" unicode="&#x12f;" horiz-adv-x="229" 
d="M88 0v482h54v-482h-54zM73 628q0 21 12 32.5t30 11.5t30 -11.5t12 -32.5t-12 -32.5t-30 -11.5t-30 11.5t-12 32.5zM96 -213q-37 0 -60.5 23t-23.5 58q0 26 9 47.5t23.5 41t33.5 37.5t39 37l26 -31q-40 -39 -61 -65.5t-21 -57.5q0 -17 10.5 -30.5t32.5 -13.5q17 0 30 6.5
t27 14.5l7 -42q-13 -10 -30.5 -17.5t-41.5 -7.5z" />
    <glyph glyph-name="Idotaccent" unicode="&#x130;" horiz-adv-x="260" 
d="M158 0h-56v680h56v-680zM87 804q0 21 12 32.5t30 11.5t30 -11.5t12 -32.5t-12 -32.5t-30 -11.5t-30 11.5t-12 32.5z" />
    <glyph glyph-name="dotlessi" unicode="&#x131;" horiz-adv-x="228" 
d="M87 0v482h54v-482h-54z" />
    <glyph glyph-name="IJ" unicode="&#x132;" horiz-adv-x="707" 
d="M158 0h-56v680h56v-680zM317 95q18 -19 47 -37t73 -18q54 0 85 32t31 109v499h56v-504q0 -94 -47 -142.5t-125 -48.5q-27 0 -50 6.5t-41.5 17t-33.5 22t-25 22.5z" />
    <glyph glyph-name="ij" unicode="&#x133;" horiz-adv-x="457" 
d="M87 0v482h54v-482h-54zM72 628q0 21 12 32.5t30 11.5t30 -11.5t12 -32.5t-12 -32.5t-30 -11.5t-30 11.5t-12 32.5zM370 482v-551q0 -75 -30 -109.5t-84 -34.5q-15 0 -28 2t-24 5v48q10 -2 23.5 -3.5t25.5 -1.5q31 0 46.5 19t15.5 72v554h55zM300 628q0 21 12 32.5
t30 11.5t30 -11.5t12 -32.5t-12 -32.5t-30 -11.5t-30 11.5t-12 32.5z" />
    <glyph glyph-name="Jcircumflex" unicode="&#x134;" horiz-adv-x="447" 
d="M57 95q18 -19 47 -37t73 -18q54 0 85 32t31 109v499h56v-504q0 -94 -47 -142.5t-125 -48.5q-27 0 -50 6.5t-41.5 17t-33.5 22t-25 22.5zM438 751v-6h-56l-62 73l-61 -73h-56v6l93 112h49z" />
    <glyph glyph-name="jcircumflex" unicode="&#x135;" horiz-adv-x="231" 
d="M143 482v-551q0 -75 -30 -109.5t-84 -34.5q-15 0 -28 2t-24 5v48q10 -2 23.5 -3.5t25.5 -1.5q31 0 46.5 19t15.5 72v554h55zM233 586v-5h-55l-63 73l-62 -73h-55v5l93 112h49z" />
    <glyph glyph-name="uni0136" unicode="&#x136;" horiz-adv-x="541" 
d="M158 320v-320h-56v680h56v-334h2l277 334h67v-6l-284 -337l296 -331v-6h-73l-283 320h-2zM235 -211l16 135h60v-7l-32 -135h-44v7z" />
    <glyph glyph-name="uni0137" unicode="&#x137;" horiz-adv-x="454" 
d="M142 224v-224h-55v700h55v-448h2l207 230h67v-5l-218 -238l226 -233v-6h-71l-211 224h-2zM184 -211l16 135h59v-7l-31 -135h-44v7z" />
    <glyph glyph-name="kgreenlandic" unicode="&#x138;" horiz-adv-x="454" 
d="M142 224v-224h-55v482h55v-230h2l207 230h67v-5l-218 -238l226 -233v-6h-71l-211 224h-2z" />
    <glyph glyph-name="Lacute" unicode="&#x139;" horiz-adv-x="489" 
d="M158 680v-627h298v-53h-354v680h56zM217 857l-59 -112h-50v6l46 112h63v-6z" />
    <glyph glyph-name="lacute" unicode="&#x13a;" horiz-adv-x="237" 
d="M91 0v700h55v-700h-55zM202 867l-59 -112h-50v6l46 112h63v-6z" />
    <glyph glyph-name="uni013B" unicode="&#x13b;" horiz-adv-x="489" 
d="M158 680v-627h298v-53h-354v680h56zM231 -211l16 135h60v-7l-32 -135h-44v7z" />
    <glyph glyph-name="uni013C" unicode="&#x13c;" horiz-adv-x="237" 
d="M91 0v700h55v-700h-55zM73 -211l16 135h59v-7l-31 -135h-44v7z" />
    <glyph glyph-name="Lcaron" unicode="&#x13d;" horiz-adv-x="489" 
d="M158 680v-627h298v-53h-354v680h56zM266 545l16 135h60v-7l-32 -135h-44v7z" />
    <glyph glyph-name="lcaron" unicode="&#x13e;" horiz-adv-x="238" 
d="M91 0v700h55v-700h-55zM204 545l16 135h60v-7l-32 -135h-44v7z" />
    <glyph glyph-name="Ldot" unicode="&#x13f;" horiz-adv-x="490" 
d="M158 680v-627h298v-53h-354v680h56zM308 348q0 22 13.5 36.5t36.5 14.5t36.5 -14.5t13.5 -36.5t-13.5 -36.5t-36.5 -14.5t-36.5 14.5t-13.5 36.5z" />
    <glyph glyph-name="ldot" unicode="&#x140;" horiz-adv-x="309" 
d="M91 0v700h55v-700h-55zM224 352q0 22 13.5 36.5t36.5 14.5t36.5 -14.5t13.5 -36.5t-13.5 -36.5t-36.5 -14.5t-36.5 14.5t-13.5 36.5z" />
    <glyph glyph-name="Lslash" unicode="&#x141;" horiz-adv-x="494" 
d="M163 680v-285l100 64h7v-55l-107 -68v-283h298v-53h-354v300l-57 -36h-6v55l63 40v321h56z" />
    <glyph glyph-name="lslash" unicode="&#x142;" horiz-adv-x="316" 
d="M127 0v305l-84 -52h-5v55l89 55v337h55v-303l90 56h5v-54l-95 -59v-340h-55z" />
    <glyph glyph-name="Nacute" unicode="&#x143;" horiz-adv-x="667" 
d="M509 217v463h56v-680h-54l-358 581h-2l7 -118v-463h-56v680h54l356 -581h2zM417 857l-59 -112h-50v6l46 112h63v-6z" />
    <glyph glyph-name="nacute" unicode="&#x144;" horiz-adv-x="541" 
d="M131 482l6 -42h2q23 19 64 38t93 19q76 0 119 -43.5t43 -142.5v-311h-55v302q0 75 -27 110t-87 35q-42 0 -82 -17t-65 -39v-391h-55v482h44zM362 692l-61 -111h-48v6l48 111h61v-6z" />
    <glyph glyph-name="uni0145" unicode="&#x145;" horiz-adv-x="667" 
d="M509 217v463h56v-680h-54l-358 581h-2l7 -118v-463h-56v680h54l356 -581h2zM285 -211l16 135h60v-7l-32 -135h-44v7z" />
    <glyph glyph-name="uni0146" unicode="&#x146;" horiz-adv-x="541" 
d="M131 482l6 -42h2q23 19 64 38t93 19q76 0 119 -43.5t43 -142.5v-311h-55v302q0 75 -27 110t-87 35q-42 0 -82 -17t-65 -39v-391h-55v482h44zM225 -211l16 135h59v-7l-31 -135h-44v7z" />
    <glyph glyph-name="Ncaron" unicode="&#x147;" horiz-adv-x="667" 
d="M509 217v463h56v-680h-54l-358 581h-2l7 -118v-463h-56v680h54l356 -581h2zM219 857v6h56l61 -73l62 73h56v-6l-93 -112h-49z" />
    <glyph glyph-name="ncaron" unicode="&#x148;" horiz-adv-x="541" 
d="M131 482l6 -42h2q23 19 64 38t93 19q76 0 119 -43.5t43 -142.5v-311h-55v302q0 75 -27 110t-87 35q-42 0 -82 -17t-65 -39v-391h-55v482h44zM157 693v5h55l63 -73l62 73h55v-5l-93 -112h-49z" />
    <glyph glyph-name="napostrophe" unicode="&#x149;" horiz-adv-x="542" 
d="M132 482l6 -42h2q23 19 64 38t93 19q76 0 119 -43.5t43 -142.5v-311h-55v302q0 75 -27 110t-87 35q-42 0 -82 -17t-65 -39v-391h-55v482h44zM19 545l16 135h60v-7l-32 -135h-44v7z" />
    <glyph glyph-name="Eng" unicode="&#x14a;" horiz-adv-x="667" 
d="M565 -61q0 -82 -28 -117t-85 -35q-15 0 -28.5 2.5t-26.5 5.5v51q24 -6 52 -6q31 0 45 19.5t14 64.5v76l-355 584h-2l7 -118v-466h-56v680h54l356 -584h2l-5 118v466h56v-741z" />
    <glyph glyph-name="eng" unicode="&#x14b;" horiz-adv-x="541" 
d="M131 482l6 -42h2q23 19 64 38t93 19q76 0 119 -43.5t43 -142.5v-380q0 -75 -30 -109.5t-84 -34.5q-15 0 -28 2t-24 5v48q10 -2 23.5 -3.5t25.5 -1.5q31 0 46.5 19t15.5 72v374q0 75 -27 110t-87 35q-42 0 -82 -17t-65 -39v-391h-55v482h44z" />
    <glyph glyph-name="Omacron" unicode="&#x14c;" horiz-adv-x="666" 
d="M129 340q0 -64 9.5 -118.5t33 -95t62.5 -63.5t99 -23t99 23t62.5 63.5t33 95t9.5 118.5t-9.5 118.5t-33 95t-62.5 63.5t-99 23t-99 -23t-62.5 -63.5t-33 -95t-9.5 -118.5zM70 340q0 75 14 140t45 112.5t81 75t123 27.5t123 -27.5t81 -75t45 -112.5t14 -140t-14 -140
t-45 -112.5t-81 -75t-123 -27.5t-123 27.5t-81 75t-45 112.5t-14 140zM222 784v49h228v-49h-228z" />
    <glyph glyph-name="omacron" unicode="&#x14d;" horiz-adv-x="544" 
d="M119 241q0 -39 6.5 -76t23.5 -66t46.5 -46.5t76.5 -17.5t76.5 17.5t46.5 46.5t23.5 66t6.5 76t-6.5 76t-23.5 66t-46.5 46.5t-76.5 17.5t-76.5 -17.5t-46.5 -46.5t-23.5 -66t-6.5 -76zM482 241q0 -51 -10.5 -97t-35 -81.5t-64.5 -56.5t-100 -21t-100.5 21t-64.5 56.5
t-34.5 81.5t-10.5 97t10.5 97t34.5 81.5t64.5 56.5t100.5 21t100 -21t64.5 -56.5t35 -81.5t10.5 -97zM160 595v48h228v-48h-228z" />
    <glyph glyph-name="Obreve" unicode="&#x14e;" horiz-adv-x="666" 
d="M129 340q0 -64 9.5 -118.5t33 -95t62.5 -63.5t99 -23t99 23t62.5 63.5t33 95t9.5 118.5t-9.5 118.5t-33 95t-62.5 63.5t-99 23t-99 -23t-62.5 -63.5t-33 -95t-9.5 -118.5zM70 340q0 75 14 140t45 112.5t81 75t123 27.5t123 -27.5t81 -75t45 -112.5t14 -140t-14 -140
t-45 -112.5t-81 -75t-123 -27.5t-123 27.5t-81 75t-45 112.5t-14 140zM334 813q39 0 60.5 14t36.5 33l26 -25q-18 -31 -46.5 -51t-76.5 -20q-46 0 -75.5 20t-46.5 51l26 25q15 -19 36.5 -33t59.5 -14z" />
    <glyph glyph-name="obreve" unicode="&#x14f;" horiz-adv-x="544" 
d="M119 241q0 -39 6.5 -76t23.5 -66t46.5 -46.5t76.5 -17.5t76.5 17.5t46.5 46.5t23.5 66t6.5 76t-6.5 76t-23.5 66t-46.5 46.5t-76.5 17.5t-76.5 -17.5t-46.5 -46.5t-23.5 -66t-6.5 -76zM482 241q0 -51 -10.5 -97t-35 -81.5t-64.5 -56.5t-100 -21t-100.5 21t-64.5 56.5
t-34.5 81.5t-10.5 97t10.5 97t34.5 81.5t64.5 56.5t100.5 21t100 -21t64.5 -56.5t35 -81.5t10.5 -97zM273 620q39 0 60.5 14t36.5 33l26 -24q-18 -31 -46.5 -51t-76.5 -20q-46 0 -75.5 20t-46.5 51l26 24q15 -19 36.5 -33t59.5 -14z" />
    <glyph glyph-name="Ohungarumlaut" unicode="&#x150;" horiz-adv-x="666" 
d="M129 340q0 -64 9.5 -118.5t33 -95t62.5 -63.5t99 -23t99 23t62.5 63.5t33 95t9.5 118.5t-9.5 118.5t-33 95t-62.5 63.5t-99 23t-99 -23t-62.5 -63.5t-33 -95t-9.5 -118.5zM70 340q0 75 14 140t45 112.5t81 75t123 27.5t123 -27.5t81 -75t45 -112.5t14 -140t-14 -140
t-45 -112.5t-81 -75t-123 -27.5t-123 27.5t-81 75t-45 112.5t-14 140zM353 857l-62 -112h-49v6l49 112h62v-6zM480 857l-61 -112h-50v6l49 112h62v-6z" />
    <glyph glyph-name="ohungarumlaut" unicode="&#x151;" horiz-adv-x="544" 
d="M119 241q0 -39 6.5 -76t23.5 -66t46.5 -46.5t76.5 -17.5t76.5 17.5t46.5 46.5t23.5 66t6.5 76t-6.5 76t-23.5 66t-46.5 46.5t-76.5 17.5t-76.5 -17.5t-46.5 -46.5t-23.5 -66t-6.5 -76zM482 241q0 -51 -10.5 -97t-35 -81.5t-64.5 -56.5t-100 -21t-100.5 21t-64.5 56.5
t-34.5 81.5t-10.5 97t10.5 97t34.5 81.5t64.5 56.5t100.5 21t100 -21t64.5 -56.5t35 -81.5t10.5 -97zM308 692l-61 -111h-49v5l49 112h61v-6zM435 692l-61 -111h-48v5l48 112h61v-6z" />
    <glyph glyph-name="OE" unicode="&#x152;" horiz-adv-x="888" 
d="M338 695q53 0 95 -15h385v-53h-329v-251h301v-53h-301v-270h332v-53h-388q-22 -7 -45.5 -11t-49.5 -4q-72 0 -123 27t-83 74t-47 112t-15 142q0 76 15 141.5t47 112.5t83 74t123 27zM338 39q55 0 94 18v565q-41 19 -94 19q-60 0 -100 -23.5t-64.5 -64.5t-34.5 -95.5
t-10 -117.5t10 -117.5t34.5 -95.5t64.5 -64.5t100 -23.5z" />
    <glyph glyph-name="oe" unicode="&#x153;" horiz-adv-x="878" 
d="M272 497q75 0 118.5 -32.5t63.5 -84.5q23 54 67.5 85.5t113.5 31.5q51 0 86.5 -18t57 -46.5t31.5 -65t10 -73.5q0 -16 -1.5 -34t-3.5 -29h-333q2 -87 41.5 -141.5t119.5 -54.5q43 0 77.5 14.5t58.5 32.5l23 -42q-26 -20 -67.5 -37.5t-93.5 -17.5q-72 0 -117.5 32
t-68.5 86q-20 -53 -64 -85.5t-119 -32.5q-60 0 -100.5 21t-64.5 56.5t-34.5 81.5t-10.5 97t10.5 97t34.5 81.5t64.5 56.5t100.5 21zM119 241q0 -39 6.5 -76t23.5 -66t46.5 -46.5t76.5 -17.5t76.5 17.5t46.5 46.5t23.5 66t6.5 76t-6.5 76t-23.5 66t-46.5 46.5t-76.5 17.5
t-76.5 -17.5t-46.5 -46.5t-23.5 -66t-6.5 -76zM635 447q-65 0 -104.5 -43t-47.5 -126h279q1 5 1 11.5v10.5q0 29 -7 55.5t-22 47t-39.5 32.5t-59.5 12z" />
    <glyph glyph-name="Racute" unicode="&#x154;" horiz-adv-x="591" 
d="M102 0v680h215q45 0 82 -11t64 -34.5t42 -58.5t15 -83q0 -81 -44.5 -127t-122.5 -55l205 -304v-7h-64l-203 307h-133v-307h-56zM158 360h156q72 0 109.5 32.5t37.5 101.5q0 68 -37.5 100.5t-109.5 32.5h-156v-267zM361 857l-59 -112h-50v6l46 112h63v-6z" />
    <glyph glyph-name="racute" unicode="&#x155;" horiz-adv-x="330" 
d="M129 482l8 -47h2q20 29 47.5 45.5t68.5 16.5q14 0 25.5 -1.5t22.5 -4.5l-9 -50q-11 3 -21.5 4.5t-23.5 1.5q-35 0 -62.5 -20t-44.5 -55v-372h-55v482h42zM270 692l-61 -111h-48v6l48 111h61v-6z" />
    <glyph glyph-name="uni0156" unicode="&#x156;" horiz-adv-x="591" 
d="M102 0v680h215q45 0 82 -11t64 -34.5t42 -58.5t15 -83q0 -81 -44.5 -127t-122.5 -55l205 -304v-7h-64l-203 307h-133v-307h-56zM158 360h156q72 0 109.5 32.5t37.5 101.5q0 68 -37.5 100.5t-109.5 32.5h-156v-267zM246 -211l16 135h60v-7l-32 -135h-44v7z" />
    <glyph glyph-name="uni0157" unicode="&#x157;" horiz-adv-x="330" 
d="M129 482l8 -47h2q20 29 47.5 45.5t68.5 16.5q14 0 25.5 -1.5t22.5 -4.5l-9 -50q-11 3 -21.5 4.5t-23.5 1.5q-35 0 -62.5 -20t-44.5 -55v-372h-55v482h42zM66 -211l16 135h59v-7l-31 -135h-44v7z" />
    <glyph glyph-name="Rcaron" unicode="&#x158;" horiz-adv-x="591" 
d="M102 0v680h215q45 0 82 -11t64 -34.5t42 -58.5t15 -83q0 -81 -44.5 -127t-122.5 -55l205 -304v-7h-64l-203 307h-133v-307h-56zM158 360h156q72 0 109.5 32.5t37.5 101.5q0 68 -37.5 100.5t-109.5 32.5h-156v-267zM159 857v6h56l61 -73l62 73h56v-6l-93 -112h-49z" />
    <glyph glyph-name="rcaron" unicode="&#x159;" horiz-adv-x="330" 
d="M129 482l8 -47h2q20 29 47.5 45.5t68.5 16.5q14 0 25.5 -1.5t22.5 -4.5l-9 -50q-11 3 -21.5 4.5t-23.5 1.5q-35 0 -62.5 -20t-44.5 -55v-372h-55v482h42zM71 693v5h55l63 -73l62 73h55v-5l-93 -112h-49z" />
    <glyph glyph-name="Sacute" unicode="&#x15a;" horiz-adv-x="511" 
d="M84 106q34 -32 72.5 -49t95.5 -17q61 0 100.5 35t39.5 94q0 53 -26.5 84t-86.5 57l-73 32q-31 13 -56.5 29t-43.5 36t-28 46t-10 59q0 38 13.5 71.5t39 58t62 39t82.5 14.5q60 0 100.5 -17t72.5 -40l-27 -45q-32 22 -68 34.5t-78 12.5q-32 0 -57.5 -9.5t-43.5 -26.5
t-27.5 -40t-9.5 -50q0 -21 4.5 -37.5t16.5 -30.5t32 -27t52 -26l65 -27q35 -14 63.5 -32t48.5 -41t31 -53t11 -69t-15 -72.5t-41 -59t-63 -40t-80 -14.5q-64 0 -111.5 20t-86.5 58zM349 857l-59 -112h-50v6l46 112h63v-6z" />
    <glyph glyph-name="sacute" unicode="&#x15b;" horiz-adv-x="426" 
d="M76 75q27 -19 59 -29.5t70 -10.5q52 0 80.5 23.5t28.5 65.5q0 16 -4 28.5t-14 23t-27 19.5t-43 17l-49 16q-24 8 -45 19t-36.5 26.5t-24 36t-8.5 48.5q0 32 12 58t34 44t52 27.5t65 9.5q42 0 73 -10t62 -24l-20 -47q-32 17 -60 24t-55 7q-51 0 -78.5 -23t-27.5 -64
q0 -32 17.5 -51t58.5 -31l49 -15q60 -18 93 -47.5t33 -89.5q0 -32 -12.5 -57.5t-34.5 -44.5t-52.5 -29t-66.5 -10q-54 0 -89 13t-64 33zM307 692l-61 -111h-48v6l48 111h61v-6z" />
    <glyph glyph-name="Scircumflex" unicode="&#x15c;" horiz-adv-x="511" 
d="M84 106q34 -32 72.5 -49t95.5 -17q61 0 100.5 35t39.5 94q0 53 -26.5 84t-86.5 57l-73 32q-31 13 -56.5 29t-43.5 36t-28 46t-10 59q0 38 13.5 71.5t39 58t62 39t82.5 14.5q60 0 100.5 -17t72.5 -40l-27 -45q-32 22 -68 34.5t-78 12.5q-32 0 -57.5 -9.5t-43.5 -26.5
t-27.5 -40t-9.5 -50q0 -21 4.5 -37.5t16.5 -30.5t32 -27t52 -26l65 -27q35 -14 63.5 -32t48.5 -41t31 -53t11 -69t-15 -72.5t-41 -59t-63 -40t-80 -14.5q-64 0 -111.5 20t-86.5 58zM387 751v-6h-56l-62 73l-61 -73h-56v6l93 112h49z" />
    <glyph glyph-name="scircumflex" unicode="&#x15d;" horiz-adv-x="426" 
d="M76 75q27 -19 59 -29.5t70 -10.5q52 0 80.5 23.5t28.5 65.5q0 16 -4 28.5t-14 23t-27 19.5t-43 17l-49 16q-24 8 -45 19t-36.5 26.5t-24 36t-8.5 48.5q0 32 12 58t34 44t52 27.5t65 9.5q42 0 73 -10t62 -24l-20 -47q-32 17 -60 24t-55 7q-51 0 -78.5 -23t-27.5 -64
q0 -32 17.5 -51t58.5 -31l49 -15q60 -18 93 -47.5t33 -89.5q0 -32 -12.5 -57.5t-34.5 -44.5t-52.5 -29t-66.5 -10q-54 0 -89 13t-64 33zM337 586v-5h-55l-63 73l-62 -73h-55v5l93 112h49z" />
    <glyph glyph-name="Scedilla" unicode="&#x15e;" horiz-adv-x="511" 
d="M84 106q34 -32 72.5 -49t95.5 -17q61 0 100.5 35t39.5 94q0 53 -26.5 84t-86.5 57l-73 32q-31 13 -56.5 29t-43.5 36t-28 46t-10 59q0 38 13.5 71.5t39 58t62 39t82.5 14.5q60 0 100.5 -17t72.5 -40l-27 -45q-32 22 -68 34.5t-78 12.5q-32 0 -57.5 -9.5t-43.5 -26.5
t-27.5 -40t-9.5 -50q0 -21 4.5 -37.5t16.5 -30.5t32 -27t52 -26l65 -27q35 -14 63.5 -32t48.5 -41t31 -53t11 -69t-15 -72.5t-41 -59t-63 -40t-80 -14.5q-64 0 -111.5 20t-86.5 58zM216 -79l23 86h47l-17 -57q28 -3 48 -20.5t20 -52.5q0 -47 -28.5 -68.5t-69.5 -21.5
q-27 0 -45.5 7t-27.5 12l13 42q11 -7 26 -11.5t32 -4.5q22 0 34.5 10.5t12.5 34.5q0 23 -17 30.5t-46 7.5z" />
    <glyph glyph-name="scedilla" unicode="&#x15f;" horiz-adv-x="426" 
d="M76 75q27 -19 59 -29.5t70 -10.5q52 0 80.5 23.5t28.5 65.5q0 16 -4 28.5t-14 23t-27 19.5t-43 17l-49 16q-24 8 -45 19t-36.5 26.5t-24 36t-8.5 48.5q0 32 12 58t34 44t52 27.5t65 9.5q42 0 73 -10t62 -24l-20 -47q-32 17 -60 24t-55 7q-51 0 -78.5 -23t-27.5 -64
q0 -32 17.5 -51t58.5 -31l49 -15q60 -18 93 -47.5t33 -89.5q0 -32 -12.5 -57.5t-34.5 -44.5t-52.5 -29t-66.5 -10q-54 0 -89 13t-64 33zM172 -79l23 86h47l-17 -57q28 -3 48 -20.5t20 -52.5q0 -47 -28.5 -68.5t-69.5 -21.5q-27 0 -45.5 7t-27.5 12l13 42q11 -7 26 -11.5
t32 -4.5q22 0 34.5 10.5t12.5 34.5q0 23 -17 30.5t-46 7.5z" />
    <glyph glyph-name="Scaron" unicode="&#x160;" horiz-adv-x="511" 
d="M84 106q34 -32 72.5 -49t95.5 -17q61 0 100.5 35t39.5 94q0 53 -26.5 84t-86.5 57l-73 32q-31 13 -56.5 29t-43.5 36t-28 46t-10 59q0 38 13.5 71.5t39 58t62 39t82.5 14.5q60 0 100.5 -17t72.5 -40l-27 -45q-32 22 -68 34.5t-78 12.5q-32 0 -57.5 -9.5t-43.5 -26.5
t-27.5 -40t-9.5 -50q0 -21 4.5 -37.5t16.5 -30.5t32 -27t52 -26l65 -27q35 -14 63.5 -32t48.5 -41t31 -53t11 -69t-15 -72.5t-41 -59t-63 -40t-80 -14.5q-64 0 -111.5 20t-86.5 58zM153 857v6h56l61 -73l62 73h56v-6l-93 -112h-49z" />
    <glyph glyph-name="scaron" unicode="&#x161;" horiz-adv-x="426" 
d="M76 75q27 -19 59 -29.5t70 -10.5q52 0 80.5 23.5t28.5 65.5q0 16 -4 28.5t-14 23t-27 19.5t-43 17l-49 16q-24 8 -45 19t-36.5 26.5t-24 36t-8.5 48.5q0 32 12 58t34 44t52 27.5t65 9.5q42 0 73 -10t62 -24l-20 -47q-32 17 -60 24t-55 7q-51 0 -78.5 -23t-27.5 -64
q0 -32 17.5 -51t58.5 -31l49 -15q60 -18 93 -47.5t33 -89.5q0 -32 -12.5 -57.5t-34.5 -44.5t-52.5 -29t-66.5 -10q-54 0 -89 13t-64 33zM103 693v5h55l63 -73l62 73h55v-5l-93 -112h-49z" />
    <glyph glyph-name="uni0162" unicode="&#x162;" horiz-adv-x="502" 
d="M468 680v-53h-189v-627h-56v627h-189v53h434zM207 -79l23 86h47l-17 -57q28 -3 48 -20.5t20 -52.5q0 -47 -28.5 -68.5t-69.5 -21.5q-27 0 -45.5 7t-27.5 12l13 42q11 -7 26 -11.5t32 -4.5q22 0 34.5 10.5t12.5 34.5q0 23 -17 30.5t-46 7.5z" />
    <glyph glyph-name="uni0163" unicode="&#x163;" horiz-adv-x="324" 
d="M171 594v-112h119v-48h-119v-322q0 -46 15 -61.5t42 -15.5q17 0 32.5 4t29.5 9v-50q-14 -5 -30.5 -9t-37.5 -4q-53 0 -79.5 28.5t-26.5 97.5v323h-85v37l85 11v112h55zM151 -79l23 86h47l-17 -57q28 -3 48 -20.5t20 -52.5q0 -47 -28.5 -68.5t-69.5 -21.5q-27 0 -45.5 7
t-27.5 12l13 42q11 -7 26 -11.5t32 -4.5q22 0 34.5 10.5t12.5 34.5q0 23 -17 30.5t-46 7.5z" />
    <glyph glyph-name="Tcaron" unicode="&#x164;" horiz-adv-x="502" 
d="M468 680v-53h-189v-627h-56v627h-189v53h434zM136 857v6h56l61 -73l62 73h56v-6l-93 -112h-49z" />
    <glyph glyph-name="tcaron" unicode="&#x165;" horiz-adv-x="324" 
d="M171 594v-112h119v-48h-119v-322q0 -46 15 -61.5t42 -15.5q17 0 32.5 4t29.5 9v-50q-14 -5 -30.5 -9t-37.5 -4q-53 0 -79.5 28.5t-26.5 97.5v323h-85v37l85 11v112h55zM248 545l16 135h60v-7l-32 -135h-44v7z" />
    <glyph glyph-name="Tbar" unicode="&#x166;" horiz-adv-x="502" 
d="M468 680v-53h-189v-241h117v-47h-117v-339h-56v339h-116v47h116v241h-189v53h434z" />
    <glyph glyph-name="tbar" unicode="&#x167;" horiz-adv-x="327" 
d="M172 594v-112h119v-48h-119v-134h109v-48h-109v-140q0 -46 15 -61.5t42 -15.5q17 0 32.5 4t29.5 9v-50q-14 -5 -30.5 -9t-37.5 -4q-53 0 -79.5 28.5t-26.5 97.5v141h-68v48h68v134h-85v37l85 11v112h55z" />
    <glyph glyph-name="Utilde" unicode="&#x168;" horiz-adv-x="654" 
d="M327 -15q-119 0 -174.5 66t-55.5 179v450h56v-445q0 -95 41.5 -145t132.5 -50t132.5 50t41.5 145v445h56v-450q0 -57 -13.5 -102t-42 -77t-72 -49t-102.5 -17zM200 798q14 22 32 36t44 14q13 0 27 -6t27 -13.5t24.5 -13.5t21.5 -6q16 0 27.5 8t24.5 27l22 -33
q-14 -23 -32.5 -36.5t-42.5 -13.5q-14 0 -27.5 6t-26.5 13.5t-25 13.5t-22 6q-15 0 -27 -8t-24 -27z" />
    <glyph glyph-name="utilde" unicode="&#x169;" horiz-adv-x="533" 
d="M403 0l-7 42h-2q-23 -19 -62.5 -38t-91.5 -19q-76 0 -116.5 43.5t-40.5 142.5v311h55v-302q0 -75 24.5 -110t84.5 -35q42 0 81 17t63 39v391h55v-482h-43zM140 616q14 23 32 36.5t44 13.5q13 0 27 -6t26.5 -13.5t24.5 -13.5t22 -6q16 0 27.5 8.5t24.5 26.5l22 -32
q-14 -23 -32.5 -36t-42.5 -13q-14 0 -27.5 6t-26.5 13.5t-25 13.5t-22 6q-15 0 -27 -9t-24 -27z" />
    <glyph glyph-name="Umacron" unicode="&#x16a;" horiz-adv-x="654" 
d="M327 -15q-119 0 -174.5 66t-55.5 179v450h56v-445q0 -95 41.5 -145t132.5 -50t132.5 50t41.5 145v445h56v-450q0 -57 -13.5 -102t-42 -77t-72 -49t-102.5 -17zM210 784v49h228v-49h-228z" />
    <glyph glyph-name="umacron" unicode="&#x16b;" horiz-adv-x="533" 
d="M403 0l-7 42h-2q-23 -19 -62.5 -38t-91.5 -19q-76 0 -116.5 43.5t-40.5 142.5v311h55v-302q0 -75 24.5 -110t84.5 -35q42 0 81 17t63 39v391h55v-482h-43zM151 595v48h228v-48h-228z" />
    <glyph glyph-name="Ubreve" unicode="&#x16c;" horiz-adv-x="654" 
d="M327 -15q-119 0 -174.5 66t-55.5 179v450h56v-445q0 -95 41.5 -145t132.5 -50t132.5 50t41.5 145v445h56v-450q0 -57 -13.5 -102t-42 -77t-72 -49t-102.5 -17zM325 813q39 0 60.5 14t36.5 33l26 -25q-18 -31 -46.5 -51t-76.5 -20q-46 0 -75.5 20t-46.5 51l26 25
q15 -19 36.5 -33t59.5 -14z" />
    <glyph glyph-name="ubreve" unicode="&#x16d;" horiz-adv-x="533" 
d="M403 0l-7 42h-2q-23 -19 -62.5 -38t-91.5 -19q-76 0 -116.5 43.5t-40.5 142.5v311h55v-302q0 -75 24.5 -110t84.5 -35q42 0 81 17t63 39v391h55v-482h-43zM268 620q39 0 60.5 14t36.5 33l26 -24q-18 -31 -46.5 -51t-76.5 -20q-46 0 -75.5 20t-46.5 51l26 24
q15 -19 36.5 -33t59.5 -14z" />
    <glyph glyph-name="Uring" unicode="&#x16e;" horiz-adv-x="654" 
d="M327 -15q-119 0 -174.5 66t-55.5 179v450h56v-445q0 -95 41.5 -145t132.5 -50t132.5 50t41.5 145v445h56v-450q0 -57 -13.5 -102t-42 -77t-72 -49t-102.5 -17zM286 817q0 -21 11 -32t31 -11t31.5 11t11.5 32t-11.5 32t-31.5 11t-31 -11t-11 -32zM247 817q0 38 23 59.5
t58 21.5q36 0 58.5 -21.5t22.5 -59.5t-22.5 -59.5t-58.5 -21.5q-35 0 -58 21.5t-23 59.5z" />
    <glyph glyph-name="uring" unicode="&#x16f;" horiz-adv-x="533" 
d="M403 0l-7 42h-2q-23 -19 -62.5 -38t-91.5 -19q-76 0 -116.5 43.5t-40.5 142.5v311h55v-302q0 -75 24.5 -110t84.5 -35q42 0 81 17t63 39v391h55v-482h-43zM224 625q0 -21 11 -32.5t31 -11.5t31.5 11.5t11.5 32.5q0 20 -11.5 31.5t-31.5 11.5t-31 -11.5t-11 -31.5z
M185 625q0 37 23 59t58 22q36 0 58.5 -22t22.5 -59q0 -38 -22.5 -60t-58.5 -22q-35 0 -58 22t-23 60z" />
    <glyph glyph-name="Uhungarumlaut" unicode="&#x170;" horiz-adv-x="654" 
d="M327 -15q-119 0 -174.5 66t-55.5 179v450h56v-445q0 -95 41.5 -145t132.5 -50t132.5 50t41.5 145v445h56v-450q0 -57 -13.5 -102t-42 -77t-72 -49t-102.5 -17zM341 857l-62 -112h-49v6l49 112h62v-6zM468 857l-61 -112h-50v6l49 112h62v-6z" />
    <glyph glyph-name="uhungarumlaut" unicode="&#x171;" horiz-adv-x="533" 
d="M403 0l-7 42h-2q-23 -19 -62.5 -38t-91.5 -19q-76 0 -116.5 43.5t-40.5 142.5v311h55v-302q0 -75 24.5 -110t84.5 -35q42 0 81 17t63 39v391h55v-482h-43zM287 692l-61 -111h-49v5l49 112h61v-6zM414 692l-61 -111h-48v5l48 112h61v-6z" />
    <glyph glyph-name="Uogonek" unicode="&#x172;" horiz-adv-x="654" 
d="M328 -213q-38 0 -61.5 23t-23.5 61q0 34 15 63t43 52q-106 8 -155 72t-49 172v450h56v-445q0 -95 41.5 -145t132.5 -50t132.5 50t41.5 145v445h56v-450q0 -103 -45 -166.5t-141 -75.5q-47 -24 -63 -52t-16 -56q0 -18 10.5 -32.5t33.5 -14.5q19 0 33.5 7t28.5 16l7 -42
q-13 -10 -33 -18.5t-44 -8.5z" />
    <glyph glyph-name="uogonek" unicode="&#x173;" horiz-adv-x="533" 
d="M403 0l-7 42h-2q-23 -19 -62.5 -38t-91.5 -19q-76 0 -116.5 43.5t-40.5 142.5v311h55v-302q0 -75 24.5 -110t84.5 -35q42 0 81 17t63 39v391h55v-482h-43zM377 -213q-38 0 -61.5 23t-23.5 61q0 26 10.5 47.5t28.5 40.5t41 36.5t48 35.5l26 -31q-53 -39 -79 -64t-26 -56
q0 -18 10.5 -32.5t33.5 -14.5q19 0 33.5 7t28.5 16l7 -42q-13 -10 -33 -18.5t-44 -8.5z" />
    <glyph glyph-name="Wcircumflex" unicode="&#x174;" horiz-adv-x="897" 
d="M447 613l-37 -157l-131 -456h-58l-189 674v6h57l122 -439l38 -166h2l40 166l128 439h59l128 -439l40 -166h2l38 166l122 439h57v-6l-189 -674h-58l-131 456l-37 157h-3zM567 751v-6h-56l-62 73l-61 -73h-56v6l93 112h49z" />
    <glyph glyph-name="wcircumflex" unicode="&#x175;" horiz-adv-x="766" 
d="M382 424l-24 -91l-110 -333h-55l-158 476v6h56l104 -323l25 -97h2l27 97l106 323h56l106 -323l27 -97h2l25 97l104 323h56v-6l-158 -476h-55l-110 333l-24 91h-2zM501 586v-5h-55l-63 73l-62 -73h-55v5l93 112h49z" />
    <glyph glyph-name="Ycircumflex" unicode="&#x176;" horiz-adv-x="520" 
d="M84 680l175 -331h2l175 331h61v-6l-209 -386v-288h-56v288l-209 386v6h61zM380 751v-6h-56l-62 73l-61 -73h-56v6l93 112h49z" />
    <glyph glyph-name="ycircumflex" unicode="&#x177;" horiz-adv-x="467" 
d="M239 60l23 85l115 337h55v-6l-192 -559q-23 -68 -60 -99t-85 -31q-18 0 -31.5 2.5t-26.5 6.5v49q26 -8 56 -8q29 0 52 19.5t38 63.5l28 82l-179 474v6h55l125 -336l24 -86h3zM356 586v-5h-55l-63 73l-62 -73h-55v5l93 112h49z" />
    <glyph glyph-name="Ydieresis" unicode="&#x178;" horiz-adv-x="520" 
d="M84 680l175 -331h2l175 331h61v-6l-209 -386v-288h-56v288l-209 386v6h61zM134 804q0 21 12 32.5t30 11.5t30 -11.5t12 -32.5t-12 -32.5t-30 -11.5t-30 11.5t-12 32.5zM304 804q0 21 12 32.5t30 11.5t30 -11.5t12 -32.5t-12 -32.5t-30 -11.5t-30 11.5t-12 32.5z" />
    <glyph glyph-name="Zacute" unicode="&#x179;" horiz-adv-x="498" 
d="M444 680v-50l-327 -575v-2h327v-53h-396v50l326 575v2h-313v53h383zM331 857l-59 -112h-50v6l46 112h63v-6z" />
    <glyph glyph-name="zacute" unicode="&#x17a;" horiz-adv-x="411" 
d="M359 482v-36l-245 -396v-2h245v-48h-312v36l244 396v2h-233v48h301zM297 692l-61 -111h-48v6l48 111h61v-6z" />
    <glyph glyph-name="Zdotaccent" unicode="&#x17b;" horiz-adv-x="498" 
d="M444 680v-50l-327 -575v-2h327v-53h-396v50l326 575v2h-313v53h383zM215 804q0 21 12 32.5t30 11.5t30 -11.5t12 -32.5t-12 -32.5t-30 -11.5t-30 11.5t-12 32.5z" />
    <glyph glyph-name="zdotaccent" unicode="&#x17c;" horiz-adv-x="411" 
d="M359 482v-36l-245 -396v-2h245v-48h-312v36l244 396v2h-233v48h301zM174 628q0 21 12 32.5t30 11.5t30 -11.5t12 -32.5t-12 -32.5t-30 -11.5t-30 11.5t-12 32.5z" />
    <glyph glyph-name="Zcaron" unicode="&#x17d;" horiz-adv-x="498" 
d="M444 680v-50l-327 -575v-2h327v-53h-396v50l326 575v2h-313v53h383zM137 857v6h56l61 -73l62 73h56v-6l-93 -112h-49z" />
    <glyph glyph-name="zcaron" unicode="&#x17e;" horiz-adv-x="411" 
d="M359 482v-36l-245 -396v-2h245v-48h-312v36l244 396v2h-233v48h301zM93 693v5h55l63 -73l62 73h55v-5l-93 -112h-49z" />
    <glyph glyph-name="florin" unicode="&#x192;" 
d="M297 551q12 75 47 109.5t106 34.5q14 0 29 -1.5t27 -4.5l-8 -51q-11 3 -25 5t-28 2q-41 0 -62 -19t-29 -69l-32 -202h116l-8 -48h-117l-60 -377q-12 -75 -47 -109.5t-106 -34.5q-14 0 -29.5 1.5t-26.5 4.5l8 51q11 -3 25 -4.5t28 -1.5q40 0 61 18.5t29 68.5l62 383h-105
l8 48h106l31 196v0z" />
    <glyph glyph-name="Aringacute" unicode="&#x1fa;" horiz-adv-x="576" 
d="M377.591 900.741l-60.5381 -96.0791h-51.3027v5.14746l47.1992 96.0791h64.6416v-5.14746zM553 0h-58l-63 180h-287l-63 -180h-58l236 680h57zM287 613l-49 -161l-76 -220h253l-76 220l-49 161h-3zM246 725q0 -21 11 -32t31 -11t31.5 11t11.5 32t-11.5 32t-31.5 11
t-31 -11t-11 -32zM207 725q0 38 23 59.5t58 21.5q36 0 58.5 -21.5t22.5 -59.5t-22.5 -59.5t-58.5 -21.5q-35 0 -58 21.5t-23 59.5z" />
    <glyph glyph-name="aringacute" unicode="&#x1fb;" horiz-adv-x="480" 
d="M249 233q-68 0 -103.5 -23.5t-35.5 -78.5q0 -94 95 -94q37 0 72 10.5t65 36.5v149h-93zM354 0l-6 39h-2q-29 -23 -67 -37.5t-83 -14.5q-65 0 -104 37.5t-39 104.5q0 42 15 70.5t40.5 46.5t60 26t74.5 8h99v38q0 68 -31 98.5t-88 30.5q-36 0 -67.5 -12.5t-54.5 -32.5
l-25 41q24 21 63 37.5t84 16.5q85 0 129.5 -46t44.5 -134v-317h-43zM209.043 598.662q0 -19.583 11.2715 -30.3066q11.2725 -10.7236 31.7666 -10.7236t32.2783 10.7236t11.7842 30.3066q0 18.6494 -11.7842 29.373t-32.2783 10.7236t-31.7666 -10.7236
q-11.2715 -10.7236 -11.2715 -29.373zM169.079 598.662q0 34.502 23.5684 55.0166q23.5684 20.5156 59.4336 20.5156q36.8896 0 59.9463 -20.5156q23.0557 -20.5146 23.0557 -55.0166q0 -35.4355 -23.0557 -55.9502q-23.0566 -20.5146 -59.9463 -20.5146
q-35.8652 0 -59.4336 20.5146t-23.5684 55.9502zM339.859 796.206l-60.4414 -108.175h-47.5605v5.84766l47.5605 108.175h60.4414v-5.84766z" />
    <glyph glyph-name="AEacute" unicode="&#x1fc;" horiz-adv-x="848" 
d="M781 0h-388v194h-215l-107 -194h-61v6l373 674h395v-53h-329v-251h301v-53h-301v-270h332v-53zM397 611l-65 -138l-126 -228h187v222l6 144h-2zM669 857l-59 -112h-50v6l46 112h63v-6z" />
    <glyph glyph-name="aeacute" unicode="&#x1fd;" horiz-adv-x="794" 
d="M736 294q0 -16 -1.5 -33.5t-3.5 -28.5h-333q1 -44 11.5 -80t30 -62t49.5 -40.5t70 -14.5q43 0 77.5 14.5t58.5 32.5l23 -42q-26 -20 -67.5 -37.5t-93.5 -17.5q-73 0 -118 32.5t-68 88.5q-20 -60 -64.5 -90.5t-110.5 -30.5q-65 0 -104 38.5t-39 105.5q0 42 15 70.5
t40.5 46t60 25.5t74.5 8h99v39q0 68 -31 98.5t-88 30.5q-36 0 -67.5 -12.5t-54.5 -32.5l-25 41q24 21 63 37.5t84 16.5q123 0 157 -99q24 47 66 73t105 26q51 0 86.5 -18t57 -46.5t31.5 -65t10 -73.5zM678 279q1 5 1 11v10q0 29 -7 55.5t-22 47t-39.5 32.5t-59.5 12
q-65 0 -104.5 -42.5t-47.5 -125.5h279zM205 35q63 0 100 45t37 152h-93q-68 0 -103.5 -23t-35.5 -78q0 -46 23.5 -71t71.5 -25zM482 692l-61 -111h-48v6l48 111h61v-6z" />
    <glyph glyph-name="Oslashacute" unicode="&#x1fe;" horiz-adv-x="667" 
d="M70 340q0 75 14 140t45 112.5t81 75t123 27.5q52 0 91.5 -14t69.5 -40l40 64l42 -25l-47 -76q35 -49 51 -116.5t16 -147.5q0 -75 -14 -140t-45 -112.5t-81 -75t-123 -27.5q-95 0 -155 48l-33 -53l-42 27l38 62q-38 49 -54.5 118.5t-16.5 152.5zM129 340q0 -66 10 -121.5
t35 -96.5l290 470q-23 23 -55 35.5t-76 12.5q-60 0 -99 -23t-62.5 -63.5t-33 -95t-9.5 -118.5zM537 340q0 63 -9 116.5t-32 93.5l-289 -469q23 -20 54 -30.5t72 -10.5q60 0 99 23t62.5 63.5t33 95t9.5 118.5zM416 857l-59 -112h-50v6l46 112h63v-6z" />
    <glyph glyph-name="oslashacute" unicode="&#x1ff;" horiz-adv-x="544" 
d="M85 3l32 46q-30 36 -42.5 86t-12.5 106q0 51 10.5 97t34.5 81.5t64.5 56.5t100.5 21q40 0 71.5 -10t54.5 -27l30 44l39 -29l-35 -50q27 -36 38.5 -83.5t11.5 -100.5q0 -51 -10.5 -97t-35 -81.5t-64.5 -56.5t-100 -21q-38 0 -68.5 8.5t-53.5 24.5l-30 -43zM119 241
q0 -40 6.5 -77.5t23.5 -66.5l218 319q-17 14 -40 22.5t-55 8.5q-47 0 -76.5 -17.5t-46.5 -46.5t-23.5 -66t-6.5 -76zM425 241q0 37 -6 71.5t-21 63.5l-217 -314q17 -13 39 -20t52 -7q47 0 76.5 17.5t46.5 46.5t23.5 66t6.5 76zM352 692l-61 -111h-48v6l48 111h61v-6z" />
    <glyph glyph-name="uni0218" unicode="&#x218;" horiz-adv-x="511" 
d="M84 106q34 -32 72.5 -49t95.5 -17q61 0 100.5 35t39.5 94q0 53 -26.5 84t-86.5 57l-73 32q-31 13 -56.5 29t-43.5 36t-28 46t-10 59q0 38 13.5 71.5t39 58t62 39t82.5 14.5q60 0 100.5 -17t72.5 -40l-27 -45q-32 22 -68 34.5t-78 12.5q-32 0 -57.5 -9.5t-43.5 -26.5
t-27.5 -40t-9.5 -50q0 -21 4.5 -37.5t16.5 -30.5t32 -27t52 -26l65 -27q35 -14 63.5 -32t48.5 -41t31 -53t11 -69t-15 -72.5t-41 -59t-63 -40t-80 -14.5q-64 0 -111.5 20t-86.5 58zM205 -211l16 135h60v-7l-32 -135h-44v7z" />
    <glyph glyph-name="uni0219" unicode="&#x219;" horiz-adv-x="426" 
d="M76 75q27 -19 59 -29.5t70 -10.5q52 0 80.5 23.5t28.5 65.5q0 16 -4 28.5t-14 23t-27 19.5t-43 17l-49 16q-24 8 -45 19t-36.5 26.5t-24 36t-8.5 48.5q0 32 12 58t34 44t52 27.5t65 9.5q42 0 73 -10t62 -24l-20 -47q-32 17 -60 24t-55 7q-51 0 -78.5 -23t-27.5 -64
q0 -32 17.5 -51t58.5 -31l49 -15q60 -18 93 -47.5t33 -89.5q0 -32 -12.5 -57.5t-34.5 -44.5t-52.5 -29t-66.5 -10q-54 0 -89 13t-64 33zM170 -211l16 135h59v-7l-31 -135h-44v7z" />
    <glyph glyph-name="uni021A" unicode="&#x21a;" horiz-adv-x="502" 
d="M468 680v-53h-189v-627h-56v627h-189v53h434zM204 -211l16 135h60v-7l-32 -135h-44v7z" />
    <glyph glyph-name="uni021B" unicode="&#x21b;" horiz-adv-x="324" 
d="M171 594v-112h119v-48h-119v-322q0 -46 15 -61.5t42 -15.5q17 0 32.5 4t29.5 9v-50q-14 -5 -30.5 -9t-37.5 -4q-53 0 -79.5 28.5t-26.5 97.5v323h-85v37l85 11v112h55zM151 -211l16 135h59v-7l-31 -135h-44v7z" />
    <glyph glyph-name="uni0237" unicode="&#x237;" horiz-adv-x="229" 
d="M142 482v-551q0 -75 -30 -109.5t-84 -34.5q-15 0 -28 2t-24 5v48q10 -2 23.5 -3.5t25.5 -1.5q31 0 46.5 19t15.5 72v554h55z" />
    <glyph glyph-name="circumflex" unicode="&#x2c6;" 
d="M392 586v-5h-55l-63 73l-62 -73h-55v5l93 112h49z" />
    <glyph glyph-name="caron" unicode="&#x2c7;" 
d="M157 693v5h55l63 -73l62 73h55v-5l-93 -112h-49z" />
    <glyph glyph-name="uni02C9" unicode="&#x2c9;" horiz-adv-x="553" 
d="M169 615v48h228v-48h-228z" />
    <glyph glyph-name="breve" unicode="&#x2d8;" 
d="M273 620q39 0 60.5 14t36.5 33l26 -24q-18 -31 -46.5 -51t-76.5 -20q-46 0 -75.5 20t-46.5 51l26 24q15 -19 36.5 -33t59.5 -14z" />
    <glyph glyph-name="dotaccent" unicode="&#x2d9;" 
d="M230 628q0 21 12 32.5t30 11.5t30 -11.5t12 -32.5t-12 -32.5t-30 -11.5t-30 11.5t-12 32.5z" />
    <glyph glyph-name="ring" unicode="&#x2da;" 
d="M232 625q0 -21 11 -32.5t31 -11.5t31.5 11.5t11.5 32.5q0 20 -11.5 31.5t-31.5 11.5t-31 -11.5t-11 -31.5zM193 625q0 37 23 59t58 22q36 0 58.5 -22t22.5 -59q0 -38 -22.5 -60t-58.5 -22q-35 0 -58 22t-23 60z" />
    <glyph glyph-name="ogonek" unicode="&#x2db;" 
d="M277 -213q-38 0 -61.5 23t-23.5 61q0 26 10.5 47.5t28.5 40.5t41 36.5t48 35.5l26 -31q-53 -39 -79 -64t-26 -56q0 -18 10.5 -32.5t33.5 -14.5q19 0 33.5 7t28.5 16l7 -42q-13 -10 -33 -18.5t-44 -8.5z" />
    <glyph glyph-name="tilde" unicode="&#x2dc;" 
d="M149 616q14 23 32 36.5t44 13.5q13 0 27 -6t26.5 -13.5t24.5 -13.5t22 -6q16 0 27.5 8.5t24.5 26.5l22 -32q-14 -23 -32.5 -36t-42.5 -13q-14 0 -27.5 6t-26.5 13.5t-25 13.5t-22 6q-15 0 -27 -9t-24 -27z" />
    <glyph glyph-name="hungarumlaut" unicode="&#x2dd;" 
d="M264 692l-61 -111h-49v5l49 112h61v-6zM391 692l-61 -111h-48v5l48 112h61v-6z" />
    <glyph glyph-name="tonos" unicode="&#x384;" horiz-adv-x="590" 
d="M355 699l-40 -132h-42v6l24 132h58v-6z" />
    <glyph glyph-name="dieresistonos" unicode="&#x385;" horiz-adv-x="590" 
d="M349 699l-39 -133h-43v6l24 133h58v-6zM137 628q0 21 12 32.5t30 11.5t30 -11.5t12 -32.5t-12 -32.5t-30 -11.5t-30 11.5t-12 32.5zM383 628q0 21 12 32.5t30 11.5t30 -11.5t12 -32.5t-12 -32.5t-30 -11.5t-30 11.5t-12 32.5z" />
    <glyph glyph-name="Alphatonos" unicode="&#x386;" horiz-adv-x="596" 
d="M572 0h-58l-63 180h-287l-63 -180h-58l236 680h57zM306 613l-49 -161l-76 -220h253l-76 220l-49 161h-3zM158 674l-40 -132h-41v6l23 132h58v-6z" />
    <glyph glyph-name="anoteleia" unicode="&#x387;" horiz-adv-x="252" 
d="M76 292q0 22 13.5 36.5t36.5 14.5t36.5 -14.5t13.5 -36.5t-13.5 -36.5t-36.5 -14.5t-36.5 14.5t-13.5 36.5z" />
    <glyph glyph-name="Epsilontonos" unicode="&#x388;" horiz-adv-x="634" 
d="M564 680v-53h-326v-252h297v-53h-297v-269h329v-53h-385v680h382zM111 674l-40 -132h-41v6l23 132h58v-6z" />
    <glyph glyph-name="Etatonos" unicode="&#x389;" horiz-adv-x="745" 
d="M587 320h-352v-320h-56v680h56v-307h352v307h56v-680h-56v320zM111 674l-40 -132h-41v6l23 132h58v-6z" />
    <glyph glyph-name="Iotatonos" unicode="&#x38a;" horiz-adv-x="335" 
d="M233 0h-56v680h56v-680zM111 674l-40 -132h-41v6l23 132h58v-6z" />
    <glyph glyph-name="Omicrontonos" unicode="&#x38c;" horiz-adv-x="729" 
d="M192 340q0 -64 9.5 -118.5t33 -95t62.5 -63.5t99 -23t99 23t62.5 63.5t33 95t9.5 118.5t-9.5 118.5t-33 95t-62.5 63.5t-99 23t-99 -23t-62.5 -63.5t-33 -95t-9.5 -118.5zM133 340q0 75 14 140t45 112.5t81 75t123 27.5t123 -27.5t81 -75t45 -112.5t14 -140t-14 -140
t-45 -112.5t-81 -75t-123 -27.5t-123 27.5t-81 75t-45 112.5t-14 140zM117 674l-40 -132h-41v6l23 132h58v-6z" />
    <glyph glyph-name="Upsilontonos" unicode="&#x38e;" horiz-adv-x="676" 
d="M240 680l175 -331h2l175 331h61v-6l-209 -386v-288h-56v288l-209 386v6h61zM121 674l-40 -132h-41v6l23 132h58v-6z" />
    <glyph glyph-name="Omegatonos" unicode="&#x38f;" horiz-adv-x="736" 
d="M400 695q72 0 122 -26.5t81.5 -71t45.5 -102.5t14 -121q0 -57 -11 -105t-29 -87.5t-41.5 -71.5t-48.5 -57h121v-53h-196v49q70 56 108 135.5t38 188.5q0 50 -8.5 98t-31.5 85.5t-62.5 60.5t-101.5 23q-61 0 -100.5 -23t-62.5 -60.5t-32 -85.5t-9 -98q0 -109 38.5 -188.5
t109.5 -135.5v-49h-197v53h121q-26 25 -49.5 57t-41.5 71.5t-28.5 87.5t-10.5 105q0 63 14 121t45.5 102.5t81 71t121.5 26.5zM117 674l-40 -132h-41v6l23 132h58v-6z" />
    <glyph glyph-name="iotadieresistonos" unicode="&#x390;" horiz-adv-x="247" 
d="M144 482v-403q0 -44 38 -44q9 0 19.5 2t18.5 5v-49q-24 -8 -51 -8q-40 0 -60 24t-20 69v404h55zM173 699l-39 -133h-43v6l24 133h58v-6zM-39 628q0 21 12 32.5t30 11.5t30 -11.5t12 -32.5t-12 -32.5t-30 -11.5t-30 11.5t-12 32.5zM207 628q0 21 12 32.5t30 11.5t30 -11.5
t12 -32.5t-12 -32.5t-30 -11.5t-30 11.5t-12 32.5z" />
    <glyph glyph-name="Alpha" unicode="&#x391;" horiz-adv-x="577" 
d="M553 0h-58l-63 180h-287l-63 -180h-58l236 680h57zM287 613l-49 -161l-76 -220h253l-76 220l-49 161h-3z" />
    <glyph glyph-name="Beta" unicode="&#x392;" horiz-adv-x="579" 
d="M319 53q62 0 101 32.5t39 100.5t-39 100t-101 32h-161v-265h161zM285 680q100 0 154.5 -43.5t54.5 -134.5q0 -60 -26.5 -98t-61.5 -52v-2q52 -16 82 -57.5t30 -107.5q0 -44 -14.5 -78.5t-41 -58t-62.5 -36t-78 -12.5h-220v680h183zM281 371q72 0 113 28t41 100t-41 100
t-113 28h-123v-256h123z" />
    <glyph glyph-name="Gamma" unicode="&#x393;" horiz-adv-x="489" 
d="M102 0v680h354v-53h-298v-627h-56z" />
    <glyph glyph-name="uni0394" unicode="&#x394;" horiz-adv-x="575" 
d="M551 0h-525v5l234 675h57l234 -675v-5zM287 613l-49 -159l-138 -402h376l-137 402l-49 159h-3z" />
    <glyph glyph-name="Epsilon" unicode="&#x395;" horiz-adv-x="554" 
d="M484 680v-53h-326v-252h297v-53h-297v-269h329v-53h-385v680h382z" />
    <glyph glyph-name="Zeta" unicode="&#x396;" horiz-adv-x="498" 
d="M444 680v-50l-327 -575v-2h327v-53h-396v50l326 575v2h-313v53h383z" />
    <glyph glyph-name="Eta" unicode="&#x397;" horiz-adv-x="668" 
d="M510 320h-352v-320h-56v680h56v-307h352v307h56v-680h-56v320z" />
    <glyph glyph-name="Theta" unicode="&#x398;" horiz-adv-x="666" 
d="M218 323v53h232v-53h-232zM129 340q0 -64 9.5 -118.5t33 -95t62.5 -63.5t99 -23t99 23t62.5 63.5t33 95t9.5 118.5t-9.5 118.5t-33 95t-62.5 63.5t-99 23t-99 -23t-62.5 -63.5t-33 -95t-9.5 -118.5zM70 340q0 75 14 140t45 112.5t81 75t123 27.5t123 -27.5t81 -75
t45 -112.5t14 -140t-14 -140t-45 -112.5t-81 -75t-123 -27.5t-123 27.5t-81 75t-45 112.5t-14 140z" />
    <glyph glyph-name="Iota" unicode="&#x399;" horiz-adv-x="260" 
d="M158 0h-56v680h56v-680z" />
    <glyph glyph-name="Kappa" unicode="&#x39a;" horiz-adv-x="541" 
d="M158 320v-320h-56v680h56v-334h2l277 334h67v-6l-284 -337l296 -331v-6h-73l-283 320h-2z" />
    <glyph glyph-name="Lambda" unicode="&#x39b;" horiz-adv-x="577" 
d="M229 429l-147 -429h-58l236 680h57l236 -680h-58l-147 429l-59 193h-1z" />
    <glyph glyph-name="Mu" unicode="&#x39c;" horiz-adv-x="796" 
d="M457 355l183 325h54v-680h-56v474l7 106h-2l-221 -409h-48l-221 409h-2l7 -106v-474h-56v680h54l183 -325l58 -123h2z" />
    <glyph glyph-name="Nu" unicode="&#x39d;" horiz-adv-x="667" 
d="M509 217v463h56v-680h-54l-358 581h-2l7 -118v-463h-56v680h54l356 -581h2z" />
    <glyph glyph-name="Xi" unicode="&#x39e;" horiz-adv-x="536" 
d="M470 53v-53h-403v53h403zM101 322v53h337v-53h-337zM67 627v53h400v-53h-400z" />
    <glyph glyph-name="Omicron" unicode="&#x39f;" horiz-adv-x="666" 
d="M129 340q0 -64 9.5 -118.5t33 -95t62.5 -63.5t99 -23t99 23t62.5 63.5t33 95t9.5 118.5t-9.5 118.5t-33 95t-62.5 63.5t-99 23t-99 -23t-62.5 -63.5t-33 -95t-9.5 -118.5zM70 340q0 75 14 140t45 112.5t81 75t123 27.5t123 -27.5t81 -75t45 -112.5t14 -140t-14 -140
t-45 -112.5t-81 -75t-123 -27.5t-123 27.5t-81 75t-45 112.5t-14 140z" />
    <glyph glyph-name="Pi" unicode="&#x3a0;" horiz-adv-x="668" 
d="M510 627h-352v-627h-56v680h464v-680h-56v627z" />
    <glyph glyph-name="Rho" unicode="&#x3a1;" horiz-adv-x="555" 
d="M102 0v680h198q99 0 152 -51t53 -150t-53.5 -149.5t-151.5 -50.5h-142v-279h-56zM158 332h138q82 0 116 40.5t34 106.5q0 33 -8 60.5t-26 47t-46.5 30t-69.5 10.5h-138v-295z" />
    <glyph glyph-name="Sigma" unicode="&#x3a3;" horiz-adv-x="515" 
d="M47 47l184 299l-169 287v47h400v-53h-331l165 -280l-181 -294h347v-53h-415v47z" />
    <glyph glyph-name="Tau" unicode="&#x3a4;" horiz-adv-x="502" 
d="M468 680v-53h-189v-627h-56v627h-189v53h434z" />
    <glyph glyph-name="Upsilon" unicode="&#x3a5;" horiz-adv-x="520" 
d="M84 680l175 -331h2l175 331h61v-6l-209 -386v-288h-56v288l-209 386v6h61z" />
    <glyph glyph-name="Phi" unicode="&#x3a6;" horiz-adv-x="702" 
d="M323 560q-60 -4 -100.5 -21t-65 -45.5t-34.5 -67t-10 -85.5t10 -85.5t34.5 -67t65 -45.5t100.5 -21v438zM323 0v67q-74 3 -125 26t-83 60t-46.5 85.5t-14.5 102.5q0 55 14.5 103t46.5 85t83 59.5t125 25.5v66h55v-66q73 -3 124.5 -25.5t83.5 -59.5t46.5 -85t14.5 -103
q0 -54 -14.5 -102.5t-46.5 -85.5t-83.5 -60t-124.5 -26v-67h-55zM378 122q60 4 100.5 21t65 45.5t34.5 67t10 85.5t-10 85.5t-34.5 67t-65 45.5t-100.5 21v-438z" />
    <glyph glyph-name="Chi" unicode="&#x3a7;" horiz-adv-x="544" 
d="M271 296l-173 -296h-61v6l199 335l-199 333v6h62l172 -296h2l172 296h62v-6l-199 -333l199 -335v-6h-61l-173 296h-2z" />
    <glyph glyph-name="Psi" unicode="&#x3a8;" horiz-adv-x="662" 
d="M126 680v-287q0 -86 41 -133t136 -49v469h56v-469q94 1 135.5 48.5t41.5 133.5v287h56v-289q0 -112 -56 -172.5t-177 -61.5v-157h-56v157q-121 1 -177 62t-56 173v288h56z" />
    <glyph glyph-name="uni03A9" unicode="&#x3a9;" horiz-adv-x="671" 
d="M336 695q72 0 122 -26.5t81.5 -71t45.5 -102.5t14 -121q0 -57 -11 -105t-29 -87.5t-41.5 -71.5t-48.5 -57h121v-53h-196v49q70 56 108 135.5t38 188.5q0 50 -8.5 98t-31.5 85.5t-62.5 60.5t-101.5 23q-61 0 -100.5 -23t-62.5 -60.5t-32 -85.5t-9 -98q0 -109 38.5 -188.5
t109.5 -135.5v-49h-197v53h121q-26 25 -49.5 57t-41.5 71.5t-28.5 87.5t-10.5 105q0 63 14 121t45.5 102.5t81 71t121.5 26.5z" />
    <glyph glyph-name="Iotadieresis" unicode="&#x3aa;" horiz-adv-x="260" 
d="M158 0h-56v680h56v-680zM0 804q0 21 12 32.5t30 11.5t30 -11.5t12 -32.5t-12 -32.5t-30 -11.5t-30 11.5t-12 32.5zM170 804q0 21 12 32.5t30 11.5t30 -11.5t12 -32.5t-12 -32.5t-30 -11.5t-30 11.5t-12 32.5z" />
    <glyph glyph-name="Upsilondieresis" unicode="&#x3ab;" horiz-adv-x="520" 
d="M84 680l175 -331h2l175 331h61v-6l-209 -386v-288h-56v288l-209 386v6h61zM134 804q0 21 12 32.5t30 11.5t30 -11.5t12 -32.5t-12 -32.5t-30 -11.5t-30 11.5t-12 32.5zM304 804q0 21 12 32.5t30 11.5t30 -11.5t12 -32.5t-12 -32.5t-30 -11.5t-30 11.5t-12 32.5z" />
    <glyph glyph-name="alphatonos" unicode="&#x3ac;" horiz-adv-x="570" 
d="M446 241l67 -241h-54l-40 148h-1q-26 -75 -71 -119t-107 -44q-38 0 -70 13.5t-56 43.5t-37.5 79t-13.5 120t13.5 120t37.5 79t56 43.5t70 13.5q62 0 107 -44t71 -119h1l40 148h54zM120 241q0 -57 9 -96.5t25 -63.5t38 -35t48 -11q31 0 57 18.5t45.5 48t33 66t19.5 73.5
q-6 37 -19.5 73.5t-33 66t-45.5 48t-57 18.5q-26 0 -48 -11t-38 -35t-25 -63.5t-9 -96.5zM331 699l-40 -132h-42v6l24 132h58v-6z" />
    <glyph glyph-name="epsilontonos" unicode="&#x3ad;" horiz-adv-x="459" 
d="M306 699l-40 -132h-42v6l24 132h58v-6zM336 226h-114q-46 0 -75 -21t-29 -66q0 -59 32.5 -81.5t93.5 -22.5q42 0 79 8t75 27l16 -45q-35 -18 -75.5 -29t-94.5 -11q-91 0 -137 37t-46 111q0 88 79 117v2q-26 10 -45.5 36t-19.5 66q0 30 10 56t30.5 44.5t52 29.5t75.5 11
q45 0 84 -10.5t73 -26.5l-15 -45q-35 14 -66.5 23t-74.5 9q-32 0 -53.5 -6.5t-34.5 -19t-18.5 -30t-5.5 -38.5q0 -37 25 -57t69 -20h110v-48z" />
    <glyph glyph-name="etatonos" unicode="&#x3ae;" horiz-adv-x="541" 
d="M131 482l6 -42h2q23 19 64 38t93 19q76 0 119 -43.5t43 -142.5v-509h-55v500q0 75 -27 110t-87 35q-42 0 -82 -17t-65 -39v-391h-55v482h44zM341 699l-40 -132h-42v6l24 132h58v-6z" />
    <glyph glyph-name="iotatonos" unicode="&#x3af;" horiz-adv-x="247" 
d="M144 482v-403q0 -44 38 -44q9 0 19.5 2t18.5 5v-49q-24 -8 -51 -8q-40 0 -60 24t-20 69v404h55zM179 699l-40 -132h-42v6l24 132h58v-6z" />
    <glyph glyph-name="upsilondieresistonos" unicode="&#x3b0;" horiz-adv-x="524" 
d="M311 699l-40 -132h-42v6l24 132h58v-6zM137 220q0 -185 131 -185q68 0 101 47.5t33 153.5q0 31 -5 65t-12.5 66.5t-18 62t-20.5 52.5h62q17 -42 34 -106.5t17 -139.5q0 -128 -50 -189.5t-141 -61.5q-44 0 -78.5 13t-58.5 40.5t-36.5 71t-12.5 104.5v268h55v-262z" />
    <glyph glyph-name="alpha" unicode="&#x3b1;" horiz-adv-x="570" 
d="M446 241l67 -241h-54l-40 148h-1q-26 -75 -71 -119t-107 -44q-38 0 -70 13.5t-56 43.5t-37.5 79t-13.5 120t13.5 120t37.5 79t56 43.5t70 13.5q62 0 107 -44t71 -119h1l40 148h54zM120 241q0 -57 9 -96.5t25 -63.5t38 -35t48 -11q31 0 57 18.5t45.5 48t33 66t19.5 73.5
q-6 37 -19.5 73.5t-33 66t-45.5 48t-57 18.5q-26 0 -48 -11t-38 -35t-25 -63.5t-9 -96.5z" />
    <glyph glyph-name="beta" unicode="&#x3b2;" horiz-adv-x="540" 
d="M142 -198h-55v687q0 114 45 165t127 51q42 0 74.5 -15t54 -40t32.5 -58t11 -69q0 -30 -7.5 -54t-19.5 -42t-27.5 -30t-30.5 -19v-2q25 -6 49.5 -19t43.5 -35.5t30.5 -56t11.5 -80.5q0 -44 -14 -81t-39.5 -63.5t-61 -41t-77.5 -14.5q-51 0 -87 13.5t-58 30.5h-2v-227z
M142 86q25 -21 58 -36t88 -15q30 0 55 11t43 31.5t28 48.5t10 61q0 74 -37 117.5t-116 43.5h-47v48h48q26 0 45.5 10t32 27.5t18.5 40t6 47.5q0 60 -32 97t-83 37q-63 0 -90 -40.5t-27 -126.5v-402z" />
    <glyph glyph-name="gamma" unicode="&#x3b3;" horiz-adv-x="461" 
d="M195 -198v205l-160 469v6h58l96 -298l35 -131h2q9 22 19 45q8 20 17.5 42.5t19.5 44.5q32 74 52 151t29 146h56v-6q-15 -106 -56 -223.5t-113 -246.5v-204h-55z" />
    <glyph glyph-name="delta" unicode="&#x3b4;" horiz-adv-x="543" 
d="M391 636q-23 8 -49 13.5t-50 5.5q-41 0 -59.5 -19t-18.5 -48q0 -23 20 -46t50 -48t65.5 -53.5t65.5 -62.5t50 -75t20 -91q0 -41 -12 -81.5t-37.5 -72.5t-66 -52.5t-97.5 -20.5q-58 0 -98.5 19t-66 50t-37 71.5t-11.5 82.5q0 90 47 157.5t124 102.5q-30 27 -51.5 55.5
t-21.5 64.5q0 55 34.5 86t100.5 31q26 0 52 -4.5t47 -12.5v-52zM428 211q0 39 -15 71t-38 59.5t-51 50.5t-55 44q-32 -16 -59.5 -38t-48.5 -50.5t-33 -63.5t-12 -76q0 -29 7.5 -60t25.5 -56t48 -41t75 -16q43 0 73 17t48.5 43t26.5 57t8 59z" />
    <glyph glyph-name="epsilon" unicode="&#x3b5;" horiz-adv-x="459" 
d="M336 226h-114q-46 0 -75 -21t-29 -66q0 -59 32.5 -81.5t93.5 -22.5q42 0 79 8t75 27l16 -45q-35 -18 -75.5 -29t-94.5 -11q-91 0 -137 37t-46 111q0 88 79 117v2q-26 10 -45.5 36t-19.5 66q0 30 10 56t30.5 44.5t52 29.5t75.5 11q45 0 84 -10.5t73 -26.5l-15 -45
q-35 14 -66.5 23t-74.5 9q-32 0 -53.5 -6.5t-34.5 -19t-18.5 -30t-5.5 -38.5q0 -37 25 -57t69 -20h110v-48z" />
    <glyph glyph-name="zeta" unicode="&#x3b6;" horiz-adv-x="419" 
d="M396 661q-78 -98 -132.5 -170t-88 -125.5t-49 -92.5t-15.5 -72q0 -41 19 -66t47 -41t61 -27.5t61 -26.5t47 -37t19 -59q0 -22 -6.5 -39t-17 -30.5t-24 -24t-26.5 -18.5l-35 35q21 11 36.5 29.5t15.5 42.5q0 26 -19 41t-47 27.5t-61 24.5t-61 32.5t-47 51.5t-19 81
q0 39 18 84.5t52.5 100t85 121t114.5 147.5v2h-254v48h326v-39z" />
    <glyph glyph-name="eta" unicode="&#x3b7;" horiz-adv-x="541" 
d="M131 482l6 -42h2q23 19 64 38t93 19q76 0 119 -43.5t43 -142.5v-509h-55v500q0 75 -27 110t-87 35q-42 0 -82 -17t-65 -39v-391h-55v482h44z" />
    <glyph glyph-name="theta" unicode="&#x3b8;" horiz-adv-x="576" 
d="M450 369q-2 65 -11 117.5t-27.5 90t-48.5 58t-75 20.5t-75 -20.5t-49 -58t-27.5 -90t-10.5 -117.5h324zM126 321q2 -65 10.5 -117.5t27.5 -90t49 -58t75 -20.5t75 20.5t49 58t27.5 90t10.5 117.5h-324zM69 345q0 82 12.5 148.5t39 113.5t68 72.5t99.5 25.5t99.5 -25.5
t68 -72.5t39 -113.5t12.5 -148.5t-12.5 -148.5t-39 -113.5t-68 -72.5t-99.5 -25.5t-99.5 25.5t-68 72.5t-39 113.5t-12.5 148.5z" />
    <glyph glyph-name="iota" unicode="&#x3b9;" horiz-adv-x="247" 
d="M144 482v-403q0 -44 38 -44q9 0 19.5 2t18.5 5v-49q-24 -8 -51 -8q-40 0 -60 24t-20 69v404h55z" />
    <glyph glyph-name="kappa" unicode="&#x3ba;" horiz-adv-x="456" 
d="M142 224v-224h-55v482h55v-230h2l207 230h67v-5l-218 -238l226 -233v-6h-71l-211 224h-2z" />
    <glyph glyph-name="lambda" unicode="&#x3bb;" horiz-adv-x="473" 
d="M438 0h-58l-94 279l-44 146h-3l-47 -146l-102 -279h-58v7l183 473l-32 90q-12 35 -27.5 60t-45.5 25q-14 0 -27.5 -2.5t-24.5 -5.5v49q11 3 26 6t30 3q50 0 76.5 -33.5t47.5 -94.5l200 -570v-7z" />
    <glyph glyph-name="uni03BC" unicode="&#x3bc;" horiz-adv-x="537" 
d="M407 0l-7 42h-2q-23 -19 -62.5 -38t-91.5 -19q-38 0 -62.5 10.5t-44.5 33.5l5 -78v-149h-55v680h55v-302q0 -75 24.5 -110t84.5 -35q42 0 81 17t63 39v391h55v-482h-43z" />
    <glyph glyph-name="nu" unicode="&#x3bd;" horiz-adv-x="461" 
d="M419 482v-6q-15 -107 -56 -227t-113 -249h-54l-161 476v6h58l91 -286l41 -143h2q9 20 20 43q9 20 19.5 45.5t21.5 54.5q27 73 46.5 147t28.5 139h56z" />
    <glyph glyph-name="xi" unicode="&#x3be;" horiz-adv-x="440" 
d="M151 652h-76v48h329v-48h-131q-38 0 -64.5 -12t-43.5 -32.5t-25 -46.5t-8 -54q0 -27 7.5 -52t24 -44t42 -30t61.5 -11h85v-48h-84q-42 0 -71 -10.5t-46.5 -29t-25.5 -43.5t-8 -53q0 -43 21.5 -67t53.5 -39t69 -24t69 -21.5t53.5 -33t21.5 -56.5q0 -44 -23 -70.5
t-51 -42.5l-35 35q20 11 36 29.5t16 42.5q0 23 -21.5 35.5t-53.5 22.5t-69 20.5t-69 29.5t-53.5 51t-21.5 85q0 63 28.5 104t80.5 60v2q-45 23 -69.5 61.5t-24.5 95.5q0 53 19.5 88t56.5 56v2z" />
    <glyph glyph-name="omicron" unicode="&#x3bf;" horiz-adv-x="544" 
d="M119 241q0 -39 6.5 -76t23.5 -66t46.5 -46.5t76.5 -17.5t76.5 17.5t46.5 46.5t23.5 66t6.5 76t-6.5 76t-23.5 66t-46.5 46.5t-76.5 17.5t-76.5 -17.5t-46.5 -46.5t-23.5 -66t-6.5 -76zM482 241q0 -51 -10.5 -97t-35 -81.5t-64.5 -56.5t-100 -21t-100.5 21t-64.5 56.5
t-34.5 81.5t-10.5 97t10.5 97t34.5 81.5t64.5 56.5t100.5 21t100 -21t64.5 -56.5t35 -81.5t10.5 -97z" />
    <glyph glyph-name="pi" unicode="&#x3c0;" horiz-adv-x="546" 
d="M500 482v-48h-89v-344q0 -32 10 -43.5t28 -11.5q20 0 39 7v-49q-12 -4 -24.5 -6t-26.5 -2q-81 0 -81 100v349h-180v-434h-55v434h-88v48h467z" />
    <glyph glyph-name="rho" unicode="&#x3c1;" horiz-adv-x="538" 
d="M136 95q24 -27 57 -43.5t75 -16.5q44 0 73 17t46.5 45.5t25 66t7.5 77.5q0 39 -7.5 76.5t-25 66t-45.5 46t-69 17.5q-30 0 -55 -10t-43.5 -33t-28.5 -59.5t-10 -88.5v-161zM81 -198v451q0 64 14 110t39.5 76t61 44t77.5 14q55 0 93.5 -20.5t63 -55t36 -81.5t11.5 -99
q0 -51 -12 -97.5t-36.5 -82t-62 -56t-88.5 -20.5q-25 0 -46.5 5t-39.5 13t-31.5 17.5t-22.5 17.5h-2v-236h-55z" />
    <glyph glyph-name="sigma1" unicode="&#x3c2;" horiz-adv-x="439" 
d="M116 260q0 -52 20 -85.5t50 -56t64.5 -38.5t64.5 -33.5t50 -41t20 -60.5q0 -44 -22.5 -70t-51.5 -43l-34 35q20 11 35.5 29.5t15.5 42.5q0 25 -20 42t-50 33t-64.5 34t-64.5 45t-50 67t-20 100q0 46 12 89t37 76t63.5 52.5t92.5 19.5q38 0 74 -9t67 -27l-18 -43
q-21 12 -54 20.5t-68 8.5q-42 0 -71 -18t-46 -45.5t-24.5 -60.5t-7.5 -63z" />
    <glyph glyph-name="sigma" unicode="&#x3c3;" horiz-adv-x="548" 
d="M119 234q0 -39 6.5 -74.5t23.5 -63.5t46.5 -44.5t76.5 -16.5t76.5 16.5t46.5 44.5t23.5 63.5t6.5 74.5t-6.5 74.5t-23.5 63t-46.5 44t-76.5 16.5t-76.5 -16.5t-46.5 -44t-23.5 -63t-6.5 -74.5zM491 482v-48h-100v-2q46 -25 68.5 -75.5t22.5 -122.5q0 -51 -10.5 -96
t-35 -79t-64.5 -54t-100 -20t-100.5 20t-64.5 54t-34.5 79t-10.5 96t10.5 96t34.5 78.5t64.5 53.5t100.5 20h219z" />
    <glyph glyph-name="tau" unicode="&#x3c4;" horiz-adv-x="417" 
d="M380 482v-48h-161v-331q0 -35 12 -51.5t41 -16.5q16 0 34 3t34 9v-49q-12 -5 -33.5 -9t-42.5 -4q-51 0 -75.5 28.5t-24.5 82.5v338h-138v48h354z" />
    <glyph glyph-name="upsilon" unicode="&#x3c5;" horiz-adv-x="524" 
d="M137 220q0 -185 131 -185q68 0 101 47.5t33 153.5q0 31 -5 65t-12.5 66.5t-18 62t-20.5 52.5h62q17 -42 34 -106.5t17 -139.5q0 -128 -50 -189.5t-141 -61.5q-44 0 -78.5 13t-58.5 40.5t-36.5 71t-12.5 104.5v268h55v-262z" />
    <glyph glyph-name="phi" unicode="&#x3c6;" horiz-adv-x="624" 
d="M561 256q0 -133 -54.5 -198t-168.5 -72v-184h-55v184q-58 3 -100 22.5t-69 53t-39.5 80.5t-12.5 105q0 35 6.5 68.5t16 64t21 56.5t21.5 46h64q-31 -49 -51.5 -109.5t-20.5 -125.5q0 -95 38.5 -149t125.5 -61v278q0 182 125 182q79 0 116 -64t37 -177zM338 37
q85 7 125.5 57.5t40.5 161.5q0 87 -21.5 139t-74.5 52q-37 0 -53.5 -31.5t-16.5 -109.5v-269z" />
    <glyph glyph-name="chi" unicode="&#x3c7;" horiz-adv-x="448" 
d="M77 482l146 -292h2l146 292h57v-7l-172 -332l172 -334v-7h-56l-147 292h-2l-147 -292h-56v7l172 334l-172 332v7h57z" />
    <glyph glyph-name="psi" unicode="&#x3c8;" horiz-adv-x="640" 
d="M350 38q39 0 70.5 10t53.5 33.5t34 61.5t12 94q0 31 -5 64.5t-13 66t-18.5 62t-22.5 52.5h63q8 -21 17.5 -49t17.5 -60t13 -66.5t5 -69.5q0 -65 -16.5 -112t-46.5 -77.5t-72 -45t-92 -14.5v-186h-55v186q-48 0 -87.5 12.5t-67.5 39.5t-43 70t-15 104v268h55v-262
q0 -98 40.5 -140t117.5 -42v662h55v-662z" />
    <glyph glyph-name="omega" unicode="&#x3c9;" horiz-adv-x="777" 
d="M388 94q-44 -109 -146 -109q-83 0 -131 62t-48 193q0 37 6.5 72.5t18 66.5t26 57.5t30.5 45.5h59v-6q-38 -50 -61 -107t-23 -129q0 -107 32 -156t91 -49q58 0 88.5 44.5t30.5 132.5v141h55v-141q0 -88 30.5 -132.5t88.5 -44.5q59 0 91 49t32 156q0 72 -23 129t-61 107v6
h59q16 -19 30.5 -45.5t26 -57.5t18 -66.5t6.5 -72.5q0 -131 -48 -193t-131 -62q-102 0 -146 109h-1v0z" />
    <glyph glyph-name="iotadieresis" unicode="&#x3ca;" horiz-adv-x="247" 
d="M144 482v-403q0 -44 38 -44q9 0 19.5 2t18.5 5v-49q-24 -8 -51 -8q-40 0 -60 24t-20 69v404h55zM-9 628q0 21 12 32.5t30 11.5t30 -11.5t12 -32.5t-12 -32.5t-30 -11.5t-30 11.5t-12 32.5zM161 628q0 21 12 32.5t30 11.5t30 -11.5t12 -32.5t-12 -32.5t-30 -11.5t-30 11.5
t-12 32.5z" />
    <glyph glyph-name="upsilondieresis" unicode="&#x3cb;" horiz-adv-x="524" 
d="M137 220q0 -185 131 -185q68 0 101 47.5t33 153.5q0 31 -5 65t-12.5 66.5t-18 62t-20.5 52.5h62q17 -42 34 -106.5t17 -139.5q0 -128 -50 -189.5t-141 -61.5q-44 0 -78.5 13t-58.5 40.5t-36.5 71t-12.5 104.5v268h55v-262zM128 628q0 21 12 32.5t30 11.5t30 -11.5
t12 -32.5t-12 -32.5t-30 -11.5t-30 11.5t-12 32.5zM298 628q0 21 12 32.5t30 11.5t30 -11.5t12 -32.5t-12 -32.5t-30 -11.5t-30 11.5t-12 32.5z" />
    <glyph glyph-name="omicrontonos" unicode="&#x3cc;" horiz-adv-x="544" 
d="M119 241q0 -39 6.5 -76t23.5 -66t46.5 -46.5t76.5 -17.5t76.5 17.5t46.5 46.5t23.5 66t6.5 76t-6.5 76t-23.5 66t-46.5 46.5t-76.5 17.5t-76.5 -17.5t-46.5 -46.5t-23.5 -66t-6.5 -76zM482 241q0 -51 -10.5 -97t-35 -81.5t-64.5 -56.5t-100 -21t-100.5 21t-64.5 56.5
t-34.5 81.5t-10.5 97t10.5 97t34.5 81.5t64.5 56.5t100.5 21t100 -21t64.5 -56.5t35 -81.5t10.5 -97zM331 699l-40 -132h-42v6l24 132h58v-6z" />
    <glyph glyph-name="upsilontonos" unicode="&#x3cd;" horiz-adv-x="524" 
d="M311 699l-40 -132h-42v6l24 132h58v-6zM137 220q0 -185 131 -185q68 0 101 47.5t33 153.5q0 31 -5 65t-12.5 66.5t-18 62t-20.5 52.5h62q17 -42 34 -106.5t17 -139.5q0 -128 -50 -189.5t-141 -61.5q-44 0 -78.5 13t-58.5 40.5t-36.5 71t-12.5 104.5v268h55v-262z" />
    <glyph glyph-name="omegatonos" unicode="&#x3ce;" horiz-adv-x="777" 
d="M388 94q-44 -109 -146 -109q-83 0 -131 62t-48 193q0 37 6.5 72.5t18 66.5t26 57.5t30.5 45.5h59v-6q-38 -50 -61 -107t-23 -129q0 -107 32 -156t91 -49q58 0 88.5 44.5t30.5 132.5v141h55v-141q0 -88 30.5 -132.5t88.5 -44.5q59 0 91 49t32 156q0 72 -23 129t-61 107v6
h59q16 -19 30.5 -45.5t26 -57.5t18 -66.5t6.5 -72.5q0 -131 -48 -193t-131 -62q-102 0 -146 109h-1v0zM452 699l-40 -132h-42v6l24 132h58v-6z" />
    <glyph glyph-name="uni0400" unicode="&#x400;" horiz-adv-x="554" 
d="M484 680v-53h-326v-252h297v-53h-297v-269h329v-53h-385v680h382zM211 863h63l46 -112v-6h-50l-59 112v6z" />
    <glyph glyph-name="uni0401" unicode="&#x401;" horiz-adv-x="554" 
d="M484 680v-53h-326v-252h297v-53h-297v-269h329v-53h-385v680h382zM165 804q0 21 12 32.5t30 11.5t30 -11.5t12 -32.5t-12 -32.5t-30 -11.5t-30 11.5t-12 32.5zM335 804q0 21 12 32.5t30 11.5t30 -11.5t12 -32.5t-12 -32.5t-30 -11.5t-30 11.5t-12 32.5z" />
    <glyph glyph-name="uni0402" unicode="&#x402;" horiz-adv-x="648" 
d="M446 -47q26 32 44 61t29 57t16 54.5t5 54.5q0 43 -11 74t-30.5 50.5t-45 29t-55.5 9.5q-40 0 -80.5 -10t-82.5 -25v-308h-56v627h-143v53h409v-53h-210v-265q37 14 81.5 25t89.5 11q42 0 77.5 -13.5t61 -40.5t40 -68t14.5 -96q0 -69 -28 -130.5t-86 -130.5z" />
    <glyph glyph-name="uni0403" unicode="&#x403;" horiz-adv-x="523" 
d="M490 680v-53h-332v-627h-56v680h388zM383 857l-59 -112h-50v6l46 112h63v-6z" />
    <glyph glyph-name="uni0404" unicode="&#x404;" horiz-adv-x="559" 
d="M69 340q0 82 18 148t53.5 112t87.5 70.5t120 24.5q37 0 77.5 -10t79.5 -33l-20 -47q-64 35 -137 35q-105 0 -159.5 -72.5t-59.5 -198.5h295v-53h-295q2 -64 17 -115t42 -87t67 -55t93 -19q73 0 137 35l20 -47q-39 -23 -79.5 -33t-77.5 -10q-68 0 -120 24.5t-87.5 70.5
t-53.5 111.5t-18 148.5z" />
    <glyph glyph-name="uni0405" unicode="&#x405;" horiz-adv-x="511" 
d="M84 106q34 -32 72.5 -49t95.5 -17q61 0 100.5 35t39.5 94q0 53 -26.5 84t-86.5 57l-73 32q-31 13 -56.5 29t-43.5 36t-28 46t-10 59q0 38 13.5 71.5t39 58t62 39t82.5 14.5q60 0 100.5 -17t72.5 -40l-27 -45q-32 22 -68 34.5t-78 12.5q-32 0 -57.5 -9.5t-43.5 -26.5
t-27.5 -40t-9.5 -50q0 -21 4.5 -37.5t16.5 -30.5t32 -27t52 -26l65 -27q35 -14 63.5 -32t48.5 -41t31 -53t11 -69t-15 -72.5t-41 -59t-63 -40t-80 -14.5q-64 0 -111.5 20t-86.5 58z" />
    <glyph glyph-name="uni0406" unicode="&#x406;" horiz-adv-x="260" 
d="M158 0h-56v680h56v-680z" />
    <glyph glyph-name="uni0407" unicode="&#x407;" horiz-adv-x="260" 
d="M158 0h-56v680h56v-680zM-8 804q0 21 12 32.5t30 11.5t30 -11.5t12 -32.5t-12 -32.5t-30 -11.5t-30 11.5t-12 32.5zM162 804q0 21 12 32.5t30 11.5t30 -11.5t12 -32.5t-12 -32.5t-30 -11.5t-30 11.5t-12 32.5z" />
    <glyph glyph-name="uni0408" unicode="&#x408;" horiz-adv-x="447" 
d="M57 95q18 -19 47 -37t73 -18q54 0 85 32t31 109v499h56v-504q0 -94 -47 -142.5t-125 -48.5q-27 0 -50 6.5t-41.5 17t-33.5 22t-25 22.5z" />
    <glyph glyph-name="uni0409" unicode="&#x409;" horiz-adv-x="885" 
d="M479 680v-289h151q98 0 152 -47.5t54 -147.5t-54 -148t-152 -48h-207v627h-234l-12 -296q-4 -118 -15 -186t-30.5 -102.5t-48 -43.5t-67.5 -9v53q27 0 45.5 7t30.5 36t19 88t12 164l13 342h343zM479 53h148q32 0 59.5 6.5t47.5 22.5t31.5 44t11.5 70t-11.5 69t-31.5 43.5
t-47.5 23t-59.5 6.5h-148v-285z" />
    <glyph glyph-name="uni040A" unicode="&#x40a;" horiz-adv-x="922" 
d="M516 680v-289h152q97 0 151 -47.5t54 -147.5t-54 -148t-151 -48h-208v338h-302v-338h-56v680h56v-289h302v289h56zM516 53h149q32 0 59 6.5t47 22.5t31.5 44t11.5 70t-11.5 69t-31.5 43.5t-47 23t-59 6.5h-149v-285z" />
    <glyph glyph-name="uni040B" unicode="&#x40b;" horiz-adv-x="676" 
d="M553 0v253q0 82 -32 121.5t-110 39.5q-45 0 -92 -10.5t-83 -27.5v-376h-56v627h-144v53h409v-53h-209v-198q34 14 79.5 26t100.5 12q103 0 148 -54.5t45 -147.5v-265h-56z" />
    <glyph glyph-name="uni040C" unicode="&#x40c;" horiz-adv-x="541" 
d="M158 320v-320h-56v680h56v-334h2l277 334h67v-6l-284 -337l296 -331v-6h-73l-283 320h-2zM361 857l-59 -112h-50v6l46 112h63v-6z" />
    <glyph glyph-name="uni040D" unicode="&#x40d;" horiz-adv-x="667" 
d="M153 99h2l356 581h54v-680h-56v463l7 118h-2l-358 -581h-54v680h56v-463zM250 863h63l46 -112v-6h-50l-59 112v6z" />
    <glyph glyph-name="uni040E" unicode="&#x40e;" horiz-adv-x="504" 
d="M483 674l-212 -535q-13 -32 -28 -57.5t-35 -43.5t-46 -28t-59 -10h-32v53h29q38 0 68 19.5t50 79.5l15 44l-205 478v6h56l119 -280l58 -153h3l53 153l109 280h57v-6zM263 813q39 0 60.5 14t36.5 33l26 -25q-18 -31 -46.5 -51t-76.5 -20q-46 0 -75.5 20t-46.5 51l26 25
q15 -19 36.5 -33t59.5 -14z" />
    <glyph glyph-name="uni040F" unicode="&#x40f;" horiz-adv-x="657" 
d="M305 -141l-7 141h-196v680h56v-627h341v627h56v-680h-196l-7 -141h-47z" />
    <glyph glyph-name="uni0410" unicode="&#x410;" horiz-adv-x="577" 
d="M553 0h-58l-63 180h-287l-63 -180h-58l236 680h57zM287 613l-49 -161l-76 -220h253l-76 220l-49 161h-3z" />
    <glyph glyph-name="uni0411" unicode="&#x411;" horiz-adv-x="575" 
d="M485 680v-53h-327v-236h152q97 0 151 -47.5t54 -147.5t-54 -148t-151 -48h-208v680h383zM158 53h149q32 0 59 6.5t47 22.5t31.5 44t11.5 70t-11.5 69t-31.5 43.5t-47 23t-59 6.5h-149v-285z" />
    <glyph glyph-name="uni0412" unicode="&#x412;" horiz-adv-x="579" 
d="M319 53q62 0 101 32.5t39 100.5t-39 100t-101 32h-161v-265h161zM285 680q100 0 154.5 -43.5t54.5 -134.5q0 -60 -26.5 -98t-61.5 -52v-2q52 -16 82 -57.5t30 -107.5q0 -44 -14.5 -78.5t-41 -58t-62.5 -36t-78 -12.5h-220v680h183zM281 371q72 0 113 28t41 100t-41 100
t-113 28h-123v-256h123z" />
    <glyph glyph-name="uni0413" unicode="&#x413;" horiz-adv-x="523" 
d="M490 680v-53h-332v-627h-56v680h388z" />
    <glyph glyph-name="uni0414" unicode="&#x414;" horiz-adv-x="624" 
d="M26 -141l-10 194h38q20 23 36.5 47.5t29 59t21.5 83.5t14 122l20 315h341v-627h44l-8 -194h-48l-6 141h-419l-7 -141h-46zM460 53v574h-233l-17 -262q-5 -75 -13 -126t-19.5 -86t-26.5 -58t-33 -42h342z" />
    <glyph glyph-name="uni0415" unicode="&#x415;" horiz-adv-x="554" 
d="M484 680v-53h-326v-252h297v-53h-297v-269h329v-53h-385v680h382z" />
    <glyph glyph-name="uni0416" unicode="&#x416;" horiz-adv-x="822" 
d="M439 320v-320h-56v320h-2l-283 -320h-73v6l296 331l-284 337v6h67l277 -334h2v334h56v-334h2l277 334h67v-6l-284 -337l296 -331v-6h-73l-283 320h-2z" />
    <glyph glyph-name="uni0417" unicode="&#x417;" horiz-adv-x="512" 
d="M135 377h110q62 0 95.5 36t33.5 93q0 28 -8.5 52.5t-25 42.5t-42 28.5t-58.5 10.5q-44 0 -83.5 -12t-72.5 -30l-19 48q33 20 80.5 34.5t94.5 14.5q49 0 85 -14.5t60 -39.5t36 -59.5t12 -74.5q0 -57 -26 -96.5t-68 -57.5v-2q47 -15 77.5 -58t30.5 -112q0 -45 -16.5 -81.5
t-45 -62t-67 -39t-83.5 -13.5q-60 0 -108.5 16.5t-81.5 39.5l24 47q34 -22 74.5 -35t91.5 -13q32 0 60 9t48.5 27t32.5 44.5t12 61.5q0 26 -6.5 51.5t-23 45.5t-45.5 32.5t-73 12.5h-105v53z" />
    <glyph glyph-name="uni0418" unicode="&#x418;" horiz-adv-x="667" 
d="M153 99h2l356 581h54v-680h-56v463l7 118h-2l-358 -581h-54v680h56v-463z" />
    <glyph glyph-name="uni0419" unicode="&#x419;" horiz-adv-x="667" 
d="M153 99h2l356 581h54v-680h-56v463l7 118h-2l-358 -581h-54v680h56v-463zM339 813q39 0 60.5 14t36.5 33l26 -25q-18 -31 -46.5 -51t-76.5 -20q-46 0 -75.5 20t-46.5 51l26 25q15 -19 36.5 -33t59.5 -14z" />
    <glyph glyph-name="uni041A" unicode="&#x41a;" horiz-adv-x="541" 
d="M158 320v-320h-56v680h56v-334h2l277 334h67v-6l-284 -337l296 -331v-6h-73l-283 320h-2z" />
    <glyph glyph-name="uni041B" unicode="&#x41b;" horiz-adv-x="627" 
d="M525 0h-56v627h-279l-12 -296q-5 -118 -16 -186t-30.5 -102.5t-48 -43.5t-67.5 -9v53q27 0 46 7t31 36t19 88t11 164l13 342h389v-680z" />
    <glyph glyph-name="uni041C" unicode="&#x41c;" horiz-adv-x="796" 
d="M457 355l183 325h54v-680h-56v474l7 106h-2l-221 -409h-48l-221 409h-2l7 -106v-474h-56v680h54l183 -325l58 -123h2z" />
    <glyph glyph-name="uni041D" unicode="&#x41d;" horiz-adv-x="668" 
d="M510 320h-352v-320h-56v680h56v-307h352v307h56v-680h-56v320z" />
    <glyph glyph-name="uni041E" unicode="&#x41e;" horiz-adv-x="666" 
d="M129 340q0 -64 9.5 -118.5t33 -95t62.5 -63.5t99 -23t99 23t62.5 63.5t33 95t9.5 118.5t-9.5 118.5t-33 95t-62.5 63.5t-99 23t-99 -23t-62.5 -63.5t-33 -95t-9.5 -118.5zM70 340q0 75 14 140t45 112.5t81 75t123 27.5t123 -27.5t81 -75t45 -112.5t14 -140t-14 -140
t-45 -112.5t-81 -75t-123 -27.5t-123 27.5t-81 75t-45 112.5t-14 140z" />
    <glyph glyph-name="uni041F" unicode="&#x41f;" horiz-adv-x="668" 
d="M510 627h-352v-627h-56v680h464v-680h-56v627z" />
    <glyph glyph-name="uni0420" unicode="&#x420;" horiz-adv-x="555" 
d="M102 0v680h198q99 0 152 -51t53 -150t-53.5 -149.5t-151.5 -50.5h-142v-279h-56zM158 332h138q82 0 116 40.5t34 106.5q0 33 -8 60.5t-26 47t-46.5 30t-69.5 10.5h-138v-295z" />
    <glyph glyph-name="uni0421" unicode="&#x421;" horiz-adv-x="561" 
d="M69 340q0 82 18 148t53.5 112t87.5 70.5t120 24.5q37 0 77.5 -10t79.5 -33l-20 -47q-64 35 -137 35q-56 0 -97 -20.5t-68.5 -59.5t-41 -94.5t-13.5 -125.5t13.5 -125.5t41 -94.5t68.5 -59.5t97 -20.5q73 0 137 35l20 -47q-39 -23 -79.5 -33t-77.5 -10q-68 0 -120 24.5
t-87.5 70.5t-53.5 111.5t-18 148.5z" />
    <glyph glyph-name="uni0422" unicode="&#x422;" horiz-adv-x="502" 
d="M468 680v-53h-189v-627h-56v627h-189v53h434z" />
    <glyph glyph-name="uni0423" unicode="&#x423;" horiz-adv-x="504" 
d="M483 674l-212 -535q-13 -32 -28 -57.5t-35 -43.5t-46 -28t-59 -10h-32v53h29q38 0 68 19.5t50 79.5l15 44l-205 478v6h56l119 -280l58 -153h3l53 153l109 280h57v-6z" />
    <glyph glyph-name="uni0424" unicode="&#x424;" horiz-adv-x="702" 
d="M323 560q-60 -4 -100.5 -21t-65 -45.5t-34.5 -67t-10 -85.5t10 -85.5t34.5 -67t65 -45.5t100.5 -21v438zM323 0v67q-74 3 -125 26t-83 60t-46.5 85.5t-14.5 102.5q0 55 14.5 103t46.5 85t83 59.5t125 25.5v66h55v-66q73 -3 124.5 -25.5t83.5 -59.5t46.5 -85t14.5 -103
q0 -54 -14.5 -102.5t-46.5 -85.5t-83.5 -60t-124.5 -26v-67h-55zM378 122q60 4 100.5 21t65 45.5t34.5 67t10 85.5t-10 85.5t-34.5 67t-65 45.5t-100.5 21v-438z" />
    <glyph glyph-name="uni0425" unicode="&#x425;" horiz-adv-x="544" 
d="M271 296l-173 -296h-61v6l199 335l-199 333v6h62l172 -296h2l172 296h62v-6l-199 -333l199 -335v-6h-61l-173 296h-2z" />
    <glyph glyph-name="uni0426" unicode="&#x426;" horiz-adv-x="663" 
d="M544 -141l-8 141h-434v680h56v-627h341v627h56v-627h44l-9 -194h-46z" />
    <glyph glyph-name="uni0427" unicode="&#x427;" horiz-adv-x="601" 
d="M126 680v-291q0 -77 32 -114.5t110 -37.5q45 0 92 10.5t83 27.5v405h56v-680h-56v221q-33 -14 -79 -26t-101 -12q-103 0 -148 54.5t-45 147.5v295h56z" />
    <glyph glyph-name="uni0428" unicode="&#x428;" horiz-adv-x="948" 
d="M102 0v680h56v-627h288v627h56v-627h288v627h56v-680h-744z" />
    <glyph glyph-name="uni0429" unicode="&#x429;" horiz-adv-x="954" 
d="M835 -141l-7 141h-726v680h56v-627h288v627h56v-627h288v627h56v-627h44l-9 -194h-46z" />
    <glyph glyph-name="uni042A" unicode="&#x42a;" horiz-adv-x="630" 
d="M35 680h189v-289h152q98 0 151.5 -47.5t53.5 -147.5t-53.5 -148t-151.5 -48h-208v627h-133v53zM224 53h150q31 0 58.5 6.5t47 22.5t31 44t11.5 70t-11.5 69t-31 43.5t-47 23t-58.5 6.5h-150v-285z" />
    <glyph glyph-name="uni042B" unicode="&#x42b;" horiz-adv-x="757" 
d="M655 0h-56v680h56v-680zM158 680v-289h152q97 0 151 -47.5t54 -147.5t-54 -148t-151 -48h-208v680h56zM158 53h149q32 0 59 6.5t47 22.5t31.5 44t11.5 70t-11.5 69t-31.5 43.5t-47 23t-59 6.5h-149v-285z" />
    <glyph glyph-name="uni042C" unicode="&#x42c;" horiz-adv-x="564" 
d="M158 680v-289h152q97 0 151 -47.5t54 -147.5t-54 -148t-151 -48h-208v680h56zM158 53h149q32 0 59 6.5t47 22.5t31.5 44t11.5 70t-11.5 69t-31.5 43.5t-47 23t-59 6.5h-149v-285z" />
    <glyph glyph-name="uni042D" unicode="&#x42d;" horiz-adv-x="563" 
d="M494 340q0 -83 -18 -148.5t-53.5 -111.5t-87.5 -70.5t-120 -24.5q-37 0 -77.5 10t-79.5 33l20 47q64 -35 137 -35q53 0 93 19t67 55t42 87t17 115h-295v53h295q-5 126 -59.5 198.5t-159.5 72.5q-73 0 -137 -35l-20 47q39 23 79.5 33t77.5 10q68 0 120 -24.5t87.5 -70.5
t53.5 -112t18 -148z" />
    <glyph glyph-name="uni042E" unicode="&#x42e;" horiz-adv-x="890" 
d="M557 -15q-71 0 -120 25.5t-80.5 70.5t-46.5 106.5t-16 132.5h-136v-320h-56v680h56v-306h136q3 69 18.5 127.5t47 101.5t80 67.5t117.5 24.5q73 0 123 -27.5t81 -75t45 -112.5t14 -140t-14 -140t-45 -112.5t-81 -75t-123 -27.5zM353 340q0 -64 9.5 -118.5t33 -95
t62.5 -63.5t99 -23t99 23t62.5 63.5t33 95t9.5 118.5t-9.5 118.5t-33 95t-62.5 63.5t-99 23t-99 -23t-62.5 -63.5t-33 -95t-9.5 -118.5z" />
    <glyph glyph-name="uni042F" unicode="&#x42f;" horiz-adv-x="591" 
d="M433 0v307h-133l-203 -307h-64v7l205 304q-78 9 -122.5 55t-44.5 127q0 48 15 83t42 58.5t64 34.5t82 11h215v-680h-56zM433 627h-156q-72 0 -109.5 -32.5t-37.5 -100.5q0 -69 37.5 -101.5t109.5 -32.5h156v267z" />
    <glyph glyph-name="uni0430" unicode="&#x430;" horiz-adv-x="480" 
d="M249 233q-68 0 -103.5 -23.5t-35.5 -78.5q0 -94 95 -94q37 0 72 10.5t65 36.5v149h-93zM354 0l-6 39h-2q-29 -23 -67 -37.5t-83 -14.5q-65 0 -104 37.5t-39 104.5q0 42 15 70.5t40.5 46.5t60 26t74.5 8h99v38q0 68 -31 98.5t-88 30.5q-36 0 -67.5 -12.5t-54.5 -32.5
l-25 41q24 21 63 37.5t84 16.5q85 0 129.5 -46t44.5 -134v-317h-43z" />
    <glyph glyph-name="uni0431" unicode="&#x431;" horiz-adv-x="567" 
d="M476 660q-20 -5 -46.5 -8t-56 -8.5t-61 -14t-60.5 -24.5q-36 -19 -59 -43.5t-37 -56.5t-20.5 -72t-7.5 -89l2 -1q22 44 69 70.5t101 26.5q47 0 85 -16t65 -45.5t41.5 -71.5t14.5 -94q0 -50 -15 -92t-42.5 -72t-67.5 -47t-90 -17q-100 0 -158 68t-58 207q0 69 4.5 128.5
t20.5 109t47.5 88t86.5 65.5q25 13 57.5 22t66.5 15.5t65 11.5t53 11v-51zM132 213q0 -39 11 -72t31 -56.5t49.5 -36.5t67.5 -13q74 0 116 49.5t42 128.5t-42 128t-116 49q-75 0 -117 -49t-42 -128z" />
    <glyph glyph-name="uni0432" unicode="&#x432;" horiz-adv-x="478" 
d="M259 48q49 0 75.5 19.5t26.5 67.5t-26.5 67.5t-75.5 19.5h-117v-174h117zM238 482q81 0 119.5 -30t38.5 -99q0 -33 -18 -62.5t-46 -40.5v-1q41 -11 63.5 -39.5t22.5 -73.5q0 -63 -35.5 -99.5t-121.5 -36.5h-174v482h151zM237 270q47 0 74.5 17.5t27.5 64.5t-27.5 64.5
t-74.5 17.5h-95v-164h95z" />
    <glyph glyph-name="uni0433" unicode="&#x433;" horiz-adv-x="415" 
d="M391 482v-48h-249v-434h-55v482h304z" />
    <glyph glyph-name="uni0434" unicode="&#x434;" horiz-adv-x="509" 
d="M32 -120l-9 168h32q15 16 27.5 35.5t21.5 45.5t15 61t9 84l13 208h268v-434h45l-9 -168h-44l-5 120h-316l-6 -120h-42zM354 48v386h-161l-12 -162q-3 -50 -8.5 -86t-14 -61.5t-19 -43.5t-22.5 -33h237z" />
    <glyph glyph-name="uni0435" unicode="&#x435;" horiz-adv-x="512" 
d="M116 231q2 -87 41.5 -141.5t119.5 -54.5q43 0 77.5 14.5t58.5 32.5l23 -42q-26 -20 -67.5 -37.5t-93.5 -17.5q-56 0 -96.5 19.5t-66.5 54t-38.5 82t-12.5 102.5t13 102t39 80.5t65 52.5t91 19q51 0 86.5 -18t57 -46.5t31.5 -65t10 -73.5q0 -16 -1.5 -34t-3.5 -29h-333z
M269 447q-65 0 -104.5 -43t-47.5 -126h279q1 5 1 11.5v10.5q0 29 -7 55.5t-22 47t-39.5 32.5t-59.5 12z" />
    <glyph glyph-name="uni0436" unicode="&#x436;" horiz-adv-x="673" 
d="M364 251h1l204 231h66v-5l-213 -237l221 -235v-5h-68l-210 224h-1v-224h-55v224h-1l-210 -224h-68v5l221 235l-213 237v5h66l204 -231h1v231h55v-231z" />
    <glyph glyph-name="uni0437" unicode="&#x437;" horiz-adv-x="458" 
d="M123 274h110q44 0 69 20t25 57q0 43 -24 68.5t-88 25.5q-43 0 -74.5 -9t-66.5 -23l-15 45q34 16 73 26.5t84 10.5q44 0 75.5 -11t52 -29.5t30.5 -44.5t10 -56q0 -40 -19.5 -66t-45.5 -36v-2q79 -29 79 -117q0 -74 -46 -111t-137 -37q-54 0 -94.5 11t-75.5 29l16 45
q38 -19 75 -27t79 -8q61 0 93.5 22.5t32.5 81.5q0 45 -29 66t-75 21h-114v48z" />
    <glyph glyph-name="uni0438" unicode="&#x438;" horiz-adv-x="535" 
d="M142 482v-316l-7 -88h2l251 404h60v-482h-55v315l7 88h-2l-252 -403h-59v482h55z" />
    <glyph glyph-name="uni0439" unicode="&#x439;" horiz-adv-x="535" 
d="M272 620q39 0 60.5 14t36.5 33l26 -24q-18 -31 -46.5 -51t-76.5 -20q-46 0 -75.5 20t-46.5 51l26 24q15 -19 36.5 -33t59.5 -14zM142 482v-316l-7 -88h2l251 404h60v-482h-55v315l7 88h-2l-252 -403h-59v482h55z" />
    <glyph glyph-name="uni043A" unicode="&#x43a;" horiz-adv-x="450" 
d="M142 224v-224h-55v482h55v-231h2l205 231h66v-5l-215 -237l222 -235v-5h-68l-210 224h-2z" />
    <glyph glyph-name="uni043B" unicode="&#x43b;" horiz-adv-x="515" 
d="M373 434h-203l-7 -171q-4 -87 -12.5 -140.5t-25 -82t-41 -38t-59.5 -9.5v50q20 0 34.5 4.5t25 25.5t17 65t9.5 123l8 221h309v-482h-55v434z" />
    <glyph glyph-name="uni043C" unicode="&#x43c;" horiz-adv-x="630" 
d="M316 177l46 91l129 214h52v-482h-55v294l5 98h-2l-151 -266h-50l-151 266h-2l5 -98v-294h-55v482h52l129 -214l46 -91h2z" />
    <glyph glyph-name="uni043D" unicode="&#x43d;" horiz-adv-x="538" 
d="M396 223h-254v-223h-55v482h55v-211h254v211h55v-482h-55v223z" />
    <glyph glyph-name="uni043E" unicode="&#x43e;" horiz-adv-x="544" 
d="M119 241q0 -39 6.5 -76t23.5 -66t46.5 -46.5t76.5 -17.5t76.5 17.5t46.5 46.5t23.5 66t6.5 76t-6.5 76t-23.5 66t-46.5 46.5t-76.5 17.5t-76.5 -17.5t-46.5 -46.5t-23.5 -66t-6.5 -76zM482 241q0 -51 -10.5 -97t-35 -81.5t-64.5 -56.5t-100 -21t-100.5 21t-64.5 56.5
t-34.5 81.5t-10.5 97t10.5 97t34.5 81.5t64.5 56.5t100.5 21t100 -21t64.5 -56.5t35 -81.5t10.5 -97z" />
    <glyph glyph-name="uni043F" unicode="&#x43f;" horiz-adv-x="538" 
d="M396 434h-254v-434h-55v482h364v-482h-55v434z" />
    <glyph glyph-name="uni0440" unicode="&#x440;" horiz-adv-x="537" 
d="M142 94q28 -26 64 -42.5t78 -16.5q36 0 61.5 16t41.5 44t23.5 65.5t7.5 80.5t-7.5 80.5t-23.5 65.5t-41.5 44t-61.5 16q-42 0 -78 -16.5t-64 -42.5v-294zM141 440q26 20 61.5 38.5t87.5 18.5q46 0 81 -19t58 -53.5t34.5 -81.5t11.5 -102q0 -56 -11.5 -102.5t-34.5 -81
t-58 -53.5t-81 -19q-53 0 -86.5 16.5t-59.5 39.5h-2v-239h-55v680h43l9 -42h2z" />
    <glyph glyph-name="uni0441" unicode="&#x441;" horiz-adv-x="458" 
d="M61 241q0 54 12 100.5t37 81t63.5 54.5t92.5 20q38 0 74 -9t67 -27l-18 -43q-21 12 -54 20.5t-68 8.5q-42 0 -71 -19t-46 -49t-24.5 -66.5t-7.5 -71.5t7.5 -71.5t24.5 -66.5t46 -49t71 -19q35 0 68 8.5t54 20.5l18 -43q-31 -18 -67 -27t-74 -9q-54 0 -92.5 20t-63.5 54.5
t-37 81t-12 100.5z" />
    <glyph glyph-name="uni0442" unicode="&#x442;" horiz-adv-x="398" 
d="M371 482v-48h-145v-434h-55v434h-145v48h345z" />
    <glyph glyph-name="uni0443" unicode="&#x443;" horiz-adv-x="467" 
d="M239 60l23 85l115 337h55v-6l-192 -559q-23 -68 -60 -99t-85 -31q-18 0 -31.5 2.5t-26.5 6.5v49q26 -8 56 -8q29 0 52 19.5t38 63.5l28 82l-179 474v6h55l125 -336l24 -86h3z" />
    <glyph glyph-name="uni0444" unicode="&#x444;" horiz-adv-x="811" 
d="M433 85q28 -28 56.5 -39t70.5 -11q40 0 66 17.5t40.5 46t20 65.5t5.5 77t-5.5 77t-20 65.5t-40.5 46t-66 17.5q-42 0 -70.5 -11t-56.5 -39v-312zM378 30h-2q-23 -20 -51.5 -32.5t-80.5 -12.5q-48 0 -82.5 20.5t-56.5 55t-32.5 81t-10.5 99.5q0 52 10.5 99t32.5 81.5
t56.5 55t82.5 20.5q26 0 46 -3.5t35 -9.5t27.5 -14t23.5 -18h2v248h55v-248h2q11 10 23.5 18t27.5 14t35 9.5t46 3.5q48 0 82.5 -20.5t56.5 -55t32.5 -81.5t10.5 -99q0 -53 -10.5 -99.5t-32.5 -81t-56.5 -55t-82.5 -20.5q-52 0 -80.5 12.5t-51.5 32.5h-2v-228h-55v228z
M378 397q-28 28 -56.5 39t-70.5 11q-41 0 -66.5 -17.5t-40 -46t-20 -65.5t-5.5 -77t5.5 -77t20 -65.5t40 -46t66.5 -17.5q42 0 70.5 11t56.5 39v312z" />
    <glyph glyph-name="uni0445" unicode="&#x445;" horiz-adv-x="447" 
d="M222 202l-124 -202h-59v6l151 235l-151 235v6h59l124 -204h3l124 204h59v-6l-151 -235l151 -235v-6h-59l-124 202h-3z" />
    <glyph glyph-name="uni0446" unicode="&#x446;" horiz-adv-x="548" 
d="M142 482v-434h252v434h55v-434h44l-9 -168h-44l-5 120h-348v482h55z" />
    <glyph glyph-name="uni0447" unicode="&#x447;" horiz-adv-x="485" 
d="M115 482v-193q0 -56 23.5 -82.5t76.5 -26.5q38 0 73.5 8.5t54.5 16.5v277h55v-482h-55v156q-21 -8 -56 -17t-79 -9q-67 0 -107.5 35.5t-40.5 117.5v199h55z" />
    <glyph glyph-name="uni0448" unicode="&#x448;" horiz-adv-x="753" 
d="M87 0v482h55v-434h207v434h55v-434h207v434h55v-482h-579z" />
    <glyph glyph-name="uni0449" unicode="&#x449;" horiz-adv-x="766" 
d="M142 482v-434h207v434h55v-434h207v434h55v-434h45l-9 -168h-44l-5 120h-566v482h55z" />
    <glyph glyph-name="uni044A" unicode="&#x44a;" horiz-adv-x="504" 
d="M30 482h156v-197h117q76 0 116.5 -37t40.5 -106t-41 -105.5t-116 -36.5h-172v434h-101v48zM186 48h111q46 0 76 20.5t30 73.5q0 27 -8 45t-22 29t-33.5 16t-42.5 5h-111v-189z" />
    <glyph glyph-name="uni044B" unicode="&#x44b;" horiz-adv-x="626" 
d="M87 482h55v-197h117q76 0 116.5 -37t40.5 -106t-41 -105.5t-116 -36.5h-172v482zM142 48h111q46 0 76 20.5t30 73.5q0 27 -8 45t-22 29t-33.5 16t-42.5 5h-111v-189zM485 0v482h54v-482h-54z" />
    <glyph glyph-name="uni044C" unicode="&#x44c;" horiz-adv-x="460" 
d="M87 482h55v-197h117q76 0 116.5 -37t40.5 -106t-41 -105.5t-116 -36.5h-172v482zM142 48h111q46 0 76 20.5t30 73.5q0 27 -8 45t-22 29t-33.5 16t-42.5 5h-111v-189z" />
    <glyph glyph-name="uni044D" unicode="&#x44d;" horiz-adv-x="461" 
d="M400 241q0 -54 -12 -100.5t-37 -81t-63.5 -54.5t-92.5 -20q-38 0 -74 9t-67 27l18 43q21 -12 54 -20.5t68 -8.5q39 0 66 16t44.5 42t26.5 58.5t11 65.5h-218v48h218q-2 33 -11 65.5t-26.5 58.5t-44.5 42t-66 16q-35 0 -68 -8.5t-54 -20.5l-18 43q31 18 67 27t74 9
q54 0 92.5 -20t63.5 -54.5t37 -81t12 -100.5z" />
    <glyph glyph-name="uni044E" unicode="&#x44e;" horiz-adv-x="731" 
d="M669 241q0 -51 -10.5 -97t-35 -81.5t-64.5 -56.5t-100 -21q-57 0 -96.5 19t-64 52t-36 76t-13.5 91h-107v-223h-55v482h55v-211h108q3 46 15 87t36.5 72t63 49t94.5 18q60 0 100 -21t64.5 -56.5t35 -81.5t10.5 -97zM306 241q0 -39 6.5 -76t23.5 -66t46.5 -46.5
t76.5 -17.5t76.5 17.5t46.5 46.5t23.5 66t6.5 76t-6.5 76t-23.5 66t-46.5 46.5t-76.5 17.5t-76.5 -17.5t-46.5 -46.5t-23.5 -66t-6.5 -76z" />
    <glyph glyph-name="uni044F" unicode="&#x44f;" horiz-adv-x="500" 
d="M358 0v199h-102l-159 -199h-60v6l155 196q-59 7 -91.5 44t-32.5 94q0 66 40.5 104t109.5 38h195v-482h-55zM358 434h-134q-51 0 -75 -26.5t-24 -67.5t24 -67t75 -26h134v187z" />
    <glyph glyph-name="uni0450" unicode="&#x450;" horiz-adv-x="512" 
d="M116 231q2 -87 41.5 -141.5t119.5 -54.5q43 0 77.5 14.5t58.5 32.5l23 -42q-26 -20 -67.5 -37.5t-93.5 -17.5q-56 0 -96.5 19.5t-66.5 54t-38.5 82t-12.5 102.5t13 102t39 80.5t65 52.5t91 19q51 0 86.5 -18t57 -46.5t31.5 -65t10 -73.5q0 -16 -1.5 -34t-3.5 -29h-333z
M269 447q-65 0 -104.5 -43t-47.5 -126h279q1 5 1 11.5v10.5q0 29 -7 55.5t-22 47t-39.5 32.5t-59.5 12zM193 698h61l49 -111v-6h-49l-61 111v6z" />
    <glyph glyph-name="uni0451" unicode="&#x451;" horiz-adv-x="512" 
d="M116 231q2 -87 41.5 -141.5t119.5 -54.5q43 0 77.5 14.5t58.5 32.5l23 -42q-26 -20 -67.5 -37.5t-93.5 -17.5q-56 0 -96.5 19.5t-66.5 54t-38.5 82t-12.5 102.5t13 102t39 80.5t65 52.5t91 19q51 0 86.5 -18t57 -46.5t31.5 -65t10 -73.5q0 -16 -1.5 -34t-3.5 -29h-333z
M269 447q-65 0 -104.5 -43t-47.5 -126h279q1 5 1 11.5v10.5q0 29 -7 55.5t-22 47t-39.5 32.5t-59.5 12zM146 628q0 21 12 32.5t30 11.5t30 -11.5t12 -32.5t-12 -32.5t-30 -11.5t-30 11.5t-12 32.5zM316 628q0 21 12 32.5t30 11.5t30 -11.5t12 -32.5t-12 -32.5t-30 -11.5
t-30 11.5t-12 32.5z" />
    <glyph glyph-name="uni0452" unicode="&#x452;" horiz-adv-x="530" 
d="M88 0v573h-64v48h64v79h55v-79h111v-48h-111v-122h2q23 14 61 30t88 16q38 0 69 -10.5t53 -36t34 -68.5t12 -108q0 -69 -10.5 -131.5t-26.5 -118t-36.5 -103.5t-39.5 -88l-47 22q44 88 73.5 190.5t29.5 228.5q0 94 -28.5 133.5t-88.5 39.5q-42 0 -80 -16t-65 -35v-396
h-55z" />
    <glyph glyph-name="uni0453" unicode="&#x453;" horiz-adv-x="415" 
d="M325 692l-61 -111h-48v6l48 111h61v-6zM391 482v-48h-249v-434h-55v482h304z" />
    <glyph glyph-name="uni0454" unicode="&#x454;" horiz-adv-x="457" 
d="M61 241q0 54 12 100.5t37 81t63.5 54.5t92.5 20q38 0 74 -9t67 -27l-18 -43q-21 12 -54 20.5t-68 8.5q-39 0 -66.5 -16t-45 -42t-26.5 -58.5t-11 -65.5h222v-48h-222q2 -33 11 -65.5t26.5 -58.5t45 -42t66.5 -16q35 0 68 8.5t54 20.5l18 -43q-31 -18 -67 -27t-74 -9
q-54 0 -92.5 20t-63.5 54.5t-37 81t-12 100.5z" />
    <glyph glyph-name="uni0455" unicode="&#x455;" horiz-adv-x="426" 
d="M76 75q27 -19 59 -29.5t70 -10.5q52 0 80.5 23.5t28.5 65.5q0 16 -4 28.5t-14 23t-27 19.5t-43 17l-49 16q-24 8 -45 19t-36.5 26.5t-24 36t-8.5 48.5q0 32 12 58t34 44t52 27.5t65 9.5q42 0 73 -10t62 -24l-20 -47q-32 17 -60 24t-55 7q-51 0 -78.5 -23t-27.5 -64
q0 -32 17.5 -51t58.5 -31l49 -15q60 -18 93 -47.5t33 -89.5q0 -32 -12.5 -57.5t-34.5 -44.5t-52.5 -29t-66.5 -10q-54 0 -89 13t-64 33z" />
    <glyph glyph-name="uni0456" unicode="&#x456;" horiz-adv-x="228" 
d="M87 0v482h54v-482h-54zM72 628q0 21 12 32.5t30 11.5t30 -11.5t12 -32.5t-12 -32.5t-30 -11.5t-30 11.5t-12 32.5z" />
    <glyph glyph-name="uni0457" unicode="&#x457;" horiz-adv-x="230" 
d="M-10 628q0 21 12 32.5t30 11.5t30 -11.5t12 -32.5t-12 -32.5t-30 -11.5t-30 11.5t-12 32.5zM160 628q0 21 12 32.5t30 11.5t30 -11.5t12 -32.5t-12 -32.5t-30 -11.5t-30 11.5t-12 32.5zM88 0v482h54v-482h-54z" />
    <glyph glyph-name="uni0458" unicode="&#x458;" horiz-adv-x="229" 
d="M142 482v-551q0 -75 -30 -109.5t-84 -34.5q-15 0 -28 2t-24 5v48q10 -2 23.5 -3.5t25.5 -1.5q31 0 46.5 19t15.5 72v554h55zM72 628q0 21 12 32.5t30 11.5t30 -11.5t12 -32.5t-12 -32.5t-30 -11.5t-30 11.5t-12 32.5z" />
    <glyph glyph-name="uni0459" unicode="&#x459;" horiz-adv-x="718" 
d="M163 263q-4 -87 -12.5 -140.5t-25 -82t-41 -38t-59.5 -9.5v50q20 0 34.5 4.5t25 25.5t17 65t9.5 123l8 221h281v-197h117q76 0 116.5 -37t40.5 -106t-41 -105.5t-116 -36.5h-172v434h-175zM400 48h111q46 0 76 20.5t30 73.5q0 27 -8 45t-22 29t-33.5 16t-42.5 5h-111
v-189z" />
    <glyph glyph-name="uni045A" unicode="&#x45a;" horiz-adv-x="744" 
d="M371 237h-229v-237h-55v482h55v-197h229v197h55v-197h117q76 0 116.5 -37t40.5 -106t-41 -105.5t-116 -36.5h-172v237zM426 48h111q46 0 76 20.5t30 73.5q0 27 -8 45t-22 29t-33.5 16t-42.5 5h-111v-189z" />
    <glyph glyph-name="uni045B" unicode="&#x45b;" horiz-adv-x="542" 
d="M404 0v302q0 75 -27 110t-87 35q-21 0 -42.5 -5t-40.5 -13t-35.5 -18t-28.5 -20v-391h-55v569h-69v48h69v83h55v-83h106v-48h-106v-126h2q10 7 24.5 16.5t34 17.5t43 14t50.5 6q76 0 119 -43.5t43 -142.5v-311h-55z" />
    <glyph glyph-name="uni045C" unicode="&#x45c;" horiz-adv-x="450" 
d="M323 692l-61 -111h-48v6l48 111h61v-6zM142 224v-224h-55v482h55v-231h2l205 231h66v-5l-215 -237l222 -235v-5h-68l-210 224h-2z" />
    <glyph glyph-name="uni045D" unicode="&#x45d;" horiz-adv-x="535" 
d="M183 698h61l49 -111v-6h-49l-61 111v6zM142 482v-316l-7 -88h2l251 404h60v-482h-55v315l7 88h-2l-252 -403h-59v482h55z" />
    <glyph glyph-name="uni045E" unicode="&#x45e;" horiz-adv-x="467" 
d="M239 60l23 85l115 337h55v-6l-192 -559q-23 -68 -60 -99t-85 -31q-18 0 -31.5 2.5t-26.5 6.5v49q26 -8 56 -8q29 0 52 19.5t38 63.5l28 82l-179 474v6h55l125 -336l24 -86h3zM241 620q39 0 60.5 14t36.5 33l26 -24q-18 -31 -46.5 -51t-76.5 -20q-46 0 -75.5 20t-46.5 51
l26 24q15 -19 36.5 -33t59.5 -14z" />
    <glyph glyph-name="uni045F" unicode="&#x45f;" horiz-adv-x="531" 
d="M244 -120l-6 120h-151v482h55v-434h247v434h55v-482h-151l-6 -120h-43z" />
    <glyph glyph-name="uni0462" unicode="&#x462;" horiz-adv-x="647" 
d="M240 680v-87h206v-53h-206v-149h152q97 0 151 -47.5t54 -147.5t-54 -148t-151 -48h-208v540h-141v53h141v87h56zM240 53h149q32 0 59 6.5t47 22.5t31.5 44t11.5 70t-11.5 69t-31.5 43.5t-47 23t-59 6.5h-149v-285z" />
    <glyph glyph-name="uni0463" unicode="&#x463;" horiz-adv-x="505" 
d="M131 434h-101v48h101v218h55v-218h152v-48h-152v-149h117q76 0 116.5 -37t40.5 -106t-41 -105.5t-116 -36.5h-172v434zM186 48h111q46 0 76 20.5t30 73.5q0 27 -8 45t-22 29t-33.5 16t-42.5 5h-111v-189z" />
    <glyph glyph-name="uni0472" unicode="&#x472;" horiz-adv-x="666" 
d="M70 340q0 75 14 140t45 112.5t81 75t123 27.5t123 -27.5t81 -75t45 -112.5t14 -140t-14 -140t-45 -112.5t-81 -75t-123 -27.5t-123 27.5t-81 75t-45 112.5t-14 140zM333 40q57 0 95 20.5t61.5 57.5t34 87.5t12.5 109.5h-407q2 -59 13 -109.5t34.5 -87.5t61.5 -57.5
t95 -20.5zM333 640q-57 0 -95 -20.5t-61.5 -57.5t-34.5 -87t-13 -108h407q-2 58 -13 108t-34.5 87t-61.5 57.5t-94 20.5z" />
    <glyph glyph-name="uni0473" unicode="&#x473;" horiz-adv-x="544" 
d="M482 241q0 -51 -10.5 -97t-35 -81.5t-64.5 -56.5t-100 -21t-100.5 21t-64.5 56.5t-34.5 81.5t-10.5 97t10.5 97t34.5 81.5t64.5 56.5t100.5 21t100 -21t64.5 -56.5t35 -81.5t10.5 -97zM272 35q43 0 71.5 15t46 40.5t25 58t9.5 68.5h-305q2 -36 10 -68.5t25 -58
t45.5 -40.5t72.5 -15zM272 447q-43 0 -71.5 -15t-46 -40t-25.5 -58t-10 -68h305q-2 35 -9.5 68t-25 58t-46 40t-71.5 15z" />
    <glyph glyph-name="uni0474" unicode="&#x474;" horiz-adv-x="619" 
d="M593 643q-15 0 -26.5 -2t-21 -9t-18 -20t-15.5 -35l-197 -577h-59l-230 674v6h58l154 -455l46 -159h3l46 159l121 359q12 35 26.5 57t31.5 34t37 16t44 4v-52v0z" />
    <glyph glyph-name="uni0475" unicode="&#x475;" horiz-adv-x="497" 
d="M462 443q-23 0 -38 -10t-26 -42l-139 -391h-55l-170 476v6h56l117 -334l23 -90h3l23 90l92 262q17 50 46.5 66.5t67.5 16.5v-50v0z" />
    <glyph glyph-name="uni0490" unicode="&#x490;" horiz-adv-x="520" 
d="M479 821l9 -194h-330v-627h-56v680h323l8 141h46z" />
    <glyph glyph-name="uni0491" unicode="&#x491;" horiz-adv-x="414" 
d="M87 0v482h245l5 103h44l9 -151h-248v-434h-55z" />
    <glyph glyph-name="uni04AE" unicode="&#x4ae;" horiz-adv-x="515" 
d="M84 680l175 -331h2l175 331h61v-6l-209 -386v-288h-56v288l-209 386v6h61z" />
    <glyph glyph-name="uni04AF" unicode="&#x4af;" horiz-adv-x="456" 
d="M205 -204v204l-171 476v6h56l117 -334l23 -90h3l23 90l117 334h56v-6l-171 -476v-204h-53z" />
    <glyph glyph-name="uni04E8" unicode="&#x4e8;" horiz-adv-x="666" 
d="M70 340q0 75 14 140t45 112.5t81 75t123 27.5t123 -27.5t81 -75t45 -112.5t14 -140t-14 -140t-45 -112.5t-81 -75t-123 -27.5t-123 27.5t-81 75t-45 112.5t-14 140zM333 40q57 0 95 20.5t61.5 57.5t34 87.5t12.5 109.5h-407q2 -59 13 -109.5t34.5 -87.5t61.5 -57.5
t95 -20.5zM333 640q-57 0 -95 -20.5t-61.5 -57.5t-34.5 -87t-13 -108h407q-2 58 -13 108t-34.5 87t-61.5 57.5t-94 20.5z" />
    <glyph glyph-name="uni04E9" unicode="&#x4e9;" horiz-adv-x="544" 
d="M482 241q0 -51 -10.5 -97t-35 -81.5t-64.5 -56.5t-100 -21t-100.5 21t-64.5 56.5t-34.5 81.5t-10.5 97t10.5 97t34.5 81.5t64.5 56.5t100.5 21t100 -21t64.5 -56.5t35 -81.5t10.5 -97zM272 35q43 0 71.5 15t46 40.5t25 58t9.5 68.5h-305q2 -36 10 -68.5t25 -58
t45.5 -40.5t72.5 -15zM272 447q-43 0 -71.5 -15t-46 -40t-25.5 -58t-10 -68h305q-2 35 -9.5 68t-25 58t-46 40t-71.5 15z" />
    <glyph glyph-name="uni0E3F" unicode="&#xe3f;" 
d="M295 679q76 -6 121 -47t45 -128q0 -32 -7.5 -57.5t-20 -44t-28.5 -31.5t-32 -20v-2q50 -14 80.5 -55.5t30.5 -110.5q0 -46 -14 -80t-39 -56.5t-59.5 -34t-76.5 -12.5v-108h-50v108h-150v680h150v90h50v-91zM425 186q0 35 -10 59.5t-27 40t-41 23.5t-52 9v-265
q28 1 51.5 9t41 23.5t27.5 40t10 60.5zM151 53h94v266h-94v-266zM151 372h94v255h-94v-255zM402 499q0 66 -29.5 93.5t-77.5 32.5v-252q48 5 77.5 33t29.5 93z" />
    <glyph glyph-name="Wgrave" unicode="&#x1e80;" horiz-adv-x="897" 
d="M447 613l-37 -157l-131 -456h-58l-189 674v6h57l122 -439l38 -166h2l40 166l128 439h59l128 -439l40 -166h2l38 166l122 439h57v-6l-189 -674h-58l-131 456l-37 157h-3zM364 863h63l46 -112v-6h-50l-59 112v6z" />
    <glyph glyph-name="wgrave" unicode="&#x1e81;" horiz-adv-x="766" 
d="M382 424l-24 -91l-110 -333h-55l-158 476v6h56l104 -323l25 -97h2l27 97l106 323h56l106 -323l27 -97h2l25 97l104 323h56v-6l-158 -476h-55l-110 333l-24 91h-2zM292 698h61l49 -111v-6h-49l-61 111v6z" />
    <glyph glyph-name="Wacute" unicode="&#x1e82;" horiz-adv-x="897" 
d="M447 613l-37 -157l-131 -456h-58l-189 674v6h57l122 -439l38 -166h2l40 166l128 439h59l128 -439l40 -166h2l38 166l122 439h57v-6l-189 -674h-58l-131 456l-37 157h-3zM536 857l-59 -112h-50v6l46 112h63v-6z" />
    <glyph glyph-name="wacute" unicode="&#x1e83;" horiz-adv-x="766" 
d="M382 424l-24 -91l-110 -333h-55l-158 476v6h56l104 -323l25 -97h2l27 97l106 323h56l106 -323l27 -97h2l25 97l104 323h56v-6l-158 -476h-55l-110 333l-24 91h-2zM474 692l-61 -111h-48v6l48 111h61v-6z" />
    <glyph glyph-name="Wdieresis" unicode="&#x1e84;" horiz-adv-x="897" 
d="M447 613l-37 -157l-131 -456h-58l-189 674v6h57l122 -439l38 -166h2l40 166l128 439h59l128 -439l40 -166h2l38 166l122 439h57v-6l-189 -674h-58l-131 456l-37 157h-3zM321 804q0 21 12 32.5t30 11.5t30 -11.5t12 -32.5t-12 -32.5t-30 -11.5t-30 11.5t-12 32.5zM491 804
q0 21 12 32.5t30 11.5t30 -11.5t12 -32.5t-12 -32.5t-30 -11.5t-30 11.5t-12 32.5z" />
    <glyph glyph-name="wdieresis" unicode="&#x1e85;" horiz-adv-x="766" 
d="M382 424l-24 -91l-110 -333h-55l-158 476v6h56l104 -323l25 -97h2l27 97l106 323h56l106 -323l27 -97h2l25 97l104 323h56v-6l-158 -476h-55l-110 333l-24 91h-2zM257 628q0 21 12 32.5t30 11.5t30 -11.5t12 -32.5t-12 -32.5t-30 -11.5t-30 11.5t-12 32.5zM427 628
q0 21 12 32.5t30 11.5t30 -11.5t12 -32.5t-12 -32.5t-30 -11.5t-30 11.5t-12 32.5z" />
    <glyph glyph-name="uni1E9E" unicode="&#x1e9e;" horiz-adv-x="623" 
d="M97 421q0 64 11.5 115t36.5 86t65.5 54t99.5 19q57 0 102.5 -18t89.5 -48v-36l-123 -202v-2q42 0 77 -13t60.5 -38t40 -62t14.5 -85q0 -47 -14.5 -85t-40.5 -65t-62.5 -41.5t-80.5 -14.5q-35 0 -61 4.5t-50 11.5v54q25 -7 52 -11.5t57 -4.5q65 0 103 38.5t38 113.5
q0 78 -43 113.5t-119 35.5h-42v36l134 223q-29 20 -65.5 31t-66.5 11q-86 0 -121.5 -52.5t-35.5 -166.5v-422h-56v421z" />
    <glyph glyph-name="Ygrave" unicode="&#x1ef2;" horiz-adv-x="520" 
d="M84 680l175 -331h2l175 331h61v-6l-209 -386v-288h-56v288l-209 386v6h61zM183 863h63l46 -112v-6h-50l-59 112v6z" />
    <glyph glyph-name="ygrave" unicode="&#x1ef3;" horiz-adv-x="467" 
d="M239 60l23 85l115 337h55v-6l-192 -559q-23 -68 -60 -99t-85 -31q-18 0 -31.5 2.5t-26.5 6.5v49q26 -8 56 -8q29 0 52 19.5t38 63.5l28 82l-179 474v6h55l125 -336l24 -86h3zM149 698h61l49 -111v-6h-49l-61 111v6z" />
    <glyph glyph-name="endash" unicode="&#x2013;" horiz-adv-x="528" 
d="M80 246v48h368v-48h-368z" />
    <glyph glyph-name="emdash" unicode="&#x2014;" horiz-adv-x="837" 
d="M80 246v48h677v-48h-677z" />
    <glyph glyph-name="quoteleft" unicode="&#x2018;" horiz-adv-x="224" 
d="M160 673l-31 -222h-64v6l49 223h46v-7z" />
    <glyph glyph-name="quoteright" unicode="&#x2019;" horiz-adv-x="223" 
d="M70 457l31 222h64v-6l-49 -223h-46v7z" />
    <glyph glyph-name="quotesinglbase" unicode="&#x201a;" horiz-adv-x="219" 
d="M52 -154l31 222h64v-6l-49 -223h-46v7z" />
    <glyph glyph-name="quotedblleft" unicode="&#x201c;" horiz-adv-x="375" 
d="M311 673l-31 -222h-64v6l49 223h46v-7zM160 673l-31 -222h-64v6l49 223h46v-7z" />
    <glyph glyph-name="quotedblright" unicode="&#x201d;" horiz-adv-x="373" 
d="M70 457l31 222h64v-6l-49 -223h-46v7zM220 457l31 222h64v-6l-49 -223h-46v7z" />
    <glyph glyph-name="quotedblbase" unicode="&#x201e;" horiz-adv-x="369" 
d="M52 -154l31 222h64v-6l-49 -223h-46v7zM202 -154l31 222h64v-6l-49 -223h-46v7z" />
    <glyph glyph-name="dagger" unicode="&#x2020;" horiz-adv-x="449" 
d="M199 482v218h51v-218h165v-48h-165v-632h-51v632h-165v48h165z" />
    <glyph glyph-name="daggerdbl" unicode="&#x2021;" horiz-adv-x="510" 
d="M230 482v218h51v-218h164v-48h-164v-364h164v-48h-164v-220h-51v220h-164v48h164v364h-164v48h164z" />
    <glyph glyph-name="bullet" unicode="&#x2022;" horiz-adv-x="317" 
d="M99 291q0 29 16 45.5t43 16.5q28 0 44 -16.5t16 -45.5t-16 -45.5t-44 -16.5q-27 0 -43 16.5t-16 45.5z" />
    <glyph glyph-name="ellipsis" unicode="&#x2026;" horiz-adv-x="621" 
d="M68 36q0 22 13.5 36.5t36.5 14.5t36.5 -14.5t13.5 -36.5t-13.5 -36.5t-36.5 -14.5t-36.5 14.5t-13.5 36.5zM257 36q0 22 13.5 36.5t36.5 14.5t36.5 -14.5t13.5 -36.5t-13.5 -36.5t-36.5 -14.5t-36.5 14.5t-13.5 36.5zM453 36q0 22 13.5 36.5t36.5 14.5t36.5 -14.5
t13.5 -36.5t-13.5 -36.5t-36.5 -14.5t-36.5 14.5t-13.5 36.5z" />
    <glyph glyph-name="perthousand" unicode="&#x2030;" horiz-adv-x="1027" 
d="M774 163q0 -65 18.5 -95.5t58.5 -30.5t58.5 30.5t18.5 95.5t-18.5 95t-58.5 30t-58.5 -30t-18.5 -95zM723 163q0 82 33.5 126.5t94.5 44.5t94.5 -44.5t33.5 -126.5t-33.5 -127t-94.5 -45t-94.5 45t-33.5 127zM151 0v6l380 674h52v-6l-381 -674h-51zM103 513
q0 -65 18.5 -95.5t58.5 -30.5t58.5 30.5t18.5 95.5t-18.5 95t-58.5 30t-58.5 -30t-18.5 -95zM52 513q0 82 33.5 126.5t94.5 44.5t94.5 -44.5t33.5 -126.5t-33.5 -127t-94.5 -45t-94.5 45t-33.5 127zM473 163q0 -65 18.5 -95.5t58.5 -30.5t58.5 30.5t18.5 95.5t-18.5 95
t-58.5 30t-58.5 -30t-18.5 -95zM422 163q0 82 33.5 126.5t94.5 44.5t94.5 -44.5t33.5 -126.5t-33.5 -127t-94.5 -45t-94.5 45t-33.5 127z" />
    <glyph glyph-name="guilsinglleft" unicode="&#x2039;" horiz-adv-x="285" 
d="M50 272l140 205l37 -27l-120 -180l119 -180l-36 -27l-140 205v4z" />
    <glyph glyph-name="guilsinglright" unicode="&#x203a;" horiz-adv-x="286" 
d="M236 268l-140 -205l-36 27l118 180l-120 180l38 27l140 -205v-4z" />
    <glyph glyph-name="fraction" unicode="&#x2044;" horiz-adv-x="100" 
d="M-166 0v6l380 674h52v-6l-381 -674h-51z" />
    <glyph glyph-name="uni2070" unicode="&#x2070;" horiz-adv-x="338" 
d="M92 636q0 -65 18.5 -95.5t58.5 -30.5t58.5 30.5t18.5 95.5t-18.5 95t-58.5 30t-58.5 -30t-18.5 -95zM41 636q0 82 33.5 126.5t94.5 44.5t94.5 -44.5t33.5 -126.5t-33.5 -127t-94.5 -45t-94.5 45t-33.5 127z" />
    <glyph glyph-name="uni2074" unicode="&#x2074;" horiz-adv-x="311" 
d="M196 712h46v-126h38v-43h-38v-70h-46v70h-166v40l95 217h51l-93 -213v-1h113v126z" />
    <glyph glyph-name="uni2075" unicode="&#x2075;" horiz-adv-x="286" 
d="M52 635l20 165h162v-43h-120l-9 -80h25q54 0 86 -25.5t32 -78.5q0 -54 -33.5 -81t-90.5 -27q-23 0 -49 6t-43 14l11 43q21 -10 44.5 -13.5t34.5 -3.5q39 0 57 15t18 47q0 31 -18 44.5t-56 13.5q-20 0 -37.5 -0.5t-27.5 -1.5z" />
    <glyph glyph-name="uni2076" unicode="&#x2076;" horiz-adv-x="305" 
d="M205 795l-71 -109v-1q5 2 13.5 4.5t19.5 2.5q49 0 78.5 -31.5t29.5 -81.5q0 -24 -8.5 -44.5t-24 -36t-37.5 -24.5t-49 -9q-28 0 -50 9t-37.5 24.5t-23.5 36t-8 44.5q0 23 7.5 44.5t21.5 44.5l84 132h55v-5zM88 579q0 -29 18 -48.5t50 -19.5t50 19.5t18 48.5t-18 48
t-50 19t-50 -19t-18 -48z" />
    <glyph glyph-name="uni2077" unicode="&#x2077;" horiz-adv-x="257" 
d="M66 478l113 278v1h-152v43h206v-34l-116 -293h-51v5z" />
    <glyph glyph-name="uni2078" unicode="&#x2078;" horiz-adv-x="312" 
d="M156 511q35 0 50 16t15 38q0 23 -15 39.5t-50 16.5t-50 -16.5t-15 -39.5q0 -22 15 -38t50 -16zM156 807q49 0 76.5 -24.5t27.5 -63.5q0 -27 -13 -44.5t-32 -28.5v-1q27 -10 42 -32.5t15 -51.5q0 -42 -29.5 -69t-86.5 -27t-86.5 27t-29.5 69q0 29 15 51.5t42 32.5v1
q-19 11 -32 28.5t-13 44.5q0 39 27.5 63.5t76.5 24.5zM156 667q28 0 40.5 13.5t12.5 33.5t-12.5 33.5t-40.5 13.5t-40.5 -13.5t-12.5 -33.5t12.5 -33.5t40.5 -13.5z" />
    <glyph glyph-name="uni2079" unicode="&#x2079;" horiz-adv-x="305" 
d="M100 478l71 109v1q-5 -2 -13.5 -4.5t-19.5 -2.5q-49 0 -78.5 31.5t-29.5 81.5q0 24 8.5 44.5t24 36t37.5 24.5t49 9q28 0 50 -9t37.5 -24.5t23.5 -36t8 -44.5q0 -23 -7.5 -44.5t-21.5 -44.5l-84 -132h-55v5zM217 694q0 29 -18 48.5t-50 19.5t-50 -19.5t-18 -48.5t18 -48
t50 -19t50 19t18 48z" />
    <glyph glyph-name="uni207A" unicode="&#x207a;" horiz-adv-x="253" 
d="M149 666h67v-41h-67v-73h-43v73h-67v41h67v74h43v-74z" />
    <glyph glyph-name="uni207B" unicode="&#x207b;" horiz-adv-x="280" 
d="M52 627v40h176v-40h-176z" />
    <glyph glyph-name="uni207D" unicode="&#x207d;" horiz-adv-x="172" 
d="M39 637q0 61 20.5 116.5t46.5 100.5l30 -17q-24 -48 -37 -101t-13 -99q0 -49 13 -102.5t37 -100.5l-30 -17q-26 43 -46.5 99.5t-20.5 120.5z" />
    <glyph glyph-name="uni207E" unicode="&#x207e;" horiz-adv-x="171" 
d="M133 637q0 -64 -20 -120.5t-46 -99.5l-30 17q23 47 36 100.5t13 102.5q0 46 -13 99t-36 101l30 17q26 -45 46 -100.5t20 -116.5z" />
    <glyph glyph-name="uni2080" unicode="&#x2080;" horiz-adv-x="338" 
d="M92 44q0 -65 18.5 -95.5t58.5 -30.5t58.5 30.5t18.5 95.5t-18.5 95t-58.5 30t-58.5 -30t-18.5 -95zM41 44q0 82 33.5 126.5t94.5 44.5t94.5 -44.5t33.5 -126.5t-33.5 -127t-94.5 -45t-94.5 45t-33.5 127z" />
    <glyph glyph-name="uni2081" unicode="&#x2081;" horiz-adv-x="225" 
d="M28 109v45l105 54h35v-327h-46v271h-1l-87 -43h-6z" />
    <glyph glyph-name="uni2082" unicode="&#x2082;" horiz-adv-x="288" 
d="M107 -76h140v-43h-210v35l112 111q19 18 31.5 37t12.5 44q0 30 -16 45.5t-44 15.5q-23 0 -40.5 -11.5t-31.5 -24.5l-25 36q14 14 38.5 30t59.5 16q50 0 80 -28.5t30 -75.5q0 -35 -15 -60t-36 -45l-86 -81v-1z" />
    <glyph glyph-name="uni2083" unicode="&#x2083;" horiz-adv-x="295" 
d="M77 68h50q37 0 52.5 14.5t15.5 35.5q0 27 -16 39t-46 12q-18 0 -39 -4.5t-38 -14.5l-15 42q20 11 45.5 17t48.5 6q51 0 82 -23.5t31 -66.5q0 -29 -15.5 -48t-34.5 -27v-1q23 -9 39 -28t16 -52q0 -45 -33.5 -70.5t-88.5 -25.5q-32 0 -56 7t-42 17l14 43q17 -9 39 -15
t44 -6q29 0 50.5 10.5t21.5 43.5q0 52 -75 52h-50v43z" />
    <glyph glyph-name="uni2084" unicode="&#x2084;" horiz-adv-x="310" 
d="M196 120h46v-126h38v-43h-38v-70h-46v70h-166v40l95 217h51l-93 -213v-1h113v126z" />
    <glyph glyph-name="uni2085" unicode="&#x2085;" horiz-adv-x="286" 
d="M52 43l20 165h162v-43h-120l-9 -80h25q54 0 86 -25.5t32 -78.5q0 -54 -33.5 -81t-90.5 -27q-23 0 -49 6t-43 14l11 43q21 -10 44.5 -13.5t34.5 -3.5q39 0 57 15t18 47q0 31 -18 44.5t-56 13.5q-20 0 -37.5 -0.5t-27.5 -1.5z" />
    <glyph glyph-name="uni2086" unicode="&#x2086;" horiz-adv-x="305" 
d="M205 203l-71 -109v-1q5 2 13.5 4.5t19.5 2.5q49 0 78.5 -31.5t29.5 -81.5q0 -24 -8.5 -44.5t-24 -36t-37.5 -24.5t-49 -9q-28 0 -50 9t-37.5 24.5t-23.5 36t-8 44.5q0 23 7.5 44.5t21.5 44.5l84 132h55v-5zM88 -13q0 -29 18 -48.5t50 -19.5t50 19.5t18 48.5t-18 48
t-50 19t-50 -19t-18 -48z" />
    <glyph glyph-name="uni2087" unicode="&#x2087;" horiz-adv-x="256" 
d="M66 -114l113 278v1h-152v43h206v-34l-116 -293h-51v5z" />
    <glyph glyph-name="uni2088" unicode="&#x2088;" horiz-adv-x="312" 
d="M156 -81q35 0 50 16t15 38q0 23 -15 39.5t-50 16.5t-50 -16.5t-15 -39.5q0 -22 15 -38t50 -16zM156 215q49 0 76.5 -24.5t27.5 -63.5q0 -27 -13 -44.5t-32 -28.5v-1q27 -10 42 -32.5t15 -51.5q0 -42 -29.5 -69t-86.5 -27t-86.5 27t-29.5 69q0 29 15 51.5t42 32.5v1
q-19 11 -32 28.5t-13 44.5q0 39 27.5 63.5t76.5 24.5zM156 75q28 0 40.5 13.5t12.5 33.5t-12.5 33.5t-40.5 13.5t-40.5 -13.5t-12.5 -33.5t12.5 -33.5t40.5 -13.5z" />
    <glyph glyph-name="uni2089" unicode="&#x2089;" horiz-adv-x="305" 
d="M100 -114l71 109v1q-5 -2 -13.5 -4.5t-19.5 -2.5q-49 0 -78.5 31.5t-29.5 81.5q0 24 8.5 44.5t24 36t37.5 24.5t49 9q28 0 50 -9t37.5 -24.5t23.5 -36t8 -44.5q0 -23 -7.5 -44.5t-21.5 -44.5l-84 -132h-55v5zM217 102q0 29 -18 48.5t-50 19.5t-50 -19.5t-18 -48.5t18 -48
t50 -19t50 19t18 48z" />
    <glyph glyph-name="uni208D" unicode="&#x208d;" horiz-adv-x="171" 
d="M39 45q0 61 20.5 116.5t46.5 100.5l30 -17q-24 -48 -37 -101t-13 -99q0 -49 13 -102.5t37 -100.5l-30 -17q-26 43 -46.5 99.5t-20.5 120.5z" />
    <glyph glyph-name="uni208E" unicode="&#x208e;" horiz-adv-x="170" 
d="M132 45q0 -64 -20 -120.5t-46 -99.5l-30 17q23 47 36 100.5t13 102.5q0 46 -13 99t-36 101l30 17q26 -45 46 -100.5t20 -116.5z" />
    <glyph glyph-name="colonmonetary" unicode="&#x20a1;" 
d="M433 677q24 -9 49 -25l-15 -50q-11 7 -21.5 12.5t-21.5 10.5l-91 -586h6q29 0 59.5 8t62.5 28l18 -47q-33 -21 -70 -32t-73 -11h-12l-14 -93h-46l16 99q-32 7 -63 24l-19 -123h-44l23 154q-48 46 -70.5 121.5t-22.5 172.5q0 70 12 129.5t36 104.5t60.5 74.5t85.5 40.5
l13 81h44l-12 -75h14q24 0 53 -6l13 81h44zM227 73q28 -22 62 -29l91 592q-12 2 -22.5 3.5t-21.5 1.5q-7 0 -12 -0.5t-10 -0.5zM142 340q0 -72 11 -128.5t36 -96.5l80 515q-68 -24 -97.5 -99.5t-29.5 -190.5z" />
    <glyph glyph-name="lira" unicode="&#x20a4;" 
d="M99 46q84 43 84 134q0 23 -3 52h-91v48h86q-4 29 -9 59t-9 59h-68v48h62q-2 19 -3.5 36.5t-1.5 33.5q0 46 13.5 80t37 56t54.5 32.5t67 10.5q39 0 75.5 -12.5t68.5 -33.5l-23 -48q-34 22 -62.5 30.5t-58.5 8.5q-22 0 -42.5 -6.5t-36 -21t-25 -38.5t-9.5 -58
q0 -16 1.5 -33.5t3.5 -36.5h193v-48h-187q4 -29 9 -59t9 -59h169v-48h-164q3 -27 3 -51q0 -27 -5.5 -48t-14.5 -36.5t-19 -25.5t-19 -15v-2h284v-54h-369v46v0z" />
    <glyph glyph-name="uni20A6" unicode="&#x20a6;" 
d="M93 444v236h59l105 -236h153v236h50v-236h57v-48h-57v-117h57v-48h-57v-231h-59l-103 231h-153v-231h-52v231h-61v48h61v117h-61v48h61zM145 279h132l-52 117h-80v-117zM331 279h79v117h-131zM145 444h59l-57 130h-2v-130zM410 107v124h-58l56 -124h2z" />
    <glyph glyph-name="uni20A8" unicode="&#x20a8;" 
d="M333 512q-10 115 -146 115h-103l13 53h382l-12 -48h-146v-2q27 -15 46.5 -44t24.5 -74h86l-11 -48h-75q-4 -41 -21.5 -71t-44.5 -49t-62.5 -28t-74.5 -9h-22l232 -302v-5h-64l-245 317v38h97q64 0 100.5 26t44.5 83h-248l12 48h237z" />
    <glyph glyph-name="uni20AA" unicode="&#x20aa;" horiz-adv-x="660" 
d="M378 184v269q0 53 -4.5 86.5t-20 53t-45 26.5t-78.5 7h-88v-626h-57v680h158q57 0 94.5 -11.5t59 -38.5t30 -70.5t8.5 -107.5v-268h-57zM579 680v-453q0 -65 -11 -109t-35.5 -70t-64 -37t-96.5 -11h-137v496h57v-443h68q49 0 80.5 6t49.5 24.5t25 52.5t7 91v453h57z" />
    <glyph glyph-name="dong" unicode="&#x20ab;" 
d="M237 103q-86 0 -130.5 51.5t-44.5 155.5t44.5 155.5t130.5 51.5q45 0 79 -16.5t57 -39.5h2v132h-100v50h100v57h55v-57h57v-50h-57v-475h-43l-9 42h-2q-22 -20 -58 -38.5t-81 -18.5zM243 153q42 0 73 16.5t59 42.5v196q-28 26 -59 42.5t-73 16.5q-65 0 -94.5 -39.5
t-29.5 -117.5t29.5 -117.5t94.5 -39.5zM91 0v49h339v-49h-339z" />
    <glyph glyph-name="Euro" unicode="&#x20ac;" 
d="M103 340v26t2 26h-70l14 48h62q9 58 27.5 105t49 80.5t72.5 51.5t98 18q35 0 76 -11t73 -32l-15 -50q-33 21 -69 30t-65 9q-87 0 -131.5 -53.5t-57.5 -147.5h281l-14 -48h-274q-1 -14 -1 -26v-26v-32t2 -29h245l-13 -48h-226q15 -90 59 -141t130 -51q29 0 62.5 8t65.5 28
l17 -47q-32 -21 -71 -32t-74 -11q-54 0 -96 17t-72.5 49t-50 77.5t-28.5 102.5h-76l14 48h56q-1 15 -1.5 30t-0.5 31z" />
    <glyph glyph-name="uni20AD" unicode="&#x20ad;" 
d="M268 306l228 -299v-7h-70l-229 306h-11v-306h-56v306h-70v48h70v326h56v-326h10l219 326h67v-7l-219 -319h186v-48h-181z" />
    <glyph glyph-name="uni20AE" unicode="&#x20ae;" 
d="M493 680v-53h-189v-202l91 38v-52l-91 -38v-80l91 38v-52l-91 -38v-241h-56v218l-94 -39v53l94 38v80l-94 -39v53l94 38v225h-189v53h434z" />
    <glyph glyph-name="uni20B1" unicode="&#x20b1;" 
d="M459 352q-34 -130 -177 -130h-127v-222h-53v352h-66v48h66v95h-66v48h66v137h180q145 0 178 -137h61v-48h-53q1 -11 1.5 -22t0.5 -22q0 -27 -3 -51h54v-48h-62zM411 451q0 12 -0.5 22.5t-1.5 21.5h-251v-95h250q3 22 3 51zM158 543h243q-12 44 -42 64t-85 20h-116v-84z
M274 275q53 0 82.5 18t42.5 59h-241v-77h116z" />
    <glyph glyph-name="uni20B2" unicode="&#x20b2;" 
d="M318 695q53 -2 89.5 -19t69.5 -41l-26 -44q-62 47 -133 50v-602q32 1 58 9t50 26v199l-68 10v42h124v-279q-71 -57 -164 -61v-93h-50v95q-55 7 -94 36t-63.5 75.5t-35.5 108t-11 133.5q0 70 11.5 130.5t36 107t63.5 76.5t93 38v78h50v-75zM123 340q0 -58 7 -109t24 -91
t44.5 -66t69.5 -33v596q-39 -8 -67 -33t-45 -63.5t-25 -89.5t-8 -111z" />
    <glyph glyph-name="uni20B4" unicode="&#x20b4;" 
d="M169 232q-12 -26 -12 -59q0 -66 36.5 -99.5t88.5 -33.5q51 0 86.5 18t64.5 46l30 -43q-32 -29 -75.5 -52.5t-105.5 -23.5q-41 0 -74.5 14t-57.5 39.5t-37.5 60t-13.5 75.5q0 16 2.5 30t7.5 28h-47v48h71q8 11 27 24t42 25l89 46h-229v48h298q34 33 34 86q0 57 -31.5 94
t-91.5 37q-74 0 -134 -48l-25 46q29 24 70 40.5t89 16.5q42 0 75.5 -14.5t57 -39.5t36 -59t12.5 -73q0 -25 -7 -46t-17 -40h55v-48h-97q-12 -11 -28 -20t-46 -25l-100 -50h271v-48h-314z" />
    <glyph glyph-name="uni20B5" unicode="&#x20b5;" 
d="M339 695q35 -1 73 -12t70 -31l-21 -48q-32 20 -62.5 28t-59.5 9v-602q29 0 56.5 7t59.5 27l24 -45q-32 -21 -68.5 -31.5t-71.5 -11.5v-93h-50v96q-52 8 -91 37t-64.5 75t-38 107t-12.5 133t12.5 133t38 106.5t64.5 74.5t91 38v78h50v-75zM142 340q0 -62 8 -113t26 -89
t46 -62t67 -33v593q-79 -17 -113 -94.5t-34 -201.5z" />
    <glyph glyph-name="uni2113" unicode="&#x2113;" horiz-adv-x="395" 
d="M28 236q26 16 55 35t56 41v246q0 45 7 75t20 48t31 26t40 8q48 0 70.5 -37t22.5 -92q0 -92 -40 -165t-103 -130v-171q0 -14 1.5 -29t7.5 -28t17 -21.5t29 -8.5q26 0 52.5 12t50.5 31l17 -45q-26 -18 -57 -32t-63 -14q-57 0 -80 34.5t-23 97.5v137q-20 -17 -42.5 -31.5
t-45.5 -27.5zM187 354q42 45 67 101t25 128q0 35 -10 59.5t-33 24.5q-25 0 -37 -25.5t-12 -86.5v-201z" />
    <glyph glyph-name="uni2116" unicode="&#x2116;" horiz-adv-x="970" 
d="M498 217v463h56v-680h-54l-358 581h-2l7 -118v-463h-56v680h54l356 -581h2zM768 383q51 0 73 32.5t22 86.5q0 51 -22 85t-73 34t-73 -34t-22 -85q0 -54 22 -86.5t73 -32.5zM768 663q38 0 65 -13t44 -34.5t25 -51t8 -62.5t-8 -62.5t-25 -51t-44 -34.5t-65 -13t-65 13
t-44 34.5t-25 51t-8 62.5t8 62.5t25 51t44 34.5t65 13zM650 227v40h236v-40h-236z" />
    <glyph glyph-name="uni2117" unicode="&#x2117;" horiz-adv-x="834" 
d="M304 153v374h137q65 0 95.5 -31.5t30.5 -85.5q0 -53 -31 -84.5t-95 -31.5h-83v-141h-54zM358 342h83q38 0 54.5 18.5t16.5 49.5q0 32 -16.5 50.5t-54.5 18.5h-83v-137zM111 340q0 -67 22.5 -124.5t63 -99.5t96.5 -66t124 -24q67 0 123.5 24t97 66t63 99.5t22.5 124.5
t-22.5 124t-63 99t-97 66t-123.5 24q-68 0 -124 -24t-96.5 -66t-63 -99t-22.5 -124zM67 340q0 75 25.5 140t72 113t111 75t141.5 27t141.5 -27t111 -75t72 -113t25.5 -140t-25.5 -140t-72 -113t-111 -75.5t-141.5 -27.5t-141.5 27.5t-111 75.5t-72 113t-25.5 140z" />
    <glyph glyph-name="trademark" unicode="&#x2122;" horiz-adv-x="695" 
d="M393 700l61 -116l19 -44h2l19 44l62 116h53v-280h-45v150l4 73h-1l-71 -148h-44l-71 148h-1l4 -73v-150h-45v280h54zM283 700v-40h-83v-240h-45v240h-83v40h211z" />
    <glyph glyph-name="Omega" unicode="&#x2126;" horiz-adv-x="673" 
d="M336 695q72 0 122 -26.5t81.5 -71t45.5 -102.5t14 -121q0 -57 -11 -105t-29 -87.5t-41.5 -71.5t-48.5 -57h121v-53h-196v49q70 56 108 135.5t38 188.5q0 50 -8.5 98t-31.5 85.5t-62.5 60.5t-101.5 23q-61 0 -100.5 -23t-62.5 -60.5t-32 -85.5t-9 -98q0 -109 38.5 -188.5
t109.5 -135.5v-49h-197v53h121q-26 25 -49.5 57t-41.5 71.5t-28.5 87.5t-10.5 105q0 63 14 121t45.5 102.5t81 71t121.5 26.5z" />
    <glyph glyph-name="estimated" unicode="&#x212e;" horiz-adv-x="693" 
d="M595 106q-47 -65 -104.5 -93t-137.5 -28q-65 0 -117 24t-89.5 65.5t-57.5 97t-20 118.5q0 64 20 119t57.5 95.5t89.5 64t117 23.5q63 0 115 -21.5t89.5 -60t59 -92.5t23.5 -118l-7 -10h-445v-201q32 -31 74.5 -46.5t90.5 -15.5q63 0 115 24t90 82zM519 491
q-35 33 -77.5 48t-88.5 15q-48 0 -90.5 -15t-74.5 -48v-161h331v161z" />
    <glyph glyph-name="onethird" unicode="&#x2153;" horiz-adv-x="680" 
d="M100 0v6l380 674h52v-6l-381 -674h-51zM45 581v45l105 54h35v-327h-46v271h-1l-87 -43h-6zM449 187h50q37 0 52.5 14.5t15.5 35.5q0 27 -16 39t-46 12q-18 0 -39 -4.5t-38 -14.5l-15 42q20 11 45.5 17t48.5 6q51 0 82 -23.5t31 -66.5q0 -29 -15.5 -48t-34.5 -27v-1
q23 -9 39 -28t16 -52q0 -45 -33.5 -70.5t-88.5 -25.5q-32 0 -56 7t-42 17l14 43q17 -9 39 -15t44 -6q29 0 50.5 10.5t21.5 43.5q0 52 -75 52h-50v43z" />
    <glyph glyph-name="twothirds" unicode="&#x2154;" horiz-adv-x="749" 
d="M167 0v6l380 674h52v-6l-381 -674h-51zM127 394h140v-43h-210v35l112 111q19 18 31.5 37t12.5 44q0 30 -16 45.5t-44 15.5q-23 0 -40.5 -11.5t-31.5 -24.5l-25 36q14 14 38.5 30t59.5 16q50 0 80 -28.5t30 -75.5q0 -35 -15 -60t-36 -45l-86 -81v-1zM518 187h50
q37 0 52.5 14.5t15.5 35.5q0 27 -16 39t-46 12q-18 0 -39 -4.5t-38 -14.5l-15 42q20 11 45.5 17t48.5 6q51 0 82 -23.5t31 -66.5q0 -29 -15.5 -48t-34.5 -27v-1q23 -9 39 -28t16 -52q0 -45 -33.5 -70.5t-88.5 -25.5q-32 0 -56 7t-42 17l14 43q17 -9 39 -15t44 -6
q29 0 50.5 10.5t21.5 43.5q0 52 -75 52h-50v43z" />
    <glyph glyph-name="oneeighth" unicode="&#x215b;" horiz-adv-x="681" 
d="M100 0v6l380 674h52v-6l-381 -674h-51zM45 581v45l105 54h35v-327h-46v271h-1l-87 -43h-6zM513 38q35 0 50 16t15 38q0 23 -15 39.5t-50 16.5t-50 -16.5t-15 -39.5q0 -22 15 -38t50 -16zM513 334q49 0 76.5 -24.5t27.5 -63.5q0 -27 -13 -44.5t-32 -28.5v-1
q27 -10 42 -32.5t15 -51.5q0 -42 -29.5 -69t-86.5 -27t-86.5 27t-29.5 69q0 29 15 51.5t42 32.5v1q-19 11 -32 28.5t-13 44.5q0 39 27.5 63.5t76.5 24.5zM513 194q28 0 40.5 13.5t12.5 33.5t-12.5 33.5t-40.5 13.5t-40.5 -13.5t-12.5 -33.5t12.5 -33.5t40.5 -13.5z" />
    <glyph glyph-name="threeeighths" unicode="&#x215c;" horiz-adv-x="735" 
d="M155 0v6l380 674h52v-6l-381 -674h-51zM567 38q35 0 50 16t15 38q0 23 -15 39.5t-50 16.5t-50 -16.5t-15 -39.5q0 -22 15 -38t50 -16zM567 334q49 0 76.5 -24.5t27.5 -63.5q0 -27 -13 -44.5t-32 -28.5v-1q27 -10 42 -32.5t15 -51.5q0 -42 -29.5 -69t-86.5 -27t-86.5 27
t-29.5 69q0 29 15 51.5t42 32.5v1q-19 11 -32 28.5t-13 44.5q0 39 27.5 63.5t76.5 24.5zM567 194q28 0 40.5 13.5t12.5 33.5t-12.5 33.5t-40.5 13.5t-40.5 -13.5t-12.5 -33.5t12.5 -33.5t40.5 -13.5zM96 537h50q37 0 52.5 14.5t15.5 35.5q0 27 -16 39t-46 12q-18 0 -39 -4.5
t-38 -14.5l-15 42q20 11 45.5 17t48.5 6q51 0 82 -23.5t31 -66.5q0 -29 -15.5 -48t-34.5 -27v-1q23 -9 39 -28t16 -52q0 -45 -33.5 -70.5t-88.5 -25.5q-32 0 -56 7t-42 17l14 43q17 -9 39 -15t44 -6q29 0 50.5 10.5t21.5 43.5q0 52 -75 52h-50v43z" />
    <glyph glyph-name="fiveeighths" unicode="&#x215d;" horiz-adv-x="721" 
d="M139 0v6l380 674h52v-6l-381 -674h-51zM71 515l20 165h162v-43h-120l-9 -80h25q54 0 86 -25.5t32 -78.5q0 -54 -33.5 -81t-90.5 -27q-23 0 -49 6t-43 14l11 43q21 -10 44.5 -13.5t34.5 -3.5q39 0 57 15t18 47q0 31 -18 44.5t-56 13.5q-20 0 -37.5 -0.5t-27.5 -1.5z
M553 38q35 0 50 16t15 38q0 23 -15 39.5t-50 16.5t-50 -16.5t-15 -39.5q0 -22 15 -38t50 -16zM553 334q49 0 76.5 -24.5t27.5 -63.5q0 -27 -13 -44.5t-32 -28.5v-1q27 -10 42 -32.5t15 -51.5q0 -42 -29.5 -69t-86.5 -27t-86.5 27t-29.5 69q0 29 15 51.5t42 32.5v1
q-19 11 -32 28.5t-13 44.5q0 39 27.5 63.5t76.5 24.5zM553 194q28 0 40.5 13.5t12.5 33.5t-12.5 33.5t-40.5 13.5t-40.5 -13.5t-12.5 -33.5t12.5 -33.5t40.5 -13.5z" />
    <glyph glyph-name="seveneighths" unicode="&#x215e;" horiz-adv-x="671" 
d="M91 0v6l380 674h52v-6l-381 -674h-51zM503 38q35 0 50 16t15 38q0 23 -15 39.5t-50 16.5t-50 -16.5t-15 -39.5q0 -22 15 -38t50 -16zM503 334q49 0 76.5 -24.5t27.5 -63.5q0 -27 -13 -44.5t-32 -28.5v-1q27 -10 42 -32.5t15 -51.5q0 -42 -29.5 -69t-86.5 -27t-86.5 27
t-29.5 69q0 29 15 51.5t42 32.5v1q-19 11 -32 28.5t-13 44.5q0 39 27.5 63.5t76.5 24.5zM503 194q28 0 40.5 13.5t12.5 33.5t-12.5 33.5t-40.5 13.5t-40.5 -13.5t-12.5 -33.5t12.5 -33.5t40.5 -13.5zM87 358l113 278v1h-152v43h206v-34l-116 -293h-51v5z" />
    <glyph glyph-name="arrowleft" unicode="&#x2190;" horiz-adv-x="892" 
d="M419 719l37 -37l-325 -319h761v-48h-761l325 -319l-37 -37l-379 381z" />
    <glyph glyph-name="arrowup" unicode="&#x2191;" horiz-adv-x="892" 
d="M842 385l-37 -37l-319 325v-761h-48v761l-319 -325l-37 37l381 379z" />
    <glyph glyph-name="arrowright" unicode="&#x2192;" horiz-adv-x="892" 
d="M513 -41l-37 37l325 319h-761v48h761l-325 319l37 37l379 -381z" />
    <glyph glyph-name="arrowdown" unicode="&#x2193;" horiz-adv-x="892" 
d="M86 290l37 37l319 -325v761h48v-761l319 325l37 -37l-381 -379z" />
    <glyph glyph-name="uni2196" unicode="&#x2196;" horiz-adv-x="904" 
d="M696 662v-48h-455l538 -538l-34 -34l-538 538l1 -455h-49v537h537z" />
    <glyph glyph-name="uni2197" unicode="&#x2197;" horiz-adv-x="901" 
d="M804 125h-48v455l-538 -538l-34 34l538 538h-455v48h537v-537z" />
    <glyph glyph-name="uni2198" unicode="&#x2198;" horiz-adv-x="901" 
d="M267 18v48h455l-538 538l34 34l538 -538v456l48 -1v-537h-537z" />
    <glyph glyph-name="uni2199" unicode="&#x2199;" horiz-adv-x="904" 
d="M159 555h48v-455l538 538l34 -34l-538 -538h455v-48h-537v537z" />
    <glyph glyph-name="partialdiff" unicode="&#x2202;" horiz-adv-x="552" 
d="M170 700q87 0 146 -29.5t96 -79.5t53 -115t16 -137q0 -89 -17 -155.5t-47 -110.5t-70.5 -66t-87.5 -22q-49 0 -87 18t-64 49.5t-39.5 75.5t-13.5 96q0 62 15.5 107.5t42.5 75.5t63 44.5t76 14.5q53 0 97 -22t70 -47l2 1q-7 78 -32.5 127t-62.5 76.5t-81.5 38t-88.5 11.5z
M425 332q-29 36 -69.5 59.5t-98.5 23.5q-30 0 -56 -11t-46 -34.5t-31.5 -59.5t-11.5 -86q0 -39 9.5 -73.5t28 -60t46 -40t63.5 -14.5q33 0 63.5 17t53.5 53t36.5 92t12.5 134z" />
    <glyph glyph-name="Delta" unicode="&#x2206;" horiz-adv-x="583" 
d="M554 0h-525v5l234 675h57l234 -675v-5zM290 613l-49 -159l-138 -402h376l-137 402l-49 159h-3z" />
    <glyph glyph-name="product" unicode="&#x220f;" horiz-adv-x="646" 
d="M498 627h-350v-825h-57v878h464v-878h-57v825z" />
    <glyph glyph-name="summation" unicode="&#x2211;" horiz-adv-x="532" 
d="M43 -152l227 402l-212 384v46h415v-53h-348l210 -375l-226 -397h378v-53h-444v46z" />
    <glyph glyph-name="minus" unicode="&#x2212;" 
d="M485 294v-48h-420v48h420z" />
    <glyph glyph-name="uni2215" unicode="&#x2215;" horiz-adv-x="468" 
d="M18 0v6l380 674h52v-6l-381 -674h-51z" />
    <glyph glyph-name="uni2219" unicode="&#x2219;" horiz-adv-x="252" 
d="M76 292q0 22 13.5 36.5t36.5 14.5t36.5 -14.5t13.5 -36.5t-13.5 -36.5t-36.5 -14.5t-36.5 14.5t-13.5 36.5z" />
    <glyph glyph-name="radical" unicode="&#x221a;" horiz-adv-x="563" 
d="M29 222h57l90 -231l42 -127h2l33 120l232 696h56l-295 -878h-51l-166 414v6z" />
    <glyph glyph-name="infinity" unicode="&#x221e;" horiz-adv-x="726" 
d="M331 271q-40 49 -67.5 70.5t-60.5 21.5q-39 0 -61 -23t-22 -69t22 -69t61 -23q16 0 31 5t30 16t31 28.5t36 42.5zM363 230q-35 -42 -73 -70.5t-82 -28.5q-64 0 -101.5 37t-37.5 103t37.5 103t101.5 37q44 0 82 -28.5t73 -70.5q35 42 73 70.5t82 28.5q64 0 101.5 -37
t37.5 -103t-37.5 -103t-101.5 -37q-44 0 -82 28.5t-73 70.5zM395 271q20 -25 36 -42.5t31 -28.5t29.5 -16t31.5 -5q39 0 61 23t22 69t-22 69t-61 23q-33 0 -60.5 -21.5t-67.5 -70.5z" />
    <glyph glyph-name="integral" unicode="&#x222b;" horiz-adv-x="501" 
d="M273 551q12 75 47 109.5t106 34.5q14 0 29 -1.5t27 -4.5l-8 -51q-11 3 -25 5t-28 2q-41 0 -62 -19t-29 -69l-101 -627q-12 -75 -47 -109.5t-106 -34.5q-14 0 -29.5 1.5t-26.5 4.5l8 51q11 -3 25 -4.5t28 -1.5q40 0 61 18.5t29 68.5l102 627v0z" />
    <glyph glyph-name="approxequal" unicode="&#x2248;" 
d="M377 330q-27 0 -51.5 7.5t-49.5 17t-51.5 17t-56.5 7.5q-16 0 -33.5 -8.5t-35.5 -29.5l-27 32q14 20 39 37.5t62 17.5q31 0 57.5 -7.5t51.5 -17t49.5 -17t50.5 -7.5q16 0 33.5 8t35.5 29l27 -32q-14 -20 -39 -37t-62 -17zM377 116q-27 0 -51.5 7.5t-49.5 17t-51.5 17
t-56.5 7.5q-16 0 -33.5 -8.5t-35.5 -29.5l-27 32q14 20 39 37.5t62 17.5q31 0 57.5 -7.5t51.5 -17t49.5 -17t50.5 -7.5q16 0 33.5 8t35.5 29l27 -32q-14 -20 -39 -37t-62 -17z" />
    <glyph glyph-name="notequal" unicode="&#x2260;" 
d="M161 0v6l44 133h-140v48h156l56 169h-212v48h228l46 137h47v-6l-44 -131h143v-48h-159l-55 -169h214v-48h-230l-46 -139h-48z" />
    <glyph glyph-name="lessequal" unicode="&#x2264;" 
d="M479 49v-48h-420v48h420zM473 169l-415 204v42l415 203h5v-53l-357 -170v-3l357 -170v-53h-5z" />
    <glyph glyph-name="greaterequal" unicode="&#x2265;" 
d="M492 49v-48h-420v48h420zM73 169v53l357 170v3l-357 170v53h5l415 -203v-42l-415 -204h-5z" />
    <glyph glyph-name="lozenge" unicode="&#x25ca;" horiz-adv-x="531" 
d="M237 680h53l207 -333l-203 -347h-55l-206 327zM94 332l172 -284l170 295l-172 281z" />
    <glyph glyph-name="circle" unicode="&#x25cb;" horiz-adv-x="800" 
d="M60 341q0 72 26 134t71.5 107.5t107 71.5t132.5 26q72 0 135 -26t109 -71.5t72.5 -107.5t26.5 -134t-26.5 -134.5t-72.5 -108.5t-109 -72t-135 -26q-71 0 -132.5 26t-107 72t-71.5 108.5t-26 134.5zM125 341q0 -59 21 -109.5t57.5 -88t86 -58.5t107.5 -21t109 21t88 58.5
t58.5 88t21.5 109.5q0 58 -21.5 108.5t-58.5 87.5t-88 58t-109 21t-107.5 -21t-86 -58t-57.5 -87.5t-21 -108.5z" />
    <glyph glyph-name="H18533" unicode="&#x25cf;" horiz-adv-x="800" 
d="M60 338q0 73 25.5 136t71 108.5t107.5 71.5t136 26q72 0 134.5 -26t108 -71.5t71.5 -108.5t26 -136q0 -72 -26 -134t-71.5 -107.5t-108 -71t-134.5 -25.5q-74 0 -136 25.5t-107.5 71t-71 107.5t-25.5 134z" />
    <glyph glyph-name="uni25DC" unicode="&#x25dc;" horiz-adv-x="337" 
d="M337 616q-58 0 -107.5 -21t-86 -58t-57.5 -87.5t-21 -108.5h-65q0 72 26 134t71.5 107.5t107 71.5t132.5 26v-64z" />
    <glyph glyph-name="uni25DD" unicode="&#x25dd;" horiz-adv-x="341" 
d="M0 680q72 0 134.5 -26t108.5 -71.5t72 -107.5t26 -134h-66q0 58 -21 108.5t-58 87.5t-87.5 58t-108.5 21v64z" />
    <glyph glyph-name="uni25DE" unicode="&#x25de;" horiz-adv-x="341" 
d="M0 64q58 0 108.5 21t87.5 58.5t58 88t21 109.5h66q0 -72 -26 -134.5t-72 -108.5t-108.5 -72t-134.5 -26v64z" />
    <glyph glyph-name="uni25DF" unicode="&#x25df;" horiz-adv-x="337" 
d="M337 0q-71 0 -132.5 26t-107 72t-71.5 108.5t-26 134.5h65q0 -59 21 -109.5t57.5 -88t86 -58.5t107.5 -21v-64z" />
    <glyph glyph-name="uniF6C3" unicode="&#xf6c3;" 
d="M237 -211l16 135h59v-7l-31 -135h-44v7z" />
    <glyph glyph-name="uniF6E1" unicode="&#xf6e1;" horiz-adv-x="170" 
d="M41 -214l18 155h59v-5l-38 -156h-39v6z" />
    <glyph glyph-name="uniF6E2" unicode="&#xf6e2;" horiz-adv-x="169" 
d="M41 378l18 155h59v-5l-38 -156h-39v6z" />
    <glyph glyph-name="uniF6E5" unicode="&#xf6e5;" horiz-adv-x="229" 
d="M52 35v40h125v-40h-125z" />
    <glyph glyph-name="uniF6E6" unicode="&#xf6e6;" horiz-adv-x="229" 
d="M52 627v40h125v-40h-125z" />
    <glyph glyph-name="uniF6E7" unicode="&#xf6e7;" horiz-adv-x="171" 
d="M46 -86q0 20 10.5 31t29.5 11q18 0 28.5 -11t10.5 -31q0 -18 -10.5 -29.5t-28.5 -11.5q-19 0 -29.5 11.5t-10.5 29.5z" />
    <glyph glyph-name="uniF6E8" unicode="&#xf6e8;" horiz-adv-x="170" 
d="M46 506q0 20 10.5 31t29.5 11q18 0 28.5 -11t10.5 -31q0 -18 -10.5 -29.5t-28.5 -11.5q-19 0 -29.5 11.5t-10.5 29.5z" />
    <glyph glyph-name="uniF8FF" unicode="&#xf8ff;" horiz-adv-x="583" 
d="M85 680h413v-680h-413v680zM440 58v564h-297v-564h297z" />
    <glyph glyph-name="uniFB01" unicode="&#xfb01;" horiz-adv-x="549" 
d="M408 0v434h-241v-434h-54v434h-79v37l79 11v80q0 143 125 143q20 0 35.5 -3t26.5 -5v-50q-9 2 -26 5t-33 3q-38 0 -56 -20t-18 -71v-82h295v-482h-54zM393 628q0 21 12 32.5t30 11.5t30 -11.5t12 -32.5t-12 -32.5t-30 -11.5t-30 11.5t-12 32.5z" />
    <glyph glyph-name="uniFB02" unicode="&#xfb02;" horiz-adv-x="563" 
d="M113 0v434h-79v37l79 11v80q0 143 125 143q20 0 35.5 -3t26.5 -5v-50q-9 2 -26 5t-33 3q-38 0 -56 -20t-18 -71v-82h129v-48h-129v-434h-54zM417 0v700h55v-700h-55z" />
    <glyph glyph-name="zero.pnum" horiz-adv-x="613" 
d="M132 340q0 -71 10 -126.5t31 -94t54 -59t80 -20.5t80 20.5t54 59t31 94t10 126.5t-10 126.5t-31 94t-54 59t-80 20.5t-80 -20.5t-54 -59t-31 -94t-10 -126.5zM73 340q0 83 14.5 149t43.5 111.5t73 70t103 24.5t103 -24.5t73 -70t43.5 -111.5t14.5 -149t-14.5 -149
t-43.5 -111.5t-73 -70t-103 -24.5t-103 24.5t-73 70t-43.5 111.5t-14.5 149z" />
    <glyph glyph-name="one.pnum" horiz-adv-x="353" 
d="M40 545v53l167 82h46v-680h-56v618h-2l-149 -73h-6z" />
    <glyph glyph-name="two.pnum" horiz-adv-x="501" 
d="M131 53h299v-53h-374v49l231 261q23 27 40 49.5t28 44t16 44.5t5 51q0 30 -10 56t-28.5 44.5t-45 29.5t-58.5 11q-48 0 -84 -20.5t-61 -46.5l-32 41q12 12 29 26.5t39.5 26.5t49.5 20t59 8q46 0 83 -14.5t63.5 -41t40.5 -62.5t14 -78q0 -65 -27.5 -116.5t-73.5 -102.5
l-203 -225v-2z" />
    <glyph glyph-name="three.pnum" horiz-adv-x="523" 
d="M141 377h110q62 0 95.5 36t33.5 93q0 28 -8.5 52.5t-25 42.5t-42 28.5t-58.5 10.5q-44 0 -83.5 -12t-72.5 -30l-19 48q33 20 80.5 34.5t94.5 14.5q49 0 85 -14.5t60 -39.5t36 -59.5t12 -74.5q0 -57 -26 -96.5t-68 -57.5v-2q47 -15 77.5 -58t30.5 -112q0 -45 -16.5 -81.5
t-45 -62t-67 -39t-83.5 -13.5q-60 0 -108.5 16.5t-81.5 39.5l24 47q34 -22 74.5 -35t91.5 -13q32 0 60 9t48.5 27t32.5 44.5t12 61.5q0 26 -6.5 51.5t-23 45.5t-45.5 32.5t-73 12.5h-105v53z" />
    <glyph glyph-name="four.pnum" horiz-adv-x="546" 
d="M362 490h56v-291h86v-53h-86v-146h-56v146h-317v42l202 492h58l-195 -479v-2h252v291z" />
    <glyph glyph-name="five.pnum" horiz-adv-x="509" 
d="M95 345l39 335h292v-53h-244l-28 -230q14 2 34 4t38 2q110 0 166 -51t56 -154q0 -54 -18.5 -94t-50 -66.5t-73.5 -39.5t-90 -13q-57 0 -100.5 13.5t-67.5 27.5l18 50q29 -14 65 -25t85 -11q37 0 69 9t55 28t36 49t13 72q0 76 -40 113t-125 37q-32 0 -64.5 -3.5
t-58.5 -8.5z" />
    <glyph glyph-name="six.pnum" horiz-adv-x="538" 
d="M341 674l-172 -280l1 -1q17 17 45.5 29.5t63.5 12.5q47 0 85.5 -16t66 -45.5t42.5 -71t15 -92.5q0 -50 -15 -91.5t-42.5 -71t-67.5 -46t-90 -16.5t-90 16.5t-67.5 46t-42.5 71t-15 91.5q0 67 19 116.5t48 97.5l151 256h65v-6zM117 210q0 -76 41.5 -123t114.5 -47
t114.5 47t41.5 123t-41.5 123t-114.5 47t-114.5 -47t-41.5 -123z" />
    <glyph glyph-name="seven.pnum" horiz-adv-x="458" 
d="M134 7l226 618v2h-322v53h383v-46l-229 -634h-58v7z" />
    <glyph glyph-name="eight.pnum" horiz-adv-x="580" 
d="M290 39q85 0 124 41t39 105q0 65 -39 106t-124 41t-123.5 -41t-38.5 -106q0 -64 39 -105t123 -41zM290 695q51 0 88.5 -14.5t61.5 -39t36 -57.5t12 -70q0 -32 -8 -57t-21 -43.5t-29 -32t-32 -20.5v-2q51 -20 82.5 -66.5t31.5 -108.5q0 -42 -13 -78t-40.5 -63t-69.5 -42.5
t-99 -15.5t-98.5 15.5t-69 42.5t-40.5 63t-13 78q0 62 31.5 108.5t82.5 66.5v2q-16 7 -32 20.5t-29 32t-21 43.5t-8 57q0 37 12 70t36 57.5t61 39t88 14.5zM290 385q69 0 104 33.5t35 94.5q0 62 -35 95t-104 33q-70 0 -104 -33t-34 -95q0 -61 34.5 -94.5t103.5 -33.5z" />
    <glyph glyph-name="nine.pnum" horiz-adv-x="538" 
d="M197.988 6l171.989 279.982l-1 1q-16.999 -16.999 -45.4971 -29.498t-63.4961 -12.499q-46.9971 0 -85.4951 15.999q-38.4971 15.999 -65.9961 45.4971q-27.498 29.498 -42.4971 70.9951q-14.999 41.498 -14.999 92.4951q0 49.9971 14.999 91.4941t42.4971 70.9951
q27.499 29.499 67.4961 45.998t89.9941 16.499t89.9951 -16.499q39.9971 -16.499 67.4961 -45.998q27.498 -29.498 42.4971 -70.9951t14.999 -91.4941q0 -66.9961 -18.999 -116.493t-47.9971 -97.4941l-150.99 -255.984h-64.9961v6zM421.975 469.972
q0 75.9951 -41.498 122.992q-41.4971 46.9971 -114.493 46.9971q-72.9951 0 -114.492 -46.9971q-41.498 -46.9971 -41.498 -122.992q0 -75.9961 41.498 -122.993q41.4971 -46.9971 114.492 -46.9971q72.9961 0 114.493 46.9971q41.498 46.9971 41.498 122.993z" />
    <glyph glyph-name="a.salt" horiz-adv-x="537" 
d="M395 388q-29 26 -64.5 42.5t-78.5 16.5q-36 0 -61 -16t-41 -44t-23.5 -65.5t-7.5 -80.5t7.5 -80.5t23.5 -65.5t41.5 -44t61.5 -16q42 0 78 16.5t64 42.5v294zM450 0h-43l-9 42h-2q-26 -20 -61.5 -38.5t-87.5 -18.5q-47 0 -81.5 19t-57.5 53.5t-34.5 81t-11.5 102.5
q0 55 11.5 102t34 81.5t57 53.5t81.5 19q53 0 88.5 -18.5t61.5 -38.5h2l8 42h44v-482z" />
    <glyph glyph-name="agrave.aalt" horiz-adv-x="537" 
d="M395 388q-29 26 -64.5 42.5t-78.5 16.5q-36 0 -61 -16t-41 -44t-23.5 -65.5t-7.5 -80.5t7.5 -80.5t23.5 -65.5t41.5 -44t61.5 -16q42 0 78 16.5t64 42.5v294zM450 0h-43l-9 42h-2q-26 -20 -61.5 -38.5t-87.5 -18.5q-47 0 -81.5 19t-57.5 53.5t-34.5 81t-11.5 102.5
q0 55 11.5 102t34 81.5t57 53.5t81.5 19q53 0 88.5 -18.5t61.5 -38.5h2l8 42h44v-482zM193 698h61l49 -111v-6h-49l-61 111v6z" />
    <glyph glyph-name="aacute.aalt" horiz-adv-x="537" 
d="M395 388q-29 26 -64.5 42.5t-78.5 16.5q-36 0 -61 -16t-41 -44t-23.5 -65.5t-7.5 -80.5t7.5 -80.5t23.5 -65.5t41.5 -44t61.5 -16q42 0 78 16.5t64 42.5v294zM450 0h-43l-9 42h-2q-26 -20 -61.5 -38.5t-87.5 -18.5q-47 0 -81.5 19t-57.5 53.5t-34.5 81t-11.5 102.5
q0 55 11.5 102t34 81.5t57 53.5t81.5 19q53 0 88.5 -18.5t61.5 -38.5h2l8 42h44v-482zM350 692l-61 -111h-48v6l48 111h61v-6z" />
    <glyph glyph-name="acircumflex.aalt" horiz-adv-x="537" 
d="M395 388q-29 26 -64.5 42.5t-78.5 16.5q-36 0 -61 -16t-41 -44t-23.5 -65.5t-7.5 -80.5t7.5 -80.5t23.5 -65.5t41.5 -44t61.5 -16q42 0 78 16.5t64 42.5v294zM450 0h-43l-9 42h-2q-26 -20 -61.5 -38.5t-87.5 -18.5q-47 0 -81.5 19t-57.5 53.5t-34.5 81t-11.5 102.5
q0 55 11.5 102t34 81.5t57 53.5t81.5 19q53 0 88.5 -18.5t61.5 -38.5h2l8 42h44v-482zM391 586v-5h-55l-63 73l-62 -73h-55v5l93 112h49z" />
    <glyph glyph-name="atilde.aalt" horiz-adv-x="537" 
d="M395 388q-29 26 -64.5 42.5t-78.5 16.5q-36 0 -61 -16t-41 -44t-23.5 -65.5t-7.5 -80.5t7.5 -80.5t23.5 -65.5t41.5 -44t61.5 -16q42 0 78 16.5t64 42.5v294zM450 0h-43l-9 42h-2q-26 -20 -61.5 -38.5t-87.5 -18.5q-47 0 -81.5 19t-57.5 53.5t-34.5 81t-11.5 102.5
q0 55 11.5 102t34 81.5t57 53.5t81.5 19q53 0 88.5 -18.5t61.5 -38.5h2l8 42h44v-482zM147 616q14 23 32 36.5t44 13.5q13 0 27 -6t26.5 -13.5t24.5 -13.5t22 -6q16 0 27.5 8.5t24.5 26.5l22 -32q-14 -23 -32.5 -36t-42.5 -13q-14 0 -27.5 6t-26.5 13.5t-25 13.5t-22 6
q-15 0 -27 -9t-24 -27z" />
    <glyph glyph-name="adieresis.aalt" horiz-adv-x="537" 
d="M395 388q-29 26 -64.5 42.5t-78.5 16.5q-36 0 -61 -16t-41 -44t-23.5 -65.5t-7.5 -80.5t7.5 -80.5t23.5 -65.5t41.5 -44t61.5 -16q42 0 78 16.5t64 42.5v294zM450 0h-43l-9 42h-2q-26 -20 -61.5 -38.5t-87.5 -18.5q-47 0 -81.5 19t-57.5 53.5t-34.5 81t-11.5 102.5
q0 55 11.5 102t34 81.5t57 53.5t81.5 19q53 0 88.5 -18.5t61.5 -38.5h2l8 42h44v-482zM146 628q0 21 12 32.5t30 11.5t30 -11.5t12 -32.5t-12 -32.5t-30 -11.5t-30 11.5t-12 32.5zM316 628q0 21 12 32.5t30 11.5t30 -11.5t12 -32.5t-12 -32.5t-30 -11.5t-30 11.5t-12 32.5z
" />
    <glyph glyph-name="aring.aalt" horiz-adv-x="537" 
d="M230 625q0 -21 11 -32.5t31 -11.5t31.5 11.5t11.5 32.5q0 20 -11.5 31.5t-31.5 11.5t-31 -11.5t-11 -31.5zM191 625q0 37 23 59t58 22q36 0 58.5 -22t22.5 -59q0 -38 -22.5 -60t-58.5 -22q-35 0 -58 22t-23 60zM395 388q-29 26 -64.5 42.5t-78.5 16.5q-36 0 -61 -16
t-41 -44t-23.5 -65.5t-7.5 -80.5t7.5 -80.5t23.5 -65.5t41.5 -44t61.5 -16q42 0 78 16.5t64 42.5v294zM450 0h-43l-9 42h-2q-26 -20 -61.5 -38.5t-87.5 -18.5q-47 0 -81.5 19t-57.5 53.5t-34.5 81t-11.5 102.5q0 55 11.5 102t34 81.5t57 53.5t81.5 19q53 0 88.5 -18.5
t61.5 -38.5h2l8 42h44v-482z" />
    <glyph glyph-name="amacron.aalt" horiz-adv-x="537" 
d="M395 388q-29 26 -64.5 42.5t-78.5 16.5q-36 0 -61 -16t-41 -44t-23.5 -65.5t-7.5 -80.5t7.5 -80.5t23.5 -65.5t41.5 -44t61.5 -16q42 0 78 16.5t64 42.5v294zM450 0h-43l-9 42h-2q-26 -20 -61.5 -38.5t-87.5 -18.5q-47 0 -81.5 19t-57.5 53.5t-34.5 81t-11.5 102.5
q0 55 11.5 102t34 81.5t57 53.5t81.5 19q53 0 88.5 -18.5t61.5 -38.5h2l8 42h44v-482zM158 595v48h228v-48h-228z" />
    <glyph glyph-name="abreve.aalt" horiz-adv-x="537" 
d="M395 388q-29 26 -64.5 42.5t-78.5 16.5q-36 0 -61 -16t-41 -44t-23.5 -65.5t-7.5 -80.5t7.5 -80.5t23.5 -65.5t41.5 -44t61.5 -16q42 0 78 16.5t64 42.5v294zM450 0h-43l-9 42h-2q-26 -20 -61.5 -38.5t-87.5 -18.5q-47 0 -81.5 19t-57.5 53.5t-34.5 81t-11.5 102.5
q0 55 11.5 102t34 81.5t57 53.5t81.5 19q53 0 88.5 -18.5t61.5 -38.5h2l8 42h44v-482zM272 620q39 0 60.5 14t36.5 33l26 -24q-18 -31 -46.5 -51t-76.5 -20q-46 0 -75.5 20t-46.5 51l26 24q15 -19 36.5 -33t59.5 -14z" />
    <glyph glyph-name="aogonek.aalt" horiz-adv-x="537" 
d="M395 388q-29 26 -64.5 42.5t-78.5 16.5q-36 0 -61 -16t-41 -44t-23.5 -65.5t-7.5 -80.5t7.5 -80.5t23.5 -65.5t41.5 -44t61.5 -16q42 0 78 16.5t64 42.5v294zM450 0h-43l-9 42h-2q-26 -20 -61.5 -38.5t-87.5 -18.5q-47 0 -81.5 19t-57.5 53.5t-34.5 81t-11.5 102.5
q0 55 11.5 102t34 81.5t57 53.5t81.5 19q53 0 88.5 -18.5t61.5 -38.5h2l8 42h44v-482zM381 -213q-38 0 -61.5 23t-23.5 61q0 26 10.5 47.5t28.5 40.5t41 36.5t48 35.5l26 -31q-53 -39 -79 -64t-26 -56q0 -18 10.5 -32.5t33.5 -14.5q19 0 33.5 7t28.5 16l7 -42
q-13 -10 -33 -18.5t-44 -8.5z" />
    <glyph glyph-name="aringacute.aalt" horiz-adv-x="537" 
d="M395 388q-29 26 -64.5 42.5t-78.5 16.5q-36 0 -61 -16t-41 -44t-23.5 -65.5t-7.5 -80.5t7.5 -80.5t23.5 -65.5t41.5 -44t61.5 -16q42 0 78 16.5t64 42.5v294zM450 0h-43l-9 42h-2q-26 -20 -61.5 -38.5t-87.5 -18.5q-47 0 -81.5 19t-57.5 53.5t-34.5 81t-11.5 102.5
q0 55 11.5 102t34 81.5t57 53.5t81.5 19q53 0 88.5 -18.5t61.5 -38.5h2l8 42h44v-482zM228.513 598.662q0 -19.583 11.2715 -30.3066q11.2725 -10.7236 31.7666 -10.7236t32.2783 10.7236t11.7842 30.3066q0 18.6494 -11.7842 29.373t-32.2783 10.7236t-31.7666 -10.7236
q-11.2715 -10.7236 -11.2715 -29.373zM188.549 598.662q0 34.502 23.5684 55.0166q23.5684 20.5156 59.4336 20.5156q36.8896 0 59.9463 -20.5156q23.0557 -20.5146 23.0557 -55.0166q0 -35.4355 -23.0557 -55.9502q-23.0566 -20.5146 -59.9463 -20.5146
q-35.8652 0 -59.4336 20.5146t-23.5684 55.9502zM358.686 796.206l-60.4414 -108.175h-47.5605v5.84766l47.5605 108.175h60.4414v-5.84766z" />
    <glyph glyph-name="uni0444.aalt" horiz-adv-x="620" 
d="M118 241q0 -35 7 -69.5t25 -63t50 -48t82 -24.5v409q-50 -5 -82 -24t-50 -46.5t-25 -62.5t-7 -71zM282 -198v185q-62 3 -104 24.5t-68 56t-37.5 79t-11.5 94.5t11.5 93.5t37.5 77.5t68 55.5t104 27.5v205h55v-205q61 -6 103.5 -27.5t68.5 -55.5t37.5 -77.5t11.5 -93.5
t-11.5 -94.5t-37.5 -79t-68.5 -56t-103.5 -24.5v-185h-55zM501 241q0 36 -7 71t-25 62.5t-50 46.5t-82 24v-409q50 5 82 24.5t50 48t25 63t7 69.5z" />
    <glyph glyph-name="Euro.aalt" 
d="M112 340v26t2 26h-79v48h85q9 58 27.5 105t49 80.5t72.5 51.5t98 18q35 0 76 -11t73 -32l-15 -50q-33 21 -69 30t-65 9q-87 0 -131.5 -53.5t-57.5 -147.5h226v-48h-233q-1 -14 -1 -26v-26v-32t2 -29h235v-48h-229q15 -90 59 -141t130 -51q29 0 62.5 8t65.5 28l17 -47
q-32 -21 -71 -32t-74 -11q-54 0 -96 17t-72.5 49t-50 77.5t-28.5 102.5h-85v48h79q-1 15 -1.5 30t-0.5 31z" />
    <glyph glyph-name="uni20A8.aalt" 
d="M332 512q-10 115 -146 115h-97v53h383v-48h-152v-2q27 -15 46.5 -44t24.5 -74h81v-48h-81q-4 -41 -21.5 -71t-44.5 -49t-62.5 -28t-74.5 -9h-22l232 -302v-5h-64l-245 317v38h97q128 0 145 109h-242v48h243z" />
    <glyph glyph-name="registered.aalt" horiz-adv-x="834" 
d="M281 153v374h147q62 0 94.5 -27t32.5 -81q0 -45 -24 -70.5t-68 -34.5l116 -152v-9h-59l-117 159h-69v-159h-53zM424 357q34 0 55 13.5t21 48.5q0 36 -21 48t-55 12h-90v-122h90zM111 340q0 -67 22.5 -124.5t63 -99.5t96.5 -66t124 -24q67 0 123.5 24t97 66t63 99.5
t22.5 124.5t-22.5 124t-63 99t-97 66t-123.5 24q-68 0 -124 -24t-96.5 -66t-63 -99t-22.5 -124zM67 340q0 75 25.5 140t72 113t111 75t141.5 27t141.5 -27t111 -75t72 -113t25.5 -140t-25.5 -140t-72 -113t-111 -75.5t-141.5 -27.5t-141.5 27.5t-111 75.5t-72 113t-25.5 140
z" />
    <glyph glyph-name="uniEA04" unicode="&#xea04;" horiz-adv-x="1000" 
d="M69 765h861v-861h-861v861zM598 110h98v469h-98v-192h-195v192h-98v-469h98v195h195v-195z" />
    <glyph glyph-name="uniEA05" unicode="&#xea05;" horiz-adv-x="1000" 
d="M69 765h861v-861h-861v861zM295 344q0 -55 15 -100t44.5 -77.5t72 -50t97.5 -17.5q33 0 67.5 8t67.5 22l-27 78q-30 -14 -54.5 -19t-53.5 -5t-52 12t-39.5 33t-25.5 50.5t-9 65.5q0 72 34 116.5t92 44.5q29 0 53.5 -5t54.5 -19l27 78q-33 15 -67.5 22.5t-67.5 7.5
q-55 0 -97.5 -18t-72 -50t-44.5 -77t-15 -100z" />
    <glyph glyph-name="uniEA06" unicode="&#xea06;" horiz-adv-x="1000" 
d="M69 765h861v-861h-861v861zM331 144q31 -18 73.5 -31.5t93.5 -13.5q37 0 68.5 10.5t54 30t35 47t12.5 62.5q0 54 -32.5 84.5t-98.5 52.5l-50 16q-29 9 -39 22t-10 31q0 24 16.5 37.5t51.5 13.5q26 0 56 -7t58 -21l28 78q-35 18 -72 25.5t-69 7.5q-81 0 -125 -39t-44 -105
q0 -44 24 -77.5t89 -54.5l51 -16q38 -12 52 -24.5t14 -34.5q0 -56 -73 -56q-36 0 -73.5 12t-60.5 28z" />
    <glyph glyph-name="uniEA01" unicode="&#xea01;" horiz-adv-x="1000" 
d="M69 765h861v-861h-861v861zM857 -23v715h-715v-715h715zM598 305h-195v-195h-98v469h98v-192h195v192h98v-469h-98v195z" />
    <glyph glyph-name="uniEA02" unicode="&#xea02;" horiz-adv-x="1000" 
d="M69 765h861v-861h-861v861zM857 -23v715h-715v-715h715zM295 344q0 55 15 100t44.5 77t72 50t97.5 18q33 0 67.5 -7.5t67.5 -22.5l-27 -78q-30 14 -54.5 19t-53.5 5q-58 0 -92 -44.5t-34 -116.5q0 -36 9 -65.5t25.5 -50.5t39.5 -33t52 -12t53.5 5t54.5 19l27 -78
q-33 -14 -67.5 -22t-67.5 -8q-55 0 -97.5 17.5t-72 50t-44.5 77.5t-15 100z" />
    <glyph glyph-name="uniEA03" unicode="&#xea03;" horiz-adv-x="1000" 
d="M69 765h861v-861h-861v861zM857 -23v715h-715v-715h715zM361 222q23 -16 60.5 -28t73.5 -12q73 0 73 56q0 22 -14 34.5t-52 24.5l-51 16q-65 21 -89 54.5t-24 77.5q0 66 44 105t125 39q32 0 69 -7.5t72 -25.5l-28 -78q-28 14 -58 21t-56 7q-35 0 -51.5 -13.5t-16.5 -37.5
q0 -18 10 -31t39 -22l50 -16q66 -22 98.5 -52.5t32.5 -84.5q0 -35 -12.5 -62.5t-35 -47t-54 -30t-68.5 -10.5q-51 0 -93.5 13.5t-73.5 31.5z" />
    <glyph glyph-name="guillemotleft.aalt" horiz-adv-x="493" 
d="M63 343l140 205l37 -27l-120 -180l119 -180l-36 -27l-140 205v4zM245 343l140 205l37 -27l-120 -180l119 -180l-36 -27l-140 205v4z" />
    <glyph glyph-name="bracketleft.aalt" horiz-adv-x="308" 
d="M261 790v-41l-114 -11v-796l114 -11v-39h-170v898h170z" />
    <glyph glyph-name="guilsinglright.aalt" horiz-adv-x="312" 
d="M249 339l-140 -205l-36 27l118 180l-120 180l38 27l140 -205v-4z" />
    <glyph glyph-name="bar.aalt" horiz-adv-x="233" 
d="M142 -108h-51v898h51v-898z" />
    <glyph glyph-name="periodcentered.aalt" horiz-adv-x="258" 
d="M79 345q0 22 13.5 36.5t36.5 14.5t36.5 -14.5t13.5 -36.5t-13.5 -36.5t-36.5 -14.5t-36.5 14.5t-13.5 36.5z" />
    <glyph glyph-name="bullet.aalt" horiz-adv-x="313" 
d="M98 340q0 29 16 45.5t43 16.5q28 0 44 -16.5t16 -45.5t-16 -45.5t-44 -16.5q-27 0 -43 16.5t-16 45.5z" />
    <glyph glyph-name="emdash.aalt" horiz-adv-x="839" 
d="M81 317v48h677v-48h-677z" />
    </font>
</defs>
</svg>
