<?xml version="1.0" standalone="no"?>
<!DOCTYPE svg PUBLIC "-//W3C//DTD SVG 1.1//EN" "http://www.w3.org/Graphics/SVG/1.1/DTD/svg11.dtd" >
<svg xmlns="http://www.w3.org/2000/svg" xmlns:xlink="http://www.w3.org/1999/xlink" version="1.1">
<metadata>
Created by Christoph Koeberlin (http://christoph.koe.berlin)
Copyright (c) 2015 by Volkswagen AG. All rights reserved.
</metadata>
<defs>
<font id="Font" horiz-adv-x="590" >
  <font-face 
    font-family="Font"
    font-weight="700"
    font-style="italic"
    font-stretch="normal"
    units-per-em="1000"
    panose-1="2 11 8 4 4 2 0 0 0 3"
    ascent="800"
    descent="-200"
    x-height="482"
    cap-height="680"
    bbox="-259 -220 1104 946"
    underline-thickness="90"
    underline-position="-20"
    slope="-12"
    unicode-range="U+0020-FB02"
  />
<missing-glyph horiz-adv-x="623" 
d="M117 680h413v-680h-413v680zM472 58v564h-297v-564h297z" />
    <glyph glyph-name=".notdef" horiz-adv-x="623" 
d="M117 680h413v-680h-413v680zM472 58v564h-297v-564h297z" />
    <glyph glyph-name="glyph1" horiz-adv-x="0" 
 />
    <glyph glyph-name="glyph2" horiz-adv-x="225" 
 />
    <glyph glyph-name="space" unicode=" " horiz-adv-x="233" 
 />
    <glyph glyph-name="exclam" unicode="!" horiz-adv-x="278" 
d="M174 240h-88l33 289l32 151h145l-32 -151zM7 53q0 45 29.5 74.5t75.5 29.5q33 0 51 -18.5t18 -49.5q0 -45 -30 -74.5t-76 -29.5q-33 0 -50.5 18.5t-17.5 49.5z" />
    <glyph glyph-name="quotedbl" unicode="&#x22;" horiz-adv-x="443" 
d="M384 405h-83l10 181l20 94h139l-20 -94zM192 405h-83l10 181l20 94h139l-20 -94z" />
    <glyph glyph-name="numbersign" unicode="#" horiz-adv-x="720" 
d="M38 0l2 10l65 149h-90l15 93h117l75 170h-85l15 93h110l74 165h110l-2 -10l-69 -155h143l74 165h111l-3 -10l-69 -155h96l-15 -93h-121l-75 -170h89l-15 -93h-116l-69 -159h-110l2 10l64 149h-143l-70 -159h-110zM260 252h143l75 170h-143z" />
    <glyph glyph-name="dollar" unicode="$" 
d="M71 157q12 -9 28.5 -17.5t35.5 -15.5t40 -12.5t42 -7.5l40 191l-29 14q-60 29 -91 68.5t-31 96.5q0 43 15 80.5t44.5 66.5t73.5 47.5t103 24.5l17 77h88l-17 -78q35 -5 74 -16.5t71 -29.5l-55 -111q-26 14 -55.5 24.5t-59.5 15.5l-40 -188l6 -2q36 -17 63.5 -35
t46.5 -38.5t29 -45t10 -55.5q0 -47 -17.5 -85.5t-49 -67t-75.5 -46.5t-98 -24l-20 -96h-88l20 95q-56 5 -100.5 22.5t-75.5 38.5zM372 190q0 33 -36 62l-30 -143q66 19 66 81zM252 491q0 -17 7 -33t27 -30l30 141q-31 -11 -47.5 -31.5t-16.5 -46.5z" />
    <glyph glyph-name="percent" unicode="%" horiz-adv-x="803" 
d="M63 0l2 10l590 670h108l-2 -10l-590 -670h-108zM172 461q0 -60 38 -60q25 0 41.5 13.5t26.5 34.5t14 46.5t4 49.5q0 62 -42 62q-21 0 -36.5 -12.5t-25.5 -33.5t-15 -47t-5 -53zM391 546q0 -49 -14 -90.5t-39.5 -71.5t-61 -47t-78.5 -17q-59 0 -90.5 40t-31.5 102
q0 49 14 90.5t39.5 71.5t60.5 47t76 17q62 0 93.5 -39.5t31.5 -102.5zM532 133q0 -60 38 -60q25 0 41.5 13.5t26.5 34.5t14 46.5t4 49.5q0 62 -42 62q-21 0 -36.5 -12.5t-25.5 -33.5t-15 -47t-5 -53zM751 218q0 -49 -14 -90.5t-39.5 -71.5t-61 -47t-78.5 -17q-59 0 -90.5 40
t-31.5 102q0 49 14 90.5t39.5 71.5t60.5 47t76 17q62 0 93.5 -39.5t31.5 -102.5z" />
    <glyph glyph-name="ampersand" unicode="&#x26;" horiz-adv-x="732" 
d="M705 304q-40 -45 -79.5 -85t-75.5 -72l111 -137l-2 -10h-156l-52 64q-57 -38 -115.5 -58.5t-119.5 -20.5q-45 0 -81 11.5t-61 32.5t-38 50t-13 63q0 48 19 84t48.5 63t64 45.5t64.5 30.5l10 4l-6 8q-6 7 -14 19.5t-15.5 29t-13 35.5t-5.5 40q0 38 17.5 73t48 62t73 43
t93.5 16q39 0 70.5 -12.5t54 -34t34.5 -49.5t12 -58q0 -37 -12.5 -65.5t-33 -51.5t-47.5 -41.5t-57 -33.5l-25 -13l77 -99q30 28 65 63t72 77zM291 282l-14 -6q-15 -6 -33.5 -16t-35 -23.5t-27.5 -31t-11 -40.5q0 -28 18 -44.5t48 -16.5q43 0 75 13.5t70 38.5zM307 500
q0 -28 23 -59l13 -18l30 15q35 17 55.5 37.5t20.5 49.5q0 22 -15 38t-42 16q-39 0 -62 -23.5t-23 -55.5z" />
    <glyph glyph-name="quotesingle" unicode="'" horiz-adv-x="251" 
d="M192 405h-83l10 181l20 94h139l-20 -94z" />
    <glyph glyph-name="parenleft" unicode="(" horiz-adv-x="299" 
d="M23 95q0 99 22 188.5t57.5 168.5t80.5 145t91 119l70 -47q-67 -101 -107.5 -192t-62 -169.5t-28 -143t-6.5 -113.5q0 -27 1.5 -57.5t4 -61.5t6.5 -60.5t9 -53.5l-85 -32q-12 26 -21.5 60.5t-16.5 75t-11 84.5t-4 89z" />
    <glyph glyph-name="parenright" unicode=")" horiz-adv-x="299" 
d="M262 407q0 -99 -22 -188.5t-57.5 -168.5t-80.5 -145.5t-91 -118.5l-70 47q67 101 107.5 192t62 169.5t28 143t6.5 113.5q0 27 -1.5 57.5t-4 61.5t-6.5 60.5t-9 53.5l85 32q12 -26 21.5 -60.5t16.5 -75t11 -84.5t4 -89z" />
    <glyph glyph-name="asterisk" unicode="*" horiz-adv-x="438" 
d="M218 462l-102 -67l-30 88l112 45v2l-92 45l64 80l74 -67l2 1l12 111h96l-36 -111l1 -1l103 67l30 -88l-112 -44v-2l92 -46l-65 -80l-74 68l-2 -1l-11 -113h-97l37 112z" />
    <glyph glyph-name="plus" unicode="+" 
d="M356 323h198l-21 -103h-198l-46 -214h-106l45 214h-197l22 103h197l45 213h107z" />
    <glyph glyph-name="comma" unicode="," horiz-adv-x="275" 
d="M-73 -151l128 293h135l-3 -10l-161 -293h-101z" />
    <glyph glyph-name="hyphen" unicode="-" horiz-adv-x="409" 
d="M48 220l22 103h285l-21 -103h-286z" />
    <glyph glyph-name="period" unicode="." horiz-adv-x="268" 
d="M4 53q0 45 29.5 74.5t75.5 29.5q33 0 50.5 -18.5t17.5 -49.5q0 -45 -29.5 -74.5t-75.5 -29.5q-33 0 -50.5 18.5t-17.5 49.5z" />
    <glyph glyph-name="slash" unicode="/" horiz-adv-x="450" 
d="M-34 0l2 10l420 670h120l-2 -10l-421 -670h-119z" />
    <glyph glyph-name="zero" unicode="0" 
d="M176 232q0 -63 19.5 -95.5t62.5 -32.5q31 0 63.5 16t58 56t42 106t16.5 167q0 63 -19 95t-61 32q-32 0 -64.5 -16t-58.5 -55.5t-42.5 -106t-16.5 -166.5zM582 452q0 -125 -26.5 -213.5t-73 -145t-108.5 -82.5t-132 -26q-54 0 -94 17.5t-65.5 49.5t-38 77t-12.5 100
q0 124 26.5 212.5t72.5 144.5t108 82.5t134 26.5q54 0 93.5 -17.5t65 -49.5t38 -77t12.5 -99z" />
    <glyph glyph-name="one" unicode="1" 
d="M154 502l26 122l177 56h103l-120 -564h139l-25 -116h-417l25 116h139l91 423h-2l-124 -37h-12z" />
    <glyph glyph-name="two" unicode="2" 
d="M216 116h276l-25 -116h-467l21 100l305 246q43 35 68.5 68.5t25.5 75.5q0 38 -22 62t-60 24q-47 0 -84.5 -22t-73.5 -51l-65 92q16 15 41.5 32.5t57 32.5t67 25t72.5 10q47 0 86.5 -12.5t68 -36.5t44.5 -59.5t16 -80.5q0 -42 -16.5 -78t-40.5 -65.5t-49.5 -52
t-43.5 -36.5l-202 -156v-2z" />
    <glyph glyph-name="three" unicode="3" 
d="M170 401h113q36 0 60.5 9t39 24t21 34t6.5 40q0 31 -21.5 49.5t-68.5 18.5q-37 0 -81.5 -9t-85.5 -25l-27 108q46 20 103 32.5t107 12.5q112 0 168 -43.5t56 -116.5q0 -39 -13.5 -71.5t-33.5 -57t-44.5 -41t-46.5 -23.5v-2q38 -15 62.5 -47.5t24.5 -83.5q0 -102 -78 -163
t-226 -61q-69 0 -118.5 15t-86.5 36l50 110q35 -20 77.5 -31t92.5 -11q30 0 56 7t46 21t31.5 35t11.5 48q0 35 -24.5 52.5t-81.5 17.5h-114z" />
    <glyph glyph-name="four" unicode="4" 
d="M386 459h139l-43 -199h75l-25 -116h-74l-31 -144h-139l31 144h-317l21 100l280 436h142l-263 -420h162z" />
    <glyph glyph-name="five" unicode="5" 
d="M101 323l113 357h368l-24 -116h-248l-42 -135q5 1 13.5 1.5t16.5 0.5q48 0 88.5 -10t69.5 -31t45 -54t16 -78q0 -63 -22.5 -113.5t-64.5 -86t-102.5 -54.5t-135.5 -19q-17 0 -41 2t-50.5 6.5t-52.5 11.5t-48 17l47 117q41 -19 86.5 -27t77.5 -8q79 0 118 36t39 94
q0 38 -27.5 58t-90.5 20q-32 0 -67.5 -2t-67.5 -4z" />
    <glyph glyph-name="six" unicode="6" 
d="M513 670l-202 -230l1 -2q11 5 28.5 9t35.5 4q40 0 72.5 -14t55.5 -39t35.5 -59t12.5 -74q0 -57 -21 -107.5t-60 -89t-95 -61t-126 -22.5q-56 0 -98 15.5t-70 42.5t-42 62.5t-14 75.5q0 64 25 115t73 108l232 276h160zM405 249q0 42 -24 62.5t-67 20.5q-64 0 -102.5 -35
t-38.5 -104q0 -43 24 -66t68 -23q63 0 101.5 39t38.5 106z" />
    <glyph glyph-name="seven" unicode="7" 
d="M68 10l368 552v2h-311l25 116h462l-21 -100l-379 -580h-146z" />
    <glyph glyph-name="eight" unicode="8" 
d="M258 104q35 0 60.5 9.5t41.5 25t23.5 36.5t7.5 45q0 33 -21.5 53.5t-71.5 20.5q-38 0 -63.5 -9.5t-41.5 -26t-22.5 -37.5t-6.5 -43q0 -33 22 -53.5t72 -20.5zM373 695q52 0 90.5 -12t63.5 -33.5t37.5 -50t12.5 -61.5q0 -38 -10.5 -68t-28 -52.5t-39.5 -38t-45 -25.5v-2
q36 -17 58.5 -51.5t22.5 -83.5q0 -51 -19 -93.5t-56 -73.5t-91.5 -48t-126.5 -17q-114 0 -171 47t-57 120q0 78 43.5 131.5t111.5 78.5v2q-25 14 -42.5 41.5t-17.5 68.5q0 46 16 86t48.5 70t82 47.5t117.5 17.5zM323 410q30 0 50 8.5t32.5 22.5t17.5 33.5t5 40.5
q0 29 -16.5 45t-53.5 16q-30 0 -50 -8.5t-32.5 -22.5t-17.5 -33.5t-5 -40.5q0 -29 16 -45t54 -16z" />
    <glyph glyph-name="nine" unicode="9" 
d="M102 10l202 230l-1 2q-11 -5 -28.5 -9t-35.5 -4q-40 0 -72.5 14t-55.5 39t-35.5 59t-12.5 74q0 57 21 107.5t60 89t95 61t126 22.5q56 0 98 -15.5t70 -42.5t42 -62.5t14 -75.5q0 -64 -25 -115t-73 -108l-232 -276h-160zM210 431q0 -42 24 -62.5t67 -20.5q64 0 102.5 35
t38.5 104q0 43 -24 66t-68 23q-63 0 -101.5 -39t-38.5 -106z" />
    <glyph glyph-name="colon" unicode=":" horiz-adv-x="292" 
d="M87 393q0 45 29.5 74.5t75.5 29.5q33 0 50.5 -18.5t17.5 -49.5q0 -45 -29.5 -74.5t-75.5 -29.5q-33 0 -50.5 18.5t-17.5 49.5zM15 53q0 45 29.5 74.5t75.5 29.5q33 0 50.5 -18.5t17.5 -49.5q0 -45 -29.5 -74.5t-75.5 -29.5q-33 0 -50.5 18.5t-17.5 49.5z" />
    <glyph glyph-name="semicolon" unicode=";" horiz-adv-x="296" 
d="M-70 -151l128 293h135l-3 -10l-161 -293h-101zM96 393q0 45 29.5 74.5t75.5 29.5q33 0 50.5 -18.5t17.5 -49.5q0 -45 -29.5 -74.5t-75.5 -29.5q-33 0 -50.5 18.5t-17.5 49.5z" />
    <glyph glyph-name="less" unicode="&#x3c;" 
d="M460 -4l-444 225l21 99l540 225h9l-23 -113l-418 -164v-3l348 -164l-23 -105h-10z" />
    <glyph glyph-name="equal" unicode="=" 
d="M55 333l22 103h501l-22 -103h-501zM7 107l22 103h501l-22 -103h-501z" />
    <glyph glyph-name="greater" unicode="&#x3e;" 
d="M0 -4l23 114l418 164v3l-347 164l23 104h10l443 -225l-21 -99l-539 -225h-10z" />
    <glyph glyph-name="question" unicode="?" horiz-adv-x="514" 
d="M179 240l22 129q37 11 69.5 25.5t55.5 32.5t36.5 39.5t13.5 46.5t-17.5 44t-52.5 19q-45 0 -81 -21t-71 -50l-62 93q16 15 40.5 32t54.5 31.5t65 24t73 9.5q96 0 148.5 -43t52.5 -115q0 -51 -21.5 -90t-54 -68t-70 -49t-68.5 -33l-24 -57h-109zM111 53q0 45 29.5 74.5
t75.5 29.5q33 0 51 -18.5t18 -49.5q0 -45 -30 -74.5t-76 -29.5q-33 0 -50.5 18.5t-17.5 49.5z" />
    <glyph glyph-name="at" unicode="@" horiz-adv-x="914" 
d="M562 -109q-36 -13 -81.5 -22t-102.5 -9q-81 0 -144.5 22t-107.5 63.5t-67.5 102t-23.5 137.5q0 104 39.5 200t110 169.5t167.5 117t212 43.5q78 0 138 -24.5t100 -66t60.5 -97t20.5 -117.5q0 -85 -25 -152.5t-64 -114t-87.5 -71t-94.5 -24.5q-50 0 -75 17.5t-35 46.5h-2
q-30 -21 -63.5 -36.5t-75.5 -15.5q-30 0 -54.5 10.5t-42 29.5t-26.5 44.5t-9 55.5q0 49 19.5 103t54 99t82 74.5t102.5 29.5q41 0 68 -15.5t42 -31.5h1l30 35h78l-104 -266q-17 -45 -13.5 -71.5t39.5 -26.5q27 0 56.5 18.5t54.5 53.5t41 86.5t16 117.5q0 46 -13.5 88
t-42.5 73t-74.5 49.5t-109.5 18.5q-98 0 -177 -37.5t-135 -99t-86.5 -140.5t-30.5 -163q0 -119 64.5 -187.5t193.5 -68.5q48 0 89.5 9t71.5 20zM561 389q-12 11 -29.5 17t-37.5 6q-32 0 -60 -18.5t-48.5 -47t-32 -63t-11.5 -66.5q0 -28 13 -45t43 -17q20 0 44.5 8.5
t42.5 22.5z" />
    <glyph glyph-name="A" unicode="A" horiz-adv-x="656" 
d="M594 0h-148l-14 140h-259l-74 -140h-157l389 680h163zM385 538l-150 -286h182l-29 286h-3z" />
    <glyph glyph-name="B" unicode="B" horiz-adv-x="646" 
d="M181 116h125q40 0 66.5 7.5t42 22t21.5 35t6 46.5q0 34 -23.5 50.5t-80.5 16.5h-119zM398 680q109 0 167 -38t58 -113q0 -36 -9.5 -65.5t-26 -52t-39 -38.5t-47.5 -25v-2q39 -17 62 -47t23 -77q0 -51 -14.5 -92t-47.5 -70t-87 -44.5t-134 -15.5h-285l145 680h235z
M243 404h100q38 0 63 6t40 18t21 31t6 46q0 33 -23 46t-75 13h-98z" />
    <glyph glyph-name="C" unicode="C" horiz-adv-x="602" 
d="M53 260q0 90 27 169t78 138.5t126 93.5t171 34q47 0 92.5 -11t87.5 -33l-50 -110q-38 19 -70.5 27t-74.5 8q-56 0 -100 -24t-75.5 -65.5t-48 -96.5t-16.5 -116q0 -76 34.5 -123t104.5 -47q42 0 78.5 8t82.5 27l23 -110q-51 -22 -101.5 -33t-97.5 -11q-65 0 -115.5 19.5
t-85 55.5t-52.5 86.5t-18 113.5z" />
    <glyph glyph-name="D" unicode="D" horiz-adv-x="688" 
d="M163 680h200q77 0 132.5 -17t91 -49t52 -78t16.5 -104q0 -125 -30.5 -208.5t-85.5 -133t-131.5 -70t-169.5 -20.5h-220zM240 116q64 0 114 14.5t84.5 49.5t52.5 93.5t18 146.5q0 73 -38.5 108.5t-135.5 35.5h-58l-96 -448h59z" />
    <glyph glyph-name="E" unicode="E" horiz-adv-x="582" 
d="M611 680l-25 -116h-309l-35 -163h277l-25 -116h-277l-36 -169h313l-25 -116h-451l145 680h448z" />
    <glyph glyph-name="F" unicode="F" horiz-adv-x="567" 
d="M611 680l-25 -116h-309l-40 -187h277l-25 -116h-277l-55 -261h-139l145 680h448z" />
    <glyph glyph-name="G" unicode="G" horiz-adv-x="681" 
d="M643 365l-70 -325q-54 -24 -119.5 -39.5t-137.5 -15.5q-65 0 -114 19.5t-82.5 55t-50.5 85.5t-17 111q0 82 26 161t77.5 141t129.5 99.5t183 37.5q68 0 124.5 -15.5t91.5 -33.5l-52 -108q-35 16 -80.5 27t-99.5 11q-69 0 -117.5 -26.5t-78.5 -70t-43.5 -99t-13.5 -113.5
q0 -74 33 -118.5t106 -44.5q31 0 59.5 4t54.5 14l27 127l-114 17l21 99h257z" />
    <glyph glyph-name="H" unicode="H" horiz-adv-x="712" 
d="M495 285h-278l-60 -285h-139l145 680h138l-59 -279h278l59 279h139l-145 -680h-139z" />
    <glyph glyph-name="I" unicode="I" horiz-adv-x="295" 
d="M157 0h-139l145 680h138z" />
    <glyph glyph-name="J" unicode="J" horiz-adv-x="471" 
d="M37 156q18 -21 40 -36.5t60 -15.5q23 0 41 9t31 24.5t21.5 35.5t13.5 43l99 464h138l-103 -485q-21 -100 -85.5 -155t-164.5 -55q-60 0 -100.5 22t-64.5 49z" />
    <glyph glyph-name="K" unicode="K" horiz-adv-x="632" 
d="M221 304l-64 -304h-139l145 680h138l-70 -329h2l304 329h161l-2 -10l-329 -347l201 -313l-2 -10h-153l-190 304h-2z" />
    <glyph glyph-name="L" unicode="L" horiz-adv-x="523" 
d="M301 680l-120 -564h287l-25 -116h-425l145 680h138z" />
    <glyph glyph-name="M" unicode="M" horiz-adv-x="829" 
d="M416 316l279 364h140l-145 -680h-138l94 442h-2l-196 -271h-111l-84 271h-2l-94 -442h-139l145 680h127l124 -364h2z" />
    <glyph glyph-name="N" unicode="N" horiz-adv-x="726" 
d="M492 206l101 474h139l-145 -680h-147l-180 474h-3l-100 -474h-139l145 680h146l180 -474h3z" />
    <glyph glyph-name="O" unicode="O" horiz-adv-x="750" 
d="M199 267q0 -35 7.5 -65t24.5 -51.5t43 -34t64 -12.5q68 0 113.5 29.5t73 75t39 100t11.5 104.5q0 35 -7.5 65t-24 51.5t-42.5 34t-63 12.5q-69 0 -114.5 -29.5t-73.5 -75t-39.5 -100t-11.5 -104.5zM721 421q0 -82 -24 -160.5t-73.5 -139.5t-124.5 -98.5t-177 -37.5
q-68 0 -118.5 20.5t-84 57.5t-50 86.5t-16.5 108.5q0 82 24 160.5t73.5 140t124.5 99t178 37.5q67 0 117.5 -20.5t84 -57.5t50 -87t16.5 -109z" />
    <glyph glyph-name="P" unicode="P" horiz-adv-x="594" 
d="M18 0l145 680h244q50 0 86.5 -12.5t60.5 -35.5t36 -55t12 -71q0 -53 -14 -102.5t-46 -88.5t-83.5 -62.5t-127.5 -23.5h-126l-48 -229h-139zM230 345h106q33 0 55.5 13t36.5 33t20 45.5t6 50.5q0 34 -16.5 55.5t-54.5 21.5h-106z" />
    <glyph glyph-name="Q" unicode="Q" horiz-adv-x="749" 
d="M721 421q0 -57 -11.5 -112.5t-35 -105t-59 -91.5t-83.5 -71l135 -74l-80 -109l-214 130q-26 -3 -51 -3q-68 0 -118.5 20.5t-84 57.5t-50 86.5t-16.5 108.5q0 82 24 160.5t73.5 140t124.5 99t178 37.5q67 0 117.5 -20.5t84 -57.5t50 -87t16.5 -109zM199 267q0 -35 7.5 -65
t24.5 -51.5t43 -34t64 -12.5q68 0 113.5 29.5t73 75t39 100t11.5 104.5q0 35 -7.5 65t-24 51.5t-42.5 34t-63 12.5q-69 0 -114.5 -29.5t-73.5 -75t-39.5 -100t-11.5 -104.5z" />
    <glyph glyph-name="R" unicode="R" horiz-adv-x="657" 
d="M18 0l145 680h272q105 0 155.5 -44.5t50.5 -125.5q0 -42 -12 -79.5t-36 -68t-60.5 -52.5t-85.5 -32l125 -262l-3 -16h-145l-120 269h-90l-57 -269h-139zM376 385q54 0 85 31t31 79q0 32 -20 50.5t-58 18.5h-137l-38 -179h137z" />
    <glyph glyph-name="S" unicode="S" horiz-adv-x="558" 
d="M56 157q13 -10 33.5 -19.5t43.5 -17.5t47.5 -13t47.5 -5q67 0 98 23t31 65q0 50 -77 87l-67 32q-60 29 -91 68.5t-31 96.5q0 47 18 87.5t53.5 70t88 46.5t122.5 17q20 0 44 -3t48.5 -9.5t49 -15.5t45.5 -21l-55 -111q-32 18 -71.5 30.5t-75.5 12.5q-57 0 -89 -25t-32 -62
q0 -20 10.5 -39t42.5 -35l66 -32q36 -17 63.5 -35t46.5 -38.5t29 -45t10 -55.5q0 -52 -21.5 -94t-60 -71t-92.5 -45t-118 -16q-68 0 -122 19.5t-90 43.5z" />
    <glyph glyph-name="T" unicode="T" horiz-adv-x="559" 
d="M621 680l-25 -116h-187l-120 -564h-139l120 564h-187l25 116h513z" />
    <glyph glyph-name="U" unicode="U" horiz-adv-x="697" 
d="M294 680l-85 -401q-8 -38 -7.5 -70t12 -55t35 -36.5t62.5 -13.5q38 0 67 13.5t50.5 36.5t35.5 55t22 70l85 401h139l-90 -422q-13 -62 -37.5 -112.5t-63.5 -86t-94.5 -55t-129.5 -19.5q-146 0 -199.5 81t-22.5 224l82 390h139z" />
    <glyph glyph-name="V" unicode="V" horiz-adv-x="650" 
d="M727 670l-377 -670h-170l-92 670l2 10h146l55 -534h3l279 534h156z" />
    <glyph glyph-name="W" unicode="W" horiz-adv-x="990" 
d="M1057 670l-323 -670h-165l-21 527h-1l-244 -527h-167l-38 670l2 10h145l-2 -530h2l250 530h162l24 -530h2l222 530h154z" />
    <glyph glyph-name="X" unicode="X" horiz-adv-x="616" 
d="M252 680l81 -256h2l190 256h155l-2 -10l-258 -329l117 -331l-2 -10h-147l-79 257h-2l-188 -257h-157l2 10l257 331l-117 329l3 10h145z" />
    <glyph glyph-name="Y" unicode="Y" horiz-adv-x="594" 
d="M228 680l87 -280h2l207 280h156l-2 -10l-314 -396l-58 -274h-139l59 274l-147 396l2 10h147z" />
    <glyph glyph-name="Z" unicode="Z" horiz-adv-x="581" 
d="M619 680l-21 -100l-415 -462v-2h316l-25 -116h-496l21 100l414 462v2h-294l24 116h476z" />
    <glyph glyph-name="bracketleft" unicode="[" horiz-adv-x="328" 
d="M384 700l-15 -73l-120 -23l-150 -706l110 -23l-16 -73h-228l191 898h228z" />
    <glyph glyph-name="backslash" unicode="\" horiz-adv-x="437" 
d="M241 0l-135 670l2 10h112l135 -670l-2 -10h-112z" />
    <glyph glyph-name="bracketright" unicode="]" horiz-adv-x="328" 
d="M349 700l-191 -898h-228l16 73l119 23l150 706l-110 23l16 73h228z" />
    <glyph glyph-name="asciicircum" unicode="^" horiz-adv-x="494" 
d="M563 372h-129l-66 203h-4l-152 -203h-137l2 10l248 318h127l113 -318z" />
    <glyph glyph-name="underscore" unicode="_" horiz-adv-x="492" 
d="M-25 -113l20 93h376l-20 -93h-376z" />
    <glyph glyph-name="grave" unicode="`" horiz-adv-x="578" 
d="M332 713h137l50 -136l-2 -10h-114l-73 137z" />
    <glyph glyph-name="a" unicode="a" horiz-adv-x="589" 
d="M394 361q-17 12 -37 18.5t-46 6.5q-38 0 -65.5 -16t-45 -42t-25.5 -60t-8 -70q0 -45 18.5 -73.5t63.5 -28.5q26 0 50.5 9.5t45.5 23.5zM340 43q-23 -20 -59 -39t-88 -19q-43 0 -74.5 15.5t-51.5 42.5t-30 63t-10 76q0 60 17 117t49.5 101t80 70.5t107.5 26.5
q27 0 48.5 -5.5t39 -14.5t31 -19t24.5 -19h2l28 43h99l-81 -377q-2 -11 -1 -14.5t12 -3.5h35l-19 -92q-17 -3 -33.5 -5t-38.5 -2q-38 0 -57.5 13.5t-27.5 41.5h-2z" />
    <glyph glyph-name="b" unicode="b" horiz-adv-x="585" 
d="M165 121q36 -25 87 -25q39 0 67 16t46 42.5t27 60t9 69.5q0 45 -21 73.5t-66 28.5q-26 0 -51.5 -9t-47.5 -24zM288 700l-54 -253h2q23 17 55 33.5t79 16.5q43 0 75 -16t53.5 -43t32 -63t10.5 -76q0 -60 -18 -117t-51.5 -100.5t-82 -70t-108.5 -26.5q-52 0 -88.5 20
t-58.5 38h-2l-28 -43h-100l149 700h135z" />
    <glyph glyph-name="c" unicode="c" horiz-adv-x="478" 
d="M26 187q0 68 21 125t60.5 98t96 64t127.5 23q44 0 81.5 -10t58.5 -19l-38 -103q-20 7 -44 14t-56 7t-62 -10.5t-53 -33t-37 -57t-14 -82.5q0 -57 30 -82t75 -25q32 0 59 7t49 14l15 -103q-26 -9 -67.5 -19t-85.5 -10q-53 0 -93 14.5t-67.5 41t-41.5 64t-14 82.5z" />
    <glyph glyph-name="d" unicode="d" horiz-adv-x="585" 
d="M403 361q-36 25 -88 25q-38 0 -66 -16t-46.5 -42t-27.5 -60t-9 -70q0 -45 21 -73.5t66 -28.5q26 0 53 9.5t48 23.5zM610 700l-149 -700h-100l-10 43h-2q-27 -21 -63.5 -39.5t-88.5 -18.5q-43 0 -75 15.5t-53.5 42.5t-32 63t-10.5 77q0 60 18 117t52 100.5t82 70t108 26.5
q49 0 82 -17t51 -33h2l54 253h135z" />
    <glyph glyph-name="e" unicode="e" horiz-adv-x="537" 
d="M161 202q-1 -4 -1 -10v-8q0 -44 24 -67.5t71 -23.5q41 0 79.5 9.5t76.5 23.5l21 -100q-39 -17 -91 -29t-109 -12q-53 0 -92 16t-64.5 44t-38 65t-12.5 79q0 60 20.5 115.5t58 98.5t91 68.5t119.5 25.5q50 0 86.5 -14t60 -37t35 -54t11.5 -65q0 -44 -11.5 -75t-20.5 -50
h-314zM377 286q7 19 7 40q0 31 -17.5 52t-62.5 21q-25 0 -45.5 -9.5t-36 -25.5t-26.5 -36t-17 -42h198z" />
    <glyph glyph-name="f" unicode="f" horiz-adv-x="377" 
d="M43 0l80 379h-83l16 73l89 30l14 64q18 84 65 121.5t120 37.5q10 0 23 -0.5t26 -2t25 -3t20 -3.5l-24 -109q-14 3 -32 5t-30 2q-26 0 -39.5 -10.5t-20.5 -43.5l-12 -58h117l-22 -103h-117l-81 -379h-134z" />
    <glyph glyph-name="g" unicode="g" horiz-adv-x="584" 
d="M402 360q-17 12 -39.5 19t-48.5 7q-39 0 -67 -15.5t-45.5 -41.5t-26 -59t-8.5 -68q0 -45 21 -71t66 -26q26 0 52 9t48 22zM463 14q-23 -109 -93 -168t-191 -59q-59 0 -101.5 16t-73.5 36l50 99q26 -16 60 -28t79 -12q58 0 88.5 24t44.5 84l8 36h-2q-23 -19 -56.5 -33.5
t-77.5 -14.5q-43 0 -75 15t-53.5 41t-32 61t-10.5 75q0 60 17.5 116t51 99.5t81.5 69.5t108 26q53 0 87 -19t56 -40h2l27 44h105z" />
    <glyph glyph-name="h" unicode="h" horiz-adv-x="576" 
d="M322 0l62 290q10 46 -5 71t-58 25q-36 0 -65 -17.5t-46 -32.5l-71 -336h-135l149 700h135l-55 -258h2q23 19 58.5 37t83.5 18q85 0 124 -54t19 -148l-63 -295h-135z" />
    <glyph glyph-name="i" unicode="i" horiz-adv-x="262" 
d="M4 0l102 482h135l-103 -482h-134zM128 626q0 37 27 62.5t68 25.5q31 0 48 -17t17 -43q0 -37 -27 -62.5t-69 -25.5q-30 0 -47 17t-17 43z" />
    <glyph glyph-name="j" unicode="j" horiz-adv-x="261" 
d="M240 482l-113 -529q-17 -82 -63 -124t-135 -42q-16 0 -38 2.5t-37 5.5l23 109q24 -6 51 -6q29 0 44.5 15t22.5 48l111 521h134zM127 626q0 37 27.5 62.5t68.5 25.5q31 0 47.5 -17t16.5 -43q0 -37 -27 -62.5t-69 -25.5q-30 0 -47 17t-17 43z" />
    <glyph glyph-name="k" unicode="k" horiz-adv-x="525" 
d="M186 223l-47 -223h-135l149 700h135l-93 -435h2l202 217h155l-3 -10l-230 -235l141 -227l-2 -10h-144l-128 223h-2z" />
    <glyph glyph-name="l" unicode="l" horiz-adv-x="288" 
d="M201 -2q-17 -3 -34 -5t-39 -2q-69 0 -92.5 35t-6.5 112l119 562h135l-126 -592q-2 -11 -1 -14.5t12 -3.5h53z" />
    <glyph glyph-name="m" unicode="m" horiz-adv-x="893" 
d="M214 482l7 -47h3q12 10 27 21t33.5 20t42 15t51.5 6q53 0 89 -19.5t50 -54.5h2q11 10 26.5 23t37 24.5t49.5 19t65 7.5q43 0 74 -14t49 -39t23 -61t-4 -79l-65 -304h-135l62 290q10 48 -2 72t-58 24q-35 0 -65 -16t-50 -32q0 -8 -1 -16.5t-3 -17.5l-65 -304h-135l62 290
q10 46 -2.5 71t-59.5 25q-35 0 -63 -15.5t-48 -29.5l-72 -341h-135l102 482h108z" />
    <glyph glyph-name="n" unicode="n" horiz-adv-x="575" 
d="M215 482l8 -47h2q12 10 26.5 21t33.5 20t42 15t51 6q84 0 122.5 -54t18.5 -149l-63 -294h-134l62 290q20 96 -63 96q-34 0 -63 -15.5t-47 -29.5l-72 -341h-135l102 482h109z" />
    <glyph glyph-name="o" unicode="o" horiz-adv-x="583" 
d="M164 200q0 -52 23.5 -78t63.5 -26q32 0 59.5 12.5t47.5 36.5t31.5 58.5t11.5 78.5q0 52 -23.5 78t-64.5 26q-31 0 -58 -12.5t-47.5 -36.5t-32 -58.5t-11.5 -78.5zM540 290q0 -60 -20.5 -115t-59.5 -97.5t-95 -67.5t-127 -25q-53 0 -93 16.5t-66.5 45t-40 66.5t-13.5 80
q0 60 21 115t60.5 97t95 67t124.5 25q54 0 94 -16.5t66.5 -45t40 -66t13.5 -79.5z" />
    <glyph glyph-name="p" unicode="p" horiz-adv-x="582" 
d="M205 482l9 -43h2q27 20 63.5 39t89.5 19q43 0 75 -15.5t53 -42.5t31.5 -63t10.5 -76q0 -60 -18 -117t-51.5 -101t-81.5 -70.5t-108 -26.5q-46 0 -79.5 17t-53.5 33h-2l-49 -233h-135l145 680h99zM164 121q36 -25 87 -25q39 0 67 16t46 42.5t27 60t9 69.5q0 45 -21 73.5
t-66 28.5q-26 0 -51.5 -9t-47.5 -24z" />
    <glyph glyph-name="q" unicode="q" horiz-adv-x="584" 
d="M418 -198h-135l50 233h-2q-23 -19 -55.5 -34.5t-78.5 -15.5q-43 0 -75 15.5t-53.5 42.5t-32 63t-10.5 76q0 60 18 117t51.5 101t81.5 70.5t108 26.5q27 0 49 -5.5t40.5 -14.5t33 -19t25.5 -19h2l28 43h99zM403 361q-36 25 -88 25q-38 0 -66 -16t-46.5 -42t-27.5 -60
t-9 -70q0 -45 21 -73.5t66 -28.5q26 0 53 9.5t48 23.5z" />
    <glyph glyph-name="r" unicode="r" horiz-adv-x="366" 
d="M216 482l6 -58h2q20 28 49 50.5t76 22.5q12 0 24.5 -2t20.5 -4l-25 -113q-11 2 -24.5 3t-21.5 1q-42 0 -69.5 -17t-44.5 -34l-70 -331h-135l102 482h110z" />
    <glyph glyph-name="s" unicode="s" horiz-adv-x="465" 
d="M39 128q32 -18 68.5 -29.5t75.5 -11.5q84 0 84 52q0 17 -14 28t-40 20l-59 20q-20 7 -38.5 17.5t-32.5 25.5t-22.5 34.5t-8.5 45.5q0 81 59 124t165 43q48 0 88.5 -8.5t78.5 -25.5l-44 -97q-29 12 -62.5 20.5t-68.5 8.5q-44 0 -62.5 -13t-18.5 -36q0 -17 13.5 -27
t37.5 -18l57 -20q46 -16 77 -46t31 -80q0 -85 -62 -127.5t-166 -42.5q-57 0 -101.5 12t-82.5 34z" />
    <glyph glyph-name="t" unicode="t" horiz-adv-x="406" 
d="M304 594l-24 -112h130l-22 -103h-130l-48 -228q-13 -55 44 -55q18 0 41.5 4.5t41.5 10.5l-24 -110q-14 -5 -43.5 -10.5t-66.5 -5.5q-80 0 -114 35.5t-16 119.5l51 239h-87l16 73l92 30l24 112h135z" />
    <glyph glyph-name="u" unicode="u" horiz-adv-x="569" 
d="M235 482l-62 -290q-10 -48 3 -72t56 -24q33 0 62 15.5t46 29.5l73 341h134l-102 -482h-109l-8 47h-2q-12 -10 -26.5 -21t-32.5 -20t-40.5 -15t-50.5 -6q-85 0 -121.5 53.5t-16.5 147.5l63 296h134z" />
    <glyph glyph-name="v" unicode="v" horiz-adv-x="532" 
d="M559 472l-282 -472h-146l-81 472l2 10h132l44 -345h2l191 345h140z" />
    <glyph glyph-name="w" unicode="w" horiz-adv-x="826" 
d="M847 472l-240 -472h-148l-33 347h-2l-180 -347h-147l-40 472l2 10h130l14 -334h2l171 334h146l29 -334h2l156 334h140z" />
    <glyph glyph-name="x" unicode="x" horiz-adv-x="533" 
d="M246 168l-135 -168h-150l2 10l199 231l-101 231l2 10h140l64 -169h2l135 169h150l-2 -10l-199 -231l101 -231l-3 -10h-139l-64 168h-2z" />
    <glyph glyph-name="y" unicode="y" horiz-adv-x="524" 
d="M549 472l-327 -550q-40 -67 -92 -101t-114 -34q-24 0 -43 2.5t-36 6.5l20 107q17 -3 34 -4t25 -1q32 0 53 12t38 41l31 54l-90 467l2 10h136l42 -328h3l176 328h144z" />
    <glyph glyph-name="z" unicode="z" horiz-adv-x="468" 
d="M468 482l-15 -71l-284 -306v-2h219l-22 -103h-391l15 71l284 306v2h-204l22 103h376z" />
    <glyph glyph-name="braceleft" unicode="{" horiz-adv-x="363" 
d="M27 299q38 0 67.5 20t37.5 59l30 144q9 40 22.5 73t37 56t60 36t91.5 13h46l-15 -73q-58 0 -87.5 -28.5t-40.5 -79.5l-30 -143q-13 -60 -39 -90.5t-73 -38.5l-1 -2q44 -8 57 -38.5t0 -90.5l-28 -133q-11 -51 6.5 -79.5t75.5 -28.5l-16 -73h-26q-54 0 -88 13t-51.5 38
t-19 62t8.5 84l26 125q8 39 -12.5 59t-58.5 20z" />
    <glyph glyph-name="bar" unicode="|" horiz-adv-x="223" 
d="M53 -198h-88l191 898h88z" />
    <glyph glyph-name="braceright" unicode="}" horiz-adv-x="364" 
d="M323 203q-38 0 -67.5 -20t-37.5 -59l-30 -144q-9 -40 -22.5 -73t-37 -56t-60 -36t-91.5 -13h-46l15 73q58 0 87.5 28.5t40.5 79.5l30 143q13 60 39 90.5t73 38.5l1 2q-44 8 -57 38.5t0 90.5l28 133q11 51 -6.5 79.5t-75.5 28.5l16 73h26q54 0 88 -13t51.5 -38t19 -62
t-8.5 -84l-26 -125q-8 -39 12.5 -59t58.5 -20z" />
    <glyph glyph-name="asciitilde" unicode="~" horiz-adv-x="559" 
d="M50 285q30 33 61.5 49t75.5 16q31 0 57 -8.5t49.5 -19t47 -19t50.5 -8.5q25 0 40.5 5t33.5 19l40 -63q-31 -33 -62 -48.5t-74 -15.5q-29 0 -54.5 8.5t-50 19t-49 19t-52.5 8.5q-26 0 -42.5 -6t-31.5 -19z" />
    <glyph glyph-name="uni00A0" unicode="&#xa0;" horiz-adv-x="233" 
 />
    <glyph glyph-name="exclamdown" unicode="&#xa1;" horiz-adv-x="268" 
d="M81 242h88l-33 -289l-32 -151h-145l32 151zM248 429q0 -45 -29.5 -74.5t-75.5 -29.5q-33 0 -50.5 18.5t-17.5 49.5q0 45 29.5 74.5t75.5 29.5q33 0 50.5 -18.5t17.5 -49.5z" />
    <glyph glyph-name="cent" unicode="&#xa2;" 
d="M82 187q0 64 18.5 118.5t54 95t86 65t114.5 29.5l18 83h88l-19 -86q27 -5 49 -11.5t36 -12.5l-38 -103q-15 5 -32 10.5t-38 8.5l-61 -286q23 3 42 8.5t36 10.5l15 -103q-20 -8 -51 -15.5t-65 -11.5l-18 -83h-88l18 85q-81 13 -123 66t-42 132zM223 203q0 -38 13 -61
t36 -34l58 268q-45 -15 -76 -57.5t-31 -115.5z" />
    <glyph glyph-name="sterling" unicode="&#xa3;" 
d="M284 283q-1 -14 -3 -28t-5 -28q-7 -33 -27.5 -61t-45.5 -48v-2h286l-24 -116h-449l20 96q45 22 64 48.5t26 57.5q5 20 6.5 40t3.5 41h-70l22 103h56q2 21 6 44t9 49q23 109 87.5 162.5t181.5 53.5q47 0 94.5 -12.5t85.5 -32.5l-50 -110q-32 16 -68 26t-78 10
q-87 0 -108 -97q-5 -25 -8 -47.5t-5 -45.5h176l-22 -103h-161z" />
    <glyph glyph-name="currency" unicode="&#xa4;" 
d="M476 308q0 -26 -9 -61t-37 -72l67 -92l-80 -65l-71 89q-21 -10 -45 -16t-49 -6t-43 6.5t-35 15.5l-110 -90l-61 75l112 91q-3 9 -6 23.5t-3 26.5q0 38 12 71.5t35 65.5l-66 91l82 64l68 -88q42 18 90 18q26 0 46 -6.5t35 -16.5l113 92l60 -74l-112 -94q3 -10 5 -23t2 -25
zM218 243q0 -32 13.5 -49t36.5 -17q40 0 68 33.5t28 87.5q0 31 -14 48t-38 17q-18 0 -35 -8.5t-30 -24.5t-21 -38t-8 -49z" />
    <glyph glyph-name="yen" unicode="&#xa5;" 
d="M329 124l-26 -124h-139l27 124h-184l22 103h183l15 66h-184l22 103h125l-94 274l2 10h148l71 -260h2l182 260h156l-2 -10l-210 -274h123l-22 -103h-181l-14 -66h181l-22 -103h-181z" />
    <glyph glyph-name="brokenbar" unicode="&#xa6;" horiz-adv-x="238" 
d="M132 134l-71 -332h-88l71 332h88zM93 368l71 332h88l-71 -332h-88z" />
    <glyph glyph-name="section" unicode="&#xa7;" horiz-adv-x="574" 
d="M235 342q-20 -11 -31.5 -32t-11.5 -42q0 -16 8 -31t31 -25l104 -44q26 16 34 36.5t8 34.5q0 43 -37 59zM412 122q31 -19 44 -47.5t13 -57.5q0 -50 -20 -86.5t-56.5 -61.5t-87 -37t-110.5 -12q-68 0 -125 19t-95 43l53 111q37 -20 82.5 -39t95.5 -19q56 0 86 15.5t30 47.5
q0 16 -13.5 31.5t-49.5 30.5l-105 45q-53 23 -80.5 55.5t-27.5 79.5q0 28 9 50.5t24.5 40.5t35.5 32t42 24v2q-25 19 -40 46t-15 62q0 95 70.5 146.5t201.5 51.5q47 0 95 -9.5t93 -35.5l-52 -108q-37 17 -75.5 27.5t-76.5 10.5q-59 0 -84.5 -19t-25.5 -47q0 -16 11.5 -31
t43.5 -28l88 -36q72 -29 102.5 -65.5t30.5 -81.5q0 -54 -32.5 -89.5t-79.5 -58.5v-2z" />
    <glyph glyph-name="dieresis" unicode="&#xa8;" horiz-adv-x="578" 
d="M236 626q0 37 27 62.5t68 25.5q31 0 48 -17t17 -43q0 -37 -27 -62.5t-69 -25.5q-30 0 -47 17t-17 43zM453 626q0 37 27 62.5t68 25.5q31 0 48 -17t17 -43q0 -37 -27 -62.5t-69 -25.5q-31 0 -47.5 17t-16.5 43z" />
    <glyph glyph-name="copyright" unicode="&#xa9;" horiz-adv-x="796" 
d="M54 279q0 87 35 162.5t93.5 132t134.5 89t159 32.5q66 0 119.5 -22.5t91.5 -62.5t59 -93.5t21 -115.5q0 -87 -35 -162.5t-93.5 -132t-135 -89t-158.5 -32.5q-66 0 -119.5 22.5t-91.5 62.5t-59 93.5t-21 115.5zM126 288q0 -51 16.5 -94t46.5 -74.5t72.5 -49t94.5 -17.5
q69 0 130.5 27.5t108 74t73.5 108.5t27 132q0 50 -15.5 92.5t-45 73.5t-71 48.5t-92.5 17.5q-69 0 -131.5 -27t-110 -73t-75.5 -108t-28 -131zM221 300q0 51 15.5 94t44.5 74.5t71 49t96 17.5q26 0 54 -6t52 -18l-29 -72q-23 12 -41.5 16t-41.5 4q-25 0 -47.5 -11.5t-40 -31
t-27.5 -47t-10 -58.5q0 -41 20 -65.5t54 -24.5q23 0 43 4t49 16l18 -72q-29 -12 -59.5 -18t-56.5 -6q-40 0 -70.5 11.5t-51.5 32t-31.5 49t-10.5 62.5z" />
    <glyph glyph-name="ordfeminine" unicode="&#xaa;" horiz-adv-x="379" 
d="M230 478q-26 0 -41 -10t-15 -30q0 -23 27 -23q17 0 34.5 6t30.5 13l9 44h-45zM273 350l-10 27h-1q-16 -12 -41.5 -24t-54.5 -12q-47 0 -70 23.5t-23 55.5q0 60 41.5 89t118.5 29h55l2 9q5 19 -4 28t-38 9q-26 0 -54 -5.5t-55 -14.5l-8 75q28 9 63 16.5t71 7.5
q69 0 100.5 -34.5t18.5 -94.5l-39 -184h-72zM34 196l18 87h279l-19 -87h-278z" />
    <glyph glyph-name="guillemotleft" unicode="&#xab;" horiz-adv-x="536" 
d="M34 276l204 219l73 -56l-142 -177l63 -176l-89 -41l-112 219zM252 276l204 219l73 -56l-142 -177l63 -176l-89 -41l-112 219z" />
    <glyph glyph-name="logicalnot" unicode="&#xac;" 
d="M437 220h-409l22 103h501l-47 -224h-92z" />
    <glyph glyph-name="uni00AD" unicode="&#xad;" horiz-adv-x="409" 
d="M48 220l22 103h285l-21 -103h-286z" />
    <glyph glyph-name="registered" unicode="&#xae;" horiz-adv-x="531" 
d="M95 525q0 56 22.5 104.5t60.5 84t86.5 56t101.5 20.5q42 0 76.5 -15t59 -41t38 -61t13.5 -75q0 -56 -22.5 -104.5t-60.5 -84t-87 -56t-102 -20.5q-42 0 -76.5 15t-59 41t-37.5 61t-13 75zM150 529q0 -31 10 -57t28.5 -45.5t44.5 -30.5t58 -11q42 0 79.5 17t65.5 45.5
t44.5 67t16.5 80.5q0 30 -9.5 56t-27 45t-43 30t-56.5 11q-42 0 -80 -17t-67.5 -45.5t-46.5 -66t-17 -79.5zM213 455l46 218h97q35 0 51.5 -16t16.5 -41q0 -29 -17 -49t-47 -28l41 -79l-1 -5h-56l-37 80h-23l-17 -80h-54zM334 579q17 0 25.5 9t8.5 20q0 9 -5 14t-19 5h-40
l-11 -48h41z" />
    <glyph glyph-name="macron" unicode="&#xaf;" horiz-adv-x="577" 
d="M269 579l22 103h285l-21 -103h-286z" />
    <glyph glyph-name="degree" unicode="&#xb0;" horiz-adv-x="438" 
d="M189 511q0 -30 17.5 -45.5t47.5 -15.5q44 0 70.5 25t26.5 69q0 28 -16.5 44.5t-47.5 16.5q-42 0 -70 -26t-28 -68zM91 497q0 45 16.5 82t45 62.5t66.5 39.5t82 14q69 0 108.5 -37t39.5 -99q0 -46 -16 -83t-44.5 -63.5t-67 -40.5t-82.5 -14q-69 0 -108.5 38t-39.5 101z
" />
    <glyph glyph-name="plusminus" unicode="&#xb1;" 
d="M382 433h198l-22 -103h-198l-31 -144h-106l30 144h-197l22 103h197l41 193h107zM509 103l-21 -103h-502l22 103h501z" />
    <glyph glyph-name="uni00B2" unicode="&#xb2;" horiz-adv-x="326" 
d="M215 524h134l-16 -76h-271l15 70l169 117q26 17 31.5 32t5.5 27q0 14 -8.5 24.5t-25.5 10.5q-24 0 -44 -12.5t-40 -29.5l-45 60q10 9 24.5 20t33 20t40.5 15t48 6q49 0 83 -25.5t34 -71.5q0 -47 -25 -77t-64 -56l-79 -52v-2z" />
    <glyph glyph-name="uni00B3" unicode="&#xb3;" horiz-adv-x="321" 
d="M157 662h68q28 0 39.5 10t11.5 30q0 11 -9 19t-33 8q-22 0 -47 -4.5t-45 -12.5l-16 73q25 9 55.5 16t66.5 7q60 0 94 -24t34 -66q0 -21 -7 -37t-17.5 -27.5t-24 -18.5t-25.5 -10v-1q23 -8 36 -25t13 -41q0 -26 -9 -48t-29.5 -37.5t-54.5 -24t-83 -8.5q-34 0 -63 7.5
t-50 20.5l33 74q16 -9 40.5 -15.5t50.5 -6.5q38 0 54.5 11t16.5 33q0 13 -11.5 17t-36.5 4h-69z" />
    <glyph glyph-name="acute" unicode="&#xb4;" horiz-adv-x="578" 
d="M550 704l-131 -137h-122l2 10l107 136h146z" />
    <glyph glyph-name="mu" unicode="&#xb5;" horiz-adv-x="578" 
d="M-37 -198l145 680h135l-62 -290q-10 -48 2.5 -72t55.5 -24q16 0 32 5t29.5 11.5t25 14.5t20.5 14l74 341h135l-103 -482h-109l-8 47h-2q-12 -9 -26.5 -20t-31.5 -20.5t-36.5 -15.5t-42.5 -6q-14 0 -30 5t-26 11l-42 -199h-135z" />
    <glyph glyph-name="paragraph" unicode="&#xb6;" horiz-adv-x="597" 
d="M223 328q-33 0 -60.5 9t-47.5 27t-31.5 44t-11.5 60q0 49 19 88.5t50.5 67t72 42t84.5 14.5h351l-18 -85h-93l-169 -793h-87l169 793h-83l-168 -793h-88z" />
    <glyph glyph-name="periodcentered" unicode="&#xb7;" horiz-adv-x="276" 
d="M53 273q0 45 29.5 74.5t75.5 29.5q33 0 50.5 -18.5t17.5 -49.5q0 -45 -29.5 -74.5t-75.5 -29.5q-33 0 -50.5 18.5t-17.5 49.5z" />
    <glyph glyph-name="cedilla" unicode="&#xb8;" horiz-adv-x="578" 
d="M203 -88l57 95h79l-33 -52q26 -5 40 -22t14 -41q0 -48 -34 -76.5t-99 -28.5q-23 0 -40.5 3.5t-30.5 8.5l22 63q22 -8 40 -8q39 0 39 29q0 8 -5 12.5t-12.5 7t-16.5 3t-17 0.5z" />
    <glyph glyph-name="uni00B9" unicode="&#xb9;" horiz-adv-x="251" 
d="M95 654l18 88l140 58h70l-75 -352h-92l54 250h-2l-104 -44h-9z" />
    <glyph glyph-name="ordmasculine" unicode="&#xba;" horiz-adv-x="386" 
d="M167 480q0 -32 15.5 -44t37.5 -12q36 0 61.5 22.5t25.5 78.5q0 31 -15.5 43t-38.5 12q-17 0 -32.5 -5t-27.5 -17t-19 -31t-7 -47zM407 529q0 -38 -14.5 -72t-40.5 -59.5t-62.5 -41t-81.5 -15.5q-35 0 -61.5 11t-44.5 29t-27 42.5t-9 51.5q0 38 15 72t41.5 60t63 41
t80.5 15q35 0 61.5 -11t44 -29t26.5 -42.5t9 -51.5zM32 196l18 87h279l-19 -87h-278z" />
    <glyph glyph-name="guillemotright" unicode="&#xbb;" horiz-adv-x="536" 
d="M279 264l-204 -219l-73 56l142 177l-63 176l89 41l112 -219zM497 264l-204 -219l-73 56l142 177l-63 176l89 41l112 -219z" />
    <glyph glyph-name="onequarter" unicode="&#xbc;" horiz-adv-x="746" 
d="M20 0l2 10l590 670h108l-2 -10l-590 -670h-108zM86 534l18 88l140 58h70l-75 -352h-92l54 250h-2l-104 -44h-9zM576 244h91l-20 -93h41l-16 -76h-41l-16 -75h-90l16 75h-169l14 68l133 209h95l-121 -200v-1h64z" />
    <glyph glyph-name="onehalf" unicode="&#xbd;" horiz-adv-x="762" 
d="M19 0l2 10l590 670h108l-2 -10l-590 -670h-108zM85 534l18 88l140 58h70l-75 -352h-92l54 250h-2l-104 -44h-9zM547 76h134l-16 -76h-271l15 70l169 117q26 17 31.5 32t5.5 27q0 14 -8.5 24.5t-25.5 10.5q-24 0 -44 -12.5t-40 -29.5l-45 60q10 9 24.5 20t33 20t40.5 15
t48 6q49 0 83 -25.5t34 -71.5q0 -47 -25 -77t-64 -56l-79 -52v-2z" />
    <glyph glyph-name="threequarters" unicode="&#xbe;" horiz-adv-x="783" 
d="M58 0l2 10l590 670h108l-2 -10l-590 -670h-108zM613 244h91l-20 -93h41l-16 -76h-41l-16 -75h-90l16 75h-169l14 68l133 209h95l-121 -200v-1h64zM147 539h68q28 0 39.5 10t11.5 30q0 11 -9 19t-33 8q-22 0 -47 -4.5t-45 -12.5l-16 73q25 9 55.5 16t66.5 7q60 0 94 -24
t34 -66q0 -21 -7 -37t-17.5 -27.5t-24 -18.5t-25.5 -10v-1q23 -8 36 -25t13 -41q0 -26 -9 -48t-29.5 -37.5t-54.5 -24t-83 -8.5q-34 0 -63 7.5t-50 20.5l33 74q16 -9 40.5 -15.5t50.5 -6.5q38 0 54.5 11t16.5 33q0 13 -11.5 17t-36.5 4h-69z" />
    <glyph glyph-name="questiondown" unicode="&#xbf;" horiz-adv-x="510" 
d="M313.98 241.985l-21.998 -128.992q-36.998 -10.999 -69.4961 -25.498q-32.498 -14.5 -55.4961 -32.498q-22.999 -17.999 -36.498 -39.498t-13.499 -46.4971t17.499 -43.9971q17.498 -18.999 52.4961 -18.999q44.998 0 80.9951 20.999q35.998 20.998 70.9961 49.9961
l61.9961 -92.9941q-15.999 -14.999 -40.498 -31.998q-24.498 -16.999 -54.4961 -31.498t-64.9961 -23.998q-34.998 -9.5 -72.9951 -9.5q-95.9941 0 -148.491 42.998q-52.4971 42.9971 -52.4971 114.992q0 50.9971 21.499 89.9951q21.498 38.9971 53.9961 67.9961
q32.498 28.998 69.9961 48.9961q37.498 19.999 68.4961 32.998l23.998 56.9971h108.993zM381.977 428.974q0 -44.9971 -29.498 -74.4951t-75.4951 -29.498q-32.998 0 -50.9971 18.499q-17.999 18.498 -17.999 49.4961q0 44.998 29.998 74.4961t75.9951 29.498
q32.998 0 50.4971 -18.499t17.499 -49.4971z" />
    <glyph glyph-name="Agrave" unicode="&#xc0;" horiz-adv-x="656" 
d="M594 0h-148l-14 140h-259l-74 -140h-157l389 680h163zM385 538l-150 -286h182l-29 286h-3zM327 896h148l29 -136l-2 -10h-124l-53 137z" />
    <glyph glyph-name="Aacute" unicode="&#xc1;" horiz-adv-x="656" 
d="M594 0h-148l-14 140h-259l-74 -140h-157l389 680h163zM385 538l-150 -286h182l-29 286h-3zM593 887l-111 -137h-132l2 10l87 136h156z" />
    <glyph glyph-name="Acircumflex" unicode="&#xc2;" horiz-adv-x="656" 
d="M594 0h-148l-14 140h-259l-74 -140h-157l389 680h163zM385 538l-150 -286h182l-29 286h-3zM600 760l-2 -10h-107l-45 79l-78 -79h-115l2 10l139 136h126z" />
    <glyph glyph-name="Atilde" unicode="&#xc3;" horiz-adv-x="656" 
d="M594 0h-148l-14 140h-259l-74 -140h-157l389 680h163zM385 538l-150 -286h182l-29 286h-3zM270 831q22 28 52.5 47t62.5 19q22 0 38.5 -7t32 -15.5t31 -15.5t35.5 -7t41.5 9.5t36.5 24.5l16 -68q-24 -32 -53.5 -49.5t-57.5 -17.5q-22 0 -40.5 7t-35 15.5t-32.5 15.5
t-33 7q-43 0 -78 -35z" />
    <glyph glyph-name="Adieresis" unicode="&#xc4;" horiz-adv-x="656" 
d="M594 0h-148l-14 140h-259l-74 -140h-157l389 680h163zM385 538l-150 -286h182l-29 286h-3zM234 805q0 37 27 62.5t68 25.5q31 0 48 -17t17 -43q0 -37 -27 -62.5t-69 -25.5q-30 0 -47 17t-17 43zM492 805q0 37 27 62.5t68 25.5q31 0 48 -17t17 -43q0 -37 -27 -62.5
t-69 -25.5q-30 0 -47 17t-17 43z" />
    <glyph glyph-name="Aring" unicode="&#xc5;" horiz-adv-x="654" 
d="M303 733q0 30 11 54.5t30.5 41.5t45.5 26t55 9q49 0 76.5 -26t27.5 -68q0 -38 -17 -66.5t-46 -45.5l107 -658h-148l-14 140h-259l-74 -140h-157l390 664q-28 26 -28 69zM384 538l-150 -286h182l-29 286h-3zM384 744q0 -31 34 -31q22 0 36 12.5t14 34.5q0 14 -9 22.5
t-24 8.5q-22 0 -36.5 -13t-14.5 -34z" />
    <glyph glyph-name="AE" unicode="&#xc6;" horiz-adv-x="942" 
d="M-78 10l537 670h512l-25 -116h-309l-35 -163h277l-24 -116h-277l-36 -169h312l-24 -116h-452l30 140h-229l-110 -140h-149zM491 544l-225 -292h166l62 292h-3z" />
    <glyph glyph-name="Ccedilla" unicode="&#xc7;" horiz-adv-x="602" 
d="M53 260q0 90 27 169t78 138.5t126 93.5t171 34q47 0 92.5 -11t87.5 -33l-50 -110q-38 19 -70.5 27t-74.5 8q-56 0 -100 -24t-75.5 -65.5t-48 -96.5t-16.5 -116q0 -76 34.5 -123t104.5 -47q42 0 78.5 8t82.5 27l23 -110q-51 -22 -100 -32.5t-95 -11.5l-19 -30
q26 -5 40 -22t14 -41q0 -48 -34 -76.5t-99 -28.5q-23 0 -40.5 3.5t-30.5 8.5l22 63q22 -8 40 -8q39 0 39 29q0 8 -5 12.5t-12.5 7t-16.5 3t-17 0.5l-3 6l47 80q-97 19 -148.5 89.5t-51.5 178.5z" />
    <glyph glyph-name="Egrave" unicode="&#xc8;" horiz-adv-x="582" 
d="M611 680l-25 -116h-309l-35 -163h277l-25 -116h-277l-36 -169h313l-25 -116h-451l145 680h448zM298 896h148l29 -136l-2 -10h-124l-53 137z" />
    <glyph glyph-name="Eacute" unicode="&#xc9;" horiz-adv-x="582" 
d="M611 680l-25 -116h-309l-35 -163h277l-25 -116h-277l-36 -169h313l-25 -116h-451l145 680h448zM582 887l-111 -137h-132l2 10l87 136h156z" />
    <glyph glyph-name="Ecircumflex" unicode="&#xca;" horiz-adv-x="582" 
d="M611 680l-25 -116h-309l-35 -163h277l-25 -116h-277l-36 -169h313l-25 -116h-451l145 680h448zM576 760l-2 -10h-107l-45 79l-78 -79h-115l2 10l139 136h126z" />
    <glyph glyph-name="Edieresis" unicode="&#xcb;" horiz-adv-x="582" 
d="M611 680l-25 -116h-309l-35 -163h277l-25 -116h-277l-36 -169h313l-25 -116h-451l145 680h448zM206 805q0 37 27 62.5t68 25.5q31 0 48 -17t17 -43q0 -37 -27 -62.5t-69 -25.5q-30 0 -47 17t-17 43zM464 805q0 37 27 62.5t68 25.5q31 0 48 -17t17 -43q0 -37 -27 -62.5
t-69 -25.5q-30 0 -47 17t-17 43z" />
    <glyph glyph-name="Igrave" unicode="&#xcc;" horiz-adv-x="295" 
d="M157 0h-139l145 680h138zM139 896h148l29 -136l-2 -10h-124l-53 137z" />
    <glyph glyph-name="Iacute" unicode="&#xcd;" horiz-adv-x="295" 
d="M157 0h-139l145 680h138zM424 887l-111 -137h-132l2 10l87 136h156z" />
    <glyph glyph-name="Icircumflex" unicode="&#xce;" horiz-adv-x="295" 
d="M157 0h-139l145 680h138zM422 760l-2 -10h-107l-45 79l-78 -79h-115l2 10l139 136h126z" />
    <glyph glyph-name="Idieresis" unicode="&#xcf;" horiz-adv-x="295" 
d="M157 0h-139l145 680h138zM52 805q0 37 27 62.5t68 25.5q31 0 48 -17t17 -43q0 -37 -27 -62.5t-69 -25.5q-30 0 -47 17t-17 43zM310 805q0 37 27 62.5t68 25.5q31 0 48 -17t17 -43q0 -37 -27 -62.5t-69 -25.5q-30 0 -47 17t-17 43z" />
    <glyph glyph-name="Eth" unicode="&#xd0;" horiz-adv-x="688" 
d="M77 277h-48l25 116h48l61 287h200q77 0 132.5 -17t91 -49t52 -78t16.5 -104q0 -125 -30.5 -208.5t-85.5 -133t-131.5 -70t-169.5 -20.5h-220zM240 116q64 0 114 14.5t84.5 49.5t52.5 93.5t18 146.5q0 73 -38.5 108.5t-135.5 35.5h-58l-37 -171h110l-24 -116h-111
l-34 -161h59z" />
    <glyph glyph-name="Ntilde" unicode="&#xd1;" horiz-adv-x="726" 
d="M492 206l101 474h139l-145 -680h-147l-180 474h-3l-100 -474h-139l145 680h146l180 -474h3zM298 831q22 28 52.5 47t62.5 19q22 0 38.5 -7t32 -15.5t31 -15.5t35.5 -7t41.5 9.5t36.5 24.5l16 -68q-24 -32 -53.5 -49.5t-57.5 -17.5q-22 0 -40.5 7t-35 15.5t-32.5 15.5
t-33 7q-43 0 -78 -35z" />
    <glyph glyph-name="Ograve" unicode="&#xd2;" horiz-adv-x="750" 
d="M199 267q0 -35 7.5 -65t24.5 -51.5t43 -34t64 -12.5q68 0 113.5 29.5t73 75t39 100t11.5 104.5q0 35 -7.5 65t-24 51.5t-42.5 34t-63 12.5q-69 0 -114.5 -29.5t-73.5 -75t-39.5 -100t-11.5 -104.5zM721 421q0 -82 -24 -160.5t-73.5 -139.5t-124.5 -98.5t-177 -37.5
q-68 0 -118.5 20.5t-84 57.5t-50 86.5t-16.5 108.5q0 82 24 160.5t73.5 140t124.5 99t178 37.5q67 0 117.5 -20.5t84 -57.5t50 -87t16.5 -109zM382 896h148l29 -136l-2 -10h-124l-53 137z" />
    <glyph glyph-name="Oacute" unicode="&#xd3;" horiz-adv-x="750" 
d="M199 267q0 -35 7.5 -65t24.5 -51.5t43 -34t64 -12.5q68 0 113.5 29.5t73 75t39 100t11.5 104.5q0 35 -7.5 65t-24 51.5t-42.5 34t-63 12.5q-69 0 -114.5 -29.5t-73.5 -75t-39.5 -100t-11.5 -104.5zM721 421q0 -82 -24 -160.5t-73.5 -139.5t-124.5 -98.5t-177 -37.5
q-68 0 -118.5 20.5t-84 57.5t-50 86.5t-16.5 108.5q0 82 24 160.5t73.5 140t124.5 99t178 37.5q67 0 117.5 -20.5t84 -57.5t50 -87t16.5 -109zM649 887l-111 -137h-132l2 10l87 136h156z" />
    <glyph glyph-name="Ocircumflex" unicode="&#xd4;" horiz-adv-x="750" 
d="M199 267q0 -35 7.5 -65t24.5 -51.5t43 -34t64 -12.5q68 0 113.5 29.5t73 75t39 100t11.5 104.5q0 35 -7.5 65t-24 51.5t-42.5 34t-63 12.5q-69 0 -114.5 -29.5t-73.5 -75t-39.5 -100t-11.5 -104.5zM721 421q0 -82 -24 -160.5t-73.5 -139.5t-124.5 -98.5t-177 -37.5
q-68 0 -118.5 20.5t-84 57.5t-50 86.5t-16.5 108.5q0 82 24 160.5t73.5 140t124.5 99t178 37.5q67 0 117.5 -20.5t84 -57.5t50 -87t16.5 -109zM652 760l-2 -10h-107l-45 79l-78 -79h-115l2 10l139 136h126z" />
    <glyph glyph-name="Otilde" unicode="&#xd5;" horiz-adv-x="750" 
d="M199 267q0 -35 7.5 -65t24.5 -51.5t43 -34t64 -12.5q68 0 113.5 29.5t73 75t39 100t11.5 104.5q0 35 -7.5 65t-24 51.5t-42.5 34t-63 12.5q-69 0 -114.5 -29.5t-73.5 -75t-39.5 -100t-11.5 -104.5zM721 421q0 -82 -24 -160.5t-73.5 -139.5t-124.5 -98.5t-177 -37.5
q-68 0 -118.5 20.5t-84 57.5t-50 86.5t-16.5 108.5q0 82 24 160.5t73.5 140t124.5 99t178 37.5q67 0 117.5 -20.5t84 -57.5t50 -87t16.5 -109zM318 831q22 28 52.5 47t62.5 19q22 0 38.5 -7t32 -15.5t31 -15.5t35.5 -7t41.5 9.5t36.5 24.5l16 -68q-24 -32 -53.5 -49.5
t-57.5 -17.5q-22 0 -40.5 7t-35 15.5t-32.5 15.5t-33 7q-43 0 -78 -35z" />
    <glyph glyph-name="Odieresis" unicode="&#xd6;" horiz-adv-x="750" 
d="M199 267q0 -35 7.5 -65t24.5 -51.5t43 -34t64 -12.5q68 0 113.5 29.5t73 75t39 100t11.5 104.5q0 35 -7.5 65t-24 51.5t-42.5 34t-63 12.5q-69 0 -114.5 -29.5t-73.5 -75t-39.5 -100t-11.5 -104.5zM721 421q0 -82 -24 -160.5t-73.5 -139.5t-124.5 -98.5t-177 -37.5
q-68 0 -118.5 20.5t-84 57.5t-50 86.5t-16.5 108.5q0 82 24 160.5t73.5 140t124.5 99t178 37.5q67 0 117.5 -20.5t84 -57.5t50 -87t16.5 -109zM282 805q0 37 27 62.5t68 25.5q31 0 48 -17t17 -43q0 -37 -27 -62.5t-69 -25.5q-30 0 -47 17t-17 43zM540 805q0 37 27 62.5
t68 25.5q31 0 48 -17t17 -43q0 -37 -27 -62.5t-69 -25.5q-30 0 -47 17t-17 43z" />
    <glyph glyph-name="multiply" unicode="&#xd7;" 
d="M222 274l-126 164l82 69l126 -165l200 168l60 -76l-201 -168l124 -162l-81 -69l-125 162l-199 -166l-60 76z" />
    <glyph glyph-name="Oslash" unicode="&#xd8;" horiz-adv-x="750" 
d="M42 21l58 66q-24 35 -35.5 78t-11.5 93q0 82 24 160.5t73.5 140t124.5 99t178 37.5q88 0 150 -37l51 59l67 -58l-53 -60q26 -35 39.5 -80.5t13.5 -97.5q0 -82 -24 -160.5t-73.5 -139.5t-124.5 -98.5t-177 -37.5q-48 0 -87.5 10.5t-70.5 29.5l-53 -61zM575 413q0 37 -9 69
l-312 -355q32 -23 84 -23q68 0 113.5 29.5t73 75t39 100t11.5 104.5zM199 267q0 -33 6 -60l308 350q-30 19 -75 19q-69 0 -114.5 -29.5t-73.5 -75t-39.5 -100t-11.5 -104.5z" />
    <glyph glyph-name="Ugrave" unicode="&#xd9;" horiz-adv-x="697" 
d="M294 680l-85 -401q-8 -38 -7.5 -70t12 -55t35 -36.5t62.5 -13.5q38 0 67 13.5t50.5 36.5t35.5 55t22 70l85 401h139l-90 -422q-13 -62 -37.5 -112.5t-63.5 -86t-94.5 -55t-129.5 -19.5q-146 0 -199.5 81t-22.5 224l82 390h139zM345 896h148l29 -136l-2 -10h-124l-53 137z
" />
    <glyph glyph-name="Uacute" unicode="&#xda;" horiz-adv-x="697" 
d="M294 680l-85 -401q-8 -38 -7.5 -70t12 -55t35 -36.5t62.5 -13.5q38 0 67 13.5t50.5 36.5t35.5 55t22 70l85 401h139l-90 -422q-13 -62 -37.5 -112.5t-63.5 -86t-94.5 -55t-129.5 -19.5q-146 0 -199.5 81t-22.5 224l82 390h139zM623 887l-111 -137h-132l2 10l87 136h156z
" />
    <glyph glyph-name="Ucircumflex" unicode="&#xdb;" horiz-adv-x="697" 
d="M294 680l-85 -401q-8 -38 -7.5 -70t12 -55t35 -36.5t62.5 -13.5q38 0 67 13.5t50.5 36.5t35.5 55t22 70l85 401h139l-90 -422q-13 -62 -37.5 -112.5t-63.5 -86t-94.5 -55t-129.5 -19.5q-146 0 -199.5 81t-22.5 224l82 390h139zM620 760l-2 -10h-107l-45 79l-78 -79h-115
l2 10l139 136h126z" />
    <glyph glyph-name="Udieresis" unicode="&#xdc;" horiz-adv-x="697" 
d="M294 680l-85 -401q-8 -38 -7.5 -70t12 -55t35 -36.5t62.5 -13.5q38 0 67 13.5t50.5 36.5t35.5 55t22 70l85 401h139l-90 -422q-13 -62 -37.5 -112.5t-63.5 -86t-94.5 -55t-129.5 -19.5q-146 0 -199.5 81t-22.5 224l82 390h139zM253 805q0 37 27 62.5t68 25.5q31 0 48 -17
t17 -43q0 -37 -27 -62.5t-69 -25.5q-30 0 -47 17t-17 43zM511 805q0 37 27 62.5t68 25.5q31 0 48 -17t17 -43q0 -37 -27 -62.5t-69 -25.5q-30 0 -47 17t-17 43z" />
    <glyph glyph-name="Yacute" unicode="&#xdd;" horiz-adv-x="594" 
d="M228 680l87 -280h2l207 280h156l-2 -10l-314 -396l-58 -274h-139l59 274l-147 396l2 10h147zM567 887l-111 -137h-132l2 10l87 136h156z" />
    <glyph glyph-name="Thorn" unicode="&#xde;" horiz-adv-x="599" 
d="M18 0l145 680h138l-22 -106h106q52 0 89 -13.5t60.5 -37t34.5 -55t11 -68.5q0 -54 -14.5 -104.5t-47 -88.5t-84 -61t-125.5 -23h-126l-26 -123h-139zM208 239h106q33 0 55.5 13t36.5 33t20 45.5t6 50.5q0 34 -17 55.5t-55 21.5h-106z" />
    <glyph glyph-name="germandbls" unicode="&#xdf;" horiz-adv-x="627" 
d="M101 457q26 124 102.5 186t188.5 62q43 0 79 -11.5t62 -33t40.5 -52.5t14.5 -70q0 -35 -9.5 -62t-25.5 -48t-36 -36t-41 -25v-2q38 -15 66.5 -52.5t28.5 -91.5q0 -109 -72 -172.5t-222 -63.5q-17 0 -36 1.5t-31 4.5l23 110q12 -2 27 -3.5t27 -1.5q80 0 113 35.5t33 96.5
q0 80 -110 80h-27l22 103h25q47 0 75 31t28 82q0 32 -20.5 51t-60.5 19q-45 0 -79 -30.5t-50 -103.5l-98 -460h-134z" />
    <glyph glyph-name="agrave" unicode="&#xe0;" horiz-adv-x="589" 
d="M394 361q-17 12 -37 18.5t-46 6.5q-38 0 -65.5 -16t-45 -42t-25.5 -60t-8 -70q0 -45 18.5 -73.5t63.5 -28.5q26 0 50.5 9.5t45.5 23.5zM340 43q-23 -20 -59 -39t-88 -19q-43 0 -74.5 15.5t-51.5 42.5t-30 63t-10 76q0 60 17 117t49.5 101t80 70.5t107.5 26.5
q27 0 48.5 -5.5t39 -14.5t31 -19t24.5 -19h2l28 43h99l-81 -377q-2 -11 -1 -14.5t12 -3.5h35l-19 -92q-17 -3 -33.5 -5t-38.5 -2q-38 0 -57.5 13.5t-27.5 41.5h-2zM229 713h137l50 -136l-2 -10h-114l-73 137z" />
    <glyph glyph-name="aacute" unicode="&#xe1;" horiz-adv-x="589" 
d="M394 361q-17 12 -37 18.5t-46 6.5q-38 0 -65.5 -16t-45 -42t-25.5 -60t-8 -70q0 -45 18.5 -73.5t63.5 -28.5q26 0 50.5 9.5t45.5 23.5zM340 43q-23 -20 -59 -39t-88 -19q-43 0 -74.5 15.5t-51.5 42.5t-30 63t-10 76q0 60 17 117t49.5 101t80 70.5t107.5 26.5
q27 0 48.5 -5.5t39 -14.5t31 -19t24.5 -19h2l28 43h99l-81 -377q-2 -11 -1 -14.5t12 -3.5h35l-19 -92q-17 -3 -33.5 -5t-38.5 -2q-38 0 -57.5 13.5t-27.5 41.5h-2zM533 704l-131 -137h-122l2 10l107 136h146z" />
    <glyph glyph-name="acircumflex" unicode="&#xe2;" horiz-adv-x="589" 
d="M394 361q-17 12 -37 18.5t-46 6.5q-38 0 -65.5 -16t-45 -42t-25.5 -60t-8 -70q0 -45 18.5 -73.5t63.5 -28.5q26 0 50.5 9.5t45.5 23.5zM340 43q-23 -20 -59 -39t-88 -19q-43 0 -74.5 15.5t-51.5 42.5t-30 63t-10 76q0 60 17 117t49.5 101t80 70.5t107.5 26.5
q27 0 48.5 -5.5t39 -14.5t31 -19t24.5 -19h2l28 43h99l-81 -377q-2 -11 -1 -14.5t12 -3.5h35l-19 -92q-17 -3 -33.5 -5t-38.5 -2q-38 0 -57.5 13.5t-27.5 41.5h-2zM511 577l-2 -10h-108l-37 69l-65 -69h-115l2 10l118 136h147z" />
    <glyph glyph-name="atilde" unicode="&#xe3;" horiz-adv-x="589" 
d="M394 361q-17 12 -37 18.5t-46 6.5q-38 0 -65.5 -16t-45 -42t-25.5 -60t-8 -70q0 -45 18.5 -73.5t63.5 -28.5q26 0 50.5 9.5t45.5 23.5zM340 43q-23 -20 -59 -39t-88 -19q-43 0 -74.5 15.5t-51.5 42.5t-30 63t-10 76q0 60 17 117t49.5 101t80 70.5t107.5 26.5
q27 0 48.5 -5.5t39 -14.5t31 -19t24.5 -19h2l28 43h99l-81 -377q-2 -11 -1 -14.5t12 -3.5h35l-19 -92q-17 -3 -33.5 -5t-38.5 -2q-38 0 -57.5 13.5t-27.5 41.5h-2zM190 647q22 28 52.5 47t62.5 19q22 0 38.5 -7t32 -15.5t31 -15.5t35.5 -7t41.5 9.5t36.5 24.5l16 -68
q-24 -32 -53.5 -49.5t-57.5 -17.5q-22 0 -40.5 7t-35 15.5t-32.5 15.5t-33 7q-43 0 -78 -35z" />
    <glyph glyph-name="adieresis" unicode="&#xe4;" horiz-adv-x="589" 
d="M394 361q-17 12 -37 18.5t-46 6.5q-38 0 -65.5 -16t-45 -42t-25.5 -60t-8 -70q0 -45 18.5 -73.5t63.5 -28.5q26 0 50.5 9.5t45.5 23.5zM340 43q-23 -20 -59 -39t-88 -19q-43 0 -74.5 15.5t-51.5 42.5t-30 63t-10 76q0 60 17 117t49.5 101t80 70.5t107.5 26.5
q27 0 48.5 -5.5t39 -14.5t31 -19t24.5 -19h2l28 43h99l-81 -377q-2 -11 -1 -14.5t12 -3.5h35l-19 -92q-17 -3 -33.5 -5t-38.5 -2q-38 0 -57.5 13.5t-27.5 41.5h-2zM177 626q0 37 27 62.5t68 25.5q31 0 48 -17t17 -43q0 -37 -27 -62.5t-69 -25.5q-30 0 -47 17t-17 43z
M394 626q0 37 27 62.5t68 25.5q31 0 48 -17t17 -43q0 -37 -27 -62.5t-69 -25.5q-31 0 -47.5 17t-16.5 43z" />
    <glyph glyph-name="aring" unicode="&#xe5;" horiz-adv-x="589" 
d="M394 361q-17 12 -37 18.5t-46 6.5q-38 0 -65.5 -16t-45 -42t-25.5 -60t-8 -70q0 -45 18.5 -73.5t63.5 -28.5q26 0 50.5 9.5t45.5 23.5zM340 43q-23 -20 -59 -39t-88 -19q-43 0 -74.5 15.5t-51.5 42.5t-30 63t-10 76q0 60 17 117t49.5 101t80 70.5t107.5 26.5
q27 0 48.5 -5.5t39 -14.5t31 -19t24.5 -19h2l28 43h99l-81 -377q-2 -11 -1 -14.5t12 -3.5h35l-19 -92q-17 -3 -33.5 -5t-38.5 -2q-38 0 -57.5 13.5t-27.5 41.5h-2zM323 635q0 -31 34 -31q22 0 36 12.5t14 34.5q0 14 -9 22.5t-24 8.5q-22 0 -36.5 -13t-14.5 -34zM242 624
q0 30 11 54.5t30.5 41.5t45.5 26t55 9q49 0 76.5 -26t27.5 -68q0 -30 -11 -54.5t-30 -41.5t-45 -26t-56 -9q-49 0 -76.5 26t-27.5 68z" />
    <glyph glyph-name="ae" unicode="&#xe6;" horiz-adv-x="822" 
d="M453 202q-5 -52 17 -80.5t75 -28.5q41 0 77.5 9.5t74.5 23.5l21 -100q-39 -17 -88.5 -29t-101.5 -12q-66 0 -105 24t-62 62q-18 -16 -38.5 -31.5t-46 -27.5t-56.5 -19.5t-71 -7.5q-36 0 -63.5 10.5t-46.5 28t-28.5 41t-9.5 50.5q0 93 62 135.5t177 42.5h98l5 24
q6 26 -1.5 40t-20 20.5t-27.5 7.5t-25 1q-40 0 -80.5 -9.5t-78.5 -25.5l-19 103q42 17 92 30t106 13q54 0 90 -17t56 -48q32 28 75.5 46.5t93.5 18.5q48 0 83.5 -13t59 -35t35 -51.5t11.5 -62.5q0 -41 -11 -77.5t-20 -55.5h-309zM234 206q-55 0 -79 -19.5t-24 -54.5
q0 -43 50 -43q22 0 44.5 8.5t42 23.5t33.5 36.5t20 48.5h-87zM665 286q7 19 7 40q0 31 -17 52t-62 21q-24 0 -44.5 -9.5t-36.5 -25.5t-26.5 -36t-16.5 -42h196z" />
    <glyph glyph-name="ccedilla" unicode="&#xe7;" horiz-adv-x="478" 
d="M26 187q0 68 21 125t60.5 98t96 64t127.5 23q44 0 81.5 -10t58.5 -19l-38 -103q-20 7 -44 14t-56 7t-62 -10.5t-53 -33t-37 -57t-14 -82.5q0 -57 30 -82t75 -25q32 0 59 7t49 14l15 -103q-25 -9 -65 -18.5t-82 -10.5l-19 -30q26 -5 40 -22t14 -41q0 -48 -34 -76.5
t-99 -28.5q-23 0 -40.5 3.5t-30.5 8.5l22 63q22 -8 40 -8q39 0 39 29q0 8 -5 12.5t-12.5 7t-16.5 3t-17 0.5l-3 6l48 80q-73 17 -110.5 68.5t-37.5 126.5z" />
    <glyph glyph-name="egrave" unicode="&#xe8;" horiz-adv-x="537" 
d="M161 202q-1 -4 -1 -10v-8q0 -44 24 -67.5t71 -23.5q41 0 79.5 9.5t76.5 23.5l21 -100q-39 -17 -91 -29t-109 -12q-53 0 -92 16t-64.5 44t-38 65t-12.5 79q0 60 20.5 115.5t58 98.5t91 68.5t119.5 25.5q50 0 86.5 -14t60 -37t35 -54t11.5 -65q0 -44 -11.5 -75t-20.5 -50
h-314zM377 286q7 19 7 40q0 31 -17.5 52t-62.5 21q-25 0 -45.5 -9.5t-36 -25.5t-26.5 -36t-17 -42h198zM235 713h137l50 -136l-2 -10h-114l-73 137z" />
    <glyph glyph-name="eacute" unicode="&#xe9;" horiz-adv-x="537" 
d="M161 202q-1 -4 -1 -10v-8q0 -44 24 -67.5t71 -23.5q41 0 79.5 9.5t76.5 23.5l21 -100q-39 -17 -91 -29t-109 -12q-53 0 -92 16t-64.5 44t-38 65t-12.5 79q0 60 20.5 115.5t58 98.5t91 68.5t119.5 25.5q50 0 86.5 -14t60 -37t35 -54t11.5 -65q0 -44 -11.5 -75t-20.5 -50
h-314zM377 286q7 19 7 40q0 31 -17.5 52t-62.5 21q-25 0 -45.5 -9.5t-36 -25.5t-26.5 -36t-17 -42h198zM535 704l-131 -137h-122l2 10l107 136h146z" />
    <glyph glyph-name="ecircumflex" unicode="&#xea;" horiz-adv-x="537" 
d="M161 202q-1 -4 -1 -10v-8q0 -44 24 -67.5t71 -23.5q41 0 79.5 9.5t76.5 23.5l21 -100q-39 -17 -91 -29t-109 -12q-53 0 -92 16t-64.5 44t-38 65t-12.5 79q0 60 20.5 115.5t58 98.5t91 68.5t119.5 25.5q50 0 86.5 -14t60 -37t35 -54t11.5 -65q0 -44 -11.5 -75t-20.5 -50
h-314zM377 286q7 19 7 40q0 31 -17.5 52t-62.5 21q-25 0 -45.5 -9.5t-36 -25.5t-26.5 -36t-17 -42h198zM510 577l-2 -10h-108l-37 69l-65 -69h-115l2 10l118 136h147z" />
    <glyph glyph-name="edieresis" unicode="&#xeb;" horiz-adv-x="537" 
d="M161 202q-1 -4 -1 -10v-8q0 -44 24 -67.5t71 -23.5q41 0 79.5 9.5t76.5 23.5l21 -100q-39 -17 -91 -29t-109 -12q-53 0 -92 16t-64.5 44t-38 65t-12.5 79q0 60 20.5 115.5t58 98.5t91 68.5t119.5 25.5q50 0 86.5 -14t60 -37t35 -54t11.5 -65q0 -44 -11.5 -75t-20.5 -50
h-314zM377 286q7 19 7 40q0 31 -17.5 52t-62.5 21q-25 0 -45.5 -9.5t-36 -25.5t-26.5 -36t-17 -42h198zM172 626q0 37 27 62.5t68 25.5q31 0 48 -17t17 -43q0 -37 -27 -62.5t-69 -25.5q-30 0 -47 17t-17 43zM389 626q0 37 27 62.5t68 25.5q31 0 48 -17t17 -43
q0 -37 -27 -62.5t-69 -25.5q-31 0 -47.5 17t-16.5 43z" />
    <glyph glyph-name="igrave" unicode="&#xec;" horiz-adv-x="263" 
d="M70 713h137l50 -136l-2 -10h-114l-73 137zM4 0l102 482h135l-102 -482h-135z" />
    <glyph glyph-name="iacute" unicode="&#xed;" horiz-adv-x="262" 
d="M380 704l-131 -137h-122l2 10l107 136h146zM4 0l102 482h135l-102 -482h-135z" />
    <glyph glyph-name="icircumflex" unicode="&#xee;" horiz-adv-x="262" 
d="M4 0l102 482h135l-102 -482h-135zM354 577l-2 -10h-108l-37 69l-65 -69h-115l2 10l118 136h147z" />
    <glyph glyph-name="idieresis" unicode="&#xef;" horiz-adv-x="262" 
d="M20 626q0 37 27 62.5t68 25.5q31 0 48 -17t17 -43q0 -37 -27 -62.5t-69 -25.5q-30 0 -47 17t-17 43zM237 626q0 37 27 62.5t68 25.5q31 0 48 -17t17 -43q0 -37 -27 -62.5t-69 -25.5q-31 0 -47.5 17t-16.5 43zM4 0l102 482h135l-102 -482h-135z" />
    <glyph glyph-name="eth" unicode="&#xf0;" horiz-adv-x="591" 
d="M473 587q14 -29 27.5 -64t24 -73t16.5 -77t6 -75q0 -63 -19.5 -120t-58 -99.5t-95.5 -68t-132 -25.5q-54 0 -94.5 16t-67.5 44t-40.5 65t-13.5 79q0 63 20.5 116.5t56.5 92.5t84.5 61t104.5 22q39 0 66.5 -9.5t49.5 -26.5l1 2l-7.5 22.5t-11 28.5t-14 29.5t-15.5 26.5
l-121 -32l-6 72l87 23q-11 17 -24 37.5t-27 35.5l2 10h132q6 -11 14 -23.5t14 -23.5l102 23l3 -72zM164 197q0 -47 22.5 -73.5t69.5 -26.5q40 0 69 14t47.5 38.5t27.5 56.5t9 68q0 45 -23 70t-72 25q-38 0 -66 -13t-47 -36t-28 -54.5t-9 -68.5z" />
    <glyph glyph-name="ntilde" unicode="&#xf1;" horiz-adv-x="575" 
d="M215 482l8 -47h2q12 10 26.5 21t33.5 20t42 15t51 6q84 0 122.5 -54t18.5 -149l-63 -294h-134l62 290q20 96 -63 96q-34 0 -63 -15.5t-47 -29.5l-72 -341h-135l102 482h109zM194 647q22 28 52.5 47t62.5 19q22 0 38.5 -7t32 -15.5t31 -15.5t35.5 -7t41.5 9.5t36.5 24.5
l16 -68q-24 -32 -53.5 -49.5t-57.5 -17.5q-22 0 -40.5 7t-35 15.5t-32.5 15.5t-33 7q-43 0 -78 -35z" />
    <glyph glyph-name="ograve" unicode="&#xf2;" horiz-adv-x="583" 
d="M164 200q0 -52 23.5 -78t63.5 -26q32 0 59.5 12.5t47.5 36.5t31.5 58.5t11.5 78.5q0 52 -23.5 78t-64.5 26q-31 0 -58 -12.5t-47.5 -36.5t-32 -58.5t-11.5 -78.5zM540 290q0 -60 -20.5 -115t-59.5 -97.5t-95 -67.5t-127 -25q-53 0 -93 16.5t-66.5 45t-40 66.5t-13.5 80
q0 60 21 115t60.5 97t95 67t124.5 25q54 0 94 -16.5t66.5 -45t40 -66t13.5 -79.5zM228 713h137l50 -136l-2 -10h-114l-73 137z" />
    <glyph glyph-name="oacute" unicode="&#xf3;" horiz-adv-x="583" 
d="M164 200q0 -52 23.5 -78t63.5 -26q32 0 59.5 12.5t47.5 36.5t31.5 58.5t11.5 78.5q0 52 -23.5 78t-64.5 26q-31 0 -58 -12.5t-47.5 -36.5t-32 -58.5t-11.5 -78.5zM540 290q0 -60 -20.5 -115t-59.5 -97.5t-95 -67.5t-127 -25q-53 0 -93 16.5t-66.5 45t-40 66.5t-13.5 80
q0 60 21 115t60.5 97t95 67t124.5 25q54 0 94 -16.5t66.5 -45t40 -66t13.5 -79.5zM543 704l-131 -137h-122l2 10l107 136h146z" />
    <glyph glyph-name="ocircumflex" unicode="&#xf4;" horiz-adv-x="583" 
d="M164 200q0 -52 23.5 -78t63.5 -26q32 0 59.5 12.5t47.5 36.5t31.5 58.5t11.5 78.5q0 52 -23.5 78t-64.5 26q-31 0 -58 -12.5t-47.5 -36.5t-32 -58.5t-11.5 -78.5zM540 290q0 -60 -20.5 -115t-59.5 -97.5t-95 -67.5t-127 -25q-53 0 -93 16.5t-66.5 45t-40 66.5t-13.5 80
q0 60 21 115t60.5 97t95 67t124.5 25q54 0 94 -16.5t66.5 -45t40 -66t13.5 -79.5zM513 577l-2 -10h-108l-37 69l-65 -69h-115l2 10l118 136h147z" />
    <glyph glyph-name="otilde" unicode="&#xf5;" horiz-adv-x="583" 
d="M164 200q0 -52 23.5 -78t63.5 -26q32 0 59.5 12.5t47.5 36.5t31.5 58.5t11.5 78.5q0 52 -23.5 78t-64.5 26q-31 0 -58 -12.5t-47.5 -36.5t-32 -58.5t-11.5 -78.5zM540 290q0 -60 -20.5 -115t-59.5 -97.5t-95 -67.5t-127 -25q-53 0 -93 16.5t-66.5 45t-40 66.5t-13.5 80
q0 60 21 115t60.5 97t95 67t124.5 25q54 0 94 -16.5t66.5 -45t40 -66t13.5 -79.5zM192 647q22 28 52.5 47t62.5 19q22 0 38.5 -7t32 -15.5t31 -15.5t35.5 -7t41.5 9.5t36.5 24.5l16 -68q-24 -32 -53.5 -49.5t-57.5 -17.5q-22 0 -40.5 7t-35 15.5t-32.5 15.5t-33 7
q-43 0 -78 -35z" />
    <glyph glyph-name="odieresis" unicode="&#xf6;" horiz-adv-x="583" 
d="M164 200q0 -52 23.5 -78t63.5 -26q32 0 59.5 12.5t47.5 36.5t31.5 58.5t11.5 78.5q0 52 -23.5 78t-64.5 26q-31 0 -58 -12.5t-47.5 -36.5t-32 -58.5t-11.5 -78.5zM540 290q0 -60 -20.5 -115t-59.5 -97.5t-95 -67.5t-127 -25q-53 0 -93 16.5t-66.5 45t-40 66.5t-13.5 80
q0 60 21 115t60.5 97t95 67t124.5 25q54 0 94 -16.5t66.5 -45t40 -66t13.5 -79.5zM182 626q0 37 27 62.5t68 25.5q31 0 48 -17t17 -43q0 -37 -27 -62.5t-69 -25.5q-30 0 -47 17t-17 43zM399 626q0 37 27 62.5t68 25.5q31 0 48 -17t17 -43q0 -37 -27 -62.5t-69 -25.5
q-31 0 -47.5 17t-16.5 43z" />
    <glyph glyph-name="divide" unicode="&#xf7;" 
d="M554 323l-21 -103h-502l22 103h501zM163 53q0 22 8 41t22 33t33 22t42 8q33 0 51 -18.5t18 -49.5q0 -45 -29.5 -74.5t-75.5 -29.5q-33 0 -51 18.5t-18 49.5zM250 459q0 45 29.5 74.5t75.5 29.5q33 0 50.5 -18.5t17.5 -49.5q0 -45 -29.5 -74.5t-75.5 -29.5
q-33 0 -50.5 18.5t-17.5 49.5z" />
    <glyph glyph-name="oslash" unicode="&#xf8;" horiz-adv-x="583" 
d="M4 25l51 51q-30 51 -30 117q0 60 21 115t60.5 97t95 67t124.5 25q37 0 67 -8.5t54 -22.5l49 49l60 -58l-49 -49q33 -51 33 -118q0 -60 -20.5 -115t-59.5 -97.5t-95 -67.5t-127 -25q-38 0 -68.5 8.5t-55.5 23.5l-53 -53zM406 284v11t-1 11l-204 -203q19 -13 49 -13
q33 0 61.5 13.5t49.5 38.5t33 61t12 81zM159 180l202 201q-22 11 -47 11q-32 0 -60.5 -13t-49.5 -38t-33 -61t-12 -82v-18z" />
    <glyph glyph-name="ugrave" unicode="&#xf9;" horiz-adv-x="569" 
d="M235 482l-62 -290q-10 -48 3 -72t56 -24q33 0 62 15.5t46 29.5l73 341h134l-102 -482h-109l-8 47h-2q-12 -10 -26.5 -21t-32.5 -20t-40.5 -15t-50.5 -6q-85 0 -121.5 53.5t-16.5 147.5l63 296h134zM219 713h137l50 -136l-2 -10h-114l-73 137z" />
    <glyph glyph-name="uacute" unicode="&#xfa;" horiz-adv-x="569" 
d="M235 482l-62 -290q-10 -48 3 -72t56 -24q33 0 62 15.5t46 29.5l73 341h134l-102 -482h-109l-8 47h-2q-12 -10 -26.5 -21t-32.5 -20t-40.5 -15t-50.5 -6q-85 0 -121.5 53.5t-16.5 147.5l63 296h134zM537 704l-131 -137h-122l2 10l107 136h146z" />
    <glyph glyph-name="ucircumflex" unicode="&#xfb;" horiz-adv-x="569" 
d="M235 482l-62 -290q-10 -48 3 -72t56 -24q33 0 62 15.5t46 29.5l73 341h134l-102 -482h-109l-8 47h-2q-12 -10 -26.5 -21t-32.5 -20t-40.5 -15t-50.5 -6q-85 0 -121.5 53.5t-16.5 147.5l63 296h134zM505 577l-2 -10h-108l-37 69l-65 -69h-115l2 10l118 136h147z" />
    <glyph glyph-name="udieresis" unicode="&#xfc;" horiz-adv-x="569" 
d="M235 482l-62 -290q-10 -48 3 -72t56 -24q33 0 62 15.5t46 29.5l73 341h134l-102 -482h-109l-8 47h-2q-12 -10 -26.5 -21t-32.5 -20t-40.5 -15t-50.5 -6q-85 0 -121.5 53.5t-16.5 147.5l63 296h134zM175 626q0 37 27 62.5t68 25.5q31 0 48 -17t17 -43q0 -37 -27 -62.5
t-69 -25.5q-30 0 -47 17t-17 43zM392 626q0 37 27 62.5t68 25.5q31 0 48 -17t17 -43q0 -37 -27 -62.5t-69 -25.5q-31 0 -47.5 17t-16.5 43z" />
    <glyph glyph-name="yacute" unicode="&#xfd;" horiz-adv-x="524" 
d="M549 472l-327 -550q-40 -67 -92 -101t-114 -34q-24 0 -43 2.5t-36 6.5l20 107q17 -3 34 -4t25 -1q32 0 53 12t38 41l31 54l-90 467l2 10h136l42 -328h3l176 328h144zM509 704l-131 -137h-122l2 10l107 136h146z" />
    <glyph glyph-name="thorn" unicode="&#xfe;" horiz-adv-x="583" 
d="M153 700h135l-54 -253h2q23 18 54 34t80 16q43 0 75 -15.5t53 -42.5t31.5 -62.5t10.5 -75.5q0 -61 -18 -118t-51.5 -101t-81.5 -70.5t-108 -26.5q-50 0 -81.5 17t-51.5 33h-2l-49 -233h-135zM165 121q36 -25 87 -25q39 0 67 16t46 42.5t27 60t9 69.5q0 45 -21 73.5
t-66 28.5q-26 0 -51.5 -9t-47.5 -24z" />
    <glyph glyph-name="ydieresis" unicode="&#xff;" horiz-adv-x="524" 
d="M549 472l-327 -550q-40 -67 -92 -101t-114 -34q-24 0 -43 2.5t-36 6.5l20 107q17 -3 34 -4t25 -1q32 0 53 12t38 41l31 54l-90 467l2 10h136l42 -328h3l176 328h144zM149 626q0 37 27 62.5t68 25.5q31 0 48 -17t17 -43q0 -37 -27 -62.5t-69 -25.5q-30 0 -47 17t-17 43z
M366 626q0 37 27 62.5t68 25.5q31 0 48 -17t17 -43q0 -37 -27 -62.5t-69 -25.5q-31 0 -47.5 17t-16.5 43z" />
    <glyph glyph-name="Amacron" unicode="&#x100;" horiz-adv-x="656" 
d="M594 0h-148l-14 140h-259l-74 -140h-157l389 680h163zM385 538l-150 -286h182l-29 286h-3zM288 759l22 103h285l-21 -103h-286z" />
    <glyph glyph-name="amacron" unicode="&#x101;" horiz-adv-x="589" 
d="M394 361q-17 12 -37 18.5t-46 6.5q-38 0 -65.5 -16t-45 -42t-25.5 -60t-8 -70q0 -45 18.5 -73.5t63.5 -28.5q26 0 50.5 9.5t45.5 23.5zM340 43q-23 -20 -59 -39t-88 -19q-43 0 -74.5 15.5t-51.5 42.5t-30 63t-10 76q0 60 17 117t49.5 101t80 70.5t107.5 26.5
q27 0 48.5 -5.5t39 -14.5t31 -19t24.5 -19h2l28 43h99l-81 -377q-2 -11 -1 -14.5t12 -3.5h35l-19 -92q-17 -3 -33.5 -5t-38.5 -2q-38 0 -57.5 13.5t-27.5 41.5h-2zM209 579l22 103h285l-21 -103h-286z" />
    <glyph glyph-name="Abreve" unicode="&#x102;" horiz-adv-x="656" 
d="M594 0h-148l-14 140h-259l-74 -140h-157l389 680h163zM385 538l-150 -286h182l-29 286h-3zM447 858q42 0 75 7t64 27l32 -72q-35 -35 -80.5 -52t-109.5 -17q-63 0 -100 22.5t-54 54.5l51 64q23 -19 53 -26.5t69 -7.5z" />
    <glyph glyph-name="abreve" unicode="&#x103;" horiz-adv-x="589" 
d="M394 361q-17 12 -37 18.5t-46 6.5q-38 0 -65.5 -16t-45 -42t-25.5 -60t-8 -70q0 -45 18.5 -73.5t63.5 -28.5q26 0 50.5 9.5t45.5 23.5zM340 43q-23 -20 -59 -39t-88 -19q-43 0 -74.5 15.5t-51.5 42.5t-30 63t-10 76q0 60 17 117t49.5 101t80 70.5t107.5 26.5
q27 0 48.5 -5.5t39 -14.5t31 -19t24.5 -19h2l28 43h99l-81 -377q-2 -11 -1 -14.5t12 -3.5h35l-19 -92q-17 -3 -33.5 -5t-38.5 -2q-38 0 -57.5 13.5t-27.5 41.5h-2zM365 674q42 0 75 7t64 27l32 -72q-35 -35 -80.5 -52t-109.5 -17q-63 0 -100 22.5t-54 54.5l51 64
q23 -19 53 -26.5t69 -7.5z" />
    <glyph glyph-name="Aogonek" unicode="&#x104;" horiz-adv-x="656" 
d="M594 0q-38 -7 -64 -18t-42 -24.5t-23.5 -28t-7.5 -27.5q0 -16 8.5 -22t24.5 -6q15 0 30 5.5t26 12.5l-1 -80q-18 -10 -46 -17.5t-51 -7.5q-51 0 -75.5 26t-24.5 62q0 21 8.5 40t22 34.5t31 28.5t36.5 24l-14 138h-259l-74 -140h-157l389 680h163zM385 538l-150 -286h182
l-29 286h-3z" />
    <glyph glyph-name="aogonek" unicode="&#x105;" horiz-adv-x="589" 
d="M406 -213q-48 0 -75.5 24t-27.5 64q0 42 23 71t56 49q-31 12 -40 48h-2q-23 -20 -59 -39t-88 -19q-43 0 -74.5 15.5t-51.5 42.5t-30 63t-10 76q0 60 17 117t49.5 101t80 70.5t107.5 26.5q27 0 48.5 -5.5t39 -14.5t31 -19t24.5 -19h2l28 43h99l-81 -377q-2 -11 -1 -14.5
t12 -3.5h35l-19 -92h-1q-15 -6 -30.5 -15.5t-27.5 -22t-20 -27t-8 -28.5q0 -16 8.5 -22t25.5 -6q14 0 29.5 5.5t25.5 12.5l2 -80q-9 -5 -21 -9.5t-25 -8t-26.5 -5.5t-24.5 -2zM394 361q-17 12 -37 18.5t-46 6.5q-38 0 -65.5 -16t-45 -42t-25.5 -60t-8 -70q0 -45 18.5 -73.5
t63.5 -28.5q26 0 50.5 9.5t45.5 23.5z" />
    <glyph glyph-name="Cacute" unicode="&#x106;" horiz-adv-x="602" 
d="M53 260q0 90 27 169t78 138.5t126 93.5t171 34q47 0 92.5 -11t87.5 -33l-50 -110q-38 19 -70.5 27t-74.5 8q-56 0 -100 -24t-75.5 -65.5t-48 -96.5t-16.5 -116q0 -76 34.5 -123t104.5 -47q42 0 78.5 8t82.5 27l23 -110q-51 -22 -101.5 -33t-97.5 -11q-65 0 -115.5 19.5
t-85 55.5t-52.5 86.5t-18 113.5zM637 887l-111 -137h-132l2 10l87 136h156z" />
    <glyph glyph-name="cacute" unicode="&#x107;" horiz-adv-x="478" 
d="M26 187q0 68 21 125t60.5 98t96 64t127.5 23q44 0 81.5 -10t58.5 -19l-38 -103q-20 7 -44 14t-56 7t-62 -10.5t-53 -33t-37 -57t-14 -82.5q0 -57 30 -82t75 -25q32 0 59 7t49 14l15 -103q-26 -9 -67.5 -19t-85.5 -10q-53 0 -93 14.5t-67.5 41t-41.5 64t-14 82.5zM540 704
l-131 -137h-122l2 10l107 136h146z" />
    <glyph glyph-name="Ccircumflex" unicode="&#x108;" horiz-adv-x="602" 
d="M53 260q0 90 27 169t78 138.5t126 93.5t171 34q47 0 92.5 -11t87.5 -33l-50 -110q-38 19 -70.5 27t-74.5 8q-56 0 -100 -24t-75.5 -65.5t-48 -96.5t-16.5 -116q0 -76 34.5 -123t104.5 -47q42 0 78.5 8t82.5 27l23 -110q-51 -22 -101.5 -33t-97.5 -11q-65 0 -115.5 19.5
t-85 55.5t-52.5 86.5t-18 113.5zM643 760l-2 -10h-107l-45 79l-78 -79h-115l2 10l139 136h126z" />
    <glyph glyph-name="ccircumflex" unicode="&#x109;" horiz-adv-x="478" 
d="M26 187q0 68 21 125t60.5 98t96 64t127.5 23q44 0 81.5 -10t58.5 -19l-38 -103q-20 7 -44 14t-56 7t-62 -10.5t-53 -33t-37 -57t-14 -82.5q0 -57 30 -82t75 -25q32 0 59 7t49 14l15 -103q-26 -9 -67.5 -19t-85.5 -10q-53 0 -93 14.5t-67.5 41t-41.5 64t-14 82.5zM502 577
l-2 -10h-108l-37 69l-65 -69h-115l2 10l118 136h147z" />
    <glyph glyph-name="Cdotaccent" unicode="&#x10a;" horiz-adv-x="602" 
d="M53 260q0 90 27 169t78 138.5t126 93.5t171 34q47 0 92.5 -11t87.5 -33l-50 -110q-38 19 -70.5 27t-74.5 8q-56 0 -100 -24t-75.5 -65.5t-48 -96.5t-16.5 -116q0 -76 34.5 -123t104.5 -47q42 0 78.5 8t82.5 27l23 -110q-51 -22 -101.5 -33t-97.5 -11q-65 0 -115.5 19.5
t-85 55.5t-52.5 86.5t-18 113.5zM409 805q0 37 27.5 62.5t67.5 25.5q31 0 48 -17t17 -43q0 -37 -27 -62.5t-69 -25.5q-30 0 -47 17t-17 43z" />
    <glyph glyph-name="cdotaccent" unicode="&#x10b;" horiz-adv-x="478" 
d="M26 187q0 68 21 125t60.5 98t96 64t127.5 23q44 0 81.5 -10t58.5 -19l-38 -103q-20 7 -44 14t-56 7t-62 -10.5t-53 -33t-37 -57t-14 -82.5q0 -57 30 -82t75 -25q32 0 59 7t49 14l15 -103q-26 -9 -67.5 -19t-85.5 -10q-53 0 -93 14.5t-67.5 41t-41.5 64t-14 82.5zM275 626
q0 37 27 62.5t68 25.5q31 0 48 -17t17 -43q0 -37 -27 -62.5t-69 -25.5q-30 0 -47 17t-17 43z" />
    <glyph glyph-name="Ccaron" unicode="&#x10c;" horiz-adv-x="602" 
d="M53 260q0 90 27 169t78 138.5t126 93.5t171 34q47 0 92.5 -11t87.5 -33l-50 -110q-38 19 -70.5 27t-74.5 8q-56 0 -100 -24t-75.5 -65.5t-48 -96.5t-16.5 -116q0 -76 34.5 -123t104.5 -47q42 0 78.5 8t82.5 27l23 -110q-51 -22 -101.5 -33t-97.5 -11q-65 0 -115.5 19.5
t-85 55.5t-52.5 86.5t-18 113.5zM326 886l2 10h108l44 -79l78 79h115l-2 -10l-138 -136h-126z" />
    <glyph glyph-name="ccaron" unicode="&#x10d;" horiz-adv-x="478" 
d="M26 187q0 68 21 125t60.5 98t96 64t127.5 23q44 0 81.5 -10t58.5 -19l-38 -103q-20 7 -44 14t-56 7t-62 -10.5t-53 -33t-37 -57t-14 -82.5q0 -57 30 -82t75 -25q32 0 59 7t49 14l15 -103q-26 -9 -67.5 -19t-85.5 -10q-53 0 -93 14.5t-67.5 41t-41.5 64t-14 82.5zM206 703
l2 10h108l36 -69l65 69h116l-2 -10l-118 -136h-147z" />
    <glyph glyph-name="Dcaron" unicode="&#x10e;" horiz-adv-x="688" 
d="M163 680h200q77 0 132.5 -17t91 -49t52 -78t16.5 -104q0 -125 -30.5 -208.5t-85.5 -133t-131.5 -70t-169.5 -20.5h-220zM240 116q64 0 114 14.5t84.5 49.5t52.5 93.5t18 146.5q0 73 -38.5 108.5t-135.5 35.5h-58l-96 -448h59zM276 886l2 10h108l44 -79l78 79h115l-2 -10
l-138 -136h-126z" />
    <glyph glyph-name="dcaron" unicode="&#x10f;" horiz-adv-x="585" 
d="M403 361q-36 25 -88 25q-38 0 -66 -16t-46.5 -42t-27.5 -60t-9 -70q0 -45 21 -73.5t66 -28.5q26 0 53 9.5t48 23.5zM610 700l-149 -700h-100l-10 43h-2q-27 -21 -63.5 -39.5t-88.5 -18.5q-43 0 -75 15.5t-53.5 42.5t-32 63t-10.5 77q0 60 18 117t52 100.5t82 70t108 26.5
q49 0 82 -17t51 -33h2l54 253h135zM610 524l58 156h135l-2 -10l-92 -156h-101z" />
    <glyph glyph-name="Dcroat" unicode="&#x110;" horiz-adv-x="688" 
d="M77 277h-48l25 116h48l61 287h200q77 0 132.5 -17t91 -49t52 -78t16.5 -104q0 -125 -30.5 -208.5t-85.5 -133t-131.5 -70t-169.5 -20.5h-220zM240 116q64 0 114 14.5t84.5 49.5t52.5 93.5t18 146.5q0 73 -38.5 108.5t-135.5 35.5h-58l-37 -171h110l-24 -116h-111
l-34 -161h59z" />
    <glyph glyph-name="dcroat" unicode="&#x111;" horiz-adv-x="584" 
d="M610 700l-12 -56h48l-22 -103h-48l-115 -541h-100l-10 43h-2q-27 -21 -63.5 -39.5t-88.5 -18.5q-43 0 -75 15.5t-53.5 42.5t-32 63t-10.5 77q0 60 18 117t52 100.5t82 70t108 26.5q49 0 82 -17t51 -33h2l20 94h-103l22 103h103l12 56h135zM403 361q-36 25 -88 25
q-38 0 -66 -16t-46.5 -42t-27.5 -60t-9 -70q0 -45 21 -73.5t66 -28.5q26 0 53 9.5t48 23.5z" />
    <glyph glyph-name="Emacron" unicode="&#x112;" horiz-adv-x="582" 
d="M611 680l-25 -116h-309l-35 -163h277l-25 -116h-277l-36 -169h313l-25 -116h-451l145 680h448zM264 759l22 103h285l-21 -103h-286z" />
    <glyph glyph-name="emacron" unicode="&#x113;" horiz-adv-x="537" 
d="M161 202q-1 -4 -1 -10v-8q0 -44 24 -67.5t71 -23.5q41 0 79.5 9.5t76.5 23.5l21 -100q-39 -17 -91 -29t-109 -12q-53 0 -92 16t-64.5 44t-38 65t-12.5 79q0 60 20.5 115.5t58 98.5t91 68.5t119.5 25.5q50 0 86.5 -14t60 -37t35 -54t11.5 -65q0 -44 -11.5 -75t-20.5 -50
h-314zM377 286q7 19 7 40q0 31 -17.5 52t-62.5 21q-25 0 -45.5 -9.5t-36 -25.5t-26.5 -36t-17 -42h198zM205 579l22 103h285l-21 -103h-286z" />
    <glyph glyph-name="Ebreve" unicode="&#x114;" horiz-adv-x="582" 
d="M611 680l-25 -116h-309l-35 -163h277l-25 -116h-277l-36 -169h313l-25 -116h-451l145 680h448zM429 858q42 0 75 7t64 27l32 -72q-35 -35 -80.5 -52t-109.5 -17q-63 0 -100 22.5t-54 54.5l51 64q23 -19 53 -26.5t69 -7.5z" />
    <glyph glyph-name="ebreve" unicode="&#x115;" horiz-adv-x="537" 
d="M161 202q-1 -4 -1 -10v-8q0 -44 24 -67.5t71 -23.5q41 0 79.5 9.5t76.5 23.5l21 -100q-39 -17 -91 -29t-109 -12q-53 0 -92 16t-64.5 44t-38 65t-12.5 79q0 60 20.5 115.5t58 98.5t91 68.5t119.5 25.5q50 0 86.5 -14t60 -37t35 -54t11.5 -65q0 -44 -11.5 -75t-20.5 -50
h-314zM377 286q7 19 7 40q0 31 -17.5 52t-62.5 21q-25 0 -45.5 -9.5t-36 -25.5t-26.5 -36t-17 -42h198zM367 674q42 0 75 7t64 27l32 -72q-35 -35 -80.5 -52t-109.5 -17q-63 0 -100 22.5t-54 54.5l51 64q23 -19 53 -26.5t69 -7.5z" />
    <glyph glyph-name="Edotaccent" unicode="&#x116;" horiz-adv-x="582" 
d="M611 680l-25 -116h-309l-35 -163h277l-25 -116h-277l-36 -169h313l-25 -116h-451l145 680h448zM344 805q0 37 27.5 62.5t67.5 25.5q31 0 48 -17t17 -43q0 -37 -27 -62.5t-69 -25.5q-30 0 -47 17t-17 43z" />
    <glyph glyph-name="edotaccent" unicode="&#x117;" horiz-adv-x="537" 
d="M161 202q-1 -4 -1 -10v-8q0 -44 24 -67.5t71 -23.5q41 0 79.5 9.5t76.5 23.5l21 -100q-39 -17 -91 -29t-109 -12q-53 0 -92 16t-64.5 44t-38 65t-12.5 79q0 60 20.5 115.5t58 98.5t91 68.5t119.5 25.5q50 0 86.5 -14t60 -37t35 -54t11.5 -65q0 -44 -11.5 -75t-20.5 -50
h-314zM377 286q7 19 7 40q0 31 -17.5 52t-62.5 21q-25 0 -45.5 -9.5t-36 -25.5t-26.5 -36t-17 -42h198zM281 626q0 37 27 62.5t68 25.5q31 0 48 -17t17 -43q0 -37 -27 -62.5t-69 -25.5q-30 0 -47 17t-17 43z" />
    <glyph glyph-name="Eogonek" unicode="&#x118;" horiz-adv-x="582" 
d="M361 -213q-51 0 -75.5 26t-24.5 62q0 23 9.5 42t24 34t32.5 27t36 22h-345l145 680h448l-25 -116h-309l-35 -163h277l-25 -116h-277l-36 -169h313l-25 -116q-17 -6 -35 -17t-32 -24.5t-23 -28t-9 -28.5q0 -16 8.5 -22t25.5 -6q14 0 29.5 5.5t25.5 12.5l-1 -80
q-9 -5 -21 -9.5t-25 -8t-26.5 -5.5t-24.5 -2z" />
    <glyph glyph-name="eogonek" unicode="&#x119;" horiz-adv-x="537" 
d="M161 202q-1 -4 -1 -10v-8q0 -44 24 -67.5t71 -23.5q41 0 79.5 9.5t76.5 23.5l21 -100q-13 -5 -24 -9t-24 -9q-42 -17 -69.5 -41.5t-27.5 -60.5q0 -32 33 -32q14 0 29.5 5.5t25.5 12.5l-1 -80q-9 -5 -21 -9.5t-25 -8t-26.5 -5.5t-24.5 -2q-51 0 -75.5 26t-24.5 62
q0 38 20.5 63t50.5 46v1h-16q-53 0 -92 16t-64.5 44t-38 65t-12.5 79q0 60 20.5 115.5t58 98.5t91 68.5t119.5 25.5q50 0 86.5 -14t60 -37t35 -54t11.5 -65q0 -44 -11.5 -75t-20.5 -50h-314zM377 286q7 19 7 40q0 31 -17.5 52t-62.5 21q-25 0 -45.5 -9.5t-36 -25.5
t-26.5 -36t-17 -42h198z" />
    <glyph glyph-name="Ecaron" unicode="&#x11a;" horiz-adv-x="582" 
d="M611 680l-25 -116h-309l-35 -163h277l-25 -116h-277l-36 -169h313l-25 -116h-451l145 680h448zM268 886l2 10h108l44 -79l78 79h115l-2 -10l-138 -136h-126z" />
    <glyph glyph-name="ecaron" unicode="&#x11b;" horiz-adv-x="537" 
d="M161 202q-1 -4 -1 -10v-8q0 -44 24 -67.5t71 -23.5q41 0 79.5 9.5t76.5 23.5l21 -100q-39 -17 -91 -29t-109 -12q-53 0 -92 16t-64.5 44t-38 65t-12.5 79q0 60 20.5 115.5t58 98.5t91 68.5t119.5 25.5q50 0 86.5 -14t60 -37t35 -54t11.5 -65q0 -44 -11.5 -75t-20.5 -50
h-314zM377 286q7 19 7 40q0 31 -17.5 52t-62.5 21q-25 0 -45.5 -9.5t-36 -25.5t-26.5 -36t-17 -42h198zM212 703l2 10h108l36 -69l65 69h116l-2 -10l-118 -136h-147z" />
    <glyph glyph-name="Gcircumflex" unicode="&#x11c;" horiz-adv-x="681" 
d="M643 365l-70 -325q-54 -24 -119.5 -39.5t-137.5 -15.5q-65 0 -114 19.5t-82.5 55t-50.5 85.5t-17 111q0 82 26 161t77.5 141t129.5 99.5t183 37.5q68 0 124.5 -15.5t91.5 -33.5l-52 -108q-35 16 -80.5 27t-99.5 11q-69 0 -117.5 -26.5t-78.5 -70t-43.5 -99t-13.5 -113.5
q0 -74 33 -118.5t106 -44.5q31 0 59.5 4t54.5 14l27 127l-114 17l21 99h257zM640 760l-2 -10h-107l-45 79l-78 -79h-115l2 10l139 136h126z" />
    <glyph glyph-name="gcircumflex" unicode="&#x11d;" horiz-adv-x="584" 
d="M402 360q-17 12 -39.5 19t-48.5 7q-39 0 -67 -15.5t-45.5 -41.5t-26 -59t-8.5 -68q0 -45 21 -71t66 -26q26 0 52 9t48 22zM463 14q-23 -109 -93 -168t-191 -59q-59 0 -101.5 16t-73.5 36l50 99q26 -16 60 -28t79 -12q58 0 88.5 24t44.5 84l8 36h-2q-23 -19 -56.5 -33.5
t-77.5 -14.5q-43 0 -75 15t-53.5 41t-32 61t-10.5 75q0 60 17.5 116t51 99.5t81.5 69.5t108 26q53 0 87 -19t56 -40h2l27 44h105zM526 577l-2 -10h-108l-37 69l-65 -69h-115l2 10l118 136h147z" />
    <glyph glyph-name="Gbreve" unicode="&#x11e;" horiz-adv-x="681" 
d="M643 365l-70 -325q-54 -24 -119.5 -39.5t-137.5 -15.5q-65 0 -114 19.5t-82.5 55t-50.5 85.5t-17 111q0 82 26 161t77.5 141t129.5 99.5t183 37.5q68 0 124.5 -15.5t91.5 -33.5l-52 -108q-35 16 -80.5 27t-99.5 11q-69 0 -117.5 -26.5t-78.5 -70t-43.5 -99t-13.5 -113.5
q0 -74 33 -118.5t106 -44.5q31 0 59.5 4t54.5 14l27 127l-114 17l21 99h257zM490 858q42 0 75 7t64 27l32 -72q-35 -35 -80.5 -52t-109.5 -17q-63 0 -100 22.5t-54 54.5l51 64q23 -19 53 -26.5t69 -7.5z" />
    <glyph glyph-name="gbreve" unicode="&#x11f;" horiz-adv-x="584" 
d="M402 360q-17 12 -39.5 19t-48.5 7q-39 0 -67 -15.5t-45.5 -41.5t-26 -59t-8.5 -68q0 -45 21 -71t66 -26q26 0 52 9t48 22zM463 14q-23 -109 -93 -168t-191 -59q-59 0 -101.5 16t-73.5 36l50 99q26 -16 60 -28t79 -12q58 0 88.5 24t44.5 84l8 36h-2q-23 -19 -56.5 -33.5
t-77.5 -14.5q-43 0 -75 15t-53.5 41t-32 61t-10.5 75q0 60 17.5 116t51 99.5t81.5 69.5t108 26q53 0 87 -19t56 -40h2l27 44h105zM382 674q42 0 75 7t64 27l32 -72q-35 -35 -80.5 -52t-109.5 -17q-63 0 -100 22.5t-54 54.5l51 64q23 -19 53 -26.5t69 -7.5z" />
    <glyph glyph-name="Gdotaccent" unicode="&#x120;" horiz-adv-x="681" 
d="M643 365l-70 -325q-54 -24 -119.5 -39.5t-137.5 -15.5q-65 0 -114 19.5t-82.5 55t-50.5 85.5t-17 111q0 82 26 161t77.5 141t129.5 99.5t183 37.5q68 0 124.5 -15.5t91.5 -33.5l-52 -108q-35 16 -80.5 27t-99.5 11q-69 0 -117.5 -26.5t-78.5 -70t-43.5 -99t-13.5 -113.5
q0 -74 33 -118.5t106 -44.5q31 0 59.5 4t54.5 14l27 127l-114 17l21 99h257zM405 805q0 37 27.5 62.5t67.5 25.5q31 0 48 -17t17 -43q0 -37 -27 -62.5t-69 -25.5q-30 0 -47 17t-17 43z" />
    <glyph glyph-name="gdotaccent" unicode="&#x121;" horiz-adv-x="584" 
d="M402 360q-17 12 -39.5 19t-48.5 7q-39 0 -67 -15.5t-45.5 -41.5t-26 -59t-8.5 -68q0 -45 21 -71t66 -26q26 0 52 9t48 22zM463 14q-23 -109 -93 -168t-191 -59q-59 0 -101.5 16t-73.5 36l50 99q26 -16 60 -28t79 -12q58 0 88.5 24t44.5 84l8 36h-2q-23 -19 -56.5 -33.5
t-77.5 -14.5q-43 0 -75 15t-53.5 41t-32 61t-10.5 75q0 60 17.5 116t51 99.5t81.5 69.5t108 26q53 0 87 -19t56 -40h2l27 44h105zM300 626q0 37 27 62.5t68 25.5q31 0 48 -17t17 -43q0 -37 -27 -62.5t-69 -25.5q-30 0 -47 17t-17 43z" />
    <glyph glyph-name="uni0122" unicode="&#x122;" horiz-adv-x="681" 
d="M643 365l-70 -325q-54 -24 -119.5 -39.5t-137.5 -15.5q-65 0 -114 19.5t-82.5 55t-50.5 85.5t-17 111q0 82 26 161t77.5 141t129.5 99.5t183 37.5q68 0 124.5 -15.5t91.5 -33.5l-52 -108q-35 16 -80.5 27t-99.5 11q-69 0 -117.5 -26.5t-78.5 -70t-43.5 -99t-13.5 -113.5
q0 -74 33 -118.5t106 -44.5q31 0 59.5 4t54.5 14l27 127l-114 17l21 99h257zM176 -208l58 156h135l-2 -10l-92 -156h-101z" />
    <glyph glyph-name="uni0123" unicode="&#x123;" horiz-adv-x="584" 
d="M402 360q-17 12 -39.5 19t-48.5 7q-39 0 -67 -15.5t-45.5 -41.5t-26 -59t-8.5 -68q0 -45 21 -71t66 -26q26 0 52 9t48 22zM463 14q-23 -109 -93 -168t-191 -59q-59 0 -101.5 16t-73.5 36l50 99q26 -16 60 -28t79 -12q58 0 88.5 24t44.5 84l8 36h-2q-23 -19 -56.5 -33.5
t-77.5 -14.5q-43 0 -75 15t-53.5 41t-32 61t-10.5 75q0 60 17.5 116t51 99.5t81.5 69.5t108 26q53 0 87 -19t56 -40h2l27 44h105zM487 713l-58 -156h-135l2 10l92 156h101z" />
    <glyph glyph-name="Hcircumflex" unicode="&#x124;" horiz-adv-x="712" 
d="M495 285h-278l-60 -285h-139l145 680h138l-59 -279h278l59 279h139l-145 -680h-139zM628 760l-2 -10h-107l-45 79l-78 -79h-115l2 10l139 136h126z" />
    <glyph glyph-name="hcircumflex" unicode="&#x125;" horiz-adv-x="576" 
d="M322 0l62 290q10 46 -5 71t-58 25q-36 0 -65 -17.5t-46 -32.5l-71 -336h-135l149 700h135l-55 -258h2q23 19 58.5 37t83.5 18q85 0 124 -54t19 -148l-63 -295h-135zM564 760l-2 -10h-107l-45 79l-78 -79h-115l2 10l139 136h126z" />
    <glyph glyph-name="Hbar" unicode="&#x126;" horiz-adv-x="716" 
d="M498 285h-278l-60 -285h-139l105 493h-49l22 106h49l18 81h138l-17 -81h278l17 81h139l-18 -81h49l-22 -106h-49l-105 -493h-139zM523 401l19 92h-277l-20 -92h278z" />
    <glyph glyph-name="hbar" unicode="&#x127;" horiz-adv-x="575" 
d="M321 0l62 290q10 46 -5 71t-58 25q-36 0 -65 -17.5t-46 -32.5l-71 -336h-135l115 540h-49l22 103h49l12 57h135l-12 -57h102l-22 -103h-102l-21 -98h2q23 19 58.5 37t83.5 18q85 0 124 -54t19 -148l-63 -295h-135z" />
    <glyph glyph-name="Itilde" unicode="&#x128;" horiz-adv-x="295" 
d="M157 0h-139l145 680h138zM90 831q22 28 52.5 47t62.5 19q22 0 38.5 -7t32 -15.5t31 -15.5t35.5 -7t41.5 9.5t36.5 24.5l16 -68q-24 -32 -53.5 -49.5t-57.5 -17.5q-22 0 -40.5 7t-35 15.5t-32.5 15.5t-33 7q-43 0 -78 -35z" />
    <glyph glyph-name="itilde" unicode="&#x129;" horiz-adv-x="262" 
d="M34 647q22 28 52.5 47t62.5 19q22 0 38.5 -7t32 -15.5t31 -15.5t35.5 -7t41.5 9.5t36.5 24.5l16 -68q-24 -32 -53.5 -49.5t-57.5 -17.5q-22 0 -40.5 7t-35 15.5t-32.5 15.5t-33 7q-43 0 -78 -35zM4 0l102 482h135l-102 -482h-135z" />
    <glyph glyph-name="Imacron" unicode="&#x12a;" horiz-adv-x="295" 
d="M157 0h-139l145 680h138zM105 759l22 103h285l-21 -103h-286z" />
    <glyph glyph-name="imacron" unicode="&#x12b;" horiz-adv-x="262" 
d="M53 579l22 103h285l-21 -103h-286zM4 0l102 482h135l-102 -482h-135z" />
    <glyph glyph-name="Ibreve" unicode="&#x12c;" horiz-adv-x="295" 
d="M157 0h-139l145 680h138zM268 858q42 0 75 7t64 27l32 -72q-35 -35 -80.5 -52t-109.5 -17q-63 0 -100 22.5t-54 54.5l51 64q23 -19 53 -26.5t69 -7.5z" />
    <glyph glyph-name="ibreve" unicode="&#x12d;" horiz-adv-x="262" 
d="M211 674q42 0 75 7t64 27l32 -72q-35 -35 -80.5 -52t-109.5 -17q-63 0 -100 22.5t-54 54.5l51 64q23 -19 53 -26.5t69 -7.5zM4 0l102 482h135l-102 -482h-135z" />
    <glyph glyph-name="Iogonek" unicode="&#x12e;" horiz-adv-x="295" 
d="M25 -213q-52 0 -76 26t-24 62q0 22 7.5 40.5t20 33.5t29.5 27.5t36 23.5l145 680h138l-144 -680q-32 -7 -55 -18t-38 -24.5t-22.5 -28t-7.5 -27.5q0 -16 8.5 -22t25.5 -6q14 0 29.5 5.5t25.5 12.5v-80q-9 -5 -21 -9.5t-25.5 -8t-27 -5.5t-24.5 -2z" />
    <glyph glyph-name="iogonek" unicode="&#x12f;" horiz-adv-x="262" 
d="M9 -213q-51 0 -75.5 26t-24.5 62q0 23 7.5 41.5t20.5 34t30.5 28t36.5 23.5l102 480h135l-102 -482q-30 -7 -53 -18t-38 -24.5t-22.5 -28t-7.5 -27.5q0 -16 8.5 -22t25.5 -6q14 0 29.5 5.5t25.5 12.5l-1 -80q-9 -5 -21 -9.5t-25 -8t-26.5 -5.5t-24.5 -2zM128 626
q0 37 27.5 62.5t68.5 25.5q31 0 47.5 -17t16.5 -43q0 -37 -27 -62.5t-69 -25.5q-30 0 -47 17t-17 43z" />
    <glyph glyph-name="Idotaccent" unicode="&#x130;" horiz-adv-x="295" 
d="M157 0h-139l145 680h138zM182 805q0 37 27.5 62.5t67.5 25.5q31 0 48 -17t17 -43q0 -37 -27 -62.5t-69 -25.5q-30 0 -47 17t-17 43z" />
    <glyph glyph-name="dotlessi" unicode="&#x131;" horiz-adv-x="263" 
d="M4 0l102 482h135l-102 -482h-135z" />
    <glyph glyph-name="IJ" unicode="&#x132;" horiz-adv-x="766" 
d="M157 0h-139l145 680h138zM332 156q18 -21 40 -36.5t60 -15.5q23 0 41 9t31 24.5t21.5 35.5t13.5 43l99 464h138l-103 -485q-21 -100 -85.5 -155t-164.5 -55q-60 0 -100.5 22t-64.5 49z" />
    <glyph glyph-name="ij" unicode="&#x133;" horiz-adv-x="523" 
d="M4 0l102 482h135l-103 -482h-134zM128 626q0 37 27 62.5t68 25.5q31 0 48 -17t17 -43q0 -37 -27 -62.5t-69 -25.5q-30 0 -47 17t-17 43zM502 482l-113 -529q-17 -82 -63 -124t-135 -42q-16 0 -38 2.5t-37 5.5l23 109q24 -6 51 -6q29 0 44.5 15t22.5 48l111 521h134z
M389 626q0 37 27.5 62.5t68.5 25.5q31 0 47.5 -17t16.5 -43q0 -37 -27 -62.5t-69 -25.5q-30 0 -47 17t-17 43z" />
    <glyph glyph-name="Jcircumflex" unicode="&#x134;" horiz-adv-x="471" 
d="M37 156q18 -21 40 -36.5t60 -15.5q23 0 41 9t31 24.5t21.5 35.5t13.5 43l99 464h138l-103 -485q-21 -100 -85.5 -155t-164.5 -55q-60 0 -100.5 22t-64.5 49zM598 760l-2 -10h-107l-45 79l-78 -79h-115l2 10l139 136h126z" />
    <glyph glyph-name="jcircumflex" unicode="&#x135;" horiz-adv-x="261" 
d="M240 482l-113 -529q-17 -82 -63 -124t-135 -42q-16 0 -38 2.5t-37 5.5l23 109q24 -6 51 -6q29 0 44.5 15t22.5 48l111 521h134zM353 577l-2 -10h-108l-37 69l-65 -69h-115l2 10l118 136h147z" />
    <glyph glyph-name="uni0136" unicode="&#x136;" horiz-adv-x="632" 
d="M221 304l-64 -304h-139l145 680h138l-70 -329h2l304 329h161l-2 -10l-329 -347l201 -313l-2 -10h-153l-190 304h-2zM122 -208l58 156h135l-2 -10l-92 -156h-101z" />
    <glyph glyph-name="uni0137" unicode="&#x137;" horiz-adv-x="525" 
d="M186 223l-47 -223h-135l149 700h135l-93 -435h2l202 217h155l-3 -10l-230 -235l141 -227l-2 -10h-144l-128 223h-2zM75 -208l58 156h135l-2 -10l-92 -156h-101z" />
    <glyph glyph-name="kgreenlandic" unicode="&#x138;" horiz-adv-x="521" 
d="M182 211l-45 -211h-133l102 482h133l-49 -230h2l209 230h151l-2 -7l-236 -247l145 -221l-1 -7h-142l-132 211h-2z" />
    <glyph glyph-name="Lacute" unicode="&#x139;" horiz-adv-x="523" 
d="M301 680l-120 -564h287l-25 -116h-425l145 680h138zM424 887l-111 -137h-132l2 10l87 136h156z" />
    <glyph glyph-name="lacute" unicode="&#x13a;" horiz-adv-x="288" 
d="M201 -2q-17 -3 -34 -5t-39 -2q-69 0 -92.5 35t-6.5 112l119 562h135l-126 -592q-2 -11 -1 -14.5t12 -3.5h53zM403 887l-111 -137h-132l2 10l87 136h156z" />
    <glyph glyph-name="uni013B" unicode="&#x13b;" horiz-adv-x="523" 
d="M301 680l-120 -564h287l-25 -116h-425l145 680h138zM100 -208l58 156h135l-2 -10l-92 -156h-101z" />
    <glyph glyph-name="uni013C" unicode="&#x13c;" horiz-adv-x="288" 
d="M202 -2q-17 -3 -34 -5t-39 -2q-69 0 -92.5 35t-6.5 112l119 562h135l-126 -592q-2 -11 -1 -14.5t12 -3.5h53zM-34 -208l58 156h135l-2 -10l-92 -156h-101z" />
    <glyph glyph-name="Lcaron" unicode="&#x13d;" horiz-adv-x="524" 
d="M301 680l-120 -564h287l-25 -116h-425l145 680h138zM350 524l58 156h135l-2 -10l-92 -156h-101z" />
    <glyph glyph-name="lcaron" unicode="&#x13e;" horiz-adv-x="288" 
d="M201 -2q-17 -3 -34 -5t-39 -2q-69 0 -92.5 35t-6.5 112l119 562h135l-126 -592q-2 -11 -1 -14.5t12 -3.5h53zM284 524l58 156h135l-2 -10l-92 -156h-101z" />
    <glyph glyph-name="Ldot" unicode="&#x13f;" horiz-adv-x="543" 
d="M301 680l-120 -564h287l-25 -116h-425l145 680h138zM337 343q0 45 29.5 74.5t75.5 29.5q33 0 50.5 -18.5t17.5 -49.5q0 -45 -29.5 -74.5t-75.5 -29.5q-33 0 -50.5 18.5t-17.5 49.5z" />
    <glyph glyph-name="ldot" unicode="&#x140;" horiz-adv-x="415" 
d="M201 -2q-17 -3 -34 -5t-39 -2q-69 0 -92.5 35t-6.5 112l119 562h135l-126 -592q-2 -11 -1 -14.5t12 -3.5h53zM265 343q0 45 29.5 74.5t75.5 29.5q33 0 50.5 -18.5t17.5 -49.5q0 -45 -29.5 -74.5t-75.5 -29.5q-33 0 -50.5 18.5t-17.5 49.5z" />
    <glyph glyph-name="Lslash" unicode="&#x141;" horiz-adv-x="532" 
d="M311 680l-54 -253l132 61h10l-25 -119l-143 -66l-40 -187h286l-25 -116h-424l49 234l-60 -28h-10l25 119l72 33l68 322h139z" />
    <glyph glyph-name="lslash" unicode="&#x142;" horiz-adv-x="336" 
d="M238 -2q-17 -3 -34 -5t-39 -2q-69 0 -92.5 35t-6.5 112l20 95l-64 -29h-10l25 119l76 35l72 342h135l-58 -274l85 40h10l-25 -119l-97 -45l-41 -194q-2 -11 -1 -14.5t12 -3.5h53z" />
    <glyph glyph-name="Nacute" unicode="&#x143;" horiz-adv-x="726" 
d="M492 206l101 474h139l-145 -680h-147l-180 474h-3l-100 -474h-139l145 680h146l180 -474h3zM633 887l-111 -137h-132l2 10l87 136h156z" />
    <glyph glyph-name="nacute" unicode="&#x144;" horiz-adv-x="575" 
d="M215 482l8 -47h2q12 10 26.5 21t33.5 20t42 15t51 6q84 0 122.5 -54t18.5 -149l-63 -294h-134l62 290q20 96 -63 96q-34 0 -63 -15.5t-47 -29.5l-72 -341h-135l102 482h109zM547 704l-131 -137h-122l2 10l107 136h146z" />
    <glyph glyph-name="uni0145" unicode="&#x145;" horiz-adv-x="726" 
d="M492 206l101 474h139l-145 -680h-147l-180 474h-3l-100 -474h-139l145 680h146l180 -474h3zM165 -208l58 156h135l-2 -10l-92 -156h-101z" />
    <glyph glyph-name="uni0146" unicode="&#x146;" horiz-adv-x="575" 
d="M215 482l8 -47h2q12 10 26.5 21t33.5 20t42 15t51 6q84 0 122.5 -54t18.5 -149l-63 -294h-134l62 290q20 96 -63 96q-34 0 -63 -15.5t-47 -29.5l-72 -341h-135l102 482h109zM91 -208l58 156h135l-2 -10l-92 -156h-101z" />
    <glyph glyph-name="Ncaron" unicode="&#x147;" horiz-adv-x="726" 
d="M492 206l101 474h139l-145 -680h-147l-180 474h-3l-100 -474h-139l145 680h146l180 -474h3zM321 886l2 10h108l44 -79l78 79h115l-2 -10l-138 -136h-126z" />
    <glyph glyph-name="ncaron" unicode="&#x148;" horiz-adv-x="575" 
d="M215 482l8 -47h2q12 10 26.5 21t33.5 20t42 15t51 6q84 0 122.5 -54t18.5 -149l-63 -294h-134l62 290q20 96 -63 96q-34 0 -63 -15.5t-47 -29.5l-72 -341h-135l102 482h109zM224 703l2 10h108l36 -69l65 69h116l-2 -10l-118 -136h-147z" />
    <glyph glyph-name="napostrophe" unicode="&#x149;" horiz-adv-x="575" 
d="M215 482l8 -47h2q12 10 26.5 21t33.5 20t42 15t51 6q84 0 122.5 -54t18.5 -149l-63 -294h-134l62 290q20 96 -63 96q-34 0 -63 -15.5t-47 -29.5l-72 -341h-135l102 482h109zM10 524l58 156h135l-2 -10l-92 -156h-101z" />
    <glyph glyph-name="Eng" unicode="&#x14a;" horiz-adv-x="725" 
d="M580 -31q-20 -94 -67 -138t-132 -44q-16 0 -39.5 2.5t-38.5 6.5l26 118q11 -3 23.5 -5t26.5 -2q29 0 42 12t20 45l7 36l-188 474h-3l-100 -474h-139l145 680h146l180 -474h3l101 474h139z" />
    <glyph glyph-name="eng" unicode="&#x14b;" horiz-adv-x="575" 
d="M215 482l8 -47h2q12 10 26.5 21t33.5 20t42 15t51 6q84 0 122.5 -54t18.5 -149l-73 -341q-17 -82 -63 -124t-135 -42q-16 0 -38 2.5t-37 5.5l23 109q24 -6 51 -6q29 0 44.5 15t22.5 48l70 329q20 96 -63 96q-34 0 -63 -15.5t-47 -29.5l-72 -341h-135l102 482h109z" />
    <glyph glyph-name="Omacron" unicode="&#x14c;" horiz-adv-x="750" 
d="M199 267q0 -35 7.5 -65t24.5 -51.5t43 -34t64 -12.5q68 0 113.5 29.5t73 75t39 100t11.5 104.5q0 35 -7.5 65t-24 51.5t-42.5 34t-63 12.5q-69 0 -114.5 -29.5t-73.5 -75t-39.5 -100t-11.5 -104.5zM721 421q0 -82 -24 -160.5t-73.5 -139.5t-124.5 -98.5t-177 -37.5
q-68 0 -118.5 20.5t-84 57.5t-50 86.5t-16.5 108.5q0 82 24 160.5t73.5 140t124.5 99t178 37.5q67 0 117.5 -20.5t84 -57.5t50 -87t16.5 -109zM334 759l22 103h285l-21 -103h-286z" />
    <glyph glyph-name="omacron" unicode="&#x14d;" horiz-adv-x="583" 
d="M164 200q0 -52 23.5 -78t63.5 -26q32 0 59.5 12.5t47.5 36.5t31.5 58.5t11.5 78.5q0 52 -23.5 78t-64.5 26q-31 0 -58 -12.5t-47.5 -36.5t-32 -58.5t-11.5 -78.5zM540 290q0 -60 -20.5 -115t-59.5 -97.5t-95 -67.5t-127 -25q-53 0 -93 16.5t-66.5 45t-40 66.5t-13.5 80
q0 60 21 115t60.5 97t95 67t124.5 25q54 0 94 -16.5t66.5 -45t40 -66t13.5 -79.5zM211 579l22 103h285l-21 -103h-286z" />
    <glyph glyph-name="Obreve" unicode="&#x14e;" horiz-adv-x="750" 
d="M199 267q0 -35 7.5 -65t24.5 -51.5t43 -34t64 -12.5q68 0 113.5 29.5t73 75t39 100t11.5 104.5q0 35 -7.5 65t-24 51.5t-42.5 34t-63 12.5q-69 0 -114.5 -29.5t-73.5 -75t-39.5 -100t-11.5 -104.5zM721 421q0 -82 -24 -160.5t-73.5 -139.5t-124.5 -98.5t-177 -37.5
q-68 0 -118.5 20.5t-84 57.5t-50 86.5t-16.5 108.5q0 82 24 160.5t73.5 140t124.5 99t178 37.5q67 0 117.5 -20.5t84 -57.5t50 -87t16.5 -109zM495 858q42 0 75 7t64 27l32 -72q-35 -35 -80.5 -52t-109.5 -17q-63 0 -100 22.5t-54 54.5l51 64q23 -19 53 -26.5t69 -7.5z" />
    <glyph glyph-name="obreve" unicode="&#x14f;" horiz-adv-x="583" 
d="M164 200q0 -52 23.5 -78t63.5 -26q32 0 59.5 12.5t47.5 36.5t31.5 58.5t11.5 78.5q0 52 -23.5 78t-64.5 26q-31 0 -58 -12.5t-47.5 -36.5t-32 -58.5t-11.5 -78.5zM540 290q0 -60 -20.5 -115t-59.5 -97.5t-95 -67.5t-127 -25q-53 0 -93 16.5t-66.5 45t-40 66.5t-13.5 80
q0 60 21 115t60.5 97t95 67t124.5 25q54 0 94 -16.5t66.5 -45t40 -66t13.5 -79.5zM368 674q42 0 75 7t64 27l32 -72q-35 -35 -80.5 -52t-109.5 -17q-63 0 -100 22.5t-54 54.5l51 64q23 -19 53 -26.5t69 -7.5z" />
    <glyph glyph-name="Ohungarumlaut" unicode="&#x150;" horiz-adv-x="750" 
d="M199 267q0 -35 7.5 -65t24.5 -51.5t43 -34t64 -12.5q68 0 113.5 29.5t73 75t39 100t11.5 104.5q0 35 -7.5 65t-24 51.5t-42.5 34t-63 12.5q-69 0 -114.5 -29.5t-73.5 -75t-39.5 -100t-11.5 -104.5zM721 421q0 -82 -24 -160.5t-73.5 -139.5t-124.5 -98.5t-177 -37.5
q-68 0 -118.5 20.5t-84 57.5t-50 86.5t-16.5 108.5q0 82 24 160.5t73.5 140t124.5 99t178 37.5q67 0 117.5 -20.5t84 -57.5t50 -87t16.5 -109zM568 886l-131 -136h-122l2 10l107 136h146zM776 886l-131 -136h-122l2 10l107 136h146z" />
    <glyph glyph-name="ohungarumlaut" unicode="&#x151;" horiz-adv-x="583" 
d="M164 200q0 -52 23.5 -78t63.5 -26q32 0 59.5 12.5t47.5 36.5t31.5 58.5t11.5 78.5q0 52 -23.5 78t-64.5 26q-31 0 -58 -12.5t-47.5 -36.5t-32 -58.5t-11.5 -78.5zM540 290q0 -60 -20.5 -115t-59.5 -97.5t-95 -67.5t-127 -25q-53 0 -93 16.5t-66.5 45t-40 66.5t-13.5 80
q0 60 21 115t60.5 97t95 67t124.5 25q54 0 94 -16.5t66.5 -45t40 -66t13.5 -79.5zM433 704l-131 -137h-122l2 10l107 136h146zM641 704l-131 -137h-122l2 10l107 136h146z" />
    <glyph glyph-name="OE" unicode="&#x152;" horiz-adv-x="987" 
d="M453 695q34 0 63.5 -4t53.5 -11h445l-24 -116h-310l-34 -163h277l-25 -116h-277l-36 -169h312l-24 -116h-449q-26 -7 -52.5 -11t-50.5 -4q-70 0 -120.5 21.5t-83.5 58.5t-49 86.5t-16 106.5q0 84 24.5 163t74.5 139.5t125 97.5t176 37zM338 104q35 0 62 6t50 17l90 426
q-18 11 -42.5 17t-59.5 6q-69 0 -114.5 -29.5t-73.5 -75t-39.5 -100t-11.5 -104.5q0 -35 7.5 -65t24.5 -51.5t43 -34t64 -12.5z" />
    <glyph glyph-name="oe" unicode="&#x153;" horiz-adv-x="900" 
d="M524 202q-1 -4 -1 -10v-8q0 -44 24 -67.5t71 -23.5q41 0 79.5 9.5t76.5 23.5l21 -100q-39 -17 -91 -29t-109 -12q-59 0 -98.5 19.5t-62.5 51.5q-36 -33 -85 -52t-111 -19q-53 0 -93 16.5t-66.5 45t-40 66.5t-13.5 80q0 60 21 115t60.5 97t95 67t124.5 25q59 0 99.5 -20
t65.5 -53q35 34 81.5 53.5t104.5 19.5q50 0 86.5 -14t60 -37t35 -54t11.5 -65q0 -44 -11.5 -75t-20.5 -50h-314zM164 200q0 -52 23.5 -78t63.5 -26q32 0 59.5 12.5t47.5 36.5t31.5 58.5t11.5 78.5q0 52 -23.5 78t-64.5 26q-31 0 -58 -12.5t-47.5 -36.5t-32 -58.5
t-11.5 -78.5zM740 286q7 19 7 40q0 31 -17.5 52t-62.5 21q-25 0 -45.5 -9.5t-36 -25.5t-26.5 -36t-17 -42h198z" />
    <glyph glyph-name="Racute" unicode="&#x154;" horiz-adv-x="657" 
d="M18 0l145 680h272q105 0 155.5 -44.5t50.5 -125.5q0 -42 -12 -79.5t-36 -68t-60.5 -52.5t-85.5 -32l125 -262l-3 -16h-145l-120 269h-90l-57 -269h-139zM376 385q54 0 85 31t31 79q0 32 -20 50.5t-58 18.5h-137l-38 -179h137zM578 887l-111 -137h-132l2 10l87 136h156z
" />
    <glyph glyph-name="racute" unicode="&#x155;" horiz-adv-x="366" 
d="M216 482l6 -58h2q20 28 49 50.5t76 22.5q12 0 24.5 -2t20.5 -4l-25 -113q-11 2 -24.5 3t-21.5 1q-42 0 -69.5 -17t-44.5 -34l-70 -331h-135l102 482h110zM440 704l-131 -137h-122l2 10l107 136h146z" />
    <glyph glyph-name="uni0156" unicode="&#x156;" horiz-adv-x="657" 
d="M18 0l145 680h272q105 0 155.5 -44.5t50.5 -125.5q0 -42 -12 -79.5t-36 -68t-60.5 -52.5t-85.5 -32l125 -262l-3 -16h-145l-120 269h-90l-57 -269h-139zM376 385q54 0 85 31t31 79q0 32 -20 50.5t-58 18.5h-137l-38 -179h137zM127 -208l58 156h135l-2 -10l-92 -156h-101z
" />
    <glyph glyph-name="uni0157" unicode="&#x157;" horiz-adv-x="366" 
d="M216 482l6 -58h2q20 28 49 50.5t76 22.5q12 0 24.5 -2t20.5 -4l-25 -113q-11 2 -24.5 3t-21.5 1q-42 0 -69.5 -17t-44.5 -34l-70 -331h-135l102 482h110zM-62 -208l58 156h135l-2 -10l-92 -156h-101z" />
    <glyph glyph-name="Rcaron" unicode="&#x158;" horiz-adv-x="657" 
d="M18 0l145 680h272q105 0 155.5 -44.5t50.5 -125.5q0 -42 -12 -79.5t-36 -68t-60.5 -52.5t-85.5 -32l125 -262l-3 -16h-145l-120 269h-90l-57 -269h-139zM376 385q54 0 85 31t31 79q0 32 -20 50.5t-58 18.5h-137l-38 -179h137zM267 886l2 10h108l44 -79l78 79h115l-2 -10
l-138 -136h-126z" />
    <glyph glyph-name="rcaron" unicode="&#x159;" horiz-adv-x="366" 
d="M216 482l6 -58h2q20 28 49 50.5t76 22.5q12 0 24.5 -2t20.5 -4l-25 -113q-11 2 -24.5 3t-21.5 1q-42 0 -69.5 -17t-44.5 -34l-70 -331h-135l102 482h110zM134 703l2 10h108l36 -69l65 69h116l-2 -10l-118 -136h-147z" />
    <glyph glyph-name="Sacute" unicode="&#x15a;" horiz-adv-x="558" 
d="M56 157q13 -10 33.5 -19.5t43.5 -17.5t47.5 -13t47.5 -5q67 0 98 23t31 65q0 50 -77 87l-67 32q-60 29 -91 68.5t-31 96.5q0 47 18 87.5t53.5 70t88 46.5t122.5 17q20 0 44 -3t48.5 -9.5t49 -15.5t45.5 -21l-55 -111q-32 18 -71.5 30.5t-75.5 12.5q-57 0 -89 -25t-32 -62
q0 -20 10.5 -39t42.5 -35l66 -32q36 -17 63.5 -35t46.5 -38.5t29 -45t10 -55.5q0 -52 -21.5 -94t-60 -71t-92.5 -45t-118 -16q-68 0 -122 19.5t-90 43.5zM555 887l-111 -137h-132l2 10l87 136h156z" />
    <glyph glyph-name="sacute" unicode="&#x15b;" horiz-adv-x="465" 
d="M39 128q32 -18 68.5 -29.5t75.5 -11.5q84 0 84 52q0 17 -14 28t-40 20l-59 20q-20 7 -38.5 17.5t-32.5 25.5t-22.5 34.5t-8.5 45.5q0 81 59 124t165 43q48 0 88.5 -8.5t78.5 -25.5l-44 -97q-29 12 -62.5 20.5t-68.5 8.5q-44 0 -62.5 -13t-18.5 -36q0 -17 13.5 -27
t37.5 -18l57 -20q46 -16 77 -46t31 -80q0 -85 -62 -127.5t-166 -42.5q-57 0 -101.5 12t-82.5 34zM473 704l-131 -137h-122l2 10l107 136h146z" />
    <glyph glyph-name="Scircumflex" unicode="&#x15c;" horiz-adv-x="558" 
d="M56 157q13 -10 33.5 -19.5t43.5 -17.5t47.5 -13t47.5 -5q67 0 98 23t31 65q0 50 -77 87l-67 32q-60 29 -91 68.5t-31 96.5q0 47 18 87.5t53.5 70t88 46.5t122.5 17q20 0 44 -3t48.5 -9.5t49 -15.5t45.5 -21l-55 -111q-32 18 -71.5 30.5t-75.5 12.5q-57 0 -89 -25t-32 -62
q0 -20 10.5 -39t42.5 -35l66 -32q36 -17 63.5 -35t46.5 -38.5t29 -45t10 -55.5q0 -52 -21.5 -94t-60 -71t-92.5 -45t-118 -16q-68 0 -122 19.5t-90 43.5zM550 760l-2 -10h-107l-45 79l-78 -79h-115l2 10l139 136h126z" />
    <glyph glyph-name="scircumflex" unicode="&#x15d;" horiz-adv-x="465" 
d="M39 128q32 -18 68.5 -29.5t75.5 -11.5q84 0 84 52q0 17 -14 28t-40 20l-59 20q-20 7 -38.5 17.5t-32.5 25.5t-22.5 34.5t-8.5 45.5q0 81 59 124t165 43q48 0 88.5 -8.5t78.5 -25.5l-44 -97q-29 12 -62.5 20.5t-68.5 8.5q-44 0 -62.5 -13t-18.5 -36q0 -17 13.5 -27
t37.5 -18l57 -20q46 -16 77 -46t31 -80q0 -85 -62 -127.5t-166 -42.5q-57 0 -101.5 12t-82.5 34zM453 577l-2 -10h-108l-37 69l-65 -69h-115l2 10l118 136h147z" />
    <glyph glyph-name="Scedilla" unicode="&#x15e;" horiz-adv-x="558" 
d="M56 157q13 -10 33.5 -19.5t43.5 -17.5t47.5 -13t47.5 -5q67 0 98 23t31 65q0 50 -77 87l-67 32q-60 29 -91 68.5t-31 96.5q0 47 18 87.5t53.5 70t88 46.5t122.5 17q20 0 44 -3t48.5 -9.5t49 -15.5t45.5 -21l-55 -111q-32 18 -71.5 30.5t-75.5 12.5q-57 0 -89 -25t-32 -62
q0 -20 10.5 -39t42.5 -35l66 -32q36 -17 63.5 -35t46.5 -38.5t29 -45t10 -55.5q0 -49 -19 -88.5t-53 -68.5t-81.5 -46.5t-104.5 -21.5l-20 -31q26 -5 40 -22t14 -41q0 -48 -34 -76.5t-99 -28.5q-23 0 -40.5 3.5t-30.5 8.5l22 63q22 -8 40 -8q39 0 39 29q0 8 -5 12.5t-12.5 7
t-16.5 3t-17 0.5l-3 6l45 76q-53 6 -95.5 23t-72.5 37z" />
    <glyph glyph-name="scedilla" unicode="&#x15f;" horiz-adv-x="465" 
d="M39 128q32 -18 68.5 -29.5t75.5 -11.5q84 0 84 52q0 17 -14 28t-40 20l-59 20q-20 7 -38.5 17.5t-32.5 25.5t-22.5 34.5t-8.5 45.5q0 81 59 124t165 43q48 0 88.5 -8.5t78.5 -25.5l-44 -97q-29 12 -62.5 20.5t-68.5 8.5q-44 0 -62.5 -13t-18.5 -36q0 -17 13.5 -27
t37.5 -18l57 -20q46 -16 77 -46t31 -80q0 -79 -53.5 -121t-146.5 -48l-19 -31q26 -5 40 -22t14 -41q0 -48 -34 -76.5t-99 -28.5q-23 0 -40.5 3.5t-30.5 8.5l22 63q22 -8 40 -8q39 0 39 29q0 8 -5 12.5t-12.5 7t-16.5 3t-17 0.5l-3 6l45 76q-40 4 -73 15t-62 28z" />
    <glyph glyph-name="Scaron" unicode="&#x160;" horiz-adv-x="558" 
d="M56 157q13 -10 33.5 -19.5t43.5 -17.5t47.5 -13t47.5 -5q67 0 98 23t31 65q0 50 -77 87l-67 32q-60 29 -91 68.5t-31 96.5q0 47 18 87.5t53.5 70t88 46.5t122.5 17q20 0 44 -3t48.5 -9.5t49 -15.5t45.5 -21l-55 -111q-32 18 -71.5 30.5t-75.5 12.5q-57 0 -89 -25t-32 -62
q0 -20 10.5 -39t42.5 -35l66 -32q36 -17 63.5 -35t46.5 -38.5t29 -45t10 -55.5q0 -52 -21.5 -94t-60 -71t-92.5 -45t-118 -16q-68 0 -122 19.5t-90 43.5zM236 886l2 10h108l44 -79l78 79h115l-2 -10l-138 -136h-126z" />
    <glyph glyph-name="scaron" unicode="&#x161;" horiz-adv-x="465" 
d="M39 128q32 -18 68.5 -29.5t75.5 -11.5q84 0 84 52q0 17 -14 28t-40 20l-59 20q-20 7 -38.5 17.5t-32.5 25.5t-22.5 34.5t-8.5 45.5q0 81 59 124t165 43q48 0 88.5 -8.5t78.5 -25.5l-44 -97q-29 12 -62.5 20.5t-68.5 8.5q-44 0 -62.5 -13t-18.5 -36q0 -17 13.5 -27
t37.5 -18l57 -20q46 -16 77 -46t31 -80q0 -85 -62 -127.5t-166 -42.5q-57 0 -101.5 12t-82.5 34zM159 703l2 10h108l36 -69l65 69h116l-2 -10l-118 -136h-147z" />
    <glyph glyph-name="uni0162" unicode="&#x162;" horiz-adv-x="559" 
d="M124 -88l53 88h-27l119 564h-186l24 116h514l-25 -116h-188l-120 -564h-33l-28 -45q26 -5 40 -22t14 -41q0 -48 -34 -76.5t-99 -28.5q-23 0 -40.5 3.5t-30.5 8.5l22 63q22 -8 40 -8q39 0 39 29q0 8 -5 12.5t-12.5 7t-16.5 3t-17 0.5z" />
    <glyph glyph-name="uni0163" unicode="&#x163;" horiz-adv-x="406" 
d="M67 -88l52 87q-35 15 -47 49.5t1 91.5l51 239h-87l16 73l92 30l24 112h135l-24 -112h136l-22 -103h-136l-48 -228q-13 -55 44 -55q17 0 39 4.5t41 9.5l-24 -110q-15 -4 -43.5 -9.5t-63.5 -5.5q-4 0 -7 0.5t-7 0.5l-19 -31q26 -5 40 -22t14 -41q0 -48 -34 -76.5t-99 -28.5
q-23 0 -40.5 3.5t-30.5 8.5l22 63q22 -8 40 -8q39 0 39 29q0 8 -5 12.5t-12.5 7t-16.5 3t-17 0.5z" />
    <glyph glyph-name="Tcaron" unicode="&#x164;" horiz-adv-x="559" 
d="M621 680l-25 -116h-187l-120 -564h-139l120 564h-187l25 116h513zM234 886l2 10h108l44 -79l78 79h115l-2 -10l-138 -136h-126z" />
    <glyph glyph-name="tcaron" unicode="&#x165;" horiz-adv-x="406" 
d="M304 594l-24 -112h130l-22 -103h-130l-48 -228q-13 -55 44 -55q18 0 41.5 4.5t41.5 10.5l-24 -110q-14 -5 -43.5 -10.5t-66.5 -5.5q-80 0 -114 35.5t-16 119.5l51 239h-87l16 73l92 30l24 112h135zM360 524l58 156h135l-2 -10l-92 -156h-101z" />
    <glyph glyph-name="Tbar" unicode="&#x166;" horiz-adv-x="559" 
d="M355 308l-65 -308h-139l65 308h-112l23 106h112l32 150h-187l25 116h513l-25 -116h-187l-32 -150h113l-23 -106h-113z" />
    <glyph glyph-name="tbar" unicode="&#x167;" horiz-adv-x="407" 
d="M305 594l-24 -112h136l-22 -103h-136l-14 -67h86l-21 -103h-87l-12 -58q-13 -55 44 -55q17 0 39 4.5t41 9.5l-24 -110q-15 -4 -43.5 -9.5t-63.5 -5.5q-80 0 -114 35.5t-16 119.5l14 69h-64l22 103h64l15 67h-87l16 73l92 30l24 112h135z" />
    <glyph glyph-name="Utilde" unicode="&#x168;" horiz-adv-x="697" 
d="M294 680l-85 -401q-8 -38 -7.5 -70t12 -55t35 -36.5t62.5 -13.5q38 0 67 13.5t50.5 36.5t35.5 55t22 70l85 401h139l-90 -422q-13 -62 -37.5 -112.5t-63.5 -86t-94.5 -55t-129.5 -19.5q-146 0 -199.5 81t-22.5 224l82 390h139zM289 831q22 28 52.5 47t62.5 19
q22 0 38.5 -7t32 -15.5t31 -15.5t35.5 -7t41.5 9.5t36.5 24.5l16 -68q-24 -32 -53.5 -49.5t-57.5 -17.5q-22 0 -40.5 7t-35 15.5t-32.5 15.5t-33 7q-43 0 -78 -35z" />
    <glyph glyph-name="utilde" unicode="&#x169;" horiz-adv-x="569" 
d="M235 482l-62 -290q-10 -48 3 -72t56 -24q33 0 62 15.5t46 29.5l73 341h134l-102 -482h-109l-8 47h-2q-12 -10 -26.5 -21t-32.5 -20t-40.5 -15t-50.5 -6q-85 0 -121.5 53.5t-16.5 147.5l63 296h134zM186 647q22 28 52.5 47t62.5 19q22 0 38.5 -7t32 -15.5t31 -15.5
t35.5 -7t41.5 9.5t36.5 24.5l16 -68q-24 -32 -53.5 -49.5t-57.5 -17.5q-22 0 -40.5 7t-35 15.5t-32.5 15.5t-33 7q-43 0 -78 -35z" />
    <glyph glyph-name="Umacron" unicode="&#x16a;" horiz-adv-x="697" 
d="M294 680l-85 -401q-8 -38 -7.5 -70t12 -55t35 -36.5t62.5 -13.5q38 0 67 13.5t50.5 36.5t35.5 55t22 70l85 401h139l-90 -422q-13 -62 -37.5 -112.5t-63.5 -86t-94.5 -55t-129.5 -19.5q-146 0 -199.5 81t-22.5 224l82 390h139zM308 759l22 103h285l-21 -103h-286z" />
    <glyph glyph-name="umacron" unicode="&#x16b;" horiz-adv-x="569" 
d="M235 482l-62 -290q-10 -48 3 -72t56 -24q33 0 62 15.5t46 29.5l73 341h134l-102 -482h-109l-8 47h-2q-12 -10 -26.5 -21t-32.5 -20t-40.5 -15t-50.5 -6q-85 0 -121.5 53.5t-16.5 147.5l63 296h134zM208 579l22 103h285l-21 -103h-286z" />
    <glyph glyph-name="Ubreve" unicode="&#x16c;" horiz-adv-x="697" 
d="M294 680l-85 -401q-8 -38 -7.5 -70t12 -55t35 -36.5t62.5 -13.5q38 0 67 13.5t50.5 36.5t35.5 55t22 70l85 401h139l-90 -422q-13 -62 -37.5 -112.5t-63.5 -86t-94.5 -55t-129.5 -19.5q-146 0 -199.5 81t-22.5 224l82 390h139zM466 858q42 0 75 7t64 27l32 -72
q-35 -35 -80.5 -52t-109.5 -17q-63 0 -100 22.5t-54 54.5l51 64q23 -19 53 -26.5t69 -7.5z" />
    <glyph glyph-name="ubreve" unicode="&#x16d;" horiz-adv-x="569" 
d="M235 482l-62 -290q-10 -48 3 -72t56 -24q33 0 62 15.5t46 29.5l73 341h134l-102 -482h-109l-8 47h-2q-12 -10 -26.5 -21t-32.5 -20t-40.5 -15t-50.5 -6q-85 0 -121.5 53.5t-16.5 147.5l63 296h134zM365 674q42 0 75 7t64 27l32 -72q-35 -35 -80.5 -52t-109.5 -17
q-63 0 -100 22.5t-54 54.5l51 64q23 -19 53 -26.5t69 -7.5z" />
    <glyph glyph-name="Uring" unicode="&#x16e;" horiz-adv-x="697" 
d="M294 680l-85 -401q-8 -38 -7.5 -70t12 -55t35 -36.5t62.5 -13.5q38 0 67 13.5t50.5 36.5t35.5 55t22 70l85 401h139l-90 -422q-13 -62 -37.5 -112.5t-63.5 -86t-94.5 -55t-129.5 -19.5q-146 0 -199.5 81t-22.5 224l82 390h139zM423 826q0 -31 34 -31q22 0 36 12.5
t14 34.5q0 14 -9 22.5t-24 8.5q-22 0 -36.5 -13t-14.5 -34zM342 815q0 30 11 54.5t30.5 41.5t45.5 26t55 9q49 0 76.5 -26t27.5 -68q0 -30 -11 -54.5t-30 -41.5t-45 -26t-56 -9q-49 0 -76.5 26t-27.5 68z" />
    <glyph glyph-name="uring" unicode="&#x16f;" horiz-adv-x="569" 
d="M235 482l-62 -290q-10 -48 3 -72t56 -24q33 0 62 15.5t46 29.5l73 341h134l-102 -482h-109l-8 47h-2q-12 -10 -26.5 -21t-32.5 -20t-40.5 -15t-50.5 -6q-85 0 -121.5 53.5t-16.5 147.5l63 296h134zM317 635q0 -31 34 -31q22 0 36 12.5t14 34.5q0 14 -9 22.5t-24 8.5
q-22 0 -36.5 -13t-14.5 -34zM236 624q0 30 11 54.5t30.5 41.5t45.5 26t55 9q49 0 76.5 -26t27.5 -68q0 -30 -11 -54.5t-30 -41.5t-45 -26t-56 -9q-49 0 -76.5 26t-27.5 68z" />
    <glyph glyph-name="Uhungarumlaut" unicode="&#x170;" horiz-adv-x="697" 
d="M294 680l-85 -401q-8 -38 -7.5 -70t12 -55t35 -36.5t62.5 -13.5q38 0 67 13.5t50.5 36.5t35.5 55t22 70l85 401h139l-90 -422q-13 -62 -37.5 -112.5t-63.5 -86t-94.5 -55t-129.5 -19.5q-146 0 -199.5 81t-22.5 224l82 390h139zM532 886l-131 -136h-122l2 10l107 136h146z
M740 886l-131 -136h-122l2 10l107 136h146z" />
    <glyph glyph-name="uhungarumlaut" unicode="&#x171;" horiz-adv-x="568" 
d="M235 482l-62 -290q-10 -48 3 -72t56 -24q33 0 62 15.5t46 29.5l73 341h134l-102 -482h-109l-8 47h-2q-12 -10 -26.5 -21t-32.5 -20t-40.5 -15t-50.5 -6q-85 0 -121.5 53.5t-16.5 147.5l63 296h134zM432 704l-131 -137h-122l2 10l107 136h146zM640 704l-131 -137h-122
l2 10l107 136h146z" />
    <glyph glyph-name="Uogonek" unicode="&#x172;" horiz-adv-x="697" 
d="M273 -213q-48 0 -75.5 24t-27.5 64q0 38 20.5 66t50.5 48q-115 14 -155.5 92.5t-12.5 208.5l82 390h139l-85 -401q-8 -38 -7.5 -70t12 -55t35 -36.5t62.5 -13.5q38 0 67 13.5t50.5 36.5t35.5 55t22 70l85 401h139l-90 -422q-12 -57 -34 -104.5t-56.5 -83t-82 -57
t-110.5 -26.5q-28 -9 -43 -31t-15 -45t8.5 -30t25.5 -7q14 0 29.5 5.5t25.5 12.5l2 -80q-9 -5 -21 -9.5t-25 -8t-26.5 -5.5t-24.5 -2z" />
    <glyph glyph-name="uogonek" unicode="&#x173;" horiz-adv-x="569" 
d="M235 482l-62 -290q-10 -48 3 -72t56 -24q33 0 62 15.5t46 29.5l73 341h134l-102 -482q-19 -6 -37.5 -17t-33 -24.5t-23.5 -28.5t-9 -28q0 -28 33 -28q15 0 30 5.5t26 12.5l-1 -80q-18 -10 -46 -17.5t-51 -7.5q-51 0 -76 26t-25 62q0 23 9.5 42.5t24.5 35.5t33.5 29
t35.5 23l-7 42h-2q-12 -10 -26.5 -21t-32.5 -20t-40.5 -15t-50.5 -6q-85 0 -121.5 53.5t-16.5 147.5l63 296h134z" />
    <glyph glyph-name="Wcircumflex" unicode="&#x174;" horiz-adv-x="990" 
d="M1057 670l-323 -670h-165l-21 527h-1l-244 -527h-167l-38 670l2 10h145l-2 -530h2l250 530h162l24 -530h2l222 530h154zM767 760l-2 -10h-107l-45 79l-78 -79h-115l2 10l139 136h126z" />
    <glyph glyph-name="wcircumflex" unicode="&#x175;" horiz-adv-x="826" 
d="M847 472l-240 -472h-148l-33 347h-2l-180 -347h-147l-40 472l2 10h130l14 -334h2l171 334h146l29 -334h2l156 334h140zM634 577l-2 -10h-108l-37 69l-65 -69h-115l2 10l118 136h147z" />
    <glyph glyph-name="Ycircumflex" unicode="&#x176;" horiz-adv-x="594" 
d="M228 680l87 -280h2l207 280h156l-2 -10l-314 -396l-58 -274h-139l59 274l-147 396l2 10h147zM569 760l-2 -10h-107l-45 79l-78 -79h-115l2 10l139 136h126z" />
    <glyph glyph-name="ycircumflex" unicode="&#x177;" horiz-adv-x="524" 
d="M549 472l-327 -550q-40 -67 -92 -101t-114 -34q-24 0 -43 2.5t-36 6.5l20 107q17 -3 34 -4t25 -1q32 0 53 12t38 41l31 54l-90 467l2 10h136l42 -328h3l176 328h144zM484 577l-2 -10h-108l-37 69l-65 -69h-115l2 10l118 136h147z" />
    <glyph glyph-name="Ydieresis" unicode="&#x178;" horiz-adv-x="594" 
d="M228 680l87 -280h2l207 280h156l-2 -10l-314 -396l-58 -274h-139l59 274l-147 396l2 10h147zM203 805q0 37 27 62.5t68 25.5q31 0 48 -17t17 -43q0 -37 -27 -62.5t-69 -25.5q-30 0 -47 17t-17 43zM461 805q0 37 27 62.5t68 25.5q31 0 48 -17t17 -43q0 -37 -27 -62.5
t-69 -25.5q-30 0 -47 17t-17 43z" />
    <glyph glyph-name="Zacute" unicode="&#x179;" horiz-adv-x="581" 
d="M619 680l-21 -100l-415 -462v-2h316l-25 -116h-496l21 100l414 462v2h-294l24 116h476zM561 887l-111 -137h-132l2 10l87 136h156z" />
    <glyph glyph-name="zacute" unicode="&#x17a;" horiz-adv-x="468" 
d="M468 482l-15 -71l-284 -306v-2h219l-22 -103h-391l15 71l284 306v2h-204l22 103h376zM478 704l-131 -137h-122l2 10l107 136h146z" />
    <glyph glyph-name="Zdotaccent" unicode="&#x17b;" horiz-adv-x="581" 
d="M619 680l-21 -100l-415 -462v-2h316l-25 -116h-496l21 100l414 462v2h-294l24 116h476zM336 805q0 37 27.5 62.5t67.5 25.5q31 0 48 -17t17 -43q0 -37 -27 -62.5t-69 -25.5q-30 0 -47 17t-17 43z" />
    <glyph glyph-name="zdotaccent" unicode="&#x17c;" horiz-adv-x="468" 
d="M468 482l-15 -71l-284 -306v-2h219l-22 -103h-391l15 71l284 306v2h-204l22 103h376zM236 626q0 37 27 62.5t68 25.5q31 0 48 -17t17 -43q0 -37 -27 -62.5t-69 -25.5q-30 0 -47 17t-17 43z" />
    <glyph glyph-name="Zcaron" unicode="&#x17d;" horiz-adv-x="581" 
d="M619 680l-21 -100l-415 -462v-2h316l-25 -116h-496l21 100l414 462v2h-294l24 116h476zM252 886l2 10h108l44 -79l78 79h115l-2 -10l-138 -136h-126z" />
    <glyph glyph-name="zcaron" unicode="&#x17e;" horiz-adv-x="468" 
d="M468 482l-15 -71l-284 -306v-2h219l-22 -103h-391l15 71l284 306v2h-204l22 103h376zM167 703l2 10h108l36 -69l65 69h116l-2 -10l-118 -136h-147z" />
    <glyph glyph-name="florin" unicode="&#x192;" 
d="M147 285l39 101h88l57 150q32 85 80 122t122 37q20 0 47 -2t41 -5l-28 -111q-12 3 -30.5 5t-31.5 2q-26 0 -40.5 -10.5t-27.5 -43.5l-54 -144h107l-40 -101h-107l-131 -339q-32 -85 -80 -122t-122 -37q-20 0 -46.5 2t-40.5 5l29 111q12 -3 30 -5t29 -2q26 0 41 10.5
t28 43.5l128 333h-87z" />
    <glyph glyph-name="Aringacute" unicode="&#x1fa;" horiz-adv-x="654" 
d="M303 733q0 30 11 54.5t30.5 41.5t45.5 26t55 9q49 0 76.5 -26t27.5 -68q0 -38 -17 -66.5t-46 -45.5l107 -658h-148l-14 140h-259l-74 -140h-157l390 664q-28 26 -28 69zM384 538l-150 -286h182l-29 286h-3zM384 744q0 -31 34 -31q22 0 36 12.5t14 34.5q0 14 -9 22.5
t-24 8.5q-22 0 -36.5 -13t-14.5 -34zM618.262 908.25l-105.743 -102.75h-125.748l1.90527 7.5l82.8789 102h148.611z" />
    <glyph glyph-name="aringacute" unicode="&#x1fb;" horiz-adv-x="589" 
d="M554 873l-99 -103h-120l2 8l77 102h142zM394 361q-17 12 -37 18.5t-46 6.5q-38 0 -65.5 -16t-45 -42t-25.5 -60t-8 -70q0 -45 18.5 -73.5t63.5 -28.5q26 0 50.5 9.5t45.5 23.5zM340 43q-23 -20 -59 -39t-88 -19q-43 0 -74.5 15.5t-51.5 42.5t-30 63t-10 76q0 60 17 117
t49.5 101t80 70.5t107.5 26.5q27 0 48.5 -5.5t39 -14.5t31 -19t24.5 -19h2l28 43h99l-81 -377q-2 -11 -1 -14.5t12 -3.5h35l-19 -92q-17 -3 -33.5 -5t-38.5 -2q-38 0 -57.5 13.5t-27.5 41.5h-2zM320 626q0 -30 34 -30q21 0 35 12.5t14 32.5q0 14 -9 22t-24 8
q-21 0 -35.5 -12.5t-14.5 -32.5zM240 615q0 29 11 52.5t30 39.5t44.5 24.5t54.5 8.5q49 0 76.5 -24.5t27.5 -64.5q0 -29 -11 -52t-30 -39.5t-44.5 -25t-55.5 -8.5q-49 0 -76 24.5t-27 64.5z" />
    <glyph glyph-name="AEacute" unicode="&#x1fc;" horiz-adv-x="942" 
d="M-78 10l537 670h512l-25 -116h-309l-35 -163h277l-24 -116h-277l-36 -169h312l-24 -116h-452l30 140h-229l-110 -140h-149zM491 544l-225 -292h166l62 292h-3zM894 887l-111 -137h-132l2 10l87 136h156z" />
    <glyph glyph-name="aeacute" unicode="&#x1fd;" horiz-adv-x="822" 
d="M453 202q-5 -52 17 -80.5t75 -28.5q41 0 77.5 9.5t74.5 23.5l21 -100q-39 -17 -88.5 -29t-101.5 -12q-66 0 -105 24t-62 62q-18 -16 -38.5 -31.5t-46 -27.5t-56.5 -19.5t-71 -7.5q-36 0 -63.5 10.5t-46.5 28t-28.5 41t-9.5 50.5q0 93 62 135.5t177 42.5h98l5 24
q6 26 -1.5 40t-20 20.5t-27.5 7.5t-25 1q-40 0 -80.5 -9.5t-78.5 -25.5l-19 103q42 17 92 30t106 13q54 0 90 -17t56 -48q32 28 75.5 46.5t93.5 18.5q48 0 83.5 -13t59 -35t35 -51.5t11.5 -62.5q0 -41 -11 -77.5t-20 -55.5h-309zM234 206q-55 0 -79 -19.5t-24 -54.5
q0 -43 50 -43q22 0 44.5 8.5t42 23.5t33.5 36.5t20 48.5h-87zM665 286q7 19 7 40q0 31 -17 52t-62 21q-24 0 -44.5 -9.5t-36.5 -25.5t-26.5 -36t-16.5 -42h196zM676 704l-131 -137h-122l2 10l107 136h146z" />
    <glyph glyph-name="Oslashacute" unicode="&#x1fe;" horiz-adv-x="750" 
d="M42 21l58 66q-24 35 -35.5 78t-11.5 93q0 82 24 160.5t73.5 140t124.5 99t178 37.5q88 0 150 -37l51 59l67 -58l-53 -60q26 -35 39.5 -80.5t13.5 -97.5q0 -82 -24 -160.5t-73.5 -139.5t-124.5 -98.5t-177 -37.5q-48 0 -87.5 10.5t-70.5 29.5l-53 -61zM575 413q0 37 -9 69
l-312 -355q32 -23 84 -23q68 0 113.5 29.5t73 75t39 100t11.5 104.5zM199 267q0 -33 6 -60l308 350q-30 19 -75 19q-69 0 -114.5 -29.5t-73.5 -75t-39.5 -100t-11.5 -104.5zM648 887l-111 -137h-132l2 10l87 136h156z" />
    <glyph glyph-name="oslashacute" unicode="&#x1ff;" horiz-adv-x="583" 
d="M543 704l-131 -137h-122l2 10l107 136h146zM4 25l51 51q-30 51 -30 117q0 60 21 115t60.5 97t95 67t124.5 25q37 0 67 -8.5t54 -22.5l49 49l60 -58l-49 -49q33 -51 33 -118q0 -60 -20.5 -115t-59.5 -97.5t-95 -67.5t-127 -25q-38 0 -68.5 8.5t-55.5 23.5l-53 -53z
M406 284v11t-1 11l-204 -203q19 -13 49 -13q33 0 61.5 13.5t49.5 38.5t33 61t12 81zM159 180l202 201q-22 11 -47 11q-32 0 -60.5 -13t-49.5 -38t-33 -61t-12 -82v-18z" />
    <glyph glyph-name="uni0218" unicode="&#x218;" horiz-adv-x="558" 
d="M56 157q13 -10 33.5 -19.5t43.5 -17.5t47.5 -13t47.5 -5q67 0 98 23t31 65q0 50 -77 87l-67 32q-60 29 -91 68.5t-31 96.5q0 47 18 87.5t53.5 70t88 46.5t122.5 17q20 0 44 -3t48.5 -9.5t49 -15.5t45.5 -21l-55 -111q-32 18 -71.5 30.5t-75.5 12.5q-57 0 -89 -25t-32 -62
q0 -20 10.5 -39t42.5 -35l66 -32q36 -17 63.5 -35t46.5 -38.5t29 -45t10 -55.5q0 -52 -21.5 -94t-60 -71t-92.5 -45t-118 -16q-68 0 -122 19.5t-90 43.5zM90 -208l58 156h135l-2 -10l-92 -156h-101z" />
    <glyph glyph-name="uni0219" unicode="&#x219;" horiz-adv-x="465" 
d="M39 128q32 -18 68.5 -29.5t75.5 -11.5q84 0 84 52q0 17 -14 28t-40 20l-59 20q-20 7 -38.5 17.5t-32.5 25.5t-22.5 34.5t-8.5 45.5q0 81 59 124t165 43q48 0 88.5 -8.5t78.5 -25.5l-44 -97q-29 12 -62.5 20.5t-68.5 8.5q-44 0 -62.5 -13t-18.5 -36q0 -17 13.5 -27
t37.5 -18l57 -20q46 -16 77 -46t31 -80q0 -85 -62 -127.5t-166 -42.5q-57 0 -101.5 12t-82.5 34zM49 -208l58 156h135l-2 -10l-92 -156h-101z" />
    <glyph glyph-name="uni021A" unicode="&#x21a;" horiz-adv-x="559" 
d="M621 680l-25 -116h-187l-120 -564h-139l120 564h-187l25 116h513zM82 -208l58 156h135l-2 -10l-92 -156h-101z" />
    <glyph glyph-name="uni021B" unicode="&#x21b;" horiz-adv-x="406" 
d="M304 594l-24 -112h130l-22 -103h-130l-48 -228q-13 -55 44 -55q18 0 41.5 4.5t41.5 10.5l-24 -110q-14 -5 -43.5 -10.5t-66.5 -5.5q-80 0 -114 35.5t-16 119.5l51 239h-87l16 73l92 30l24 112h135zM27 -208l58 156h135l-2 -10l-92 -156h-101z" />
    <glyph glyph-name="uni0237" unicode="&#x237;" horiz-adv-x="261" 
d="M240 482l-113 -529q-17 -82 -63 -124t-135 -42q-16 0 -38 2.5t-37 5.5l23 109q24 -6 51 -6q29 0 44.5 15t22.5 48l111 521h134z" />
    <glyph glyph-name="circumflex" unicode="&#x2c6;" horiz-adv-x="579" 
d="M574 577l-2 -10h-108l-37 69l-65 -69h-115l2 10l118 136h147z" />
    <glyph glyph-name="caron" unicode="&#x2c7;" horiz-adv-x="579" 
d="M276 703l2 10h108l36 -69l65 69h116l-2 -10l-118 -136h-147z" />
    <glyph glyph-name="uni02C9" unicode="&#x2c9;" horiz-adv-x="578" 
d="M272 589l22 103h285l-21 -103h-286z" />
    <glyph glyph-name="breve" unicode="&#x2d8;" horiz-adv-x="578" 
d="M427 674q42 0 75 7t64 27l32 -72q-35 -35 -80.5 -52t-109.5 -17q-63 0 -100 22.5t-54 54.5l51 64q23 -19 53 -26.5t69 -7.5z" />
    <glyph glyph-name="dotaccent" unicode="&#x2d9;" horiz-adv-x="579" 
d="M346 626q0 37 27 62.5t68 25.5q31 0 48 -17t17 -43q0 -37 -27 -62.5t-69 -25.5q-30 0 -47 17t-17 43z" />
    <glyph glyph-name="ring" unicode="&#x2da;" horiz-adv-x="578" 
d="M383 635q0 -31 34 -31q22 0 36 12.5t14 34.5q0 14 -9 22.5t-24 8.5q-22 0 -36.5 -13t-14.5 -34zM302 624q0 30 11 54.5t30.5 41.5t45.5 26t55 9q49 0 76.5 -26t27.5 -68q0 -30 -11 -54.5t-30 -41.5t-45 -26t-56 -9q-49 0 -76.5 26t-27.5 68z" />
    <glyph glyph-name="ogonek" unicode="&#x2db;" horiz-adv-x="578" 
d="M263 -213q-48 0 -75.5 24t-27.5 64q0 32 15 56.5t37.5 43t50 32t53.5 23.5l42 -24q-13 -5 -28.5 -16.5t-29 -26.5t-22.5 -31t-9 -30q0 -16 8.5 -22t25.5 -6q14 0 29.5 5.5t25.5 12.5l2 -80q-9 -5 -21 -9.5t-25 -8t-26.5 -5.5t-24.5 -2z" />
    <glyph glyph-name="tilde" unicode="&#x2dc;" horiz-adv-x="579" 
d="M250 647q22 28 52.5 47t62.5 19q22 0 38.5 -7t32 -15.5t31 -15.5t35.5 -7t41.5 9.5t36.5 24.5l16 -68q-24 -32 -53.5 -49.5t-57.5 -17.5q-22 0 -40.5 7t-35 15.5t-32.5 15.5t-33 7q-43 0 -78 -35z" />
    <glyph glyph-name="hungarumlaut" unicode="&#x2dd;" horiz-adv-x="578" 
d="M446 704l-131 -137h-122l2 10l107 136h146zM654 704l-131 -137h-122l2 10l107 136h146z" />
    <glyph glyph-name="tonos" unicode="&#x384;" horiz-adv-x="578" 
d="M556 716l-89 -157h-116l2 10l65 156h140z" />
    <glyph glyph-name="dieresistonos" unicode="&#x385;" horiz-adv-x="579" 
d="M181 592q0 37 27 62.5t68 25.5q31 0 48 -17t17 -43q0 -37 -27 -62.5t-69 -25.5q-30 0 -47 17t-17 43zM551 701l-92 -167h-100l2 10l68 166h124zM542 592q0 37 27 62.5t68 25.5q31 0 48 -17t17 -43q0 -37 -27 -62.5t-69 -25.5q-30 0 -47 17t-17 43z" />
    <glyph glyph-name="Alphatonos" unicode="&#x386;" horiz-adv-x="694" 
d="M632 0h-148l-14 140h-259l-74 -140h-157l389 680h163zM423 538l-150 -286h182l-29 286h-3zM288 671l-86 -157h-118l2 10l62 156h142z" />
    <glyph glyph-name="anoteleia" unicode="&#x387;" horiz-adv-x="276" 
d="M53 273q0 45 29.5 74.5t75.5 29.5q33 0 50.5 -18.5t17.5 -49.5q0 -45 -29.5 -74.5t-75.5 -29.5q-33 0 -50.5 18.5t-17.5 49.5z" />
    <glyph glyph-name="Epsilontonos" unicode="&#x388;" horiz-adv-x="717" 
d="M746 680l-25 -116h-309l-35 -163h277l-25 -116h-277l-36 -169h313l-25 -116h-451l145 680h448zM263 671l-86 -157h-118l2 10l62 156h142z" />
    <glyph glyph-name="Etatonos" unicode="&#x389;" horiz-adv-x="847" 
d="M630 285h-278l-60 -285h-139l145 680h138l-59 -279h278l59 279h139l-145 -680h-139zM263 671l-86 -157h-118l2 10l62 156h142z" />
    <glyph glyph-name="Iotatonos" unicode="&#x38a;" horiz-adv-x="430" 
d="M292 0h-139l145 680h138zM263 671l-86 -157h-118l2 10l62 156h142z" />
    <glyph glyph-name="Omicrontonos" unicode="&#x38c;" horiz-adv-x="850" 
d="M299 267q0 -35 7.5 -65t24.5 -51.5t43 -34t64 -12.5q68 0 113.5 29.5t73 75t39 100t11.5 104.5q0 35 -7.5 65t-24 51.5t-42.5 34t-63 12.5q-69 0 -114.5 -29.5t-73.5 -75t-39.5 -100t-11.5 -104.5zM821 421q0 -82 -24 -160.5t-73.5 -139.5t-124.5 -98.5t-177 -37.5
q-68 0 -118.5 20.5t-84 57.5t-50 86.5t-16.5 108.5q0 82 24 160.5t73.5 140t124.5 99t178 37.5q67 0 117.5 -20.5t84 -57.5t50 -87t16.5 -109zM263 671l-86 -157h-118l2 10l62 156h142z" />
    <glyph glyph-name="Upsilontonos" unicode="&#x38e;" horiz-adv-x="829" 
d="M463 680l87 -280h2l207 280h156l-2 -10l-314 -396l-58 -274h-139l59 274l-147 396l2 10h147zM272 671l-86 -157h-118l2 10l62 156h142z" />
    <glyph glyph-name="Omegatonos" unicode="&#x38f;" horiz-adv-x="873" 
d="M128 116h149q-18 12 -35.5 31t-31 45.5t-22 58.5t-8.5 69q0 67 25 134.5t74 120.5t121.5 86.5t167.5 33.5q72 0 124 -22t85 -58t49 -82t16 -94q0 -61 -16 -112t-42 -91.5t-60.5 -70.5t-71.5 -49h129l-25 -116h-284l21 102q45 26 82 57t63.5 69.5t40.5 85.5t14 106
q0 31 -7.5 59.5t-24 50t-43.5 34t-65 12.5q-62 0 -106.5 -25.5t-72.5 -65.5t-41 -90t-13 -99q0 -70 24.5 -116.5t64.5 -77.5l-21 -102h-285zM266 671l-86 -157h-118l2 10l62 156h142z" />
    <glyph glyph-name="iotadieresistonos" unicode="&#x390;" horiz-adv-x="298" 
d="M242 482l-72 -339q-11 -47 32 -47q19 0 43 7l-17 -109q-14 -3 -36.5 -6t-46.5 -3q-66 0 -97 36.5t-14 118.5l73 342h135zM-37 592q0 37 27 62.5t68 25.5q31 0 48 -17t17 -43q0 -37 -27 -62.5t-69 -25.5q-30 0 -47 17t-17 43zM333 701l-92 -167h-100l2 10l68 166h124z
M324 592q0 37 27 62.5t68 25.5q31 0 48 -17t17 -43q0 -37 -27 -62.5t-69 -25.5q-30 0 -47 17t-17 43z" />
    <glyph glyph-name="Alpha" unicode="&#x391;" horiz-adv-x="656" 
d="M594 0h-148l-14 140h-259l-74 -140h-157l389 680h163zM385 538l-150 -286h182l-29 286h-3z" />
    <glyph glyph-name="Beta" unicode="&#x392;" horiz-adv-x="646" 
d="M181 116h125q40 0 66.5 7.5t42 22t21.5 35t6 46.5q0 34 -23.5 50.5t-80.5 16.5h-119zM398 680q109 0 167 -38t58 -113q0 -36 -9.5 -65.5t-26 -52t-39 -38.5t-47.5 -25v-2q39 -17 62 -47t23 -77q0 -51 -14.5 -92t-47.5 -70t-87 -44.5t-134 -15.5h-285l145 680h235z
M243 404h100q38 0 63 6t40 18t21 31t6 46q0 33 -23 46t-75 13h-98z" />
    <glyph glyph-name="Gamma" unicode="&#x393;" horiz-adv-x="527" 
d="M18 0l145 680h424l-24 -116h-286l-120 -564h-139z" />
    <glyph glyph-name="uni0394" unicode="&#x394;" horiz-adv-x="656" 
d="M593 0h-648l1 5l386 675h163l99 -675zM385 538l-230 -422h286l-53 422h-3z" />
    <glyph glyph-name="Epsilon" unicode="&#x395;" horiz-adv-x="582" 
d="M611 680l-25 -116h-309l-35 -163h277l-25 -116h-277l-36 -169h313l-25 -116h-451l145 680h448z" />
    <glyph glyph-name="Zeta" unicode="&#x396;" horiz-adv-x="581" 
d="M619 680l-21 -100l-415 -462v-2h316l-25 -116h-496l21 100l414 462v2h-294l24 116h476z" />
    <glyph glyph-name="Eta" unicode="&#x397;" horiz-adv-x="712" 
d="M495 285h-278l-60 -285h-139l145 680h138l-59 -279h278l59 279h139l-145 -680h-139z" />
    <glyph glyph-name="Theta" unicode="&#x398;" horiz-adv-x="750" 
d="M256 285l24 116h235l-25 -116h-234zM199 267q0 -35 7.5 -65t24.5 -51.5t43 -34t64 -12.5q68 0 113.5 29.5t73 75t39 100t11.5 104.5q0 35 -7.5 65t-24 51.5t-42.5 34t-63 12.5q-69 0 -114.5 -29.5t-73.5 -75t-39.5 -100t-11.5 -104.5zM721 421q0 -82 -24 -160.5
t-73.5 -139.5t-124.5 -98.5t-177 -37.5q-68 0 -118.5 20.5t-84 57.5t-50 86.5t-16.5 108.5q0 82 24 160.5t73.5 140t124.5 99t178 37.5q67 0 117.5 -20.5t84 -57.5t50 -87t16.5 -109z" />
    <glyph glyph-name="Iota" unicode="&#x399;" horiz-adv-x="295" 
d="M157 0h-139l145 680h138z" />
    <glyph glyph-name="Kappa" unicode="&#x39a;" horiz-adv-x="632" 
d="M221 304l-64 -304h-139l145 680h138l-70 -329h2l304 329h161l-2 -10l-329 -347l201 -313l-2 -10h-153l-190 304h-2z" />
    <glyph glyph-name="Lambda" unicode="&#x39b;" horiz-adv-x="638" 
d="M99 0h-156l379 680h163l90 -680h-149l-51 523h-3z" />
    <glyph glyph-name="Mu" unicode="&#x39c;" horiz-adv-x="829" 
d="M416 316l279 364h140l-145 -680h-138l94 442h-2l-196 -271h-111l-84 271h-2l-94 -442h-139l145 680h127l124 -364h2z" />
    <glyph glyph-name="Nu" unicode="&#x39d;" horiz-adv-x="726" 
d="M492 206l101 474h139l-145 -680h-147l-180 474h-3l-100 -474h-139l145 680h146l180 -474h3z" />
    <glyph glyph-name="Xi" unicode="&#x39e;" horiz-adv-x="581" 
d="M493 124l-26 -124h-471l26 124h471zM88 281l26 124h403l-26 -124h-403zM114 556l27 124h467l-26 -124h-468z" />
    <glyph glyph-name="Omicron" unicode="&#x39f;" horiz-adv-x="750" 
d="M199 267q0 -35 7.5 -65t24.5 -51.5t43 -34t64 -12.5q68 0 113.5 29.5t73 75t39 100t11.5 104.5q0 35 -7.5 65t-24 51.5t-42.5 34t-63 12.5q-69 0 -114.5 -29.5t-73.5 -75t-39.5 -100t-11.5 -104.5zM721 421q0 -82 -24 -160.5t-73.5 -139.5t-124.5 -98.5t-177 -37.5
q-68 0 -118.5 20.5t-84 57.5t-50 86.5t-16.5 108.5q0 82 24 160.5t73.5 140t124.5 99t178 37.5q67 0 117.5 -20.5t84 -57.5t50 -87t16.5 -109z" />
    <glyph glyph-name="Pi" unicode="&#x3a0;" horiz-adv-x="712" 
d="M554 564h-277l-120 -564h-139l145 680h555l-145 -680h-139z" />
    <glyph glyph-name="Rho" unicode="&#x3a1;" horiz-adv-x="594" 
d="M18 0l145 680h244q50 0 86.5 -12.5t60.5 -35.5t36 -55t12 -71q0 -53 -14 -102.5t-46 -88.5t-83.5 -62.5t-127.5 -23.5h-126l-48 -229h-139zM230 345h106q33 0 55.5 13t36.5 33t20 45.5t6 50.5q0 34 -16.5 55.5t-54.5 21.5h-106z" />
    <glyph glyph-name="Sigma" unicode="&#x3a3;" horiz-adv-x="594" 
d="M5 103l221 243l-105 230l22 104h486l-24 -116h-341l110 -229l-202 -219h337l-24 -116h-502z" />
    <glyph glyph-name="Tau" unicode="&#x3a4;" horiz-adv-x="559" 
d="M621 680l-25 -116h-187l-120 -564h-139l120 564h-187l25 116h513z" />
    <glyph glyph-name="Upsilon" unicode="&#x3a5;" horiz-adv-x="594" 
d="M228 680l87 -280h2l207 280h156l-2 -10l-314 -396l-58 -274h-139l59 274l-147 396l2 10h147z" />
    <glyph glyph-name="Phi" unicode="&#x3a6;" horiz-adv-x="817" 
d="M552 620q67 -8 114 -27.5t77 -49.5t43.5 -68t13.5 -82q0 -62 -19.5 -119t-63 -102t-113.5 -75t-171 -37l-13 -60h-139l13 59q-68 7 -116 27t-78.5 50t-44.5 68t-14 83q0 63 19.5 120t64 102t115.5 74.5t173 36.5l13 60h139zM187 296q0 -51 28.5 -86.5t100.5 -45.5l75 352
q-72 -9 -113 -35t-61 -58.5t-25 -66.5t-5 -60zM654 384q0 50 -27.5 85.5t-97.5 45.5l-74 -351q94 14 146.5 66.5t52.5 153.5z" />
    <glyph glyph-name="Chi" unicode="&#x3a7;" horiz-adv-x="616" 
d="M252 680l81 -256h2l190 256h155l-2 -10l-258 -329l117 -331l-2 -10h-147l-79 257h-2l-188 -257h-157l2 10l257 331l-117 329l3 10h145z" />
    <glyph glyph-name="Psi" unicode="&#x3a8;" horiz-adv-x="755" 
d="M442 269q65 4 100 41.5t53 121.5l53 248h139l-57 -269q-13 -59 -37.5 -107t-62.5 -81.5t-91 -52.5t-122 -20l-32 -150h-139l32 150q-135 8 -179.5 82.5t-15.5 211.5l50 236h139l-53 -248q-18 -85 0.5 -122t83.5 -41l88 411h139z" />
    <glyph glyph-name="uni03A9" unicode="&#x3a9;" horiz-adv-x="766" 
d="M22 116h149q-18 12 -35.5 31t-31 45.5t-22 58.5t-8.5 69q0 67 25 134.5t74 120.5t121.5 86.5t167.5 33.5q72 0 124 -22t85 -58t49 -82t16 -94q0 -61 -16 -112t-42 -91.5t-60.5 -70.5t-71.5 -49h129l-25 -116h-284l21 102q45 26 82 57t63.5 69.5t40.5 85.5t14 106
q0 31 -7.5 59.5t-24 50t-43.5 34t-65 12.5q-62 0 -106.5 -25.5t-72.5 -65.5t-41 -90t-13 -99q0 -70 24.5 -116.5t64.5 -77.5l-21 -102h-285z" />
    <glyph glyph-name="Iotadieresis" unicode="&#x3aa;" horiz-adv-x="295" 
d="M157 0h-139l145 680h138zM52 805q0 37 27 62.5t68 25.5q31 0 48 -17t17 -43q0 -37 -27 -62.5t-69 -25.5q-30 0 -47 17t-17 43zM310 805q0 37 27 62.5t68 25.5q31 0 48 -17t17 -43q0 -37 -27 -62.5t-69 -25.5q-30 0 -47 17t-17 43z" />
    <glyph glyph-name="Upsilondieresis" unicode="&#x3ab;" horiz-adv-x="594" 
d="M228 680l87 -280h2l207 280h156l-2 -10l-314 -396l-58 -274h-139l59 274l-147 396l2 10h147zM203 805q0 37 27 62.5t68 25.5q31 0 48 -17t17 -43q0 -37 -27 -62.5t-69 -25.5q-30 0 -47 17t-17 43zM461 805q0 37 27 62.5t68 25.5q31 0 48 -17t17 -43q0 -37 -27 -62.5
t-69 -25.5q-30 0 -47 17t-17 43z" />
    <glyph glyph-name="alphatonos" unicode="&#x3ac;" horiz-adv-x="616" 
d="M520 0h-128l2 83h-2q-13 -17 -30.5 -34.5t-39.5 -31.5t-49.5 -23t-60.5 -9q-42 0 -76.5 14.5t-58.5 41.5t-37.5 64t-13.5 82q0 69 22 126t60 98t89 63.5t108 22.5q33 0 57.5 -8t41.5 -21.5t28.5 -31.5t18.5 -37h2l31 83h138l-117 -240zM385 241q-5 65 -25 105t-59 40
q-27 0 -51.5 -14t-43 -38.5t-29.5 -59t-11 -75.5q0 -48 19.5 -75.5t53.5 -27.5q40 0 77 40t69 105zM523 716l-89 -157h-116l2 10l65 156h140z" />
    <glyph glyph-name="epsilontonos" unicode="&#x3ad;" horiz-adv-x="494" 
d="M497 716l-89 -157h-116l2 10l65 156h140zM364 191h-133q-45 0 -63 -13.5t-18 -39.5q0 -20 19.5 -31t66.5 -11q42 0 89.5 11t82.5 25l12 -110q-40 -16 -89.5 -26.5t-108.5 -10.5q-111 0 -163.5 34t-52.5 90q0 54 29 89t86 53v2q-22 11 -36 32.5t-14 52.5q0 35 12 64.5
t40.5 51t75 33.5t114.5 12q44 0 89 -10.5t78 -24.5l-37 -99q-15 6 -33.5 10t-38 7t-38.5 4.5t-35 1.5q-28 0 -45.5 -4.5t-28 -12.5t-14.5 -18.5t-4 -22.5q0 -17 12.5 -26.5t41.5 -9.5h126z" />
    <glyph glyph-name="etatonos" unicode="&#x3ae;" horiz-adv-x="575" 
d="M215 482l8 -47h2q12 10 26.5 21t33.5 20t42 15t51 6q84 0 122.5 -54t18.5 -149l-105 -492h-134l104 488q20 96 -63 96q-34 0 -63 -15.5t-47 -29.5l-72 -341h-135l102 482h109zM508 716l-89 -157h-116l2 10l65 156h140z" />
    <glyph glyph-name="iotatonos" unicode="&#x3af;" horiz-adv-x="298" 
d="M242 482l-72 -339q-11 -47 32 -47q19 0 43 7l-17 -109q-14 -3 -36.5 -6t-46.5 -3q-66 0 -97 36.5t-14 118.5l73 342h135zM341 716l-89 -157h-116l2 10l65 156h140z" />
    <glyph glyph-name="upsilondieresistonos" unicode="&#x3b0;" horiz-adv-x="564" 
d="M470 716l-89 -157h-116l2 10l65 156h140zM177 213q-13 -60 3.5 -88.5t65.5 -28.5q28 0 53 14t44 45t30 81.5t11 122.5q0 26 -1 62t-3 61h137q2 -23 3 -56t1 -62q0 -99 -21 -171t-59 -118t-91.5 -68t-118.5 -22q-114 0 -163 58.5t-26 167.5l57 271h135z" />
    <glyph glyph-name="alpha" unicode="&#x3b1;" horiz-adv-x="616" 
d="M520 0h-128l2 83h-2q-13 -17 -30.5 -34.5t-39.5 -31.5t-49.5 -23t-60.5 -9q-42 0 -76.5 14.5t-58.5 41.5t-37.5 64t-13.5 82q0 69 22 126t60 98t89 63.5t108 22.5q33 0 57.5 -8t41.5 -21.5t28.5 -31.5t18.5 -37h2l31 83h138l-117 -240zM385 241q-5 65 -25 105t-59 40
q-27 0 -51.5 -14t-43 -38.5t-29.5 -59t-11 -75.5q0 -48 19.5 -75.5t53.5 -27.5q40 0 77 40t69 105z" />
    <glyph glyph-name="beta" unicode="&#x3b2;" horiz-adv-x="584" 
d="M143 23l-47 -221h-135l143 671q26 121 91 176.5t176 55.5q42 0 75 -13t55.5 -35t34 -51.5t11.5 -63.5q0 -37 -11.5 -66t-29.5 -50.5t-40 -36.5t-42 -23v-2q19 -7 38 -19.5t34 -31t24 -42.5t9 -54q0 -59 -23.5 -102.5t-60 -72.5t-82 -43t-89.5 -14q-42 0 -77 12t-52 26h-2
zM165 127q12 -14 35.5 -22.5t57.5 -8.5q63 0 98.5 35t35.5 96q0 38 -26.5 60.5t-83.5 22.5h-28l22 103h27q47 0 74.5 30.5t27.5 83.5q0 29 -14.5 48t-46.5 19q-37 0 -64 -24.5t-41 -93.5z" />
    <glyph glyph-name="gamma" unicode="&#x3b3;" horiz-adv-x="525" 
d="M85 -198l43 201l-77 469l2 10h132l34 -345h2q30 42 56.5 82.5t50 82t44 86t40.5 94.5h140l-2 -10q-48 -112 -121 -230t-167 -244l-42 -196h-135z" />
    <glyph glyph-name="delta" unicode="&#x3b4;" horiz-adv-x="579" 
d="M498 582q-14 5 -35.5 8.5t-38.5 3.5q-14 0 -29.5 -2t-28 -8t-20.5 -15.5t-8 -24.5q0 -16 14.5 -32.5t35.5 -35.5t46.5 -41.5t46.5 -50.5t35.5 -62.5t14.5 -76.5q0 -47 -21 -93t-59.5 -83.5t-94 -60.5t-124.5 -23q-53 0 -92.5 17t-65.5 44.5t-39.5 63t-13.5 73.5
q0 49 16 90.5t44 76.5t67 63.5t86 49.5q-13 17 -22.5 37.5t-9.5 45.5q0 42 18 72t48 49.5t68.5 28.5t79.5 9q10 0 23.5 -1t27 -2.5t25 -4t19.5 -4.5zM304 387q-31 -19 -57.5 -39.5t-45.5 -44t-30 -50t-11 -57.5q0 -43 23 -71.5t64 -28.5q31 0 57.5 11t46 30t30.5 45t11 57
q0 49 -27 84t-61 64z" />
    <glyph glyph-name="epsilon" unicode="&#x3b5;" horiz-adv-x="494" 
d="M364 191h-133q-45 0 -63 -13.5t-18 -39.5q0 -20 19.5 -31t66.5 -11q42 0 89.5 11t82.5 25l12 -110q-40 -16 -89.5 -26.5t-108.5 -10.5q-111 0 -163.5 34t-52.5 90q0 54 29 89t86 53v2q-22 11 -36 32.5t-14 52.5q0 35 12 64.5t40.5 51t75 33.5t114.5 12q44 0 89 -10.5
t78 -24.5l-37 -99q-15 6 -33.5 10t-38 7t-38.5 4.5t-35 1.5q-28 0 -45.5 -4.5t-28 -12.5t-14.5 -18.5t-4 -22.5q0 -17 12.5 -26.5t41.5 -9.5h126z" />
    <glyph glyph-name="zeta" unicode="&#x3b6;" horiz-adv-x="468" 
d="M541 700l-18 -87q-106 -98 -176 -163t-111.5 -110t-58.5 -76t-17 -60q0 -25 14.5 -42t36 -31t47 -28t47 -31.5t36 -41.5t14.5 -58q0 -23 -10 -45t-27 -42t-38.5 -38t-45.5 -33l-77 69q23 16 38.5 35t15.5 34q0 19 -14.5 33.5t-36 28.5t-47 29.5t-47 35.5t-36 46t-14.5 63
q0 47 19.5 87t60 85t102.5 101t146 134v2h-220l22 103h395z" />
    <glyph glyph-name="eta" unicode="&#x3b7;" horiz-adv-x="575" 
d="M215 482l8 -47h2q12 10 26.5 21t33.5 20t42 15t51 6q84 0 122.5 -54t18.5 -149l-105 -492h-134l104 488q20 96 -63 96q-34 0 -63 -15.5t-47 -29.5l-72 -341h-135l102 482h109z" />
    <glyph glyph-name="theta" unicode="&#x3b8;" horiz-adv-x="584" 
d="M549 342q-18 -82 -43.5 -148t-63 -112.5t-89 -71.5t-119.5 -25q-98 0 -144 55t-46 152q0 35 4 73.5t13 82.5q17 82 42.5 148t63 112.5t89 71.5t121.5 25q96 0 142 -56.5t46 -153.5q0 -34 -3.5 -72t-12.5 -81zM359 594q-54 0 -93 -52.5t-63 -148.5h224q9 51 9 90
q0 54 -18 82.5t-59 28.5zM253 96q54 0 91 51.5t61 146.5h-223q-4 -24 -5.5 -44.5t-1.5 -39.5q0 -55 18 -84.5t60 -29.5z" />
    <glyph glyph-name="iota" unicode="&#x3b9;" horiz-adv-x="298" 
d="M242 482l-72 -339q-11 -47 32 -47q19 0 43 7l-17 -109q-14 -3 -36.5 -6t-46.5 -3q-66 0 -97 36.5t-14 118.5l73 342h135z" />
    <glyph glyph-name="kappa" unicode="&#x3ba;" horiz-adv-x="528" 
d="M182 211l-45 -211h-133l102 482h133l-49 -230h2l209 230h151l-2 -7l-236 -247l145 -221l-1 -7h-142l-132 211h-2z" />
    <glyph glyph-name="lambda" unicode="&#x3bb;" horiz-adv-x="523" 
d="M451 0h-136l-36 328h-3l-182 -328h-144l2 10l289 467l-10 71q-4 24 -14 35t-33 11q-8 0 -20 -1.5t-22 -3.5l13 107q11 3 24.5 6t42.5 3q24 0 46 -6.5t40 -22t31 -42t20 -65.5l95 -559z" />
    <glyph glyph-name="uni03BC" unicode="&#x3bc;" horiz-adv-x="574" 
d="M-38 -198l145 680h135l-62 -290q-10 -48 2.5 -72t55.5 -24q16 0 32 5t29.5 11.5t25 14.5t20.5 14l74 341h135l-103 -482h-109l-8 47h-2q-12 -9 -26.5 -20t-31.5 -20.5t-36.5 -15.5t-42.5 -6q-14 0 -30 5t-26 11l-42 -199h-135z" />
    <glyph glyph-name="nu" unicode="&#x3bd;" horiz-adv-x="527" 
d="M551 472q-48 -115 -116.5 -229.5t-165.5 -242.5h-146l-71 472l2 10h132l34 -345h2q30 42 56.5 82.5t50 82t44 86t40.5 94.5h140z" />
    <glyph glyph-name="xi" unicode="&#x3be;" horiz-adv-x="476" 
d="M184 597h-92l22 103h431l-22 -103h-134q-75 0 -111 -34t-36 -85q0 -36 25 -58t81 -22h74l-22 -103h-72q-48 0 -80.5 -7.5t-52 -20.5t-27.5 -32t-8 -41q0 -23 17 -38.5t42 -27.5t54.5 -24t54.5 -28.5t42 -41t17 -60.5q0 -22 -10.5 -44t-28 -43t-40 -39.5t-47.5 -33.5
l-77 70q22 15 40.5 34.5t18.5 36.5t-16.5 30t-42 25.5t-54.5 26t-54.5 32.5t-42 45t-16.5 63q0 36 12.5 65t35 50.5t52.5 37.5t66 27v2q-31 11 -56.5 40.5t-25.5 72.5q0 42 21 71t62 52v2z" />
    <glyph glyph-name="omicron" unicode="&#x3bf;" horiz-adv-x="583" 
d="M164 200q0 -52 23.5 -78t63.5 -26q32 0 59.5 12.5t47.5 36.5t31.5 58.5t11.5 78.5q0 52 -23.5 78t-64.5 26q-31 0 -58 -12.5t-47.5 -36.5t-32 -58.5t-11.5 -78.5zM540 290q0 -60 -20.5 -115t-59.5 -97.5t-95 -67.5t-127 -25q-53 0 -93 16.5t-66.5 45t-40 66.5t-13.5 80
q0 60 21 115t60.5 97t95 67t124.5 25q54 0 94 -16.5t66.5 -45t40 -66t13.5 -79.5z" />
    <glyph glyph-name="pi" unicode="&#x3c0;" horiz-adv-x="654" 
d="M657 482l-22 -103h-94l-50 -236q-11 -47 32 -47q20 0 44 7l-24 -110q-14 -3 -32 -5.5t-42 -2.5q-67 0 -98.5 37.5t-12.5 123.5l49 233h-135l-81 -379h-134l80 379h-96l22 103h594z" />
    <glyph glyph-name="rho" unicode="&#x3c1;" horiz-adv-x="578" 
d="M159 130q12 -14 36.5 -24t50.5 -10q45 0 74 18t46 46t23.5 61.5t6.5 64.5q0 45 -20.5 72.5t-68.5 27.5q-44 0 -75 -31t-44 -88zM-45 -198l98 462q13 60 38 104t59.5 72.5t78 42.5t92.5 14q56 0 96.5 -16.5t66.5 -44t38.5 -64.5t12.5 -78q0 -60 -19 -115.5t-54 -98.5
t-85.5 -69t-113.5 -26q-43 0 -74.5 14.5t-48.5 30.5h-2l-48 -228h-135z" />
    <glyph glyph-name="sigma1" unicode="&#x3c2;" horiz-adv-x="459" 
d="M433 365q-19 8 -42 14.5t-58 6.5q-32 0 -62 -10.5t-52.5 -31.5t-36 -53t-13.5 -75q0 -27 14 -45t35 -31.5t45.5 -26t45.5 -29t35 -39.5t14 -58q0 -28 -10.5 -53t-27.5 -46.5t-39 -40t-46 -33.5l-77 70q24 16 39.5 35.5t15.5 36.5q0 18 -14 30.5t-34.5 24.5t-44.5 26
t-44.5 34.5t-34.5 50t-14 73.5q0 65 21 120t60 95.5t95.5 63.5t127.5 23q44 0 81.5 -10t59.5 -19z" />
    <glyph glyph-name="sigma" unicode="&#x3c3;" horiz-adv-x="596" 
d="M491 377q11 -8 19 -21.5t13 -30t7.5 -35t2.5 -36.5q0 -51 -20.5 -99t-58.5 -86t-92.5 -61t-123.5 -23q-53 0 -93 16.5t-67 44t-40.5 64.5t-13.5 79q0 58 21 111.5t59.5 93.5t94 64t124.5 24h283l-22 -103h-93v-2zM163 196q0 -50 24 -75t64 -25q64 0 106 46t42 131
q0 50 -23.5 74t-65.5 24q-31 0 -57.5 -11.5t-46.5 -33.5t-31.5 -55t-11.5 -75z" />
    <glyph glyph-name="tau" unicode="&#x3c4;" horiz-adv-x="479" 
d="M490 482l-22 -103h-159l-48 -228q-6 -26 -0.5 -40.5t34.5 -14.5q17 0 39 4.5t41 9.5l-19 -110q-15 -4 -47.5 -9.5t-67.5 -5.5q-80 0 -107.5 35.5t-9.5 119.5l51 239h-137l22 103h430z" />
    <glyph glyph-name="upsilon" unicode="&#x3c5;" horiz-adv-x="564" 
d="M177 213q-13 -60 3.5 -88.5t65.5 -28.5q28 0 53 14t44 45t30 81.5t11 122.5q0 26 -1 62t-3 61h137q2 -23 3 -56t1 -62q0 -99 -21 -171t-59 -118t-91.5 -68t-118.5 -22q-114 0 -163 58.5t-26 167.5l57 271h135z" />
    <glyph glyph-name="phi" unicode="&#x3c6;" horiz-adv-x="720" 
d="M278 482q-53 -80 -83.5 -151.5t-30.5 -128.5q0 -44 20.5 -70.5t66.5 -34.5l39 183q23 109 76.5 163t145.5 54q46 0 78 -16.5t52.5 -42.5t29.5 -59.5t9 -66.5q0 -58 -18.5 -112.5t-57 -98.5t-98.5 -73t-144 -35l-40 -191h-135l40 189q-54 10 -92 28.5t-62 44t-35 57.5
t-11 69q0 38 8 73.5t22.5 70.5t34.5 71.5t45 76.5h140zM386 98q52 9 83 31.5t47.5 51.5t21.5 61.5t5 62.5q0 33 -10 57t-32 24q-29 0 -47 -27t-32 -91z" />
    <glyph glyph-name="chi" unicode="&#x3c7;" horiz-adv-x="520" 
d="M180 482l62 -246h1l168 246h144l-2 -10l-239 -329l98 -331l-2 -10h-136l-60 247h-1l-166 -247h-146l2 10l238 331l-98 329l3 10h134z" />
    <glyph glyph-name="psi" unicode="&#x3c8;" horiz-adv-x="739" 
d="M396 93q28 0 56.5 12.5t52 41.5t38.5 76.5t15 117.5q0 31 -2 71t-5 70h135q3 -26 6.5 -61.5t3.5 -67.5q0 -99 -22 -168.5t-63.5 -113t-101.5 -63.5t-135 -20l-40 -186h-135l40 186q-122 8 -170.5 61.5t-25.5 164.5l57 268h135l-58 -274q-14 -65 9 -90t75 -25l129 607h135
z" />
    <glyph glyph-name="omega" unicode="&#x3c9;" horiz-adv-x="823" 
d="M740 482q14 -40 24 -86.5t10 -94.5q0 -155 -69.5 -235.5t-194.5 -80.5q-30 0 -53 8t-39.5 22t-26.5 31.5t-16 37.5h-2q-26 -39 -70.5 -69t-106.5 -30q-76 0 -123.5 46t-47.5 139q0 49 10 90.5t27.5 79t40.5 72.5t50 70h149l-2 -10q-30 -38 -55.5 -72.5t-43.5 -69
t-28 -69.5t-10 -74q0 -47 15.5 -69t42.5 -22q37 0 65 28.5t41 88.5l31 146h135l-32 -152q-12 -57 5 -84t52 -27q26 0 48 14t37.5 39.5t24.5 61.5t9 80t-10.5 90.5t-27.5 90.5l3 10h138z" />
    <glyph glyph-name="iotadieresis" unicode="&#x3ca;" horiz-adv-x="298" 
d="M242 482l-72 -339q-11 -47 32 -47q19 0 43 7l-17 -109q-14 -3 -36.5 -6t-46.5 -3q-66 0 -97 36.5t-14 118.5l73 342h135zM23 626q0 37 27 62.5t68 25.5q31 0 48 -17t17 -43q0 -37 -27 -62.5t-69 -25.5q-30 0 -47 17t-17 43zM240 626q0 37 27 62.5t68 25.5q31 0 48 -17
t17 -43q0 -37 -27 -62.5t-69 -25.5q-31 0 -47.5 17t-16.5 43z" />
    <glyph glyph-name="upsilondieresis" unicode="&#x3cb;" horiz-adv-x="564" 
d="M177 213q-13 -60 3.5 -88.5t65.5 -28.5q28 0 53 14t44 45t30 81.5t11 122.5q0 26 -1 62t-3 61h137q2 -23 3 -56t1 -62q0 -99 -21 -171t-59 -118t-91.5 -68t-118.5 -22q-114 0 -163 58.5t-26 167.5l57 271h135zM163 626q0 37 27 62.5t68 25.5q31 0 48 -17t17 -43
q0 -37 -27 -62.5t-69 -25.5q-30 0 -47 17t-17 43zM380 626q0 37 27 62.5t68 25.5q31 0 48 -17t17 -43q0 -37 -27 -62.5t-69 -25.5q-31 0 -47.5 17t-16.5 43z" />
    <glyph glyph-name="omicrontonos" unicode="&#x3cc;" horiz-adv-x="583" 
d="M164 200q0 -52 23.5 -78t63.5 -26q32 0 59.5 12.5t47.5 36.5t31.5 58.5t11.5 78.5q0 52 -23.5 78t-64.5 26q-31 0 -58 -12.5t-47.5 -36.5t-32 -58.5t-11.5 -78.5zM540 290q0 -60 -20.5 -115t-59.5 -97.5t-95 -67.5t-127 -25q-53 0 -93 16.5t-66.5 45t-40 66.5t-13.5 80
q0 60 21 115t60.5 97t95 67t124.5 25q54 0 94 -16.5t66.5 -45t40 -66t13.5 -79.5zM505 716l-89 -157h-116l2 10l65 156h140z" />
    <glyph glyph-name="upsilontonos" unicode="&#x3cd;" horiz-adv-x="564" 
d="M482 716l-89 -157h-116l2 10l65 156h140zM177 213q-13 -60 3.5 -88.5t65.5 -28.5q28 0 53 14t44 45t30 81.5t11 122.5q0 26 -1 62t-3 61h137q2 -23 3 -56t1 -62q0 -99 -21 -171t-59 -118t-91.5 -68t-118.5 -22q-114 0 -163 58.5t-26 167.5l57 271h135z" />
    <glyph glyph-name="omegatonos" unicode="&#x3ce;" horiz-adv-x="823" 
d="M740 482q14 -40 24 -86.5t10 -94.5q0 -155 -69.5 -235.5t-194.5 -80.5q-30 0 -53 8t-39.5 22t-26.5 31.5t-16 37.5h-2q-26 -39 -70.5 -69t-106.5 -30q-76 0 -123.5 46t-47.5 139q0 49 10 90.5t27.5 79t40.5 72.5t50 70h149l-2 -10q-30 -38 -55.5 -72.5t-43.5 -69
t-28 -69.5t-10 -74q0 -47 15.5 -69t42.5 -22q37 0 65 28.5t41 88.5l31 146h135l-32 -152q-12 -57 5 -84t52 -27q26 0 48 14t37.5 39.5t24.5 61.5t9 80t-10.5 90.5t-27.5 90.5l3 10h138zM623 716l-89 -157h-116l2 10l65 156h140z" />
    <glyph glyph-name="uni0400" unicode="&#x400;" horiz-adv-x="582" 
d="M611 680l-25 -116h-309l-35 -163h277l-25 -116h-277l-36 -169h313l-25 -116h-451l145 680h448zM298 896h148l29 -136l-2 -10h-124l-53 137z" />
    <glyph glyph-name="uni0401" unicode="&#x401;" horiz-adv-x="582" 
d="M611 680l-25 -116h-309l-35 -163h277l-25 -116h-277l-36 -169h313l-25 -116h-451l145 680h448zM206 805q0 37 27 62.5t68 25.5q31 0 48 -17t17 -43q0 -37 -27 -62.5t-69 -25.5q-30 0 -47 17t-17 43zM464 805q0 37 27 62.5t68 25.5q31 0 48 -17t17 -43q0 -37 -27 -62.5
t-69 -25.5q-30 0 -47 17t-17 43z" />
    <glyph glyph-name="uni0402" unicode="&#x402;" horiz-adv-x="699" 
d="M327 -53q29 27 60.5 59t58 67t44 72.5t17.5 76.5q0 35 -19.5 59.5t-69.5 24.5q-31 0 -63 -5.5t-60 -13.5l-61 -287h-139l120 564h-134l25 116h463l-24 -116h-192l-34 -161q30 8 65 13.5t70 5.5q50 0 88 -14t63 -38.5t37.5 -58t12.5 -72.5q0 -62 -25.5 -117.5t-63 -104
t-79 -88t-73.5 -69.5z" />
    <glyph glyph-name="uni0403" unicode="&#x403;" horiz-adv-x="550" 
d="M611 680l-25 -116h-309l-120 -564h-139l145 680h448zM577 887l-111 -137h-132l2 10l87 136h156z" />
    <glyph glyph-name="uni0404" unicode="&#x404;" horiz-adv-x="600" 
d="M53 260q0 90 27 169t78 138.5t126 93.5t171 34q47 0 92.5 -11t87.5 -33l-50 -110q-38 19 -70.5 27t-74.5 8q-41 0 -76 -13t-63 -37t-48.5 -56.5t-33.5 -71.5h266l-24 -116h-261v-8q0 -76 34.5 -123t104.5 -47q42 0 78.5 8t82.5 27l23 -110q-51 -22 -101.5 -33t-97.5 -11
q-65 0 -115.5 19.5t-85 55.5t-52.5 86.5t-18 113.5z" />
    <glyph glyph-name="uni0405" unicode="&#x405;" horiz-adv-x="558" 
d="M56 157q13 -10 33.5 -19.5t43.5 -17.5t47.5 -13t47.5 -5q67 0 98 23t31 65q0 50 -77 87l-67 32q-60 29 -91 68.5t-31 96.5q0 47 18 87.5t53.5 70t88 46.5t122.5 17q20 0 44 -3t48.5 -9.5t49 -15.5t45.5 -21l-55 -111q-32 18 -71.5 30.5t-75.5 12.5q-57 0 -89 -25t-32 -62
q0 -20 10.5 -39t42.5 -35l66 -32q36 -17 63.5 -35t46.5 -38.5t29 -45t10 -55.5q0 -52 -21.5 -94t-60 -71t-92.5 -45t-118 -16q-68 0 -122 19.5t-90 43.5z" />
    <glyph glyph-name="uni0406" unicode="&#x406;" horiz-adv-x="295" 
d="M157 0h-139l145 680h138z" />
    <glyph glyph-name="uni0407" unicode="&#x407;" horiz-adv-x="295" 
d="M157 0h-139l145 680h138zM52 805q0 37 27 62.5t68 25.5q31 0 48 -17t17 -43q0 -37 -27 -62.5t-69 -25.5q-30 0 -47 17t-17 43zM310 805q0 37 27 62.5t68 25.5q31 0 48 -17t17 -43q0 -37 -27 -62.5t-69 -25.5q-30 0 -47 17t-17 43z" />
    <glyph glyph-name="uni0408" unicode="&#x408;" horiz-adv-x="471" 
d="M37 156q18 -21 40 -36.5t60 -15.5q23 0 41 9t31 24.5t21.5 35.5t13.5 43l99 464h138l-103 -485q-21 -100 -85.5 -155t-164.5 -55q-60 0 -100.5 22t-64.5 49z" />
    <glyph glyph-name="uni0409" unicode="&#x409;" horiz-adv-x="990" 
d="M671 680l-53 -250h127q102 0 153 -44.5t51 -124.5q0 -122 -68.5 -191.5t-207.5 -69.5h-286l120 564h-171l-57 -208q-33 -120 -66 -192t-71.5 -111t-85.5 -51t-108 -12l25 119q27 0 49.5 7t43.5 33t41.5 76.5t43.5 138.5l81 316h439zM551 116h127q34 0 57.5 10t38 27
t21 40t6.5 49q0 34 -19 53t-62 19h-127z" />
    <glyph glyph-name="uni040A" unicode="&#x40a;" horiz-adv-x="1008" 
d="M690 680l-53 -250h127q101 0 152.5 -44.5t51.5 -124.5q0 -122 -68.5 -191.5t-207.5 -69.5h-286l67 314h-249l-67 -314h-139l145 680h138l-53 -250h250l53 250h139zM570 116h127q34 0 57.5 10t38 27t21 40t6.5 49q0 34 -18.5 53t-62.5 19h-127z" />
    <glyph glyph-name="uni040B" unicode="&#x40b;" horiz-adv-x="707" 
d="M465 0l54 255q10 46 -8.5 70.5t-73.5 24.5q-42 0 -77.5 -9t-57.5 -17l-68 -324h-139l120 564h-134l25 116h463l-24 -116h-192l-26 -126q32 11 70 20t95 9q95 0 141 -55t25 -155l-55 -257h-138z" />
    <glyph glyph-name="uni040C" unicode="&#x40c;" horiz-adv-x="632" 
d="M221 304l-64 -304h-139l145 680h138l-70 -329h2l304 329h161l-2 -10l-329 -347l201 -313l-2 -10h-153l-190 304h-2zM602 887l-111 -137h-132l2 10l87 136h156z" />
    <glyph glyph-name="uni040D" unicode="&#x40d;" horiz-adv-x="716" 
d="M200 208l365 472h157l-145 -680h-139l105 472h-3l-365 -472h-157l145 680h138l-104 -472h3zM348 896h148l29 -136l-2 -10h-124l-53 137z" />
    <glyph glyph-name="uni040E" unicode="&#x40e;" horiz-adv-x="560" 
d="M637 670l-315 -505q-31 -50 -58.5 -82t-57 -50.5t-64.5 -25.5t-81 -7h-51l25 116h30q23 0 40.5 1.5t31.5 8t26.5 19t25.5 33.5l15 25l-113 467l3 10h149l54 -326h3l188 326h151zM409 858q42 0 75 7t64 27l32 -72q-35 -35 -80.5 -52t-109.5 -17q-63 0 -100 22.5t-54 54.5
l51 64q23 -19 53 -26.5t69 -7.5z" />
    <glyph glyph-name="uni040F" unicode="&#x40f;" horiz-adv-x="702" 
d="M211 -141l18 141h-211l145 680h138l-120 -564h268l120 564h139l-145 -680h-211l-41 -141h-100z" />
    <glyph glyph-name="uni0410" unicode="&#x410;" horiz-adv-x="656" 
d="M594 0h-148l-14 140h-259l-74 -140h-157l389 680h163zM385 538l-150 -286h182l-29 286h-3z" />
    <glyph glyph-name="uni0411" unicode="&#x411;" horiz-adv-x="630" 
d="M620 680l-25 -116h-318l-29 -134h127q102 0 153.5 -44.5t51.5 -124.5q0 -122 -68.5 -191.5t-207.5 -69.5h-286l145 680h457zM181 116h128q34 0 57.5 10t38 27t21 40t6.5 49q0 34 -19 53t-62 19h-127z" />
    <glyph glyph-name="uni0412" unicode="&#x412;" horiz-adv-x="646" 
d="M181 116h125q40 0 66.5 7.5t42 22t21.5 35t6 46.5q0 34 -23.5 50.5t-80.5 16.5h-119zM398 680q109 0 167 -38t58 -113q0 -36 -9.5 -65.5t-26 -52t-39 -38.5t-47.5 -25v-2q39 -17 62 -47t23 -77q0 -51 -14.5 -92t-47.5 -70t-87 -44.5t-134 -15.5h-285l145 680h235z
M243 404h100q38 0 63 6t40 18t21 31t6 46q0 33 -23 46t-75 13h-98z" />
    <glyph glyph-name="uni0413" unicode="&#x413;" horiz-adv-x="550" 
d="M611 680l-25 -116h-309l-120 -564h-139l145 680h448z" />
    <glyph glyph-name="uni0414" unicode="&#x414;" horiz-adv-x="719" 
d="M-65 -141l35 257h61q47 48 79.5 118t60.5 175l71 271h449l-120 -564h77l-74 -257h-101l20 141h-419l-38 -141h-101zM432 116l95 448h-183l-43 -156q-28 -106 -55.5 -178t-60.5 -114h247z" />
    <glyph glyph-name="uni0415" unicode="&#x415;" horiz-adv-x="582" 
d="M611 680l-25 -116h-309l-35 -163h277l-25 -116h-277l-36 -169h313l-25 -116h-451l145 680h448z" />
    <glyph glyph-name="uni0416" unicode="&#x416;" horiz-adv-x="973" 
d="M420 304l-304 -304h-168l2 10l339 335l-186 325l2 10h149l176 -329h2l70 329h140l-70 -329h2l302 329h163l-2 -10l-329 -347l201 -313l-2 -10h-155l-188 304h-2l-65 -304h-140l65 304h-2z" />
    <glyph glyph-name="uni0417" unicode="&#x417;" horiz-adv-x="557" 
d="M154 401h113q36 0 60.5 9t39 24t21 34t6.5 40q0 31 -21.5 49.5t-68.5 18.5q-37 0 -81.5 -9t-85.5 -25l-27 108q46 20 103 32.5t107 12.5q112 0 168 -43.5t56 -116.5q0 -39 -13.5 -71.5t-33.5 -57t-44.5 -41t-46.5 -23.5v-2q38 -15 62.5 -47.5t24.5 -83.5q0 -102 -78 -163
t-226 -61q-69 0 -118.5 15t-86.5 36l50 110q35 -20 77.5 -31t92.5 -11q30 0 56 7t46 21t31.5 35t11.5 48q0 35 -24.5 52.5t-81.5 17.5h-114z" />
    <glyph glyph-name="uni0418" unicode="&#x418;" horiz-adv-x="716" 
d="M200 208l365 472h157l-145 -680h-139l105 472h-3l-365 -472h-157l145 680h138l-104 -472h3z" />
    <glyph glyph-name="uni0419" unicode="&#x419;" horiz-adv-x="716" 
d="M200 208l365 472h157l-145 -680h-139l105 472h-3l-365 -472h-157l145 680h138l-104 -472h3zM483 858q42 0 75 7t64 27l32 -72q-35 -35 -80.5 -52t-109.5 -17q-63 0 -100 22.5t-54 54.5l51 64q23 -19 53 -26.5t69 -7.5z" />
    <glyph glyph-name="uni041A" unicode="&#x41a;" horiz-adv-x="632" 
d="M221 304l-64 -304h-139l145 680h138l-70 -329h2l304 329h161l-2 -10l-329 -347l201 -313l-2 -10h-153l-190 304h-2z" />
    <glyph glyph-name="uni041B" unicode="&#x41b;" horiz-adv-x="704" 
d="M546 564h-210l-57 -208q-33 -120 -65 -192t-70 -111t-85.5 -51t-110.5 -12l25 119q27 0 49.5 7t43.5 33t41.5 76.5t43.5 138.5l81 316h478l-145 -680h-138z" />
    <glyph glyph-name="uni041C" unicode="&#x41c;" horiz-adv-x="829" 
d="M416 316l279 364h140l-145 -680h-138l94 442h-2l-196 -271h-111l-84 271h-2l-94 -442h-139l145 680h127l124 -364h2z" />
    <glyph glyph-name="uni041D" unicode="&#x41d;" horiz-adv-x="712" 
d="M495 285h-278l-60 -285h-139l145 680h138l-59 -279h278l59 279h139l-145 -680h-139z" />
    <glyph glyph-name="uni041E" unicode="&#x41e;" horiz-adv-x="750" 
d="M199 267q0 -35 7.5 -65t24.5 -51.5t43 -34t64 -12.5q68 0 113.5 29.5t73 75t39 100t11.5 104.5q0 35 -7.5 65t-24 51.5t-42.5 34t-63 12.5q-69 0 -114.5 -29.5t-73.5 -75t-39.5 -100t-11.5 -104.5zM721 421q0 -82 -24 -160.5t-73.5 -139.5t-124.5 -98.5t-177 -37.5
q-68 0 -118.5 20.5t-84 57.5t-50 86.5t-16.5 108.5q0 82 24 160.5t73.5 140t124.5 99t178 37.5q67 0 117.5 -20.5t84 -57.5t50 -87t16.5 -109z" />
    <glyph glyph-name="uni041F" unicode="&#x41f;" horiz-adv-x="712" 
d="M554 564h-277l-120 -564h-139l145 680h555l-145 -680h-139z" />
    <glyph glyph-name="uni0420" unicode="&#x420;" horiz-adv-x="594" 
d="M18 0l145 680h244q50 0 86.5 -12.5t60.5 -35.5t36 -55t12 -71q0 -53 -14 -102.5t-46 -88.5t-83.5 -62.5t-127.5 -23.5h-126l-48 -229h-139zM230 345h106q33 0 55.5 13t36.5 33t20 45.5t6 50.5q0 34 -16.5 55.5t-54.5 21.5h-106z" />
    <glyph glyph-name="uni0421" unicode="&#x421;" horiz-adv-x="602" 
d="M53 260q0 90 27 169t78 138.5t126 93.5t171 34q47 0 92.5 -11t87.5 -33l-50 -110q-38 19 -70.5 27t-74.5 8q-56 0 -100 -24t-75.5 -65.5t-48 -96.5t-16.5 -116q0 -76 34.5 -123t104.5 -47q42 0 78.5 8t82.5 27l23 -110q-51 -22 -101.5 -33t-97.5 -11q-65 0 -115.5 19.5
t-85 55.5t-52.5 86.5t-18 113.5z" />
    <glyph glyph-name="uni0422" unicode="&#x422;" horiz-adv-x="559" 
d="M621 680l-25 -116h-187l-120 -564h-139l120 564h-187l25 116h513z" />
    <glyph glyph-name="uni0423" unicode="&#x423;" horiz-adv-x="560" 
d="M637 670l-315 -505q-31 -50 -58.5 -82t-57 -50.5t-64.5 -25.5t-81 -7h-51l25 116h30q23 0 40.5 1.5t31.5 8t26.5 19t25.5 33.5l15 25l-113 467l3 10h149l54 -326h3l188 326h151z" />
    <glyph glyph-name="uni0424" unicode="&#x424;" horiz-adv-x="817" 
d="M552 620q67 -8 114 -27.5t77 -49.5t43.5 -68t13.5 -82q0 -62 -19.5 -119t-63 -102t-113.5 -75t-171 -37l-13 -60h-139l13 59q-68 7 -116 27t-78.5 50t-44.5 68t-14 83q0 63 19.5 120t64 102t115.5 74.5t173 36.5l13 60h139zM187 296q0 -51 28.5 -86.5t100.5 -45.5l75 352
q-72 -9 -113 -35t-61 -58.5t-25 -66.5t-5 -60zM654 384q0 50 -27.5 85.5t-97.5 45.5l-74 -351q94 14 146.5 66.5t52.5 153.5z" />
    <glyph glyph-name="uni0425" unicode="&#x425;" horiz-adv-x="616" 
d="M252 680l81 -256h2l190 256h155l-2 -10l-258 -329l117 -331l-2 -10h-147l-79 257h-2l-188 -257h-157l2 10l257 331l-117 329l3 10h145z" />
    <glyph glyph-name="uni0426" unicode="&#x426;" horiz-adv-x="736" 
d="M490 -141l20 141h-492l145 680h138l-120 -564h268l120 564h139l-120 -564h77l-74 -257h-101z" />
    <glyph glyph-name="uni0427" unicode="&#x427;" horiz-adv-x="640" 
d="M276 680l-61 -285q-10 -46 8.5 -70.5t73.5 -24.5q41 0 78 8t57 18l75 354h139l-145 -680h-139l45 212q-32 -11 -70 -20t-95 -9q-95 0 -141 55t-25 154l61 288h139z" />
    <glyph glyph-name="uni0428" unicode="&#x428;" horiz-adv-x="1010" 
d="M18 0l145 680h138l-120 -564h219l120 564h139l-120 -564h219l119 564h139l-144 -680h-854z" />
    <glyph glyph-name="uni0429" unicode="&#x429;" horiz-adv-x="1045" 
d="M799 -141l20 141h-801l145 680h138l-120 -564h219l120 564h139l-120 -564h219l119 564h139l-120 -564h78l-75 -257h-100z" />
    <glyph glyph-name="uni042A" unicode="&#x42a;" horiz-adv-x="690" 
d="M105 680h265l-53 -250h127q102 0 153.5 -44.5t51.5 -124.5q0 -122 -68.5 -191.5t-207.5 -69.5h-286l120 564h-127zM250 116h128q34 0 57.5 10t38 27t21 40t6.5 49q0 34 -19 53t-62 19h-127z" />
    <glyph glyph-name="uni042B" unicode="&#x42b;" horiz-adv-x="871" 
d="M733 0h-139l145 680h138zM301 680l-53 -250h127q102 0 153.5 -44.5t51.5 -124.5q0 -122 -68.5 -191.5t-207.5 -69.5h-286l145 680h138zM181 116h128q34 0 57.5 10t38 27t21 40t6.5 49q0 34 -19 53t-62 19h-127z" />
    <glyph glyph-name="uni042C" unicode="&#x42c;" horiz-adv-x="620" 
d="M301 680l-53 -250h127q102 0 153.5 -44.5t51.5 -124.5q0 -122 -68.5 -191.5t-207.5 -69.5h-286l145 680h138zM181 116h128q34 0 57.5 10t38 27t21 40t6.5 49q0 34 -19 53t-62 19h-127z" />
    <glyph glyph-name="uni042D" unicode="&#x42d;" horiz-adv-x="602" 
d="M573 420q0 -90 -27 -169t-78 -138.5t-126 -93.5t-171 -34q-47 0 -92.5 11t-87.5 33l50 110q38 -19 70.5 -27t74.5 -8q41 0 76 13t63 37t48.5 56.5t33.5 71.5h-266l24 116h261v8q0 76 -34.5 123t-104.5 47q-42 0 -78.5 -8t-82.5 -27l-23 110q51 22 101.5 33t97.5 11
q65 0 115.5 -19.5t85 -55.5t52.5 -86.5t18 -113.5z" />
    <glyph glyph-name="uni042E" unicode="&#x42e;" horiz-adv-x="1055" 
d="M1026 421q0 -82 -24 -160.5t-73.5 -139.5t-124.5 -98.5t-177 -37.5q-68 0 -118.5 20.5t-84 57.5t-50 86.5t-16.5 108.5v27h-141l-60 -285h-139l145 680h138l-59 -279h135q16 61 48 114.5t79 93.5t110.5 63t143.5 23q67 0 117.5 -20.5t84 -57.5t50 -87t16.5 -109zM504 267
q0 -35 7.5 -65t24.5 -51.5t43 -34t64 -12.5q68 0 113.5 29.5t73 75t39 100t11.5 104.5q0 35 -7.5 65t-24 51.5t-42.5 34t-63 12.5q-69 0 -114.5 -29.5t-73.5 -75t-39.5 -100t-11.5 -104.5z" />
    <glyph glyph-name="uni042F" unicode="&#x42f;" horiz-adv-x="657" 
d="M380 0l55 257h-81l-235 -257h-151l3 16l235 250q-54 17 -81.5 59.5t-27.5 100.5q0 55 16.5 102t50.5 80.5t85.5 52.5t121.5 19h292l-144 -680h-139zM459 373l41 191h-137q-54 0 -85.5 -34t-31.5 -82q0 -32 19 -53.5t57 -21.5h137z" />
    <glyph glyph-name="uni0430" unicode="&#x430;" horiz-adv-x="589" 
d="M394 361q-17 12 -37 18.5t-46 6.5q-38 0 -65.5 -16t-45 -42t-25.5 -60t-8 -70q0 -45 18.5 -73.5t63.5 -28.5q26 0 50.5 9.5t45.5 23.5zM340 43q-23 -20 -59 -39t-88 -19q-43 0 -74.5 15.5t-51.5 42.5t-30 63t-10 76q0 60 17 117t49.5 101t80 70.5t107.5 26.5
q27 0 48.5 -5.5t39 -14.5t31 -19t24.5 -19h2l28 43h99l-81 -377q-2 -11 -1 -14.5t12 -3.5h35l-19 -92q-17 -3 -33.5 -5t-38.5 -2q-38 0 -57.5 13.5t-27.5 41.5h-2z" />
    <glyph glyph-name="uni0431" unicode="&#x431;" horiz-adv-x="591" 
d="M197 388q29 26 70.5 44.5t95.5 18.5q44 0 78 -13.5t56.5 -38t34 -57.5t11.5 -72q0 -57 -20 -109t-57.5 -91t-93 -62t-125.5 -23q-53 0 -92.5 15t-66 41.5t-39.5 63.5t-13 82q0 29 6.5 64.5t16.5 73t22.5 74.5t23.5 69q34 99 96 151t145 66q29 5 69 9t79 7.5t72 6.5t50 6
l-26 -122q-15 -4 -44 -6.5t-62 -4.5t-65.5 -4.5t-56.5 -6.5q-67 -12 -106.5 -57t-61.5 -123zM402 250q0 43 -23.5 66.5t-66.5 23.5q-63 0 -102.5 -40t-39.5 -108q0 -44 23.5 -70t66.5 -26q31 0 57 11.5t45 32.5t29.5 49t10.5 61z" />
    <glyph glyph-name="uni0432" unicode="&#x432;" horiz-adv-x="532" 
d="M155 96h94q29 0 45.5 7t25 16.5t10.5 21t2 20.5q0 17 -12.5 29.5t-47.5 12.5h-94zM331 482q72 0 114.5 -27.5t42.5 -81.5q0 -28 -7.5 -49t-20.5 -36.5t-29.5 -26.5t-34.5 -19v-1q26 -11 46 -32.5t20 -59.5q0 -149 -205 -149h-253l102 482h225zM196 288h73q45 0 63 16.5
t18 45.5q0 16 -12 27.5t-48 11.5h-73z" />
    <glyph glyph-name="uni0433" unicode="&#x433;" horiz-adv-x="441" 
d="M463 482l-22 -103h-226l-80 -379h-131l102 482h357z" />
    <glyph glyph-name="uni0434" unicode="&#x434;" horiz-adv-x="600" 
d="M-54 -120l28 225h53q33 32 55.5 87t38.5 111l46 179h386l-80 -377h54l-67 -225h-91l13 120h-309l-36 -120h-91zM342 105l58 274h-133l-20 -74q-16 -60 -35.5 -114.5t-39.5 -85.5h170z" />
    <glyph glyph-name="uni0435" unicode="&#x435;" horiz-adv-x="537" 
d="M161 202q-1 -4 -1 -10v-8q0 -44 24 -67.5t71 -23.5q41 0 79.5 9.5t76.5 23.5l21 -100q-39 -17 -91 -29t-109 -12q-53 0 -92 16t-64.5 44t-38 65t-12.5 79q0 60 20.5 115.5t58 98.5t91 68.5t119.5 25.5q50 0 86.5 -14t60 -37t35 -54t11.5 -65q0 -44 -11.5 -75t-20.5 -50
h-314zM377 286q7 19 7 40q0 31 -17.5 52t-62.5 21q-25 0 -45.5 -9.5t-36 -25.5t-26.5 -36t-17 -42h198z" />
    <glyph glyph-name="uni0436" unicode="&#x436;" horiz-adv-x="799" 
d="M316 211l-210 -211h-155l1 7l245 241l-136 227l1 7h138l125 -228h2l49 228h133l-48 -228h2l208 228h152l-2 -7l-236 -248l145 -220l-1 -7h-141l-134 211h-2l-45 -211h-134l45 211h-2z" />
    <glyph glyph-name="uni0437" unicode="&#x437;" horiz-adv-x="482" 
d="M109 294h121q35 0 53 12.5t18 42.5q0 17 -15 28t-53 11q-15 0 -33.5 -2t-38.5 -5.5t-39 -8.5t-35 -11l-17 105q38 14 86 23.5t90 9.5q103 0 150.5 -33.5t47.5 -90.5q0 -48 -24.5 -80t-69.5 -47v-2q29 -13 45.5 -36t16.5 -58q0 -36 -13 -67t-42.5 -53t-78 -34.5
t-119.5 -12.5q-57 0 -100.5 12t-75.5 28l34 102q27 -14 71 -22.5t85 -8.5q57 0 79.5 16.5t22.5 43.5q0 35 -59 35h-129z" />
    <glyph glyph-name="uni0438" unicode="&#x438;" horiz-adv-x="583" 
d="M173 187l241 295h148l-103 -482h-131l68 295h-3l-241 -295h-148l102 482h131l-67 -295h3z" />
    <glyph glyph-name="uni0439" unicode="&#x439;" horiz-adv-x="583" 
d="M374 674q42 0 75 7t64 27l32 -72q-35 -35 -80.5 -52t-109.5 -17q-63 0 -100 22.5t-54 54.5l51 64q23 -19 53 -26.5t69 -7.5zM173 187l241 295h148l-103 -482h-131l68 295h-3l-241 -295h-148l102 482h131l-67 -295h3z" />
    <glyph glyph-name="uni043A" unicode="&#x43a;" horiz-adv-x="520" 
d="M182 211l-45 -211h-133l102 482h133l-49 -230h2l208 230h152l-2 -7l-237 -246l146 -222l-1 -7h-142l-132 211h-2z" />
    <glyph glyph-name="uni043B" unicode="&#x43b;" horiz-adv-x="581" 
d="M406 379h-143l-39 -134q-23 -78 -48.5 -127t-57.5 -76.5t-73 -38t-94 -10.5l23 109q20 0 37.5 5.5t33.5 22t30.5 46.5t28.5 80l60 226h395l-102 -482h-132z" />
    <glyph glyph-name="uni043C" unicode="&#x43c;" horiz-adv-x="677" 
d="M324 231l200 251h131l-102 -482h-131l59 276h-2l-123 -161h-107l-54 161h-2l-58 -276h-131l102 482h122l94 -251h2z" />
    <glyph glyph-name="uni043D" unicode="&#x43d;" horiz-adv-x="577" 
d="M362 188h-187l-40 -188h-131l102 482h131l-40 -189h188l40 189h130l-102 -482h-131z" />
    <glyph glyph-name="uni043E" unicode="&#x43e;" horiz-adv-x="583" 
d="M164 200q0 -52 23.5 -78t63.5 -26q32 0 59.5 12.5t47.5 36.5t31.5 58.5t11.5 78.5q0 52 -23.5 78t-64.5 26q-31 0 -58 -12.5t-47.5 -36.5t-32 -58.5t-11.5 -78.5zM540 290q0 -60 -20.5 -115t-59.5 -97.5t-95 -67.5t-127 -25q-53 0 -93 16.5t-66.5 45t-40 66.5t-13.5 80
q0 60 21 115t60.5 97t95 67t124.5 25q54 0 94 -16.5t66.5 -45t40 -66t13.5 -79.5z" />
    <glyph glyph-name="uni043F" unicode="&#x43f;" horiz-adv-x="577" 
d="M403 379h-188l-80 -379h-131l102 482h449l-102 -482h-131z" />
    <glyph glyph-name="uni0440" unicode="&#x440;" horiz-adv-x="582" 
d="M205 482l9 -43h2q27 20 63.5 39t89.5 19q43 0 75 -15.5t53 -42.5t31.5 -63t10.5 -76q0 -60 -18 -117t-51.5 -101t-81.5 -70.5t-108 -26.5q-46 0 -79.5 17t-53.5 33h-2l-49 -233h-135l145 680h99zM164 121q36 -25 87 -25q39 0 67 16t46 42.5t27 60t9 69.5q0 45 -21 73.5
t-66 28.5q-26 0 -51.5 -9t-47.5 -24z" />
    <glyph glyph-name="uni0441" unicode="&#x441;" horiz-adv-x="478" 
d="M26 187q0 68 21 125t60.5 98t96 64t127.5 23q44 0 81.5 -10t58.5 -19l-38 -103q-20 7 -44 14t-56 7t-62 -10.5t-53 -33t-37 -57t-14 -82.5q0 -57 30 -82t75 -25q32 0 59 7t49 14l15 -103q-26 -9 -67.5 -19t-85.5 -10q-53 0 -93 14.5t-67.5 41t-41.5 64t-14 82.5z" />
    <glyph glyph-name="uni0442" unicode="&#x442;" horiz-adv-x="453" 
d="M475 482l-22 -103h-142l-80 -379h-131l81 379h-140l22 103h412z" />
    <glyph glyph-name="uni0443" unicode="&#x443;" horiz-adv-x="524" 
d="M549 472l-327 -550q-40 -67 -92 -101t-114 -34q-24 0 -43 2.5t-36 6.5l20 107q17 -3 34 -4t25 -1q32 0 53 12t38 41l31 54l-90 467l2 10h136l42 -328h3l176 328h144z" />
    <glyph glyph-name="uni0444" unicode="&#x444;" horiz-adv-x="861" 
d="M462 112q17 -9 35 -12.5t41 -3.5q29 0 54.5 11.5t44 35.5t29.5 61t11 88q0 42 -17.5 68t-60.5 26q-42 0 -83 -22zM381 370q-17 9 -35 12.5t-41 3.5q-29 0 -54.5 -11.5t-44 -35.5t-29.5 -61t-11 -88q0 -42 17.5 -68t60.5 -26q44 0 83 22zM538 465q24 14 49.5 23t67.5 9
t73 -15t50.5 -41t29 -60.5t9.5 -73.5q0 -59 -15.5 -116.5t-46.5 -103t-78 -74t-111 -28.5q-47 0 -75 11t-47 25h-2l-47 -219h-134l46 219h-2q-23 -15 -47 -25.5t-70 -10.5q-42 0 -73 15t-50.5 41t-29 60.5t-9.5 73.5q0 58 15.5 116t46.5 103.5t78 74t111 28.5
q42 0 72.5 -8.5t50.5 -23.5h2l50 235h134l-50 -235h2z" />
    <glyph glyph-name="uni0445" unicode="&#x445;" horiz-adv-x="533" 
d="M246 168l-135 -168h-150l2 10l199 231l-101 231l2 10h140l64 -169h2l135 169h150l-2 -10l-199 -231l101 -231l-3 -10h-139l-64 168h-2z" />
    <glyph glyph-name="uni0446" unicode="&#x446;" horiz-adv-x="603" 
d="M379 -120l12 120h-387l102 482h131l-81 -380h180l81 380h132l-81 -380h68l-67 -222h-90z" />
    <glyph glyph-name="uni0447" unicode="&#x447;" horiz-adv-x="512" 
d="M211 482l-42 -198q-5 -21 7.5 -34.5t47.5 -13.5q32 0 52.5 4.5t34.5 12.5l48 229h131l-102 -482h-131l32 152q-51 -22 -118 -22q-37 0 -65 11.5t-45.5 32.5t-23 49.5t1.5 62.5l42 196h130z" />
    <glyph glyph-name="uni0448" unicode="&#x448;" horiz-adv-x="805" 
d="M4 0l102 482h131l-81 -380h143l81 380h130l-80 -380h141l81 380h132l-103 -482h-677z" />
    <glyph glyph-name="uni0449" unicode="&#x449;" horiz-adv-x="838" 
d="M613 -120l13 120h-622l102 482h131l-81 -380h143l81 380h130l-80 -380h141l81 380h132l-81 -380h68l-67 -222h-91z" />
    <glyph glyph-name="uni044A" unicode="&#x44a;" horiz-adv-x="557" 
d="M63 482h223l-34 -161h87q84 0 126 -34t42 -95q0 -94 -51 -143t-165 -49h-238l81 379h-93zM205 102h90q36 0 53.5 21t17.5 51q0 15 -9.5 29t-37.5 14h-89z" />
    <glyph glyph-name="uni044B" unicode="&#x44b;" horiz-adv-x="733" 
d="M237 482l-34 -162h87q84 0 126 -33.5t42 -94.5q0 -94 -51 -143t-165 -49h-238l102 482h131zM156 102h90q36 0 53.5 21t17.5 51q0 15 -9.5 29t-37.5 14h-89zM474 0l102 482h135l-102 -482h-135z" />
    <glyph glyph-name="uni044C" unicode="&#x44c;" horiz-adv-x="508" 
d="M237 482l-34 -162h87q84 0 126 -33.5t42 -94.5q0 -94 -51 -143t-165 -49h-238l102 482h131zM156 102h90q36 0 53.5 21t17.5 51q0 15 -9.5 29t-37.5 14h-89z" />
    <glyph glyph-name="uni044D" unicode="&#x44d;" horiz-adv-x="487" 
d="M442 286q0 -64 -20 -118.5t-59.5 -94t-97 -62t-132.5 -22.5q-38 0 -76 7.5t-70 24.5l47 103q29 -13 53.5 -19.5t58.5 -6.5q22 0 43.5 6t40 17.5t32.5 28t20 37.5h-184l22 106h184q-2 42 -27 67t-70 25q-34 0 -61 -7t-62 -20l-23 101q39 16 80 25t79 9q53 0 94.5 -15.5
t70 -43t43 -65.5t14.5 -83z" />
    <glyph glyph-name="uni044E" unicode="&#x44e;" horiz-adv-x="839" 
d="M796 290q0 -60 -20.5 -115t-59.5 -97.5t-95 -67.5t-127 -25q-52 0 -91.5 16t-66.5 44t-41 65t-14 78h-106l-40 -188h-131l102 482h131l-40 -189h99q14 43 40 80.5t62.5 65t83 43t100.5 15.5t94 -16.5t66.5 -45t40 -66t13.5 -79.5zM420 200q0 -52 23.5 -78t63.5 -26
q32 0 59.5 12.5t47.5 36.5t31.5 58.5t11.5 78.5q0 52 -23.5 78t-64.5 26q-31 0 -58 -12.5t-47.5 -36.5t-32 -58.5t-11.5 -78.5z" />
    <glyph glyph-name="uni044F" unicode="&#x44f;" horiz-adv-x="545" 
d="M290 0l34 159h-46l-169 -159h-142l2 11l169 157q-42 17 -61.5 49t-19.5 73q0 39 11 74t36.5 61.5t67.5 41.5t103 15h248l-102 -482h-131zM370 379h-100q-37 0 -55 -22.5t-18 -48.5q0 -19 11.5 -32.5t37.5 -13.5h100z" />
    <glyph glyph-name="uni0450" unicode="&#x450;" horiz-adv-x="537" 
d="M161 202q-1 -4 -1 -10v-8q0 -44 24 -67.5t71 -23.5q41 0 79.5 9.5t76.5 23.5l21 -100q-39 -17 -91 -29t-109 -12q-53 0 -92 16t-64.5 44t-38 65t-12.5 79q0 60 20.5 115.5t58 98.5t91 68.5t119.5 25.5q50 0 86.5 -14t60 -37t35 -54t11.5 -65q0 -44 -11.5 -75t-20.5 -50
h-314zM377 286q7 19 7 40q0 31 -17.5 52t-62.5 21q-25 0 -45.5 -9.5t-36 -25.5t-26.5 -36t-17 -42h198zM236 713h137l50 -136l-2 -10h-114l-73 137z" />
    <glyph glyph-name="uni0451" unicode="&#x451;" horiz-adv-x="537" 
d="M161 202q-1 -4 -1 -10v-8q0 -44 24 -67.5t71 -23.5q41 0 79.5 9.5t76.5 23.5l21 -100q-39 -17 -91 -29t-109 -12q-53 0 -92 16t-64.5 44t-38 65t-12.5 79q0 60 20.5 115.5t58 98.5t91 68.5t119.5 25.5q50 0 86.5 -14t60 -37t35 -54t11.5 -65q0 -44 -11.5 -75t-20.5 -50
h-314zM377 286q7 19 7 40q0 31 -17.5 52t-62.5 21q-25 0 -45.5 -9.5t-36 -25.5t-26.5 -36t-17 -42h198zM173 626q0 37 27 62.5t68 25.5q31 0 48 -17t17 -43q0 -37 -27 -62.5t-69 -25.5q-30 0 -47 17t-17 43zM390 626q0 37 27 62.5t68 25.5q31 0 48 -17t17 -43
q0 -37 -27 -62.5t-69 -25.5q-31 0 -47.5 17t-16.5 43z" />
    <glyph glyph-name="uni0452" unicode="&#x452;" horiz-adv-x="570" 
d="M3 0l115 540h-49l22 103h49l12 57h135l-13 -57h103l-22 -103h-102l-21 -98h2q23 18 58.5 36.5t83.5 18.5q71 0 109.5 -46.5t38.5 -129.5q0 -56 -15.5 -114.5t-42.5 -118.5t-62.5 -122t-75.5 -123l-102 59q34 55 63 112.5t50 110.5t32.5 100t11.5 81q0 43 -16 61.5
t-47 18.5q-36 0 -65 -17.5t-46 -32.5l-71 -336h-135z" />
    <glyph glyph-name="uni0453" unicode="&#x453;" horiz-adv-x="441" 
d="M488 704l-131 -137h-122l2 10l107 136h146zM463 482l-22 -103h-226l-80 -379h-131l102 482h357z" />
    <glyph glyph-name="uni0454" unicode="&#x454;" horiz-adv-x="485" 
d="M27 196q0 64 20 118.5t59.5 94t97 62t132.5 22.5q38 0 76 -7.5t70 -24.5l-47 -103q-29 13 -53.5 19.5t-58.5 6.5q-22 0 -44 -6.5t-40.5 -18.5t-32.5 -28.5t-20 -37.5h184l-22 -106h-184q2 -42 27.5 -66t70.5 -24q34 0 61 7t62 20l23 -101q-39 -16 -80 -25t-79 -9
q-53 0 -94.5 15.5t-70 43t-43 65.5t-14.5 83z" />
    <glyph glyph-name="uni0455" unicode="&#x455;" horiz-adv-x="465" 
d="M39 128q32 -18 68.5 -29.5t75.5 -11.5q84 0 84 52q0 17 -14 28t-40 20l-59 20q-20 7 -38.5 17.5t-32.5 25.5t-22.5 34.5t-8.5 45.5q0 81 59 124t165 43q48 0 88.5 -8.5t78.5 -25.5l-44 -97q-29 12 -62.5 20.5t-68.5 8.5q-44 0 -62.5 -13t-18.5 -36q0 -17 13.5 -27
t37.5 -18l57 -20q46 -16 77 -46t31 -80q0 -85 -62 -127.5t-166 -42.5q-57 0 -101.5 12t-82.5 34z" />
    <glyph glyph-name="uni0456" unicode="&#x456;" horiz-adv-x="262" 
d="M4 0l102 482h135l-103 -482h-134zM128 626q0 37 27 62.5t68 25.5q31 0 48 -17t17 -43q0 -37 -27 -62.5t-69 -25.5q-30 0 -47 17t-17 43z" />
    <glyph glyph-name="uni0457" unicode="&#x457;" horiz-adv-x="262" 
d="M20 626q0 37 27 62.5t68 25.5q31 0 48 -17t17 -43q0 -37 -27 -62.5t-69 -25.5q-30 0 -47 17t-17 43zM237 626q0 37 27 62.5t68 25.5q31 0 48 -17t17 -43q0 -37 -27 -62.5t-69 -25.5q-31 0 -47.5 17t-16.5 43zM4 0l102 482h135l-102 -482h-135z" />
    <glyph glyph-name="uni0458" unicode="&#x458;" horiz-adv-x="261" 
d="M240 482l-113 -529q-17 -82 -63 -124t-135 -42q-16 0 -38 2.5t-37 5.5l23 109q24 -6 51 -6q29 0 44.5 15t22.5 48l111 521h134zM127 626q0 37 27.5 62.5t68.5 25.5q31 0 47.5 -17t16.5 -43q0 -37 -27 -62.5t-69 -25.5q-30 0 -47 17t-17 43z" />
    <glyph glyph-name="uni0459" unicode="&#x459;" horiz-adv-x="796" 
d="M525 482l-35 -162h88q84 0 126 -33.5t42 -94.5q0 -94 -52 -143t-164 -49h-238l80 379h-108l-39 -134q-23 -78 -49.5 -127t-59.5 -76.5t-73.5 -38t-90.5 -10.5l23 109q20 0 37.5 5.5t33.5 22t30.5 46.5t28.5 80l60 226h360zM444 102h89q37 0 54.5 21t17.5 51q0 15 -9.5 29
t-37.5 14h-89z" />
    <glyph glyph-name="uni045A" unicode="&#x45a;" horiz-adv-x="810" 
d="M539 482l-34 -162h87q84 0 126 -33.5t42 -94.5q0 -94 -51 -143t-165 -49h-238l46 217h-171l-46 -217h-131l102 482h131l-34 -162h171l35 162h130zM458 102h90q36 0 53.5 21t17.5 51q0 15 -9 29t-38 14h-89z" />
    <glyph glyph-name="uni045B" unicode="&#x45b;" horiz-adv-x="575" 
d="M321 0l62 290q10 46 -5 71t-58 25q-36 0 -65 -17.5t-46 -32.5l-71 -336h-135l115 540h-49l22 103h49l12 57h135l-12 -57h102l-22 -103h-102l-21 -98h2q23 19 58.5 37t83.5 18q85 0 124 -54t19 -148l-63 -295h-135z" />
    <glyph glyph-name="uni045C" unicode="&#x45c;" horiz-adv-x="520" 
d="M528 704l-131 -137h-122l2 10l107 136h146zM182 211l-45 -211h-133l102 482h133l-49 -230h2l208 230h152l-2 -7l-237 -246l146 -222l-1 -7h-142l-132 211h-2z" />
    <glyph glyph-name="uni045D" unicode="&#x45d;" horiz-adv-x="583" 
d="M241 713h137l50 -136l-2 -10h-114l-73 137zM173 187l241 295h148l-103 -482h-131l68 295h-3l-241 -295h-148l102 482h131l-67 -295h3z" />
    <glyph glyph-name="uni045E" unicode="&#x45e;" horiz-adv-x="524" 
d="M549 472l-327 -550q-40 -67 -92 -101t-114 -34q-24 0 -43 2.5t-36 6.5l20 107q17 -3 34 -4t25 -1q32 0 53 12t38 41l31 54l-90 467l2 10h136l42 -328h3l176 328h144zM334 674q42 0 75 7t64 27l32 -72q-35 -35 -80.5 -52t-109.5 -17q-63 0 -100 22.5t-54 54.5l51 64
q23 -19 53 -26.5t69 -7.5z" />
    <glyph glyph-name="uni045F" unicode="&#x45f;" horiz-adv-x="570" 
d="M155 -120l12 120h-163l102 482h131l-81 -380h180l81 380h132l-103 -482h-162l-38 -120h-91z" />
    <glyph glyph-name="uni0462" unicode="&#x462;" horiz-adv-x="706" 
d="M388 680l-11 -50h189l-24 -116h-190l-17 -84h127q102 0 153 -44.5t51 -124.5q0 -122 -68.5 -191.5t-207.5 -69.5h-286l110 514h-136l25 116h135l11 50h139zM268 116h127q34 0 57.5 10t38 27t21 40t6.5 49q0 34 -18.5 53t-62.5 19h-127z" />
    <glyph glyph-name="uni0463" unicode="&#x463;" horiz-adv-x="557" 
d="M334 701l-47 -219h156l-22 -103h-156l-12 -59h87q84 0 126 -33.5t42 -94.5q0 -94 -51 -143t-165 -49h-238l81 379h-93l22 103h93l46 219h131zM206 102h90q36 0 53.5 21t17.5 51q0 15 -9.5 29t-37.5 14h-89z" />
    <glyph glyph-name="uni0472" unicode="&#x472;" horiz-adv-x="750" 
d="M721 421q0 -82 -24 -160.5t-73.5 -139.5t-124.5 -98.5t-177 -37.5q-68 0 -118.5 20.5t-84 57.5t-50 86.5t-16.5 108.5q0 82 24 160.5t73.5 140t124.5 99t178 37.5q67 0 117.5 -20.5t84 -57.5t50 -87t16.5 -109zM199 267q0 -35 7.5 -65t24.5 -51.5t43 -34t64 -12.5
q48 0 84.5 15t63 40.5t44.5 58.5t28 70h-359v-21zM438 576q-47 0 -83.5 -14.5t-63.5 -39t-45 -56.5t-29 -68h358v15q0 35 -7.5 65t-24 51.5t-42.5 34t-63 12.5z" />
    <glyph glyph-name="uni0473" unicode="&#x473;" horiz-adv-x="583" 
d="M540 290q0 -60 -20.5 -115t-59.5 -97.5t-95 -67.5t-127 -25q-53 0 -93 16.5t-66.5 45t-40 66.5t-13.5 80q0 60 21 115t60.5 97t95 67t124.5 25q54 0 94 -16.5t66.5 -45t40 -66t13.5 -79.5zM251 96q45 0 79.5 24.5t53.5 72.5h-220v-6q0 -42 23.5 -66.5t63.5 -24.5z
M313 386q-44 0 -78.5 -24t-53.5 -72h220v5q0 42 -23.5 66.5t-64.5 24.5z" />
    <glyph glyph-name="uni0474" unicode="&#x474;" horiz-adv-x="666" 
d="M712 576q-29 0 -47.5 -14t-36.5 -47l-278 -515h-170l-92 670l2 10h145l55 -534h3l217 412q19 36 40.5 61.5t48.5 42.5t61 25t78 8z" />
    <glyph glyph-name="uni0475" unicode="&#x475;" horiz-adv-x="541" 
d="M541 385q-21 0 -35 -12t-25 -32l-187 -341h-170l-73 475l1 7h139l38 -354h3l138 257q14 25 31 45.5t40 34t53 21t70 7.5z" />
    <glyph glyph-name="uni0490" unicode="&#x490;" horiz-adv-x="547" 
d="M624 821l-38 -257h-309l-120 -564h-139l145 680h306l47 141h108z" />
    <glyph glyph-name="uni0491" unicode="&#x491;" horiz-adv-x="439" 
d="M476 588l-35 -209h-226l-80 -379h-131l102 482h238l40 106h92z" />
    <glyph glyph-name="uni04AE" unicode="&#x4ae;" horiz-adv-x="594" 
d="M228 680l87 -280h2l207 280h156l-2 -10l-314 -396l-58 -274h-139l59 274l-147 396l2 10h147z" />
    <glyph glyph-name="uni04AF" unicode="&#x4af;" horiz-adv-x="532" 
d="M95 -198l42 198l-87 472l2 10h132l46 -335h2l189 335h140l-2 -10l-287 -472l-42 -198h-135z" />
    <glyph glyph-name="uni04E8" unicode="&#x4e8;" horiz-adv-x="750" 
d="M721 421q0 -82 -24 -160.5t-73.5 -139.5t-124.5 -98.5t-177 -37.5q-68 0 -118.5 20.5t-84 57.5t-50 86.5t-16.5 108.5q0 82 24 160.5t73.5 140t124.5 99t178 37.5q67 0 117.5 -20.5t84 -57.5t50 -87t16.5 -109zM199 267q0 -35 7.5 -65t24.5 -51.5t43 -34t64 -12.5
q48 0 84.5 15t63 40.5t44.5 58.5t28 70h-359v-21zM438 576q-47 0 -83.5 -14.5t-63.5 -39t-45 -56.5t-29 -68h358v15q0 35 -7.5 65t-24 51.5t-42.5 34t-63 12.5z" />
    <glyph glyph-name="uni04E9" unicode="&#x4e9;" horiz-adv-x="583" 
d="M540 290q0 -60 -20.5 -115t-59.5 -97.5t-95 -67.5t-127 -25q-53 0 -93 16.5t-66.5 45t-40 66.5t-13.5 80q0 60 21 115t60.5 97t95 67t124.5 25q54 0 94 -16.5t66.5 -45t40 -66t13.5 -79.5zM251 96q45 0 79.5 24.5t53.5 72.5h-220v-6q0 -42 23.5 -66.5t63.5 -24.5z
M313 386q-44 0 -78.5 -24t-53.5 -72h220v5q0 42 -23.5 66.5t-64.5 24.5z" />
    <glyph glyph-name="uni0E3F" unicode="&#xe3f;" 
d="M414 678q75 -6 114 -42.5t39 -102.5q0 -36 -9.5 -65.5t-25 -52.5t-35 -39t-40.5 -26v-2q32 -18 51 -46t19 -73q0 -49 -11 -90t-40 -71t-79 -47.5t-127 -20.5l-23 -108h-77l23 108h-184l145 680h184l19 90h77zM386 232q0 26 -12.5 41t-41.5 19l-37 -175q30 3 48 13.5
t27.5 26.5t12.5 35.5t3 39.5zM170 116h48l38 178h-48zM232 404h47l34 160h-47zM432 507q0 26 -11 38.5t-31 16.5l-33 -156q45 8 60 33.5t15 67.5z" />
    <glyph glyph-name="Wgrave" unicode="&#x1e80;" horiz-adv-x="990" 
d="M1057 670l-323 -670h-165l-21 527h-1l-244 -527h-167l-38 670l2 10h145l-2 -530h2l250 530h162l24 -530h2l222 530h154zM484 896h148l29 -136l-2 -10h-124l-53 137z" />
    <glyph glyph-name="wgrave" unicode="&#x1e81;" horiz-adv-x="826" 
d="M847 472l-240 -472h-148l-33 347h-2l-180 -347h-147l-40 472l2 10h130l14 -334h2l171 334h146l29 -334h2l156 334h140zM345 713h137l50 -136l-2 -10h-114l-73 137z" />
    <glyph glyph-name="Wacute" unicode="&#x1e82;" horiz-adv-x="990" 
d="M1057 670l-323 -670h-165l-21 527h-1l-244 -527h-167l-38 670l2 10h145l-2 -530h2l250 530h162l24 -530h2l222 530h154zM770 887l-111 -137h-132l2 10l87 136h156z" />
    <glyph glyph-name="wacute" unicode="&#x1e83;" horiz-adv-x="826" 
d="M847 472l-240 -472h-148l-33 347h-2l-180 -347h-147l-40 472l2 10h130l14 -334h2l171 334h146l29 -334h2l156 334h140zM660 704l-131 -137h-122l2 10l107 136h146z" />
    <glyph glyph-name="Wdieresis" unicode="&#x1e84;" horiz-adv-x="990" 
d="M1057 670l-323 -670h-165l-21 527h-1l-244 -527h-167l-38 670l2 10h145l-2 -530h2l250 530h162l24 -530h2l222 530h154zM401 805q0 37 27 62.5t68 25.5q31 0 48 -17t17 -43q0 -37 -27 -62.5t-69 -25.5q-30 0 -47 17t-17 43zM659 805q0 37 27 62.5t68 25.5q31 0 48 -17
t17 -43q0 -37 -27 -62.5t-69 -25.5q-30 0 -47 17t-17 43z" />
    <glyph glyph-name="wdieresis" unicode="&#x1e85;" horiz-adv-x="826" 
d="M847 472l-240 -472h-148l-33 347h-2l-180 -347h-147l-40 472l2 10h130l14 -334h2l171 334h146l29 -334h2l156 334h140zM299 626q0 37 27 62.5t68 25.5q31 0 48 -17t17 -43q0 -37 -27 -62.5t-69 -25.5q-30 0 -47 17t-17 43zM516 626q0 37 27 62.5t68 25.5q31 0 48 -17
t17 -43q0 -37 -27 -62.5t-69 -25.5q-31 0 -47.5 17t-16.5 43z" />
    <glyph glyph-name="uni1E9E" unicode="&#x1e9e;" horiz-adv-x="692" 
d="M92 381q15 70 41.5 128t67.5 99t97.5 64t131.5 23q65 0 123.5 -21t102.5 -49l-20 -97l-134 -144v-2q68 -8 102.5 -47t34.5 -102q0 -56 -20.5 -102t-56.5 -78.5t-86 -50t-109 -17.5q-39 0 -71.5 4.5t-54.5 9.5l25 116q17 -5 40 -9.5t49 -4.5q69 0 102 33.5t33 87.5
q0 31 -18.5 52.5t-61.5 21.5h-73l19 88l149 170q-17 9 -41.5 15t-56.5 6q-66 0 -110.5 -47.5t-64.5 -138.5l-83 -389h-138z" />
    <glyph glyph-name="Ygrave" unicode="&#x1ef2;" horiz-adv-x="594" 
d="M228 680l87 -280h2l207 280h156l-2 -10l-314 -396l-58 -274h-139l59 274l-147 396l2 10h147zM283 896h148l29 -136l-2 -10h-124l-53 137z" />
    <glyph glyph-name="ygrave" unicode="&#x1ef3;" horiz-adv-x="524" 
d="M549 472l-327 -550q-40 -67 -92 -101t-114 -34q-24 0 -43 2.5t-36 6.5l20 107q17 -3 34 -4t25 -1q32 0 53 12t38 41l31 54l-90 467l2 10h136l42 -328h3l176 328h144zM196 713h137l50 -136l-2 -10h-114l-73 137z" />
    <glyph glyph-name="endash" unicode="&#x2013;" horiz-adv-x="576" 
d="M48 220l22 103h453l-22 -103h-453z" />
    <glyph glyph-name="emdash" unicode="&#x2014;" horiz-adv-x="905" 
d="M48 220l22 103h782l-22 -103h-782z" />
    <glyph glyph-name="quoteleft" unicode="&#x2018;" horiz-adv-x="283" 
d="M324 670l-128 -293h-134l2 10l162 293h101z" />
    <glyph glyph-name="quoteright" unicode="&#x2019;" horiz-adv-x="280" 
d="M69 387l128 293h135l-3 -10l-161 -293h-101z" />
    <glyph glyph-name="quotesinglbase" unicode="&#x201a;" horiz-adv-x="275" 
d="M-73 -151l128 293h135l-3 -10l-161 -293h-101z" />
    <glyph glyph-name="quotedblleft" unicode="&#x201c;" horiz-adv-x="489" 
d="M530 670l-128 -293h-134l2 10l162 293h101zM324 670l-128 -293h-134l2 10l162 293h101z" />
    <glyph glyph-name="quotedblright" unicode="&#x201d;" horiz-adv-x="488" 
d="M69 387l128 293h135l-3 -10l-161 -293h-101zM277 387l128 293h135l-3 -10l-161 -293h-101z" />
    <glyph glyph-name="quotedblbase" unicode="&#x201e;" horiz-adv-x="483" 
d="M-73 -151l128 293h135l-3 -10l-161 -293h-101zM135 -151l128 293h135l-3 -10l-161 -293h-101z" />
    <glyph glyph-name="dagger" unicode="&#x2020;" horiz-adv-x="457" 
d="M227 482l47 218h88l-46 -218h155l-18 -85h-156l-126 -595h-88l126 595h-157l18 85h157z" />
    <glyph glyph-name="daggerdbl" unicode="&#x2021;" horiz-adv-x="500" 
d="M252 482l46 218h88l-46 -218h154l-18 -85h-154l-62 -292h154l-18 -85h-155l-46 -218h-88l46 218h-157l18 85h157l62 292h-157l18 85h158z" />
    <glyph glyph-name="bullet" unicode="&#x2022;" horiz-adv-x="371" 
d="M71 267q0 29 10.5 54.5t29 44t44 29t55.5 10.5q45 0 68.5 -25t23.5 -65q0 -29 -10.5 -54.5t-29.5 -44t-44.5 -29t-55.5 -10.5q-44 0 -67.5 25t-23.5 65z" />
    <glyph glyph-name="ellipsis" unicode="&#x2026;" horiz-adv-x="764" 
d="M4 53q0 45 29.5 74.5t75.5 29.5q33 0 50.5 -18.5t17.5 -49.5q0 -45 -29.5 -74.5t-75.5 -29.5q-33 0 -50.5 18.5t-17.5 49.5zM253 53q0 45 29.5 74.5t75.5 29.5q33 0 50.5 -18.5t17.5 -49.5q0 -45 -29.5 -74.5t-75.5 -29.5q-33 0 -50.5 18.5t-17.5 49.5zM500 53
q0 45 29.5 74.5t75.5 29.5q33 0 50.5 -18.5t17.5 -49.5q0 -45 -29.5 -74.5t-75.5 -29.5q-33 0 -50.5 18.5t-17.5 49.5z" />
    <glyph glyph-name="perthousand" unicode="&#x2030;" horiz-adv-x="1154" 
d="M885 133q0 -60 38 -60q25 0 41.5 13.5t26.5 34.5t14 46.5t4 49.5q0 62 -42 62q-21 0 -36.5 -12.5t-25.5 -33.5t-15 -47t-5 -53zM1104 218q0 -49 -14 -90.5t-39.5 -71.5t-61 -47t-78.5 -17q-59 0 -90.5 40t-31.5 102q0 49 14 90.5t39.5 71.5t60.5 47t76 17
q62 0 93.5 -39.5t31.5 -102.5zM65 0l2 10l590 670h108l-2 -10l-590 -670h-108zM174 461q0 -60 38 -60q25 0 41.5 13.5t26.5 34.5t14 46.5t4 49.5q0 62 -42 62q-21 0 -36.5 -12.5t-25.5 -33.5t-15 -47t-5 -53zM393 546q0 -49 -14 -90.5t-39.5 -71.5t-61 -47t-78.5 -17
q-59 0 -90.5 40t-31.5 102q0 49 14 90.5t39.5 71.5t60.5 47t76 17q62 0 93.5 -39.5t31.5 -102.5zM534 133q0 -60 38 -60q25 0 41.5 13.5t26.5 34.5t14 46.5t4 49.5q0 62 -42 62q-21 0 -36.5 -12.5t-25.5 -33.5t-15 -47t-5 -53zM753 218q0 -49 -14 -90.5t-39.5 -71.5t-61 -47
t-78.5 -17q-59 0 -90.5 40t-31.5 102q0 49 14 90.5t39.5 71.5t60.5 47t76 17q62 0 93.5 -39.5t31.5 -102.5z" />
    <glyph glyph-name="guilsinglleft" unicode="&#x2039;" horiz-adv-x="318" 
d="M34 276l204 219l73 -56l-142 -177l63 -176l-89 -41l-112 219z" />
    <glyph glyph-name="guilsinglright" unicode="&#x203a;" horiz-adv-x="318" 
d="M279 264l-204 -219l-73 56l142 177l-63 176l89 41l112 -219z" />
    <glyph glyph-name="fraction" unicode="&#x2044;" horiz-adv-x="157" 
d="M-259 0l2 10l590 670h108l-2 -10l-590 -670h-108z" />
    <glyph glyph-name="uni2070" unicode="&#x2070;" horiz-adv-x="360" 
d="M191 581q0 -60 38 -60q25 0 41.5 13.5t26.5 34.5t14 46.5t4 49.5q0 62 -42 62q-21 0 -36.5 -12.5t-25.5 -33.5t-15 -47t-5 -53zM410 666q0 -49 -14 -90.5t-39.5 -71.5t-61 -47t-78.5 -17q-59 0 -90.5 40t-31.5 102q0 49 14 90.5t39.5 71.5t60.5 47t76 17q62 0 93.5 -39.5
t31.5 -102.5z" />
    <glyph glyph-name="uni2074" unicode="&#x2074;" horiz-adv-x="336" 
d="M274 692h91l-20 -93h41l-16 -76h-41l-16 -75h-90l16 75h-169l14 68l133 209h95l-121 -200v-1h64z" />
    <glyph glyph-name="uni2075" unicode="&#x2075;" horiz-adv-x="311" 
d="M110 608l58 192h213l-16 -77h-133l-15 -45h12q55 0 86.5 -23.5t31.5 -71.5q0 -67 -45.5 -105t-131.5 -38q-7 0 -20 0.5t-28.5 2t-33 5t-32.5 9.5l33 81q21 -10 45 -14t49 -4q35 0 49.5 15t14.5 35q0 14 -11 22t-39 8q-20 0 -39.5 -1.5t-38.5 -3.5z" />
    <glyph glyph-name="uni2076" unicode="&#x2076;" horiz-adv-x="330" 
d="M363 795l-117 -119l1 -2q8 3 20 5.5t26 2.5q36 0 59.5 -24.5t23.5 -69.5q0 -33 -13 -60.5t-35.5 -47t-53 -30t-65.5 -10.5t-59 9.5t-39 25t-22 35t-7 40.5q0 35 13.5 62t44.5 60l119 128h106zM278 578q0 35 -38 35q-29 0 -45.5 -15.5t-16.5 -42.5q0 -36 42 -36
q29 0 43.5 15.5t14.5 43.5z" />
    <glyph glyph-name="uni2077" unicode="&#x2077;" horiz-adv-x="300" 
d="M74 453l202 269v1h-164l16 77h268l-15 -71l-207 -281h-101z" />
    <glyph glyph-name="uni2078" unicode="&#x2078;" horiz-adv-x="340" 
d="M220 515q34 0 48 15.5t14 34.5q0 14 -11 22.5t-34 8.5q-38 0 -50.5 -15.5t-12.5 -32.5q0 -14 11 -23.5t35 -9.5zM277 808q55 0 85.5 -24t30.5 -61q0 -20 -6.5 -35t-17 -26t-23 -19t-25.5 -13v-1q23 -8 37.5 -25t14.5 -44q0 -28 -13 -50t-35 -37.5t-52 -24t-64 -8.5
q-63 0 -96.5 25t-33.5 66q0 43 26.5 68t63.5 36v1q-16 7 -28 22t-12 39q0 25 11.5 45.5t31.5 35t47 22.5t58 8zM252 667q27 0 39.5 13t12.5 30q0 12 -8.5 20.5t-28.5 8.5q-27 0 -38.5 -13.5t-11.5 -30.5q0 -12 8 -20t27 -8z" />
    <glyph glyph-name="uni2079" unicode="&#x2079;" horiz-adv-x="330" 
d="M112 453l117 119l-1 2q-8 -3 -20 -5.5t-26 -2.5q-36 0 -59.5 24.5t-23.5 69.5q0 33 13 60t35.5 46.5t53 30.5t65.5 11t59 -9.5t39 -25t22 -35t7 -40.5q0 -35 -13.5 -62t-44.5 -60l-119 -128h-106zM197 670q0 -35 38 -35q29 0 45.5 15.5t16.5 42.5q0 36 -42 36
q-29 0 -43.5 -15.5t-14.5 -43.5z" />
    <glyph glyph-name="uni207A" unicode="&#x207a;" horiz-adv-x="261" 
d="M249 666h67l-17 -77h-66l-14 -67h-77l15 67h-65l16 77h65l14 67h77z" />
    <glyph glyph-name="uni207B" unicode="&#x207b;" horiz-adv-x="283" 
d="M103 589l16 77h208l-17 -77h-207z" />
    <glyph glyph-name="uni207D" unicode="&#x207d;" horiz-adv-x="186" 
d="M89 556q0 55 14.5 102.5t36.5 87t47.5 72.5t48.5 59l49 -39q-25 -38 -45.5 -71t-35.5 -67t-23 -72t-8 -85q0 -38 4.5 -81t12.5 -74l-62 -18q-14 31 -26.5 79.5t-12.5 106.5z" />
    <glyph glyph-name="uni207E" unicode="&#x207e;" horiz-adv-x="185" 
d="M241 691q0 -55 -14.5 -102.5t-36.5 -87t-47.5 -72.5t-47.5 -59l-50 38q25 37 45.5 70.5t35.5 68t23.5 72.5t8.5 85q0 38 -5 80.5t-12 73.5l61 19q14 -31 26.5 -79.5t12.5 -106.5z" />
    <glyph glyph-name="uni2080" unicode="&#x2080;" horiz-adv-x="360" 
d="M71 14q0 -60 38 -60q25 0 41.5 13.5t26.5 34.5t14 46.5t4 49.5q0 62 -42 62q-21 0 -36.5 -12.5t-25.5 -33.5t-15 -47t-5 -53zM290 99q0 -49 -14 -90.5t-39.5 -71.5t-61 -47t-78.5 -17q-59 0 -90.5 40t-31.5 102q0 49 14 90.5t39.5 71.5t60.5 47t76 17q62 0 93.5 -39.5
t31.5 -102.5z" />
    <glyph glyph-name="uni2081" unicode="&#x2081;" horiz-adv-x="251" 
d="M-25 87l18 88l140 58h70l-75 -352h-92l54 250h-2l-104 -44h-9z" />
    <glyph glyph-name="uni2082" unicode="&#x2082;" horiz-adv-x="325" 
d="M95 -43h134l-16 -76h-271l15 70l169 117q26 17 31.5 32t5.5 27q0 14 -8.5 24.5t-25.5 10.5q-24 0 -44 -12.5t-40 -29.5l-45 60q10 9 24.5 20t33 20t40.5 15t48 6q49 0 83 -25.5t34 -71.5q0 -47 -25 -77t-64 -56l-79 -52v-2z" />
    <glyph glyph-name="uni2083" unicode="&#x2083;" horiz-adv-x="321" 
d="M37 95h68q28 0 39.5 10t11.5 30q0 11 -9 19t-33 8q-22 0 -47 -4.5t-45 -12.5l-16 73q25 9 55.5 16t66.5 7q60 0 94 -24t34 -66q0 -21 -7 -37t-17.5 -27.5t-24 -18.5t-25.5 -10v-1q23 -8 36 -25t13 -41q0 -26 -9 -48t-29.5 -37.5t-54.5 -24t-83 -8.5q-34 0 -63 7.5
t-50 20.5l33 74q16 -9 40.5 -15.5t50.5 -6.5q38 0 54.5 11t16.5 33q0 13 -11.5 17t-36.5 4h-69z" />
    <glyph glyph-name="uni2084" unicode="&#x2084;" horiz-adv-x="336" 
d="M154 125h91l-20 -93h41l-16 -76h-41l-16 -75h-90l16 75h-169l14 68l133 209h95l-121 -200v-1h64z" />
    <glyph glyph-name="uni2085" unicode="&#x2085;" horiz-adv-x="310" 
d="M-10 41l58 192h213l-16 -77h-133l-15 -45h12q55 0 86.5 -23.5t31.5 -71.5q0 -67 -45.5 -105t-131.5 -38q-7 0 -20 0.5t-28.5 2t-33 5t-32.5 9.5l33 81q21 -10 45 -14t49 -4q35 0 49.5 15t14.5 35q0 14 -11 22t-39 8q-20 0 -39.5 -1.5t-38.5 -3.5z" />
    <glyph glyph-name="uni2086" unicode="&#x2086;" horiz-adv-x="330" 
d="M244 228l-117 -119l1 -2q8 3 20 5.5t26 2.5q36 0 59.5 -24.5t23.5 -69.5q0 -33 -13 -60.5t-35.5 -47t-53 -30t-65.5 -10.5t-59 9.5t-39 25t-22 35t-7 40.5q0 35 13.5 62t44.5 60l119 128h106zM159 11q0 35 -38 35q-29 0 -45.5 -15.5t-16.5 -42.5q0 -36 42 -36
q29 0 43.5 15.5t14.5 43.5z" />
    <glyph glyph-name="uni2087" unicode="&#x2087;" horiz-adv-x="301" 
d="M-45 -114l202 269v1h-164l16 77h268l-15 -71l-207 -281h-101z" />
    <glyph glyph-name="uni2088" unicode="&#x2088;" horiz-adv-x="341" 
d="M101 -52q34 0 48 15.5t14 34.5q0 14 -11 22.5t-34 8.5q-38 0 -50.5 -15.5t-12.5 -32.5q0 -14 11 -23.5t35 -9.5zM158 241q55 0 85.5 -24t30.5 -61q0 -20 -6.5 -35t-17 -26t-23 -19t-25.5 -13v-1q23 -8 37.5 -25t14.5 -44q0 -28 -13 -50t-35 -37.5t-52 -24t-64 -8.5
q-63 0 -96.5 25t-33.5 66q0 43 26.5 68t63.5 36v1q-16 7 -28 22t-12 39q0 25 11.5 45.5t31.5 35t47 22.5t58 8zM133 100q27 0 39.5 13t12.5 30q0 12 -8.5 20.5t-28.5 8.5q-27 0 -38.5 -13.5t-11.5 -30.5q0 -12 8 -20t27 -8z" />
    <glyph glyph-name="uni2089" unicode="&#x2089;" horiz-adv-x="330" 
d="M-8 -114l117 119l-1 2q-8 -3 -20 -5.5t-26 -2.5q-36 0 -59.5 24.5t-23.5 69.5q0 33 13 60t35.5 46.5t53 30.5t65.5 11t59 -9.5t39 -25t22 -35t7 -40.5q0 -35 -13.5 -62t-44.5 -60l-119 -128h-106zM77 103q0 -35 38 -35q29 0 45.5 15.5t16.5 42.5q0 36 -42 36
q-29 0 -43.5 -15.5t-14.5 -43.5z" />
    <glyph glyph-name="uni208D" unicode="&#x208d;" horiz-adv-x="186" 
d="M-30 -11q0 55 14.5 102.5t36.5 87t47.5 72.5t48.5 59l49 -39q-25 -38 -45.5 -71t-35.5 -67t-23 -72t-8 -85q0 -38 4.5 -81t12.5 -74l-62 -18q-14 31 -26.5 79.5t-12.5 106.5z" />
    <glyph glyph-name="uni208E" unicode="&#x208e;" horiz-adv-x="186" 
d="M122 124q0 -55 -14.5 -102.5t-36.5 -87t-47.5 -72.5t-47.5 -59l-50 38q25 37 45.5 70.5t35.5 68t23.5 72.5t8.5 85q0 38 -5 80.5t-12 73.5l61 19q14 -31 26.5 -79.5t12.5 -106.5z" />
    <glyph glyph-name="colonmonetary" unicode="&#x20a1;" 
d="M575 675q14 -5 28 -11t28 -13l-60 -106q-11 5 -21 9.5t-21 8.5l-181 -459q33 2 65 10t72 25l13 -114q-50 -22 -100.5 -31t-95.5 -9h-2l-37 -93h-68l40 99q-12 2 -22.5 5t-21.5 6l-43 -110h-68l55 139q-46 33 -69 94.5t-23 134.5q0 84 24 157.5t69.5 130.5t111.5 94.5
t150 48.5l32 79h67l-31 -75q12 -1 23.5 -2t23.5 -3l31 80h68zM242 129q10 -6 19.5 -11.5t20.5 -8.5l184 465q-10 1 -20.5 1.5t-26.5 0.5zM190 271q0 -21 2.5 -44t7.5 -37l144 368q-38 -18 -66.5 -48t-48 -68t-29.5 -81.5t-10 -89.5z" />
    <glyph glyph-name="lira" unicode="&#x20a4;" 
d="M274 207q-11 -27 -28.5 -49.5t-38.5 -39.5v-2h286l-24 -116h-449l20 96q45 22 64 46t25 55l2 10h-77l22 103h66q1 15 2.5 30.5t2.5 31.5h-58l22 103h52q0 4 2 12q25 108 87.5 158t179.5 50q47 0 94.5 -12.5t85.5 -32.5l-50 -110q-32 16 -68 26t-78 10q-44 0 -69 -19
t-37 -70q-1 -3 -1 -5.5t-2 -6.5h183l-22 -103h-173l-4 -62h164l-22 -103h-159z" />
    <glyph glyph-name="uni20A6" unicode="&#x20a6;" 
d="M548 218l-47 -218h-195l-37 218h-128l-46 -218h-126l46 218h-47l19 89h47l15 69h-47l19 89h46l46 215h197l34 -215h130l45 215h127l-46 -215h48l-19 -89h-48l-14 -69h47l-19 -89h-47zM369 307h74l13 69h-97zM171 376l-12 -69h95l-12 69h-71zM407 101l20 117h-42l19 -117
h3zM205 579l-19 -114h41l-19 114h-3z" />
    <glyph glyph-name="uni20A8" unicode="&#x20a8;" 
d="M464 405q-26 -69 -78.5 -111t-142.5 -50l182 -228l-3 -16h-155l-202 267l17 80h110q102 0 130 58h-242l51 101h213q-3 58 -106 58h-125l55 116h458l-51 -101h-140v-2q20 -12 30 -31.5t12 -39.5h112l-51 -101h-74z" />
    <glyph glyph-name="uni20AA" unicode="&#x20aa;" horiz-adv-x="717" 
d="M363 194l49 227q9 42 9.5 70t-9 44t-30.5 22.5t-54 6.5h-92l-122 -564h-137l147 680h216q68 0 111 -15.5t65 -47.5t24 -81.5t-13 -117.5l-49 -224h-115zM765 681l-90 -419q-15 -68 -36.5 -117.5t-56 -81.5t-84.5 -47.5t-122 -15.5h-217l104 486h118l-79 -371h92
q34 0 57 6.5t39 23t26.5 44.5t19.5 70l92 422h137z" />
    <glyph glyph-name="dong" unicode="&#x20ab;" 
d="M559 568l-93 -438h-107l-7 27h-2q-25 -15 -60.5 -27t-73.5 -12q-41 0 -72 13.5t-52 36t-31.5 53t-10.5 65.5q0 49 16.5 94t47 79.5t74 55t97.5 20.5q45 0 76 -10t48 -21h2l13 64h-93l18 88h94l10 44h134l-9 -44h42l-18 -88h-43zM391 412q-33 14 -76 14q-64 0 -94.5 -34.5
t-30.5 -90.5q0 -36 20 -55.5t62 -19.5q23 0 44.5 6t38.5 14zM19 0l19 88h418l-19 -88h-418z" />
    <glyph glyph-name="Euro" unicode="&#x20ac;" 
d="M228 204q11 -49 41.5 -74.5t76.5 -25.5q38 0 71.5 7.5t78.5 27.5l23 -110q-97 -44 -188 -44q-115 0 -178.5 58t-68.5 161h-80l52 101h33q3 20 6 35.5t9 34.5h-64l52 101h50q49 103 127 161t193 58q91 0 170 -44l-51 -110q-36 20 -66.5 27.5t-68.5 7.5q-45 0 -88 -26
t-73 -74h257l-50 -101h-253q-6 -19 -9.5 -36t-5.5 -34h239l-50 -101h-185z" />
    <glyph glyph-name="uni20AD" unicode="&#x20ad;" 
d="M394 283l118 -273l-2 -10h-152l-106 283h-31l-60 -283h-139l60 283h-51l22 103h51l63 294h138l-62 -294h23l217 294h161l-2 -10l-229 -284h145l-22 -103h-142z" />
    <glyph glyph-name="uni20AE" unicode="&#x20ae;" 
d="M449 237l-102 -34l-44 -203h-138l33 156l-101 -33l19 89l101 33l13 61l-101 -33l19 89l101 33l36 169h-187l24 116h514l-25 -116h-188l-26 -122l103 34l-19 -89l-103 -34l-12 -61l102 34z" />
    <glyph glyph-name="uni20B1" unicode="&#x20b1;" 
d="M506 305q-40 -73 -101 -114.5t-152 -41.5h-56l-31 -149h-139l65 305h-47l19 86h46l11 49h-47l18 86h47l33 154h174q92 0 144.5 -41t61.5 -113h64l-19 -86h-52q-2 -11 -5 -26t-5 -23h52l-18 -86h-63zM399 391q5 11 7 23.5t4 25.5h-155l-10 -49h154zM263 263q28 0 53 11
t39 33h-128l-9 -44h45zM273 524h130q-7 21 -27 31.5t-48 10.5h-46z" />
    <glyph glyph-name="uni20B2" unicode="&#x20b2;" 
d="M434 695q54 -2 102 -18.5t73 -34.5l-59 -104q-27 13 -63.5 25t-77.5 13l-100 -472q14 1 34 5.5t36 12.5l28 133l-35 11l21 99h166l-69 -325q-40 -23 -95 -37t-111 -17l-20 -94h-82l21 98q-39 9 -68.5 31.5t-49 56t-29.5 76.5t-10 93q0 75 20 148.5t59 134.5t96 103.5
t131 54.5l17 82h81zM191 242q0 -46 9.5 -81t29.5 -47l95 448q-36 -20 -61.5 -58t-41.5 -83.5t-23.5 -92.5t-7.5 -86z" />
    <glyph glyph-name="uni20B4" unicode="&#x20b4;" 
d="M200 207q-5 -8 -7 -20.5t-2 -20.5q0 -32 19.5 -48t61.5 -16q24 0 50 5t50 12.5t45 17t37 19.5l28 -106q-21 -12 -49.5 -23.5t-58.5 -21t-60.5 -15t-56.5 -5.5q-48 0 -85.5 12.5t-63.5 34.5t-39.5 52t-13.5 66q0 14 3.5 31t7.5 26h-34l21 98h103q17 11 31.5 22.5
t27.5 19.5l46 30h-193l21 98h323q3 5 6 15t3 26q0 29 -18.5 45.5t-58.5 16.5q-33 0 -74 -11.5t-78 -29.5l-29 109q53 24 107 36.5t89 12.5q48 0 85 -12.5t62 -34t38 -50.5t13 -63q0 -17 -3.5 -34t-8.5 -26h34l-20 -98h-104q-14 -10 -31 -21.5t-33 -21.5l-47 -29h199l-21 -98
h-322z" />
    <glyph glyph-name="uni20B5" unicode="&#x20b5;" 
d="M469 695q41 -2 77 -13.5t73 -31.5l-47 -109q-35 17 -64.5 25t-63.5 10l-101 -472q36 2 68.5 10t74.5 25l25 -113q-46 -20 -98.5 -29.5t-94.5 -11.5l-20 -93h-87l21 99q-95 24 -142 93.5t-47 173.5q0 82 23 155.5t66 131.5t105.5 96t142.5 48l18 81h87zM190 272
q0 -55 17 -96t52 -58l94 444q-38 -16 -68.5 -45t-51.5 -67.5t-32 -84t-11 -93.5z" />
    <glyph glyph-name="uni2113" unicode="&#x2113;" horiz-adv-x="387" 
d="M303 26q-29 -21 -61 -31t-64 -10q-26 0 -47 8t-34.5 25t-17.5 43.5t4 63.5l21 92l-12 -9t-17.5 -12.5t-19.5 -13.5t-17 -12l-25 77q14 9 31 21t33 24t29.5 23t20.5 18l46 215q19 88 58 127.5t96 39.5q42 0 69.5 -27.5t27.5 -73.5q0 -84 -57 -166t-163 -167l-31 -144
q-6 -29 2.5 -43t28.5 -14q18 0 38 8t40 22zM329 587q0 19 -7 26.5t-16 7.5q-14 0 -24.5 -11.5t-17.5 -43.5l-35 -167q22 20 40.5 45t32 50.5t20.5 50t7 42.5z" />
    <glyph glyph-name="uni2116" unicode="&#x2116;" horiz-adv-x="1080" 
d="M485 206l101 474h139l-145 -680h-147l-180 474h-3l-100 -474h-139l145 680h146l180 -474h3zM850 480q0 -32 15.5 -44t37.5 -12q36 0 61.5 22.5t25.5 78.5q0 31 -15.5 43t-38.5 12q-17 0 -32.5 -5t-27.5 -17t-19 -31t-7 -47zM1090 529q0 -38 -14.5 -72t-40.5 -59.5
t-62.5 -41t-81.5 -15.5q-35 0 -61.5 11t-44.5 29t-27 42.5t-9 51.5q0 38 15 72t41.5 60t63 41t80.5 15q35 0 61.5 -11t44 -29t26.5 -42.5t9 -51.5zM715 196l18 87h279l-19 -87h-278z" />
    <glyph glyph-name="uni2117" unicode="&#x2117;" horiz-adv-x="796" 
d="M252 153l79 374h142q31 0 53 -8.5t35.5 -22.5t20 -32.5t6.5 -39.5q0 -30 -8.5 -57.5t-26.5 -49.5t-47.5 -35t-71.5 -13h-67l-25 -116h-90zM383 343h48q22 0 34.5 7.5t18.5 19t7 24t1 22.5q0 37 -38 37h-48zM54 279q0 87 35 162.5t93.5 132t134.5 89t159 32.5
q66 0 119.5 -22.5t91.5 -62.5t59 -93.5t21 -115.5q0 -87 -35 -162.5t-93.5 -132t-135 -89t-158.5 -32.5q-66 0 -119.5 22.5t-91.5 62.5t-59 93.5t-21 115.5zM126 288q0 -51 16.5 -94t46.5 -74.5t72.5 -49t94.5 -17.5q69 0 130.5 27.5t108 74t73.5 108.5t27 132
q0 50 -15.5 92.5t-45 73.5t-71 48.5t-92.5 17.5q-69 0 -131.5 -27t-110 -73t-75.5 -108t-28 -131z" />
    <glyph glyph-name="trademark" unicode="&#x2122;" horiz-adv-x="727" 
d="M384 700l-13 -64h-81l-45 -216h-80l46 216h-81l14 64h240zM555 557h1l90 143h100l-59 -280h-80l36 172h-1l-67 -115h-66l-20 115h-1l-36 -172h-78l59 280h84z" />
    <glyph glyph-name="Omega" unicode="&#x2126;" horiz-adv-x="768" 
d="M22 116h149q-18 12 -35.5 31t-31 45.5t-22 58.5t-8.5 69q0 67 25 134.5t74 120.5t121.5 86.5t167.5 33.5q72 0 124 -22t85 -58t49 -82t16 -94q0 -61 -16 -112t-42 -91.5t-60.5 -70.5t-71.5 -49h129l-25 -116h-284l21 102q45 26 82 57t63.5 69.5t40.5 85.5t14 106
q0 31 -7.5 59.5t-24 50t-43.5 34t-65 12.5q-62 0 -106.5 -25.5t-72.5 -65.5t-41 -90t-13 -99q0 -70 24.5 -116.5t64.5 -77.5l-21 -102h-285z" />
    <glyph glyph-name="estimated" unicode="&#x212e;" horiz-adv-x="662" 
d="M583 106q-47 -65 -104.5 -93t-137.5 -28q-65 0 -117 24t-89.5 65.5t-57.5 97t-20 118.5q0 64 20 119t57.5 95.5t89.5 64t117 23.5q63 0 115 -21.5t89.5 -60t59 -92.5t23.5 -118l-7 -10h-445v-201q32 -31 74.5 -46.5t90.5 -15.5q63 0 115 24t90 82zM507 491
q-35 33 -77.5 48t-88.5 15q-48 0 -90.5 -15t-74.5 -48v-161h331v161z" />
    <glyph glyph-name="onethird" unicode="&#x2153;" horiz-adv-x="763" 
d="M19 0l2 10l590 670h108l-2 -10l-590 -670h-108zM85 534l18 88l140 58h70l-75 -352h-92l54 250h-2l-104 -44h-9zM496 214h68q28 0 39.5 10t11.5 30q0 11 -9 19t-33 8q-22 0 -47 -4.5t-45 -12.5l-16 73q25 9 55.5 16t66.5 7q60 0 94 -24t34 -66q0 -21 -7 -37t-17.5 -27.5
t-24 -18.5t-25.5 -10v-1q23 -8 36 -25t13 -41q0 -26 -9 -48t-29.5 -37.5t-54.5 -24t-83 -8.5q-34 0 -63 7.5t-50 20.5l33 74q16 -9 40.5 -15.5t50.5 -6.5q38 0 54.5 11t16.5 33q0 13 -11.5 17t-36.5 4h-69z" />
    <glyph glyph-name="twothirds" unicode="&#x2154;" horiz-adv-x="812" 
d="M69 0l2 10l590 670h108l-2 -10l-590 -670h-108zM204 402h134l-16 -76h-271l15 70l169 117q26 17 31.5 32t5.5 27q0 14 -8.5 24.5t-25.5 10.5q-24 0 -44 -12.5t-40 -29.5l-45 60q10 9 24.5 20t33 20t40.5 15t48 6q49 0 83 -25.5t34 -71.5q0 -47 -25 -77t-64 -56l-79 -52
v-2zM545 214h68q28 0 39.5 10t11.5 30q0 11 -9 19t-33 8q-22 0 -47 -4.5t-45 -12.5l-16 73q25 9 55.5 16t66.5 7q60 0 94 -24t34 -66q0 -21 -7 -37t-17.5 -27.5t-24 -18.5t-25.5 -10v-1q23 -8 36 -25t13 -41q0 -26 -9 -48t-29.5 -37.5t-54.5 -24t-83 -8.5q-34 0 -63 7.5
t-50 20.5l33 74q16 -9 40.5 -15.5t50.5 -6.5q38 0 54.5 11t16.5 33q0 13 -11.5 17t-36.5 4h-69z" />
    <glyph glyph-name="oneeighth" unicode="&#x215b;" horiz-adv-x="763" 
d="M19 0l2 10l590 670h108l-2 -10l-590 -670h-108zM85 534l18 88l140 58h70l-75 -352h-92l54 250h-2l-104 -44h-9zM540 67q34 0 48 15.5t14 34.5q0 14 -11 22.5t-34 8.5q-38 0 -50.5 -15.5t-12.5 -32.5q0 -14 11 -23.5t35 -9.5zM597 360q55 0 85.5 -24t30.5 -61
q0 -20 -6.5 -35t-17 -26t-23 -19t-25.5 -13v-1q23 -8 37.5 -25t14.5 -44q0 -28 -13 -50t-35 -37.5t-52 -24t-64 -8.5q-63 0 -96.5 25t-33.5 66q0 43 26.5 68t63.5 36v1q-16 7 -28 22t-12 39q0 25 11.5 45.5t31.5 35t47 22.5t58 8zM572 219q27 0 39.5 13t12.5 30
q0 12 -8.5 20.5t-28.5 8.5q-27 0 -38.5 -13.5t-11.5 -30.5q0 -12 8 -20t27 -8z" />
    <glyph glyph-name="threeeighths" unicode="&#x215c;" horiz-adv-x="799" 
d="M56 0l2 10l590 670h108l-2 -10l-590 -670h-108zM576 67q34 0 48 15.5t14 34.5q0 14 -11 22.5t-34 8.5q-38 0 -50.5 -15.5t-12.5 -32.5q0 -14 11 -23.5t35 -9.5zM633 360q55 0 85.5 -24t30.5 -61q0 -20 -6.5 -35t-17 -26t-23 -19t-25.5 -13v-1q23 -8 37.5 -25t14.5 -44
q0 -28 -13 -50t-35 -37.5t-52 -24t-64 -8.5q-63 0 -96.5 25t-33.5 66q0 43 26.5 68t63.5 36v1q-16 7 -28 22t-12 39q0 25 11.5 45.5t31.5 35t47 22.5t58 8zM608 219q27 0 39.5 13t12.5 30q0 12 -8.5 20.5t-28.5 8.5q-27 0 -38.5 -13.5t-11.5 -30.5q0 -12 8 -20t27 -8z
M146 539h68q28 0 39.5 10t11.5 30q0 11 -9 19t-33 8q-22 0 -47 -4.5t-45 -12.5l-16 73q25 9 55.5 16t66.5 7q60 0 94 -24t34 -66q0 -21 -7 -37t-17.5 -27.5t-24 -18.5t-25.5 -10v-1q23 -8 36 -25t13 -41q0 -26 -9 -48t-29.5 -37.5t-54.5 -24t-83 -8.5q-34 0 -63 7.5
t-50 20.5l33 74q16 -9 40.5 -15.5t50.5 -6.5q38 0 54.5 11t16.5 33q0 13 -11.5 17t-36.5 4h-69z" />
    <glyph glyph-name="fiveeighths" unicode="&#x215d;" horiz-adv-x="785" 
d="M41 0l2 10l590 670h108l-2 -10l-590 -670h-108zM101 488l58 192h213l-16 -77h-133l-15 -45h12q55 0 86.5 -23.5t31.5 -71.5q0 -67 -45.5 -105t-131.5 -38q-7 0 -20 0.5t-28.5 2t-33 5t-32.5 9.5l33 81q21 -10 45 -14t49 -4q35 0 49.5 15t14.5 35q0 14 -11 22t-39 8
q-20 0 -39.5 -1.5t-38.5 -3.5zM562 67q34 0 48 15.5t14 34.5q0 14 -11 22.5t-34 8.5q-38 0 -50.5 -15.5t-12.5 -32.5q0 -14 11 -23.5t35 -9.5zM619 360q55 0 85.5 -24t30.5 -61q0 -20 -6.5 -35t-17 -26t-23 -19t-25.5 -13v-1q23 -8 37.5 -25t14.5 -44q0 -28 -13 -50
t-35 -37.5t-52 -24t-64 -8.5q-63 0 -96.5 25t-33.5 66q0 43 26.5 68t63.5 36v1q-16 7 -28 22t-12 39q0 25 11.5 45.5t31.5 35t47 22.5t58 8zM594 219q27 0 39.5 13t12.5 30q0 12 -8.5 20.5t-28.5 8.5q-27 0 -38.5 -13.5t-11.5 -30.5q0 -12 8 -20t27 -8z" />
    <glyph glyph-name="seveneighths" unicode="&#x215e;" horiz-adv-x="747" 
d="M4 0l2 10l590 670h108l-2 -10l-590 -670h-108zM524 67q34 0 48 15.5t14 34.5q0 14 -11 22.5t-34 8.5q-38 0 -50.5 -15.5t-12.5 -32.5q0 -14 11 -23.5t35 -9.5zM581 360q55 0 85.5 -24t30.5 -61q0 -20 -6.5 -35t-17 -26t-23 -19t-25.5 -13v-1q23 -8 37.5 -25t14.5 -44
q0 -28 -13 -50t-35 -37.5t-52 -24t-64 -8.5q-63 0 -96.5 25t-33.5 66q0 43 26.5 68t63.5 36v1q-16 7 -28 22t-12 39q0 25 11.5 45.5t31.5 35t47 22.5t58 8zM556 219q27 0 39.5 13t12.5 30q0 12 -8.5 20.5t-28.5 8.5q-27 0 -38.5 -13.5t-11.5 -30.5q0 -12 8 -20t27 -8z
M72 333l202 269v1h-164l16 77h268l-15 -71l-207 -281h-101z" />
    <glyph glyph-name="arrowleft" unicode="&#x2190;" horiz-adv-x="892" 
d="M420 719l89 -89l-248 -232h631v-118h-631l248 -232l-89 -89l-380 380z" />
    <glyph glyph-name="arrowup" unicode="&#x2191;" horiz-adv-x="892" 
d="M845 383l-89 -89l-232 249v-631h-119l1 631l-232 -249l-89 89l380 380z" />
    <glyph glyph-name="arrowright" unicode="&#x2192;" horiz-adv-x="892" 
d="M512 -41l-89 89l248 232h-631v118h631l-248 232l89 89l380 -380z" />
    <glyph glyph-name="arrowdown" unicode="&#x2193;" horiz-adv-x="892" 
d="M85 292l89 89l232 -249v631h119l-1 -631l232 249l89 -89l-380 -380z" />
    <glyph glyph-name="uni2196" unicode="&#x2196;" horiz-adv-x="888" 
d="M697 662v-126l-339 11l446 -445l-85 -85l-446 447l12 -340h-126v538h538z" />
    <glyph glyph-name="uni2197" unicode="&#x2197;" horiz-adv-x="888" 
d="M804 124h-126l11 339l-445 -446l-85 85l447 446l-340 -11v125h538v-538z" />
    <glyph glyph-name="uni2198" unicode="&#x2198;" horiz-adv-x="888" 
d="M266 18v126l339 -11l-446 445l85 85l446 -447l-12 340h126v-538h-538z" />
    <glyph glyph-name="uni2199" unicode="&#x2199;" horiz-adv-x="888" 
d="M159 556h126l-11 -339l445 446l85 -85l-447 -446l340 12v-126h-538v538z" />
    <glyph glyph-name="partialdiff" unicode="&#x2202;" horiz-adv-x="607" 
d="M267 700q78 0 135.5 -21.5t95.5 -60.5t57 -93t19 -118q0 -87 -25 -163.5t-71 -134t-111 -91t-145 -33.5q-50 0 -88 16t-63.5 44t-38.5 64.5t-13 77.5q0 68 22.5 122.5t60 92.5t85 58.5t98.5 20.5q33 0 59 -8t46 -19.5t33 -24.5t21 -24l2 2q5 84 -51 128.5t-171 46.5z
M416 292q-8 12 -18 25t-23.5 23t-31 16.5t-38.5 6.5q-32 0 -58 -13.5t-44 -36t-27.5 -51.5t-9.5 -61q0 -42 21 -70t62 -28q29 0 56.5 14.5t50 40t38.5 60t22 74.5z" />
    <glyph glyph-name="Delta" unicode="&#x2206;" horiz-adv-x="703" 
d="M618 0h-648l1 5l386 675h163l99 -675zM410 538l-230 -422h286l-53 422h-3z" />
    <glyph glyph-name="product" unicode="&#x220f;" horiz-adv-x="698" 
d="M549 564h-278l-163 -762h-139l188 878h555l-188 -878h-139z" />
    <glyph glyph-name="summation" unicode="&#x2211;" horiz-adv-x="599" 
d="M-48 -95l342 343l-184 328l23 104h500l-24 -116h-354l186 -329l-321 -317h366l-25 -116h-531z" />
    <glyph glyph-name="minus" unicode="&#x2212;" 
d="M554 323l-21 -103h-502l22 103h501z" />
    <glyph glyph-name="uni2215" unicode="&#x2215;" horiz-adv-x="560" 
d="M-58 0l2 10l590 670h108l-2 -10l-590 -670h-108z" />
    <glyph glyph-name="uni2219" unicode="&#x2219;" horiz-adv-x="276" 
d="M53 273q0 45 29.5 74.5t75.5 29.5q33 0 50.5 -18.5t17.5 -49.5q0 -45 -29.5 -74.5t-75.5 -29.5q-33 0 -50.5 18.5t-17.5 49.5z" />
    <glyph glyph-name="radical" unicode="&#x221a;" horiz-adv-x="632" 
d="M-7 222h122l58 -280h2l411 738h128l-493 -878h-140l-90 410z" />
    <glyph glyph-name="infinity" unicode="&#x221e;" horiz-adv-x="732" 
d="M355 201q-31 -26 -54 -42t-43 -25t-39.5 -12.5t-41.5 -3.5q-27 0 -51.5 8.5t-43 24.5t-29 39t-10.5 53q0 39 14.5 72t39 57t57.5 37.5t70 13.5q24 0 44 -4.5t37.5 -15t34 -26.5t34.5 -38q32 27 55 43.5t42.5 25.5t37 12t39.5 3q27 0 52 -8.5t43.5 -24t29.5 -39t11 -53.5
q0 -38 -15 -71t-40 -57t-56.5 -38t-65.5 -14q-53 0 -87.5 19.5t-64.5 63.5zM500 211q30 0 52 21.5t22 49.5q0 20 -11.5 34t-34.5 14q-19 0 -39.5 -13.5t-55.5 -46.5q21 -32 34 -45.5t33 -13.5zM200 211q17 0 38.5 14t55.5 46q-20 32 -33 45.5t-33 13.5q-32 0 -53.5 -22
t-21.5 -51q0 -20 12 -33t35 -13z" />
    <glyph glyph-name="integral" unicode="&#x222b;" horiz-adv-x="504" 
d="M289 536q32 85 80 122t122 37q20 0 47 -2t41 -5l-28 -111q-12 3 -30.5 5t-31.5 2q-26 0 -40.5 -10.5t-27.5 -43.5l-225 -584q-32 -85 -80 -122t-122 -37q-20 0 -46.5 2t-40.5 5l29 111q12 -3 30 -5t29 -2q26 0 41 10.5t28 43.5z" />
    <glyph glyph-name="approxequal" unicode="&#x2248;" 
d="M67 398q30 33 64 49t77 16q32 0 64 -8.5t63 -19t60.5 -19t56.5 -8.5q25 0 40.5 5t33.5 19l39 -63q-31 -33 -64.5 -48.5t-76.5 -15.5q-29 0 -60 8.5t-63 19t-63 19t-59 8.5q-26 0 -42.5 -6t-31.5 -19zM19 173q30 33 64 49t78 16q32 0 63.5 -8.5t62.5 -19t60.5 -19
t56.5 -8.5q25 0 40.5 5t34.5 19l38 -63q-31 -33 -64.5 -48.5t-76.5 -15.5q-29 0 -60 8.5t-63 19t-63 19t-59 8.5q-26 0 -42.5 -6t-31.5 -19z" />
    <glyph glyph-name="notequal" unicode="&#x2260;" 
d="M69 0l3 10l60 97h-106l22 103h149l77 123h-200l22 103h244l65 105h110l-3 -10l-59 -95h105l-22 -103h-149l-77 -123h200l-22 -103h-242l-67 -107h-110z" />
    <glyph glyph-name="lessequal" unicode="&#x2264;" 
d="M500 136l-451 195l21 99l534 195h9l-23 -113l-401 -134v-3l344 -134l-23 -105h-10zM502 103l-21 -103h-502l22 103h501z" />
    <glyph glyph-name="greaterequal" unicode="&#x2265;" 
d="M20 136l23 113l401 134v3l-343 134l23 105h10l450 -195l-21 -99l-533 -195h-10zM514 103l-21 -103h-502l22 103h501z" />
    <glyph glyph-name="lozenge" unicode="&#x25ca;" horiz-adv-x="584" 
d="M41 347l276 333h105l144 -353l-276 -327h-105zM431 340l-79 213l-176 -221l81 -206z" />
    <glyph glyph-name="circle" unicode="&#x25cb;" horiz-adv-x="800" 
d="M60 340q0 72 26 134.5t71.5 108t108 71.5t134.5 26t134.5 -26t108 -71.5t71.5 -108t26 -134.5t-26 -134.5t-71.5 -108t-108 -71.5t-134.5 -26t-134.5 26t-108 71.5t-71.5 108t-26 134.5zM125 340q0 -59 21 -109t57.5 -87.5t87 -58.5t109.5 -21q58 0 108.5 21t87 58.5
t57.5 87.5t21 109q0 58 -21 108.5t-57.5 88t-87 58.5t-108.5 21q-59 0 -109.5 -21t-87 -58.5t-57.5 -88t-21 -108.5z" />
    <glyph glyph-name="H18533" unicode="&#x25cf;" horiz-adv-x="800" 
d="M60 341q0 72 26 134t71.5 107.5t107.5 71.5t134 26t134.5 -26t108.5 -71.5t72 -107.5t26 -134t-26 -134.5t-72 -108.5t-108.5 -72t-134.5 -26t-134 26t-107.5 72t-71.5 108.5t-26 134.5z" />
    <glyph glyph-name="uni25DC" unicode="&#x25dc;" horiz-adv-x="340" 
d="M340 616q-59 0 -109.5 -21t-87 -58.5t-57.5 -88t-21 -108.5h-65q0 72 26 134.5t71.5 108t108 71.5t134.5 26v-64z" />
    <glyph glyph-name="uni25DD" unicode="&#x25dd;" horiz-adv-x="340" 
d="M0 680q72 0 134.5 -26t108 -71.5t71.5 -108t26 -134.5h-66q0 58 -21 108.5t-57.5 88t-87 58.5t-108.5 21v64z" />
    <glyph glyph-name="uni25DE" unicode="&#x25de;" horiz-adv-x="340" 
d="M0 64q58 0 108.5 21t87 58.5t57.5 87.5t21 109h66q0 -72 -26 -134.5t-71.5 -108t-108 -71.5t-134.5 -26v64z" />
    <glyph glyph-name="uni25DF" unicode="&#x25df;" horiz-adv-x="340" 
d="M340 0q-72 0 -134.5 26t-108 71.5t-71.5 108t-26 134.5h65q0 -59 21 -109t57.5 -87.5t87 -58.5t109.5 -21v-64z" />
    <glyph glyph-name="uniF6C3" unicode="&#xf6c3;" horiz-adv-x="578" 
d="M165 -208l58 156h135l-2 -10l-92 -156h-101z" />
    <glyph glyph-name="uniF6E1" unicode="&#xf6e1;" horiz-adv-x="191" 
d="M-91 -212l84 215h110l-2 -8l-112 -215h-82z" />
    <glyph glyph-name="uniF6E2" unicode="&#xf6e2;" horiz-adv-x="191" 
d="M28 354l84 215h110l-2 -8l-112 -215h-82z" />
    <glyph glyph-name="uniF6E5" unicode="&#xf6e5;" horiz-adv-x="264" 
d="M-17 22l16 77h189l-16 -77h-189z" />
    <glyph glyph-name="uniF6E6" unicode="&#xf6e6;" horiz-adv-x="265" 
d="M103 589l16 77h189l-16 -77h-189z" />
    <glyph glyph-name="uniF6E7" unicode="&#xf6e7;" horiz-adv-x="186" 
d="M-46 -75q0 35 23.5 58.5t58.5 23.5q26 0 39.5 -15t13.5 -39q0 -34 -23 -57t-58 -23q-26 0 -40 14.5t-14 37.5z" />
    <glyph glyph-name="uniF6E8" unicode="&#xf6e8;" horiz-adv-x="186" 
d="M74 492q0 35 23.5 58.5t58.5 23.5q26 0 39.5 -15t13.5 -39q0 -34 -23 -57t-58 -23q-26 0 -40 14.5t-14 37.5z" />
    <glyph glyph-name="uniF8FF" unicode="&#xf8ff;" horiz-adv-x="623" 
d="M117 680h413v-680h-413v680zM472 58v564h-297v-564h297z" />
    <glyph glyph-name="uniFB01" unicode="&#xfb01;" horiz-adv-x="635" 
d="M43 0l80 379h-83l16 73l89 30l14 64q18 84 65 121.5t120 37.5q10 0 23 -0.5t26 -2t25 -3t20 -3.5l-24 -109q-14 3 -32 5t-30 2q-26 0 -39.5 -10.5t-20.5 -43.5l-12 -58h334l-103 -482h-134l80 379h-199l-81 -379h-134zM499 616q0 37 27 62.5t68 25.5q31 0 48 -17t17 -43
q0 -37 -27 -62.5t-69 -25.5q-30 0 -47 17t-17 43z" />
    <glyph glyph-name="uniFB02" unicode="&#xfb02;" horiz-adv-x="662" 
d="M43 0l80 379h-83l16 73l89 30l14 64q18 84 65 121.5t120 37.5q10 0 23 -0.5t26 -2t25 -3t20 -3.5l-24 -109q-14 3 -32 5t-30 2q-26 0 -39.5 -10.5t-20.5 -43.5l-12 -58h117l-22 -103h-117l-81 -379h-134zM576 -2q-17 -3 -34 -5t-39 -2q-69 0 -92.5 35t-6.5 112l119 562
h135l-126 -592q-2 -11 -1 -14.5t12 -3.5h53z" />
    <glyph glyph-name="zero.pnum" horiz-adv-x="662" 
d="M204 232q0 -63 22 -95.5t67 -32.5q33 0 66.5 16t61 56t45 106t17.5 167q0 127 -87 127q-33 0 -67 -16t-62 -55.5t-45.5 -106t-17.5 -166.5zM629 452q0 -125 -27.5 -213.5t-75.5 -145t-112.5 -82.5t-137.5 -26q-57 0 -98 17.5t-67.5 49.5t-39.5 77t-13 100
q0 124 27.5 212.5t75.5 144.5t112.5 82.5t138.5 26.5q57 0 98 -17.5t67.5 -49.5t39 -77t12.5 -99z" />
    <glyph glyph-name="one.pnum" horiz-adv-x="392" 
d="M70 487l25 123l208 70h103l-144 -680h-139l115 538h-2l-154 -51h-12z" />
    <glyph glyph-name="two.pnum" horiz-adv-x="564" 
d="M204 116h276l-25 -116h-467l21 100l305 246q43 35 68.5 68.5t25.5 75.5q0 38 -22 62t-60 24q-47 0 -84.5 -22t-73.5 -51l-65 92q16 15 41.5 32.5t57 32.5t67 25t72.5 10q47 0 86.5 -12.5t68 -36.5t44.5 -59.5t16 -80.5q0 -42 -16.5 -78t-40.5 -65.5t-49.5 -52
t-43.5 -36.5l-202 -156v-2z" />
    <glyph glyph-name="three.pnum" horiz-adv-x="567" 
d="M160 401h113q36 0 60.5 9t39 24t21 34t6.5 40q0 31 -21.5 49.5t-68.5 18.5q-37 0 -81.5 -9t-85.5 -25l-27 108q46 20 103 32.5t107 12.5q112 0 168 -43.5t56 -116.5q0 -39 -13.5 -71.5t-33.5 -57t-44.5 -41t-46.5 -23.5v-2q38 -15 62.5 -47.5t24.5 -83.5q0 -102 -78 -163
t-226 -61q-69 0 -118.5 15t-86.5 36l50 110q35 -20 77.5 -31t92.5 -11q30 0 56 7t46 21t31.5 35t11.5 48q0 35 -24.5 52.5t-81.5 17.5h-114z" />
    <glyph glyph-name="four.pnum" horiz-adv-x="619" 
d="M400 459h139l-42 -199h88l-25 -116h-88l-30 -144h-139l30 144h-330l21 100l301 436h146l-283 -420h170z" />
    <glyph glyph-name="five.pnum" horiz-adv-x="553" 
d="M83 323l113 357h368l-24 -116h-248l-42 -135q5 1 13.5 1.5t16.5 0.5q48 0 88.5 -10t69.5 -31t45 -54t16 -78q0 -63 -22.5 -113.5t-64.5 -86t-102.5 -54.5t-135.5 -19q-17 0 -41 2t-50.5 6.5t-52.5 11.5t-48 17l47 117q41 -19 86.5 -27t77.5 -8q79 0 118 36t39 94
q0 38 -27.5 58t-90.5 20q-32 0 -67.5 -2t-67.5 -4z" />
    <glyph glyph-name="six.pnum" horiz-adv-x="592" 
d="M514 670l-202 -230l1 -2q11 5 28.5 9t35.5 4q40 0 72.5 -14t55.5 -39t35.5 -59t12.5 -74q0 -57 -21 -107.5t-60 -89t-95 -61t-126 -22.5q-56 0 -98 15.5t-70 42.5t-42 62.5t-14 75.5q0 64 25 115t73 108l232 276h160zM406 249q0 42 -24 62.5t-67 20.5q-64 0 -102.5 -35
t-38.5 -104q0 -43 24 -66t68 -23q63 0 101.5 39t38.5 106z" />
    <glyph glyph-name="seven.pnum" horiz-adv-x="515" 
d="M31 10l368 552v2h-311l25 116h462l-21 -100l-379 -580h-146z" />
    <glyph glyph-name="eight.pnum" horiz-adv-x="612" 
d="M269 104q35 0 60.5 9.5t41.5 25t23.5 36.5t7.5 45q0 33 -21.5 53.5t-71.5 20.5q-38 0 -63.5 -9.5t-41.5 -26t-22.5 -37.5t-6.5 -43q0 -33 22 -53.5t72 -20.5zM384 695q52 0 90.5 -12t63.5 -33.5t37.5 -50t12.5 -61.5q0 -38 -10.5 -68t-28 -52.5t-39.5 -38t-45 -25.5v-2
q36 -17 58.5 -51.5t22.5 -83.5q0 -51 -19 -93.5t-56 -73.5t-91.5 -48t-126.5 -17q-114 0 -171 47t-57 120q0 78 43.5 131.5t111.5 78.5v2q-25 14 -42.5 41.5t-17.5 68.5q0 46 16 86t48.5 70t82 47.5t117.5 17.5zM334 410q30 0 50 8.5t32.5 22.5t17.5 33.5t5 40.5
q0 29 -16.5 45t-53.5 16q-30 0 -50 -8.5t-32.5 -22.5t-17.5 -33.5t-5 -40.5q0 -29 16 -45t54 -16z" />
    <glyph glyph-name="nine.pnum" horiz-adv-x="592" 
d="M103 10l202 230l-1 2q-11 -5 -28.5 -9t-35.5 -4q-40 0 -72.5 14t-55.5 39t-35.5 59t-12.5 74q0 57 21 107.5t60 89t95 61t126 22.5q56 0 98 -15.5t70 -42.5t42 -62.5t14 -75.5q0 -64 -25 -115t-73 -108l-232 -276h-160zM211 431q0 -42 24 -62.5t67 -20.5q64 0 102.5 35
t38.5 104q0 43 -24 66t-68 23q-63 0 -101.5 -39t-38.5 -106z" />
    <glyph glyph-name="uni0444.aalt" horiz-adv-x="719" 
d="M26 195q0 53 17.5 104t55 92t96 68t141.5 32l44 209h135l-45 -211q56 -8 95 -27t63.5 -45.5t35.5 -59.5t11 -70q0 -51 -16 -101.5t-52.5 -91t-95.5 -68t-146 -33.5l-41 -191h-134l40 189q-54 8 -93 26.5t-63.5 45.5t-36 60.5t-11.5 71.5zM165 199q0 -43 19.5 -73.5
t65.5 -38.5l65 307q-42 -7 -71 -26.5t-46.5 -46.5t-25 -59t-7.5 -63zM536 281q0 42 -19.5 72.5t-66.5 39.5l-65 -305q45 8 74 28t46.5 47t24 57.5t6.5 60.5z" />
    <glyph glyph-name="Euro.aalt" 
d="M226 204q11 -49 41.5 -74.5t76.5 -25.5q38 0 71.5 7.5t78.5 27.5l23 -110q-97 -44 -188 -44q-115 0 -178.5 58t-68.5 161h-64l21 101h48q3 20 6 35.5t9 34.5h-48l22 101h64q49 103 127 161t193 58q91 0 170 -44l-51 -110q-36 20 -66.5 27.5t-68.5 7.5q-45 0 -88 -26
t-73 -74h184l-22 -101h-208q-6 -19 -9.5 -36t-5.5 -34h208l-21 -101h-183z" />
    </font>
</defs>
</svg>
