<?xml version="1.0" standalone="no"?>
<!DOCTYPE svg PUBLIC "-//W3C//DTD SVG 1.1//EN" "http://www.w3.org/Graphics/SVG/1.1/DTD/svg11.dtd" >
<svg xmlns="http://www.w3.org/2000/svg" xmlns:xlink="http://www.w3.org/1999/xlink" version="1.1">
<metadata>
Created by Christoph Koeberlin (http://christoph.koe.berlin)
Copyright (c) 2015 by Volkswagen AG. All rights reserved.
</metadata>
<defs>
<font id="Font" horiz-adv-x="590" >
  <font-face 
    font-family="Font"
    font-weight="300"
    font-stretch="normal"
    units-per-em="1000"
    panose-1="2 11 3 4 4 2 0 0 0 3"
    ascent="800"
    descent="-200"
    x-height="482"
    cap-height="680"
    bbox="-182 -220 1013 907.214"
    underline-thickness="45"
    underline-position="-66"
    unicode-range="U+0020-FB02"
  />
<missing-glyph horiz-adv-x="579" 
d="M83 680h413v-680h-413v680zM438 58v564h-297v-564h297z" />
    <glyph glyph-name=".notdef" horiz-adv-x="579" 
d="M83 680h413v-680h-413v680zM438 58v564h-297v-564h297z" />
    <glyph glyph-name="glyph1" horiz-adv-x="0" 
 />
    <glyph glyph-name="glyph2" horiz-adv-x="271" 
 />
    <glyph glyph-name="space" unicode=" " horiz-adv-x="265" 
 />
    <glyph glyph-name="exclam" unicode="!" horiz-adv-x="232" 
d="M132 194h-32l-9 295v191h50v-191zM71 29q0 20 12.5 32t31.5 12t31.5 -12t12.5 -32t-12.5 -32t-31.5 -12t-31.5 12t-12.5 32z" />
    <glyph glyph-name="quotedbl" unicode="&#x22;" horiz-adv-x="349" 
d="M262 402h-32l-8 172v106h48v-106zM119 402h-32l-8 172v106h48v-106z" />
    <glyph glyph-name="numbersign" unicode="#" horiz-adv-x="640" 
d="M162 232l58 227h-112v45h124l45 176h45v-5l-44 -171h163l46 176h44v-5l-44 -171h108v-45h-119l-58 -227h113v-45h-125l-47 -187h-46v5l47 182h-163l-48 -187h-45v5l46 182h-104v45h116zM208 232h163l59 227h-164z" />
    <glyph glyph-name="dollar" unicode="$" 
d="M111 101q30 -26 70 -45.5t97 -22.5v294l-35 14q-68 25 -105.5 67.5t-37.5 100.5q0 36 12 68t34.5 56.5t56 40t75.5 19.5v77h48v-76q50 -3 90 -18t72 -38l-23 -42q-65 44 -139 50v-283q89 -34 131.5 -77.5t42.5 -112.5q0 -37 -12.5 -69t-35.5 -56.5t-55 -40t-71 -20.5v-95
h-48v94q-68 3 -114 25.5t-79 49.5zM152 510q0 -42 26 -71t86 -52l14 -6v264q-61 -7 -93.5 -44t-32.5 -91zM448 172q0 50 -30 80.5t-92 56.5v-273q51 8 86.5 42.5t35.5 93.5z" />
    <glyph glyph-name="percent" unicode="%" horiz-adv-x="733" 
d="M145 0v5l395 675h48v-5l-395 -675h-48zM92 515q0 -66 22 -97.5t64 -31.5t64 31.5t22 97.5t-22 97.5t-64 31.5t-64 -31.5t-22 -97.5zM48 515q0 37 8 68t24 53.5t40.5 35t57.5 12.5t57.5 -12.5t40.5 -35t24 -53.5t8 -68t-8 -68t-24 -53.5t-40.5 -35t-57.5 -12.5t-57.5 12.5
t-40.5 35t-24 53.5t-8 68zM469 163q0 -66 22 -97.5t64 -31.5t64 31.5t22 97.5t-22 97.5t-64 31.5t-64 -31.5t-22 -97.5zM425 163q0 37 8 68t24 53.5t40.5 35t57.5 12.5t57.5 -12.5t40.5 -35t24 -53.5t8 -68t-8 -68t-24 -53.5t-40.5 -35t-57.5 -12.5t-57.5 12.5t-40.5 35
t-24 53.5t-8 68z" />
    <glyph glyph-name="ampersand" unicode="&#x26;" horiz-adv-x="648" 
d="M583 288q-19 -38 -39 -77.5t-46 -76.5l121 -129v-5h-64l-87 95q-40 -48 -94 -79t-131 -31q-45 0 -79 13t-57 35t-35 51.5t-12 62.5t10 60.5t28 50.5t42 42.5t51 37.5l34 22l-15 17q-46 48 -65 86.5t-19 77.5q0 30 11 57.5t32 49t51.5 34.5t69.5 13q77 0 122.5 -42
t45.5 -114q0 -25 -9.5 -47.5t-24.5 -42t-34 -35.5t-38 -28l-54 -36l166 -179q21 32 39 67.5t35 70.5zM243 33q65 0 111 27.5t81 70.5l-177 193l-41 -27q-58 -38 -81.5 -72.5t-23.5 -77.5q0 -24 9.5 -45t26.5 -36t41 -24t54 -9zM178 541q0 -33 16 -64.5t51 -69.5l20 -22
l58 38q83 53 83 116q0 55 -33.5 81.5t-82.5 26.5q-51 0 -81.5 -29t-30.5 -77z" />
    <glyph glyph-name="quotesingle" unicode="'" horiz-adv-x="206" 
d="M119 402h-32l-8 172v106h48v-106z" />
    <glyph glyph-name="parenleft" unicode="(" horiz-adv-x="263" 
d="M218 696q-49 -100 -75.5 -214t-26.5 -233t26.5 -233t75.5 -214l-39 -20q-24 50 -45 101.5t-36.5 108t-24.5 120t-9 137.5t9 137.5t24.5 120t36.5 108t45 101.5z" />
    <glyph glyph-name="parenright" unicode=")" horiz-adv-x="263" 
d="M84 716q24 -50 45 -101.5t36.5 -108t24.5 -120t9 -137.5t-9 -137.5t-24.5 -120t-36.5 -108t-45 -101.5l-39 20q49 100 75.5 214t26.5 233t-26.5 233t-75.5 214z" />
    <glyph glyph-name="asterisk" unicode="*" horiz-adv-x="410" 
d="M223 581l1 -1l97 63l20 -40l-98 -56v-2l98 -54l-21 -39l-96 63l-1 -1l3 -117h-42l3 117l-1 1l-96 -63l-21 39l98 54v2l-98 56l20 40l97 -63l1 1l-3 119h42z" />
    <glyph glyph-name="plus" unicode="+" 
d="M319 291h198v-43h-198v-216h-48v216h-198v43h198v216h48v-216z" />
    <glyph glyph-name="comma" unicode="," horiz-adv-x="221" 
d="M56 -155l30 217h56v-6l-45 -217h-41v6z" />
    <glyph glyph-name="hyphen" unicode="-" horiz-adv-x="395" 
d="M78 250v43h239v-43h-239z" />
    <glyph glyph-name="period" unicode="." horiz-adv-x="230" 
d="M71 29q0 20 12.5 32t31.5 12t31.5 -12t12.5 -32t-12.5 -32t-31.5 -12t-31.5 12t-12.5 32z" />
    <glyph glyph-name="slash" unicode="/" horiz-adv-x="363" 
d="M41 0v5l235 675h46v-5l-234 -675h-47z" />
    <glyph glyph-name="zero" unicode="0" 
d="M100 340q0 -67 9 -123.5t31 -97t59.5 -63.5t95.5 -23t95.5 23t59.5 63.5t31 97t9 123.5t-9 123.5t-31 97t-59.5 63.5t-95.5 23t-95.5 -23t-59.5 -63.5t-31 -97t-9 -123.5zM541 340q0 -82 -14 -147.5t-43.5 -111.5t-76 -71t-112.5 -25t-112.5 25t-76 71t-43.5 111.5
t-14 147.5t14 147.5t43.5 111.5t76 71t112.5 25t112.5 -25t76 -71t43.5 -111.5t14 -147.5z" />
    <glyph glyph-name="one" unicode="1" 
d="M133 573v47l165 60h41v-633h147v-47h-353v47h157v579h-2l-150 -53h-5z" />
    <glyph glyph-name="two" unicode="2" 
d="M153 47h341v-47h-410v45l279 282q32 32 54.5 73.5t22.5 95.5q0 33 -11 60.5t-31.5 48t-48 31.5t-60.5 11q-61 0 -102 -21.5t-73 -53.5l-29 36q16 16 35.5 31.5t44 28t55 20t69.5 7.5q46 0 83.5 -15t64 -41t41 -63t14.5 -80q0 -66 -26.5 -113.5t-66.5 -87.5l-246 -246v-2z
" />
    <glyph glyph-name="three" unicode="3" 
d="M163 373h124q66 0 106 37t40 98q0 69 -42 104t-111 35q-48 0 -89.5 -11t-79.5 -31l-18 42q36 21 83.5 34.5t104.5 13.5q94 0 149 -49t55 -138q0 -34 -9.5 -59.5t-24.5 -44.5t-34.5 -31.5t-38.5 -19.5v-2q57 -14 90 -61t33 -113q0 -48 -18.5 -84t-50 -60t-73.5 -36
t-88 -12q-67 0 -115 17t-83 40l21 43q40 -25 81.5 -38.5t95.5 -13.5q34 0 66.5 9t57 27t39.5 45t15 63q0 28 -7.5 54.5t-26.5 47.5t-52.5 34t-84.5 13h-115v47z" />
    <glyph glyph-name="four" unicode="4" 
d="M448 492v-302h98v-47h-98v-143h-50v143h-354v42l222 495h51l-216 -490h297v302h50z" />
    <glyph glyph-name="five" unicode="5" 
d="M124 350l45 330h309v-47h-267l-33 -239q20 3 44 5t50 2q51 0 93.5 -11.5t72.5 -35.5t46.5 -61t16.5 -88q0 -58 -19.5 -99.5t-52.5 -68.5t-77 -39.5t-93 -12.5q-61 0 -108.5 15.5t-76.5 30.5l17 45q32 -17 75.5 -30t92.5 -13q39 0 73.5 9t60.5 29t41 53t15 81
q0 148 -179 148q-31 0 -68.5 -3t-71.5 -8z" />
    <glyph glyph-name="six" unicode="6" 
d="M362 674l-181 -280l1 -1q20 14 49.5 24.5t70.5 10.5q51 0 92 -16t70 -45t45 -69.5t16 -90.5t-15.5 -91t-45 -70t-72 -45t-95.5 -16q-55 0 -97.5 16t-71.5 45t-44 70t-15 91q0 55 22.5 113t63.5 121l152 239h55v-6zM473 207q0 80 -45.5 126.5t-130.5 46.5t-130.5 -46.5
t-45.5 -126.5q0 -79 45.5 -126.5t130.5 -47.5t130.5 47.5t45.5 126.5z" />
    <glyph glyph-name="seven" unicode="7" 
d="M198 6l245 625v2h-349v47h403v-41l-248 -639h-51v6z" />
    <glyph glyph-name="eight" unicode="8" 
d="M295 33q96 0 139.5 42.5t43.5 108.5t-44 108.5t-139 42.5t-139 -42.5t-44 -108.5t44 -108.5t139 -42.5zM295 695q54 0 93.5 -14.5t65 -39.5t38 -58t12.5 -70q0 -32 -8.5 -56.5t-22.5 -43t-31.5 -31.5t-35.5 -21v-2q57 -21 90.5 -67t33.5 -109q0 -41 -13.5 -77t-42.5 -63
t-73.5 -42.5t-105.5 -15.5q-62 0 -106 15.5t-73 42.5t-42.5 63t-13.5 77q0 63 33.5 109t90.5 67v2q-18 8 -35.5 21t-31.5 31.5t-22.5 43t-8.5 56.5q0 37 12.5 70t38 58t65 39.5t93.5 14.5zM295 383q78 0 117.5 33.5t39.5 96.5t-39 98.5t-118 35.5t-118 -35.5t-39 -98.5
t39.5 -96.5t117.5 -33.5z" />
    <glyph glyph-name="nine" unicode="9" 
d="M226.986 6l180.988 279.982l-0.999023 1q-19.999 -13.999 -49.4971 -24.498q-29.498 -10.5 -70.4961 -10.5q-50.9971 0 -91.9941 15.999q-40.998 15.999 -69.9961 44.9971q-28.998 28.999 -44.9971 69.4961q-15.999 40.498 -15.999 90.4941q0 49.9971 15.499 90.9951
q15.499 40.9971 44.9971 69.9951q29.498 28.999 71.9961 44.998q42.4971 15.999 95.4941 15.999q54.9961 0 97.4941 -15.999q42.4971 -15.999 71.4951 -44.998q28.998 -28.998 43.9971 -69.9951q15 -40.998 15 -90.9951q0 -54.9961 -22.499 -112.992
q-22.499 -57.9971 -63.4961 -120.993l-151.991 -238.985h-54.9961v6zM115.993 472.971q0 -79.9951 45.4971 -126.492t130.492 -46.4971q84.9941 0 130.492 46.4971q45.4971 46.4971 45.4971 126.492q0 78.9961 -45.4971 126.493q-45.498 47.4971 -130.492 47.4971
q-84.9951 0 -130.492 -47.4971t-45.4971 -126.493z" />
    <glyph glyph-name="colon" unicode=":" horiz-adv-x="244" 
d="M78 453q0 20 12.5 32t31.5 12t31.5 -12t12.5 -32t-12.5 -32t-31.5 -12t-31.5 12t-12.5 32zM78 29q0 20 12.5 32t31.5 12t31.5 -12t12.5 -32t-12.5 -32t-31.5 -12t-31.5 12t-12.5 32z" />
    <glyph glyph-name="semicolon" unicode=";" horiz-adv-x="260" 
d="M78 -155l30 217h56v-6l-45 -217h-41v6zM91 453q0 20 12.5 32t31.5 12t31.5 -12t12.5 -32t-12.5 -32t-31.5 -12t-31.5 12t-12.5 32z" />
    <glyph glyph-name="less" unicode="&#x3c;" 
d="M500 49l-438 202v37l438 202h5v-45l-388 -174v-3l388 -174v-45h-5z" />
    <glyph glyph-name="equal" unicode="=" 
d="M73 401h444v-43h-444v43zM73 184h444v-43h-444v43z" />
    <glyph glyph-name="greater" unicode="&#x3e;" 
d="M85 49v45l388 174v3l-388 174v45h5l438 -202v-37l-438 -202h-5z" />
    <glyph glyph-name="question" unicode="?" horiz-adv-x="434" 
d="M37 631q30 25 68.5 44.5t93.5 19.5q45 0 80 -15t58.5 -40.5t35.5 -59.5t12 -72q0 -48 -17 -82.5t-43.5 -58.5t-57.5 -39t-58 -24l-6 -110h-39l-3 142q35 11 66 24.5t54.5 33.5t37.5 47.5t14 65.5q0 60 -33.5 100t-100.5 40q-43 0 -75.5 -15t-61.5 -39zM139 29
q0 20 12.5 32t31.5 12t31.5 -12t12.5 -32t-12.5 -32t-31.5 -12t-31.5 12t-12.5 32z" />
    <glyph glyph-name="at" unicode="@" horiz-adv-x="898" 
d="M579 162q-2 -12 -1.5 -24.5t6 -22t16 -16t29.5 -6.5t45 10.5t49.5 38.5t40 78t16.5 130q0 63 -18 121t-56 102t-96 70.5t-137 26.5q-84 0 -150.5 -34.5t-113 -91.5t-71 -130.5t-24.5 -150.5q0 -79 22 -145t61.5 -113t93.5 -73.5t118 -26.5q50 0 95 13t80 33l19 -42
q-43 -23 -91.5 -36t-102.5 -13q-74 0 -137 29t-110 81.5t-73.5 127t-26.5 165.5q0 89 28 170.5t80.5 144t129 100t173.5 37.5q88 0 155 -29.5t112.5 -79.5t68.5 -116.5t23 -139.5q0 -90 -21.5 -148t-53 -92.5t-67.5 -48t-65 -13.5q-41 0 -61 18t-27 38h-1q-23 -17 -57 -30.5
t-70 -13.5q-66 0 -107 42t-41 133q0 56 13.5 105.5t39 86t62 58t83.5 21.5q38 0 67 -14t53 -35h1l14 37h37zM569 413q-14 16 -43 32t-64 16q-34 0 -61.5 -18.5t-47 -50t-30 -72.5t-10.5 -85q0 -63 27.5 -96.5t81.5 -33.5q29 0 58 13.5t46 27.5z" />
    <glyph glyph-name="A" unicode="A" horiz-adv-x="587" 
d="M568 0h-53l-66 184h-311l-66 -184h-53l249 680h51zM293 614l-138 -384h277l-138 384h-1z" />
    <glyph glyph-name="B" unicode="B" horiz-adv-x="598" 
d="M149 47h164q35 0 66 7t54.5 23t37.5 42.5t14 65.5t-13.5 65.5t-36.5 42.5t-54 23t-66 7h-166v-276zM301 680q46 0 85 -9.5t67.5 -30.5t44 -54.5t15.5 -81.5q0 -33 -8.5 -58.5t-23 -44t-32.5 -31t-36 -19.5v-2q55 -14 89.5 -55.5t34.5 -110.5q0 -48 -17 -82.5t-46.5 -57
t-69.5 -33t-85 -10.5h-220v680h202zM149 370h148q34 0 63.5 6t52 20.5t35.5 40t13 64.5t-13 64.5t-35.5 40.5t-52 21t-63.5 6h-148v-263z" />
    <glyph glyph-name="C" unicode="C" horiz-adv-x="580" 
d="M66 340q0 80 17 145.5t53 112t92.5 72t135.5 25.5q42 0 87 -12t82 -33l-19 -42q-38 21 -77 30t-73 9q-66 0 -112.5 -21.5t-76.5 -61.5t-43.5 -97t-13.5 -127q0 -71 13.5 -127.5t43.5 -96.5t76.5 -61.5t112.5 -21.5q34 0 73 9t77 30l19 -42q-37 -21 -82 -33t-87 -12
q-79 0 -135.5 25.5t-92.5 72t-53 112t-17 145.5z" />
    <glyph glyph-name="D" unicode="D" horiz-adv-x="667" 
d="M99 680h160q94 0 159.5 -22t106 -65.5t58.5 -107t18 -145.5q0 -83 -18 -146t-58.5 -106.5t-106 -65.5t-159.5 -22h-160v680zM252 47q85 0 142.5 17.5t92 53.5t49 91.5t14.5 130.5t-14.5 130.5t-49 91.5t-92 53.5t-142.5 17.5h-103v-586h103z" />
    <glyph glyph-name="E" unicode="E" horiz-adv-x="574" 
d="M508 680v-47h-359v-260h329v-47h-329v-279h362v-47h-412v680h409z" />
    <glyph glyph-name="F" unicode="F" horiz-adv-x="550" 
d="M508 680v-47h-359v-266h329v-47h-329v-320h-50v680h409z" />
    <glyph glyph-name="G" unicode="G" horiz-adv-x="640" 
d="M567 322v-270q-42 -30 -98.5 -48.5t-119.5 -18.5q-74 0 -127.5 27t-88 74t-51.5 112t-17 142q0 75 18 140t54 113t90 75t126 27q63 0 115.5 -17t92.5 -43l-23 -41q-41 26 -89 39.5t-96 13.5q-60 0 -104.5 -22.5t-74 -63.5t-44 -97.5t-14.5 -123.5q0 -64 13 -120t41 -97.5
t72 -65.5t107 -24q51 0 94.5 12.5t73.5 32.5v197l-145 9v38h195z" />
    <glyph glyph-name="H" unicode="H" horiz-adv-x="687" 
d="M538 326h-389v-326h-50v680h50v-307h389v307h50v-680h-50v326z" />
    <glyph glyph-name="I" unicode="I" horiz-adv-x="247" 
d="M148 0h-49v680h49v-680z" />
    <glyph glyph-name="J" unicode="J" horiz-adv-x="453" 
d="M52 89q23 -23 56.5 -39.5t74.5 -16.5q27 0 49.5 8.5t39.5 27.5t26.5 48.5t9.5 71.5v491h50v-494q0 -96 -48.5 -148.5t-126.5 -52.5q-49 0 -90.5 21t-67.5 46z" />
    <glyph glyph-name="K" unicode="K" horiz-adv-x="556" 
d="M149 318v-318h-50v680h50v-337h2l313 337h58v-6l-315 -340l334 -328v-6h-65l-325 318h-2z" />
    <glyph glyph-name="L" unicode="L" horiz-adv-x="501" 
d="M149 680v-633h323v-47h-373v680h50z" />
    <glyph glyph-name="M" unicode="M" horiz-adv-x="807" 
d="M405 235l256 445h47v-680h-50v576h-2l-231 -403h-43l-231 403h-2v-576h-50v680h47l256 -445h3z" />
    <glyph glyph-name="N" unicode="N" horiz-adv-x="690" 
d="M542 92v588h49v-680h-48l-392 589h-2v-589h-50v680h48l393 -588h2z" />
    <glyph glyph-name="O" unicode="O" horiz-adv-x="696" 
d="M118 340q0 -64 11 -120t37.5 -97.5t71 -65.5t110.5 -24t110.5 24t71 65.5t37.5 97.5t11 120t-11 120t-37.5 97.5t-71 65.5t-110.5 24t-110.5 -24t-71 -65.5t-37.5 -97.5t-11 -120zM630 340q0 -77 -15.5 -142t-49.5 -112.5t-87.5 -74t-129.5 -26.5t-129.5 26.5t-87.5 74
t-49.5 112.5t-15.5 142t15.5 142t49.5 112.5t87.5 74t129.5 26.5t129.5 -26.5t87.5 -74t49.5 -112.5t15.5 -142z" />
    <glyph glyph-name="P" unicode="P" horiz-adv-x="568" 
d="M99 0v680h211q103 0 158 -50.5t55 -148.5t-55.5 -148t-157.5 -50h-161v-283h-50zM149 330h155q167 0 167 151q0 152 -167 152h-155v-303z" />
    <glyph glyph-name="Q" unicode="Q" horiz-adv-x="696" 
d="M630 340q0 -63 -10.5 -118.5t-32.5 -100t-57.5 -76t-84.5 -46.5l173 -97l-24 -44l-218 128q-7 0 -13.5 -0.5t-14.5 -0.5q-76 0 -129.5 26.5t-87.5 74t-49.5 112.5t-15.5 142t15.5 142t49.5 112.5t87.5 74t129.5 26.5t129.5 -26.5t87.5 -74t49.5 -112.5t15.5 -142z
M118 340q0 -64 11 -120t37.5 -97.5t71 -65.5t110.5 -24t110.5 24t71 65.5t37.5 97.5t11 120t-11 120t-37.5 97.5t-71 65.5t-110.5 24t-110.5 -24t-71 -65.5t-37.5 -97.5t-11 -120z" />
    <glyph glyph-name="R" unicode="R" horiz-adv-x="610" 
d="M99 0v680h231q100 0 153.5 -47t53.5 -137q0 -86 -49 -131t-130 -53l222 -305v-7h-58l-223 311h-150v-311h-50zM324 358q162 0 162 138q0 67 -40 102t-122 35h-175v-275h175z" />
    <glyph glyph-name="S" unicode="S" horiz-adv-x="523" 
d="M78 103q32 -28 75.5 -49t107.5 -21q31 0 59 9t49 26.5t33.5 43.5t12.5 60q0 53 -33.5 84.5t-103.5 58.5l-68 26q-68 25 -105.5 67.5t-37.5 100.5q0 39 14 73t40 59t64 39.5t86 14.5q57 0 103 -16t81 -41l-23 -42q-74 51 -161 51q-73 0 -112.5 -39t-39.5 -98q0 -42 26 -71
t86 -52l66 -25q85 -32 127.5 -75.5t42.5 -113.5q0 -41 -15.5 -75.5t-42.5 -59.5t-65 -39t-83 -14q-38 0 -68.5 6.5t-56 17t-46 24.5t-38.5 28z" />
    <glyph glyph-name="T" unicode="T" horiz-adv-x="520" 
d="M489 680v-47h-204v-633h-50v633h-204v47h458z" />
    <glyph glyph-name="U" unicode="U" horiz-adv-x="680" 
d="M144 680v-439q0 -99 51.5 -153.5t144.5 -54.5t144.5 54.5t51.5 153.5v439h50v-444q0 -115 -63 -183t-183 -68t-183 68t-63 183v444h50z" />
    <glyph glyph-name="V" unicode="V" horiz-adv-x="586" 
d="M565 674l-246 -674h-52l-246 674v6h52l219 -605h2l219 605h52v-6z" />
    <glyph glyph-name="W" unicode="W" horiz-adv-x="946" 
d="M918 674l-205 -674h-53l-186 607h-2l-186 -607h-53l-205 674v6h51l180 -601h2l185 601h54l185 -601h2l180 601h51v-6z" />
    <glyph glyph-name="X" unicode="X" horiz-adv-x="562" 
d="M88 680l192 -300h2l192 300h56v-6l-216 -333l216 -335v-6h-55l-193 301h-2l-193 -301h-55v6l216 335l-216 333v6h56z" />
    <glyph glyph-name="Y" unicode="Y" horiz-adv-x="534" 
d="M73 680l193 -335h2l193 335h55v-6l-224 -384v-290h-50v290l-224 384v6h55z" />
    <glyph glyph-name="Z" unicode="Z" horiz-adv-x="505" 
d="M457 680v-42l-355 -589v-2h355v-47h-416v42l355 589v2h-339v47h400z" />
    <glyph glyph-name="bracketleft" unicode="[" horiz-adv-x="297" 
d="M257 700v-38l-122 -9v-806l122 -9v-36h-172v898h172z" />
    <glyph glyph-name="backslash" unicode="\" horiz-adv-x="363" 
d="M275 0l-234 670v10h46l235 -670v-10h-47z" />
    <glyph glyph-name="bracketright" unicode="]" horiz-adv-x="297" 
d="M212 700v-898h-172v36l122 9v806l-122 9v38h172z" />
    <glyph glyph-name="asciicircum" unicode="^" horiz-adv-x="508" 
d="M444 372h-43l-137 272h-1l-137 -272h-43v5l163 323h35l163 -323v-5z" />
    <glyph glyph-name="underscore" unicode="_" horiz-adv-x="441" 
d="M62 -63v43h317v-43h-317z" />
    <glyph glyph-name="grave" unicode="`" 
d="M244 696h54l48 -110v-5h-43l-59 110v5z" />
    <glyph glyph-name="a" unicode="a" horiz-adv-x="498" 
d="M469 -4q-8 -2 -18 -4t-23 -2q-52 0 -61 52h-2q-26 -22 -67.5 -39.5t-94.5 -17.5q-34 0 -62.5 10.5t-49 29t-32 45.5t-11.5 60q0 78 58.5 114t173.5 36h82v29q0 80 -36.5 111.5t-94.5 31.5q-45 0 -77 -13t-58 -33l-22 36q28 24 67 39.5t90 15.5q40 0 73 -10.5t56.5 -33.5
t36.5 -58.5t13 -85.5v-241q0 -18 6 -26.5t26 -8.5h27v-37zM287 238q-52 0 -88 -6.5t-58.5 -20t-32.5 -33.5t-10 -47q0 -48 30 -74.5t79 -26.5q48 0 86.5 16t68.5 39v153h-75z" />
    <glyph glyph-name="b" unicode="b" horiz-adv-x="551" 
d="M132 97q27 -30 70 -48.5t90 -18.5q43 0 72 16.5t46.5 45t25 67t7.5 82.5t-7.5 82.5t-25 67t-46.5 45t-72 16.5q-47 0 -90 -18.5t-70 -48.5v-288zM132 700v-260h2q14 11 30 21.5t36 18.5t44 12.5t54 4.5q54 0 91 -20.5t60 -55t33.5 -81.5t10.5 -99q0 -53 -10.5 -99.5
t-33.5 -81t-60 -55t-91 -20.5q-57 0 -98.5 18t-69.5 41h-2l-6 -44h-38v700h48z" />
    <glyph glyph-name="c" unicode="c" horiz-adv-x="470" 
d="M57 241q0 55 14 102t41.5 81t68.5 53.5t95 19.5q37 0 74.5 -8t72.5 -28l-17 -40q-29 15 -63 23t-67 8q-44 0 -76 -17t-52.5 -46t-30.5 -67.5t-10 -80.5t10 -80.5t30.5 -67.5t52.5 -46t76 -17q33 0 67 8t63 23l17 -40q-35 -20 -72.5 -28t-74.5 -8q-54 0 -95 19.5
t-68.5 53.5t-41.5 81t-14 102z" />
    <glyph glyph-name="d" unicode="d" horiz-adv-x="552" 
d="M420 385q-27 30 -70 48.5t-90 18.5q-43 0 -72 -16.5t-46.5 -45t-25 -67t-7.5 -82.5t7.5 -82.5t25 -67t46.5 -45t72 -16.5q47 0 90 18.5t70 48.5v288zM468 700v-700h-38l-6 44h-2q-28 -23 -69.5 -41t-98.5 -18q-54 0 -91 20.5t-60 55t-33.5 81t-10.5 99.5q0 52 10.5 99
t33.5 81.5t60 55t91 20.5q30 0 54 -4.5t44 -12.5t36 -18.5t30 -21.5h2v260h48z" />
    <glyph glyph-name="e" unicode="e" horiz-adv-x="527" 
d="M106 232q1 -44 12 -81t33 -64t55.5 -42t79.5 -15q49 0 82.5 14t61.5 34l22 -38q-30 -22 -69 -38.5t-98 -16.5q-60 0 -103 20t-71 54.5t-41 81.5t-13 102t15.5 101.5t44 80.5t68.5 53t90 19q51 0 88.5 -16.5t62 -44t37 -63.5t12.5 -75q0 -16 -2 -34t-5 -32h-362zM275 452
q-70 0 -115 -46.5t-53 -130.5h317q1 8 1 14.5v11.5q0 33 -9 60.5t-28 47.5t-47 31.5t-66 11.5z" />
    <glyph glyph-name="f" unicode="f" horiz-adv-x="324" 
d="M114 0v439h-86v35l86 8v82q0 73 33.5 107t102.5 34q32 0 58 -6v-45q-26 6 -57 6q-47 0 -68 -20t-21 -71v-87h142v-43h-142v-439h-48z" />
    <glyph glyph-name="g" unicode="g" horiz-adv-x="552" 
d="M420 385q-27 30 -70.5 48.5t-89.5 18.5q-43 0 -72 -16.5t-47 -45t-25.5 -67t-7.5 -82.5t7.5 -82.5t25.5 -67t47 -45t72 -16.5q46 0 89.5 18.5t70.5 48.5v288zM468 -2q0 -99 -53.5 -155t-144.5 -56q-50 0 -91.5 14t-70.5 31l18 41q29 -17 65 -28t79 -11q32 0 59.5 9.5
t47.5 28.5t31.5 48t11.5 68v55h-2q-27 -23 -67 -40t-97 -17q-53 0 -90.5 20t-61 55t-34 81t-10.5 99q0 52 10.5 99t34 81.5t61 55t90.5 20.5q59 0 99.5 -18t68.5 -41h2l5 44h39v-484z" />
    <glyph glyph-name="h" unicode="h" horiz-adv-x="555" 
d="M427 0v299q0 79 -32.5 116t-97.5 37q-54 0 -96.5 -19.5t-68.5 -39.5v-393h-48v700h48v-259h2q11 8 27.5 18t38 18.5t47 14t54.5 5.5q86 0 130 -48t44 -142v-307h-48z" />
    <glyph glyph-name="i" unicode="i" horiz-adv-x="216" 
d="M84 0v482h48v-482h-48zM69 626q0 17 11 28.5t28 11.5q16 0 27 -11.5t11 -28.5t-11 -28t-27 -11q-17 0 -28 11t-11 28z" />
    <glyph glyph-name="j" unicode="j" horiz-adv-x="216" 
d="M132 482v-544q0 -83 -27 -117t-84 -34q-17 0 -30 2t-26 6v43q25 -6 55 -6q64 0 64 89v561h48zM69 626q0 17 11 28.5t28 11.5q16 0 27 -11.5t11 -28.5t-11 -28t-27 -11q-17 0 -28 11t-11 28z" />
    <glyph glyph-name="k" unicode="k" horiz-adv-x="445" 
d="M132 225v-225h-48v700h48v-448h2l227 230h59v-5l-237 -236l245 -236v-5h-63l-231 225h-2z" />
    <glyph glyph-name="l" unicode="l" horiz-adv-x="232" 
d="M134 700v-620q0 -23 7 -35t30 -12h35v-37q-18 -6 -42 -6q-43 0 -60.5 24t-17.5 74v612h48z" />
    <glyph glyph-name="m" unicode="m" horiz-adv-x="866" 
d="M122 482l5 -43h2q11 9 27.5 19t37.5 18.5t46 14.5t54 6q51 0 86.5 -17t53.5 -47h2q32 27 79.5 45.5t101.5 18.5q88 0 128.5 -48t40.5 -142v-307h-48v299q0 78 -28.5 115.5t-96.5 37.5q-40 0 -85.5 -15.5t-77.5 -44.5q3 -12 6 -34.5t3 -50.5v-307h-48v299q0 34 -4 62.5
t-17 48.5t-37 31t-63 11q-52 0 -92 -18.5t-66 -40.5v-393h-48v482h38z" />
    <glyph glyph-name="n" unicode="n" horiz-adv-x="555" 
d="M123 482l5 -44h2q11 9 28 19t39 19t48 15t56 6q86 0 130 -48t44 -142v-307h-48v299q0 79 -32 116t-98 37q-54 0 -96.5 -19.5t-68.5 -39.5v-393h-48v482h39z" />
    <glyph glyph-name="o" unicode="o" horiz-adv-x="562" 
d="M107 241q0 -39 7.5 -77t27 -67.5t53 -48t86.5 -18.5q52 0 86 18.5t53.5 48t27 67.5t7.5 77t-7.5 77t-27 67.5t-53.5 48t-86 18.5q-53 0 -86.5 -18.5t-53 -48t-27 -67.5t-7.5 -77zM505 241q0 -50 -11 -96t-37 -81.5t-69 -57t-107 -21.5t-107 21.5t-69 57t-37 81.5t-11 96
q0 49 11 95.5t37 82t69 57t107 21.5t107 -21.5t69 -57t37 -82t11 -95.5z" />
    <glyph glyph-name="p" unicode="p" horiz-adv-x="552" 
d="M123 482l5 -44h2q28 23 68.5 41t100.5 18q54 0 91 -20.5t60 -55t33.5 -81.5t10.5 -99q0 -53 -10.5 -99.5t-33.5 -81t-60 -55t-91 -20.5q-60 0 -98 17t-67 40h-2v-240h-48v680h39zM132 97q27 -30 70 -48.5t91 -18.5q43 0 72 16.5t46.5 45t25 67t7.5 82.5t-7.5 82.5t-25 67
t-46.5 45t-72 16.5q-48 0 -91 -18.5t-70 -48.5v-288z" />
    <glyph glyph-name="q" unicode="q" horiz-adv-x="552" 
d="M468 482v-680h-48v240h-2q-29 -23 -67 -40t-98 -17q-54 0 -91 20.5t-60 55t-33.5 81t-10.5 99.5q0 52 10.5 99t33.5 81.5t60 55t91 20.5q60 0 100.5 -18t68.5 -41h2l5 44h39zM420 385q-27 30 -70 48.5t-91 18.5q-43 0 -72 -16.5t-46.5 -45t-25 -67t-7.5 -82.5t7.5 -82.5
t25 -67t46.5 -45t72 -16.5q48 0 91 18.5t70 48.5v288z" />
    <glyph glyph-name="r" unicode="r" horiz-adv-x="328" 
d="M122 482l6 -49h2q16 23 45 43.5t79 20.5q14 0 28 -2t25 -5l-8 -45q-24 7 -47 7q-46 0 -74 -23.5t-46 -53.5v-375h-48v482h38z" />
    <glyph glyph-name="s" unicode="s" horiz-adv-x="435" 
d="M70 71q26 -20 59.5 -30.5t80.5 -10.5q60 0 92 24.5t32 68.5q0 30 -21.5 52t-77.5 39l-60 18q-55 17 -85 46t-30 80q0 60 43 99.5t124 39.5q43 0 79 -9.5t68 -24.5l-18 -43q-33 18 -65.5 25t-62.5 7q-60 0 -89 -25.5t-29 -67.5q0 -27 16.5 -47.5t61.5 -33.5l60 -18
q69 -20 102.5 -50.5t33.5 -85.5q0 -29 -11 -54.5t-33 -44t-54.5 -29.5t-74.5 -11q-55 0 -93 13t-70 33z" />
    <glyph glyph-name="t" unicode="t" horiz-adv-x="307" 
d="M159 594v-112h117v-43h-117v-348q0 -61 53 -61q18 0 36 3.5t29 7.5v-44q-14 -5 -30.5 -8.5t-38.5 -3.5q-49 0 -73 28.5t-24 79.5v346h-86v35l86 8v112h48z" />
    <glyph glyph-name="u" unicode="u" horiz-adv-x="547" 
d="M424 0l-5 44h-2q-11 -9 -27 -19t-37 -19t-46.5 -15t-55.5 -6q-87 0 -129 48t-42 142v307h48v-299q0 -79 30 -116t96 -37q54 0 94.5 19.5t66.5 39.5v393h48v-482h-39z" />
    <glyph glyph-name="v" unicode="v" horiz-adv-x="470" 
d="M443 476l-183 -476h-50l-183 476v6h49l158 -421h2l158 421h49v-6z" />
    <glyph glyph-name="w" unicode="w" horiz-adv-x="802" 
d="M773 476l-173 -476h-50l-148 422h-2l-148 -422h-50l-173 476v6h48l149 -415h2l148 415h50l148 -415h2l149 415h48v-6z" />
    <glyph glyph-name="x" unicode="x" horiz-adv-x="456" 
d="M227 205l-138 -205h-53v6l160 235l-160 235v6h53l138 -207h2l138 207h53v-6l-160 -235l160 -235v-6h-53l-138 205h-2z" />
    <glyph glyph-name="y" unicode="y" horiz-adv-x="474" 
d="M446 476l-206 -558q-24 -63 -58 -97t-88 -34q-14 0 -32.5 3t-29.5 6v44q12 -3 28.5 -5.5t32.5 -2.5q35 0 59 26.5t38 63.5l30 80l-195 474v6h51l166 -416h3l152 416h49v-6z" />
    <glyph glyph-name="z" unicode="z" horiz-adv-x="425" 
d="M378 482v-34l-273 -403v-2h273v-43h-336v32l274 405v2h-262v43h324z" />
    <glyph glyph-name="braceleft" unicode="{" horiz-adv-x="303" 
d="M112 250q27 -12 40 -36.5t13 -69.5v-210q0 -50 20 -72t75 -22v-38h-5q-42 0 -69 8t-42.5 24t-22 41t-6.5 59v219q0 35 -13 55t-55 20v46q42 0 55 20t13 55v219q0 34 6.5 59t22 41t42.5 24t69 8h5v-38q-55 0 -75 -22t-20 -72v-210q0 -45 -13 -69.5t-40 -36.5v-2z" />
    <glyph glyph-name="bar" unicode="|" horiz-adv-x="218" 
d="M133 -198h-48v898h48v-898z" />
    <glyph glyph-name="braceright" unicode="}" horiz-adv-x="303" 
d="M191 252q-27 12 -40 36.5t-13 69.5v210q0 50 -20 72t-75 22v38h5q42 0 69 -8t42.5 -24t22 -41t6.5 -59v-219q0 -35 13 -55t55 -20v-46q-42 0 -55 -20t-13 -55v-219q0 -34 -6.5 -59t-22 -41t-42.5 -24t-69 -8h-5v38q55 0 75 22t20 72v210q0 45 13 69.5t40 36.5v2z" />
    <glyph glyph-name="asciitilde" unicode="~" horiz-adv-x="494" 
d="M314 272q23 0 39 9.5t41 36.5l23 -32q-20 -24 -44.5 -40.5t-58.5 -16.5q-19 0 -37 7t-35 15t-33 15t-30 7q-23 0 -39 -9.5t-41 -35.5l-23 32q20 24 44.5 40.5t58.5 16.5q19 0 37 -7t35.5 -15.5t33 -15.5t29.5 -7z" />
    <glyph glyph-name="uni00A0" unicode="&#xa0;" horiz-adv-x="265" 
 />
    <glyph glyph-name="exclamdown" unicode="&#xa1;" horiz-adv-x="222" 
d="M94.9941 287.982h31.998l9 -294.982v-190.988h-49.9971v190.988zM155.99 452.973q0 -19.999 -12.499 -31.998q-12.499 -12 -31.498 -12t-31.498 12q-12.499 11.999 -12.499 31.998q0 19.998 12.499 31.998q12.499 11.999 31.498 11.999t31.498 -11.999
q12.499 -12 12.499 -31.998z" />
    <glyph glyph-name="cent" unicode="&#xa2;" 
d="M115 241q0 52 12.5 96.5t37 78t61 54.5t84.5 25v83h48v-82q31 -2 62 -10t61 -25l-17 -40q-24 12 -51.5 20t-54.5 10v-420q27 2 54.5 9.5t51.5 20.5l17 -40q-30 -17 -61 -25t-62 -10v-82h-48v83q-48 4 -84.5 24.5t-61 54.5t-37 78.5t-12.5 96.5zM165 241q0 -39 8.5 -75
t26 -64.5t45 -47t65.5 -23.5v419q-38 -5 -65.5 -23t-45 -46.5t-26 -64.5t-8.5 -75z" />
    <glyph glyph-name="sterling" unicode="&#xa3;" 
d="M105 38q42 17 68 55.5t26 83.5q0 33 -4 67t-9 66h-91v42h83q-8 41 -13.5 83t-5.5 84q0 46 15 79t39.5 54.5t56 32t64.5 10.5q42 0 79.5 -13.5t69.5 -34.5l-23 -40q-35 23 -65 31.5t-61 8.5q-24 0 -46.5 -7t-40 -22t-28.5 -39.5t-11 -59.5q0 -42 6 -83.5t14 -83.5h199v-42
h-190q6 -34 10 -67.5t4 -65.5q0 -28 -7 -50t-17 -38t-21.5 -26.5t-20.5 -15.5v-2h308v-45h-388v38z" />
    <glyph glyph-name="currency" unicode="&#xa4;" 
d="M468 270q0 -30 -7.5 -59t-22.5 -53l84 -85l-32 -33l-82 83q-21 -18 -50 -28t-67 -10q-69 0 -111 33l-78 -78l-32 33l78 79q-17 25 -25.5 55.5t-8.5 62.5t8.5 62.5t25.5 55.5l-78 79l31 33l78 -79q21 16 49 25t63 9q38 0 67 -10.5t50 -28.5l83 84l31 -33l-84 -86
q15 -24 22.5 -52.5t7.5 -58.5zM164 270q0 -25 6 -50t20.5 -45t39 -32.5t61.5 -12.5t61.5 12.5t39 32.5t20.5 45t6 50t-6 50t-20.5 45t-39 32.5t-61.5 12.5t-61.5 -12.5t-39 -32.5t-20.5 -45t-6 -50z" />
    <glyph glyph-name="yen" unicode="&#xa5;" 
d="M114 680l180 -308h2l180 308h55v-6l-185 -309h149v-42h-175v-120h175v-42h-175v-161h-50v161h-175v42h175v120h-175v42h149l-185 309v6h55z" />
    <glyph glyph-name="brokenbar" unicode="&#xa6;" horiz-adv-x="232" 
d="M140 134v-332h-48v332h48zM92 368v332h48v-332h-48z" />
    <glyph glyph-name="section" unicode="&#xa7;" horiz-adv-x="531" 
d="M382 112q42 -25 62.5 -55.5t20.5 -75.5q0 -35 -15 -64.5t-41.5 -50.5t-63.5 -33t-81 -12q-37 0 -67 5.5t-54.5 15t-45 21t-37.5 23.5l25 41q32 -24 74 -41t105 -17q30 0 57 6.5t47.5 20.5t32.5 34.5t12 49.5q0 45 -32 72t-101 50l-66 22q-77 24 -108.5 59t-31.5 84
q0 38 20 77.5t60 65.5v3q-80 48 -80 124q0 33 13.5 62t39.5 50.5t62.5 33.5t83.5 12q57 0 101.5 -13.5t78.5 -34.5l-22 -43q-71 43 -158 43q-71 0 -109 -29.5t-38 -79.5q0 -35 24.5 -60t83.5 -45l65 -21q41 -14 72 -28.5t52 -33.5t31.5 -43t10.5 -56q0 -43 -22.5 -78
t-60.5 -58v-3zM198 392q-36 -19 -54 -52.5t-18 -71.5q0 -35 24.5 -56.5t83.5 -41.5l105 -36q30 17 52 46t22 70q0 22 -8 39t-24.5 30t-41.5 24t-59 22z" />
    <glyph glyph-name="dieresis" unicode="&#xa8;" 
d="M166 626q0 17 11 28.5t28 11.5q16 0 27 -11.5t11 -28.5t-11 -28t-27 -11q-17 0 -28 11t-11 28zM344 626q0 17 11 28.5t28 11.5q16 0 27 -11.5t11 -28.5t-11 -28t-27 -11q-17 0 -28 11t-11 28z" />
    <glyph glyph-name="copyright" unicode="&#xa9;" horiz-adv-x="836" 
d="M773 340q0 -75 -27 -140t-75 -113t-113 -75t-140 -27t-140 27t-113 75t-75 113t-27 140t27 140t75 113t113 75t140 27t140 -27t113 -75t75 -113t27 -140zM110 340q0 -68 22.5 -125t63 -98t97.5 -64.5t125 -23.5t125 23.5t97.5 64.5t63 98t22.5 125q0 67 -22.5 124.5
t-63 98.5t-97.5 64.5t-125 23.5t-125 -23.5t-97.5 -64.5t-63 -98.5t-22.5 -124.5zM295 340q0 -69 30.5 -109.5t97.5 -40.5q23 0 44.5 3.5t44.5 13.5l15 -38q-53 -24 -104 -24q-88 0 -132 53.5t-44 141.5t44 141.5t132 53.5q51 0 104 -24l-15 -38q-23 10 -44.5 13.5
t-44.5 3.5q-67 0 -97.5 -40.5t-30.5 -109.5z" />
    <glyph glyph-name="ordfeminine" unicode="&#xaa;" horiz-adv-x="370" 
d="M219 490q-66 0 -89.5 -13t-23.5 -42q0 -23 17.5 -36.5t46.5 -13.5q23 0 47.5 9t44.5 22v74h-43zM271 348l-5 28q-47 -34 -105 -34q-20 0 -38.5 5.5t-32.5 16.5t-22.5 29t-8.5 42q0 28 11.5 46.5t31.5 29t47.5 15t59.5 4.5h53v17q0 23 -7.5 37.5t-19 22.5t-25 10.5
t-25.5 2.5q-21 0 -45 -7t-41 -20l-23 34q20 16 47.5 26t61.5 10q69 0 95.5 -35t26.5 -95v-185h-36zM63 228v43h247v-43h-247z" />
    <glyph glyph-name="guillemotleft" unicode="&#xab;" horiz-adv-x="462" 
d="M48 271l149 204l34 -25l-132 -180l130 -180l-32 -25l-149 204v2zM221 271l149 204l34 -25l-132 -180l130 -180l-32 -25l-149 204v2z" />
    <glyph glyph-name="logicalnot" unicode="&#xac;" 
d="M470 248h-397v43h445v-176h-48v133z" />
    <glyph glyph-name="uni00AD" unicode="&#xad;" horiz-adv-x="395" 
d="M78 250v43h239v-43h-239z" />
    <glyph glyph-name="registered" unicode="&#xae;" horiz-adv-x="568" 
d="M95 561q0 -41 14.5 -75.5t39.5 -60.5t59.5 -40.5t75.5 -14.5q40 0 75 14.5t60 40.5t39.5 60.5t14.5 75.5q0 40 -14.5 75t-39.5 61t-60 40.5t-75 14.5q-41 0 -75.5 -14.5t-59.5 -40.5t-39.5 -61t-14.5 -75zM202 455v218h87q34 0 53.5 -15.5t19.5 -48.5q0 -50 -49 -61
l65 -90v-3h-43l-61 90h-33v-90h-39zM278 579q26 0 35.5 6.5t9.5 23.5t-9.5 23.5t-35.5 6.5h-37v-60h37zM56 561q0 49 17.5 90.5t48 72.5t72.5 48.5t90 17.5t90 -17.5t72.5 -48.5t48 -72.5t17.5 -90.5t-17.5 -91t-48 -72.5t-72.5 -48t-90 -17.5t-90 17.5t-72.5 48t-48 72.5
t-17.5 91z" />
    <glyph glyph-name="macron" unicode="&#xaf;" 
d="M174 596v43h239v-43h-239z" />
    <glyph glyph-name="degree" unicode="&#xb0;" horiz-adv-x="406" 
d="M106 553q0 -45 27 -72t70 -27t70 27t27 72t-27 72t-70 27t-70 -27t-27 -72zM58 553q0 31 10.5 57t30 45t46 29.5t58.5 10.5t58.5 -10.5t46 -29.5t30 -45t10.5 -57t-10.5 -57t-30 -45t-46 -29.5t-58.5 -10.5t-58.5 10.5t-46 29.5t-30 45t-10.5 57z" />
    <glyph glyph-name="plusminus" unicode="&#xb1;" 
d="M517 43v-43h-444v43h444zM319 420h198v-43h-198v-216h-48v216h-198v43h198v216h48v-216z" />
    <glyph glyph-name="uni00B2" unicode="&#xb2;" horiz-adv-x="291" 
d="M101 513h152v-37h-218v32l116 107q21 19 36.5 40t15.5 47q0 30 -18 48.5t-50 18.5q-24 0 -44 -11.5t-34 -24.5l-23 30q14 14 39.5 29.5t61.5 15.5q54 0 83 -29t29 -74q0 -35 -14.5 -58t-36.5 -45l-95 -88v-1z" />
    <glyph glyph-name="uni00B3" unicode="&#xb3;" horiz-adv-x="299" 
d="M78 659h52q42 0 60 15.5t18 37.5q0 29 -18.5 43t-52.5 14q-19 0 -41 -4.5t-41 -14.5l-14 35q20 11 47.5 17t51.5 6q51 0 81.5 -23.5t30.5 -65.5q0 -29 -16 -48.5t-38 -27.5v-1q26 -9 43 -27.5t17 -50.5q0 -45 -34 -70.5t-89 -25.5q-32 0 -58 7t-45 17l13 36q19 -9 43 -15
t46 -6q32 0 56 12.5t24 46.5q0 26 -20.5 41t-65.5 15h-50v37z" />
    <glyph glyph-name="acute" unicode="&#xb4;" 
d="M342 691l-59 -110h-43v5l48 110h54v-5z" />
    <glyph glyph-name="mu" unicode="&#xb5;" horiz-adv-x="549" 
d="M83 -198v680h48v-299q0 -79 30 -116t96 -37q54 0 94.5 19.5t66.5 39.5v393h48v-482h-39l-5 44h-2q-11 -8 -27 -18t-37 -19t-46.5 -15.5t-55.5 -6.5q-87 0 -123 51v-234h-48z" />
    <glyph glyph-name="paragraph" unicode="&#xb6;" horiz-adv-x="495" 
d="M150 465q-23 0 -44 6.5t-37 20t-25 33.5t-9 46q0 28 9 48.5t25 34t37 20t44 6.5h313v-45h-100v-833h-48v833h-117v-833h-48v663z" />
    <glyph glyph-name="periodcentered" unicode="&#xb7;" horiz-adv-x="246" 
d="M79 289q0 20 12.5 32t31.5 12t31.5 -12t12.5 -32t-12.5 -32t-31.5 -12t-31.5 12t-12.5 32z" />
    <glyph glyph-name="cedilla" unicode="&#xb8;" 
d="M268 -80l22 87h45l-17 -57q29 -3 51 -20t22 -53q0 -46 -29 -68t-71 -22q-32 0 -52 7.5t-28 12.5l14 40q12 -8 29.5 -13t36.5 -5q23 0 36.5 11.5t13.5 36.5q0 23 -17.5 30.5t-51.5 7.5z" />
    <glyph glyph-name="uni00B9" unicode="&#xb9;" horiz-adv-x="219" 
d="M25 707v39l110 54h34v-324h-42v277h-1l-96 -46h-5z" />
    <glyph glyph-name="ordmasculine" unicode="&#xba;" horiz-adv-x="379" 
d="M90 502q0 -25 5.5 -46.5t17.5 -37.5t31 -25t45 -9q52 0 75.5 34t23.5 84q0 25 -5.5 46.5t-17.5 37.5t-31 25t-45 9t-45 -9t-31 -25t-17.5 -37.5t-5.5 -46.5zM67 228v43h247v-43h-247zM43 502q0 33 8.5 62.5t26 51t45 34.5t66.5 13q38 0 65.5 -13t45.5 -34.5t26.5 -51
t8.5 -62.5t-8.5 -62.5t-26 -51t-45 -34.5t-66.5 -13t-66.5 13t-45 34.5t-26 51t-8.5 62.5z" />
    <glyph glyph-name="guillemotright" unicode="&#xbb;" horiz-adv-x="462" 
d="M241 269l-149 -204l-32 25l130 180l-132 180l34 25l149 -204v-2zM414 269l-149 -204l-32 25l130 180l-132 180l34 25l149 -204v-2z" />
    <glyph glyph-name="onequarter" unicode="&#xbc;" horiz-adv-x="640" 
d="M84 0v5l395 675h48v-5l-395 -675h-48zM42 587v39l110 54h34v-324h-42v277h-1l-96 -46h-5zM547 245v-136h51v-37h-51v-72h-42v72h-170v29l90 223h44l-85 -214v-1h121v136h42z" />
    <glyph glyph-name="onehalf" unicode="&#xbd;" horiz-adv-x="660" 
d="M84 0v5l395 675h48v-5l-395 -675h-48zM42 587v39l110 54h34v-324h-42v277h-1l-96 -46h-5zM457 37h152v-37h-218v32l116 107q21 19 36.5 40t15.5 47q0 30 -18 48.5t-50 18.5q-24 0 -44 -11.5t-34 -24.5l-23 30q14 14 39.5 29.5t61.5 15.5q54 0 83 -29t29 -74
q0 -35 -14.5 -58t-36.5 -45l-95 -88v-1z" />
    <glyph glyph-name="threequarters" unicode="&#xbe;" horiz-adv-x="707" 
d="M151 0v5l395 675h48v-5l-395 -675h-48zM614 245v-136h51v-37h-51v-72h-42v72h-170v29l90 223h44l-85 -214v-1h121v136h42zM96 536h52q42 0 60 15.5t18 37.5q0 29 -18.5 43t-52.5 14q-19 0 -41 -4.5t-41 -14.5l-14 35q20 11 47.5 17t51.5 6q51 0 81.5 -23.5t30.5 -65.5
q0 -29 -16 -48.5t-38 -27.5v-1q26 -9 43 -27.5t17 -50.5q0 -45 -34 -70.5t-89 -25.5q-32 0 -58 7t-45 17l13 36q19 -9 43 -15t46 -6q32 0 56 12.5t24 46.5q0 26 -20.5 41t-65.5 15h-50v37z" />
    <glyph glyph-name="questiondown" unicode="&#xbf;" horiz-adv-x="426" 
d="M392.976 -148.991q-29.998 -24.998 -68.4951 -44.4971q-38.498 -19.499 -93.4941 -19.499q-44.998 0 -79.9951 14.999q-34.998 14.999 -58.4971 40.498q-23.498 25.498 -35.498 59.4961q-11.999 33.998 -11.999 71.9961q0 47.9971 16.999 82.4941
q16.999 34.498 43.4971 58.4971q26.499 23.998 57.4971 38.9971t57.9961 23.999l6 109.993h38.9971l3 -141.991q-34.998 -10.999 -65.9961 -24.499q-30.998 -13.499 -54.4961 -33.498q-23.499 -19.998 -37.498 -47.4971q-13.999 -27.498 -13.999 -65.4951
q0 -59.9971 33.498 -99.9941q33.498 -39.998 100.494 -39.998q42.9971 0 75.4951 14.999t61.4961 38.998zM290.982 452.973q0 -19.999 -12.499 -31.998q-12.5 -12 -31.498 -12q-18.999 0 -31.498 12q-12.5 11.999 -12.5 31.998q0 19.998 12.5 31.998
q12.499 11.999 31.498 11.999q18.998 0 31.498 -11.999q12.499 -12 12.499 -31.998z" />
    <glyph glyph-name="Agrave" unicode="&#xc0;" horiz-adv-x="587" 
d="M568 0h-53l-66 184h-311l-66 -184h-53l249 680h51zM293 614l-138 -384h277l-138 384h-1zM210 859h56l48 -110v-5h-45l-59 110v5z" />
    <glyph glyph-name="Aacute" unicode="&#xc1;" horiz-adv-x="587" 
d="M568 0h-53l-66 184h-311l-66 -184h-53l249 680h51zM293 614l-138 -384h277l-138 384h-1zM376 854l-59 -110h-45v5l48 110h56v-5z" />
    <glyph glyph-name="Acircumflex" unicode="&#xc2;" horiz-adv-x="587" 
d="M568 0h-53l-66 184h-311l-66 -184h-53l249 680h51zM293 614l-138 -384h277l-138 384h-1zM415 749v-5h-52l-68 73l-68 -73h-52v5l102 110h36z" />
    <glyph glyph-name="Atilde" unicode="&#xc3;" horiz-adv-x="587" 
d="M568 0h-53l-66 184h-311l-66 -184h-53l249 680h51zM293 614l-138 -384h277l-138 384h-1zM345 804q17 0 29 8t26 27l23 -29q-15 -23 -34 -36t-44 -13q-14 0 -28 6t-27 13.5t-24.5 13.5t-20.5 6q-17 0 -29 -8t-26 -27l-23 29q15 23 34 36t44 13q14 0 28 -6t27 -13.5
t24.5 -13.5t20.5 -6z" />
    <glyph glyph-name="Adieresis" unicode="&#xc4;" horiz-adv-x="587" 
d="M568 0h-53l-66 184h-311l-66 -184h-53l249 680h51zM293 614l-138 -384h277l-138 384h-1zM167 801q0 17 11 28.5t28 11.5q16 0 27 -11.5t11 -28.5t-11 -28t-27 -11q-17 0 -28 11t-11 28zM345 801q0 17 11 28.5t28 11.5q16 0 27 -11.5t11 -28.5t-11 -28t-27 -11
q-17 0 -28 11t-11 28z" />
    <glyph glyph-name="Aring" unicode="&#xc5;" horiz-adv-x="587" 
d="M212 725q0 36 23 57.5t59 21.5t59 -21.5t23 -57.5t-23 -58q-11 -10 -24 -15l239 -652h-53l-66 184h-311l-66 -184h-53l239 652q-13 6 -23 15q-23 22 -23 58zM293 614l-138 -384h277l-138 384h-1zM248 725q0 -21 12.5 -32.5t33.5 -11.5t33.5 11.5t12.5 32.5t-12.5 32.5
t-33.5 11.5t-33.5 -11.5t-12.5 -32.5z" />
    <glyph glyph-name="AE" unicode="&#xc6;" horiz-adv-x="866" 
d="M803 0h-412v198h-237l-110 -198h-55v5l383 675h428v-47h-359v-260h329v-47h-329v-279h362v-47zM389 620l-209 -376h211v376h-2z" />
    <glyph glyph-name="Ccedilla" unicode="&#xc7;" horiz-adv-x="580" 
d="M66 340q0 80 17 145.5t53 112t92.5 72t135.5 25.5q42 0 87 -12t82 -33l-19 -42q-38 21 -77 30t-73 9q-66 0 -112.5 -21.5t-76.5 -61.5t-43.5 -97t-13.5 -127q0 -71 13.5 -127.5t43.5 -96.5t76.5 -61.5t112.5 -21.5q34 0 73 9t77 30l19 -42q-37 -21 -82 -33t-87 -12
q-79 0 -135.5 25.5t-92.5 72t-53 112t-17 145.5zM304 -80l22 87h45l-17 -57q29 -3 51 -20t22 -53q0 -46 -29 -68t-71 -22q-32 0 -52 7.5t-28 12.5l14 40q12 -8 29.5 -13t36.5 -5q23 0 36.5 11.5t13.5 36.5q0 23 -17.5 30.5t-51.5 7.5z" />
    <glyph glyph-name="Egrave" unicode="&#xc8;" horiz-adv-x="574" 
d="M508 680v-47h-359v-260h329v-47h-329v-279h362v-47h-412v680h409zM231 859h56l48 -110v-5h-45l-59 110v5z" />
    <glyph glyph-name="Eacute" unicode="&#xc9;" horiz-adv-x="574" 
d="M508 680v-47h-359v-260h329v-47h-329v-279h362v-47h-412v680h409zM387 854l-59 -110h-45v5l48 110h56v-5z" />
    <glyph glyph-name="Ecircumflex" unicode="&#xca;" horiz-adv-x="574" 
d="M508 680v-47h-359v-260h329v-47h-329v-279h362v-47h-412v680h409zM428 749v-5h-52l-68 73l-68 -73h-52v5l102 110h36z" />
    <glyph glyph-name="Edieresis" unicode="&#xcb;" horiz-adv-x="574" 
d="M508 680v-47h-359v-260h329v-47h-329v-279h362v-47h-412v680h409zM180 801q0 17 11 28.5t28 11.5q16 0 27 -11.5t11 -28.5t-11 -28t-27 -11q-17 0 -28 11t-11 28zM358 801q0 17 11 28.5t28 11.5q16 0 27 -11.5t11 -28.5t-11 -28t-27 -11q-17 0 -28 11t-11 28z" />
    <glyph glyph-name="Igrave" unicode="&#xcc;" horiz-adv-x="247" 
d="M148 0h-49v680h49v-680zM40 859h56l48 -110v-5h-45l-59 110v5z" />
    <glyph glyph-name="Iacute" unicode="&#xcd;" horiz-adv-x="247" 
d="M148 0h-49v680h49v-680zM208 854l-59 -110h-45v5l48 110h56v-5z" />
    <glyph glyph-name="Icircumflex" unicode="&#xce;" horiz-adv-x="247" 
d="M148 0h-49v680h49v-680zM244 749v-5h-52l-68 73l-68 -73h-52v5l102 110h36z" />
    <glyph glyph-name="Idieresis" unicode="&#xcf;" horiz-adv-x="247" 
d="M148 0h-49v680h49v-680zM-4 801q0 17 11 28.5t28 11.5q16 0 27 -11.5t11 -28.5t-11 -28t-27 -11q-17 0 -28 11t-11 28zM174 801q0 17 11 28.5t28 11.5q16 0 27 -11.5t11 -28.5t-11 -28t-27 -11q-17 0 -28 11t-11 28z" />
    <glyph glyph-name="Eth" unicode="&#xd0;" horiz-adv-x="668" 
d="M100 312h-53v47h53v321h160q94 0 159.5 -22t106 -65.5t58.5 -107t18 -145.5q0 -83 -18 -146t-58.5 -106.5t-106 -65.5t-159.5 -22h-160v312zM253 47q85 0 142.5 17.5t92 53.5t49 91.5t14.5 130.5t-14.5 130.5t-49 91.5t-92 53.5t-142.5 17.5h-103v-274h178v-47h-178v-265
h103z" />
    <glyph glyph-name="Ntilde" unicode="&#xd1;" horiz-adv-x="690" 
d="M542 92v588h49v-680h-48l-392 589h-2v-589h-50v680h48l393 -588h2zM397 804q17 0 29 8t26 27l23 -29q-15 -23 -34 -36t-44 -13q-14 0 -28 6t-27 13.5t-24.5 13.5t-20.5 6q-17 0 -29 -8t-26 -27l-23 29q15 23 34 36t44 13q14 0 28 -6t27 -13.5t24.5 -13.5t20.5 -6z" />
    <glyph glyph-name="Ograve" unicode="&#xd2;" horiz-adv-x="696" 
d="M118 340q0 -64 11 -120t37.5 -97.5t71 -65.5t110.5 -24t110.5 24t71 65.5t37.5 97.5t11 120t-11 120t-37.5 97.5t-71 65.5t-110.5 24t-110.5 -24t-71 -65.5t-37.5 -97.5t-11 -120zM630 340q0 -77 -15.5 -142t-49.5 -112.5t-87.5 -74t-129.5 -26.5t-129.5 26.5t-87.5 74
t-49.5 112.5t-15.5 142t15.5 142t49.5 112.5t87.5 74t129.5 26.5t129.5 -26.5t87.5 -74t49.5 -112.5t15.5 -142zM276 859h56l48 -110v-5h-45l-59 110v5z" />
    <glyph glyph-name="Oacute" unicode="&#xd3;" horiz-adv-x="696" 
d="M118 340q0 -64 11 -120t37.5 -97.5t71 -65.5t110.5 -24t110.5 24t71 65.5t37.5 97.5t11 120t-11 120t-37.5 97.5t-71 65.5t-110.5 24t-110.5 -24t-71 -65.5t-37.5 -97.5t-11 -120zM630 340q0 -77 -15.5 -142t-49.5 -112.5t-87.5 -74t-129.5 -26.5t-129.5 26.5t-87.5 74
t-49.5 112.5t-15.5 142t15.5 142t49.5 112.5t87.5 74t129.5 26.5t129.5 -26.5t87.5 -74t49.5 -112.5t15.5 -142zM425 854l-59 -110h-45v5l48 110h56v-5z" />
    <glyph glyph-name="Ocircumflex" unicode="&#xd4;" horiz-adv-x="696" 
d="M118 340q0 -64 11 -120t37.5 -97.5t71 -65.5t110.5 -24t110.5 24t71 65.5t37.5 97.5t11 120t-11 120t-37.5 97.5t-71 65.5t-110.5 24t-110.5 -24t-71 -65.5t-37.5 -97.5t-11 -120zM630 340q0 -77 -15.5 -142t-49.5 -112.5t-87.5 -74t-129.5 -26.5t-129.5 26.5t-87.5 74
t-49.5 112.5t-15.5 142t15.5 142t49.5 112.5t87.5 74t129.5 26.5t129.5 -26.5t87.5 -74t49.5 -112.5t15.5 -142zM468 749v-5h-52l-68 73l-68 -73h-52v5l102 110h36z" />
    <glyph glyph-name="Otilde" unicode="&#xd5;" horiz-adv-x="696" 
d="M118 340q0 -64 11 -120t37.5 -97.5t71 -65.5t110.5 -24t110.5 24t71 65.5t37.5 97.5t11 120t-11 120t-37.5 97.5t-71 65.5t-110.5 24t-110.5 -24t-71 -65.5t-37.5 -97.5t-11 -120zM630 340q0 -77 -15.5 -142t-49.5 -112.5t-87.5 -74t-129.5 -26.5t-129.5 26.5t-87.5 74
t-49.5 112.5t-15.5 142t15.5 142t49.5 112.5t87.5 74t129.5 26.5t129.5 -26.5t87.5 -74t49.5 -112.5t15.5 -142zM398 804q17 0 29 8t26 27l23 -29q-15 -23 -34 -36t-44 -13q-14 0 -28 6t-27 13.5t-24.5 13.5t-20.5 6q-17 0 -29 -8t-26 -27l-23 29q15 23 34 36t44 13
q14 0 28 -6t27 -13.5t24.5 -13.5t20.5 -6z" />
    <glyph glyph-name="Odieresis" unicode="&#xd6;" horiz-adv-x="696" 
d="M118 340q0 -64 11 -120t37.5 -97.5t71 -65.5t110.5 -24t110.5 24t71 65.5t37.5 97.5t11 120t-11 120t-37.5 97.5t-71 65.5t-110.5 24t-110.5 -24t-71 -65.5t-37.5 -97.5t-11 -120zM630 340q0 -77 -15.5 -142t-49.5 -112.5t-87.5 -74t-129.5 -26.5t-129.5 26.5t-87.5 74
t-49.5 112.5t-15.5 142t15.5 142t49.5 112.5t87.5 74t129.5 26.5t129.5 -26.5t87.5 -74t49.5 -112.5t15.5 -142zM220 801q0 17 11 28.5t28 11.5q16 0 27 -11.5t11 -28.5t-11 -28t-27 -11q-17 0 -28 11t-11 28zM398 801q0 17 11 28.5t28 11.5q16 0 27 -11.5t11 -28.5t-11 -28
t-27 -11q-17 0 -28 11t-11 28z" />
    <glyph glyph-name="multiply" unicode="&#xd7;" 
d="M264 266l-167 167l30 32l168 -168l168 168l30 -32l-167 -167l167 -167l-32 -30l-166 166l-166 -166l-32 30z" />
    <glyph glyph-name="Oslash" unicode="&#xd8;" horiz-adv-x="696" 
d="M104 2l42 64q-43 48 -61.5 118t-18.5 156q0 77 15.5 142t49.5 112.5t87.5 74t129.5 26.5q56 0 99 -14.5t76 -41.5l41 63l38 -26l-46 -70q38 -48 56 -116t18 -150q0 -77 -15.5 -142t-49.5 -112.5t-87.5 -74t-129.5 -26.5q-54 0 -95 13t-73 37l-38 -58zM118 340
q0 -69 12.5 -128.5t44.5 -101.5l320 487q-26 24 -62 37t-85 13q-66 0 -110.5 -24t-71 -65.5t-37.5 -97.5t-11 -120zM578 340q0 66 -11.5 122.5t-40.5 98.5l-319 -484q26 -21 60.5 -32.5t80.5 -11.5q66 0 110.5 24t71 65.5t37.5 97.5t11 120z" />
    <glyph glyph-name="Ugrave" unicode="&#xd9;" horiz-adv-x="680" 
d="M144 680v-439q0 -99 51.5 -153.5t144.5 -54.5t144.5 54.5t51.5 153.5v439h50v-444q0 -115 -63 -183t-183 -68t-183 68t-63 183v444h50zM264 859h56l48 -110v-5h-45l-59 110v5z" />
    <glyph glyph-name="Uacute" unicode="&#xda;" horiz-adv-x="680" 
d="M144 680v-439q0 -99 51.5 -153.5t144.5 -54.5t144.5 54.5t51.5 153.5v439h50v-444q0 -115 -63 -183t-183 -68t-183 68t-63 183v444h50zM417 854l-59 -110h-45v5l48 110h56v-5z" />
    <glyph glyph-name="Ucircumflex" unicode="&#xdb;" horiz-adv-x="680" 
d="M144 680v-439q0 -99 51.5 -153.5t144.5 -54.5t144.5 54.5t51.5 153.5v439h50v-444q0 -115 -63 -183t-183 -68t-183 68t-63 183v444h50zM460 749v-5h-52l-68 73l-68 -73h-52v5l102 110h36z" />
    <glyph glyph-name="Udieresis" unicode="&#xdc;" horiz-adv-x="680" 
d="M144 680v-439q0 -99 51.5 -153.5t144.5 -54.5t144.5 54.5t51.5 153.5v439h50v-444q0 -115 -63 -183t-183 -68t-183 68t-63 183v444h50zM212 801q0 17 11 28.5t28 11.5q16 0 27 -11.5t11 -28.5t-11 -28t-27 -11q-17 0 -28 11t-11 28zM390 801q0 17 11 28.5t28 11.5
q16 0 27 -11.5t11 -28.5t-11 -28t-27 -11q-17 0 -28 11t-11 28z" />
    <glyph glyph-name="Yacute" unicode="&#xdd;" horiz-adv-x="534" 
d="M73 680l193 -335h2l193 335h55v-6l-224 -384v-290h-50v290l-224 384v6h55zM347 854l-59 -110h-45v5l48 110h56v-5z" />
    <glyph glyph-name="Thorn" unicode="&#xde;" horiz-adv-x="574" 
d="M99 0v680h50v-129h161q104 0 158.5 -50.5t54.5 -148.5t-55 -148t-158 -50h-161v-154h-50zM149 201h155q167 0 167 151q0 152 -167 152h-155v-303z" />
    <glyph glyph-name="germandbls" unicode="&#xdf;" horiz-adv-x="566" 
d="M84 476q0 113 46 171t143 58q42 0 74.5 -14.5t55 -39t34 -56.5t11.5 -66q0 -57 -20.5 -91.5t-55.5 -52.5v-2q30 -7 55.5 -21.5t44 -37.5t29 -56t10.5 -77q0 -51 -15.5 -89.5t-44 -64.5t-67.5 -39t-87 -13q-11 0 -26.5 1.5t-23.5 3.5v44q10 -2 24.5 -3t25.5 -1
q76 0 120 38.5t44 122.5q0 34 -9 64t-28.5 52.5t-51 36t-76.5 13.5h-30v42h29q48 0 75.5 33.5t27.5 96.5q0 24 -7.5 47.5t-23.5 42t-39.5 30t-54.5 11.5q-77 0 -109 -46.5t-32 -137.5v-476h-48v476z" />
    <glyph glyph-name="agrave" unicode="&#xe0;" horiz-adv-x="498" 
d="M469 -4q-8 -2 -18 -4t-23 -2q-52 0 -61 52h-2q-26 -22 -67.5 -39.5t-94.5 -17.5q-34 0 -62.5 10.5t-49 29t-32 45.5t-11.5 60q0 78 58.5 114t173.5 36h82v29q0 80 -36.5 111.5t-94.5 31.5q-45 0 -77 -13t-58 -33l-22 36q28 24 67 39.5t90 15.5q40 0 73 -10.5t56.5 -33.5
t36.5 -58.5t13 -85.5v-241q0 -18 6 -26.5t26 -8.5h27v-37zM287 238q-52 0 -88 -6.5t-58.5 -20t-32.5 -33.5t-10 -47q0 -48 30 -74.5t79 -26.5q48 0 86.5 16t68.5 39v153h-75zM168 696h54l48 -110v-5h-43l-59 110v5z" />
    <glyph glyph-name="aacute" unicode="&#xe1;" horiz-adv-x="498" 
d="M469 -4q-8 -2 -18 -4t-23 -2q-52 0 -61 52h-2q-26 -22 -67.5 -39.5t-94.5 -17.5q-34 0 -62.5 10.5t-49 29t-32 45.5t-11.5 60q0 78 58.5 114t173.5 36h82v29q0 80 -36.5 111.5t-94.5 31.5q-45 0 -77 -13t-58 -33l-22 36q28 24 67 39.5t90 15.5q40 0 73 -10.5t56.5 -33.5
t36.5 -58.5t13 -85.5v-241q0 -18 6 -26.5t26 -8.5h27v-37zM287 238q-52 0 -88 -6.5t-58.5 -20t-32.5 -33.5t-10 -47q0 -48 30 -74.5t79 -26.5q48 0 86.5 16t68.5 39v153h-75zM335 691l-59 -110h-43v5l48 110h54v-5z" />
    <glyph glyph-name="acircumflex" unicode="&#xe2;" horiz-adv-x="498" 
d="M469 -4q-8 -2 -18 -4t-23 -2q-52 0 -61 52h-2q-26 -22 -67.5 -39.5t-94.5 -17.5q-34 0 -62.5 10.5t-49 29t-32 45.5t-11.5 60q0 78 58.5 114t173.5 36h82v29q0 80 -36.5 111.5t-94.5 31.5q-45 0 -77 -13t-58 -33l-22 36q28 24 67 39.5t90 15.5q40 0 73 -10.5t56.5 -33.5
t36.5 -58.5t13 -85.5v-241q0 -18 6 -26.5t26 -8.5h27v-37zM287 238q-52 0 -88 -6.5t-58.5 -20t-32.5 -33.5t-10 -47q0 -48 30 -74.5t79 -26.5q48 0 86.5 16t68.5 39v153h-75zM367 586v-5h-51l-69 73l-69 -73h-51v5l102 110h36z" />
    <glyph glyph-name="atilde" unicode="&#xe3;" horiz-adv-x="498" 
d="M469 -4q-8 -2 -18 -4t-23 -2q-52 0 -61 52h-2q-26 -22 -67.5 -39.5t-94.5 -17.5q-34 0 -62.5 10.5t-49 29t-32 45.5t-11.5 60q0 78 58.5 114t173.5 36h82v29q0 80 -36.5 111.5t-94.5 31.5q-45 0 -77 -13t-58 -33l-22 36q28 24 67 39.5t90 15.5q40 0 73 -10.5t56.5 -33.5
t36.5 -58.5t13 -85.5v-241q0 -18 6 -26.5t26 -8.5h27v-37zM287 238q-52 0 -88 -6.5t-58.5 -20t-32.5 -33.5t-10 -47q0 -48 30 -74.5t79 -26.5q48 0 86.5 16t68.5 39v153h-75zM298 622q17 0 29 8.5t26 27.5l23 -29q-15 -23 -34 -35.5t-44 -12.5q-14 0 -28 6t-27 13.5
t-24.5 13.5t-20.5 6q-17 0 -29 -8.5t-26 -27.5l-23 29q15 23 34 35.5t44 12.5q14 0 28 -6t26.5 -13.5t24.5 -13.5t21 -6z" />
    <glyph glyph-name="adieresis" unicode="&#xe4;" horiz-adv-x="498" 
d="M469 -4q-8 -2 -18 -4t-23 -2q-52 0 -61 52h-2q-26 -22 -67.5 -39.5t-94.5 -17.5q-34 0 -62.5 10.5t-49 29t-32 45.5t-11.5 60q0 78 58.5 114t173.5 36h82v29q0 80 -36.5 111.5t-94.5 31.5q-45 0 -77 -13t-58 -33l-22 36q28 24 67 39.5t90 15.5q40 0 73 -10.5t56.5 -33.5
t36.5 -58.5t13 -85.5v-241q0 -18 6 -26.5t26 -8.5h27v-37zM287 238q-52 0 -88 -6.5t-58.5 -20t-32.5 -33.5t-10 -47q0 -48 30 -74.5t79 -26.5q48 0 86.5 16t68.5 39v153h-75zM121 626q0 17 11 28.5t28 11.5q16 0 27 -11.5t11 -28.5t-11 -28t-27 -11q-17 0 -28 11t-11 28z
M299 626q0 17 11 28.5t28 11.5q16 0 27 -11.5t11 -28.5t-11 -28t-27 -11q-17 0 -28 11t-11 28z" />
    <glyph glyph-name="aring" unicode="&#xe5;" horiz-adv-x="498" 
d="M469 -4q-8 -2 -18 -4t-23 -2q-52 0 -61 52h-2q-26 -22 -67.5 -39.5t-94.5 -17.5q-34 0 -62.5 10.5t-49 29t-32 45.5t-11.5 60q0 78 58.5 114t173.5 36h82v29q0 80 -36.5 111.5t-94.5 31.5q-45 0 -77 -13t-58 -33l-22 36q28 24 67 39.5t90 15.5q40 0 73 -10.5t56.5 -33.5
t36.5 -58.5t13 -85.5v-241q0 -18 6 -26.5t26 -8.5h27v-37zM287 238q-52 0 -88 -6.5t-58.5 -20t-32.5 -33.5t-10 -47q0 -48 30 -74.5t79 -26.5q48 0 86.5 16t68.5 39v153h-75zM202 622q0 -21 12.5 -32.5t33.5 -11.5t33.5 11.5t12.5 32.5t-12.5 32.5t-33.5 11.5t-33.5 -11.5
t-12.5 -32.5zM166 622q0 36 23 57.5t59 21.5t59 -21.5t23 -57.5t-23 -57.5t-59 -21.5t-59 21.5t-23 57.5z" />
    <glyph glyph-name="ae" unicode="&#xe6;" horiz-adv-x="823" 
d="M770 300q0 -16 -2 -34t-5 -32h-349q1 -44 11 -81.5t30 -64.5t52 -42.5t78 -15.5q49 0 80.5 14t59.5 34l22 -38q-30 -22 -67 -38.5t-96 -16.5q-77 0 -122.5 33t-69.5 86q-26 -57 -71.5 -88t-117.5 -31q-34 0 -62.5 10.5t-49 29t-32 45.5t-11.5 60q0 78 58.5 112.5
t173.5 34.5h85v32q0 40 -10 67.5t-28 44t-42.5 24t-53.5 7.5q-45 0 -77 -13t-58 -33l-22 36q28 24 67 39.5t90 15.5q63 0 105.5 -25.5t61.5 -83.5q26 52 69 80.5t107 28.5q52 0 89 -16t61 -43t35 -63t11 -75zM287 235q-52 0 -88 -6.5t-58.5 -19t-32.5 -32t-10 -46.5
q0 -48 30 -74.5t79 -26.5q31 0 60 10t50.5 31t34.5 54t13 79v31h-78zM719 277q1 8 1 14.5v11.5q0 65 -35 107t-111 42q-70 0 -110.5 -45.5t-48.5 -129.5h304z" />
    <glyph glyph-name="ccedilla" unicode="&#xe7;" horiz-adv-x="470" 
d="M57 241q0 55 14 102t41.5 81t68.5 53.5t95 19.5q37 0 74.5 -8t72.5 -28l-17 -40q-29 15 -63 23t-67 8q-44 0 -76 -17t-52.5 -46t-30.5 -67.5t-10 -80.5t10 -80.5t30.5 -67.5t52.5 -46t76 -17q33 0 67 8t63 23l17 -40q-35 -20 -72.5 -28t-74.5 -8q-54 0 -95 19.5
t-68.5 53.5t-41.5 81t-14 102zM227 -80l22 87h45l-17 -57q29 -3 51 -20t22 -53q0 -46 -29 -68t-71 -22q-32 0 -52 7.5t-28 12.5l14 40q12 -8 29.5 -13t36.5 -5q23 0 36.5 11.5t13.5 36.5q0 23 -17.5 30.5t-51.5 7.5z" />
    <glyph glyph-name="egrave" unicode="&#xe8;" horiz-adv-x="527" 
d="M106 232q1 -44 12 -81t33 -64t55.5 -42t79.5 -15q49 0 82.5 14t61.5 34l22 -38q-30 -22 -69 -38.5t-98 -16.5q-60 0 -103 20t-71 54.5t-41 81.5t-13 102t15.5 101.5t44 80.5t68.5 53t90 19q51 0 88.5 -16.5t62 -44t37 -63.5t12.5 -75q0 -16 -2 -34t-5 -32h-362zM275 452
q-70 0 -115 -46.5t-53 -130.5h317q1 8 1 14.5v11.5q0 33 -9 60.5t-28 47.5t-47 31.5t-66 11.5zM200 696h54l48 -110v-5h-43l-59 110v5z" />
    <glyph glyph-name="eacute" unicode="&#xe9;" horiz-adv-x="527" 
d="M106 232q1 -44 12 -81t33 -64t55.5 -42t79.5 -15q49 0 82.5 14t61.5 34l22 -38q-30 -22 -69 -38.5t-98 -16.5q-60 0 -103 20t-71 54.5t-41 81.5t-13 102t15.5 101.5t44 80.5t68.5 53t90 19q51 0 88.5 -16.5t62 -44t37 -63.5t12.5 -75q0 -16 -2 -34t-5 -32h-362zM275 452
q-70 0 -115 -46.5t-53 -130.5h317q1 8 1 14.5v11.5q0 33 -9 60.5t-28 47.5t-47 31.5t-66 11.5zM351 691l-59 -110h-43v5l48 110h54v-5z" />
    <glyph glyph-name="ecircumflex" unicode="&#xea;" horiz-adv-x="527" 
d="M106 232q1 -44 12 -81t33 -64t55.5 -42t79.5 -15q49 0 82.5 14t61.5 34l22 -38q-30 -22 -69 -38.5t-98 -16.5q-60 0 -103 20t-71 54.5t-41 81.5t-13 102t15.5 101.5t44 80.5t68.5 53t90 19q51 0 88.5 -16.5t62 -44t37 -63.5t12.5 -75q0 -16 -2 -34t-5 -32h-362zM275 452
q-70 0 -115 -46.5t-53 -130.5h317q1 8 1 14.5v11.5q0 33 -9 60.5t-28 47.5t-47 31.5t-66 11.5zM396 586v-5h-51l-69 73l-69 -73h-51v5l102 110h36z" />
    <glyph glyph-name="edieresis" unicode="&#xeb;" horiz-adv-x="527" 
d="M106 232q1 -44 12 -81t33 -64t55.5 -42t79.5 -15q49 0 82.5 14t61.5 34l22 -38q-30 -22 -69 -38.5t-98 -16.5q-60 0 -103 20t-71 54.5t-41 81.5t-13 102t15.5 101.5t44 80.5t68.5 53t90 19q51 0 88.5 -16.5t62 -44t37 -63.5t12.5 -75q0 -16 -2 -34t-5 -32h-362zM275 452
q-70 0 -115 -46.5t-53 -130.5h317q1 8 1 14.5v11.5q0 33 -9 60.5t-28 47.5t-47 31.5t-66 11.5zM149 626q0 17 11 28.5t28 11.5q16 0 27 -11.5t11 -28.5t-11 -28t-27 -11q-17 0 -28 11t-11 28zM327 626q0 17 11 28.5t28 11.5q16 0 27 -11.5t11 -28.5t-11 -28t-27 -11
q-17 0 -28 11t-11 28z" />
    <glyph glyph-name="igrave" unicode="&#xec;" horiz-adv-x="217" 
d="M26 696h54l48 -110v-5h-43l-59 110v5zM85 0v482h48v-482h-48z" />
    <glyph glyph-name="iacute" unicode="&#xed;" horiz-adv-x="217" 
d="M190 691l-59 -110h-43v5l48 110h54v-5zM84 0v482h48v-482h-48z" />
    <glyph glyph-name="icircumflex" unicode="&#xee;" horiz-adv-x="218" 
d="M85 0v482h48v-482h-48zM229 586v-5h-51l-69 73l-69 -73h-51v5l102 110h36z" />
    <glyph glyph-name="idieresis" unicode="&#xef;" horiz-adv-x="218" 
d="M-18 626q0 17 11 28.5t28 11.5q16 0 27 -11.5t11 -28.5t-11 -28t-27 -11q-17 0 -28 11t-11 28zM160 626q0 17 11 28.5t28 11.5q16 0 27 -11.5t11 -28.5t-11 -28t-27 -11q-17 0 -28 11t-11 28zM85 0v482h48v-482h-48z" />
    <glyph glyph-name="eth" unicode="&#xf0;" horiz-adv-x="575" 
d="M427 626l-74 -26q34 -37 64 -79.5t52.5 -90t35.5 -99t13 -107.5q0 -52 -16.5 -95.5t-46.5 -75.5t-73 -50t-95 -18q-53 0 -95.5 17.5t-72.5 49.5t-46.5 75.5t-16.5 96.5q0 54 16.5 98t45.5 75.5t70 48.5t90 17q46 0 87 -14.5t65 -43.5l2 2q-17 43 -49.5 88.5t-73.5 88.5
l-108 -37l-16 38l92 32q-23 22 -47 41.5t-47 36.5v5h64q19 -16 37.5 -32.5t37.5 -35.5l89 31zM106 224q0 -44 13 -79.5t37 -61t57.5 -39.5t73.5 -14t73.5 14t57.5 39.5t37 61t13 79.5t-13 79.5t-37 61t-57.5 39.5t-73.5 14t-73.5 -14t-57.5 -39.5t-37 -61t-13 -79.5z" />
    <glyph glyph-name="ntilde" unicode="&#xf1;" horiz-adv-x="555" 
d="M123 482l5 -44h2q11 9 28 19t39 19t48 15t56 6q86 0 130 -48t44 -142v-307h-48v299q0 79 -32 116t-98 37q-54 0 -96.5 -19.5t-68.5 -39.5v-393h-48v482h39zM337 622q17 0 29 8.5t26 27.5l23 -29q-15 -23 -34 -35.5t-44 -12.5q-14 0 -28 6t-27 13.5t-24.5 13.5t-20.5 6
q-17 0 -29 -8.5t-26 -27.5l-23 29q15 23 34 35.5t44 12.5q14 0 28 -6t26.5 -13.5t24.5 -13.5t21 -6z" />
    <glyph glyph-name="ograve" unicode="&#xf2;" horiz-adv-x="562" 
d="M107 241q0 -39 7.5 -77t27 -67.5t53 -48t86.5 -18.5q52 0 86 18.5t53.5 48t27 67.5t7.5 77t-7.5 77t-27 67.5t-53.5 48t-86 18.5q-53 0 -86.5 -18.5t-53 -48t-27 -67.5t-7.5 -77zM505 241q0 -50 -11 -96t-37 -81.5t-69 -57t-107 -21.5t-107 21.5t-69 57t-37 81.5t-11 96
q0 49 11 95.5t37 82t69 57t107 21.5t107 -21.5t69 -57t37 -82t11 -95.5zM206 696h54l48 -110v-5h-43l-59 110v5z" />
    <glyph glyph-name="oacute" unicode="&#xf3;" horiz-adv-x="562" 
d="M107 241q0 -39 7.5 -77t27 -67.5t53 -48t86.5 -18.5q52 0 86 18.5t53.5 48t27 67.5t7.5 77t-7.5 77t-27 67.5t-53.5 48t-86 18.5q-53 0 -86.5 -18.5t-53 -48t-27 -67.5t-7.5 -77zM505 241q0 -50 -11 -96t-37 -81.5t-69 -57t-107 -21.5t-107 21.5t-69 57t-37 81.5t-11 96
q0 49 11 95.5t37 82t69 57t107 21.5t107 -21.5t69 -57t37 -82t11 -95.5zM357 691l-59 -110h-43v5l48 110h54v-5z" />
    <glyph glyph-name="ocircumflex" unicode="&#xf4;" horiz-adv-x="562" 
d="M107 241q0 -39 7.5 -77t27 -67.5t53 -48t86.5 -18.5q52 0 86 18.5t53.5 48t27 67.5t7.5 77t-7.5 77t-27 67.5t-53.5 48t-86 18.5q-53 0 -86.5 -18.5t-53 -48t-27 -67.5t-7.5 -77zM505 241q0 -50 -11 -96t-37 -81.5t-69 -57t-107 -21.5t-107 21.5t-69 57t-37 81.5t-11 96
q0 49 11 95.5t37 82t69 57t107 21.5t107 -21.5t69 -57t37 -82t11 -95.5zM402 586v-5h-51l-69 73l-69 -73h-51v5l102 110h36z" />
    <glyph glyph-name="otilde" unicode="&#xf5;" horiz-adv-x="562" 
d="M107 241q0 -39 7.5 -77t27 -67.5t53 -48t86.5 -18.5q52 0 86 18.5t53.5 48t27 67.5t7.5 77t-7.5 77t-27 67.5t-53.5 48t-86 18.5q-53 0 -86.5 -18.5t-53 -48t-27 -67.5t-7.5 -77zM505 241q0 -50 -11 -96t-37 -81.5t-69 -57t-107 -21.5t-107 21.5t-69 57t-37 81.5t-11 96
q0 49 11 95.5t37 82t69 57t107 21.5t107 -21.5t69 -57t37 -82t11 -95.5zM332 622q17 0 29 8.5t26 27.5l23 -29q-15 -23 -34 -35.5t-44 -12.5q-14 0 -28 6t-27 13.5t-24.5 13.5t-20.5 6q-17 0 -29 -8.5t-26 -27.5l-23 29q15 23 34 35.5t44 12.5q14 0 28 -6t26.5 -13.5
t24.5 -13.5t21 -6z" />
    <glyph glyph-name="odieresis" unicode="&#xf6;" horiz-adv-x="562" 
d="M107 241q0 -39 7.5 -77t27 -67.5t53 -48t86.5 -18.5q52 0 86 18.5t53.5 48t27 67.5t7.5 77t-7.5 77t-27 67.5t-53.5 48t-86 18.5q-53 0 -86.5 -18.5t-53 -48t-27 -67.5t-7.5 -77zM505 241q0 -50 -11 -96t-37 -81.5t-69 -57t-107 -21.5t-107 21.5t-69 57t-37 81.5t-11 96
q0 49 11 95.5t37 82t69 57t107 21.5t107 -21.5t69 -57t37 -82t11 -95.5zM155 626q0 17 11 28.5t28 11.5q16 0 27 -11.5t11 -28.5t-11 -28t-27 -11q-17 0 -28 11t-11 28zM333 626q0 17 11 28.5t28 11.5q16 0 27 -11.5t11 -28.5t-11 -28t-27 -11q-17 0 -28 11t-11 28z" />
    <glyph glyph-name="divide" unicode="&#xf7;" 
d="M516 291v-43h-443v43h443zM250 463q0 21 12 32.5t32 11.5t32 -11.5t12 -32.5t-12 -32.5t-32 -11.5t-32 11.5t-12 32.5zM250 69q0 20 12.5 32t31.5 12t31.5 -12t12.5 -32t-12.5 -32t-31.5 -12t-31.5 12t-12.5 32z" />
    <glyph glyph-name="oslash" unicode="&#xf8;" horiz-adv-x="562" 
d="M84 1l34 47q-34 36 -47.5 86.5t-13.5 106.5q0 49 11 95.5t37 82t69 57t107 21.5q43 0 76 -10.5t59 -27.5l32 44l37 -27l-36 -48q31 -37 43.5 -85.5t12.5 -101.5q0 -50 -11 -96t-37 -81.5t-69 -57t-107 -21.5q-42 0 -74.5 9.5t-57.5 26.5l-33 -45zM107 241q0 -42 8.5 -82
t31.5 -71l241 332q-20 15 -46 23.5t-61 8.5q-53 0 -86.5 -18.5t-53 -48t-27 -67.5t-7.5 -77zM455 241q0 39 -8 77.5t-28 68.5l-242 -328q19 -14 44.5 -21.5t59.5 -7.5q52 0 86 18.5t53.5 48t27 67.5t7.5 77z" />
    <glyph glyph-name="ugrave" unicode="&#xf9;" horiz-adv-x="547" 
d="M424 0l-5 44h-2q-11 -9 -27 -19t-37 -19t-46.5 -15t-55.5 -6q-87 0 -129 48t-42 142v307h48v-299q0 -79 30 -116t96 -37q54 0 94.5 19.5t66.5 39.5v393h48v-482h-39zM196 696h54l48 -110v-5h-43l-59 110v5z" />
    <glyph glyph-name="uacute" unicode="&#xfa;" horiz-adv-x="547" 
d="M424 0l-5 44h-2q-11 -9 -27 -19t-37 -19t-46.5 -15t-55.5 -6q-87 0 -129 48t-42 142v307h48v-299q0 -79 30 -116t96 -37q54 0 94.5 19.5t66.5 39.5v393h48v-482h-39zM347 691l-59 -110h-43v5l48 110h54v-5z" />
    <glyph glyph-name="ucircumflex" unicode="&#xfb;" horiz-adv-x="547" 
d="M424 0l-5 44h-2q-11 -9 -27 -19t-37 -19t-46.5 -15t-55.5 -6q-87 0 -129 48t-42 142v307h48v-299q0 -79 30 -116t96 -37q54 0 94.5 19.5t66.5 39.5v393h48v-482h-39zM391 586v-5h-51l-69 73l-69 -73h-51v5l102 110h36z" />
    <glyph glyph-name="udieresis" unicode="&#xfc;" horiz-adv-x="547" 
d="M424 0l-5 44h-2q-11 -9 -27 -19t-37 -19t-46.5 -15t-55.5 -6q-87 0 -129 48t-42 142v307h48v-299q0 -79 30 -116t96 -37q54 0 94.5 19.5t66.5 39.5v393h48v-482h-39zM144 626q0 17 11 28.5t28 11.5q16 0 27 -11.5t11 -28.5t-11 -28t-27 -11q-17 0 -28 11t-11 28zM322 626
q0 17 11 28.5t28 11.5q16 0 27 -11.5t11 -28.5t-11 -28t-27 -11q-17 0 -28 11t-11 28z" />
    <glyph glyph-name="yacute" unicode="&#xfd;" horiz-adv-x="474" 
d="M446 476l-206 -558q-24 -63 -58 -97t-88 -34q-14 0 -32.5 3t-29.5 6v44q12 -3 28.5 -5.5t32.5 -2.5q35 0 59 26.5t38 63.5l30 80l-195 474v6h51l166 -416h3l152 416h49v-6zM319 691l-59 -110h-43v5l48 110h54v-5z" />
    <glyph glyph-name="thorn" unicode="&#xfe;" horiz-adv-x="552" 
d="M132 700v-260h2q28 22 66.5 39.5t98.5 17.5q54 0 91 -20.5t60 -55t33.5 -81.5t10.5 -99q0 -53 -10.5 -99.5t-33.5 -81t-60 -55t-91 -20.5q-60 0 -98 17t-67 40h-2v-240h-48v898h48zM132 97q27 -30 70 -48.5t91 -18.5q43 0 72 16.5t46.5 45t25 67t7.5 82.5t-7.5 82.5
t-25 67t-46.5 45t-72 16.5q-48 0 -91 -18.5t-70 -48.5v-288z" />
    <glyph glyph-name="ydieresis" unicode="&#xff;" horiz-adv-x="474" 
d="M446 476l-206 -558q-24 -63 -58 -97t-88 -34q-14 0 -32.5 3t-29.5 6v44q12 -3 28.5 -5.5t32.5 -2.5q35 0 59 26.5t38 63.5l30 80l-195 474v6h51l166 -416h3l152 416h49v-6zM116 626q0 17 11 28.5t28 11.5q16 0 27 -11.5t11 -28.5t-11 -28t-27 -11q-17 0 -28 11t-11 28z
M294 626q0 17 11 28.5t28 11.5q16 0 27 -11.5t11 -28.5t-11 -28t-27 -11q-17 0 -28 11t-11 28z" />
    <glyph glyph-name="Amacron" unicode="&#x100;" horiz-adv-x="587" 
d="M568 0h-53l-66 184h-311l-66 -184h-53l249 680h51zM293 614l-138 -384h277l-138 384h-1zM175 785v45h239v-45h-239z" />
    <glyph glyph-name="amacron" unicode="&#x101;" horiz-adv-x="498" 
d="M469 -4q-8 -2 -18 -4t-23 -2q-52 0 -61 52h-2q-26 -22 -67.5 -39.5t-94.5 -17.5q-34 0 -62.5 10.5t-49 29t-32 45.5t-11.5 60q0 78 58.5 114t173.5 36h82v29q0 80 -36.5 111.5t-94.5 31.5q-45 0 -77 -13t-58 -33l-22 36q28 24 67 39.5t90 15.5q40 0 73 -10.5t56.5 -33.5
t36.5 -58.5t13 -85.5v-241q0 -18 6 -26.5t26 -8.5h27v-37zM287 238q-52 0 -88 -6.5t-58.5 -20t-32.5 -33.5t-10 -47q0 -48 30 -74.5t79 -26.5q48 0 86.5 16t68.5 39v153h-75zM129 596v43h239v-43h-239z" />
    <glyph glyph-name="Abreve" unicode="&#x102;" horiz-adv-x="587" 
d="M568 0h-53l-66 184h-311l-66 -184h-53l249 680h51zM293 614l-138 -384h277l-138 384h-1zM294 808q44 0 64.5 15.5t34.5 34.5l26 -22q-17 -30 -45.5 -51t-79.5 -21t-79.5 21t-45.5 51l26 22q14 -19 34.5 -34.5t64.5 -15.5z" />
    <glyph glyph-name="abreve" unicode="&#x103;" horiz-adv-x="498" 
d="M469 -4q-8 -2 -18 -4t-23 -2q-52 0 -61 52h-2q-26 -22 -67.5 -39.5t-94.5 -17.5q-34 0 -62.5 10.5t-49 29t-32 45.5t-11.5 60q0 78 58.5 114t173.5 36h82v29q0 80 -36.5 111.5t-94.5 31.5q-45 0 -77 -13t-58 -33l-22 36q28 24 67 39.5t90 15.5q40 0 73 -10.5t56.5 -33.5
t36.5 -58.5t13 -85.5v-241q0 -18 6 -26.5t26 -8.5h27v-37zM287 238q-52 0 -88 -6.5t-58.5 -20t-32.5 -33.5t-10 -47q0 -48 30 -74.5t79 -26.5q48 0 86.5 16t68.5 39v153h-75zM248 613q44 0 64.5 15.5t34.5 34.5l26 -20q-17 -30 -45.5 -51t-79.5 -21t-79.5 21t-45.5 51l26 20
q14 -19 34.5 -34.5t64.5 -15.5z" />
    <glyph glyph-name="Aogonek" unicode="&#x104;" horiz-adv-x="587" 
d="M568 0h-53l-66 184h-311l-66 -184h-53l249 680h51zM293 614l-138 -384h277l-138 384h-1zM494 -213q-42 0 -65 23.5t-23 58.5q0 26 11.5 47.5t30.5 40.5t44 37t53 36l23 -30q-61 -41 -90 -67t-29 -57q0 -17 11.5 -32t36.5 -15q20 0 37 6.5t33 16.5l7 -38
q-13 -10 -34 -18.5t-46 -8.5z" />
    <glyph glyph-name="aogonek" unicode="&#x105;" horiz-adv-x="498" 
d="M394 -213q-42 0 -65 23.5t-23 58.5q0 41 26 70t67 57q-26 11 -32 46h-2q-26 -22 -67.5 -39.5t-94.5 -17.5q-34 0 -62.5 10.5t-49 29t-32 45.5t-11.5 60q0 78 58.5 114t173.5 36h82v29q0 80 -36.5 111.5t-94.5 31.5q-45 0 -77 -13t-58 -33l-22 36q28 24 67 39.5t90 15.5
q40 0 73 -10.5t56.5 -33.5t36.5 -58.5t13 -85.5v-241q0 -18 6 -26.5t26 -8.5h27v-37q-30 -21 -52.5 -36t-37.5 -28.5t-22.5 -26.5t-7.5 -29q0 -17 11.5 -32t36.5 -15q20 0 37 6.5t33 16.5l7 -38q-13 -10 -34 -18.5t-46 -8.5zM287 238q-52 0 -88 -6.5t-58.5 -20t-32.5 -33.5
t-10 -47q0 -48 30 -74.5t79 -26.5q48 0 86.5 16t68.5 39v153h-75z" />
    <glyph glyph-name="Cacute" unicode="&#x106;" horiz-adv-x="580" 
d="M66 340q0 80 17 145.5t53 112t92.5 72t135.5 25.5q42 0 87 -12t82 -33l-19 -42q-38 21 -77 30t-73 9q-66 0 -112.5 -21.5t-76.5 -61.5t-43.5 -97t-13.5 -127q0 -71 13.5 -127.5t43.5 -96.5t76.5 -61.5t112.5 -21.5q34 0 73 9t77 30l19 -42q-37 -21 -82 -33t-87 -12
q-79 0 -135.5 25.5t-92.5 72t-53 112t-17 145.5zM428 854l-59 -110h-45v5l48 110h56v-5z" />
    <glyph glyph-name="cacute" unicode="&#x107;" horiz-adv-x="470" 
d="M57 241q0 55 14 102t41.5 81t68.5 53.5t95 19.5q37 0 74.5 -8t72.5 -28l-17 -40q-29 15 -63 23t-67 8q-44 0 -76 -17t-52.5 -46t-30.5 -67.5t-10 -80.5t10 -80.5t30.5 -67.5t52.5 -46t76 -17q33 0 67 8t63 23l17 -40q-35 -20 -72.5 -28t-74.5 -8q-54 0 -95 19.5
t-68.5 53.5t-41.5 81t-14 102zM353 691l-59 -110h-43v5l48 110h54v-5z" />
    <glyph glyph-name="Ccircumflex" unicode="&#x108;" horiz-adv-x="580" 
d="M66 340q0 80 17 145.5t53 112t92.5 72t135.5 25.5q42 0 87 -12t82 -33l-19 -42q-38 21 -77 30t-73 9q-66 0 -112.5 -21.5t-76.5 -61.5t-43.5 -97t-13.5 -127q0 -71 13.5 -127.5t43.5 -96.5t76.5 -61.5t112.5 -21.5q34 0 73 9t77 30l19 -42q-37 -21 -82 -33t-87 -12
q-79 0 -135.5 25.5t-92.5 72t-53 112t-17 145.5zM467 749v-5h-52l-68 73l-68 -73h-52v5l102 110h36z" />
    <glyph glyph-name="ccircumflex" unicode="&#x109;" horiz-adv-x="470" 
d="M57 241q0 55 14 102t41.5 81t68.5 53.5t95 19.5q37 0 74.5 -8t72.5 -28l-17 -40q-29 15 -63 23t-67 8q-44 0 -76 -17t-52.5 -46t-30.5 -67.5t-10 -80.5t10 -80.5t30.5 -67.5t52.5 -46t76 -17q33 0 67 8t63 23l17 -40q-35 -20 -72.5 -28t-74.5 -8q-54 0 -95 19.5
t-68.5 53.5t-41.5 81t-14 102zM398 586v-5h-51l-69 73l-69 -73h-51v5l102 110h36z" />
    <glyph glyph-name="Cdotaccent" unicode="&#x10a;" horiz-adv-x="580" 
d="M66 340q0 80 17 145.5t53 112t92.5 72t135.5 25.5q42 0 87 -12t82 -33l-19 -42q-38 21 -77 30t-73 9q-66 0 -112.5 -21.5t-76.5 -61.5t-43.5 -97t-13.5 -127q0 -71 13.5 -127.5t43.5 -96.5t76.5 -61.5t112.5 -21.5q34 0 73 9t77 30l19 -42q-37 -21 -82 -33t-87 -12
q-79 0 -135.5 25.5t-92.5 72t-53 112t-17 145.5zM308 802q0 17 11 28.5t28 11.5q16 0 27 -11.5t11 -28.5t-11 -28t-27 -11q-17 0 -28 11t-11 28z" />
    <glyph glyph-name="cdotaccent" unicode="&#x10b;" horiz-adv-x="470" 
d="M57 241q0 55 14 102t41.5 81t68.5 53.5t95 19.5q37 0 74.5 -8t72.5 -28l-17 -40q-29 15 -63 23t-67 8q-44 0 -76 -17t-52.5 -46t-30.5 -67.5t-10 -80.5t10 -80.5t30.5 -67.5t52.5 -46t76 -17q33 0 67 8t63 23l17 -40q-35 -20 -72.5 -28t-74.5 -8q-54 0 -95 19.5
t-68.5 53.5t-41.5 81t-14 102zM240 626q0 17 11 28.5t28 11.5q16 0 27 -11.5t11 -28.5t-11 -28t-27 -11q-17 0 -28 11t-11 28z" />
    <glyph glyph-name="Ccaron" unicode="&#x10c;" horiz-adv-x="580" 
d="M66 340q0 80 17 145.5t53 112t92.5 72t135.5 25.5q42 0 87 -12t82 -33l-19 -42q-38 21 -77 30t-73 9q-66 0 -112.5 -21.5t-76.5 -61.5t-43.5 -97t-13.5 -127q0 -71 13.5 -127.5t43.5 -96.5t76.5 -61.5t112.5 -21.5q34 0 73 9t77 30l19 -42q-37 -21 -82 -33t-87 -12
q-79 0 -135.5 25.5t-92.5 72t-53 112t-17 145.5zM227 854v5h52l68 -73l68 73h52v-5l-102 -110h-36z" />
    <glyph glyph-name="ccaron" unicode="&#x10d;" horiz-adv-x="470" 
d="M57 241q0 55 14 102t41.5 81t68.5 53.5t95 19.5q37 0 74.5 -8t72.5 -28l-17 -40q-29 15 -63 23t-67 8q-44 0 -76 -17t-52.5 -46t-30.5 -67.5t-10 -80.5t10 -80.5t30.5 -67.5t52.5 -46t76 -17q33 0 67 8t63 23l17 -40q-35 -20 -72.5 -28t-74.5 -8q-54 0 -95 19.5
t-68.5 53.5t-41.5 81t-14 102zM296 581h-36l-102 110v5h51l69 -73l69 73h51v-5z" />
    <glyph glyph-name="Dcaron" unicode="&#x10e;" horiz-adv-x="667" 
d="M99 680h160q94 0 159.5 -22t106 -65.5t58.5 -107t18 -145.5q0 -83 -18 -146t-58.5 -106.5t-106 -65.5t-159.5 -22h-160v680zM252 47q85 0 142.5 17.5t92 53.5t49 91.5t14.5 130.5t-14.5 130.5t-49 91.5t-92 53.5t-142.5 17.5h-103v-586h103zM195 854v5h52l68 -73l68 73
h52v-5l-102 -110h-36z" />
    <glyph glyph-name="dcaron" unicode="&#x10f;" horiz-adv-x="553" 
d="M420 385q-27 30 -70 48.5t-90 18.5q-43 0 -72 -16.5t-46.5 -45t-25 -67t-7.5 -82.5t7.5 -82.5t25 -67t46.5 -45t72 -16.5q47 0 90 18.5t70 48.5v288zM468 700v-700h-38l-6 44h-2q-28 -23 -69.5 -41t-98.5 -18q-54 0 -91 20.5t-60 55t-33.5 81t-10.5 99.5q0 52 10.5 99
t33.5 81.5t60 55t91 20.5q30 0 54 -4.5t44 -12.5t36 -18.5t30 -21.5h2v260h48zM518 546l16 134h53v-6l-31 -134h-38v6z" />
    <glyph glyph-name="Dcroat" unicode="&#x110;" horiz-adv-x="668" 
d="M100 312h-53v47h53v321h160q94 0 159.5 -22t106 -65.5t58.5 -107t18 -145.5q0 -83 -18 -146t-58.5 -106.5t-106 -65.5t-159.5 -22h-160v312zM253 47q85 0 142.5 17.5t92 53.5t49 91.5t14.5 130.5t-14.5 130.5t-49 91.5t-92 53.5t-142.5 17.5h-103v-274h178v-47h-178v-265
h103z" />
    <glyph glyph-name="dcroat" unicode="&#x111;" horiz-adv-x="553" 
d="M468 700v-85h77v-43h-77v-572h-38l-6 44h-2q-28 -23 -69.5 -41t-98.5 -18q-54 0 -91 20.5t-60 55t-33.5 81t-10.5 99.5q0 52 10.5 99t33.5 81.5t60 55t91 20.5q30 0 54 -4.5t44 -12.5t36 -18.5t30 -21.5h2v132h-116v43h116v85h48zM420 385q-27 30 -70 48.5t-90 18.5
q-43 0 -72 -16.5t-46.5 -45t-25 -67t-7.5 -82.5t7.5 -82.5t25 -67t46.5 -45t72 -16.5q47 0 90 18.5t70 48.5v288z" />
    <glyph glyph-name="Emacron" unicode="&#x112;" horiz-adv-x="574" 
d="M508 680v-47h-359v-260h329v-47h-329v-279h362v-47h-412v680h409zM189 785v45h239v-45h-239z" />
    <glyph glyph-name="emacron" unicode="&#x113;" horiz-adv-x="527" 
d="M106 232q1 -44 12 -81t33 -64t55.5 -42t79.5 -15q49 0 82.5 14t61.5 34l22 -38q-30 -22 -69 -38.5t-98 -16.5q-60 0 -103 20t-71 54.5t-41 81.5t-13 102t15.5 101.5t44 80.5t68.5 53t90 19q51 0 88.5 -16.5t62 -44t37 -63.5t12.5 -75q0 -16 -2 -34t-5 -32h-362zM275 452
q-70 0 -115 -46.5t-53 -130.5h317q1 8 1 14.5v11.5q0 33 -9 60.5t-28 47.5t-47 31.5t-66 11.5zM157 596v43h239v-43h-239z" />
    <glyph glyph-name="Ebreve" unicode="&#x114;" horiz-adv-x="574" 
d="M508 680v-47h-359v-260h329v-47h-329v-279h362v-47h-412v680h409zM308 808q44 0 64.5 15.5t34.5 34.5l26 -22q-17 -30 -45.5 -51t-79.5 -21t-79.5 21t-45.5 51l26 22q14 -19 34.5 -34.5t64.5 -15.5z" />
    <glyph glyph-name="ebreve" unicode="&#x115;" horiz-adv-x="527" 
d="M106 232q1 -44 12 -81t33 -64t55.5 -42t79.5 -15q49 0 82.5 14t61.5 34l22 -38q-30 -22 -69 -38.5t-98 -16.5q-60 0 -103 20t-71 54.5t-41 81.5t-13 102t15.5 101.5t44 80.5t68.5 53t90 19q51 0 88.5 -16.5t62 -44t37 -63.5t12.5 -75q0 -16 -2 -34t-5 -32h-362zM275 452
q-70 0 -115 -46.5t-53 -130.5h317q1 8 1 14.5v11.5q0 33 -9 60.5t-28 47.5t-47 31.5t-66 11.5zM276 613q44 0 64.5 15.5t34.5 34.5l26 -20q-17 -30 -45.5 -51t-79.5 -21t-79.5 21t-45.5 51l26 20q14 -19 34.5 -34.5t64.5 -15.5z" />
    <glyph glyph-name="Edotaccent" unicode="&#x116;" horiz-adv-x="574" 
d="M508 680v-47h-359v-260h329v-47h-329v-279h362v-47h-412v680h409zM269 802q0 17 11 28.5t28 11.5q16 0 27 -11.5t11 -28.5t-11 -28t-27 -11q-17 0 -28 11t-11 28z" />
    <glyph glyph-name="edotaccent" unicode="&#x117;" horiz-adv-x="527" 
d="M106 232q1 -44 12 -81t33 -64t55.5 -42t79.5 -15q49 0 82.5 14t61.5 34l22 -38q-30 -22 -69 -38.5t-98 -16.5q-60 0 -103 20t-71 54.5t-41 81.5t-13 102t15.5 101.5t44 80.5t68.5 53t90 19q51 0 88.5 -16.5t62 -44t37 -63.5t12.5 -75q0 -16 -2 -34t-5 -32h-362zM275 452
q-70 0 -115 -46.5t-53 -130.5h317q1 8 1 14.5v11.5q0 33 -9 60.5t-28 47.5t-47 31.5t-66 11.5zM238 626q0 17 11 28.5t28 11.5q16 0 27 -11.5t11 -28.5t-11 -28t-27 -11q-17 0 -28 11t-11 28z" />
    <glyph glyph-name="Eogonek" unicode="&#x118;" horiz-adv-x="574" 
d="M508 680v-47h-359v-260h329v-47h-329v-279h362v-47h-412v680h409zM437 -213q-42 0 -65 23.5t-23 58.5q0 26 11.5 47.5t30.5 40.5t44 37t53 36l23 -30q-61 -41 -90 -67t-29 -57q0 -17 11.5 -32t36.5 -15q20 0 37 6.5t33 16.5l7 -38q-13 -10 -34 -18.5t-46 -8.5z" />
    <glyph glyph-name="eogonek" unicode="&#x119;" horiz-adv-x="527" 
d="M366 -213q-42 0 -65 23.5t-23 58.5q0 66 61 121q-14 -3 -27 -4t-27 -1q-60 0 -103 20t-71 54.5t-41 81.5t-13 102t15.5 101.5t44 80.5t68.5 53t90 19q51 0 88.5 -16.5t62 -44t37 -63.5t12.5 -75q0 -16 -2 -34t-5 -32h-362q1 -44 12 -81t33 -64t55.5 -42t79.5 -15
q49 0 82.5 14t61.5 34l22 -38l-22 -15q-53 -38 -81 -74.5t-28 -74.5q0 -17 11.5 -32t36.5 -15q20 0 37 6.5t33 16.5l7 -38q-13 -10 -34 -18.5t-46 -8.5zM275 452q-70 0 -115 -46.5t-53 -130.5h317q1 8 1 14.5v11.5q0 33 -9 60.5t-28 47.5t-47 31.5t-66 11.5z" />
    <glyph glyph-name="Ecaron" unicode="&#x11a;" horiz-adv-x="574" 
d="M508 680v-47h-359v-260h329v-47h-329v-279h362v-47h-412v680h409zM188 854v5h52l68 -73l68 73h52v-5l-102 -110h-36z" />
    <glyph glyph-name="ecaron" unicode="&#x11b;" horiz-adv-x="527" 
d="M106 232q1 -44 12 -81t33 -64t55.5 -42t79.5 -15q49 0 82.5 14t61.5 34l22 -38q-30 -22 -69 -38.5t-98 -16.5q-60 0 -103 20t-71 54.5t-41 81.5t-13 102t15.5 101.5t44 80.5t68.5 53t90 19q51 0 88.5 -16.5t62 -44t37 -63.5t12.5 -75q0 -16 -2 -34t-5 -32h-362zM275 452
q-70 0 -115 -46.5t-53 -130.5h317q1 8 1 14.5v11.5q0 33 -9 60.5t-28 47.5t-47 31.5t-66 11.5zM294 581h-36l-102 110v5h51l69 -73l69 73h51v-5z" />
    <glyph glyph-name="Gcircumflex" unicode="&#x11c;" horiz-adv-x="640" 
d="M567 322v-270q-42 -30 -98.5 -48.5t-119.5 -18.5q-74 0 -127.5 27t-88 74t-51.5 112t-17 142q0 75 18 140t54 113t90 75t126 27q63 0 115.5 -17t92.5 -43l-23 -41q-41 26 -89 39.5t-96 13.5q-60 0 -104.5 -22.5t-74 -63.5t-44 -97.5t-14.5 -123.5q0 -64 13 -120t41 -97.5
t72 -65.5t107 -24q51 0 94.5 12.5t73.5 32.5v197l-145 9v38h195zM473 749v-5h-52l-68 73l-68 -73h-52v5l102 110h36z" />
    <glyph glyph-name="gcircumflex" unicode="&#x11d;" horiz-adv-x="552" 
d="M420 385q-27 30 -70.5 48.5t-89.5 18.5q-43 0 -72 -16.5t-47 -45t-25.5 -67t-7.5 -82.5t7.5 -82.5t25.5 -67t47 -45t72 -16.5q46 0 89.5 18.5t70.5 48.5v288zM468 -2q0 -99 -53.5 -155t-144.5 -56q-50 0 -91.5 14t-70.5 31l18 41q29 -17 65 -28t79 -11q32 0 59.5 9.5
t47.5 28.5t31.5 48t11.5 68v55h-2q-27 -23 -67 -40t-97 -17q-53 0 -90.5 20t-61 55t-34 81t-10.5 99q0 52 10.5 99t34 81.5t61 55t90.5 20.5q59 0 99.5 -18t68.5 -41h2l5 44h39v-484zM398 586v-5h-51l-69 73l-69 -73h-51v5l102 110h36z" />
    <glyph glyph-name="Gbreve" unicode="&#x11e;" horiz-adv-x="640" 
d="M567 322v-270q-42 -30 -98.5 -48.5t-119.5 -18.5q-74 0 -127.5 27t-88 74t-51.5 112t-17 142q0 75 18 140t54 113t90 75t126 27q63 0 115.5 -17t92.5 -43l-23 -41q-41 26 -89 39.5t-96 13.5q-60 0 -104.5 -22.5t-74 -63.5t-44 -97.5t-14.5 -123.5q0 -64 13 -120t41 -97.5
t72 -65.5t107 -24q51 0 94.5 12.5t73.5 32.5v197l-145 9v38h195zM353 808q44 0 64.5 15.5t34.5 34.5l26 -22q-17 -30 -45.5 -51t-79.5 -21t-79.5 21t-45.5 51l26 22q14 -19 34.5 -34.5t64.5 -15.5z" />
    <glyph glyph-name="gbreve" unicode="&#x11f;" horiz-adv-x="552" 
d="M420 385q-27 30 -70.5 48.5t-89.5 18.5q-43 0 -72 -16.5t-47 -45t-25.5 -67t-7.5 -82.5t7.5 -82.5t25.5 -67t47 -45t72 -16.5q46 0 89.5 18.5t70.5 48.5v288zM468 -2q0 -99 -53.5 -155t-144.5 -56q-50 0 -91.5 14t-70.5 31l18 41q29 -17 65 -28t79 -11q32 0 59.5 9.5
t47.5 28.5t31.5 48t11.5 68v55h-2q-27 -23 -67 -40t-97 -17q-53 0 -90.5 20t-61 55t-34 81t-10.5 99q0 52 10.5 99t34 81.5t61 55t90.5 20.5q59 0 99.5 -18t68.5 -41h2l5 44h39v-484zM278 613q44 0 64.5 15.5t34.5 34.5l26 -20q-17 -30 -45.5 -51t-79.5 -21t-79.5 21
t-45.5 51l26 20q14 -19 34.5 -34.5t64.5 -15.5z" />
    <glyph glyph-name="Gdotaccent" unicode="&#x120;" horiz-adv-x="640" 
d="M567 322v-270q-42 -30 -98.5 -48.5t-119.5 -18.5q-74 0 -127.5 27t-88 74t-51.5 112t-17 142q0 75 18 140t54 113t90 75t126 27q63 0 115.5 -17t92.5 -43l-23 -41q-41 26 -89 39.5t-96 13.5q-60 0 -104.5 -22.5t-74 -63.5t-44 -97.5t-14.5 -123.5q0 -64 13 -120t41 -97.5
t72 -65.5t107 -24q51 0 94.5 12.5t73.5 32.5v197l-145 9v38h195zM314 802q0 17 11 28.5t28 11.5q16 0 27 -11.5t11 -28.5t-11 -28t-27 -11q-17 0 -28 11t-11 28z" />
    <glyph glyph-name="gdotaccent" unicode="&#x121;" horiz-adv-x="552" 
d="M420 385q-27 30 -70.5 48.5t-89.5 18.5q-43 0 -72 -16.5t-47 -45t-25.5 -67t-7.5 -82.5t7.5 -82.5t25.5 -67t47 -45t72 -16.5q46 0 89.5 18.5t70.5 48.5v288zM468 -2q0 -99 -53.5 -155t-144.5 -56q-50 0 -91.5 14t-70.5 31l18 41q29 -17 65 -28t79 -11q32 0 59.5 9.5
t47.5 28.5t31.5 48t11.5 68v55h-2q-27 -23 -67 -40t-97 -17q-53 0 -90.5 20t-61 55t-34 81t-10.5 99q0 52 10.5 99t34 81.5t61 55t90.5 20.5q59 0 99.5 -18t68.5 -41h2l5 44h39v-484zM240 626q0 17 11 28.5t28 11.5q16 0 27 -11.5t11 -28.5t-11 -28t-27 -11q-17 0 -28 11
t-11 28z" />
    <glyph glyph-name="uni0122" unicode="&#x122;" horiz-adv-x="640" 
d="M567 322v-270q-42 -30 -98.5 -48.5t-119.5 -18.5q-74 0 -127.5 27t-88 74t-51.5 112t-17 142q0 75 18 140t54 113t90 75t126 27q63 0 115.5 -17t92.5 -43l-23 -41q-41 26 -89 39.5t-96 13.5q-60 0 -104.5 -22.5t-74 -63.5t-44 -97.5t-14.5 -123.5q0 -64 13 -120t41 -97.5
t72 -65.5t107 -24q51 0 94.5 12.5t73.5 32.5v197l-145 9v38h195zM310 -212l16 134h53v-6l-31 -134h-38v6z" />
    <glyph glyph-name="uni0123" unicode="&#x123;" horiz-adv-x="552" 
d="M420 385q-27 30 -70.5 48.5t-89.5 18.5q-43 0 -72 -16.5t-47 -45t-25.5 -67t-7.5 -82.5t7.5 -82.5t25.5 -67t47 -45t72 -16.5q46 0 89.5 18.5t70.5 48.5v288zM468 -2q0 -99 -53.5 -155t-144.5 -56q-50 0 -91.5 14t-70.5 31l18 41q29 -17 65 -28t79 -11q32 0 59.5 9.5
t47.5 28.5t31.5 48t11.5 68v55h-2q-27 -23 -67 -40t-97 -17q-53 0 -90.5 20t-61 55t-34 81t-10.5 99q0 52 10.5 99t34 81.5t61 55t90.5 20.5q59 0 99.5 -18t68.5 -41h2l5 44h39v-484zM322 710l-16 -134h-53v6l31 134h38v-6z" />
    <glyph glyph-name="Hcircumflex" unicode="&#x124;" horiz-adv-x="687" 
d="M538 326h-389v-326h-50v680h50v-307h389v307h50v-680h-50v326zM463 749v-5h-52l-68 73l-68 -73h-52v5l102 110h36z" />
    <glyph glyph-name="hcircumflex" unicode="&#x125;" horiz-adv-x="555" 
d="M427 0v299q0 79 -32.5 116t-97.5 37q-54 0 -96.5 -19.5t-68.5 -39.5v-393h-48v700h48v-259h2q11 8 27.5 18t38 18.5t47 14t54.5 5.5q86 0 130 -48t44 -142v-307h-48zM398 759v-5h-52l-68 73l-68 -73h-52v5l102 110h36z" />
    <glyph glyph-name="Hbar" unicode="&#x126;" horiz-adv-x="687" 
d="M538 326h-389v-326h-50v519h-40v47h40v114h50v-114h389v114h50v-114h40v-47h-40v-519h-50v326zM538 373v146h-389v-146h389z" />
    <glyph glyph-name="hbar" unicode="&#x127;" horiz-adv-x="556" 
d="M428 0v299q0 79 -32.5 116t-97.5 37q-54 0 -96.5 -19.5t-68.5 -39.5v-393h-48v572h-77v43h77v85h48v-85h116v-43h-116v-131h2q11 7 27.5 17t38 18.5t47 14.5t54.5 6q86 0 130 -48t44 -142v-307h-48z" />
    <glyph glyph-name="Itilde" unicode="&#x128;" horiz-adv-x="247" 
d="M148 0h-49v680h49v-680zM173 804q17 0 29 8t26 27l23 -29q-15 -23 -34 -36t-44 -13q-14 0 -28 6t-27 13.5t-24.5 13.5t-20.5 6q-17 0 -29 -8t-26 -27l-23 29q15 23 34 36t44 13q14 0 28 -6t27 -13.5t24.5 -13.5t20.5 -6z" />
    <glyph glyph-name="itilde" unicode="&#x129;" horiz-adv-x="218" 
d="M159 622q17 0 29 8.5t26 27.5l23 -29q-15 -23 -34 -35.5t-44 -12.5q-14 0 -28 6t-27 13.5t-24.5 13.5t-20.5 6q-17 0 -29 -8.5t-26 -27.5l-23 29q15 23 34 35.5t44 12.5q14 0 28 -6t26.5 -13.5t24.5 -13.5t21 -6zM85 0v482h48v-482h-48z" />
    <glyph glyph-name="Imacron" unicode="&#x12a;" horiz-adv-x="247" 
d="M148 0h-49v680h49v-680zM4 785v45h239v-45h-239z" />
    <glyph glyph-name="imacron" unicode="&#x12b;" horiz-adv-x="218" 
d="M-10 596v43h239v-43h-239zM85 0v482h48v-482h-48z" />
    <glyph glyph-name="Ibreve" unicode="&#x12c;" horiz-adv-x="247" 
d="M148 0h-49v680h49v-680zM123 808q44 0 64.5 15.5t34.5 34.5l26 -22q-17 -30 -45.5 -51t-79.5 -21t-79.5 21t-45.5 51l26 22q14 -19 34.5 -34.5t64.5 -15.5z" />
    <glyph glyph-name="ibreve" unicode="&#x12d;" horiz-adv-x="218" 
d="M109 613q44 0 64.5 15.5t34.5 34.5l26 -20q-17 -30 -45.5 -51t-79.5 -21t-79.5 21t-45.5 51l26 20q14 -19 34.5 -34.5t64.5 -15.5zM85 0v482h48v-482h-48z" />
    <glyph glyph-name="Iogonek" unicode="&#x12e;" horiz-adv-x="248" 
d="M149 0h-49v680h49v-680zM106 -213q-44 0 -66 23t-22 58q0 24 9 45.5t24 41t35 38t41 37.5l23 -30q-45 -42 -67 -69t-22 -56q0 -20 11.5 -33t36.5 -13q14 0 26.5 6.5t23.5 16.5l7 -38q-10 -10 -25.5 -18.5t-34.5 -8.5z" />
    <glyph glyph-name="iogonek" unicode="&#x12f;" horiz-adv-x="217" 
d="M85 0v482h48v-482h-48zM70 626q0 17 11 28.5t28 11.5q16 0 27 -11.5t11 -28.5t-11 -28t-27 -11q-17 0 -28 11t-11 28zM90 -213q-44 0 -66 23t-22 58q0 24 9 45.5t24 41t35 38t41 37.5l23 -30q-45 -42 -67 -69t-22 -56q0 -20 11.5 -33t36.5 -13q14 0 26.5 6.5t23.5 16.5
l7 -38q-10 -10 -25.5 -18.5t-34.5 -8.5z" />
    <glyph glyph-name="Idotaccent" unicode="&#x130;" horiz-adv-x="247" 
d="M148 0h-49v680h49v-680zM85 802q0 17 11 28.5t28 11.5q16 0 27 -11.5t11 -28.5t-11 -28t-27 -11q-17 0 -28 11t-11 28z" />
    <glyph glyph-name="dotlessi" unicode="&#x131;" horiz-adv-x="216" 
d="M84 0v482h48v-482h-48z" />
    <glyph glyph-name="IJ" unicode="&#x132;" horiz-adv-x="700" 
d="M148 0h-49v680h49v-680zM299 89q23 -23 56.5 -39.5t74.5 -16.5q27 0 49.5 8.5t39.5 27.5t26.5 48.5t9.5 71.5v491h50v-494q0 -96 -48.5 -148.5t-126.5 -52.5q-49 0 -90.5 21t-67.5 46z" />
    <glyph glyph-name="ij" unicode="&#x133;" horiz-adv-x="432" 
d="M84 0v482h48v-482h-48zM69 626q0 17 11 28.5t28 11.5q16 0 27 -11.5t11 -28.5t-11 -28t-27 -11q-17 0 -28 11t-11 28zM348 482v-544q0 -83 -27 -117t-84 -34q-17 0 -30 2t-26 6v43q25 -6 55 -6q64 0 64 89v561h48zM285 626q0 17 11 28.5t28 11.5q16 0 27 -11.5t11 -28.5
t-11 -28t-27 -11q-17 0 -28 11t-11 28z" />
    <glyph glyph-name="Jcircumflex" unicode="&#x134;" horiz-adv-x="453" 
d="M52 89q23 -23 56.5 -39.5t74.5 -16.5q27 0 49.5 8.5t39.5 27.5t26.5 48.5t9.5 71.5v491h50v-494q0 -96 -48.5 -148.5t-126.5 -52.5q-49 0 -90.5 21t-67.5 46zM452 749v-5h-52l-68 73l-68 -73h-52v5l102 110h36z" />
    <glyph glyph-name="jcircumflex" unicode="&#x135;" horiz-adv-x="218" 
d="M133 482v-544q0 -83 -27 -117t-84 -34q-17 0 -30 2.5t-26 5.5v43q25 -6 55 -6q64 0 64 89v561h48zM227 586v-5h-51l-69 73l-69 -73h-51v5l102 110h36z" />
    <glyph glyph-name="uni0136" unicode="&#x136;" horiz-adv-x="556" 
d="M149 318v-318h-50v680h50v-337h2l313 337h58v-6l-315 -340l334 -328v-6h-65l-325 318h-2zM243 -212l16 134h53v-6l-31 -134h-38v6z" />
    <glyph glyph-name="uni0137" unicode="&#x137;" horiz-adv-x="445" 
d="M132 225v-225h-48v700h48v-448h2l227 230h59v-5l-237 -236l245 -236v-5h-63l-231 225h-2zM184 -212l16 134h53v-6l-31 -134h-38v6z" />
    <glyph glyph-name="kgreenlandic" unicode="&#x138;" horiz-adv-x="445" 
d="M132 225v-225h-48v482h48v-230h2l227 230h59v-5l-237 -236l245 -236v-5h-62l-232 225h-2z" />
    <glyph glyph-name="Lacute" unicode="&#x139;" horiz-adv-x="501" 
d="M149 680v-633h323v-47h-373v680h50zM207 854l-59 -110h-45v5l48 110h56v-5z" />
    <glyph glyph-name="lacute" unicode="&#x13a;" horiz-adv-x="232" 
d="M134 700v-620q0 -23 7 -35t30 -12h35v-37q-18 -6 -42 -6q-43 0 -60.5 24t-17.5 74v612h48zM195 864l-59 -110h-45v5l48 110h56v-5z" />
    <glyph glyph-name="uni013B" unicode="&#x13b;" horiz-adv-x="501" 
d="M149 680v-633h323v-47h-373v680h50zM243 -212l16 134h53v-6l-31 -134h-38v6z" />
    <glyph glyph-name="uni013C" unicode="&#x13c;" horiz-adv-x="232" 
d="M134 700v-620q0 -23 7 -35t30 -12h35v-37q-18 -6 -42 -6q-43 0 -60.5 24t-17.5 74v612h48zM96 -212l16 134h53v-6l-31 -134h-38v6z" />
    <glyph glyph-name="Lcaron" unicode="&#x13d;" horiz-adv-x="501" 
d="M149 680v-633h323v-47h-373v680h50zM275 546l16 134h53v-6l-31 -134h-38v6z" />
    <glyph glyph-name="lcaron" unicode="&#x13e;" horiz-adv-x="232" 
d="M134 700v-620q0 -23 7 -35t30 -12h35v-37q-18 -6 -42 -6q-43 0 -60.5 24t-17.5 74v612h48zM185 546l16 134h53v-6l-31 -134h-38v6z" />
    <glyph glyph-name="Ldot" unicode="&#x13f;" horiz-adv-x="501" 
d="M149 680v-633h323v-47h-373v680h50zM311 343q0 20 12.5 32t31.5 12t31.5 -12t12.5 -32t-12.5 -32t-31.5 -12t-31.5 12t-12.5 32z" />
    <glyph glyph-name="ldot" unicode="&#x140;" horiz-adv-x="301" 
d="M134 700v-620q0 -23 7 -35t30 -12h35v-37q-18 -6 -42 -6q-43 0 -60.5 24t-17.5 74v612h48zM217 353q0 20 12.5 32t31.5 12t31.5 -12t12.5 -32t-12.5 -32t-31.5 -12t-31.5 12t-12.5 32z" />
    <glyph glyph-name="Lslash" unicode="&#x141;" horiz-adv-x="506" 
d="M154 680v-290l107 66h5v-50l-112 -70v-289h323v-47h-373v305l-61 -37h-5v50l66 41v321h50z" />
    <glyph glyph-name="lslash" unicode="&#x142;" horiz-adv-x="278" 
d="M154 700v-303l94 59h5v-50l-99 -62v-264q0 -23 7 -35t30 -12h35v-37q-18 -6 -42 -6q-43 0 -60.5 24t-17.5 74v227l-76 -47h-5v50l81 50v332h48z" />
    <glyph glyph-name="Nacute" unicode="&#x143;" horiz-adv-x="690" 
d="M542 92v588h49v-680h-48l-392 589h-2v-589h-50v680h48l393 -588h2zM427 854l-59 -110h-45v5l48 110h56v-5z" />
    <glyph glyph-name="nacute" unicode="&#x144;" horiz-adv-x="555" 
d="M123 482l5 -44h2q11 9 28 19t39 19t48 15t56 6q86 0 130 -48t44 -142v-307h-48v299q0 79 -32 116t-98 37q-54 0 -96.5 -19.5t-68.5 -39.5v-393h-48v482h39zM361 691l-59 -110h-43v5l48 110h54v-5z" />
    <glyph glyph-name="uni0145" unicode="&#x145;" horiz-adv-x="690" 
d="M542 92v588h49v-680h-48l-392 589h-2v-589h-50v680h48l393 -588h2zM297 -212l16 134h53v-6l-31 -134h-38v6z" />
    <glyph glyph-name="uni0146" unicode="&#x146;" horiz-adv-x="555" 
d="M123 482l5 -44h2q11 9 28 19t39 19t48 15t56 6q86 0 130 -48t44 -142v-307h-48v299q0 79 -32 116t-98 37q-54 0 -96.5 -19.5t-68.5 -39.5v-393h-48v482h39zM234 -212l16 134h53v-6l-31 -134h-38v6z" />
    <glyph glyph-name="Ncaron" unicode="&#x147;" horiz-adv-x="690" 
d="M542 92v588h49v-680h-48l-392 589h-2v-589h-50v680h48l393 -588h2zM229 854v5h52l68 -73l68 73h52v-5l-102 -110h-36z" />
    <glyph glyph-name="ncaron" unicode="&#x148;" horiz-adv-x="555" 
d="M123 482l5 -44h2q11 9 28 19t39 19t48 15t56 6q86 0 130 -48t44 -142v-307h-48v299q0 79 -32 116t-98 37q-54 0 -96.5 -19.5t-68.5 -39.5v-393h-48v482h39zM305 581h-36l-102 110v5h51l69 -73l69 73h51v-5z" />
    <glyph glyph-name="napostrophe" unicode="&#x149;" horiz-adv-x="556" 
d="M124 482l5 -44h2q11 9 28 19t39 19t48 15t56 6q86 0 130 -48t44 -142v-307h-48v299q0 79 -32 116t-98 37q-54 0 -96.5 -19.5t-68.5 -39.5v-393h-48v482h39zM26 546l16 134h53v-6l-31 -134h-38v6z" />
    <glyph glyph-name="Eng" unicode="&#x14a;" horiz-adv-x="690" 
d="M542 92v588h49v-742q0 -83 -28 -117t-85 -34q-17 0 -30 2t-26 6v45q25 -6 55 -6q33 0 49 20.5t16 66.5v79l-391 589h-2v-589h-50v680h48l393 -588h2z" />
    <glyph glyph-name="eng" unicode="&#x14b;" horiz-adv-x="555" 
d="M427 299q0 79 -32 116t-98 37q-54 0 -96.5 -19.5t-68.5 -39.5v-393h-48v482h39l5 -44h2q11 8 28 18t39 19t48 15.5t56 6.5q86 0 130 -48t44 -142v-369q0 -83 -27 -117t-84 -34q-17 0 -30 2t-26 6v43q25 -6 55 -6q64 0 64 89v378v0z" />
    <glyph glyph-name="Omacron" unicode="&#x14c;" horiz-adv-x="696" 
d="M118 340q0 -64 11 -120t37.5 -97.5t71 -65.5t110.5 -24t110.5 24t71 65.5t37.5 97.5t11 120t-11 120t-37.5 97.5t-71 65.5t-110.5 24t-110.5 -24t-71 -65.5t-37.5 -97.5t-11 -120zM630 340q0 -77 -15.5 -142t-49.5 -112.5t-87.5 -74t-129.5 -26.5t-129.5 26.5t-87.5 74
t-49.5 112.5t-15.5 142t15.5 142t49.5 112.5t87.5 74t129.5 26.5t129.5 -26.5t87.5 -74t49.5 -112.5t15.5 -142zM229 785v45h239v-45h-239z" />
    <glyph glyph-name="omacron" unicode="&#x14d;" horiz-adv-x="562" 
d="M107 241q0 -39 7.5 -77t27 -67.5t53 -48t86.5 -18.5q52 0 86 18.5t53.5 48t27 67.5t7.5 77t-7.5 77t-27 67.5t-53.5 48t-86 18.5q-53 0 -86.5 -18.5t-53 -48t-27 -67.5t-7.5 -77zM505 241q0 -50 -11 -96t-37 -81.5t-69 -57t-107 -21.5t-107 21.5t-69 57t-37 81.5t-11 96
q0 49 11 95.5t37 82t69 57t107 21.5t107 -21.5t69 -57t37 -82t11 -95.5zM163 596v43h239v-43h-239z" />
    <glyph glyph-name="Obreve" unicode="&#x14e;" horiz-adv-x="696" 
d="M118 340q0 -64 11 -120t37.5 -97.5t71 -65.5t110.5 -24t110.5 24t71 65.5t37.5 97.5t11 120t-11 120t-37.5 97.5t-71 65.5t-110.5 24t-110.5 -24t-71 -65.5t-37.5 -97.5t-11 -120zM630 340q0 -77 -15.5 -142t-49.5 -112.5t-87.5 -74t-129.5 -26.5t-129.5 26.5t-87.5 74
t-49.5 112.5t-15.5 142t15.5 142t49.5 112.5t87.5 74t129.5 26.5t129.5 -26.5t87.5 -74t49.5 -112.5t15.5 -142zM348 808q44 0 64.5 15.5t34.5 34.5l26 -22q-17 -30 -45.5 -51t-79.5 -21t-79.5 21t-45.5 51l26 22q14 -19 34.5 -34.5t64.5 -15.5z" />
    <glyph glyph-name="obreve" unicode="&#x14f;" horiz-adv-x="562" 
d="M107 241q0 -39 7.5 -77t27 -67.5t53 -48t86.5 -18.5q52 0 86 18.5t53.5 48t27 67.5t7.5 77t-7.5 77t-27 67.5t-53.5 48t-86 18.5q-53 0 -86.5 -18.5t-53 -48t-27 -67.5t-7.5 -77zM505 241q0 -50 -11 -96t-37 -81.5t-69 -57t-107 -21.5t-107 21.5t-69 57t-37 81.5t-11 96
q0 49 11 95.5t37 82t69 57t107 21.5t107 -21.5t69 -57t37 -82t11 -95.5zM282 613q44 0 64.5 15.5t34.5 34.5l26 -20q-17 -30 -45.5 -51t-79.5 -21t-79.5 21t-45.5 51l26 20q14 -19 34.5 -34.5t64.5 -15.5z" />
    <glyph glyph-name="Ohungarumlaut" unicode="&#x150;" horiz-adv-x="696" 
d="M118 340q0 -64 11 -120t37.5 -97.5t71 -65.5t110.5 -24t110.5 24t71 65.5t37.5 97.5t11 120t-11 120t-37.5 97.5t-71 65.5t-110.5 24t-110.5 -24t-71 -65.5t-37.5 -97.5t-11 -120zM630 340q0 -77 -15.5 -142t-49.5 -112.5t-87.5 -74t-129.5 -26.5t-129.5 26.5t-87.5 74
t-49.5 112.5t-15.5 142t15.5 142t49.5 112.5t87.5 74t129.5 26.5t129.5 -26.5t87.5 -74t49.5 -112.5t15.5 -142zM360 854l-59 -110h-45v5l48 110h56v-5zM486 854l-59 -110h-45v5l48 110h56v-5z" />
    <glyph glyph-name="ohungarumlaut" unicode="&#x151;" horiz-adv-x="562" 
d="M107 241q0 -39 7.5 -77t27 -67.5t53 -48t86.5 -18.5q52 0 86 18.5t53.5 48t27 67.5t7.5 77t-7.5 77t-27 67.5t-53.5 48t-86 18.5q-53 0 -86.5 -18.5t-53 -48t-27 -67.5t-7.5 -77zM505 241q0 -50 -11 -96t-37 -81.5t-69 -57t-107 -21.5t-107 21.5t-69 57t-37 81.5t-11 96
q0 49 11 95.5t37 82t69 57t107 21.5t107 -21.5t69 -57t37 -82t11 -95.5zM300 691l-59 -110h-43v5l48 110h54v-5zM426 691l-59 -110h-43v5l48 110h54v-5z" />
    <glyph glyph-name="OE" unicode="&#x152;" horiz-adv-x="923" 
d="M448 0q-23 -7 -47.5 -11t-52.5 -4q-76 0 -129.5 26.5t-87.5 74t-49.5 112.5t-15.5 142t15.5 142t49.5 112.5t87.5 74t129.5 26.5q57 0 102 -15h407v-47h-359v-260h329v-47h-329v-279h362v-47h-412zM348 33q58 0 100 18v577q-44 19 -100 19q-66 0 -110.5 -24t-71 -65.5
t-37.5 -97.5t-11 -120t11 -120t37.5 -97.5t71 -65.5t110.5 -24z" />
    <glyph glyph-name="oe" unicode="&#x153;" horiz-adv-x="926" 
d="M281 497q43 0 76 -10t57.5 -28t40.5 -43t26 -54q25 62 74 98.5t119 36.5q51 0 88.5 -16.5t62 -44t37 -63.5t12.5 -75q0 -16 -2 -34t-5 -32h-363q1 -44 12.5 -81t33.5 -64t55.5 -42t79.5 -15q49 0 82.5 14t61.5 34l22 -38q-30 -22 -69 -38.5t-98 -16.5q-82 0 -131.5 35.5
t-72.5 95.5q-10 -29 -26 -53t-40.5 -41t-57 -27t-75.5 -10q-64 0 -107 21.5t-69 57t-37 81.5t-11 96q0 49 11 95.5t37 82t69 57t107 21.5zM107 241q0 -39 7.5 -77t27 -67.5t53 -48t86.5 -18.5q52 0 86 18.5t53.5 48t27 67.5t7.5 77t-7.5 77t-27 67.5t-53.5 48t-86 18.5
q-53 0 -86.5 -18.5t-53 -48t-27 -67.5t-7.5 -77zM674 452q-70 0 -115.5 -46.5t-53.5 -130.5h318q1 8 1 14.5v11.5q0 33 -9 60.5t-28 47.5t-47 31.5t-66 11.5z" />
    <glyph glyph-name="Racute" unicode="&#x154;" horiz-adv-x="610" 
d="M99 0v680h231q100 0 153.5 -47t53.5 -137q0 -86 -49 -131t-130 -53l222 -305v-7h-58l-223 311h-150v-311h-50zM324 358q162 0 162 138q0 67 -40 102t-122 35h-175v-275h175zM357 854l-59 -110h-45v5l48 110h56v-5z" />
    <glyph glyph-name="racute" unicode="&#x155;" horiz-adv-x="328" 
d="M122 482l6 -49h2q16 23 45 43.5t79 20.5q14 0 28 -2t25 -5l-8 -45q-24 7 -47 7q-46 0 -74 -23.5t-46 -53.5v-375h-48v482h38zM265 691l-59 -110h-43v5l48 110h54v-5z" />
    <glyph glyph-name="uni0156" unicode="&#x156;" horiz-adv-x="610" 
d="M99 0v680h231q100 0 153.5 -47t53.5 -137q0 -86 -49 -131t-130 -53l222 -305v-7h-58l-223 311h-150v-311h-50zM324 358q162 0 162 138q0 67 -40 102t-122 35h-175v-275h175zM258 -212l16 134h53v-6l-31 -134h-38v6z" />
    <glyph glyph-name="uni0157" unicode="&#x157;" horiz-adv-x="328" 
d="M122 482l6 -49h2q16 23 45 43.5t79 20.5q14 0 28 -2t25 -5l-8 -45q-24 7 -47 7q-46 0 -74 -23.5t-46 -53.5v-375h-48v482h38zM63 -212l16 134h53v-6l-31 -134h-38v6z" />
    <glyph glyph-name="Rcaron" unicode="&#x158;" horiz-adv-x="610" 
d="M99 0v680h231q100 0 153.5 -47t53.5 -137q0 -86 -49 -131t-130 -53l222 -305v-7h-58l-223 311h-150v-311h-50zM324 358q162 0 162 138q0 67 -40 102t-122 35h-175v-275h175zM163 854v5h52l68 -73l68 73h52v-5l-102 -110h-36z" />
    <glyph glyph-name="rcaron" unicode="&#x159;" horiz-adv-x="328" 
d="M122 482l6 -49h2q16 23 45 43.5t79 20.5q14 0 28 -2t25 -5l-8 -45q-24 7 -47 7q-46 0 -74 -23.5t-46 -53.5v-375h-48v482h38zM204 581h-36l-102 110v5h51l69 -73l69 73h51v-5z" />
    <glyph glyph-name="Sacute" unicode="&#x15a;" horiz-adv-x="523" 
d="M78 103q32 -28 75.5 -49t107.5 -21q31 0 59 9t49 26.5t33.5 43.5t12.5 60q0 53 -33.5 84.5t-103.5 58.5l-68 26q-68 25 -105.5 67.5t-37.5 100.5q0 39 14 73t40 59t64 39.5t86 14.5q57 0 103 -16t81 -41l-23 -42q-74 51 -161 51q-73 0 -112.5 -39t-39.5 -98q0 -42 26 -71
t86 -52l66 -25q85 -32 127.5 -75.5t42.5 -113.5q0 -41 -15.5 -75.5t-42.5 -59.5t-65 -39t-83 -14q-38 0 -68.5 6.5t-56 17t-46 24.5t-38.5 28zM348 854l-59 -110h-45v5l48 110h56v-5z" />
    <glyph glyph-name="sacute" unicode="&#x15b;" horiz-adv-x="435" 
d="M70 71q26 -20 59.5 -30.5t80.5 -10.5q60 0 92 24.5t32 68.5q0 30 -21.5 52t-77.5 39l-60 18q-55 17 -85 46t-30 80q0 60 43 99.5t124 39.5q43 0 79 -9.5t68 -24.5l-18 -43q-33 18 -65.5 25t-62.5 7q-60 0 -89 -25.5t-29 -67.5q0 -27 16.5 -47.5t61.5 -33.5l60 -18
q69 -20 102.5 -50.5t33.5 -85.5q0 -29 -11 -54.5t-33 -44t-54.5 -29.5t-74.5 -11q-55 0 -93 13t-70 33zM309 691l-59 -110h-43v5l48 110h54v-5z" />
    <glyph glyph-name="Scircumflex" unicode="&#x15c;" horiz-adv-x="523" 
d="M78 103q32 -28 75.5 -49t107.5 -21q31 0 59 9t49 26.5t33.5 43.5t12.5 60q0 53 -33.5 84.5t-103.5 58.5l-68 26q-68 25 -105.5 67.5t-37.5 100.5q0 39 14 73t40 59t64 39.5t86 14.5q57 0 103 -16t81 -41l-23 -42q-74 51 -161 51q-73 0 -112.5 -39t-39.5 -98q0 -42 26 -71
t86 -52l66 -25q85 -32 127.5 -75.5t42.5 -113.5q0 -41 -15.5 -75.5t-42.5 -59.5t-65 -39t-83 -14q-38 0 -68.5 6.5t-56 17t-46 24.5t-38.5 28zM393 749v-5h-52l-68 73l-68 -73h-52v5l102 110h36z" />
    <glyph glyph-name="scircumflex" unicode="&#x15d;" horiz-adv-x="435" 
d="M70 71q26 -20 59.5 -30.5t80.5 -10.5q60 0 92 24.5t32 68.5q0 30 -21.5 52t-77.5 39l-60 18q-55 17 -85 46t-30 80q0 60 43 99.5t124 39.5q43 0 79 -9.5t68 -24.5l-18 -43q-33 18 -65.5 25t-62.5 7q-60 0 -89 -25.5t-29 -67.5q0 -27 16.5 -47.5t61.5 -33.5l60 -18
q69 -20 102.5 -50.5t33.5 -85.5q0 -29 -11 -54.5t-33 -44t-54.5 -29.5t-74.5 -11q-55 0 -93 13t-70 33zM350 586v-5h-51l-69 73l-69 -73h-51v5l102 110h36z" />
    <glyph glyph-name="Scedilla" unicode="&#x15e;" horiz-adv-x="523" 
d="M78 103q32 -28 75.5 -49t107.5 -21q31 0 59 9t49 26.5t33.5 43.5t12.5 60q0 53 -33.5 84.5t-103.5 58.5l-68 26q-68 25 -105.5 67.5t-37.5 100.5q0 39 14 73t40 59t64 39.5t86 14.5q57 0 103 -16t81 -41l-23 -42q-74 51 -161 51q-73 0 -112.5 -39t-39.5 -98q0 -42 26 -71
t86 -52l66 -25q85 -32 127.5 -75.5t42.5 -113.5q0 -41 -15.5 -75.5t-42.5 -59.5t-65 -39t-83 -14q-38 0 -68.5 6.5t-56 17t-46 24.5t-38.5 28zM221 -80l22 87h45l-17 -57q29 -3 51 -20t22 -53q0 -46 -29 -68t-71 -22q-32 0 -52 7.5t-28 12.5l14 40q12 -8 29.5 -13t36.5 -5
q23 0 36.5 11.5t13.5 36.5q0 23 -17.5 30.5t-51.5 7.5z" />
    <glyph glyph-name="scedilla" unicode="&#x15f;" horiz-adv-x="435" 
d="M70 71q26 -20 59.5 -30.5t80.5 -10.5q60 0 92 24.5t32 68.5q0 30 -21.5 52t-77.5 39l-60 18q-55 17 -85 46t-30 80q0 60 43 99.5t124 39.5q43 0 79 -9.5t68 -24.5l-18 -43q-33 18 -65.5 25t-62.5 7q-60 0 -89 -25.5t-29 -67.5q0 -27 16.5 -47.5t61.5 -33.5l60 -18
q69 -20 102.5 -50.5t33.5 -85.5q0 -29 -11 -54.5t-33 -44t-54.5 -29.5t-74.5 -11q-55 0 -93 13t-70 33zM174 -80l22 87h45l-17 -57q29 -3 51 -20t22 -53q0 -46 -29 -68t-71 -22q-32 0 -52 7.5t-28 12.5l14 40q12 -8 29.5 -13t36.5 -5q23 0 36.5 11.5t13.5 36.5
q0 23 -17.5 30.5t-51.5 7.5z" />
    <glyph glyph-name="Scaron" unicode="&#x160;" horiz-adv-x="523" 
d="M78 103q32 -28 75.5 -49t107.5 -21q31 0 59 9t49 26.5t33.5 43.5t12.5 60q0 53 -33.5 84.5t-103.5 58.5l-68 26q-68 25 -105.5 67.5t-37.5 100.5q0 39 14 73t40 59t64 39.5t86 14.5q57 0 103 -16t81 -41l-23 -42q-74 51 -161 51q-73 0 -112.5 -39t-39.5 -98q0 -42 26 -71
t86 -52l66 -25q85 -32 127.5 -75.5t42.5 -113.5q0 -41 -15.5 -75.5t-42.5 -59.5t-65 -39t-83 -14q-38 0 -68.5 6.5t-56 17t-46 24.5t-38.5 28zM153 854v5h52l68 -73l68 73h52v-5l-102 -110h-36z" />
    <glyph glyph-name="scaron" unicode="&#x161;" horiz-adv-x="435" 
d="M70 71q26 -20 59.5 -30.5t80.5 -10.5q60 0 92 24.5t32 68.5q0 30 -21.5 52t-77.5 39l-60 18q-55 17 -85 46t-30 80q0 60 43 99.5t124 39.5q43 0 79 -9.5t68 -24.5l-18 -43q-33 18 -65.5 25t-62.5 7q-60 0 -89 -25.5t-29 -67.5q0 -27 16.5 -47.5t61.5 -33.5l60 -18
q69 -20 102.5 -50.5t33.5 -85.5q0 -29 -11 -54.5t-33 -44t-54.5 -29.5t-74.5 -11q-55 0 -93 13t-70 33zM247 581h-36l-102 110v5h51l69 -73l69 73h51v-5z" />
    <glyph glyph-name="uni0162" unicode="&#x162;" horiz-adv-x="520" 
d="M489 680v-47h-204v-633h-50v633h-204v47h458zM218 -80l22 87h45l-17 -57q29 -3 51 -20t22 -53q0 -46 -29 -68t-71 -22q-32 0 -52 7.5t-28 12.5l14 40q12 -8 29.5 -13t36.5 -5q23 0 36.5 11.5t13.5 36.5q0 23 -17.5 30.5t-51.5 7.5z" />
    <glyph glyph-name="uni0163" unicode="&#x163;" horiz-adv-x="308" 
d="M160 594v-112h117v-43h-117v-348q0 -61 53 -61q18 0 36 3.5t29 7.5v-44q-14 -5 -30.5 -8.5t-38.5 -3.5q-49 0 -73 28.5t-24 79.5v346h-86v35l86 8v112h48zM152 -80l22 87h45l-17 -57q29 -3 51 -20t22 -53q0 -46 -29 -68t-71 -22q-32 0 -52 7.5t-28 12.5l14 40
q12 -8 29.5 -13t36.5 -5q23 0 36.5 11.5t13.5 36.5q0 23 -17.5 30.5t-51.5 7.5z" />
    <glyph glyph-name="Tcaron" unicode="&#x164;" horiz-adv-x="520" 
d="M489 680v-47h-204v-633h-50v633h-204v47h458zM142 854v5h52l68 -73l68 73h52v-5l-102 -110h-36z" />
    <glyph glyph-name="tcaron" unicode="&#x165;" horiz-adv-x="307" 
d="M159 594v-112h117v-43h-117v-348q0 -61 53 -61q18 0 36 3.5t29 7.5v-44q-14 -5 -30.5 -8.5t-38.5 -3.5q-49 0 -73 28.5t-24 79.5v346h-86v35l86 8v112h48zM249 546l16 134h53v-6l-31 -134h-38v6z" />
    <glyph glyph-name="Tbar" unicode="&#x166;" horiz-adv-x="520" 
d="M489 680v-47h-204v-249h120v-47h-120v-337h-50v337h-119v47h119v249h-204v47h458z" />
    <glyph glyph-name="tbar" unicode="&#x167;" horiz-adv-x="310" 
d="M161 594v-112h117v-43h-117v-137h97v-43h-97v-168q0 -61 53 -61q18 0 36 3.5t29 7.5v-44q-14 -5 -30.5 -8.5t-38.5 -3.5q-49 0 -73 28.5t-24 79.5v166h-64v43h64v137h-86v35l86 8v112h48z" />
    <glyph glyph-name="Utilde" unicode="&#x168;" horiz-adv-x="680" 
d="M144 680v-439q0 -99 51.5 -153.5t144.5 -54.5t144.5 54.5t51.5 153.5v439h50v-444q0 -115 -63 -183t-183 -68t-183 68t-63 183v444h50zM390 804q17 0 29 8t26 27l23 -29q-15 -23 -34 -36t-44 -13q-14 0 -28 6t-27 13.5t-24.5 13.5t-20.5 6q-17 0 -29 -8t-26 -27l-23 29
q15 23 34 36t44 13q14 0 28 -6t27 -13.5t24.5 -13.5t20.5 -6z" />
    <glyph glyph-name="utilde" unicode="&#x169;" horiz-adv-x="547" 
d="M424 0l-5 44h-2q-11 -9 -27 -19t-37 -19t-46.5 -15t-55.5 -6q-87 0 -129 48t-42 142v307h48v-299q0 -79 30 -116t96 -37q54 0 94.5 19.5t66.5 39.5v393h48v-482h-39zM321 622q17 0 29 8.5t26 27.5l23 -29q-15 -23 -34 -35.5t-44 -12.5q-14 0 -28 6t-27 13.5t-24.5 13.5
t-20.5 6q-17 0 -29 -8.5t-26 -27.5l-23 29q15 23 34 35.5t44 12.5q14 0 28 -6t26.5 -13.5t24.5 -13.5t21 -6z" />
    <glyph glyph-name="Umacron" unicode="&#x16a;" horiz-adv-x="680" 
d="M144 680v-439q0 -99 51.5 -153.5t144.5 -54.5t144.5 54.5t51.5 153.5v439h50v-444q0 -115 -63 -183t-183 -68t-183 68t-63 183v444h50zM221 785v45h239v-45h-239z" />
    <glyph glyph-name="umacron" unicode="&#x16b;" horiz-adv-x="547" 
d="M424 0l-5 44h-2q-11 -9 -27 -19t-37 -19t-46.5 -15t-55.5 -6q-87 0 -129 48t-42 142v307h48v-299q0 -79 30 -116t96 -37q54 0 94.5 19.5t66.5 39.5v393h48v-482h-39zM152 596v43h239v-43h-239z" />
    <glyph glyph-name="Ubreve" unicode="&#x16c;" horiz-adv-x="680" 
d="M144 680v-439q0 -99 51.5 -153.5t144.5 -54.5t144.5 54.5t51.5 153.5v439h50v-444q0 -115 -63 -183t-183 -68t-183 68t-63 183v444h50zM340 808q44 0 64.5 15.5t34.5 34.5l26 -22q-17 -30 -45.5 -51t-79.5 -21t-79.5 21t-45.5 51l26 22q14 -19 34.5 -34.5t64.5 -15.5z
" />
    <glyph glyph-name="ubreve" unicode="&#x16d;" horiz-adv-x="547" 
d="M424 0l-5 44h-2q-11 -9 -27 -19t-37 -19t-46.5 -15t-55.5 -6q-87 0 -129 48t-42 142v307h48v-299q0 -79 30 -116t96 -37q54 0 94.5 19.5t66.5 39.5v393h48v-482h-39zM271 613q44 0 64.5 15.5t34.5 34.5l26 -20q-17 -30 -45.5 -51t-79.5 -21t-79.5 21t-45.5 51l26 20
q14 -19 34.5 -34.5t64.5 -15.5z" />
    <glyph glyph-name="Uring" unicode="&#x16e;" horiz-adv-x="680" 
d="M144 680v-439q0 -99 51.5 -153.5t144.5 -54.5t144.5 54.5t51.5 153.5v439h50v-444q0 -115 -63 -183t-183 -68t-183 68t-63 183v444h50zM294 815q0 -21 12.5 -32.5t33.5 -11.5t33.5 11.5t12.5 32.5t-12.5 32.5t-33.5 11.5t-33.5 -11.5t-12.5 -32.5zM258 815q0 36 23 57.5
t59 21.5t59 -21.5t23 -57.5t-23 -57.5t-59 -21.5t-59 21.5t-23 57.5z" />
    <glyph glyph-name="uring" unicode="&#x16f;" horiz-adv-x="547" 
d="M424 0l-5 44h-2q-11 -9 -27 -19t-37 -19t-46.5 -15t-55.5 -6q-87 0 -129 48t-42 142v307h48v-299q0 -79 30 -116t96 -37q54 0 94.5 19.5t66.5 39.5v393h48v-482h-39zM224 622q0 -21 12.5 -32.5t33.5 -11.5t33.5 11.5t12.5 32.5t-12.5 32.5t-33.5 11.5t-33.5 -11.5
t-12.5 -32.5zM188 622q0 36 23 57.5t59 21.5t59 -21.5t23 -57.5t-23 -57.5t-59 -21.5t-59 21.5t-23 57.5z" />
    <glyph glyph-name="Uhungarumlaut" unicode="&#x170;" horiz-adv-x="680" 
d="M144 680v-439q0 -99 51.5 -153.5t144.5 -54.5t144.5 54.5t51.5 153.5v439h50v-444q0 -115 -63 -183t-183 -68t-183 68t-63 183v444h50zM356 854l-59 -110h-45v5l48 110h56v-5zM482 854l-59 -110h-45v5l48 110h56v-5z" />
    <glyph glyph-name="uhungarumlaut" unicode="&#x171;" horiz-adv-x="547" 
d="M424 0l-5 44h-2q-11 -9 -27 -19t-37 -19t-46.5 -15t-55.5 -6q-87 0 -129 48t-42 142v307h48v-299q0 -79 30 -116t96 -37q54 0 94.5 19.5t66.5 39.5v393h48v-482h-39zM286 691l-59 -110h-43v5l48 110h54v-5zM412 691l-59 -110h-43v5l48 110h54v-5z" />
    <glyph glyph-name="Uogonek" unicode="&#x172;" horiz-adv-x="680" 
d="M343 -213q-45 0 -67.5 24.5t-22.5 59.5q0 37 16.5 64t46.5 51q-110 6 -166 72.5t-56 177.5v444h50v-439q0 -99 51.5 -153.5t144.5 -54.5t144.5 54.5t51.5 153.5v439h50v-444q0 -103 -50.5 -168.5t-139.5 -78.5q-44 -13 -71 -41.5t-27 -71.5q0 -19 11.5 -33t36.5 -14
q20 0 37 6.5t33 16.5l7 -38q-13 -10 -34 -18.5t-46 -8.5z" />
    <glyph glyph-name="uogonek" unicode="&#x173;" horiz-adv-x="547" 
d="M424 0l-5 44h-2q-11 -9 -27 -19t-37 -19t-46.5 -15t-55.5 -6q-87 0 -129 48t-42 142v307h48v-299q0 -79 30 -116t96 -37q54 0 94.5 19.5t66.5 39.5v393h48v-482h-39zM389 -213q-42 0 -65 23.5t-23 58.5q0 26 11.5 47.5t30.5 40.5t44 37t53 36l23 -30q-61 -41 -90 -67
t-29 -57q0 -17 11.5 -32t36.5 -15q20 0 37 6.5t33 16.5l7 -38q-13 -10 -34 -18.5t-46 -8.5z" />
    <glyph glyph-name="Wcircumflex" unicode="&#x174;" horiz-adv-x="946" 
d="M918 674l-205 -674h-53l-186 607h-2l-186 -607h-53l-205 674v6h51l180 -601h2l185 601h54l185 -601h2l180 601h51v-6zM593 749v-5h-52l-68 73l-68 -73h-52v5l102 110h36z" />
    <glyph glyph-name="wcircumflex" unicode="&#x175;" horiz-adv-x="802" 
d="M773 476l-173 -476h-50l-148 422h-2l-148 -422h-50l-173 476v6h48l149 -415h2l148 415h50l148 -415h2l149 415h48v-6zM522 586v-5h-51l-69 73l-69 -73h-51v5l102 110h36z" />
    <glyph glyph-name="Ycircumflex" unicode="&#x176;" horiz-adv-x="534" 
d="M73 680l193 -335h2l193 335h55v-6l-224 -384v-290h-50v290l-224 384v6h55zM388 749v-5h-52l-68 73l-68 -73h-52v5l102 110h36z" />
    <glyph glyph-name="ycircumflex" unicode="&#x177;" horiz-adv-x="474" 
d="M446 476l-206 -558q-24 -63 -58 -97t-88 -34q-14 0 -32.5 3t-29.5 6v44q12 -3 28.5 -5.5t32.5 -2.5q35 0 59 26.5t38 63.5l30 80l-195 474v6h51l166 -416h3l152 416h49v-6zM363 586v-5h-51l-69 73l-69 -73h-51v5l102 110h36z" />
    <glyph glyph-name="Ydieresis" unicode="&#x178;" horiz-adv-x="534" 
d="M73 680l193 -335h2l193 335h55v-6l-224 -384v-290h-50v290l-224 384v6h55zM140 801q0 17 11 28.5t28 11.5q16 0 27 -11.5t11 -28.5t-11 -28t-27 -11q-17 0 -28 11t-11 28zM318 801q0 17 11 28.5t28 11.5q16 0 27 -11.5t11 -28.5t-11 -28t-27 -11q-17 0 -28 11t-11 28z
" />
    <glyph glyph-name="Zacute" unicode="&#x179;" horiz-adv-x="505" 
d="M457 680v-42l-355 -589v-2h355v-47h-416v42l355 589v2h-339v47h400zM330 854l-59 -110h-45v5l48 110h56v-5z" />
    <glyph glyph-name="zacute" unicode="&#x17a;" horiz-adv-x="426" 
d="M378 482v-34l-273 -403v-2h273v-43h-336v32l274 405v2h-262v43h324zM296 691l-59 -110h-43v5l48 110h54v-5z" />
    <glyph glyph-name="Zdotaccent" unicode="&#x17b;" horiz-adv-x="505" 
d="M457 680v-42l-355 -589v-2h355v-47h-416v42l355 589v2h-339v47h400zM222 802q0 17 11 28.5t28 11.5q16 0 27 -11.5t11 -28.5t-11 -28t-27 -11q-17 0 -28 11t-11 28z" />
    <glyph glyph-name="zdotaccent" unicode="&#x17c;" horiz-adv-x="426" 
d="M378 482v-34l-273 -403v-2h273v-43h-336v32l274 405v2h-262v43h324zM186 626q0 17 11 28.5t28 11.5q16 0 27 -11.5t11 -28.5t-11 -28t-27 -11q-17 0 -28 11t-11 28z" />
    <glyph glyph-name="Zcaron" unicode="&#x17d;" horiz-adv-x="505" 
d="M457 680v-42l-355 -589v-2h355v-47h-416v42l355 589v2h-339v47h400zM145 854v5h52l68 -73l68 73h52v-5l-102 -110h-36z" />
    <glyph glyph-name="zcaron" unicode="&#x17e;" horiz-adv-x="426" 
d="M378 482v-34l-273 -403v-2h273v-43h-336v32l274 405v2h-262v43h324zM237 581h-36l-102 110v5h51l69 -73l69 73h51v-5z" />
    <glyph glyph-name="florin" unicode="&#x192;" 
d="M324 554q6 36 18 63t31 44t46.5 25.5t65.5 8.5q15 0 30 -1.5t27 -4.5l-8 -45q-24 6 -56 6q-47 0 -70.5 -20t-32.5 -71l-36 -207h127l-9 -43h-126l-66 -382q-12 -73 -48 -107t-113 -34q-15 0 -30 1.5t-27 4.5l8 45q24 -6 56 -6q47 0 70.5 20t32.5 71l67 387h-116l7 43h117
l35 202v0z" />
    <glyph glyph-name="Aringacute" unicode="&#x1fa;" horiz-adv-x="585" 
d="M378.532 902.865l-61.0205 -95.6797h-46.541v4.34863l49.6436 95.6797h57.918v-4.34863zM568 0h-53l-66 184h-311l-66 -184h-53l249 680h51zM293 614l-138 -384h277l-138 384h-1zM249 726q0 -21 12.5 -32.5t33.5 -11.5t33.5 11.5t12.5 32.5t-12.5 32.5t-33.5 11.5
t-33.5 -11.5t-12.5 -32.5zM213 726q0 36 23 57.5t59 21.5t59 -21.5t23 -57.5t-23 -57.5t-59 -21.5t-59 21.5t-23 57.5z" />
    <glyph glyph-name="aringacute" unicode="&#x1fb;" horiz-adv-x="498" 
d="M469 -4q-8 -2 -18 -4t-23 -2q-52 0 -61 52h-2q-26 -22 -67.5 -39.5t-94.5 -17.5q-34 0 -62.5 10.5t-49 29t-32 45.5t-11.5 60q0 78 58.5 114t173.5 36h82v29q0 80 -36.5 111.5t-94.5 31.5q-45 0 -77 -13t-58 -33l-22 36q28 24 67 39.5t90 15.5q40 0 73 -10.5t56.5 -33.5
t36.5 -58.5t13 -85.5v-241q0 -18 6 -26.5t26 -8.5h27v-37zM287 238q-52 0 -88 -6.5t-58.5 -20t-32.5 -33.5t-10 -47q0 -48 30 -74.5t79 -26.5q48 0 86.5 16t68.5 39v153h-75zM331 799l-59 -110h-43v5l48 110h54v-5zM203.749 595.129q0 -19.1387 12.4238 -29.6191
q12.4229 -10.4814 33.2949 -10.4814t33.2959 10.4814q12.4238 10.4805 12.4238 29.6191t-12.4238 29.6201q-12.4238 10.4805 -33.2959 10.4805t-33.2949 -10.4805q-12.4238 -10.4814 -12.4238 -29.6201zM167.969 595.129q0 32.8096 22.8594 52.4043t58.6396 19.5947
t58.6396 -19.5947q22.8604 -19.5947 22.8604 -52.4043t-22.8604 -52.4043q-22.8594 -19.5938 -58.6396 -19.5938t-58.6396 19.5938q-22.8594 19.5947 -22.8594 52.4043z" />
    <glyph glyph-name="AEacute" unicode="&#x1fc;" horiz-adv-x="866" 
d="M803 0h-412v198h-237l-110 -198h-55v5l383 675h428v-47h-359v-260h329v-47h-329v-279h362v-47zM389 620l-209 -376h211v376h-2zM666 854l-59 -110h-45v5l48 110h56v-5z" />
    <glyph glyph-name="aeacute" unicode="&#x1fd;" horiz-adv-x="823" 
d="M770 300q0 -16 -2 -34t-5 -32h-349q1 -44 11 -81.5t30 -64.5t52 -42.5t78 -15.5q49 0 80.5 14t59.5 34l22 -38q-30 -22 -67 -38.5t-96 -16.5q-77 0 -122.5 33t-69.5 86q-26 -57 -71.5 -88t-117.5 -31q-34 0 -62.5 10.5t-49 29t-32 45.5t-11.5 60q0 78 58.5 112.5
t173.5 34.5h85v32q0 40 -10 67.5t-28 44t-42.5 24t-53.5 7.5q-45 0 -77 -13t-58 -33l-22 36q28 24 67 39.5t90 15.5q63 0 105.5 -25.5t61.5 -83.5q26 52 69 80.5t107 28.5q52 0 89 -16t61 -43t35 -63t11 -75zM287 235q-52 0 -88 -6.5t-58.5 -19t-32.5 -32t-10 -46.5
q0 -48 30 -74.5t79 -26.5q31 0 60 10t50.5 31t34.5 54t13 79v31h-78zM719 277q1 8 1 14.5v11.5q0 65 -35 107t-111 42q-70 0 -110.5 -45.5t-48.5 -129.5h304zM502 691l-59 -110h-43v5l48 110h54v-5z" />
    <glyph glyph-name="Oslashacute" unicode="&#x1fe;" horiz-adv-x="696" 
d="M104 2l42 64q-43 48 -61.5 118t-18.5 156q0 77 15.5 142t49.5 112.5t87.5 74t129.5 26.5q56 0 99 -14.5t76 -41.5l41 63l38 -26l-46 -70q38 -48 56 -116t18 -150q0 -77 -15.5 -142t-49.5 -112.5t-87.5 -74t-129.5 -26.5q-54 0 -95 13t-73 37l-38 -58zM118 340
q0 -69 12.5 -128.5t44.5 -101.5l320 487q-26 24 -62 37t-85 13q-66 0 -110.5 -24t-71 -65.5t-37.5 -97.5t-11 -120zM578 340q0 66 -11.5 122.5t-40.5 98.5l-319 -484q26 -21 60.5 -32.5t80.5 -11.5q66 0 110.5 24t71 65.5t37.5 97.5t11 120zM424 854l-59 -110h-45v5l48 110
h56v-5z" />
    <glyph glyph-name="oslashacute" unicode="&#x1ff;" horiz-adv-x="562" 
d="M360 691l-59 -110h-43v5l48 110h54v-5zM84 1l34 47q-34 36 -47.5 86.5t-13.5 106.5q0 49 11 95.5t37 82t69 57t107 21.5q43 0 76 -10.5t59 -27.5l32 44l37 -27l-36 -48q31 -37 43.5 -85.5t12.5 -101.5q0 -50 -11 -96t-37 -81.5t-69 -57t-107 -21.5q-42 0 -74.5 9.5
t-57.5 26.5l-33 -45zM107 241q0 -42 8.5 -82t31.5 -71l241 332q-20 15 -46 23.5t-61 8.5q-53 0 -86.5 -18.5t-53 -48t-27 -67.5t-7.5 -77zM455 241q0 39 -8 77.5t-28 68.5l-242 -328q19 -14 44.5 -21.5t59.5 -7.5q52 0 86 18.5t53.5 48t27 67.5t7.5 77z" />
    <glyph glyph-name="uni0218" unicode="&#x218;" horiz-adv-x="523" 
d="M78 103q32 -28 75.5 -49t107.5 -21q31 0 59 9t49 26.5t33.5 43.5t12.5 60q0 53 -33.5 84.5t-103.5 58.5l-68 26q-68 25 -105.5 67.5t-37.5 100.5q0 39 14 73t40 59t64 39.5t86 14.5q57 0 103 -16t81 -41l-23 -42q-74 51 -161 51q-73 0 -112.5 -39t-39.5 -98q0 -42 26 -71
t86 -52l66 -25q85 -32 127.5 -75.5t42.5 -113.5q0 -41 -15.5 -75.5t-42.5 -59.5t-65 -39t-83 -14q-38 0 -68.5 6.5t-56 17t-46 24.5t-38.5 28zM214 -212l16 134h53v-6l-31 -134h-38v6z" />
    <glyph glyph-name="uni0219" unicode="&#x219;" horiz-adv-x="435" 
d="M70 71q26 -20 59.5 -30.5t80.5 -10.5q60 0 92 24.5t32 68.5q0 30 -21.5 52t-77.5 39l-60 18q-55 17 -85 46t-30 80q0 60 43 99.5t124 39.5q43 0 79 -9.5t68 -24.5l-18 -43q-33 18 -65.5 25t-62.5 7q-60 0 -89 -25.5t-29 -67.5q0 -27 16.5 -47.5t61.5 -33.5l60 -18
q69 -20 102.5 -50.5t33.5 -85.5q0 -29 -11 -54.5t-33 -44t-54.5 -29.5t-74.5 -11q-55 0 -93 13t-70 33zM179 -212l16 134h53v-6l-31 -134h-38v6z" />
    <glyph glyph-name="uni021A" unicode="&#x21a;" horiz-adv-x="520" 
d="M489 680v-47h-204v-633h-50v633h-204v47h458zM216 -212l16 134h53v-6l-31 -134h-38v6z" />
    <glyph glyph-name="uni021B" unicode="&#x21b;" horiz-adv-x="307" 
d="M159 594v-112h117v-43h-117v-348q0 -61 53 -61q18 0 36 3.5t29 7.5v-44q-14 -5 -30.5 -8.5t-38.5 -3.5q-49 0 -73 28.5t-24 79.5v346h-86v35l86 8v112h48zM142 -212l16 134h53v-6l-31 -134h-38v6z" />
    <glyph glyph-name="uni0237" unicode="&#x237;" horiz-adv-x="216" 
d="M132 482v-544q0 -83 -27 -117t-84 -34q-17 0 -30 2.5t-26 5.5v43q25 -6 55 -6q64 0 64 89v561h48z" />
    <glyph glyph-name="circumflex" unicode="&#x2c6;" 
d="M415 586v-5h-51l-69 73l-69 -73h-51v5l102 110h36z" />
    <glyph glyph-name="caron" unicode="&#x2c7;" 
d="M313 581h-36l-102 110v5h51l69 -73l69 73h51v-5z" />
    <glyph glyph-name="uni02C9" unicode="&#x2c9;" 
d="M174 606v43h239v-43h-239z" />
    <glyph glyph-name="breve" unicode="&#x2d8;" 
d="M294 613q44 0 64.5 15.5t34.5 34.5l26 -20q-17 -30 -45.5 -51t-79.5 -21t-79.5 21t-45.5 51l26 20q14 -19 34.5 -34.5t64.5 -15.5z" />
    <glyph glyph-name="dotaccent" unicode="&#x2d9;" 
d="M254 626q0 17 11 28.5t28 11.5q16 0 27 -11.5t11 -28.5t-11 -28t-27 -11q-17 0 -28 11t-11 28z" />
    <glyph glyph-name="ring" unicode="&#x2da;" 
d="M249 622q0 -21 12.5 -32.5t33.5 -11.5t33.5 11.5t12.5 32.5t-12.5 32.5t-33.5 11.5t-33.5 -11.5t-12.5 -32.5zM213 622q0 36 23 57.5t59 21.5t59 -21.5t23 -57.5t-23 -57.5t-59 -21.5t-59 21.5t-23 57.5z" />
    <glyph glyph-name="ogonek" unicode="&#x2db;" 
d="M298 -213q-42 0 -65 23.5t-23 58.5q0 26 11.5 47.5t30.5 40.5t44 37t53 36l23 -30q-61 -41 -90 -67t-29 -57q0 -17 11.5 -32t36.5 -15q20 0 37 6.5t33 16.5l7 -38q-13 -10 -34 -18.5t-46 -8.5z" />
    <glyph glyph-name="tilde" unicode="&#x2dc;" 
d="M345 622q17 0 29 8.5t26 27.5l23 -29q-15 -23 -34 -35.5t-44 -12.5q-14 0 -28 6t-27 13.5t-24.5 13.5t-20.5 6q-17 0 -29 -8.5t-26 -27.5l-23 29q15 23 34 35.5t44 12.5q14 0 28 -6t26.5 -13.5t24.5 -13.5t21 -6z" />
    <glyph glyph-name="hungarumlaut" unicode="&#x2dd;" 
d="M281 691l-59 -110h-43v5l48 110h54v-5zM407 691l-59 -110h-43v5l48 110h54v-5z" />
    <glyph glyph-name="tonos" unicode="&#x384;" 
d="M364 699l-41 -130h-36v5l25 130h52v-5z" />
    <glyph glyph-name="dieresistonos" unicode="&#x385;" 
d="M357 699l-41 -130h-36v5l25 130h52v-5zM146 626q0 17 11 28.5t28 11.5q16 0 27 -11.5t11 -28.5t-11 -28t-27 -11q-17 0 -28 11t-11 28zM403 626q0 17 11 28.5t28 11.5q16 0 27 -11.5t11 -28.5t-11 -28t-27 -11q-17 0 -28 11t-11 28z" />
    <glyph glyph-name="Alphatonos" unicode="&#x386;" horiz-adv-x="604" 
d="M585 0h-53l-66 184h-311l-66 -184h-53l249 680h51zM310 614l-138 -384h277l-138 384h-1zM160 675l-41 -130h-35v5l25 130h51v-5z" />
    <glyph glyph-name="anoteleia" unicode="&#x387;" horiz-adv-x="246" 
d="M79 289q0 20 12.5 32t31.5 12t31.5 -12t12.5 -32t-12.5 -32t-31.5 -12t-31.5 12t-12.5 32z" />
    <glyph glyph-name="Epsilontonos" unicode="&#x388;" horiz-adv-x="643" 
d="M577 680v-47h-359v-260h329v-47h-329v-279h362v-47h-412v680h409zM101 675l-41 -130h-35v5l25 130h51v-5z" />
    <glyph glyph-name="Etatonos" unicode="&#x389;" horiz-adv-x="750" 
d="M601 326h-389v-326h-50v680h50v-307h389v307h50v-680h-50v326zM101 675l-41 -130h-35v5l25 130h51v-5z" />
    <glyph glyph-name="Iotatonos" unicode="&#x38a;" horiz-adv-x="314" 
d="M215 0h-49v680h49v-680zM101 675l-41 -130h-35v5l25 130h51v-5z" />
    <glyph glyph-name="Omicrontonos" unicode="&#x38c;" horiz-adv-x="745" 
d="M167 340q0 -64 11 -120t37.5 -97.5t71 -65.5t110.5 -24t110.5 24t71 65.5t37.5 97.5t11 120t-11 120t-37.5 97.5t-71 65.5t-110.5 24t-110.5 -24t-71 -65.5t-37.5 -97.5t-11 -120zM679 340q0 -77 -15.5 -142t-49.5 -112.5t-87.5 -74t-129.5 -26.5t-129.5 26.5t-87.5 74
t-49.5 112.5t-15.5 142t15.5 142t49.5 112.5t87.5 74t129.5 26.5t129.5 -26.5t87.5 -74t49.5 -112.5t15.5 -142zM109 675l-41 -130h-35v5l25 130h51v-5z" />
    <glyph glyph-name="Upsilontonos" unicode="&#x38e;" horiz-adv-x="669" 
d="M208 680l193 -335h2l193 335h55v-6l-224 -384v-290h-50v290l-224 384v6h55zM113 675l-41 -130h-35v5l25 130h51v-5z" />
    <glyph glyph-name="Omegatonos" unicode="&#x38f;" horiz-adv-x="744" 
d="M399 695q76 0 128.5 -26.5t85.5 -70.5t47.5 -102t14.5 -122q0 -57 -11.5 -106t-31 -89.5t-45 -73.5t-52.5 -58h128v-47h-200v43q78 57 119 139t41 192q0 51 -9.5 100t-34.5 87.5t-68.5 62t-111.5 23.5t-111.5 -23.5t-68.5 -62t-34.5 -87.5t-9.5 -100q0 -110 41 -192
t119 -139v-43h-200v47h128q-27 25 -52.5 58t-45 73.5t-31 89.5t-11.5 106q0 64 14.5 122t47.5 102t85.5 70.5t128.5 26.5zM109 675l-41 -130h-35v5l25 130h51v-5z" />
    <glyph glyph-name="iotadieresistonos" unicode="&#x390;" horiz-adv-x="236" 
d="M134 482v-397q0 -32 10 -43.5t29 -11.5q11 0 22 2t21 5v-44q-12 -4 -23.5 -6t-26.5 -2q-42 0 -61 24.5t-19 70.5v402h48zM167 699l-41 -130h-36v5l25 130h52v-5zM-44 626q0 17 11 28.5t28 11.5q16 0 27 -11.5t11 -28.5t-11 -28t-27 -11q-17 0 -28 11t-11 28zM213 626
q0 17 11 28.5t28 11.5q16 0 27 -11.5t11 -28.5t-11 -28t-27 -11q-17 0 -28 11t-11 28z" />
    <glyph glyph-name="Alpha" unicode="&#x391;" horiz-adv-x="587" 
d="M568 0h-53l-66 184h-311l-66 -184h-53l249 680h51zM293 614l-138 -384h277l-138 384h-1z" />
    <glyph glyph-name="Beta" unicode="&#x392;" horiz-adv-x="598" 
d="M149 47h164q35 0 66 7t54.5 23t37.5 42.5t14 65.5t-13.5 65.5t-36.5 42.5t-54 23t-66 7h-166v-276zM301 680q46 0 85 -9.5t67.5 -30.5t44 -54.5t15.5 -81.5q0 -33 -8.5 -58.5t-23 -44t-32.5 -31t-36 -19.5v-2q55 -14 89.5 -55.5t34.5 -110.5q0 -48 -17 -82.5t-46.5 -57
t-69.5 -33t-85 -10.5h-220v680h202zM149 370h148q34 0 63.5 6t52 20.5t35.5 40t13 64.5t-13 64.5t-35.5 40.5t-52 21t-63.5 6h-148v-263z" />
    <glyph glyph-name="Gamma" unicode="&#x393;" horiz-adv-x="501" 
d="M99 0v680h373v-47h-323v-633h-50z" />
    <glyph glyph-name="uni0394" unicode="&#x394;" horiz-adv-x="589" 
d="M295 618l-208 -572h417l-208 572h-1zM22 5l248 675h51l248 -675v-5h-547v5z" />
    <glyph glyph-name="Epsilon" unicode="&#x395;" horiz-adv-x="574" 
d="M508 680v-47h-359v-260h329v-47h-329v-279h362v-47h-412v680h409z" />
    <glyph glyph-name="Zeta" unicode="&#x396;" horiz-adv-x="505" 
d="M457 680v-42l-355 -589v-2h355v-47h-416v42l355 589v2h-339v47h400z" />
    <glyph glyph-name="Eta" unicode="&#x397;" horiz-adv-x="687" 
d="M538 326h-389v-326h-50v680h50v-307h389v307h50v-680h-50v326z" />
    <glyph glyph-name="Theta" unicode="&#x398;" horiz-adv-x="696" 
d="M225 326v47h251v-47h-251zM118 340q0 -64 11 -120t37.5 -97.5t71 -65.5t110.5 -24t110.5 24t71 65.5t37.5 97.5t11 120t-11 120t-37.5 97.5t-71 65.5t-110.5 24t-110.5 -24t-71 -65.5t-37.5 -97.5t-11 -120zM630 340q0 -77 -15.5 -142t-49.5 -112.5t-87.5 -74
t-129.5 -26.5t-129.5 26.5t-87.5 74t-49.5 112.5t-15.5 142t15.5 142t49.5 112.5t87.5 74t129.5 26.5t129.5 -26.5t87.5 -74t49.5 -112.5t15.5 -142z" />
    <glyph glyph-name="Iota" unicode="&#x399;" horiz-adv-x="247" 
d="M148 0h-49v680h49v-680z" />
    <glyph glyph-name="Kappa" unicode="&#x39a;" horiz-adv-x="546" 
d="M149 318v-318h-50v680h50v-337h2l313 337h58v-6l-315 -340l334 -328v-6h-65l-325 318h-2z" />
    <glyph glyph-name="Lambda" unicode="&#x39b;" horiz-adv-x="587" 
d="M72 0h-53l249 680h51l249 -680h-53l-221 618h-1z" />
    <glyph glyph-name="Mu" unicode="&#x39c;" horiz-adv-x="807" 
d="M405 235l256 445h47v-680h-50v576h-2l-231 -403h-43l-231 403h-2v-576h-50v680h47l256 -445h3z" />
    <glyph glyph-name="Nu" unicode="&#x39d;" horiz-adv-x="690" 
d="M542 92v588h49v-680h-48l-392 589h-2v-589h-50v680h48l393 -588h2z" />
    <glyph glyph-name="Xi" unicode="&#x39e;" horiz-adv-x="566" 
d="M500 47v-47h-434v47h434zM103 326v47h362v-47h-362zM66 633v47h431v-47h-431z" />
    <glyph glyph-name="Omicron" unicode="&#x39f;" horiz-adv-x="696" 
d="M118 340q0 -64 11 -120t37.5 -97.5t71 -65.5t110.5 -24t110.5 24t71 65.5t37.5 97.5t11 120t-11 120t-37.5 97.5t-71 65.5t-110.5 24t-110.5 -24t-71 -65.5t-37.5 -97.5t-11 -120zM630 340q0 -77 -15.5 -142t-49.5 -112.5t-87.5 -74t-129.5 -26.5t-129.5 26.5t-87.5 74
t-49.5 112.5t-15.5 142t15.5 142t49.5 112.5t87.5 74t129.5 26.5t129.5 -26.5t87.5 -74t49.5 -112.5t15.5 -142z" />
    <glyph glyph-name="Pi" unicode="&#x3a0;" horiz-adv-x="687" 
d="M538 633h-389v-633h-50v680h489v-680h-50v633z" />
    <glyph glyph-name="Rho" unicode="&#x3a1;" horiz-adv-x="568" 
d="M99 0v680h211q103 0 158 -50.5t55 -148.5t-55.5 -148t-157.5 -50h-161v-283h-50zM149 330h155q167 0 167 151q0 152 -167 152h-155v-303z" />
    <glyph glyph-name="Sigma" unicode="&#x3a3;" horiz-adv-x="526" 
d="M40 42l201 304l-185 292v42h422v-47h-359l182 -287l-199 -299h376v-47h-438v42z" />
    <glyph glyph-name="Tau" unicode="&#x3a4;" horiz-adv-x="520" 
d="M489 680v-47h-204v-633h-50v633h-204v47h458z" />
    <glyph glyph-name="Upsilon" unicode="&#x3a5;" horiz-adv-x="534" 
d="M73 680l193 -335h2l193 335h55v-6l-224 -384v-290h-50v290l-224 384v6h55z" />
    <glyph glyph-name="Phi" unicode="&#x3a6;" horiz-adv-x="734" 
d="M101 341q0 -46 12 -85.5t39.5 -69t74 -47t115.5 -19.5v444q-69 -4 -115.5 -21.5t-74 -46t-39.5 -68t-12 -87.5zM392 0h-50v68q-81 3 -136.5 25.5t-90.5 59.5t-50.5 85.5t-15.5 102.5q0 55 15.5 103t50.5 85t90.5 59t136.5 25v67h50v-67q81 -3 136.5 -25t90.5 -59
t50.5 -85t15.5 -103q0 -54 -15.5 -102.5t-50.5 -85.5t-90.5 -59.5t-136.5 -25.5v-68zM633 341q0 48 -12 87.5t-39.5 68t-74 46t-115.5 21.5v-444q69 2 115.5 19.5t74 47t39.5 69t12 85.5z" />
    <glyph glyph-name="Chi" unicode="&#x3a7;" horiz-adv-x="562" 
d="M88 680l192 -300h2l192 300h56v-6l-216 -333l216 -335v-6h-55l-193 301h-2l-193 -301h-55v6l216 335l-216 333v6h56z" />
    <glyph glyph-name="Psi" unicode="&#x3a8;" horiz-adv-x="680" 
d="M365 0h-50v157q-128 1 -188.5 61t-60.5 170v292h50v-292q0 -86 46 -133.5t153 -48.5v474h50v-474q107 1 153 48.5t46 133.5v292h50v-292q0 -110 -60.5 -170t-188.5 -61v-157z" />
    <glyph glyph-name="uni03A9" unicode="&#x3a9;" horiz-adv-x="690" 
d="M346 695q76 0 128.5 -26.5t85.5 -70.5t47.5 -102t14.5 -122q0 -57 -11.5 -106t-31 -89.5t-45 -73.5t-52.5 -58h128v-47h-200v43q78 57 119 139t41 192q0 51 -9.5 100t-34.5 87.5t-68.5 62t-111.5 23.5t-111.5 -23.5t-68.5 -62t-34.5 -87.5t-9.5 -100q0 -110 41 -192
t119 -139v-43h-200v47h128q-27 25 -52.5 58t-45 73.5t-31 89.5t-11.5 106q0 64 14.5 122t47.5 102t85.5 70.5t128.5 26.5z" />
    <glyph glyph-name="Iotadieresis" unicode="&#x3aa;" horiz-adv-x="247" 
d="M148 0h-49v680h49v-680zM-6 801q0 17 11 28.5t28 11.5q16 0 27 -11.5t11 -28.5t-11 -28t-27 -11q-17 0 -28 11t-11 28zM172 801q0 17 11 28.5t28 11.5q16 0 27 -11.5t11 -28.5t-11 -28t-27 -11q-17 0 -28 11t-11 28z" />
    <glyph glyph-name="Upsilondieresis" unicode="&#x3ab;" horiz-adv-x="534" 
d="M73 680l193 -335h2l193 335h55v-6l-224 -384v-290h-50v290l-224 384v6h55zM138 801q0 17 11 28.5t28 11.5q16 0 27 -11.5t11 -28.5t-11 -28t-27 -11q-17 0 -28 11t-11 28zM316 801q0 17 11 28.5t28 11.5q16 0 27 -11.5t11 -28.5t-11 -28t-27 -11q-17 0 -28 11t-11 28z
" />
    <glyph glyph-name="alphatonos" unicode="&#x3ac;" horiz-adv-x="584" 
d="M59 241q0 52 10 98.5t33 81.5t60 55.5t91 20.5q34 0 60.5 -12t48 -34.5t39 -55t34.5 -73.5h2l44 160h50l-70 -241l70 -241h-50l-44 160h-2q-33 -83 -73.5 -129t-108.5 -46q-54 0 -91 20.5t-60 55.5t-33 81.5t-10 98.5zM109 241q0 -44 8.5 -82.5t26.5 -67t45 -45t64 -16.5
q30 0 55.5 17.5t45.5 46.5t35 67t25 80q-10 42 -25 80t-35 67t-45.5 46.5t-55.5 17.5q-37 0 -64 -16.5t-45 -45t-26.5 -67t-8.5 -82.5zM343 699l-41 -130h-36v5l25 130h52v-5z" />
    <glyph glyph-name="epsilontonos" unicode="&#x3ad;" horiz-adv-x="469" 
d="M321 699l-41 -130h-36v5l25 130h52v-5zM342 272v-43h-115q-51 0 -83 -22.5t-32 -68.5q0 -108 137 -108q43 0 81.5 8t79.5 27l15 -39q-38 -19 -79.5 -30t-96.5 -11q-90 0 -138.5 38t-48.5 111q0 44 22.5 73t64.5 43v2q-29 10 -50.5 36t-21.5 66q0 30 10 55.5t31 44.5
t53.5 30t77.5 11q48 0 87 -11t74 -27l-16 -40q-35 14 -67 23.5t-77 9.5q-35 0 -59 -7t-38 -19.5t-20 -31t-6 -40.5q0 -38 26.5 -59t77.5 -21h111z" />
    <glyph glyph-name="etatonos" unicode="&#x3ae;" horiz-adv-x="555" 
d="M123 482l5 -44h2q11 8 28 18t39 19t48 15.5t56 6.5q86 0 130 -48t44 -142v-505h-48v497q0 79 -32 116t-98 37q-54 0 -96.5 -19.5t-68.5 -39.5v-393h-48v482h39zM354 699l-41 -130h-36v5l25 130h52v-5z" />
    <glyph glyph-name="iotatonos" unicode="&#x3af;" horiz-adv-x="236" 
d="M134 482v-397q0 -32 10 -43.5t29 -11.5q11 0 22 2t21 5v-44q-12 -4 -23.5 -6t-26.5 -2q-42 0 -61 24.5t-19 70.5v402h48zM172 699l-41 -130h-36v5l25 130h52v-5z" />
    <glyph glyph-name="upsilondieresistonos" unicode="&#x3b0;" horiz-adv-x="536" 
d="M311 699l-41 -130h-36v5l25 130h52v-5zM127 221q0 -98 35 -144.5t112 -46.5q78 0 114.5 49t36.5 156q0 32 -5.5 66t-14 67t-20 62t-23.5 52h57q9 -20 18.5 -47t18 -59t14 -67.5t5.5 -73.5q0 -127 -52 -188.5t-149 -61.5q-92 0 -143.5 53.5t-51.5 177.5v266h48v-261z" />
    <glyph glyph-name="alpha" unicode="&#x3b1;" horiz-adv-x="584" 
d="M59 241q0 52 10 98.5t33 81.5t60 55.5t91 20.5q34 0 60.5 -12t48 -34.5t39 -55t34.5 -73.5h2l44 160h50l-70 -241l70 -241h-50l-44 160h-2q-33 -83 -73.5 -129t-108.5 -46q-54 0 -91 20.5t-60 55.5t-33 81.5t-10 98.5zM109 241q0 -44 8.5 -82.5t26.5 -67t45 -45t64 -16.5
q30 0 55.5 17.5t45.5 46.5t35 67t25 80q-10 42 -25 80t-35 67t-45.5 46.5t-55.5 17.5q-37 0 -64 -16.5t-45 -45t-26.5 -67t-8.5 -82.5z" />
    <glyph glyph-name="beta" unicode="&#x3b2;" horiz-adv-x="553" 
d="M132 -198h-48v687q0 114 46 165t134 51q44 0 77.5 -15t56.5 -40t35 -58t12 -68q0 -61 -26.5 -96.5t-59.5 -49.5v-2q27 -6 52 -18.5t44.5 -35t31 -56.5t11.5 -82q0 -44 -14 -80.5t-40.5 -62.5t-63.5 -41t-83 -15q-57 0 -97.5 14t-65.5 30h-2v-227zM132 82
q28 -21 65.5 -36.5t99.5 -15.5q33 0 60.5 11.5t48 32.5t31.5 49.5t11 63.5q0 75 -40.5 119.5t-126.5 44.5h-54v43h54q30 0 51.5 10.5t35.5 28.5t20.5 41t6.5 48q0 31 -10 56.5t-27 43.5t-41.5 28t-52.5 10q-72 0 -102 -41.5t-30 -129.5v-407z" />
    <glyph glyph-name="gamma" unicode="&#x3b3;" horiz-adv-x="463" 
d="M198 -198v205l-170 470v5h51l147 -417h2q29 47 53.5 100.5t43 108t32 108t19.5 100.5h50v-5q-14 -106 -56.5 -223.5t-123.5 -246.5v-205h-48z" />
    <glyph glyph-name="delta" unicode="&#x3b4;" horiz-adv-x="559" 
d="M404 647q-27 5 -52.5 9t-52.5 4q-49 0 -69 -19.5t-20 -48.5q0 -24 22 -47.5t54.5 -49t71 -54t71 -63t54.5 -76t22 -91.5q0 -40 -12.5 -80t-39.5 -72.5t-69.5 -53t-102.5 -20.5q-63 0 -106 19t-69.5 50t-38.5 71t-12 82q0 45 13.5 85t38.5 74t59 60.5t76 44.5
q-34 28 -58 56.5t-24 64.5q0 52 33.5 82.5t105.5 30.5q29 0 54 -3.5t51 -8.5v-46zM455 210q0 39 -17 72.5t-42.5 61.5t-57 52t-59.5 45q-37 -16 -68.5 -39t-55 -52t-37 -65t-13.5 -78q0 -30 8 -61t28 -57t54 -42.5t86 -16.5q49 0 82 17.5t53.5 44.5t29.5 58.5t9 59.5z" />
    <glyph glyph-name="epsilon" unicode="&#x3b5;" horiz-adv-x="469" 
d="M342 272v-43h-115q-51 0 -83 -22.5t-32 -68.5q0 -108 137 -108q43 0 81.5 8t79.5 27l15 -39q-38 -19 -79.5 -30t-96.5 -11q-90 0 -138.5 38t-48.5 111q0 44 22.5 73t64.5 43v2q-29 10 -50.5 36t-21.5 66q0 30 10 55.5t31 44.5t53.5 30t77.5 11q48 0 87 -11t74 -27
l-16 -40q-35 14 -67 23.5t-77 9.5q-35 0 -59 -7t-38 -19.5t-20 -31t-6 -40.5q0 -38 26.5 -59t77.5 -21h111z" />
    <glyph glyph-name="zeta" unicode="&#x3b6;" horiz-adv-x="425" 
d="M408 665q-84 -100 -143 -173.5t-96 -128.5t-53.5 -95t-16.5 -74q0 -39 20.5 -63t51 -40.5t66.5 -28.5t66.5 -27t51 -36t20.5 -56q0 -22 -7 -39t-18.5 -30t-25.5 -23t-28 -17l-28 32q25 12 41 30.5t16 42.5q0 25 -20.5 40t-51 27t-66.5 25t-66.5 32.5t-51 49t-20.5 76.5
q0 40 20 87t57.5 103.5t92.5 124.5t126 151v2h-279v43h342v-35z" />
    <glyph glyph-name="eta" unicode="&#x3b7;" horiz-adv-x="555" 
d="M123 482l5 -44h2q11 8 28 18t39 19t48 15.5t56 6.5q86 0 130 -48t44 -142v-505h-48v497q0 79 -32 116t-98 37q-54 0 -96.5 -19.5t-68.5 -39.5v-393h-48v482h39z" />
    <glyph glyph-name="theta" unicode="&#x3b8;" horiz-adv-x="600" 
d="M300 705q60 0 104 -25.5t73.5 -72.5t44 -113.5t14.5 -148.5t-14.5 -148.5t-44 -113.5t-73.5 -72.5t-104 -25.5t-104 25.5t-73.5 72.5t-44 113.5t-14.5 148.5t14.5 148.5t44 113.5t73.5 72.5t104 25.5zM300 30q49 0 84 22t56.5 61t32 92.5t12.5 116.5h-371
q1 -63 12 -116.5t33 -92.5t56.5 -61t84.5 -22zM300 660q-50 0 -84.5 -22t-56.5 -61t-33 -92t-12 -116h371q-2 63 -12.5 116t-32 92t-56.5 61t-84 22z" />
    <glyph glyph-name="iota" unicode="&#x3b9;" horiz-adv-x="236" 
d="M134 482v-397q0 -32 10 -43.5t29 -11.5q11 0 22 2t21 5v-44q-12 -4 -23.5 -6t-26.5 -2q-42 0 -61 24.5t-19 70.5v402h48z" />
    <glyph glyph-name="kappa" unicode="&#x3ba;" horiz-adv-x="451" 
d="M132 225v-225h-48v482h48v-230h2l227 230h59v-5l-237 -236l245 -236v-5h-62l-232 225h-2z" />
    <glyph glyph-name="lambda" unicode="&#x3bb;" horiz-adv-x="476" 
d="M447 0h-49l-153 416h-3l-165 -416h-51v6l195 474l-34 90q-7 18 -14.5 34.5t-17 29t-22.5 19.5t-30 7q-16 0 -30.5 -2.5t-26.5 -5.5v44q11 3 27.5 6t30.5 3q27 0 46.5 -8.5t35 -25.5t27.5 -41.5t24 -55.5l210 -568v-6z" />
    <glyph glyph-name="uni03BC" unicode="&#x3bc;" horiz-adv-x="551" 
d="M84 -198v680h48v-299q0 -79 30 -116t96 -37q54 0 94.5 19.5t66.5 39.5v393h48v-482h-39l-5 44h-2q-11 -8 -27 -18t-37 -19t-46.5 -15.5t-55.5 -6.5q-87 0 -123 51v-234h-48z" />
    <glyph glyph-name="nu" unicode="&#x3bd;" horiz-adv-x="464" 
d="M199 0l-170 477v5h51l147 -424h2q29 47 53.5 101.5t43 110.5t32 110.5t19.5 101.5h50v-5q-14 -106 -56.5 -227t-123.5 -250h-48z" />
    <glyph glyph-name="xi" unicode="&#x3be;" horiz-adv-x="444" 
d="M157 657h-80v43h341v-43h-141q-41 0 -70.5 -12.5t-48 -33.5t-27.5 -48t-9 -56q0 -28 8.5 -53.5t26 -44.5t45.5 -30.5t67 -11.5h93v-43h-95q-44 0 -74.5 -11t-50 -29.5t-28 -44t-8.5 -54.5q0 -44 23.5 -68.5t58 -39.5t75.5 -24.5t75.5 -21.5t58 -32t23.5 -56q0 -22 -7 -39
t-18 -30t-25 -23t-29 -17l-28 32q25 12 41 30.5t16 42.5t-23.5 36.5t-58 22t-75.5 20t-75.5 29.5t-58 51t-23.5 85q0 63 30 103.5t87 59.5v2q-52 26 -76.5 63t-24.5 96q0 54 23 90t62 58v2z" />
    <glyph glyph-name="omicron" unicode="&#x3bf;" horiz-adv-x="562" 
d="M107 241q0 -39 7.5 -77t27 -67.5t53 -48t86.5 -18.5q52 0 86 18.5t53.5 48t27 67.5t7.5 77t-7.5 77t-27 67.5t-53.5 48t-86 18.5q-53 0 -86.5 -18.5t-53 -48t-27 -67.5t-7.5 -77zM505 241q0 -50 -11 -96t-37 -81.5t-69 -57t-107 -21.5t-107 21.5t-69 57t-37 81.5t-11 96
q0 49 11 95.5t37 82t69 57t107 21.5t107 -21.5t69 -57t37 -82t11 -95.5z" />
    <glyph glyph-name="pi" unicode="&#x3c0;" horiz-adv-x="554" 
d="M513 482v-43h-96v-354q0 -32 10 -43.5t29 -11.5q11 0 22 2t21 5v-44q-12 -4 -23.5 -6t-26.5 -2q-42 0 -61 24.5t-19 70.5v359h-202v-439h-48v439h-93v43h487z" />
    <glyph glyph-name="rho" unicode="&#x3c1;" horiz-adv-x="552" 
d="M126 92q28 -29 66.5 -45.5t83.5 -16.5q49 0 81.5 17.5t52 47t27.5 67.5t8 79q0 40 -8.5 78t-27.5 67.5t-50 47.5t-77 18q-34 0 -62.5 -10.5t-49.5 -33.5t-32.5 -61t-11.5 -92v-163zM78 -198v450q0 64 14.5 110.5t41.5 76.5t64.5 44t83.5 14q57 0 97.5 -20.5t66 -55
t37.5 -81.5t12 -99q0 -51 -13 -97.5t-39 -81.5t-66.5 -56t-94.5 -21q-27 0 -51 5.5t-43.5 13.5t-34.5 17.5t-25 17.5h-2v-237h-48z" />
    <glyph glyph-name="sigma1" unicode="&#x3c2;" horiz-adv-x="450" 
d="M350 -61q0 25 -22 42.5t-54.5 33.5t-71 34.5t-71 46t-54.5 67t-22 97.5q0 46 14 89t41.5 76t68.5 52.5t95 19.5q37 0 74.5 -8t72.5 -28l-17 -40q-29 15 -63 23t-67 8q-44 0 -76 -17t-52.5 -44.5t-30.5 -62t-10 -68.5q0 -51 22 -84.5t54.5 -57t71 -41t71 -35.5t54.5 -41
t22 -58q0 -22 -7 -39t-18 -30t-25 -23t-29 -17l-28 32q25 12 41 30.5t16 42.5z" />
    <glyph glyph-name="sigma" unicode="&#x3c3;" horiz-adv-x="569" 
d="M506 234q0 -50 -11 -95t-37 -79t-69 -54.5t-107 -20.5t-107 20.5t-69 54.5t-37 79t-11 95q0 49 11 94t37 79.5t69 54.5t107 20h232v-43h-110v-2q51 -24 76.5 -75.5t25.5 -127.5zM108 234q0 -39 7.5 -76t27 -65.5t53 -45.5t86.5 -17q52 0 86 17t53.5 45.5t27 65.5t7.5 76
t-7.5 75.5t-27 65t-53.5 45.5t-86 17q-53 0 -86.5 -17t-53 -45.5t-27 -65t-7.5 -75.5z" />
    <glyph glyph-name="tau" unicode="&#x3c4;" horiz-adv-x="423" 
d="M392 482v-43h-175v-340q0 -35 13 -52t46 -17q16 0 34 2.5t37 9.5v-44q-13 -5 -35 -9t-42 -4q-101 0 -101 109v345h-150v43h373z" />
    <glyph glyph-name="upsilon" unicode="&#x3c5;" horiz-adv-x="536" 
d="M127 221q0 -98 35 -144.5t112 -46.5q78 0 114.5 49t36.5 156q0 32 -5.5 66t-14 67t-20 62t-23.5 52h57q9 -20 18.5 -47t18 -59t14 -67.5t5.5 -73.5q0 -127 -52 -188.5t-149 -61.5q-92 0 -143.5 53.5t-51.5 177.5v266h48v-261z" />
    <glyph glyph-name="phi" unicode="&#x3c6;" horiz-adv-x="636" 
d="M577 256q0 -137 -60 -201t-177 -69v-184h-48v184q-121 6 -177.5 73t-56.5 187q0 36 7 70t17.5 64.5t23.5 56.5t24 45h57q-33 -48 -56 -108t-23 -128q0 -99 44 -154.5t140 -61.5v288q0 92 32.5 135.5t94.5 43.5q81 0 119.5 -63t38.5 -178zM340 30q93 5 140 57t47 169
q0 92 -23.5 144t-84.5 52q-38 0 -58.5 -31t-20.5 -112v-279z" />
    <glyph glyph-name="chi" unicode="&#x3c7;" horiz-adv-x="454" 
d="M64 482l162 -296h2l162 296h51v-6l-186 -333l186 -335v-6h-50l-163 297h-2l-163 -297h-50v6l186 335l-186 333v6h51z" />
    <glyph glyph-name="psi" unicode="&#x3c8;" horiz-adv-x="653" 
d="M353 32q45 0 80.5 10.5t60 34.5t37.5 63t13 96q0 31 -5 65t-14 67t-20.5 62t-24.5 52h57q9 -20 19 -47.5t18.5 -60t14 -67.5t5.5 -71q0 -65 -17.5 -112t-49 -77t-76 -44.5t-98.5 -14.5v-186h-48v186q-51 0 -93 12t-71.5 39t-45.5 70.5t-16 106.5v266h48v-261
q0 -102 45 -145.5t133 -43.5v668h48v-668z" />
    <glyph glyph-name="omega" unicode="&#x3c9;" horiz-adv-x="806" 
d="M427 211q0 -91 34.5 -136t100.5 -45q68 0 102.5 50t34.5 159q0 75 -24 132t-66 106v5h52q17 -18 32.5 -44t27.5 -57.5t19 -67.5t7 -74q0 -130 -48.5 -192t-136.5 -62q-112 0 -158 112h-2q-46 -112 -158 -112q-89 0 -137 62t-48 192q0 38 7 74t19 67.5t27.5 57.5t32.5 44
h52v-5q-42 -49 -66 -106t-24 -132q0 -109 34.5 -159t102.5 -50q66 0 100.5 45t34.5 136v141h48v-141v0z" />
    <glyph glyph-name="iotadieresis" unicode="&#x3ca;" horiz-adv-x="236" 
d="M134 482v-397q0 -32 10 -43.5t29 -11.5q11 0 22 2t21 5v-44q-12 -4 -23.5 -6t-26.5 -2q-42 0 -61 24.5t-19 70.5v402h48zM-15 626q0 17 11 28.5t28 11.5q16 0 27 -11.5t11 -28.5t-11 -28t-27 -11q-17 0 -28 11t-11 28zM163 626q0 17 11 28.5t28 11.5q16 0 27 -11.5
t11 -28.5t-11 -28t-27 -11q-17 0 -28 11t-11 28z" />
    <glyph glyph-name="upsilondieresis" unicode="&#x3cb;" horiz-adv-x="536" 
d="M127 221q0 -98 35 -144.5t112 -46.5q78 0 114.5 49t36.5 156q0 32 -5.5 66t-14 67t-20 62t-23.5 52h57q9 -20 18.5 -47t18 -59t14 -67.5t5.5 -73.5q0 -127 -52 -188.5t-149 -61.5q-92 0 -143.5 53.5t-51.5 177.5v266h48v-261zM128 626q0 17 11 28.5t28 11.5
q16 0 27 -11.5t11 -28.5t-11 -28t-27 -11q-17 0 -28 11t-11 28zM306 626q0 17 11 28.5t28 11.5q16 0 27 -11.5t11 -28.5t-11 -28t-27 -11q-17 0 -28 11t-11 28z" />
    <glyph glyph-name="omicrontonos" unicode="&#x3cc;" horiz-adv-x="562" 
d="M107 241q0 -39 7.5 -77t27 -67.5t53 -48t86.5 -18.5q52 0 86 18.5t53.5 48t27 67.5t7.5 77t-7.5 77t-27 67.5t-53.5 48t-86 18.5q-53 0 -86.5 -18.5t-53 -48t-27 -67.5t-7.5 -77zM505 241q0 -50 -11 -96t-37 -81.5t-69 -57t-107 -21.5t-107 21.5t-69 57t-37 81.5t-11 96
q0 49 11 95.5t37 82t69 57t107 21.5t107 -21.5t69 -57t37 -82t11 -95.5zM344 699l-41 -130h-36v5l25 130h52v-5z" />
    <glyph glyph-name="upsilontonos" unicode="&#x3cd;" horiz-adv-x="536" 
d="M302 699l-41 -130h-36v5l25 130h52v-5zM127 221q0 -98 35 -144.5t112 -46.5q78 0 114.5 49t36.5 156q0 32 -5.5 66t-14 67t-20 62t-23.5 52h57q9 -20 18.5 -47t18 -59t14 -67.5t5.5 -73.5q0 -127 -52 -188.5t-149 -61.5q-92 0 -143.5 53.5t-51.5 177.5v266h48v-261z" />
    <glyph glyph-name="omegatonos" unicode="&#x3ce;" horiz-adv-x="806" 
d="M427 211q0 -91 34.5 -136t100.5 -45q68 0 102.5 50t34.5 159q0 75 -24 132t-66 106v5h52q17 -18 32.5 -44t27.5 -57.5t19 -67.5t7 -74q0 -130 -48.5 -192t-136.5 -62q-112 0 -158 112h-2q-46 -112 -158 -112q-89 0 -137 62t-48 192q0 38 7 74t19 67.5t27.5 57.5t32.5 44
h52v-5q-42 -49 -66 -106t-24 -132q0 -109 34.5 -159t102.5 -50q66 0 100.5 45t34.5 136v141h48v-141v0zM475 699l-41 -130h-36v5l25 130h52v-5z" />
    <glyph glyph-name="uni0400" unicode="&#x400;" horiz-adv-x="574" 
d="M508 680v-47h-359v-260h329v-47h-329v-279h362v-47h-412v680h409zM229 859h56l48 -110v-5h-45l-59 110v5z" />
    <glyph glyph-name="uni0401" unicode="&#x401;" horiz-adv-x="574" 
d="M508 680v-47h-359v-260h329v-47h-329v-279h362v-47h-412v680h409zM175 801q0 17 11 28.5t28 11.5q16 0 27 -11.5t11 -28.5t-11 -28t-27 -11q-17 0 -28 11t-11 28zM353 801q0 17 11 28.5t28 11.5q16 0 27 -11.5t11 -28.5t-11 -28t-27 -11q-17 0 -28 11t-11 28z" />
    <glyph glyph-name="uni0402" unicode="&#x402;" horiz-adv-x="670" 
d="M477 -45q30 33 49 62t30 56t15 52.5t4 52.5q0 45 -12.5 77.5t-34 53t-50 30t-60.5 9.5q-45 0 -90.5 -10.5t-93.5 -26.5v-311h-50v633h-154v47h435v-47h-231v-275q42 15 90.5 26.5t98.5 11.5q43 0 80.5 -13t65 -40t43 -68t15.5 -97q0 -65 -26 -124.5t-90 -129.5z" />
    <glyph glyph-name="uni0403" unicode="&#x403;" horiz-adv-x="540" 
d="M511 680v-47h-362v-633h-50v680h412zM384 854l-59 -110h-45v5l48 110h56v-5z" />
    <glyph glyph-name="uni0404" unicode="&#x404;" horiz-adv-x="581" 
d="M66 340q0 79 17 144.5t53 112.5t92.5 72.5t135.5 25.5q42 0 87 -12t82 -33l-19 -42q-38 21 -77 30t-73 9q-63 0 -108.5 -19.5t-75 -55.5t-44.5 -88t-18 -117h323v-49h-323q2 -66 17 -119t44.5 -89.5t75 -56.5t109.5 -20q34 0 73 9t77 30l19 -42q-37 -21 -82 -33t-87 -12
q-79 0 -135.5 25.5t-92.5 72.5t-53 112t-17 145z" />
    <glyph glyph-name="uni0405" unicode="&#x405;" horiz-adv-x="523" 
d="M78 103q32 -28 75.5 -49t107.5 -21q31 0 59 9t49 26.5t33.5 43.5t12.5 60q0 53 -33.5 84.5t-103.5 58.5l-68 26q-68 25 -105.5 67.5t-37.5 100.5q0 39 14 73t40 59t64 39.5t86 14.5q57 0 103 -16t81 -41l-23 -42q-74 51 -161 51q-73 0 -112.5 -39t-39.5 -98q0 -42 26 -71
t86 -52l66 -25q85 -32 127.5 -75.5t42.5 -113.5q0 -41 -15.5 -75.5t-42.5 -59.5t-65 -39t-83 -14q-38 0 -68.5 6.5t-56 17t-46 24.5t-38.5 28z" />
    <glyph glyph-name="uni0406" unicode="&#x406;" horiz-adv-x="247" 
d="M148 0h-49v680h49v-680z" />
    <glyph glyph-name="uni0407" unicode="&#x407;" horiz-adv-x="247" 
d="M148 0h-49v680h49v-680zM-5 801q0 17 11 28.5t28 11.5q16 0 27 -11.5t11 -28.5t-11 -28t-27 -11q-17 0 -28 11t-11 28zM173 801q0 17 11 28.5t28 11.5q16 0 27 -11.5t11 -28.5t-11 -28t-27 -11q-17 0 -28 11t-11 28z" />
    <glyph glyph-name="uni0408" unicode="&#x408;" horiz-adv-x="453" 
d="M52 89q23 -23 56.5 -39.5t74.5 -16.5q27 0 49.5 8.5t39.5 27.5t26.5 48.5t9.5 71.5v491h50v-494q0 -96 -48.5 -148.5t-126.5 -52.5q-49 0 -90.5 21t-67.5 46z" />
    <glyph glyph-name="uni0409" unicode="&#x409;" horiz-adv-x="926" 
d="M496 680v-293h164q105 0 163 -46.5t58 -146.5q0 -101 -58 -147.5t-163 -46.5h-214v633h-260l-13 -309q-5 -115 -16 -181.5t-30.5 -100.5t-48 -43t-67.5 -9v47q30 0 49.5 7t32 36.5t19.5 88.5t12 164l15 347h357zM496 47h164q35 0 65.5 6.5t53.5 23t36.5 45t13.5 72.5
q0 43 -13.5 71.5t-36.5 45t-53.5 23t-65.5 6.5h-164v-293z" />
    <glyph glyph-name="uni040A" unicode="&#x40a;" horiz-adv-x="979" 
d="M549 387h164q105 0 163 -46.5t58 -146.5q0 -101 -58 -147.5t-163 -46.5h-214v340h-350v-340h-50v680h50v-293h350v293h50v-293zM549 47h164q35 0 65.5 6.5t53.5 23t36.5 45t13.5 72.5q0 43 -13.5 71.5t-36.5 45t-53.5 23t-65.5 6.5h-164v-293z" />
    <glyph glyph-name="uni040B" unicode="&#x40b;" horiz-adv-x="704" 
d="M591 0v251q0 85 -35.5 126.5t-123.5 41.5q-48 0 -99.5 -10.5t-95.5 -29.5v-379h-50v633h-157v47h435v-47h-228v-206q38 16 87.5 28t107.5 12t98 -14.5t65 -41.5t35.5 -65t10.5 -85v-261h-50z" />
    <glyph glyph-name="uni040C" unicode="&#x40c;" horiz-adv-x="546" 
d="M149 318v-318h-50v680h50v-337h2l313 337h58v-6l-315 -340l334 -328v-6h-65l-325 318h-2zM364 854l-59 -110h-45v5l48 110h56v-5z" />
    <glyph glyph-name="uni040D" unicode="&#x40d;" horiz-adv-x="680" 
d="M150 92l383 588h48v-680h-50v589h-2l-382 -589h-48v680h49v-588h2zM257 859h56l48 -110v-5h-45l-59 110v5z" />
    <glyph glyph-name="uni040E" unicode="&#x40e;" horiz-adv-x="519" 
d="M506 675l-231 -538q-13 -30 -28.5 -55t-36 -43.5t-47 -28.5t-61.5 -10h-33v47h32q39 0 71.5 21t56.5 82l18 45l-219 480v5h46l198 -434h3l182 434h49v-5zM278 808q44 0 64.5 15.5t34.5 34.5l26 -22q-17 -30 -45.5 -51t-79.5 -21t-79.5 21t-45.5 51l26 22
q14 -19 34.5 -34.5t64.5 -15.5z" />
    <glyph glyph-name="uni040F" unicode="&#x40f;" horiz-adv-x="677" 
d="M317 -141l-7 141h-211v680h50v-633h379v633h50v-680h-211l-7 -141h-43z" />
    <glyph glyph-name="uni0410" unicode="&#x410;" horiz-adv-x="587" 
d="M568 0h-53l-66 184h-311l-66 -184h-53l249 680h51zM293 614l-138 -384h277l-138 384h-1z" />
    <glyph glyph-name="uni0411" unicode="&#x411;" 
d="M503 680v-47h-354v-246h164q105 0 163 -46.5t58 -146.5q0 -101 -58 -147.5t-163 -46.5h-214v680h404zM149 47h164q35 0 65.5 6.5t53.5 23t36.5 45t13.5 72.5q0 43 -13.5 71.5t-36.5 45t-53.5 23t-65.5 6.5h-164v-293z" />
    <glyph glyph-name="uni0412" unicode="&#x412;" horiz-adv-x="598" 
d="M149 47h164q35 0 66 7t54.5 23t37.5 42.5t14 65.5t-13.5 65.5t-36.5 42.5t-54 23t-66 7h-166v-276zM301 680q46 0 85 -9.5t67.5 -30.5t44 -54.5t15.5 -81.5q0 -33 -8.5 -58.5t-23 -44t-32.5 -31t-36 -19.5v-2q55 -14 89.5 -55.5t34.5 -110.5q0 -48 -17 -82.5t-46.5 -57
t-69.5 -33t-85 -10.5h-220v680h202zM149 370h148q34 0 63.5 6t52 20.5t35.5 40t13 64.5t-13 64.5t-35.5 40.5t-52 21t-63.5 6h-148v-263z" />
    <glyph glyph-name="uni0413" unicode="&#x413;" horiz-adv-x="540" 
d="M511 680v-47h-362v-633h-50v680h412z" />
    <glyph glyph-name="uni0414" unicode="&#x414;" horiz-adv-x="641" 
d="M20 -141l-9 188h37q22 22 40 46t32.5 58.5t24.5 84.5t15 124l23 320h354v-633h43l-8 -188h-43l-7 141h-452l-7 -141h-43zM487 47v586h-257l-19 -272q-5 -77 -13.5 -128t-21 -86t-28.5 -57.5t-36 -42.5h375z" />
    <glyph glyph-name="uni0415" unicode="&#x415;" horiz-adv-x="574" 
d="M508 680v-47h-359v-260h329v-47h-329v-279h362v-47h-412v680h409z" />
    <glyph glyph-name="uni0416" unicode="&#x416;" horiz-adv-x="864" 
d="M457 318v-318h-50v318h-2l-325 -318h-65v6l336 328l-322 340v6h63l313 -337h2v337h50v-337h2l313 337h63v-6l-322 -340l336 -328v-6h-65l-325 318h-2z" />
    <glyph glyph-name="uni0417" unicode="&#x417;" horiz-adv-x="531" 
d="M130 373h124q66 0 106 37t40 98q0 69 -42 104t-111 35q-48 0 -89.5 -11t-79.5 -31l-18 42q36 21 83.5 34.5t104.5 13.5q94 0 149 -48.5t55 -138.5q0 -34 -9.5 -59.5t-25.5 -44.5t-35.5 -31.5t-38.5 -19.5v-2q56 -14 90.5 -61t34.5 -113q0 -47 -18.5 -82.5t-50 -60
t-73.5 -37t-88 -12.5q-67 0 -115 17t-83 40l21 43q40 -25 81.5 -38.5t95.5 -13.5q34 0 66.5 8.5t57 26t39.5 44.5t15 65q0 28 -7.5 54.5t-26.5 47.5t-52.5 34t-84.5 13h-115v47z" />
    <glyph glyph-name="uni0418" unicode="&#x418;" horiz-adv-x="680" 
d="M150 92l383 588h48v-680h-50v589h-2l-382 -589h-48v680h49v-588h2z" />
    <glyph glyph-name="uni0419" unicode="&#x419;" horiz-adv-x="680" 
d="M150 92l383 588h48v-680h-50v589h-2l-382 -589h-48v680h49v-588h2zM346 808q44 0 64.5 15.5t34.5 34.5l26 -22q-17 -30 -45.5 -51t-79.5 -21t-79.5 21t-45.5 51l26 22q14 -19 34.5 -34.5t64.5 -15.5z" />
    <glyph glyph-name="uni041A" unicode="&#x41a;" horiz-adv-x="556" 
d="M149 318v-318h-50v680h50v-337h2l313 337h58v-6l-315 -340l334 -328v-6h-65l-325 318h-2z" />
    <glyph glyph-name="uni041B" unicode="&#x41b;" horiz-adv-x="649" 
d="M550 0h-50v633h-314l-13 -309q-5 -115 -16 -181.5t-30.5 -100.5t-48 -43t-67.5 -9v47q30 0 49.5 7t32 36.5t19.5 88.5t12 164l15 347h411v-680z" />
    <glyph glyph-name="uni041C" unicode="&#x41c;" horiz-adv-x="807" 
d="M405 235l256 445h47v-680h-50v576h-2l-231 -403h-43l-231 403h-2v-576h-50v680h47l256 -445h3z" />
    <glyph glyph-name="uni041D" unicode="&#x41d;" horiz-adv-x="687" 
d="M538 326h-389v-326h-50v680h50v-307h389v307h50v-680h-50v326z" />
    <glyph glyph-name="uni041E" unicode="&#x41e;" horiz-adv-x="696" 
d="M118 340q0 -64 11 -120t37.5 -97.5t71 -65.5t110.5 -24t110.5 24t71 65.5t37.5 97.5t11 120t-11 120t-37.5 97.5t-71 65.5t-110.5 24t-110.5 -24t-71 -65.5t-37.5 -97.5t-11 -120zM630 340q0 -77 -15.5 -142t-49.5 -112.5t-87.5 -74t-129.5 -26.5t-129.5 26.5t-87.5 74
t-49.5 112.5t-15.5 142t15.5 142t49.5 112.5t87.5 74t129.5 26.5t129.5 -26.5t87.5 -74t49.5 -112.5t15.5 -142z" />
    <glyph glyph-name="uni041F" unicode="&#x41f;" horiz-adv-x="687" 
d="M538 633h-389v-633h-50v680h489v-680h-50v633z" />
    <glyph glyph-name="uni0420" unicode="&#x420;" horiz-adv-x="568" 
d="M99 0v680h211q103 0 158 -50.5t55 -148.5t-55.5 -148t-157.5 -50h-161v-283h-50zM149 330h155q167 0 167 151q0 152 -167 152h-155v-303z" />
    <glyph glyph-name="uni0421" unicode="&#x421;" horiz-adv-x="580" 
d="M66 340q0 80 17 145.5t53 112t92.5 72t135.5 25.5q42 0 87 -12t82 -33l-19 -42q-38 21 -77 30t-73 9q-66 0 -112.5 -21.5t-76.5 -61.5t-43.5 -97t-13.5 -127q0 -71 13.5 -127.5t43.5 -96.5t76.5 -61.5t112.5 -21.5q34 0 73 9t77 30l19 -42q-37 -21 -82 -33t-87 -12
q-79 0 -135.5 25.5t-92.5 72t-53 112t-17 145.5z" />
    <glyph glyph-name="uni0422" unicode="&#x422;" horiz-adv-x="520" 
d="M489 680v-47h-204v-633h-50v633h-204v47h458z" />
    <glyph glyph-name="uni0423" unicode="&#x423;" horiz-adv-x="519" 
d="M506 675l-231 -538q-13 -30 -28.5 -55t-36 -43.5t-47 -28.5t-61.5 -10h-33v47h32q39 0 71.5 21t56.5 82l18 45l-219 480v5h46l198 -434h3l182 434h49v-5z" />
    <glyph glyph-name="uni0424" unicode="&#x424;" horiz-adv-x="734" 
d="M101 341q0 -46 12 -85.5t39.5 -69t74 -47t115.5 -19.5v444q-69 -4 -115.5 -21.5t-74 -46t-39.5 -68t-12 -87.5zM392 0h-50v68q-81 3 -136.5 25.5t-90.5 59.5t-50.5 85.5t-15.5 102.5q0 55 15.5 103t50.5 85t90.5 59t136.5 25v67h50v-67q81 -3 136.5 -25t90.5 -59
t50.5 -85t15.5 -103q0 -54 -15.5 -102.5t-50.5 -85.5t-90.5 -59.5t-136.5 -25.5v-68zM633 341q0 48 -12 87.5t-39.5 68t-74 46t-115.5 21.5v-444q69 2 115.5 19.5t74 47t39.5 69t12 85.5z" />
    <glyph glyph-name="uni0425" unicode="&#x425;" horiz-adv-x="562" 
d="M88 680l192 -300h2l192 300h56v-6l-216 -333l216 -335v-6h-55l-193 301h-2l-193 -301h-55v6l216 335l-216 333v6h56z" />
    <glyph glyph-name="uni0426" unicode="&#x426;" horiz-adv-x="682" 
d="M570 -141l-7 141h-464v680h50v-633h379v633h50v-633h43l-8 -188h-43z" />
    <glyph glyph-name="uni0427" unicode="&#x427;" horiz-adv-x="622" 
d="M119 680v-281q0 -43 8 -74.5t27 -52.5t49.5 -31t74.5 -10q48 0 99.5 10.5t95.5 29.5v409h50v-680h-50v223q-38 -16 -87.5 -28t-107.5 -12q-59 0 -98.5 14.5t-64.5 41.5t-35.5 65t-10.5 85v291h50z" />
    <glyph glyph-name="uni0428" unicode="&#x428;" horiz-adv-x="1002" 
d="M99 0v680h50v-633h327v633h50v-633h327v633h50v-680h-804z" />
    <glyph glyph-name="uni0429" unicode="&#x429;" horiz-adv-x="1007" 
d="M895 -141l-7 141h-789v680h50v-633h327v633h50v-633h327v633h50v-633h43l-8 -188h-43z" />
    <glyph glyph-name="uni042A" unicode="&#x42a;" horiz-adv-x="651" 
d="M27 680h194v-293h164q105 0 163 -46.5t58 -146.5q0 -101 -58 -147.5t-163 -46.5h-214v633h-144v47zM221 47h164q35 0 65.5 6.5t53.5 23t36.5 45t13.5 72.5q0 43 -13.5 71.5t-36.5 45t-53.5 23t-65.5 6.5h-164v-293z" />
    <glyph glyph-name="uni042B" unicode="&#x42b;" horiz-adv-x="798" 
d="M699 0h-49v680h49v-680zM99 680h50v-293h164q105 0 163 -46.5t58 -146.5q0 -101 -58 -147.5t-163 -46.5h-214v680zM149 47h164q35 0 65.5 6.5t53.5 23t36.5 45t13.5 72.5q0 43 -13.5 71.5t-36.5 45t-53.5 23t-65.5 6.5h-164v-293z" />
    <glyph glyph-name="uni042C" unicode="&#x42c;" horiz-adv-x="579" 
d="M99 680h50v-293h164q105 0 163 -46.5t58 -146.5q0 -101 -58 -147.5t-163 -46.5h-214v680zM149 47h164q35 0 65.5 6.5t53.5 23t36.5 45t13.5 72.5q0 43 -13.5 71.5t-36.5 45t-53.5 23t-65.5 6.5h-164v-293z" />
    <glyph glyph-name="uni042D" unicode="&#x42d;" horiz-adv-x="583" 
d="M517 340q0 -80 -17 -145t-53 -112t-92.5 -72.5t-135.5 -25.5q-42 0 -87 12t-82 33l19 42q38 -21 77 -30t73 -9q64 0 109.5 20t75 56.5t44.5 89.5t17 119h-323v49h323q-3 65 -18 117t-44.5 88t-75 55.5t-108.5 19.5q-34 0 -73 -9t-77 -30l-19 42q37 21 82 33t87 12
q79 0 135.5 -25.5t92.5 -72.5t53 -112.5t17 -144.5z" />
    <glyph glyph-name="uni042E" unicode="&#x42e;" horiz-adv-x="926" 
d="M859 340q0 -77 -15.5 -142t-49.5 -112.5t-87.5 -74t-129.5 -26.5q-75 0 -128 25.5t-86.5 71t-50 108t-17.5 136.5h-146v-326h-50v680h50v-307h146q3 70 20.5 129.5t51.5 102t86 66.5t124 24q76 0 129.5 -26.5t87.5 -74t49.5 -112.5t15.5 -142zM347 340q0 -64 11 -120
t37.5 -97.5t71 -65.5t110.5 -24t110.5 24t71 65.5t37.5 97.5t11 120t-11 120t-37.5 97.5t-71 65.5t-110.5 24t-110.5 -24t-71 -65.5t-37.5 -97.5t-11 -120z" />
    <glyph glyph-name="uni042F" unicode="&#x42f;" horiz-adv-x="610" 
d="M461 0v311h-151l-222 -311h-58v7l222 305q-82 8 -130.5 53t-48.5 131q0 90 53.5 137t153.5 47h231v-680h-50zM461 358v275h-175q-82 0 -122 -35t-40 -102q0 -138 162 -138h175z" />
    <glyph glyph-name="uni0430" unicode="&#x430;" horiz-adv-x="498" 
d="M469 -4q-8 -2 -18 -4t-23 -2q-52 0 -61 52h-2q-26 -22 -67.5 -39.5t-94.5 -17.5q-34 0 -62.5 10.5t-49 29t-32 45.5t-11.5 60q0 78 58.5 114t173.5 36h82v29q0 80 -36.5 111.5t-94.5 31.5q-45 0 -77 -13t-58 -33l-22 36q28 24 67 39.5t90 15.5q40 0 73 -10.5t56.5 -33.5
t36.5 -58.5t13 -85.5v-241q0 -18 6 -26.5t26 -8.5h27v-37zM287 238q-52 0 -88 -6.5t-58.5 -20t-32.5 -33.5t-10 -47q0 -48 30 -74.5t79 -26.5q48 0 86.5 16t68.5 39v153h-75z" />
    <glyph glyph-name="uni0431" unicode="&#x431;" horiz-adv-x="589" 
d="M124 337q23 48 73 75t112 27q51 0 92 -16t70 -45.5t45 -71.5t16 -94q0 -50 -16 -91.5t-46 -71.5t-72.5 -47t-94.5 -17q-50 0 -92 15.5t-73 49t-48.5 85.5t-17.5 124q0 68 5 127t22 107.5t49.5 87.5t86.5 66q27 14 62 23.5t71.5 16t70.5 12.5t60 12v-47q-22 -6 -51 -9
t-61 -8t-66.5 -14t-67.5 -26q-38 -20 -63 -45.5t-39.5 -58.5t-21 -74t-7.5 -91zM124 212q0 -41 12 -74.5t35.5 -57.5t56.5 -37t75 -13t75 13t56.5 37t35.5 57.5t12 74.5q0 40 -12 73.5t-35.5 57.5t-56.5 37.5t-75 13.5t-75 -13.5t-56.5 -37.5t-35.5 -57.5t-12 -73.5z" />
    <glyph glyph-name="uni0432" unicode="&#x432;" horiz-adv-x="485" 
d="M132 43h131q54 0 85 21t31 70t-31 69.5t-85 20.5h-131v-181zM335 249q45 -11 69.5 -39.5t24.5 -73.5q0 -31 -8.5 -56t-28 -43t-51.5 -27.5t-78 -9.5h-179v482h156q85 0 124.5 -30t39.5 -99q0 -16 -5.5 -32t-14.5 -30t-21.5 -25t-27.5 -16v-1zM132 267h106q51 0 83.5 18.5
t32.5 67.5t-32.5 67.5t-82.5 18.5h-107v-172z" />
    <glyph glyph-name="uni0433" unicode="&#x433;" horiz-adv-x="423" 
d="M406 482v-43h-274v-439h-48v482h322z" />
    <glyph glyph-name="uni0434" unicode="&#x434;" horiz-adv-x="515" 
d="M26 -120l-8 163h31q17 16 31 35t24.5 45t18 62t10.5 86l14 211h273v-439h45l-8 -163h-41l-5 120h-340l-6 -120h-39zM372 43v396h-181l-13 -170q-4 -52 -10.5 -88.5t-16 -62t-21 -43t-25.5 -32.5h267z" />
    <glyph glyph-name="uni0435" unicode="&#x435;" horiz-adv-x="527" 
d="M106 232q1 -44 12 -81t33 -64t55.5 -42t79.5 -15q49 0 82.5 14t61.5 34l22 -38q-30 -22 -69 -38.5t-98 -16.5q-60 0 -103 20t-71 54.5t-41 81.5t-13 102t15.5 101.5t44 80.5t68.5 53t90 19q51 0 88.5 -16.5t62 -44t37 -63.5t12.5 -75q0 -16 -2 -34t-5 -32h-362zM275 452
q-70 0 -115 -46.5t-53 -130.5h317q1 8 1 14.5v11.5q0 33 -9 60.5t-28 47.5t-47 31.5t-66 11.5z" />
    <glyph glyph-name="uni0436" unicode="&#x436;" horiz-adv-x="686" 
d="M367 225v-225h-48v225h-2l-232 -225h-62v5l245 236l-237 236v5h59l227 -230h2v230h48v-230h2l227 230h59v-5l-237 -236l245 -236v-5h-62l-232 225h-2z" />
    <glyph glyph-name="uni0437" unicode="&#x437;" horiz-adv-x="459" 
d="M233 272q51 0 77.5 21t26.5 59q0 45 -26.5 71.5t-96.5 26.5q-45 0 -77 -9.5t-67 -23.5l-16 40q35 16 74 27t87 11q45 0 77.5 -11t53.5 -30t31 -44.5t10 -55.5q0 -40 -21.5 -66t-50.5 -36v-2q42 -14 64.5 -43t22.5 -73q0 -73 -48.5 -111t-138.5 -38q-55 0 -96.5 11
t-79.5 30l15 39q41 -19 79.5 -27t81.5 -8q137 0 137 108q0 46 -32 68.5t-83 22.5h-115v43h111z" />
    <glyph glyph-name="uni0438" unicode="&#x438;" horiz-adv-x="545" 
d="M134 79l276 403h51v-482h-48v401h-2l-276 -401h-51v482h48v-403h2z" />
    <glyph glyph-name="uni0439" unicode="&#x439;" horiz-adv-x="545" 
d="M279 613q44 0 64.5 15.5t34.5 34.5l26 -20q-17 -30 -45.5 -51t-79.5 -21t-79.5 21t-45.5 51l26 20q14 -19 34.5 -34.5t64.5 -15.5zM134 79l276 403h51v-482h-48v401h-2l-276 -401h-51v482h48v-403h2z" />
    <glyph glyph-name="uni043A" unicode="&#x43a;" horiz-adv-x="445" 
d="M132 225v-225h-48v482h48v-230h2l227 230h59v-5l-237 -236l245 -236v-5h-62l-232 225h-2z" />
    <glyph glyph-name="uni043B" unicode="&#x43b;" horiz-adv-x="525" 
d="M393 439h-228l-7 -174q-4 -88 -12.5 -141.5t-24.5 -82.5t-40.5 -38.5t-60.5 -9.5v45q22 0 37.5 4.5t26.5 26t17.5 66.5t9.5 126l9 221h321v-482h-48v439z" />
    <glyph glyph-name="uni043C" unicode="&#x43c;" horiz-adv-x="649" 
d="M326 181l193 301h46v-482h-48v390h-2l-170 -263h-41l-170 263h-2v-390h-48v482h46l193 -301h3z" />
    <glyph glyph-name="uni043D" unicode="&#x43d;" horiz-adv-x="550" 
d="M418 226h-286v-226h-48v482h48v-213h286v213h48v-482h-48v226z" />
    <glyph glyph-name="uni043E" unicode="&#x43e;" horiz-adv-x="562" 
d="M107 241q0 -39 7.5 -77t27 -67.5t53 -48t86.5 -18.5q52 0 86 18.5t53.5 48t27 67.5t7.5 77t-7.5 77t-27 67.5t-53.5 48t-86 18.5q-53 0 -86.5 -18.5t-53 -48t-27 -67.5t-7.5 -77zM505 241q0 -50 -11 -96t-37 -81.5t-69 -57t-107 -21.5t-107 21.5t-69 57t-37 81.5t-11 96
q0 49 11 95.5t37 82t69 57t107 21.5t107 -21.5t69 -57t37 -82t11 -95.5z" />
    <glyph glyph-name="uni043F" unicode="&#x43f;" horiz-adv-x="550" 
d="M418 439h-286v-439h-48v482h382v-482h-48v439z" />
    <glyph glyph-name="uni0440" unicode="&#x440;" horiz-adv-x="552" 
d="M123 482l5 -44h2q28 23 68.5 41t100.5 18q54 0 91 -20.5t60 -55t33.5 -81.5t10.5 -99q0 -53 -10.5 -99.5t-33.5 -81t-60 -55t-91 -20.5q-60 0 -98 17t-67 40h-2v-240h-48v680h39zM132 97q27 -30 70 -48.5t91 -18.5q43 0 72 16.5t46.5 45t25 67t7.5 82.5t-7.5 82.5t-25 67
t-46.5 45t-72 16.5q-48 0 -91 -18.5t-70 -48.5v-288z" />
    <glyph glyph-name="uni0441" unicode="&#x441;" horiz-adv-x="470" 
d="M57 241q0 55 14 102t41.5 81t68.5 53.5t95 19.5q37 0 74.5 -8t72.5 -28l-17 -40q-29 15 -63 23t-67 8q-44 0 -76 -17t-52.5 -46t-30.5 -67.5t-10 -80.5t10 -80.5t30.5 -67.5t52.5 -46t76 -17q33 0 67 8t63 23l17 -40q-35 -20 -72.5 -28t-74.5 -8q-54 0 -95 19.5
t-68.5 53.5t-41.5 81t-14 102z" />
    <glyph glyph-name="uni0442" unicode="&#x442;" horiz-adv-x="400" 
d="M381 482v-43h-157v-439h-48v439h-157v43h362z" />
    <glyph glyph-name="uni0443" unicode="&#x443;" horiz-adv-x="474" 
d="M446 476l-206 -558q-24 -63 -58 -97t-88 -34q-14 0 -32.5 3t-29.5 6v44q12 -3 28.5 -5.5t32.5 -2.5q35 0 59 26.5t38 63.5l30 80l-195 474v6h51l166 -416h3l152 416h49v-6z" />
    <glyph glyph-name="uni0444" unicode="&#x444;" horiz-adv-x="850" 
d="M449 700v-256q27 23 64.5 38t92.5 15q52 0 87 -20.5t57 -55t31.5 -81.5t9.5 -99q0 -53 -9.5 -99.5t-31.5 -81t-57 -55t-87 -20.5q-56 0 -91 14.5t-64 37.5h-2v-235h-48v235h-2q-29 -23 -64 -37.5t-91 -14.5q-52 0 -87.5 20.5t-57 55t-31 81t-9.5 99.5q0 52 9.5 99
t31 81.5t57 55t87.5 20.5q54 0 91.5 -15t65.5 -38v256h48zM449 92q27 -30 67 -46t84 -16q41 0 68.5 16.5t43.5 45t22.5 67t6.5 82.5t-6.5 82.5t-22.5 67t-43.5 45t-68.5 16.5q-44 0 -84 -16t-67 -46v-298zM401 390q-27 30 -67 46t-84 16q-41 0 -68.5 -16.5t-43.5 -45
t-22.5 -67t-6.5 -82.5t6.5 -82.5t22.5 -67t43.5 -45t68.5 -16.5q44 0 84 16t67 46v298z" />
    <glyph glyph-name="uni0445" unicode="&#x445;" horiz-adv-x="456" 
d="M227 205l-138 -205h-53v6l160 235l-160 235v6h53l138 -207h2l138 207h53v-6l-160 -235l160 -235v-6h-53l-138 205h-2z" />
    <glyph glyph-name="uni0446" unicode="&#x446;" horiz-adv-x="561" 
d="M84 0v482h48v-439h286v439h48v-440h45l-8 -162h-41l-5 120h-373z" />
    <glyph glyph-name="uni0447" unicode="&#x447;" horiz-adv-x="497" 
d="M105 482v-191q0 -60 27.5 -88t87.5 -28q43 0 83 8.5t62 16.5v282h48v-482h-48v158q-23 -8 -61.5 -18t-86.5 -10q-36 0 -65.5 8.5t-50.5 27t-32.5 48.5t-11.5 73v195h48z" />
    <glyph glyph-name="uni0448" unicode="&#x448;" horiz-adv-x="792" 
d="M84 0v482h48v-439h240v439h48v-439h240v439h48v-482h-624z" />
    <glyph glyph-name="uni0449" unicode="&#x449;" horiz-adv-x="803" 
d="M84 0v482h48v-439h240v439h48v-439h240v439h48v-440h45l-8 -162h-41l-5 120h-615z" />
    <glyph glyph-name="uni044A" unicode="&#x44a;" horiz-adv-x="515" 
d="M23 482h159v-200h129q80 0 122.5 -36t42.5 -105t-43 -105t-122 -36h-177v439h-111v43zM182 43h123q26 0 49 5t40 16t26.5 30t9.5 47t-9.5 47t-26.5 30t-40 16t-49 5h-123v-196z" />
    <glyph glyph-name="uni044B" unicode="&#x44b;" horiz-adv-x="627" 
d="M84 482h48v-200h129q80 0 122.5 -36t42.5 -105t-43 -105t-122 -36h-177v482zM132 43h123q26 0 49 5t40 16t26.5 30t9.5 47t-9.5 47t-26.5 30t-40 16t-49 5h-123v-196zM495 0v482h48v-482h-48z" />
    <glyph glyph-name="uni044C" unicode="&#x44c;" horiz-adv-x="465" 
d="M84 482h48v-200h129q80 0 122.5 -36t42.5 -105t-43 -105t-122 -36h-177v482zM132 43h123q26 0 49 5t40 16t26.5 30t9.5 47t-9.5 47t-26.5 30t-40 16t-49 5h-123v-196z" />
    <glyph glyph-name="uni044D" unicode="&#x44d;" horiz-adv-x="472" 
d="M415 241q0 -55 -14 -102t-41.5 -81t-68.5 -53.5t-95 -19.5q-37 0 -74.5 8t-72.5 28l17 40q29 -15 63 -23t67 -8q41 0 71.5 15t51.5 41t32 60.5t13 73.5h-244v43h244q-3 39 -14 73t-31.5 60t-51 41t-71.5 15q-33 0 -67 -8t-63 -23l-17 40q35 20 72.5 28t74.5 8
q54 0 95 -19.5t68.5 -53.5t41.5 -81t14 -102z" />
    <glyph glyph-name="uni044E" unicode="&#x44e;" horiz-adv-x="752" 
d="M695 241q0 -50 -11 -96t-37 -81.5t-69 -57t-107 -21.5q-62 0 -104 20t-68.5 53t-38.5 76.5t-13 91.5h-115v-226h-48v482h48v-213h116q3 45 15.5 86.5t39 73t67.5 50t101 18.5q64 0 107 -21.5t69 -57t37 -82t11 -95.5zM297 241q0 -39 7.5 -77t27 -67.5t53 -48t86.5 -18.5
q52 0 86 18.5t53.5 48t27 67.5t7.5 77t-7.5 77t-27 67.5t-53.5 48t-86 18.5q-53 0 -86.5 -18.5t-53 -48t-27 -67.5t-7.5 -77z" />
    <glyph glyph-name="uni044F" unicode="&#x44f;" horiz-adv-x="514" 
d="M380 0v203h-118l-174 -203h-55v5l172 200q-65 6 -101 42.5t-36 94.5q0 65 42.5 102.5t111.5 37.5h208v-482h-50zM380 439h-152q-57 0 -83.5 -27.5t-26.5 -69.5t26.5 -69t83.5 -27h152v193z" />
    <glyph glyph-name="uni0450" unicode="&#x450;" horiz-adv-x="527" 
d="M106 232q1 -44 12 -81t33 -64t55.5 -42t79.5 -15q49 0 82.5 14t61.5 34l22 -38q-30 -22 -69 -38.5t-98 -16.5q-60 0 -103 20t-71 54.5t-41 81.5t-13 102t15.5 101.5t44 80.5t68.5 53t90 19q51 0 88.5 -16.5t62 -44t37 -63.5t12.5 -75q0 -16 -2 -34t-5 -32h-362zM275 452
q-70 0 -115 -46.5t-53 -130.5h317q1 8 1 14.5v11.5q0 33 -9 60.5t-28 47.5t-47 31.5t-66 11.5zM202 696h54l48 -110v-5h-43l-59 110v5z" />
    <glyph glyph-name="uni0451" unicode="&#x451;" horiz-adv-x="527" 
d="M106 232q1 -44 12 -81t33 -64t55.5 -42t79.5 -15q49 0 82.5 14t61.5 34l22 -38q-30 -22 -69 -38.5t-98 -16.5q-60 0 -103 20t-71 54.5t-41 81.5t-13 102t15.5 101.5t44 80.5t68.5 53t90 19q51 0 88.5 -16.5t62 -44t37 -63.5t12.5 -75q0 -16 -2 -34t-5 -32h-362zM275 452
q-70 0 -115 -46.5t-53 -130.5h317q1 8 1 14.5v11.5q0 33 -9 60.5t-28 47.5t-47 31.5t-66 11.5zM153 626q0 17 11 28.5t28 11.5q16 0 27 -11.5t11 -28.5t-11 -28t-27 -11q-17 0 -28 11t-11 28zM331 626q0 17 11 28.5t28 11.5q16 0 27 -11.5t11 -28.5t-11 -28t-27 -11
q-17 0 -28 11t-11 28z" />
    <glyph glyph-name="uni0452" unicode="&#x452;" horiz-adv-x="543" 
d="M85 0v576h-72v43h72v81h48v-81h121v-43h-121v-125h2q26 14 66.5 30t95.5 16q41 0 74.5 -10t57 -35t36.5 -68t13 -108q0 -70 -11.5 -133.5t-30 -119.5t-40.5 -104t-43 -87l-41 20q24 45 45.5 92.5t37 99.5t24.5 109.5t9 122.5q0 95 -32 135.5t-99 40.5q-49 0 -90.5 -15.5
t-73.5 -35.5v-401h-48z" />
    <glyph glyph-name="uni0453" unicode="&#x453;" horiz-adv-x="423" 
d="M328 691l-59 -110h-43v5l48 110h54v-5zM406 482v-43h-274v-439h-48v482h322z" />
    <glyph glyph-name="uni0454" unicode="&#x454;" horiz-adv-x="468" 
d="M57 241q0 55 14 102t41.5 81t68.5 53.5t95 19.5q37 0 74.5 -8t72.5 -28l-17 -40q-29 15 -63 23t-67 8q-41 0 -71.5 -15t-51 -41t-31.5 -60t-14 -73h244v-43h-244q2 -39 13 -73.5t32 -60.5t51.5 -41t71.5 -15q33 0 67 8t63 23l17 -40q-35 -20 -72.5 -28t-74.5 -8
q-54 0 -95 19.5t-68.5 53.5t-41.5 81t-14 102z" />
    <glyph glyph-name="uni0455" unicode="&#x455;" horiz-adv-x="435" 
d="M70 71q26 -20 59.5 -30.5t80.5 -10.5q60 0 92 24.5t32 68.5q0 30 -21.5 52t-77.5 39l-60 18q-55 17 -85 46t-30 80q0 60 43 99.5t124 39.5q43 0 79 -9.5t68 -24.5l-18 -43q-33 18 -65.5 25t-62.5 7q-60 0 -89 -25.5t-29 -67.5q0 -27 16.5 -47.5t61.5 -33.5l60 -18
q69 -20 102.5 -50.5t33.5 -85.5q0 -29 -11 -54.5t-33 -44t-54.5 -29.5t-74.5 -11q-55 0 -93 13t-70 33z" />
    <glyph glyph-name="uni0456" unicode="&#x456;" horiz-adv-x="216" 
d="M84 0v482h48v-482h-48zM69 626q0 17 11 28.5t28 11.5q16 0 27 -11.5t11 -28.5t-11 -28t-27 -11q-17 0 -28 11t-11 28z" />
    <glyph glyph-name="uni0457" unicode="&#x457;" horiz-adv-x="218" 
d="M-18 626q0 17 11 28.5t28 11.5q16 0 27 -11.5t11 -28.5t-11 -28t-27 -11q-17 0 -28 11t-11 28zM160 626q0 17 11 28.5t28 11.5q16 0 27 -11.5t11 -28.5t-11 -28t-27 -11q-17 0 -28 11t-11 28zM85 0v482h48v-482h-48z" />
    <glyph glyph-name="uni0458" unicode="&#x458;" horiz-adv-x="216" 
d="M132 482v-544q0 -83 -27 -117t-84 -34q-17 0 -30 2t-26 6v43q25 -6 55 -6q64 0 64 89v561h48zM69 626q0 17 11 28.5t28 11.5q16 0 27 -11.5t11 -28.5t-11 -28t-27 -11q-17 0 -28 11t-11 28z" />
    <glyph glyph-name="uni0459" unicode="&#x459;" horiz-adv-x="739" 
d="M158 265q-4 -88 -12.5 -141.5t-24.5 -82.5t-40.5 -38.5t-60.5 -9.5v45q22 0 37.5 4.5t26.5 26t17.5 66.5t9.5 126l9 221h286v-200h129q80 0 122.5 -36t42.5 -105t-43 -105t-122 -36h-177v439h-193zM406 43h123q26 0 49 5t40 16t26.5 30t9.5 47t-9.5 47t-26.5 30t-40 16
t-49 5h-123v-196z" />
    <glyph glyph-name="uni045A" unicode="&#x45a;" horiz-adv-x="765" 
d="M384 239h-252v-239h-48v482h48v-200h252v200h48v-200h129q80 0 122.5 -36t42.5 -105t-43 -105t-122 -36h-177v239zM432 43h123q26 0 49 5t40 16t26.5 30t9.5 47t-9.5 47t-26.5 30t-40 16t-49 5h-123v-196z" />
    <glyph glyph-name="uni045B" unicode="&#x45b;" horiz-adv-x="556" 
d="M428 0v299q0 79 -32.5 116t-97.5 37q-54 0 -96.5 -19.5t-68.5 -39.5v-393h-48v572h-77v43h77v85h48v-85h116v-43h-116v-131h2q11 7 27.5 17t38 18.5t47 14.5t54.5 6q86 0 130 -48t44 -142v-307h-48z" />
    <glyph glyph-name="uni045C" unicode="&#x45c;" horiz-adv-x="445" 
d="M324 691l-59 -110h-43v5l48 110h54v-5zM132 225v-225h-48v482h48v-230h2l227 230h59v-5l-237 -236l245 -236v-5h-62l-232 225h-2z" />
    <glyph glyph-name="uni045D" unicode="&#x45d;" horiz-adv-x="545" 
d="M190 696h54l48 -110v-5h-43l-59 110v5zM134 79l276 403h51v-482h-48v401h-2l-276 -401h-51v482h48v-403h2z" />
    <glyph glyph-name="uni045E" unicode="&#x45e;" horiz-adv-x="474" 
d="M446 476l-206 -558q-24 -63 -58 -97t-88 -34q-14 0 -32.5 3t-29.5 6v44q12 -3 28.5 -5.5t32.5 -2.5q35 0 59 26.5t38 63.5l30 80l-195 474v6h51l166 -416h3l152 416h49v-6zM246 613q44 0 64.5 15.5t34.5 34.5l26 -20q-17 -30 -45.5 -51t-79.5 -21t-79.5 21t-45.5 51
l26 20q14 -19 34.5 -34.5t64.5 -15.5z" />
    <glyph glyph-name="uni045F" unicode="&#x45f;" horiz-adv-x="542" 
d="M251 -120l-5 120h-162v482h48v-439h278v439h48v-482h-162l-5 -120h-40z" />
    <glyph glyph-name="uni0462" unicode="&#x462;" horiz-adv-x="677" 
d="M196 541h-157v47h157v92h50v-92h228v-47h-228v-154h164q105 0 163 -46.5t58 -146.5q0 -101 -58 -147.5t-163 -46.5h-214v541zM246 47h164q35 0 65.5 6.5t53.5 23t36.5 45t13.5 72.5q0 43 -13.5 71.5t-36.5 45t-53.5 23t-65.5 6.5h-164v-293z" />
    <glyph glyph-name="uni0463" unicode="&#x463;" horiz-adv-x="518" 
d="M136 439h-113v43h113v218h48v-218h168v-43h-168v-157h129q80 0 122.5 -36t42.5 -105t-43 -105t-122 -36h-177v439zM184 43h123q26 0 49 5t40 16t26.5 30t9.5 47t-9.5 47t-26.5 30t-40 16t-49 5h-123v-196z" />
    <glyph glyph-name="uni0472" unicode="&#x472;" horiz-adv-x="696" 
d="M630 340q0 -77 -15.5 -142t-49.5 -112.5t-87.5 -74t-129.5 -26.5t-129.5 26.5t-87.5 74t-49.5 112.5t-15.5 142t15.5 142t49.5 112.5t87.5 74t129.5 26.5t129.5 -26.5t87.5 -74t49.5 -112.5t15.5 -142zM348 33q63 0 106 22t70 60.5t39 90t14 111.5h-459
q2 -60 14.5 -111.5t39 -90t70 -60.5t106.5 -22zM348 647q-63 0 -106.5 -22t-70 -60.5t-39 -90t-14.5 -110.5h459q-2 59 -14.5 110.5t-39 90t-69.5 60.5t-106 22z" />
    <glyph glyph-name="uni0473" unicode="&#x473;" horiz-adv-x="562" 
d="M505 241q0 -50 -11 -96t-37 -81.5t-69 -57t-107 -21.5t-107 21.5t-69 57t-37 81.5t-11 96q0 49 11 95.5t37 82t69 57t107 21.5t107 -21.5t69 -57t37 -82t11 -95.5zM281 30q49 0 81.5 16t52.5 42.5t28.5 61t10.5 70.5h-347q2 -36 11 -70.5t29 -61t52.5 -42.5t81.5 -16z
M281 452q-49 0 -81.5 -16t-52.5 -42.5t-29 -60.5t-11 -70h347q-2 36 -11 70t-28.5 60.5t-52 42.5t-81.5 16z" />
    <glyph glyph-name="uni0474" unicode="&#x474;" horiz-adv-x="650" 
d="M461 533q18 51 34.5 82.5t35 49t41.5 24t55 6.5v-47q-24 0 -40 -5t-28.5 -19.5t-24.5 -41.5t-28 -71l-187 -511h-52l-246 674v6h51l220 -613h2z" />
    <glyph glyph-name="uni0475" unicode="&#x475;" horiz-adv-x="510" 
d="M369 413q18 49 44 64.5t69 15.5v-45q-25 0 -41 -8.5t-27 -37.5l-154 -402h-50l-183 476v6h48l159 -421h2z" />
    <glyph glyph-name="uni0490" unicode="&#x490;" horiz-adv-x="537" 
d="M500 821l8 -188h-359v-633h-50v680h351l7 141h43z" />
    <glyph glyph-name="uni0491" unicode="&#x491;" horiz-adv-x="421" 
d="M350 482l5 105h41l8 -147l-272 -1v-439h-48v482h266z" />
    <glyph glyph-name="uni04AE" unicode="&#x4ae;" horiz-adv-x="534" 
d="M73 680l193 -335h2l193 335h55v-6l-224 -384v-290h-50v290l-224 384v6h55z" />
    <glyph glyph-name="uni04AF" unicode="&#x4af;" horiz-adv-x="470" 
d="M211 -198v200l-184 474v6h49l158 -418h2l158 418h49v-6l-184 -474v-200h-48z" />
    <glyph glyph-name="uni04E8" unicode="&#x4e8;" horiz-adv-x="696" 
d="M630 340q0 -77 -15.5 -142t-49.5 -112.5t-87.5 -74t-129.5 -26.5t-129.5 26.5t-87.5 74t-49.5 112.5t-15.5 142t15.5 142t49.5 112.5t87.5 74t129.5 26.5t129.5 -26.5t87.5 -74t49.5 -112.5t15.5 -142zM348 33q63 0 106 22t70 60.5t39 90t14 111.5h-459
q2 -60 14.5 -111.5t39 -90t70 -60.5t106.5 -22zM348 647q-63 0 -106.5 -22t-70 -60.5t-39 -90t-14.5 -110.5h459q-2 59 -14.5 110.5t-39 90t-69.5 60.5t-106 22z" />
    <glyph glyph-name="uni04E9" unicode="&#x4e9;" horiz-adv-x="562" 
d="M505 241q0 -50 -11 -96t-37 -81.5t-69 -57t-107 -21.5t-107 21.5t-69 57t-37 81.5t-11 96q0 49 11 95.5t37 82t69 57t107 21.5t107 -21.5t69 -57t37 -82t11 -95.5zM281 30q49 0 81.5 16t52.5 42.5t28.5 61t10.5 70.5h-347q2 -36 11 -70.5t29 -61t52.5 -42.5t81.5 -16z
M281 452q-49 0 -81.5 -16t-52.5 -42.5t-29 -60.5t-11 -70h347q-2 36 -11 70t-28.5 60.5t-52 42.5t-81.5 16z" />
    <glyph glyph-name="uni0E3F" unicode="&#xe3f;" 
d="M314 679q40 -3 73 -14.5t56 -32.5t36 -52.5t13 -75.5q0 -33 -8.5 -58.5t-23 -44t-32.5 -31t-36 -19.5v-2q55 -14 89.5 -55.5t34.5 -110.5q0 -46 -15.5 -80t-42.5 -56.5t-64 -34t-80 -12.5v-108h-48v108h-158v680h158v90h48v-91zM464 185q0 36 -11.5 61.5t-32 41.5t-48 24
t-58.5 10v-275q31 2 58.5 10t47.5 24t32 41.5t12 62.5zM158 47h108v276h-108v-276zM158 370h108v263h-108v-263zM440 501q0 34 -9.5 57.5t-26 39t-40 23t-50.5 10.5v-260q27 3 50.5 11t40 23t26 38.5t9.5 57.5z" />
    <glyph glyph-name="Wgrave" unicode="&#x1e80;" horiz-adv-x="946" 
d="M918 674l-205 -674h-53l-186 607h-2l-186 -607h-53l-205 674v6h51l180 -601h2l185 601h54l185 -601h2l180 601h51v-6zM391 859h56l48 -110v-5h-45l-59 110v5z" />
    <glyph glyph-name="wgrave" unicode="&#x1e81;" horiz-adv-x="802" 
d="M773 476l-173 -476h-50l-148 422h-2l-148 -422h-50l-173 476v6h48l149 -415h2l148 415h50l148 -415h2l149 415h48v-6zM318 696h54l48 -110v-5h-43l-59 110v5z" />
    <glyph glyph-name="Wacute" unicode="&#x1e82;" horiz-adv-x="946" 
d="M918 674l-205 -674h-53l-186 607h-2l-186 -607h-53l-205 674v6h51l180 -601h2l185 601h54l185 -601h2l180 601h51v-6zM554 854l-59 -110h-45v5l48 110h56v-5z" />
    <glyph glyph-name="wacute" unicode="&#x1e83;" horiz-adv-x="802" 
d="M773 476l-173 -476h-50l-148 422h-2l-148 -422h-50l-173 476v6h48l149 -415h2l148 415h50l148 -415h2l149 415h48v-6zM484 691l-59 -110h-43v5l48 110h54v-5z" />
    <glyph glyph-name="Wdieresis" unicode="&#x1e84;" horiz-adv-x="946" 
d="M918 674l-205 -674h-53l-186 607h-2l-186 -607h-53l-205 674v6h51l180 -601h2l185 601h54l185 -601h2l180 601h51v-6zM345 801q0 17 11 28.5t28 11.5q16 0 27 -11.5t11 -28.5t-11 -28t-27 -11q-17 0 -28 11t-11 28zM523 801q0 17 11 28.5t28 11.5q16 0 27 -11.5t11 -28.5
t-11 -28t-27 -11q-17 0 -28 11t-11 28z" />
    <glyph glyph-name="wdieresis" unicode="&#x1e85;" horiz-adv-x="802" 
d="M773 476l-173 -476h-50l-148 422h-2l-148 -422h-50l-173 476v6h48l149 -415h2l148 415h50l148 -415h2l149 415h48v-6zM275 626q0 17 11 28.5t28 11.5q16 0 27 -11.5t11 -28.5t-11 -28t-27 -11q-17 0 -28 11t-11 28zM453 626q0 17 11 28.5t28 11.5q16 0 27 -11.5t11 -28.5
t-11 -28t-27 -11q-17 0 -28 11t-11 28z" />
    <glyph glyph-name="uni1E9E" unicode="&#x1e9e;" horiz-adv-x="639" 
d="M94 424q0 64 11.5 114t37 85t67.5 53.5t104 18.5q61 0 108.5 -17.5t95.5 -47.5v-32l-136 -206v-2q45 0 83.5 -13t66.5 -38t44 -62t16 -86q0 -47 -15 -85t-42 -65t-66 -41.5t-87 -14.5q-37 0 -66 5t-55 12v49q28 -8 58.5 -13t62.5 -5q72 0 115 39.5t43 118.5
q0 81 -49.5 118t-132.5 37h-41v32l145 223q-32 20 -73.5 33t-74.5 13q-47 0 -79.5 -14.5t-52.5 -42.5t-28.5 -69.5t-8.5 -95.5v-425h-51v424z" />
    <glyph glyph-name="Ygrave" unicode="&#x1ef2;" horiz-adv-x="534" 
d="M73 680l193 -335h2l193 335h55v-6l-224 -384v-290h-50v290l-224 384v6h55zM193 859h56l48 -110v-5h-45l-59 110v5z" />
    <glyph glyph-name="ygrave" unicode="&#x1ef3;" horiz-adv-x="474" 
d="M446 476l-206 -558q-24 -63 -58 -97t-88 -34q-14 0 -32.5 3t-29.5 6v44q12 -3 28.5 -5.5t32.5 -2.5q35 0 59 26.5t38 63.5l30 80l-195 474v6h51l166 -416h3l152 416h49v-6zM166 696h54l48 -110v-5h-43l-59 110v5z" />
    <glyph glyph-name="endash" unicode="&#x2013;" horiz-adv-x="541" 
d="M78 248v43h385v-43h-385z" />
    <glyph glyph-name="emdash" unicode="&#x2014;" horiz-adv-x="872" 
d="M78 248v43h716v-43h-716z" />
    <glyph glyph-name="quoteleft" unicode="&#x2018;" horiz-adv-x="216" 
d="M151 674l-30 -217h-56v6l45 217h41v-6z" />
    <glyph glyph-name="quoteright" unicode="&#x2019;" horiz-adv-x="213" 
d="M69 463l30 217h56v-6l-45 -217h-41v6z" />
    <glyph glyph-name="quotesinglbase" unicode="&#x201a;" horiz-adv-x="221" 
d="M56 -155l30 217h56v-6l-45 -217h-41v6z" />
    <glyph glyph-name="quotedblleft" unicode="&#x201c;" horiz-adv-x="361" 
d="M296 674l-30 -217h-56v6l45 217h41v-6zM151 674l-30 -217h-56v6l45 217h41v-6z" />
    <glyph glyph-name="quotedblright" unicode="&#x201d;" horiz-adv-x="356" 
d="M69 463l30 217h56v-6l-45 -217h-41v6zM212 463l30 217h56v-6l-45 -217h-41v6z" />
    <glyph glyph-name="quotedblbase" unicode="&#x201e;" horiz-adv-x="364" 
d="M56 -155l30 217h56v-6l-45 -217h-41v6zM199 -155l30 217h56v-6l-45 -217h-41v6z" />
    <glyph glyph-name="dagger" unicode="&#x2020;" horiz-adv-x="472" 
d="M211 482v218h50v-218h180v-47h-180v-633h-50v633h-180v47h180z" />
    <glyph glyph-name="daggerdbl" unicode="&#x2021;" horiz-adv-x="536" 
d="M243 482v218h50v-218h179v-47h-179v-368h179v-47h-179v-218h-50v218h-179v47h179v368h-179v47h179z" />
    <glyph glyph-name="bullet" unicode="&#x2022;" horiz-adv-x="318" 
d="M103.638 365.323q0 25.9092 16.1934 41.4551q16.1934 15.5449 40.8076 15.5449q24.6133 0 40.8066 -15.5449q16.1934 -15.5459 16.1934 -41.4551q0 -25.9102 -16.1934 -41.4551q-16.1934 -15.5459 -40.8066 -15.5459q-24.6143 0 -40.8076 15.5459
q-16.1934 15.5449 -16.1934 41.4551z" />
    <glyph glyph-name="ellipsis" unicode="&#x2026;" horiz-adv-x="622" 
d="M71 29q0 20 12.5 32t31.5 12t31.5 -12t12.5 -32t-12.5 -32t-31.5 -12t-31.5 12t-12.5 32zM267 29q0 20 12.5 32t31.5 12t31.5 -12t12.5 -32t-12.5 -32t-31.5 -12t-31.5 12t-12.5 32zM463 29q0 20 12.5 32t31.5 12t31.5 -12t12.5 -32t-12.5 -32t-31.5 -12t-31.5 12
t-12.5 32z" />
    <glyph glyph-name="perthousand" unicode="&#x2030;" horiz-adv-x="1057" 
d="M147 0v5l395 675h48v-5l-395 -675h-48zM797 163q0 -66 22 -97.5t64 -31.5t64 31.5t22 97.5t-22 97.5t-64 31.5t-64 -31.5t-22 -97.5zM753 163q0 37 8 68t24 53.5t40.5 35t57.5 12.5t57.5 -12.5t40.5 -35t24 -53.5t8 -68t-8 -68t-24 -53.5t-40.5 -35t-57.5 -12.5
t-57.5 12.5t-40.5 35t-24 53.5t-8 68zM92 515q0 -66 22 -97.5t64 -31.5t64 31.5t22 97.5t-22 97.5t-64 31.5t-64 -31.5t-22 -97.5zM48 515q0 37 8 68t24 53.5t40.5 35t57.5 12.5t57.5 -12.5t40.5 -35t24 -53.5t8 -68t-8 -68t-24 -53.5t-40.5 -35t-57.5 -12.5t-57.5 12.5
t-40.5 35t-24 53.5t-8 68zM469 163q0 -66 22 -97.5t64 -31.5t64 31.5t22 97.5t-22 97.5t-64 31.5t-64 -31.5t-22 -97.5zM425 163q0 37 8 68t24 53.5t40.5 35t57.5 12.5t57.5 -12.5t40.5 -35t24 -53.5t8 -68t-8 -68t-24 -53.5t-40.5 -35t-57.5 -12.5t-57.5 12.5t-40.5 35
t-24 53.5t-8 68z" />
    <glyph glyph-name="guilsinglleft" unicode="&#x2039;" horiz-adv-x="289" 
d="M48 271l149 204l34 -25l-132 -180l130 -180l-32 -25l-149 204v2z" />
    <glyph glyph-name="guilsinglright" unicode="&#x203a;" horiz-adv-x="289" 
d="M241 269l-149 -204l-32 25l130 180l-132 180l34 25l149 -204v-2z" />
    <glyph glyph-name="fraction" unicode="&#x2044;" horiz-adv-x="80" 
d="M-182 0v5l395 675h48v-5l-395 -675h-48z" />
    <glyph glyph-name="uni2070" unicode="&#x2070;" horiz-adv-x="340" 
d="M84 639q0 -66 22 -97.5t64 -31.5t64 31.5t22 97.5t-22 97.5t-64 31.5t-64 -31.5t-22 -97.5zM40 639q0 37 8 68t24 53.5t40.5 35t57.5 12.5t57.5 -12.5t40.5 -35t24 -53.5t8 -68t-8 -68t-24 -53.5t-40.5 -35t-57.5 -12.5t-57.5 12.5t-40.5 35t-24 53.5t-8 68z" />
    <glyph glyph-name="uni2074" unicode="&#x2074;" horiz-adv-x="320" 
d="M240 721v-136h51v-37h-51v-72h-42v72h-170v29l90 223h44l-85 -214v-1h121v136h42z" />
    <glyph glyph-name="uni2075" unicode="&#x2075;" horiz-adv-x="291" 
d="M51 640l22 160h168v-37h-132l-12 -88h33q59 0 91.5 -24.5t32.5 -75.5t-34 -79t-97 -28q-23 0 -49 6t-43 14l10 36q23 -10 47.5 -13.5t34.5 -3.5q46 0 66.5 15.5t20.5 52.5q0 62 -86 62q-22 0 -40 -0.5t-28 -1.5z" />
    <glyph glyph-name="uni2076" unicode="&#x2076;" horiz-adv-x="298" 
d="M194 795l-72 -110v-1q5 2 15.5 4.5t21.5 2.5q53 0 81 -30.5t28 -80.5q0 -18 -6 -38t-19.5 -36.5t-36 -27t-54.5 -10.5q-58 0 -87 32t-29 80q0 23 8 44.5t24 45.5l79 130h47v-5zM80 580q0 -30 19 -51.5t53 -21.5t53 21.5t19 51.5t-19 51t-53 21t-53 -21t-19 -51z" />
    <glyph glyph-name="uni2077" unicode="&#x2077;" horiz-adv-x="259" 
d="M71 481l118 281v1h-165v37h213v-31l-121 -293h-45v5z" />
    <glyph glyph-name="uni2078" unicode="&#x2078;" horiz-adv-x="312" 
d="M156 507q40 0 57 18.5t17 41.5t-17 41.5t-57 18.5t-57 -18.5t-17 -41.5t17 -41.5t57 -18.5zM156 808q49 0 76.5 -24.5t27.5 -62.5q0 -26 -15 -44t-35 -29v-1q29 -10 46.5 -32.5t17.5 -50.5q0 -42 -29 -69t-89 -27t-89 27t-29 69q0 28 17.5 50.5t46.5 32.5v1
q-20 11 -35 29t-15 44q0 38 27.5 62.5t76.5 24.5zM156 667q34 0 47 15.5t13 35.5t-13 35.5t-47 15.5t-47 -15.5t-13 -35.5t13 -35.5t47 -15.5z" />
    <glyph glyph-name="uni2079" unicode="&#x2079;" horiz-adv-x="297" 
d="M103 481l72 110v1q-5 -2 -15.5 -4.5t-21.5 -2.5q-53 0 -81 30.5t-28 80.5q0 18 6 37.5t19.5 36t36 27.5t54.5 11q58 0 87 -32t29 -80q0 -23 -8 -44.5t-24 -45.5l-79 -130h-47v5zM217 696q0 30 -19 51.5t-53 21.5t-53 -21.5t-19 -51.5t19 -51t53 -21t53 21t19 51z" />
    <glyph glyph-name="uni207A" unicode="&#x207a;" horiz-adv-x="257" 
d="M149 666h72v-37h-72v-74h-41v74h-72v37h72v75h41v-75z" />
    <glyph glyph-name="uni207B" unicode="&#x207b;" horiz-adv-x="288" 
d="M51 631v37h186v-37h-186z" />
    <glyph glyph-name="uni207D" unicode="&#x207d;" horiz-adv-x="168" 
d="M38 639q0 59 20.5 114t48.5 100l27 -16q-26 -48 -39.5 -101t-13.5 -97q0 -48 13.5 -101.5t39.5 -99.5l-27 -16q-28 43 -48.5 98.5t-20.5 118.5z" />
    <glyph glyph-name="uni207E" unicode="&#x207e;" horiz-adv-x="168" 
d="M130 639q0 -63 -20.5 -118.5t-48.5 -98.5l-27 16q26 46 39.5 99.5t13.5 101.5q0 44 -13.5 97t-39.5 101l27 16q28 -45 48.5 -100t20.5 -114z" />
    <glyph glyph-name="uni2080" unicode="&#x2080;" horiz-adv-x="340" 
d="M84 44q0 -66 22 -97.5t64 -31.5t64 31.5t22 97.5t-22 97.5t-64 31.5t-64 -31.5t-22 -97.5zM40 44q0 37 8 68t24 53.5t40.5 35t57.5 12.5t57.5 -12.5t40.5 -35t24 -53.5t8 -68t-8 -68t-24 -53.5t-40.5 -35t-57.5 -12.5t-57.5 12.5t-40.5 35t-24 53.5t-8 68z" />
    <glyph glyph-name="uni2081" unicode="&#x2081;" horiz-adv-x="219" 
d="M25 112v39l110 54h34v-324h-42v277h-1l-96 -46h-5z" />
    <glyph glyph-name="uni2082" unicode="&#x2082;" horiz-adv-x="291" 
d="M101 -82h152v-37h-218v32l116 107q21 19 36.5 40t15.5 47q0 30 -18 48.5t-50 18.5q-24 0 -44 -11.5t-34 -24.5l-23 30q14 14 39.5 29.5t61.5 15.5q54 0 83 -29t29 -74q0 -35 -14.5 -58t-36.5 -45l-95 -88v-1z" />
    <glyph glyph-name="uni2083" unicode="&#x2083;" horiz-adv-x="299" 
d="M78 64h52q42 0 60 15.5t18 37.5q0 29 -18.5 43t-52.5 14q-19 0 -41 -4.5t-41 -14.5l-14 35q20 11 47.5 17t51.5 6q51 0 81.5 -23.5t30.5 -65.5q0 -29 -16 -48.5t-38 -27.5v-1q26 -9 43 -27.5t17 -50.5q0 -45 -34 -70.5t-89 -25.5q-32 0 -58 7t-45 17l13 36q19 -9 43 -15
t46 -6q32 0 56 12.5t24 46.5q0 26 -20.5 41t-65.5 15h-50v37z" />
    <glyph glyph-name="uni2084" unicode="&#x2084;" horiz-adv-x="320" 
d="M240 126v-136h51v-37h-51v-72h-42v72h-170v29l90 223h44l-85 -214v-1h121v136h42z" />
    <glyph glyph-name="uni2085" unicode="&#x2085;" horiz-adv-x="291" 
d="M51 45l22 160h168v-37h-132l-12 -88h33q59 0 91.5 -24.5t32.5 -75.5t-34 -79t-97 -28q-23 0 -49 6t-43 14l10 36q23 -10 47.5 -13.5t34.5 -3.5q46 0 66.5 15.5t20.5 52.5q0 62 -86 62q-22 0 -40 -0.5t-28 -1.5z" />
    <glyph glyph-name="uni2086" unicode="&#x2086;" horiz-adv-x="297" 
d="M194 200l-72 -110v-1q5 2 15.5 4.5t21.5 2.5q53 0 81 -30.5t28 -80.5q0 -18 -6 -38t-19.5 -36.5t-36 -27t-54.5 -10.5q-58 0 -87 32t-29 80q0 23 8 44.5t24 45.5l79 130h47v-5zM80 -15q0 -30 19 -51.5t53 -21.5t53 21.5t19 51.5t-19 51t-53 21t-53 -21t-19 -51z" />
    <glyph glyph-name="uni2087" unicode="&#x2087;" horiz-adv-x="259" 
d="M71 -114l118 281v1h-165v37h213v-31l-121 -293h-45v5z" />
    <glyph glyph-name="uni2088" unicode="&#x2088;" horiz-adv-x="312" 
d="M156 -88q40 0 57 18.5t17 41.5t-17 41.5t-57 18.5t-57 -18.5t-17 -41.5t17 -41.5t57 -18.5zM156 213q49 0 76.5 -24.5t27.5 -62.5q0 -26 -15 -44t-35 -29v-1q29 -10 46.5 -32.5t17.5 -50.5q0 -42 -29 -69t-89 -27t-89 27t-29 69q0 28 17.5 50.5t46.5 32.5v1
q-20 11 -35 29t-15 44q0 38 27.5 62.5t76.5 24.5zM156 72q34 0 47 15.5t13 35.5t-13 35.5t-47 15.5t-47 -15.5t-13 -35.5t13 -35.5t47 -15.5z" />
    <glyph glyph-name="uni2089" unicode="&#x2089;" horiz-adv-x="297" 
d="M103 -114l72 110v1q-5 -2 -15.5 -4.5t-21.5 -2.5q-53 0 -81 30.5t-28 80.5q0 18 6 37.5t19.5 36t36 27.5t54.5 11q58 0 87 -32t29 -80q0 -23 -8 -44.5t-24 -45.5l-79 -130h-47v5zM217 101q0 30 -19 51.5t-53 21.5t-53 -21.5t-19 -51.5t19 -51t53 -21t53 21t19 51z" />
    <glyph glyph-name="uni208D" unicode="&#x208d;" horiz-adv-x="168" 
d="M38 44q0 59 20.5 114t48.5 100l27 -16q-26 -48 -39.5 -101t-13.5 -97q0 -48 13.5 -101.5t39.5 -99.5l-27 -16q-28 43 -48.5 98.5t-20.5 118.5z" />
    <glyph glyph-name="uni208E" unicode="&#x208e;" horiz-adv-x="168" 
d="M130 44q0 -63 -20.5 -118.5t-48.5 -98.5l-27 16q26 46 39.5 99.5t13.5 101.5q0 44 -13.5 97t-39.5 101l27 16q28 -45 48.5 -100t20.5 -114z" />
    <glyph glyph-name="colonmonetary" unicode="&#x20a1;" 
d="M458 677q14 -5 27.5 -11t25.5 -14l-14 -45q-24 14 -47 23l-99 -597h6q31 0 64.5 8t67.5 29l17 -42q-33 -21 -72 -32t-77 -11q-4 0 -7 0.5t-7 0.5l-15 -94h-45l16 99q-41 8 -71 25l-20 -124h-45l25 154q-48 46 -71 121.5t-23 172.5q0 70 12 129t36.5 104t62.5 75t90 41
l14 81h44l-13 -76q5 1 8.5 1h8.5q28 0 58 -6l14 81h44zM237 68q15 -11 32.5 -18.5t37.5 -11.5l100 603q-27 6 -50 6q-7 0 -13 -0.5t-12 -0.5zM145 340q0 -75 12.5 -133t41.5 -99l88 529q-77 -24 -109.5 -101.5t-32.5 -195.5z" />
    <glyph glyph-name="lira" unicode="&#x20a4;" 
d="M110 38q42 17 68 55.5t26 83.5q0 30 -3 60h-101v42h95q-5 31 -10.5 61.5t-10.5 61.5h-74v42h68q-2 18 -3 37t-1 38q0 46 15 79t39.5 54.5t56 32t64.5 10.5q42 0 79.5 -13.5t69.5 -34.5l-23 -40q-35 23 -65 31.5t-61 8.5q-24 0 -46.5 -7t-40 -22t-28.5 -39.5t-11 -59.5
q0 -19 1.5 -37.5t3.5 -37.5h212v-42h-206q5 -32 11.5 -62.5t11.5 -60.5h183v-42h-178q2 -16 3 -31t1 -29q0 -28 -7 -50t-17 -38t-21.5 -26.5t-20.5 -15.5v-2h308v-45h-388v38v0z" />
    <glyph glyph-name="uni20A6" unicode="&#x20a6;" 
d="M105 435v245h58l114 -245h163v245h49v-245h66v-42h-66v-123h66v-42h-66v-228h-58l-106 228h-170v-228h-50v228h-71v42h71v123h-71v42h71zM155 270h150l-57 123h-93v-123zM355 270h85v123h-143zM155 435h73l-71 154h-2v-154zM440 92v136h-66l64 -136h2z" />
    <glyph glyph-name="uni20A8" unicode="&#x20a8;" 
d="M355 629q32 -15 50.5 -40.5t23.5 -66.5h87l-14 -48h-73q-7 -76 -58 -119t-148 -43h-52l281 -305v-7h-63l-293 321v37h121q149 0 161 116h-293l14 48h278q-14 107 -152 110h-140l14 48h417l-14 -48h-147v-3z" />
    <glyph glyph-name="uni20AA" unicode="&#x20aa;" 
d="M351 184v273q0 53 -5 87t-22 53.5t-48.5 27t-83.5 7.5h-103v-632h-50v680h166q60 0 98 -11.5t59.5 -38t30 -69.5t8.5 -105v-272h-50zM554 680v-457q0 -64 -12 -107t-38 -68.5t-67.5 -36.5t-100.5 -11h-136v496h50v-449h73q52 0 87 6t56 24.5t29.5 53t8.5 92.5v457h50z
" />
    <glyph glyph-name="dong" unicode="&#x20ab;" 
d="M525 636v-43h-65v-475h-38l-6 44h-2q-25 -23 -61 -41t-93 -18q-93 0 -139 55t-46 153t46 153t139 55q30 0 52.5 -4.5t40 -12.5t31.5 -18.5t26 -21.5h2v131h-109v43h109v65h48v-65h65zM412 407q-27 30 -63 48.5t-83 18.5q-141 0 -141 -163t141 -163q47 0 83 18.5t63 48.5
v192zM460 43v-43h-356v43h356z" />
    <glyph glyph-name="Euro" unicode="&#x20ac;" 
d="M114 340v27.5t2 27.5h-77l13 42h68q8 59 27.5 106.5t52 81.5t78 52t105.5 18q38 0 81.5 -11t76.5 -32l-14 -45q-34 21 -73.5 30.5t-70.5 9.5q-50 0 -87 -14.5t-62.5 -41.5t-40.5 -66t-22 -88h308l-12 -43l-301 1q-1 -14 -1 -27.5v-27.5v-33t2 -31h266l-12 -42h-249
q7 -47 22.5 -84.5t41 -63.5t62 -39.5t85.5 -13.5q31 0 66.5 8t69.5 29l17 -42q-33 -21 -74 -32t-79 -11q-59 0 -104 17.5t-77 49.5t-52 78.5t-29 103.5h-82l13 42h64q-1 15 -1.5 31t-0.5 33z" />
    <glyph glyph-name="uni20AD" unicode="&#x20ad;" 
d="M266 309l257 -303v-6h-62l-259 309h-8v-309h-50v309h-77v42h77v329h50v-329h8l247 329h58v-6l-246 -323h209v-42h-204z" />
    <glyph glyph-name="uni20AE" unicode="&#x20ae;" 
d="M525 680v-47h-204v-211l98 38v-51l-98 -38v-79l98 38v-51l-98 -38v-241h-50v221l-104 -40v51l104 40v79l-104 -40v51l104 40v231h-204v47h458z" />
    <glyph glyph-name="uni20B1" unicode="&#x20b1;" 
d="M488 359q-41 -136 -201 -136h-121v-223h-50v359h-64v42h64v98h-64v42h64v139h171q163 0 201 -139h59v-42h-50q3 -23 3 -48q0 -28 -3 -50h50v-42h-59zM448 451q0 28 -4 48h-278v-98h278q2 11 3 23.5t1 26.5zM166 541h267q-35 92 -152 92h-115v-92zM281 270q117 0 151 89
h-266v-89h115z" />
    <glyph glyph-name="uni20B2" unicode="&#x20b2;" 
d="M339 695q58 -2 95.5 -18.5t72.5 -41.5l-26 -38q-35 25 -69.5 36.5t-72.5 13.5v-614q38 1 67 9.5t57 26.5v206l-77 9v38h127v-278q-40 -29 -82 -43t-92 -16v-93h-48v95q-60 6 -102 35.5t-68.5 76t-38 108t-11.5 133.5q0 70 12.5 131t39 107.5t68 76t100.5 37.5v78h48v-75z
M122 340q0 -59 8 -111.5t27.5 -93t52 -67t81.5 -33.5v609q-45 -8 -77.5 -33.5t-52.5 -65t-29.5 -92t-9.5 -113.5z" />
    <glyph glyph-name="uni20B4" unicode="&#x20b4;" 
d="M178 236q-15 -27 -15 -64q0 -34 11 -60t30.5 -43.5t44.5 -26.5t54 -9q57 0 96.5 20t69.5 48l24 -40q-32 -29 -77.5 -52.5t-112.5 -23.5q-42 0 -76.5 14t-60 39t-39.5 59.5t-14 75.5q0 36 10 63h-53v42h75q8 10 29 24t48 26l105 48h-257v42h315q23 18 33 40.5t10 51.5
q0 59 -34.5 98t-100.5 39q-81 0 -148 -51l-20 42q31 25 73 41t95 16q44 0 78.5 -14.5t58.5 -39.5t36.5 -59t12.5 -73q0 -50 -27 -91h63v-42h-103q-7 -5 -14.5 -10t-18 -11t-24.5 -12.5t-33 -15.5l-108 -49h301v-42h-337z" />
    <glyph glyph-name="uni20B5" unicode="&#x20b5;" 
d="M361 695q37 -1 77.5 -12t72.5 -31l-14 -45q-33 20 -69.5 29.5t-66.5 10.5v-614q30 0 62.5 8.5t65.5 28.5l17 -42q-32 -21 -70 -31.5t-75 -11.5v-93h-48v96q-57 8 -98 36.5t-68 74.5t-40 107t-13 134t13 134t40 106.5t68 74.5t98 37v78h48v-75zM145 340
q0 -128 38.5 -207.5t129.5 -96.5v607q-45 -8 -77 -32.5t-52.5 -63.5t-29.5 -91.5t-9 -115.5z" />
    <glyph glyph-name="uni2113" unicode="&#x2113;" horiz-adv-x="412" 
d="M24 235q32 17 62 35t58 39v248q0 45 7.5 75.5t21 48.5t32.5 26t42 8q26 0 44.5 -10.5t30 -28t17 -41t5.5 -50.5q0 -47 -12 -89t-32.5 -78.5t-48 -68t-59.5 -58.5v-170q0 -14 1.5 -30t8 -29.5t19 -22.5t34.5 -9q29 0 58 12t56 31l16 -43q-28 -17 -63 -31t-67 -14
q-62 0 -86.5 34.5t-24.5 99.5v136q-25 -17 -50 -31.5t-50 -26.5zM192 350q46 45 74 101.5t28 130.5q0 35 -10 61.5t-37 26.5q-29 0 -42 -26t-13 -90v-204z" />
    <glyph glyph-name="uni2116" unicode="&#x2116;" horiz-adv-x="1031" 
d="M531 92v588h49v-680h-48l-392 589h-2v-589h-50v680h48l393 -588h2zM727 502q0 -25 5.5 -46.5t17.5 -37.5t31 -25t45 -9q52 0 75.5 34t23.5 84q0 25 -5.5 46.5t-17.5 37.5t-31 25t-45 9t-45 -9t-31 -25t-17.5 -37.5t-5.5 -46.5zM704 228v43h247v-43h-247zM680 502
q0 33 8.5 62.5t26 51t45 34.5t66.5 13q38 0 65.5 -13t45.5 -34.5t26.5 -51t8.5 -62.5t-8.5 -62.5t-26 -51t-45 -34.5t-66.5 -13t-66.5 13t-45 34.5t-26 51t-8.5 62.5z" />
    <glyph glyph-name="uni2117" unicode="&#x2117;" horiz-adv-x="836" 
d="M310 153v374h132q63 0 93.5 -30.5t30.5 -84.5q0 -52 -31 -83.5t-93 -31.5h-86v-144h-46zM356 340h89q38 0 55.5 21.5t17.5 50.5t-17.5 50.5t-55.5 21.5h-89v-144zM773 340q0 -75 -27 -140t-75 -113t-113 -75t-140 -27t-140 27t-113 75t-75 113t-27 140t27 140t75 113
t113 75t140 27t140 -27t113 -75t75 -113t27 -140zM110 340q0 -68 22.5 -125t63 -98t97.5 -64.5t125 -23.5t125 23.5t97.5 64.5t63 98t22.5 125q0 67 -22.5 124.5t-63 98.5t-97.5 64.5t-125 23.5t-125 -23.5t-97.5 -64.5t-63 -98.5t-22.5 -124.5z" />
    <glyph glyph-name="trademark" unicode="&#x2122;" horiz-adv-x="725" 
d="M497 543l90 157h52v-280h-43v218h-1l-81 -141h-36l-81 141h-1v-218h-43v280h52l90 -157h2zM292 700v-38h-91v-242h-43v242h-91v38h225z" />
    <glyph glyph-name="Omega" unicode="&#x2126;" horiz-adv-x="692" 
d="M346 695q76 0 128.5 -26.5t85.5 -70.5t47.5 -102t14.5 -122q0 -57 -11.5 -106t-31 -89.5t-45 -73.5t-52.5 -58h128v-47h-200v43q78 57 119 139t41 192q0 51 -9.5 100t-34.5 87.5t-68.5 62t-111.5 23.5t-111.5 -23.5t-68.5 -62t-34.5 -87.5t-9.5 -100q0 -110 41 -192
t119 -139v-43h-200v47h128q-27 25 -52.5 58t-45 73.5t-31 89.5t-11.5 106q0 64 14.5 122t47.5 102t85.5 70.5t128.5 26.5z" />
    <glyph glyph-name="estimated" unicode="&#x212e;" horiz-adv-x="688" 
d="M592 106q-47 -65 -104.5 -93t-137.5 -28q-65 0 -117 24t-89.5 65.5t-57.5 97t-20 118.5q0 64 20 119t57.5 95.5t89.5 64t117 23.5q63 0 115 -21.5t89.5 -60t59 -92.5t23.5 -118l-7 -10h-445v-201q32 -31 74.5 -46.5t90.5 -15.5q63 0 115 24t90 82zM516 491
q-35 33 -77.5 48t-88.5 15q-48 0 -90.5 -15t-74.5 -48v-161h331v161z" />
    <glyph glyph-name="onethird" unicode="&#x2153;" horiz-adv-x="680" 
d="M84 0v5l395 675h48v-5l-395 -675h-48zM42 587v39l110 54h34v-324h-42v277h-1l-96 -46h-5zM449 183h52q42 0 60 15.5t18 37.5q0 29 -18.5 43t-52.5 14q-19 0 -41 -4.5t-41 -14.5l-14 35q20 11 47.5 17t51.5 6q51 0 81.5 -23.5t30.5 -65.5q0 -29 -16 -48.5t-38 -27.5v-1
q26 -9 43 -27.5t17 -50.5q0 -45 -34 -70.5t-89 -25.5q-32 0 -58 7t-45 17l13 36q19 -9 43 -15t46 -6q32 0 56 12.5t24 46.5q0 26 -20.5 41t-65.5 15h-50v37z" />
    <glyph glyph-name="twothirds" unicode="&#x2154;" horiz-adv-x="760" 
d="M164 0v5l395 675h48v-5l-395 -675h-48zM121 391h152v-37h-218v32l116 107q21 19 36.5 40t15.5 47q0 30 -18 48.5t-50 18.5q-24 0 -44 -11.5t-34 -24.5l-23 30q14 14 39.5 29.5t61.5 15.5q54 0 83 -29t29 -74q0 -35 -14.5 -58t-36.5 -45l-95 -88v-1zM529 183h52
q42 0 60 15.5t18 37.5q0 29 -18.5 43t-52.5 14q-19 0 -41 -4.5t-41 -14.5l-14 35q20 11 47.5 17t51.5 6q51 0 81.5 -23.5t30.5 -65.5q0 -29 -16 -48.5t-38 -27.5v-1q26 -9 43 -27.5t17 -50.5q0 -45 -34 -70.5t-89 -25.5q-32 0 -58 7t-45 17l13 36q19 -9 43 -15t46 -6
q32 0 56 12.5t24 46.5q0 26 -20.5 41t-65.5 15h-50v37z" />
    <glyph glyph-name="oneeighth" unicode="&#x215b;" horiz-adv-x="681" 
d="M84 0v5l395 675h48v-5l-395 -675h-48zM42 587v39l110 54h34v-324h-42v277h-1l-96 -46h-5zM515 31q40 0 57 18.5t17 41.5t-17 41.5t-57 18.5t-57 -18.5t-17 -41.5t17 -41.5t57 -18.5zM515 332q49 0 76.5 -24.5t27.5 -62.5q0 -26 -15 -44t-35 -29v-1q29 -10 46.5 -32.5
t17.5 -50.5q0 -42 -29 -69t-89 -27t-89 27t-29 69q0 28 17.5 50.5t46.5 32.5v1q-20 11 -35 29t-15 44q0 38 27.5 62.5t76.5 24.5zM515 191q34 0 47 15.5t13 35.5t-13 35.5t-47 15.5t-47 -15.5t-13 -35.5t13 -35.5t47 -15.5z" />
    <glyph glyph-name="threeeighths" unicode="&#x215c;" horiz-adv-x="748" 
d="M151 0v5l395 675h48v-5l-395 -675h-48zM582 31q40 0 57 18.5t17 41.5t-17 41.5t-57 18.5t-57 -18.5t-17 -41.5t17 -41.5t57 -18.5zM582 332q49 0 76.5 -24.5t27.5 -62.5q0 -26 -15 -44t-35 -29v-1q29 -10 46.5 -32.5t17.5 -50.5q0 -42 -29 -69t-89 -27t-89 27t-29 69
q0 28 17.5 50.5t46.5 32.5v1q-20 11 -35 29t-15 44q0 38 27.5 62.5t76.5 24.5zM582 191q34 0 47 15.5t13 35.5t-13 35.5t-47 15.5t-47 -15.5t-13 -35.5t13 -35.5t47 -15.5zM96 536h52q42 0 60 15.5t18 37.5q0 29 -18.5 43t-52.5 14q-19 0 -41 -4.5t-41 -14.5l-14 35
q20 11 47.5 17t51.5 6q51 0 81.5 -23.5t30.5 -65.5q0 -29 -16 -48.5t-38 -27.5v-1q26 -9 43 -27.5t17 -50.5q0 -45 -34 -70.5t-89 -25.5q-32 0 -58 7t-45 17l13 36q19 -9 43 -15t46 -6q32 0 56 12.5t24 46.5q0 26 -20.5 41t-65.5 15h-50v37z" />
    <glyph glyph-name="fiveeighths" unicode="&#x215d;" horiz-adv-x="735" 
d="M138 0v5l395 675h48v-5l-395 -675h-48zM68 520l22 160h168v-37h-132l-12 -88h33q59 0 91.5 -24.5t32.5 -75.5t-34 -79t-97 -28q-23 0 -49 6t-43 14l10 36q23 -10 47.5 -13.5t34.5 -3.5q46 0 66.5 15.5t20.5 52.5q0 62 -86 62q-22 0 -40 -0.5t-28 -1.5zM569 31
q40 0 57 18.5t17 41.5t-17 41.5t-57 18.5t-57 -18.5t-17 -41.5t17 -41.5t57 -18.5zM569 332q49 0 76.5 -24.5t27.5 -62.5q0 -26 -15 -44t-35 -29v-1q29 -10 46.5 -32.5t17.5 -50.5q0 -42 -29 -69t-89 -27t-89 27t-29 69q0 28 17.5 50.5t46.5 32.5v1q-20 11 -35 29t-15 44
q0 38 27.5 62.5t76.5 24.5zM569 191q34 0 47 15.5t13 35.5t-13 35.5t-47 15.5t-47 -15.5t-13 -35.5t13 -35.5t47 -15.5z" />
    <glyph glyph-name="seveneighths" unicode="&#x215e;" horiz-adv-x="669" 
d="M72 0v5l395 675h48v-5l-395 -675h-48zM503 31q40 0 57 18.5t17 41.5t-17 41.5t-57 18.5t-57 -18.5t-17 -41.5t17 -41.5t57 -18.5zM503 332q49 0 76.5 -24.5t27.5 -62.5q0 -26 -15 -44t-35 -29v-1q29 -10 46.5 -32.5t17.5 -50.5q0 -42 -29 -69t-89 -27t-89 27t-29 69
q0 28 17.5 50.5t46.5 32.5v1q-20 11 -35 29t-15 44q0 38 27.5 62.5t76.5 24.5zM503 191q34 0 47 15.5t13 35.5t-13 35.5t-47 15.5t-47 -15.5t-13 -35.5t13 -35.5t47 -15.5zM95 361l118 281v1h-165v37h213v-31l-121 -293h-45v5z" />
    <glyph glyph-name="arrowleft" unicode="&#x2190;" horiz-adv-x="892" 
d="M419 719l29 -30l-338 -331h782v-38h-782l338 -331l-29 -30l-379 380z" />
    <glyph glyph-name="arrowup" unicode="&#x2191;" horiz-adv-x="892" 
d="M843 385l-30 -29l-331 338v-782h-38v782l-331 -338l-30 29l380 379z" />
    <glyph glyph-name="arrowright" unicode="&#x2192;" horiz-adv-x="892" 
d="M513 -41l-29 30l338 331h-782v38h782l-338 331l29 30l379 -380z" />
    <glyph glyph-name="arrowdown" unicode="&#x2193;" horiz-adv-x="892" 
d="M84 290l30 29l331 -338v782h38v-782l331 338l30 -29l-380 -379z" />
    <glyph glyph-name="uni2196" unicode="&#x2196;" horiz-adv-x="904" 
d="M695 662v-38h-472l553 -552l-28 -28l-551 553v-473h-38v538h536z" />
    <glyph glyph-name="uni2197" unicode="&#x2197;" horiz-adv-x="901" 
d="M804 126h-38v473l-553 -554l-28 28l554 551h-474v38h539v-536z" />
    <glyph glyph-name="uni2198" unicode="&#x2198;" horiz-adv-x="901" 
d="M268 18v38h473l-554 553l28 28l551 -554v474h38v-539h-536z" />
    <glyph glyph-name="uni2199" unicode="&#x2199;" horiz-adv-x="904" 
d="M159 554h38v-472l553 553l28 -28l-554 -551h474v-38h-539v536z" />
    <glyph glyph-name="partialdiff" unicode="&#x2202;" horiz-adv-x="566" 
d="M171 700q93 0 156 -30t101.5 -79.5t54.5 -115t16 -135.5q0 -89 -18 -156t-49.5 -111t-74 -66t-92.5 -22q-51 0 -91 17.5t-67.5 49t-41.5 75.5t-14 96q0 63 17 109t46 75.5t67.5 43.5t81.5 14q57 0 102.5 -17.5t74.5 -42.5l2 1q-7 81 -35 129.5t-68 75t-87.5 35t-93.5 9.5
zM445 339q-35 38 -76.5 59.5t-105.5 21.5q-33 0 -62.5 -11.5t-51.5 -35.5t-35 -61t-13 -89q0 -40 10.5 -75t31 -61.5t51 -41.5t71.5 -15q37 0 70 18t58 55.5t39 96t13 139.5z" />
    <glyph glyph-name="Delta" unicode="&#x2206;" horiz-adv-x="605" 
d="M302 618l-208 -572h417l-208 572h-1zM29 5l248 675h51l248 -675v-5h-547v5z" />
    <glyph glyph-name="product" unicode="&#x220f;" horiz-adv-x="665" 
d="M527 633h-389v-831h-50v878h489v-878h-50v831z" />
    <glyph glyph-name="summation" unicode="&#x2211;" horiz-adv-x="548" 
d="M38 -157l239 407l-223 389v41h437v-47h-378l222 -381l-239 -403h410v-47h-468v41z" />
    <glyph glyph-name="minus" unicode="&#x2212;" 
d="M516 291v-43h-443v43h443z" />
    <glyph glyph-name="uni2215" unicode="&#x2215;" horiz-adv-x="463" 
d="M10 0v5l395 675h48v-5l-395 -675h-48z" />
    <glyph glyph-name="uni2219" unicode="&#x2219;" horiz-adv-x="246" 
d="M79 289q0 20 12.5 32t31.5 12t31.5 -12t12.5 -32t-12.5 -32t-31.5 -12t-31.5 12t-12.5 32z" />
    <glyph glyph-name="radical" unicode="&#x221a;" horiz-adv-x="577" 
d="M25 222h52l145 -345h2l287 803h51l-317 -878h-43l-177 415v5z" />
    <glyph glyph-name="infinity" unicode="&#x221e;" horiz-adv-x="764" 
d="M354 271q-41 51 -73 81.5t-70 30.5q-48 0 -73.5 -32.5t-25.5 -79.5t25.5 -79.5t73.5 -32.5q38 0 70 30.5t73 81.5zM382 306q20 24 39 45t40 37.5t44 26t50 9.5q32 0 58 -11.5t45 -31.5t29 -48.5t10 -61.5t-10 -61.5t-29 -48.5t-45 -31.5t-58 -11.5q-27 0 -50 9.5t-44 26
t-40 37.5t-39 45q-20 -24 -39 -45t-40 -37.5t-44 -26t-50 -9.5q-32 0 -58 11.5t-45 31.5t-29 48.5t-10 61.5t10 61.5t29 48.5t45 31.5t58 11.5q27 0 50 -9.5t44 -26t40 -37.5t39 -45zM410 271q41 -51 73 -81.5t70 -30.5q48 0 73.5 32.5t25.5 79.5t-25.5 79.5t-73.5 32.5
q-38 0 -70 -30.5t-73 -81.5z" />
    <glyph glyph-name="integral" unicode="&#x222b;" horiz-adv-x="521" 
d="M290 554q6 36 18 63t31 44t46.5 25.5t65.5 8.5q15 0 30 -1.5t27 -4.5l-8 -45q-24 6 -56 6q-47 0 -70.5 -20t-32.5 -71l-110 -632q-12 -73 -48 -107t-113 -34q-15 0 -30 1.5t-27 4.5l8 45q24 -6 56 -6q47 0 70.5 20t32.5 71l110 632v0z" />
    <glyph glyph-name="approxequal" unicode="&#x2248;" 
d="M384 332q-23 0 -46.5 7.5t-46.5 16.5t-44.5 16.5t-39.5 7.5q-23 0 -39 -9.5t-41 -35.5l-23 29q20 26 44.5 42.5t58.5 16.5q22 0 46 -7.5t47.5 -16.5t44.5 -16.5t39 -7.5q23 0 39 9.5t41 35.5l23 -29q-20 -26 -44.5 -42.5t-58.5 -16.5zM384 122q-23 0 -46.5 7.5
t-46.5 16.5t-44.5 16.5t-39.5 7.5q-23 0 -39 -9.5t-41 -35.5l-23 29q20 26 44.5 42.5t58.5 16.5q22 0 46 -7.5t47.5 -16.5t44.5 -16.5t39 -7.5q23 0 39 9.5t41 35.5l23 -29q-20 -26 -44.5 -42.5t-58.5 -16.5z" />
    <glyph glyph-name="notequal" unicode="&#x2260;" 
d="M176 0v5l47 136h-130v43h145l60 174h-205v43h220l48 140h41v-5l-47 -135h141v-43h-156l-59 -174h215v-43h-230l-48 -141h-42z" />
    <glyph glyph-name="lessequal" unicode="&#x2264;" 
d="M510 44v-43h-443v43h443zM504 179l-438 202v37l438 202h5v-45l-388 -174v-3l388 -174v-45h-5z" />
    <glyph glyph-name="greaterequal" unicode="&#x2265;" 
d="M82 179v45l388 174v3l-388 174v45h5l438 -202v-37l-438 -202h-5zM523 44v-43h-443v43h443z" />
    <glyph glyph-name="lozenge" unicode="&#x25ca;" horiz-adv-x="531" 
d="M84 332l179 -286l183 293l-181 294zM244 680h43l213 -340l-216 -340h-43l-211 331z" />
    <glyph glyph-name="circle" unicode="&#x25cb;" horiz-adv-x="800" 
d="M60 341q0 72 26 134t71.5 107.5t107 71.5t132.5 26q72 0 135 -26t109 -71.5t72.5 -107.5t26.5 -134t-26.5 -134.5t-72.5 -108.5t-109 -72t-135 -26q-71 0 -132.5 26t-107 72t-71.5 108.5t-26 134.5zM125 341q0 -59 21 -109.5t57.5 -88t86 -58.5t107.5 -21t109 21t88 58.5
t58.5 88t21.5 109.5q0 58 -21.5 108.5t-58.5 87.5t-88 58t-109 21t-107.5 -21t-86 -58t-57.5 -87.5t-21 -108.5z" />
    <glyph glyph-name="H18533" unicode="&#x25cf;" horiz-adv-x="800" 
d="M60 338q0 73 25.5 136t71 108.5t107.5 71.5t136 26q72 0 134.5 -26t108 -71.5t71.5 -108.5t26 -136q0 -72 -26 -134t-71.5 -107.5t-108 -71t-134.5 -25.5q-74 0 -136 25.5t-107.5 71t-71 107.5t-25.5 134z" />
    <glyph glyph-name="uni25DC" unicode="&#x25dc;" horiz-adv-x="337" 
d="M337 616q-58 0 -107.5 -21t-86 -58t-57.5 -87.5t-21 -108.5h-65q0 72 26 134t71.5 107.5t107 71.5t132.5 26v-64z" />
    <glyph glyph-name="uni25DD" unicode="&#x25dd;" horiz-adv-x="341" 
d="M0 680q72 0 134.5 -26t108.5 -71.5t72 -107.5t26 -134h-66q0 58 -21 108.5t-58 87.5t-87.5 58t-108.5 21v64z" />
    <glyph glyph-name="uni25DE" unicode="&#x25de;" horiz-adv-x="341" 
d="M0 64q58 0 108.5 21t87.5 58.5t58 88t21 109.5h66q0 -72 -26 -134.5t-72 -108.5t-108.5 -72t-134.5 -26v64z" />
    <glyph glyph-name="uni25DF" unicode="&#x25df;" horiz-adv-x="337" 
d="M337 0q-71 0 -132.5 26t-107 72t-71.5 108.5t-26 134.5h65q0 -59 21 -109.5t57.5 -88t86 -58.5t107.5 -21v-64z" />
    <glyph glyph-name="uniF6C3" unicode="&#xf6c3;" 
d="M261 -212l16 134h53v-6l-31 -134h-38v6z" />
    <glyph glyph-name="uniF6E1" unicode="&#xf6e1;" horiz-adv-x="157" 
d="M39 -215l16 151h52v-5l-35 -151h-33v5z" />
    <glyph glyph-name="uniF6E2" unicode="&#xf6e2;" horiz-adv-x="157" 
d="M39 380l16 151h52v-5l-35 -151h-33v5z" />
    <glyph glyph-name="uniF6E5" unicode="&#xf6e5;" horiz-adv-x="228" 
d="M51 36v37h126v-37h-126z" />
    <glyph glyph-name="uniF6E6" unicode="&#xf6e6;" horiz-adv-x="228" 
d="M51 631v37h126v-37h-126z" />
    <glyph glyph-name="uniF6E7" unicode="&#xf6e7;" horiz-adv-x="167" 
d="M44 -88q0 18 11 29t29 11t28 -11t10 -29q0 -17 -10 -28t-28 -11t-29 11t-11 28z" />
    <glyph glyph-name="uniF6E8" unicode="&#xf6e8;" horiz-adv-x="167" 
d="M44 507q0 18 11 29t29 11t28 -11t10 -29q0 -17 -10 -28t-28 -11t-29 11t-11 28z" />
    <glyph glyph-name="uniF8FF" unicode="&#xf8ff;" horiz-adv-x="581" 
d="M84 680h413v-680h-413v680zM439 58v564h-297v-564h297z" />
    <glyph glyph-name="uniFB01" unicode="&#xfb01;" horiz-adv-x="556" 
d="M424 0v439h-262v-439h-48v439h-86v35l86 8v82q0 73 33.5 107t102.5 34q32 0 58 -6v-45q-26 6 -57 6q-47 0 -68 -20t-21 -71v-87h310v-482h-48zM409 627q0 19 11 29t28 10t27.5 -10t10.5 -29q0 -20 -10.5 -30t-27.5 -10t-28 10t-11 30z" />
    <glyph glyph-name="uniFB02" unicode="&#xfb02;" horiz-adv-x="574" 
d="M114 0v439h-86v35l86 8v82q0 73 33.5 107t102.5 34q32 0 58 -6v-45q-26 6 -57 6q-47 0 -68 -20t-21 -71v-87h142v-43h-142v-439h-48zM476 700v-620q0 -23 7 -35t30 -12h35v-37q-18 -6 -42 -6q-43 0 -60.5 24t-17.5 74v612h48z" />
    <glyph glyph-name="zero.pnum" horiz-adv-x="640" 
d="M125 340q0 -67 9 -123.5t31 -97t59.5 -63.5t95.5 -23t95.5 23t59.5 63.5t31 97t9 123.5t-9 123.5t-31 97t-59.5 63.5t-95.5 23t-95.5 -23t-59.5 -63.5t-31 -97t-9 -123.5zM566 340q0 -82 -14 -147.5t-43.5 -111.5t-76 -71t-112.5 -25t-112.5 25t-76 71t-43.5 111.5
t-14 147.5t14 147.5t43.5 111.5t76 71t112.5 25t112.5 -25t76 -71t43.5 -111.5t14 -147.5z" />
    <glyph glyph-name="one.pnum" horiz-adv-x="342" 
d="M36 549v48l178 83h41v-680h-49v625h-2l-163 -76h-5z" />
    <glyph glyph-name="two.pnum" horiz-adv-x="530" 
d="M125 47h341v-47h-410v45l279 282q32 32 54.5 73.5t22.5 95.5q0 33 -11 60.5t-31.5 48t-48 31.5t-60.5 11q-61 0 -102 -21.5t-73 -53.5l-29 36q16 16 35.5 31.5t44 28t55 20t69.5 7.5q46 0 83.5 -15t64 -41t41 -63t14.5 -80q0 -66 -26.5 -113.5t-66.5 -87.5l-246 -246v-2z
" />
    <glyph glyph-name="three.pnum" horiz-adv-x="546" 
d="M142 373h124q66 0 106 37t40 98q0 69 -42 104t-111 35q-48 0 -89.5 -11t-79.5 -31l-18 42q36 21 83.5 34.5t104.5 13.5q94 0 149 -49t55 -138q0 -34 -9.5 -59.5t-24.5 -44.5t-34.5 -31.5t-38.5 -19.5v-2q57 -14 90 -61t33 -113q0 -48 -18.5 -84t-50 -60t-73.5 -36
t-88 -12q-67 0 -115 17t-83 40l21 43q40 -25 81.5 -38.5t95.5 -13.5q34 0 66.5 9t57 27t39.5 45t15 63q0 28 -7.5 54.5t-26.5 47.5t-52.5 34t-84.5 13h-115v47z" />
    <glyph glyph-name="four.pnum" horiz-adv-x="572" 
d="M440 492v-302h98v-47h-98v-143h-50v143h-354v42l222 495h51l-216 -490h297v302h50z" />
    <glyph glyph-name="five.pnum" horiz-adv-x="530" 
d="M95 350l45 330h309v-47h-267l-33 -239q20 3 44 5t50 2q51 0 93.5 -11.5t72.5 -35.5t46.5 -61t16.5 -88q0 -58 -19.5 -99.5t-52.5 -68.5t-77 -39.5t-93 -12.5q-61 0 -108.5 15.5t-76.5 30.5l17 45q32 -17 75.5 -30t92.5 -13q39 0 73.5 9t60.5 29t41 53t15 81
q0 148 -179 148q-31 0 -68.5 -3t-71.5 -8z" />
    <glyph glyph-name="six.pnum" horiz-adv-x="555" 
d="M346 674l-181 -280l1 -1q20 14 49.5 24.5t70.5 10.5q51 0 92 -16t70 -45t45 -69.5t16 -90.5t-15.5 -91t-45 -70t-72 -45t-95.5 -16q-55 0 -97.5 16t-71.5 45t-44 70t-15 91q0 55 22.5 113t63.5 121l152 239h55v-6zM457 207q0 80 -45.5 126.5t-130.5 46.5t-130.5 -46.5
t-45.5 -126.5q0 -79 45.5 -126.5t130.5 -47.5t130.5 47.5t45.5 126.5z" />
    <glyph glyph-name="seven.pnum" horiz-adv-x="466" 
d="M137 6l245 625v2h-349v47h403v-41l-248 -639h-51v6z" />
    <glyph glyph-name="eight.pnum" horiz-adv-x="600" 
d="M300 33q96 0 139.5 42.5t43.5 108.5t-44 108.5t-139 42.5t-139 -42.5t-44 -108.5t44 -108.5t139 -42.5zM300 695q54 0 93.5 -14.5t65 -39.5t38 -58t12.5 -70q0 -32 -8.5 -56.5t-22.5 -43t-31.5 -31.5t-35.5 -21v-2q57 -21 90.5 -67t33.5 -109q0 -41 -13.5 -77t-42.5 -63
t-73.5 -42.5t-105.5 -15.5q-62 0 -106 15.5t-73 42.5t-42.5 63t-13.5 77q0 63 33.5 109t90.5 67v2q-18 8 -35.5 21t-31.5 31.5t-22.5 43t-8.5 56.5q0 37 12.5 70t38 58t65 39.5t93.5 14.5zM300 383q78 0 117.5 33.5t39.5 96.5t-39 98.5t-118 35.5t-118 -35.5t-39 -98.5
t39.5 -96.5t117.5 -33.5z" />
    <glyph glyph-name="nine.pnum" horiz-adv-x="555" 
d="M209.987 6l180.989 279.982l-1 1q-19.999 -13.999 -49.4971 -24.498q-29.498 -10.5 -70.4961 -10.5q-50.9971 0 -91.9941 15.999q-40.998 15.999 -69.9961 44.9971q-28.998 28.999 -44.9971 69.4961q-15.999 40.498 -15.999 90.4941q0 49.9971 15.499 90.9951
q15.499 40.9971 44.9971 69.9951q29.498 28.999 71.9961 44.998q42.4971 15.999 95.4941 15.999q54.9961 0 97.4941 -15.999q42.4971 -15.999 71.4951 -44.998q28.998 -28.998 43.998 -69.9951q14.999 -40.998 14.999 -90.9951q0 -54.9961 -22.499 -112.992
q-22.499 -57.9971 -63.4961 -120.993l-151.991 -238.985h-54.9961v6zM98.9941 472.971q0 -79.9951 45.4971 -126.492t130.492 -46.4971t130.492 46.4971t45.4971 126.492q0 78.9961 -45.4971 126.493t-130.492 47.4971t-130.492 -47.4971t-45.4971 -126.493z" />
    <glyph glyph-name="a.salt" horiz-adv-x="490" 
d="M287 238q-52 0 -88 -6.5t-58.5 -20t-32.5 -33.5t-10 -47q0 -48 30 -74.5t79 -26.5q48 0 86.5 16t68.5 39v153h-75zM364 42q-26 -22 -67 -39.5t-94 -17.5q-34 0 -62.5 10.5t-49 29t-32 45.5t-11.5 60q0 78 58.5 114t173.5 36h82v29q0 80 -36.5 111.5t-94.5 31.5
q-45 0 -77 -13t-58 -33l-22 36q28 24 67 39.5t90 15.5q40 0 73 -10.5t56.5 -33.5t36.5 -58.5t13 -85.5v-309h-38l-6 42h-2z" />
    <glyph glyph-name="agrave.aalt" horiz-adv-x="490" 
d="M287 238q-52 0 -88 -6.5t-58.5 -20t-32.5 -33.5t-10 -47q0 -48 30 -74.5t79 -26.5q48 0 86.5 16t68.5 39v153h-75zM364 42q-26 -22 -67 -39.5t-94 -17.5q-34 0 -62.5 10.5t-49 29t-32 45.5t-11.5 60q0 78 58.5 114t173.5 36h82v29q0 80 -36.5 111.5t-94.5 31.5
q-45 0 -77 -13t-58 -33l-22 36q28 24 67 39.5t90 15.5q40 0 73 -10.5t56.5 -33.5t36.5 -58.5t13 -85.5v-309h-38l-6 42h-2zM169 696h54l48 -110v-5h-43l-59 110v5z" />
    <glyph glyph-name="aacute.aalt" horiz-adv-x="490" 
d="M287 238q-52 0 -88 -6.5t-58.5 -20t-32.5 -33.5t-10 -47q0 -48 30 -74.5t79 -26.5q48 0 86.5 16t68.5 39v153h-75zM364 42q-26 -22 -67 -39.5t-94 -17.5q-34 0 -62.5 10.5t-49 29t-32 45.5t-11.5 60q0 78 58.5 114t173.5 36h82v29q0 80 -36.5 111.5t-94.5 31.5
q-45 0 -77 -13t-58 -33l-22 36q28 24 67 39.5t90 15.5q40 0 73 -10.5t56.5 -33.5t36.5 -58.5t13 -85.5v-309h-38l-6 42h-2zM316 691l-59 -110h-43v5l48 110h54v-5z" />
    <glyph glyph-name="acircumflex.aalt" horiz-adv-x="490" 
d="M287 238q-52 0 -88 -6.5t-58.5 -20t-32.5 -33.5t-10 -47q0 -48 30 -74.5t79 -26.5q48 0 86.5 16t68.5 39v153h-75zM364 42q-26 -22 -67 -39.5t-94 -17.5q-34 0 -62.5 10.5t-49 29t-32 45.5t-11.5 60q0 78 58.5 114t173.5 36h82v29q0 80 -36.5 111.5t-94.5 31.5
q-45 0 -77 -13t-58 -33l-22 36q28 24 67 39.5t90 15.5q40 0 73 -10.5t56.5 -33.5t36.5 -58.5t13 -85.5v-309h-38l-6 42h-2zM361 586v-5h-51l-69 73l-69 -73h-51v5l102 110h36z" />
    <glyph glyph-name="atilde.aalt" horiz-adv-x="490" 
d="M287 238q-52 0 -88 -6.5t-58.5 -20t-32.5 -33.5t-10 -47q0 -48 30 -74.5t79 -26.5q48 0 86.5 16t68.5 39v153h-75zM364 42q-26 -22 -67 -39.5t-94 -17.5q-34 0 -62.5 10.5t-49 29t-32 45.5t-11.5 60q0 78 58.5 114t173.5 36h82v29q0 80 -36.5 111.5t-94.5 31.5
q-45 0 -77 -13t-58 -33l-22 36q28 24 67 39.5t90 15.5q40 0 73 -10.5t56.5 -33.5t36.5 -58.5t13 -85.5v-309h-38l-6 42h-2zM291 622q17 0 29 8.5t26 27.5l23 -29q-15 -23 -34 -35.5t-44 -12.5q-14 0 -28 6t-27 13.5t-24.5 13.5t-20.5 6q-17 0 -29 -8.5t-26 -27.5l-23 29
q15 23 34 35.5t44 12.5q14 0 28 -6t26.5 -13.5t24.5 -13.5t21 -6z" />
    <glyph glyph-name="adieresis.aalt" horiz-adv-x="490" 
d="M287 238q-52 0 -88 -6.5t-58.5 -20t-32.5 -33.5t-10 -47q0 -48 30 -74.5t79 -26.5q48 0 86.5 16t68.5 39v153h-75zM364 42q-26 -22 -67 -39.5t-94 -17.5q-34 0 -62.5 10.5t-49 29t-32 45.5t-11.5 60q0 78 58.5 114t173.5 36h82v29q0 80 -36.5 111.5t-94.5 31.5
q-45 0 -77 -13t-58 -33l-22 36q28 24 67 39.5t90 15.5q40 0 73 -10.5t56.5 -33.5t36.5 -58.5t13 -85.5v-309h-38l-6 42h-2zM114 626q0 17 11 28.5t28 11.5q16 0 27 -11.5t11 -28.5t-11 -28t-27 -11q-17 0 -28 11t-11 28zM292 626q0 17 11 28.5t28 11.5q16 0 27 -11.5
t11 -28.5t-11 -28t-27 -11q-17 0 -28 11t-11 28z" />
    <glyph glyph-name="aring.aalt" horiz-adv-x="490" 
d="M195 622q0 -21 12.5 -32.5t33.5 -11.5t33.5 11.5t12.5 32.5t-12.5 32.5t-33.5 11.5t-33.5 -11.5t-12.5 -32.5zM159 622q0 36 23 57.5t59 21.5t59 -21.5t23 -57.5t-23 -57.5t-59 -21.5t-59 21.5t-23 57.5zM287 238q-52 0 -88 -6.5t-58.5 -20t-32.5 -33.5t-10 -47
q0 -48 30 -74.5t79 -26.5q48 0 86.5 16t68.5 39v153h-75zM364 42q-26 -22 -67 -39.5t-94 -17.5q-34 0 -62.5 10.5t-49 29t-32 45.5t-11.5 60q0 78 58.5 114t173.5 36h82v29q0 80 -36.5 111.5t-94.5 31.5q-45 0 -77 -13t-58 -33l-22 36q28 24 67 39.5t90 15.5q40 0 73 -10.5
t56.5 -33.5t36.5 -58.5t13 -85.5v-309h-38l-6 42h-2z" />
    <glyph glyph-name="amacron.aalt" horiz-adv-x="490" 
d="M287 238q-52 0 -88 -6.5t-58.5 -20t-32.5 -33.5t-10 -47q0 -48 30 -74.5t79 -26.5q48 0 86.5 16t68.5 39v153h-75zM364 42q-26 -22 -67 -39.5t-94 -17.5q-34 0 -62.5 10.5t-49 29t-32 45.5t-11.5 60q0 78 58.5 114t173.5 36h82v29q0 80 -36.5 111.5t-94.5 31.5
q-45 0 -77 -13t-58 -33l-22 36q28 24 67 39.5t90 15.5q40 0 73 -10.5t56.5 -33.5t36.5 -58.5t13 -85.5v-309h-38l-6 42h-2zM122 596v43h239v-43h-239z" />
    <glyph glyph-name="abreve.aalt" horiz-adv-x="490" 
d="M287 238q-52 0 -88 -6.5t-58.5 -20t-32.5 -33.5t-10 -47q0 -48 30 -74.5t79 -26.5q48 0 86.5 16t68.5 39v153h-75zM364 42q-26 -22 -67 -39.5t-94 -17.5q-34 0 -62.5 10.5t-49 29t-32 45.5t-11.5 60q0 78 58.5 114t173.5 36h82v29q0 80 -36.5 111.5t-94.5 31.5
q-45 0 -77 -13t-58 -33l-22 36q28 24 67 39.5t90 15.5q40 0 73 -10.5t56.5 -33.5t36.5 -58.5t13 -85.5v-309h-38l-6 42h-2zM241 613q44 0 64.5 15.5t34.5 34.5l26 -20q-17 -30 -45.5 -51t-79.5 -21t-79.5 21t-45.5 51l26 20q14 -19 34.5 -34.5t64.5 -15.5z" />
    <glyph glyph-name="aogonek.aalt" horiz-adv-x="490" 
d="M287 238q-52 0 -88 -6.5t-58.5 -20t-32.5 -33.5t-10 -47q0 -48 30 -74.5t79 -26.5q48 0 86.5 16t68.5 39v153h-75zM364 42q-26 -22 -67 -39.5t-94 -17.5q-34 0 -62.5 10.5t-49 29t-32 45.5t-11.5 60q0 78 58.5 114t173.5 36h82v29q0 80 -36.5 111.5t-94.5 31.5
q-45 0 -77 -13t-58 -33l-22 36q28 24 67 39.5t90 15.5q40 0 73 -10.5t56.5 -33.5t36.5 -58.5t13 -85.5v-309h-38l-6 42h-2zM336 -213q-42 0 -65 23.5t-23 58.5q0 26 11.5 47.5t30.5 40.5t44 37t53 36l23 -30q-61 -41 -90 -67t-29 -57q0 -17 11.5 -32t36.5 -15q20 0 37 6.5
t33 16.5l7 -38q-13 -10 -34 -18.5t-46 -8.5z" />
    <glyph glyph-name="aringacute.aalt" horiz-adv-x="490" 
d="M287 238q-52 0 -88 -6.5t-58.5 -20t-32.5 -33.5t-10 -47q0 -48 30 -74.5t79 -26.5q48 0 86.5 16t68.5 39v153h-75zM364 42q-26 -22 -67 -39.5t-94 -17.5q-34 0 -62.5 10.5t-49 29t-32 45.5t-11.5 60q0 78 58.5 114t173.5 36h82v29q0 80 -36.5 111.5t-94.5 31.5
q-45 0 -77 -13t-58 -33l-22 36q28 24 67 39.5t90 15.5q40 0 73 -10.5t56.5 -33.5t36.5 -58.5t13 -85.5v-309h-38l-6 42h-2zM324 799l-59 -110h-43v5l48 110h54v-5zM196.791 595.129q0 -19.1387 12.4238 -29.6191q12.4238 -10.4814 33.2959 -10.4814t33.2959 10.4814
q12.4238 10.4805 12.4238 29.6191t-12.4238 29.6201q-12.4238 10.4805 -33.2959 10.4805t-33.2959 -10.4805q-12.4238 -10.4814 -12.4238 -29.6201zM161.012 595.129q0 32.8096 22.8594 52.4043t58.6396 19.5947t58.6396 -19.5947t22.8594 -52.4043t-22.8594 -52.4043
q-22.8594 -19.5938 -58.6396 -19.5938t-58.6396 19.5938q-22.8594 19.5947 -22.8594 52.4043z" />
    <glyph glyph-name="uni0444.aalt" horiz-adv-x="622" 
d="M109 241q0 -40 7 -76.5t26.5 -65t54 -47.5t90.5 -24v423q-56 -5 -90.5 -23t-54 -46t-26.5 -64t-7 -77zM513 241q0 41 -7 77t-26.5 64t-54 46t-90.5 23v-423q56 5 90.5 24t54 47.5t26.5 65t7 76.5zM335 -198h-48v183q-67 3 -111 24.5t-70 56t-36.5 80t-10.5 95.5t10.5 94
t36.5 78t70 55.5t111 26.5v205h48v-205q67 -5 111 -26.5t70 -55.5t36.5 -78t10.5 -94t-10.5 -95.5t-36.5 -80t-70 -56t-111 -24.5v-183z" />
    <glyph glyph-name="Euro.aalt" 
d="M124 340v27.5t2 27.5h-89v42h93q8 59 27.5 106.5t52 81.5t78 52t105.5 18q38 0 81.5 -11t76.5 -32l-14 -45q-34 21 -73.5 30.5t-70.5 9.5q-50 0 -87 -14.5t-62.5 -41.5t-40.5 -66t-22 -88h255v-43l-260 1q-1 -14 -1 -27.5v-27.5v-33t2 -31h259v-42h-254q7 -47 22.5 -84.5
t41 -63.5t62 -39.5t85.5 -13.5q31 0 66.5 8t69.5 29l17 -42q-33 -21 -74 -32t-79 -11q-59 0 -104 17.5t-77 49.5t-52 78.5t-29 103.5h-94v42h89q-1 15 -1.5 31t-0.5 33z" />
    <glyph glyph-name="uni20A8.aalt" 
d="M355 629q32 -15 50.5 -40.5t23.5 -66.5h76v-48h-76q-7 -76 -58 -119t-148 -43h-52l281 -305v-7h-63l-293 321v37h121q149 0 161 116h-282v48h281q-14 107 -152 110h-129v48h409v-48h-150v-3z" />
    <glyph glyph-name="registered.aalt" horiz-adv-x="836" 
d="M773 340q0 -75 -27 -140t-75 -113t-113 -75t-140 -27t-140 27t-113 75t-75 113t-27 140t27 140t75 113t113 75t140 27t140 -27t113 -75t75 -113t27 -140zM110 340q0 -68 22.5 -125t63 -98t97.5 -64.5t125 -23.5t125 23.5t97.5 64.5t63 98t22.5 125q0 67 -22.5 124.5
t-63 98.5t-97.5 64.5t-125 23.5t-125 -23.5t-97.5 -64.5t-63 -98.5t-22.5 -124.5zM294 153v374h139q60 0 93 -26.5t33 -80.5q0 -46 -24.5 -73t-69.5 -33l118 -156v-5h-51l-120 159h-72v-159h-46zM432 354q35 0 57 13.5t22 52.5q0 38 -22 51t-57 13h-92v-130h92z" />
    <glyph glyph-name="uniEA04" unicode="&#xea04;" horiz-adv-x="1000" 
d="M69 765h861v-861h-861v861zM598 110h98v469h-98v-192h-195v192h-98v-469h98v195h195v-195z" />
    <glyph glyph-name="uniEA05" unicode="&#xea05;" horiz-adv-x="1000" 
d="M69 765h861v-861h-861v861zM295 344q0 -55 15 -100t44.5 -77.5t72 -50t97.5 -17.5q33 0 67.5 8t67.5 22l-27 78q-30 -14 -54.5 -19t-53.5 -5t-52 12t-39.5 33t-25.5 50.5t-9 65.5q0 72 34 116.5t92 44.5q29 0 53.5 -5t54.5 -19l27 78q-33 15 -67.5 22.5t-67.5 7.5
q-55 0 -97.5 -18t-72 -50t-44.5 -77t-15 -100z" />
    <glyph glyph-name="uniEA06" unicode="&#xea06;" horiz-adv-x="1000" 
d="M69 765h861v-861h-861v861zM331 144q31 -18 73.5 -31.5t93.5 -13.5q37 0 68.5 10.5t54 30t35 47t12.5 62.5q0 54 -32.5 84.5t-98.5 52.5l-50 16q-29 9 -39 22t-10 31q0 24 16.5 37.5t51.5 13.5q26 0 56 -7t58 -21l28 78q-35 18 -72 25.5t-69 7.5q-81 0 -125 -39t-44 -105
q0 -44 24 -77.5t89 -54.5l51 -16q38 -12 52 -24.5t14 -34.5q0 -56 -73 -56q-36 0 -73.5 12t-60.5 28z" />
    </font>
</defs>
</svg>
